<?xml version="1.0" encoding="UTF-8" standalone="no"?>
<!DOCTYPE svg PUBLIC "-//W3C//DTD SVG 1.0//EN" "http://www.w3.org/TR/2001/REC-SVG-20010904/DTD/svg10.dtd">
<!-- Generato da Microsoft Visio 11.0, SVG Export, v1.0 jakartaeett_dt_006.svg Pagina 1 -->
<svg xmlns="http://www.w3.org/2000/svg" xmlns:v="http://schemas.microsoft.com/visio/2003/SVGExtensions/" width="7.29037in"
		height="2.30346in" viewBox="0 0 524.907 165.849" xml:space="preserve" color-interpolation-filters="sRGB" class="st10">
	<v:documentProperties v:langID="1040" v:metric="true" v:viewMarkup="false">
		<v:userDefs>
			<v:ud v:nameU="MBSAAvail" v:prompt="" v:val="VT0(2):26"/>
			<v:ud v:nameU="MBSAAddinEnabled" v:prompt="" v:val="VT0(2):26"/>
			<v:ud v:nameU="MBSAAddinOutlineVisible" v:prompt="" v:val="VT0(1):26"/>
		</v:userDefs>
	</v:documentProperties>

	<style type="text/css">
	<![CDATA[
		.st1 {fill:#ffffff;stroke:none;stroke-linecap:round;stroke-linejoin:round;stroke-width:0.72}
		.st2 {fill:#eef2f7;stroke:#000000;stroke-linecap:round;stroke-linejoin:round;stroke-width:0.72}
		.st3 {fill:#f2f2f2;stroke:#000000;stroke-linecap:round;stroke-linejoin:round;stroke-width:0.72}
		.st4 {fill:none;stroke:none;stroke-linecap:round;stroke-linejoin:round;stroke-width:0.72}
		.st5 {fill:#000000;font-family:Arial;font-size:0.666664em}
		.st6 {fill:#ffffff;stroke:none;stroke-linecap:butt;stroke-width:0.75}
		.st7 {fill:#7395bf;stroke:none;stroke-linecap:butt;stroke-width:0.75}
		.st8 {stroke:#000000;stroke-linecap:round;stroke-linejoin:round;stroke-width:0.72}
		.st9 {fill:#000000;stroke:#000000;stroke-linecap:round;stroke-linejoin:round;stroke-width:0.72}
		.st10 {fill:none;fill-rule:evenodd;font-size:12;overflow:visible;stroke-linecap:square;stroke-miterlimit:3}
	]]>
	</style>

	<g v:mID="0" v:index="1" v:groupContext="foregroundPage">
		<title>Pagina 1</title>
		<v:pageProperties v:drawingScale="0.0393701" v:pageScale="0.0393701" v:drawingUnits="24" v:shadowOffsetX="8.50394"
				v:shadowOffsetY="-8.50394"/>
		<v:layer v:name="symbols" v:index="0"/>
		<g id="shape112-1" v:mID="112" v:groupContext="shape" transform="translate(0.72,-0.72)">
			<title>Foglio.112</title>
			<rect x="0" y="1.44" width="521.575" height="164.409" class="st1"/>
		</g>
		<g id="shape114-3" v:mID="114" v:groupContext="shape" transform="translate(14.8932,-17.7279)">
			<title>Foglio.114</title>
			<rect x="0" y="32.6211" width="167.244" height="133.228" class="st2"/>
		</g>
		<g id="shape116-5" v:mID="116" v:groupContext="shape" transform="translate(20.5625,-112.866)">
			<title>Foglio.116</title>
			<rect x="0" y="146.007" width="147.402" height="19.8425" class="st3"/>
		</g>
		<g id="shape118-7" v:mID="118" v:groupContext="shape" transform="translate(19.1452,-134.126)">
			<title>Foglio.118</title>
			<desc>Client System</desc>
			<v:textBlock v:margins="rect(4,4,4,4)" v:tabSpace="42.5197"/>
			<v:textRect cx="80.0787" cy="158.94" width="160.16" height="13.8189"/>
			<rect x="0" y="152.031" width="160.157" height="13.8189" class="st4"/>
			<text x="55.41" y="161.34" class="st5" v:langID="1040"><v:paragraph v:horizAlign="1"/><v:tabList/>Client System</text>		</g>
		<g id="shape126-10" v:mID="126" v:groupContext="shape" transform="translate(20.5625,-114.283)">
			<title>Foglio.126</title>
			<desc>Browser</desc>
			<v:textBlock v:margins="rect(4,4,4,4)" v:tabSpace="42.5197"/>
			<v:textRect cx="65.1969" cy="157.168" width="130.4" height="17.3622"/>
			<rect x="0" y="148.487" width="130.394" height="17.3622" class="st4"/>
			<text x="50.53" y="159.57" class="st5" v:langID="1040"><v:paragraph v:horizAlign="1"/><v:tabList/>Browser</text>		</g>
		<g id="group117-13" transform="translate(451.29,-15.7968)" v:mID="117" v:groupContext="group" v:layerMember="0">
			<title>Database, mini 3 - blue</title>
			<g id="group127-14" v:mID="127" v:groupContext="group" v:layerMember="0">
				<title>Foglio.127</title>
				<g id="shape128-15" v:mID="128" v:groupContext="shape" v:layerMember="0">
					<title>Foglio.128</title>
					<path d="M62.43 114.47 L62.43 112.97 C62.43 107.5 46.76 105.1 31.21 105.1 C15.67 105.1 -0 107.5 0 112.97 L0 114.47
								 L0 155.42 L0 157 L0 157.07 C1.06 164.72 20.02 165.85 31.21 165.85 C42.4 165.85 61.37 164.72 62.43
								 157.07 L62.43 157 L62.43 155.35 L62.43 114.47 Z" class="st6"/>
				</g>
				<g id="shape129-17" v:mID="129" v:groupContext="shape" v:layerMember="0" transform="translate(3.53361,-2.25)">
					<title>Foglio.129</title>
					<path d="M27.68 153.1 C16.61 153.1 5.54 151.9 0 149.2 L0 157.6 L0 159.1 C0.82 165.32 20.73 165.85 27.68 165.85
								 C34.63 165.85 54.42 165.32 55.36 159.1 L55.36 157.6 L55.36 149.2 C49.82 151.82 38.75 153.1 27.68
								 153.1 Z" class="st7"/>
				</g>
				<g id="shape130-19" v:mID="130" v:groupContext="shape" v:layerMember="0" transform="translate(3.53361,-17.25)">
					<title>Foglio.130</title>
					<path d="M27.68 153.1 C16.61 153.1 5.54 151.9 0 149.2 L0 157.6 L0 159.1 C0.82 165.32 20.73 165.85 27.68 165.85
								 C34.63 165.85 54.42 165.32 55.36 159.1 L55.36 157.6 L55.36 149.2 C49.82 151.82 38.75 153.1 27.68
								 153.1 Z" class="st7"/>
				</g>
				<g id="shape131-21" v:mID="131" v:groupContext="shape" v:layerMember="0" transform="translate(3.53361,-32.25)">
					<title>Foglio.131</title>
					<path d="M27.68 153.1 C16.61 153.1 5.54 151.9 0 149.2 L0 157.6 L0 159.1 C0.82 165.32 20.73 165.85 27.68 165.85
								 C34.63 165.85 54.42 165.32 55.36 159.1 L55.36 157.6 L55.36 149.2 C49.82 151.82 38.75 153.1 27.68
								 153.1 Z" class="st7"/>
				</g>
				<g id="shape132-23" v:mID="132" v:groupContext="shape" v:layerMember="0" transform="translate(3.53361,-47.25)">
					<title>Foglio.132</title>
					<ellipse cx="27.68" cy="160.224" rx="27.68" ry="5.625" class="st7"/>
				</g>
			</g>
		</g>
		<g id="shape138-25" v:mID="138" v:groupContext="shape" transform="translate(448.594,-78.6728)">
			<title>Foglio.138</title>
			<desc>Database</desc>
			<v:textBlock v:margins="rect(4,4,4,4)" v:tabSpace="42.5197"/>
			<v:textRect cx="24.9661" cy="159.471" width="49.94" height="12.7559"/>
			<rect x="0" y="153.094" width="49.9323" height="12.7559" class="st4"/>
			<text x="7.84" y="161.87" class="st5" v:langID="1040"><v:paragraph v:horizAlign="1"/><v:tabList/>Database</text>		</g>
		<g id="shape139-28" v:mID="139" v:groupContext="shape" transform="translate(20.5625,-22.2161)">
			<title>Foglio.139</title>
			<rect x="0" y="122.149" width="147.402" height="43.7008" class="st3"/>
		</g>
		<g id="shape125-30" v:mID="125" v:groupContext="shape" transform="translate(21.7436,-48.909)">
			<title>Foglio.125</title>
			<desc>Application Client Container</desc>
			<v:textBlock v:margins="rect(4,4,4,4)" v:tabSpace="42.5197"/>
			<v:textRect cx="57.5197" cy="157.936" width="115.04" height="15.8268"/>
			<rect x="0" y="150.023" width="115.039" height="15.8268" class="st4"/>
			<text x="8.16" y="160.34" class="st5" v:langID="1040"><v:paragraph v:horizAlign="1"/><v:tabList/>Application Client Container</text>		</g>
		<g id="shape140-33" v:mID="140" v:groupContext="shape" transform="translate(25.9956,-27.8854)">
			<title>Foglio.140</title>
			<rect x="0" y="146.007" width="136.299" height="19.8425" class="st2"/>
		</g>
		<g id="shape119-35" v:mID="119" v:groupContext="shape" transform="translate(25.9956,-27.8854)">
			<title>Foglio.119</title>
			<desc>Application Client</desc>
			<v:textBlock v:margins="rect(4,4,4,4)" v:tabSpace="42.5197"/>
			<v:textRect cx="58.1102" cy="156.017" width="116.23" height="19.6654"/>
			<rect x="0" y="146.184" width="116.22" height="19.6654" class="st4"/>
			<text x="27.2" y="158.42" class="st5" v:langID="1040"><v:paragraph v:horizAlign="1"/><v:tabList/>Application Client</text>		</g>
		<g id="shape115-38" v:mID="115" v:groupContext="shape" transform="translate(187.807,-17.7279)">
			<title>Foglio.115</title>
			<rect x="0" y="32.6211" width="232.441" height="133.228" class="st2"/>
		</g>
		<g id="shape141-40" v:mID="141" v:groupContext="shape" transform="translate(201.98,-91.6058)">
			<title>Foglio.141</title>
			<rect x="0" y="124.747" width="212.598" height="41.1024" class="st3"/>
		</g>
		<g id="shape142-42" v:mID="142" v:groupContext="shape" transform="translate(197.728,-134.126)">
			<title>Foglio.142</title>
			<desc>Jakarta EE Server</desc>
			<v:textBlock v:margins="rect(4,4,4,4)" v:tabSpace="42.5197"/>
			<v:textRect cx="95.6693" cy="158.94" width="191.34" height="13.8189"/>
			<rect x="0" y="152.031" width="191.339" height="13.8189" class="st4"/>
			<text x="63.21" y="161.34" class="st5" v:langID="1040"><v:paragraph v:horizAlign="1"/><v:tabList/>Jakarta EE Server</text>		</g>
		<g id="shape143-45" v:mID="143" v:groupContext="shape" transform="translate(201.98,-114.283)">
			<title>Foglio.143</title>
			<desc>Web Container</desc>
			<v:textBlock v:margins="rect(4,4,4,4)" v:tabSpace="42.5197"/>
			<v:textRect cx="93.5433" cy="157.168" width="187.09" height="17.3622"/>
			<rect x="0" y="148.487" width="187.087" height="17.3622" class="st4"/>
			<text x="66.86" y="159.57" class="st5" v:langID="1040"><v:paragraph v:horizAlign="1"/><v:tabList/>Web Container</text>		</g>
		<g id="shape144-48" v:mID="144" v:groupContext="shape" transform="translate(201.98,-22.2161)">
			<title>Foglio.144</title>
			<rect x="0" y="122.149" width="212.598" height="43.7008" class="st3"/>
		</g>
		<g id="shape145-50" v:mID="145" v:groupContext="shape" transform="translate(203.161,-48.909)">
			<title>Foglio.145</title>
			<desc>EJB Container</desc>
			<v:textBlock v:margins="rect(4,4,4,4)" v:tabSpace="42.5197"/>
			<v:textRect cx="87.2835" cy="157.936" width="174.57" height="15.8268"/>
			<rect x="0" y="150.023" width="174.567" height="15.8268" class="st4"/>
			<text x="61.49" y="160.34" class="st5" v:langID="1040"><v:paragraph v:horizAlign="1"/><v:tabList/>EJB Container</text>		</g>
		<g id="shape146-53" v:mID="146" v:groupContext="shape" transform="translate(207.413,-27.8854)">
			<title>Foglio.146</title>
			<rect x="0" y="146.007" width="97.0406" height="19.8425" class="st2"/>
		</g>
		<g id="shape147-55" v:mID="147" v:groupContext="shape" transform="translate(207.413,-27.8854)">
			<title>Foglio.147</title>
			<desc>EJB</desc>
			<v:textBlock v:margins="rect(4,4,4,4)" v:tabSpace="42.5197"/>
			<v:textRect cx="41.2205" cy="156.017" width="82.45" height="19.6654"/>
			<rect x="0" y="146.184" width="82.4409" height="19.6654" class="st4"/>
			<text x="33.88" y="158.42" class="st5" v:langID="1040"><v:paragraph v:horizAlign="1"/><v:tabList/>EJB</text>		</g>
		<g id="shape148-58" v:mID="148" v:groupContext="shape" transform="translate(207.649,-95.8578)">
			<title>Foglio.148</title>
			<rect x="0" y="146.007" width="113.386" height="19.8425" class="st2"/>
		</g>
		<g id="shape149-60" v:mID="149" v:groupContext="shape" transform="translate(207.649,-95.8578)">
			<title>Foglio.149</title>
			<desc>Jakarta Server Faces</desc>
			<v:textBlock v:margins="rect(4,4,4,4)" v:tabSpace="42.5197"/>
			<v:textRect cx="43.937" cy="156.017" width="87.88" height="19.6654"/>
			<rect x="0" y="146.184" width="87.874" height="19.6654" class="st4"/>
			<text x="5.92" y="158.42" class="st5" v:langID="1040"><v:paragraph v:horizAlign="1"/><v:tabList/>Jakarta Server Faces</text>		</g>
		<g id="shape150-63" v:mID="150" v:groupContext="shape" transform="translate(326.704,-95.8578)">
			<title>Foglio.150</title>
			<rect x="0" y="146.007" width="82.2047" height="19.8425" class="st2"/>
		</g>
		<g id="shape151-65" v:mID="151" v:groupContext="shape" transform="translate(326.704,-95.8578)">
			<title>Foglio.151</title>
			<desc>Servlet</desc>
			<v:textBlock v:margins="rect(4,4,4,4)" v:tabSpace="42.5197"/>
			<v:textRect cx="32.5984" cy="156.017" width="65.2" height="19.6654"/>
			<rect x="0" y="146.184" width="65.1969" height="19.6654" class="st4"/>
			<text x="20.15" y="158.42" class="st5" v:langID="1040"><v:paragraph v:horizAlign="1"/><v:tabList/>Servlet</text>		</g>
		<g id="shape152-68" v:mID="152" v:groupContext="shape" transform="translate(312.2,-27.6491)">
			<title>Foglio.152</title>
			<rect x="0" y="146.007" width="97.0406" height="19.8425" class="st2"/>
		</g>
		<g id="shape153-70" v:mID="153" v:groupContext="shape" transform="translate(312.2,-27.6491)">
			<title>Foglio.153</title>
			<desc>EJB</desc>
			<v:textBlock v:margins="rect(4,4,4,4)" v:tabSpace="42.5197"/>
			<v:textRect cx="41.268" cy="156.017" width="82.54" height="19.6654"/>
			<rect x="0" y="146.184" width="82.5361" height="19.6654" class="st4"/>
			<text x="33.93" y="158.42" class="st5" v:langID="1040"><v:paragraph v:horizAlign="1"/><v:tabList/>EJB</text>		</g>
		<g id="shape154-73" v:mID="154" v:groupContext="shape" transform="translate(141.012,99.9326) rotate(-90)">
			<title>Foglio.154</title>
			<path d="M0 165.85 L20.59 165.85" class="st8"/>
		</g>
		<g id="shape155-76" v:mID="155" v:groupContext="shape" transform="translate(304.027,254.727) scale(1,-1)">
			<title>Foglio.155</title>
			<path d="M5.67 165.85 L0 165.85 L2.83 156.21 L5.67 165.85 Z" class="st9"/>
		</g>
		<g id="shape156-78" v:mID="156" v:groupContext="shape" transform="translate(309.696,-81.6846) scale(-1,1)">
			<title>Foglio.156</title>
			<path d="M5.67 165.85 L0 165.85 L2.83 156.21 L5.67 165.85 Z" class="st9"/>
		</g>
		<g id="shape133-80" v:mID="133" v:groupContext="shape" transform="translate(439.984,291.294) scale(1,-1)">
			<title>Foglio.133</title>
			<path d="M0 165.85 L14.17 165.85" class="st8"/>
		</g>
		<g id="shape134-83" v:mID="134" v:groupContext="shape" transform="translate(446.552,291.294) rotate(180)">
			<title>Foglio.134</title>
			<path d="M0 165.85 L27.16 165.85" class="st8"/>
		</g>
		<g id="shape135-86" v:mID="135" v:groupContext="shape" transform="translate(609.518,128.279) rotate(90) scale(-1,1)">
			<title>Foglio.135</title>
			<path d="M5.67 165.85 L0 165.85 L2.83 156.21 L5.67 165.85 Z" class="st9"/>
		</g>
		<g id="shape136-88" v:mID="136" v:groupContext="shape" transform="translate(258.367,122.61) rotate(-90) scale(-1,1)">
			<title>Foglio.136</title>
			<path d="M5.67 165.85 L0 165.85 L2.83 156.21 L5.67 165.85 Z" class="st9"/>
		</g>
		<g id="shape137-90" v:mID="137" v:groupContext="shape" transform="translate(196.311,208.522) rotate(180)">
			<title>Foglio.137</title>
			<path d="M0 165.85 L20.59 165.85" class="st8"/>
		</g>
		<g id="shape157-93" v:mID="157" v:groupContext="shape" transform="translate(357.908,45.5074) rotate(90) scale(-1,1)">
			<title>Foglio.157</title>
			<path d="M5.67 165.85 L0 165.85 L2.83 156.21 L5.67 165.85 Z" class="st9"/>
		</g>
		<g id="shape158-95" v:mID="158" v:groupContext="shape" transform="translate(11.8587,39.8381) rotate(-90) scale(-1,1)">
			<title>Foglio.158</title>
			<path d="M5.67 165.85 L0 165.85 L2.83 156.21 L5.67 165.85 Z" class="st9"/>
		</g>
		<g id="shape159-97" v:mID="159" v:groupContext="shape" transform="translate(196.399,288.459) rotate(180)">
			<title>Foglio.159</title>
			<path d="M0 165.85 L20.59 165.85" class="st8"/>
		</g>
		<g id="shape160-100" v:mID="160" v:groupContext="shape" transform="translate(357.997,125.444) rotate(90) scale(-1,1)">
			<title>Foglio.160</title>
			<path d="M5.67 165.85 L0 165.85 L2.83 156.21 L5.67 165.85 Z" class="st9"/>
		</g>
		<g id="shape161-102" v:mID="161" v:groupContext="shape" transform="translate(11.9473,119.775) rotate(-90) scale(-1,1)">
			<title>Foglio.161</title>
			<path d="M5.67 165.85 L0 165.85 L2.83 156.21 L5.67 165.85 Z" class="st9"/>
		</g>
	</g>
</svg>
