<?xml version="1.0" encoding="UTF-8" standalone="no"?>
<!DOCTYPE svg PUBLIC "-//W3C//DTD SVG 1.0//EN" "http://www.w3.org/TR/2001/REC-SVG-20010904/DTD/svg10.dtd">
<!-- Generato da Microsoft Visio 11.0, SVG Export, v1.0 jakartaeett_dt_038.svg Pagina 1 -->
<svg xmlns="http://www.w3.org/2000/svg" xmlns:v="http://schemas.microsoft.com/visio/2003/SVGExtensions/" width="7.89579in"
		height="3.01213in" viewBox="0 0 568.497 216.873" xml:space="preserve" color-interpolation-filters="sRGB" class="st14">
	<v:documentProperties v:langID="1040" v:metric="true" v:viewMarkup="false">
		<v:userDefs>
			<v:ud v:nameU="MBSAAvail" v:prompt="" v:val="VT0(2):26"/>
			<v:ud v:nameU="MBSAAddinEnabled" v:prompt="" v:val="VT0(2):26"/>
			<v:ud v:nameU="MBSAAddinOutlineVisible" v:prompt="" v:val="VT0(1):26"/>
		</v:userDefs>
	</v:documentProperties>

	<style type="text/css">
	<![CDATA[
		.st1 {fill:#ffffff;stroke:none;stroke-linecap:round;stroke-linejoin:round;stroke-width:0.72}
		.st2 {fill:#c8d6e6;stroke:#000000;stroke-linecap:round;stroke-linejoin:round;stroke-width:0.72}
		.st3 {fill:#f2f2f2;stroke:#000000;stroke-linecap:round;stroke-linejoin:round;stroke-width:0.72}
		.st4 {fill:none;stroke:none;stroke-linecap:round;stroke-linejoin:round;stroke-width:0.72}
		.st5 {fill:#000000;font-family:Arial;font-size:0.666664em}
		.st6 {fill:#000000;stroke:#000000;stroke-linecap:round;stroke-linejoin:round;stroke-width:0.72}
		.st7 {stroke:#000000;stroke-linecap:round;stroke-linejoin:round;stroke-width:0.72}
		.st8 {fill:#660033;stroke:#660033;stroke-linecap:round;stroke-linejoin:round;stroke-width:0.72}
		.st9 {stroke:#ffffff;stroke-linecap:round;stroke-linejoin:round;stroke-width:2.16}
		.st10 {fill:#eef2f7;stroke:#000000;stroke-linecap:round;stroke-linejoin:round;stroke-width:0.72}
		.st11 {stroke:#000000;stroke-dasharray:0.72,1.44;stroke-linecap:round;stroke-linejoin:round;stroke-width:0.72}
		.st12 {fill:#ffffff;stroke:none;stroke-linecap:butt;stroke-width:0.75}
		.st13 {fill:#7395bf;stroke:none;stroke-linecap:butt;stroke-width:0.75}
		.st14 {fill:none;fill-rule:evenodd;font-size:12;overflow:visible;stroke-linecap:square;stroke-miterlimit:3}
	]]>
	</style>

	<g v:mID="0" v:index="1" v:groupContext="foregroundPage">
		<title>Pagina 1</title>
		<v:pageProperties v:drawingScale="0.0393701" v:pageScale="0.0393701" v:drawingUnits="24" v:shadowOffsetX="8.50394"
				v:shadowOffsetY="-8.50394"/>
		<v:layer v:name="symbols" v:index="0"/>
		<g id="shape36-1" v:mID="36" v:groupContext="shape" transform="translate(6.51685,-0.72)">
			<title>Foglio.36</title>
			<rect x="0" y="1.44" width="561.26" height="215.433" class="st1"/>
		</g>
		<g id="shape48-3" v:mID="48" v:groupContext="shape" transform="translate(74.5483,-43.2397)">
			<title>Foglio.48</title>
			<rect x="0" y="49.629" width="481.89" height="167.244" class="st2"/>
		</g>
		<g id="shape3-5" v:mID="3" v:groupContext="shape" transform="translate(433.131,-122.61)">
			<title>Foglio.3</title>
			<rect x="0" y="188.527" width="113.386" height="28.3465" class="st3"/>
		</g>
		<g id="shape4-7" v:mID="4" v:groupContext="shape" transform="translate(434.548,-128.988)">
			<title>Foglio.4</title>
			<desc>SetupOffice Entity</desc>
			<v:textBlock v:margins="rect(4,4,4,4)" v:tabSpace="42.5197"/>
			<v:textRect cx="38.2677" cy="210.141" width="76.54" height="13.4646"/>
			<rect x="0" y="203.409" width="76.5354" height="13.4646" class="st4"/>
			<text x="6.25" y="212.54" class="st5" v:langID="1040"><v:paragraph v:horizAlign="1"/><v:tabList/>SetupOffice Entity</text>		</g>
		<g id="shape50-10" v:mID="50" v:groupContext="shape" transform="translate(332.501,-190.641)">
			<title>Foglio.50</title>
			<desc>Jakarta EE Server</desc>
			<v:textBlock v:margins="rect(4,4,4,4)" v:tabSpace="42.5197"/>
			<v:textRect cx="36.978" cy="210.141" width="73.96" height="13.4646"/>
			<rect x="0" y="203.409" width="73.9559" height="13.4646" class="st4"/>
			<text x="4.52" y="212.54" class="st5" v:langID="1040"><v:paragraph v:horizAlign="1"/><v:tabList/>Jakarta EE Server</text>		</g>
		<g id="shape6-13" v:mID="6" v:groupContext="shape" transform="translate(323.961,79.1806) rotate(90)">
			<title>Foglio.6</title>
			<path d="M5.67 216.87 L0 216.87 L2.83 207.24 L5.67 216.87 Z" class="st6"/>
		</g>
		<g id="shape7-15" v:mID="7" v:groupContext="shape" transform="translate(117.151,-134.858) scale(-1,1)">
			<title>Foglio.7</title>
			<path d="M0 216.87 L18.99 216.87" class="st7"/>
		</g>
		<g id="shape16-18" v:mID="16" v:groupContext="shape" transform="translate(-76.6269,-121.675) rotate(-26.8473)">
			<title>Foglio.16</title>
			<path d="M0 216.87 L42.89 216.87" class="st7"/>
		</g>
		<g id="shape17-21" v:mID="17" v:groupContext="shape" transform="translate(21.3161,-106.311)">
			<title>Foglio.17</title>
			<path d="M38.27 197.5 L0 216.87 L0 178.13" class="st7"/>
		</g>
		<g id="shape18-24" v:mID="18" v:groupContext="shape" transform="translate(276.457,52.4523) rotate(90)">
			<title>Foglio.18</title>
			<path d="M0 216.87 L38.74 216.87" class="st7"/>
		</g>
		<g id="shape92-27" v:mID="92" v:groupContext="shape" transform="translate(204.942,-159.46)">
			<title>Foglio.92</title>
			<rect x="0" y="188.527" width="119.055" height="28.3465" class="st3"/>
		</g>
		<g id="shape93-29" v:mID="93" v:groupContext="shape" transform="translate(203.525,-165.838)">
			<title>Foglio.93</title>
			<desc>OfficeMDB</desc>
			<v:textBlock v:margins="rect(4,4,4,4)" v:tabSpace="42.5197"/>
			<v:textRect cx="27.6378" cy="210.141" width="55.28" height="13.4646"/>
			<rect x="0" y="203.409" width="55.2756" height="13.4646" class="st4"/>
			<text x="8.3" y="212.54" class="st5" v:langID="1040"><v:paragraph v:horizAlign="1"/><v:tabList/>OfficeMDB</text>		</g>
		<g id="shape96-32" v:mID="96" v:groupContext="shape" transform="translate(191.064,-132.78) rotate(-30)">
			<title>Foglio.96</title>
			<ellipse cx="12.7542" cy="208.978" rx="12.7542" ry="7.89545" class="st8"/>
		</g>
		<g id="shape97-34" v:mID="97" v:groupContext="shape" transform="translate(190.275,-138.838) rotate(-29.3825)">
			<title>Foglio.97</title>
			<path d="M0 214.02 C1.36 214.92 2.83 216.13 4.97 216.64 C5.69 216.82 6.49 216.91 7.22 216.86 C8.82 216.76 10.08 215.97
						 11.27 215.24 C12.91 214.23 14.42 213.31 16.59 212.87 C18 212.59 19.7 212.52 21.08 212.7 C22.88 212.94 24.16
						 213.62 25.46 214.02" class="st9"/>
		</g>
		<g id="shape1-37" v:mID="1" v:groupContext="shape" transform="translate(71.7137,-125.444)">
			<title>Foglio.1</title>
			<desc>M1</desc>
			<v:textBlock v:margins="rect(4,4,4,4)" v:tabSpace="42.5197"/>
			<v:textRect cx="15.5906" cy="208.369" width="31.19" height="17.0079"/>
			<rect x="0" y="199.865" width="31.1811" height="17.0079" class="st4"/>
			<text x="10.03" y="210.77" class="st5" v:langID="1040"><v:paragraph v:horizAlign="1"/><v:tabList/>M1</text>		</g>
		<g id="shape9-40" v:mID="9" v:groupContext="shape" transform="translate(77.383,-134.716) scale(-1,1)">
			<title>Foglio.9</title>
			<path d="M0 216.87 L17.8 216.87" class="st7"/>
		</g>
		<g id="shape39-43" v:mID="39" v:groupContext="shape" transform="translate(88.7216,-104.539)">
			<title>Foglio.39</title>
			<desc>New Hire Topic</desc>
			<v:textBlock v:margins="rect(4,4,4,4)" v:tabSpace="42.5197"/>
			<v:textRect cx="34.1433" cy="210.141" width="68.29" height="13.4646"/>
			<rect x="0" y="203.409" width="68.2866" height="13.4646" class="st4"/>
			<text x="6.8" y="212.54" class="st5" v:langID="1040"><v:paragraph v:horizAlign="1"/><v:tabList/>New Hire Topic</text>		</g>
		<g id="shape94-46" v:mID="94" v:groupContext="shape" transform="translate(204.942,-122.61)">
			<title>Foglio.94</title>
			<rect x="0" y="188.527" width="119.055" height="28.3465" class="st3"/>
		</g>
		<g id="shape95-48" v:mID="95" v:groupContext="shape" transform="translate(203.525,-128.988)">
			<title>Foglio.95</title>
			<desc>EquipmentMDB</desc>
			<v:textBlock v:margins="rect(4,4,4,4)" v:tabSpace="42.5197"/>
			<v:textRect cx="33.3071" cy="210.141" width="66.62" height="13.4646"/>
			<rect x="0" y="203.409" width="66.6142" height="13.4646" class="st4"/>
			<text x="5.3" y="212.54" class="st5" v:langID="1040"><v:paragraph v:horizAlign="1"/><v:tabList/>EquipmentMDB</text>		</g>
		<g id="shape98-51" v:mID="98" v:groupContext="shape" transform="translate(191.064,-95.9301) rotate(-30)">
			<title>Foglio.98</title>
			<ellipse cx="12.7542" cy="208.978" rx="12.7542" ry="7.89545" class="st8"/>
		</g>
		<g id="shape99-53" v:mID="99" v:groupContext="shape" transform="translate(190.275,-101.988) rotate(-29.3825)">
			<title>Foglio.99</title>
			<path d="M0 214.02 C1.36 214.92 2.83 216.13 4.97 216.64 C5.69 216.82 6.49 216.91 7.22 216.86 C8.82 216.76 10.08 215.97
						 11.27 215.24 C12.91 214.23 14.42 213.31 16.59 212.87 C18 212.59 19.7 212.52 21.08 212.7 C22.88 212.94 24.16
						 213.62 25.46 214.02" class="st9"/>
		</g>
		<g id="shape11-56" v:mID="11" v:groupContext="shape" transform="translate(21.3161,-134.657)">
			<title>Foglio.11</title>
			<path d="M0 206.48 L38.27 187.11 L38.27 197.03 L0 216.87 L0 206.48 Z" class="st10"/>
		</g>
		<g id="shape12-58" v:mID="12" v:groupContext="shape" transform="translate(411.835,79.1806) rotate(90)">
			<title>Foglio.12</title>
			<path d="M5.67 216.87 L0 216.87 L2.83 207.24 L5.67 216.87 Z" class="st6"/>
		</g>
		<g id="shape13-60" v:mID="13" v:groupContext="shape" transform="translate(205.025,-134.858) scale(-1,1)">
			<title>Foglio.13</title>
			<path d="M0 216.87 L18.99 216.87" class="st7"/>
		</g>
		<g id="shape14-63" v:mID="14" v:groupContext="shape" transform="translate(159.588,-125.444)">
			<title>Foglio.14</title>
			<desc>M1</desc>
			<v:textBlock v:margins="rect(4,4,4,4)" v:tabSpace="42.5197"/>
			<v:textRect cx="15.5906" cy="208.369" width="31.19" height="17.0079"/>
			<rect x="0" y="199.865" width="31.1811" height="17.0079" class="st4"/>
			<text x="10.03" y="210.77" class="st5" v:langID="1040"><v:paragraph v:horizAlign="1"/><v:tabList/>M1</text>		</g>
		<g id="shape19-66" v:mID="19" v:groupContext="shape" transform="translate(165.422,-134.716) scale(-1,1)">
			<title>Foglio.19</title>
			<path d="M0 216.87 L11.5 216.87" class="st7"/>
		</g>
		<g id="shape22-69" v:mID="22" v:groupContext="shape" transform="translate(411.793,39.4956) rotate(90)">
			<title>Foglio.22</title>
			<path d="M5.67 216.87 L0 216.87 L2.83 207.24 L5.67 216.87 Z" class="st6"/>
		</g>
		<g id="shape23-71" v:mID="23" v:groupContext="shape" transform="translate(204.983,-174.543) scale(-1,1)">
			<title>Foglio.23</title>
			<path d="M0 216.87 L18.99 216.87" class="st7"/>
		</g>
		<g id="shape24-74" v:mID="24" v:groupContext="shape" transform="translate(159.546,-165.129)">
			<title>Foglio.24</title>
			<desc>M1</desc>
			<v:textBlock v:margins="rect(4,4,4,4)" v:tabSpace="42.5197"/>
			<v:textRect cx="15.5906" cy="208.369" width="31.19" height="17.0079"/>
			<rect x="0" y="199.865" width="31.1811" height="17.0079" class="st4"/>
			<text x="10.03" y="210.77" class="st5" v:langID="1040"><v:paragraph v:horizAlign="1"/><v:tabList/>M1</text>		</g>
		<g id="shape29-77" v:mID="29" v:groupContext="shape" transform="translate(165.381,-174.401) scale(-1,1)">
			<title>Foglio.29</title>
			<path d="M0 216.87 L28.47 216.87" class="st7"/>
		</g>
		<g id="shape31-80" v:mID="31" v:groupContext="shape" transform="translate(337.66,-167.539)">
			<title>Foglio.31</title>
			<desc>Creates and Persists</desc>
			<v:textBlock v:margins="rect(4,4,4,4)" v:tabSpace="42.5197"/>
			<v:textRect cx="42.7748" cy="210.141" width="85.55" height="13.4646"/>
			<rect x="0" y="203.409" width="85.5496" height="13.4646" class="st4"/>
			<text x="5.65" y="212.54" class="st5" v:langID="1040"><v:paragraph v:horizAlign="1"/><v:tabList/>Creates and Persists</text>		</g>
		<g id="shape32-83" v:mID="32" v:groupContext="shape" transform="translate(337.66,-174.543) scale(-1,1)">
			<title>Foglio.32</title>
			<path d="M0 216.87 L13.66 216.87" class="st11"/>
		</g>
		<g id="shape33-86" v:mID="33" v:groupContext="shape" transform="translate(491.241,272.585) rotate(180)">
			<title>Foglio.33</title>
			<path d="M5.67 216.87 L0 216.87 L2.83 207.24 L5.67 216.87 Z" class="st6"/>
		</g>
		<g id="shape34-88" v:mID="34" v:groupContext="shape" transform="translate(705.28,65.7751) rotate(90) scale(-1,1)">
			<title>Foglio.34</title>
			<path d="M0 216.87 L22.54 216.87" class="st11"/>
		</g>
		<g id="shape46-91" v:mID="46" v:groupContext="shape" transform="translate(488.407,-175.051) scale(-1,1)">
			<title>Foglio.46</title>
			<path d="M0 216.87 L39.69 216.87" class="st11"/>
		</g>
		<g id="shape47-94" v:mID="47" v:groupContext="shape" transform="translate(640.508,79.1806) rotate(90)">
			<title>Foglio.47</title>
			<path d="M5.67 216.87 L0 216.87 L2.83 207.24 L5.67 216.87 Z" class="st6"/>
		</g>
		<g id="shape49-96" v:mID="49" v:groupContext="shape" transform="translate(433.698,-134.858) scale(-1,1)">
			<title>Foglio.49</title>
			<path d="M0 216.87 L58.68 216.87" class="st11"/>
		</g>
		<g id="shape51-99" v:mID="51" v:groupContext="shape" transform="translate(335.336,-125.444)">
			<title>Foglio.51</title>
			<desc>Finds</desc>
			<v:textBlock v:margins="rect(4,4,4,4)" v:tabSpace="42.5197"/>
			<v:textRect cx="15.5906" cy="208.369" width="31.19" height="17.0079"/>
			<rect x="0" y="199.865" width="31.1811" height="17.0079" class="st4"/>
			<text x="5.81" y="210.77" class="st5" v:langID="1040"><v:paragraph v:horizAlign="1"/><v:tabList/>Finds</text>		</g>
		<g id="shape52-102" v:mID="52" v:groupContext="shape" transform="translate(338.17,-134.716) scale(-1,1)">
			<title>Foglio.52</title>
			<path d="M0 216.87 L14.26 216.87" class="st11"/>
		</g>
		<g id="shape59-105" v:mID="59" v:groupContext="shape" transform="translate(99.9326,-46.0743)">
			<title>Foglio.59</title>
			<desc>Reply Queue</desc>
			<v:textBlock v:margins="rect(4,4,4,4)" v:tabSpace="42.5197"/>
			<v:textRect cx="34.1433" cy="210.141" width="68.29" height="13.4646"/>
			<rect x="0" y="203.409" width="68.2866" height="13.4646" class="st4"/>
			<text x="10.8" y="212.54" class="st5" v:langID="1040"><v:paragraph v:horizAlign="1"/><v:tabList/>Reply Queue  </text>		</g>
		<g id="shape60-108" v:mID="60" v:groupContext="shape" transform="translate(-51.0491,139.11) rotate(-90)">
			<title>Foglio.60</title>
			<path d="M5.67 216.87 L0 216.87 L2.83 207.24 L5.67 216.87 Z" class="st6"/>
		</g>
		<g id="shape61-110" v:mID="61" v:groupContext="shape" transform="translate(161.615,353.089) rotate(0.0702518) scale(1,-1)">
			<title>Foglio.61</title>
			<path d="M0 216.87 L48.16 216.87" class="st7"/>
		</g>
		<g id="shape62-113" v:mID="62" v:groupContext="shape" transform="translate(202.107,-71.5861)">
			<title>Foglio.62</title>
			<desc>M2</desc>
			<v:textBlock v:margins="rect(4,4,4,4)" v:tabSpace="42.5197"/>
			<v:textRect cx="15.5906" cy="208.369" width="31.19" height="17.0079"/>
			<rect x="0" y="199.865" width="31.1811" height="17.0079" class="st4"/>
			<text x="10.03" y="210.77" class="st5" v:langID="1040"><v:paragraph v:horizAlign="1"/><v:tabList/>M2</text>		</g>
		<g id="shape63-116" v:mID="63" v:groupContext="shape" transform="translate(230.33,353.656) scale(1,-1)">
			<title>Foglio.63</title>
			<path d="M0 216.87 L28.47 216.87" class="st7"/>
		</g>
		<g id="shape64-119" v:mID="64" v:groupContext="shape" transform="translate(475.673,136.783) rotate(90) scale(-1,1)">
			<title>Foglio.64</title>
			<path d="M0 216.87 L42.52 216.87" class="st7"/>
		</g>
		<g id="shape65-122" v:mID="65" v:groupContext="shape" transform="translate(40.2491,-107.323)">
			<title>Foglio.65</title>
			<path d="M5.67 216.87 L0 216.87 L2.83 207.24 L5.67 216.87 Z" class="st6"/>
		</g>
		<g id="shape66-124" v:mID="66" v:groupContext="shape" transform="translate(-173.73,99.3863) rotate(-90) scale(-1,1)">
			<title>Foglio.66</title>
			<path d="M0 216.87 L37.96 216.87" class="st7"/>
		</g>
		<g id="shape67-127" v:mID="67" v:groupContext="shape" transform="translate(51.8712,-71.0192)">
			<title>Foglio.67</title>
			<desc>M2</desc>
			<v:textBlock v:margins="rect(4,4,4,4)" v:tabSpace="42.5197"/>
			<v:textRect cx="9.92126" cy="208.369" width="19.85" height="17.0079"/>
			<rect x="0" y="199.865" width="19.8425" height="17.0079" class="st4"/>
			<text x="4.36" y="210.77" class="st5" v:langID="1040"><v:paragraph v:horizAlign="1"/><v:tabList/>M2</text>		</g>
		<g id="shape69-130" v:mID="69" v:groupContext="shape" transform="translate(71.7137,354.223) scale(1,-1)">
			<title>Foglio.69</title>
			<path d="M0 216.87 L46.49 216.87" class="st7"/>
		</g>
		<g id="shape68-133" v:mID="68" v:groupContext="shape" transform="translate(43.1428,354.223) scale(1,-1)">
			<title>Foglio.68</title>
			<path d="M0 216.87 L10.77 216.87" class="st7"/>
		</g>
		<g id="shape70-136" v:mID="70" v:groupContext="shape" transform="translate(0.72,-164.066)">
			<title>Foglio.70</title>
			<desc>HR Client</desc>
			<v:textBlock v:margins="rect(4,4,4,4)" v:tabSpace="42.5197"/>
			<v:textRect cx="34.1433" cy="210.141" width="68.29" height="13.4646"/>
			<rect x="0" y="203.409" width="68.2866" height="13.4646" class="st4"/>
			<text x="17.03" y="212.54" class="st5" v:langID="1040"><v:paragraph v:horizAlign="1"/><v:tabList/>HR Client</text>		</g>
		<g id="shape2-139" v:mID="2" v:groupContext="shape" transform="translate(315.374,199.145) rotate(90)">
			<title>Foglio.2</title>
			<path d="M5.67 216.87 L0 216.87 L2.83 207.24 L5.67 216.87 Z" class="st6"/>
		</g>
		<g id="shape5-141" v:mID="5" v:groupContext="shape" transform="translate(108.564,-14.8932) scale(-1,1)">
			<title>Foglio.5</title>
			<path d="M0 216.87 L28.35 216.87" class="st11"/>
		</g>
		<g id="shape15-144" v:mID="15" v:groupContext="shape" transform="translate(315.374,184.972) rotate(90)">
			<title>Foglio.15</title>
			<path d="M5.67 216.87 L0 216.87 L2.83 207.24 L5.67 216.87 Z" class="st6"/>
		</g>
		<g id="shape20-146" v:mID="20" v:groupContext="shape" transform="translate(108.564,-29.0665) scale(-1,1)">
			<title>Foglio.20</title>
			<path d="M0 216.87 L28.35 216.87" class="st7"/>
		</g>
		<g id="shape21-149" v:mID="21" v:groupContext="shape" transform="translate(107.303,-22.405)">
			<title>Foglio.21</title>
			<desc>Message Passing</desc>
			<v:textBlock v:margins="rect(4,4,4,4)" v:tabSpace="42.5197"/>
			<v:textRect cx="39.8126" cy="210.141" width="79.63" height="13.4646"/>
			<rect x="0" y="203.409" width="79.6252" height="13.4646" class="st4"/>
			<text x="8.24" y="212.54" class="st5" v:langID="1040"><v:paragraph v:horizAlign="1"/><v:tabList/>Message Passing</text>		</g>
		<g id="shape25-152" v:mID="25" v:groupContext="shape" transform="translate(108.309,-8.16094)">
			<title>Foglio.25</title>
			<desc>Method Invocation</desc>
			<v:textBlock v:margins="rect(4,4,4,4)" v:tabSpace="42.5197"/>
			<v:textRect cx="39.8126" cy="210.141" width="79.63" height="13.4646"/>
			<rect x="0" y="203.409" width="79.6252" height="13.4646" class="st4"/>
			<text x="7.13" y="212.54" class="st5" v:langID="1040"><v:paragraph v:horizAlign="1"/><v:tabList/>Method Invocation</text>		</g>
		<g id="group53-155" transform="translate(118.202,-62.6349)" v:mID="53" v:groupContext="group" v:layerMember="0">
			<title>Database, mini 3 - blue</title>
			<g id="group54-156" v:mID="54" v:groupContext="group" v:layerMember="0">
				<title>Foglio.54</title>
				<g id="shape55-157" v:mID="55" v:groupContext="shape" v:layerMember="0">
					<title>Foglio.55</title>
					<path d="M37.04 186.39 L37.04 185.5 C37.04 182.25 27.74 180.83 18.52 180.83 C9.29 180.83 0 182.25 0 185.5 L0
								 186.39 L0 210.69 L0 211.62 L0 211.67 C0.63 216.21 11.88 216.87 18.52 216.87 C25.16 216.87 36.41
								 216.21 37.04 211.67 L37.04 211.62 L37.04 210.64 L37.04 186.39 Z" class="st12"/>
				</g>
				<g id="shape56-159" v:mID="56" v:groupContext="shape" v:layerMember="0" transform="translate(2.09657,-1.33497)">
					<title>Foglio.56</title>
					<path d="M16.42 209.31 C9.85 209.31 3.28 208.6 0 206.99 L0 211.98 L0 212.87 C0.49 216.56 12.3 216.87 16.42 216.87
								 C20.55 216.87 32.29 216.56 32.85 212.87 L32.85 211.98 L32.85 206.99 C29.56 208.55 22.99 209.31 16.42
								 209.31 Z" class="st13"/>
				</g>
				<g id="shape57-161" v:mID="57" v:groupContext="shape" v:layerMember="0" transform="translate(2.09657,-10.2348)">
					<title>Foglio.57</title>
					<path d="M16.42 209.31 C9.85 209.31 3.28 208.6 0 206.99 L0 211.98 L0 212.87 C0.49 216.56 12.3 216.87 16.42 216.87
								 C20.55 216.87 32.29 216.56 32.85 212.87 L32.85 211.98 L32.85 206.99 C29.56 208.55 22.99 209.31 16.42
								 209.31 Z" class="st13"/>
				</g>
				<g id="shape58-163" v:mID="58" v:groupContext="shape" v:layerMember="0" transform="translate(2.09657,-19.1346)">
					<title>Foglio.58</title>
					<path d="M16.42 209.31 C9.85 209.31 3.28 208.6 0 206.99 L0 211.98 L0 212.87 C0.49 216.56 12.3 216.87 16.42 216.87
								 C20.55 216.87 32.29 216.56 32.85 212.87 L32.85 211.98 L32.85 206.99 C29.56 208.55 22.99 209.31 16.42
								 209.31 Z" class="st13"/>
				</g>
				<g id="shape71-165" v:mID="71" v:groupContext="shape" v:layerMember="0" transform="translate(2.09657,-28.0344)">
					<title>Foglio.71</title>
					<ellipse cx="16.4231" cy="213.536" rx="16.4231" ry="3.33743" class="st13"/>
				</g>
			</g>
		</g>
		<g id="group8-167" transform="translate(118.296,-117.344)" v:mID="8" v:groupContext="group" v:layerMember="0">
			<title>Database, mini 3 - blue.8</title>
			<g id="group10-168" v:mID="10" v:groupContext="group" v:layerMember="0">
				<title>Foglio.10</title>
				<g id="shape26-169" v:mID="26" v:groupContext="shape" v:layerMember="0">
					<title>Foglio.26</title>
					<path d="M37.04 186.39 L37.04 185.5 C37.04 182.25 27.74 180.83 18.52 180.83 C9.29 180.83 0 182.25 0 185.5 L0
								 186.39 L0 210.69 L0 211.62 L0 211.67 C0.63 216.21 11.88 216.87 18.52 216.87 C25.16 216.87 36.41
								 216.21 37.04 211.67 L37.04 211.62 L37.04 210.64 L37.04 186.39 Z" class="st12"/>
				</g>
				<g id="shape27-171" v:mID="27" v:groupContext="shape" v:layerMember="0" transform="translate(2.09657,-1.33497)">
					<title>Foglio.27</title>
					<path d="M16.42 209.31 C9.85 209.31 3.28 208.6 0 206.99 L0 211.98 L0 212.87 C0.49 216.56 12.3 216.87 16.42 216.87
								 C20.55 216.87 32.29 216.56 32.85 212.87 L32.85 211.98 L32.85 206.99 C29.56 208.55 22.99 209.31 16.42
								 209.31 Z" class="st13"/>
				</g>
				<g id="shape28-173" v:mID="28" v:groupContext="shape" v:layerMember="0" transform="translate(2.09657,-10.2348)">
					<title>Foglio.28</title>
					<path d="M16.42 209.31 C9.85 209.31 3.28 208.6 0 206.99 L0 211.98 L0 212.87 C0.49 216.56 12.3 216.87 16.42 216.87
								 C20.55 216.87 32.29 216.56 32.85 212.87 L32.85 211.98 L32.85 206.99 C29.56 208.55 22.99 209.31 16.42
								 209.31 Z" class="st13"/>
				</g>
				<g id="shape35-175" v:mID="35" v:groupContext="shape" v:layerMember="0" transform="translate(2.09657,-19.1346)">
					<title>Foglio.35</title>
					<path d="M16.42 209.31 C9.85 209.31 3.28 208.6 0 206.99 L0 211.98 L0 212.87 C0.49 216.56 12.3 216.87 16.42 216.87
								 C20.55 216.87 32.29 216.56 32.85 212.87 L32.85 211.98 L32.85 206.99 C29.56 208.55 22.99 209.31 16.42
								 209.31 Z" class="st13"/>
				</g>
				<g id="shape37-177" v:mID="37" v:groupContext="shape" v:layerMember="0" transform="translate(2.09657,-28.0344)">
					<title>Foglio.37</title>
					<ellipse cx="16.4231" cy="213.536" rx="16.4231" ry="3.33743" class="st13"/>
				</g>
			</g>
		</g>
		<g id="shape30-179" v:mID="30" v:groupContext="shape" transform="translate(-79.9625,42.472) rotate(-90) scale(-1,1)">
			<title>Foglio.30</title>
			<path d="M0 216.87 L27.7 216.87" class="st7"/>
		</g>
	</g>
</svg>
