<?xml version="1.0" encoding="UTF-8" standalone="no"?>
<!DOCTYPE svg PUBLIC "-//W3C//DTD SVG 1.0//EN" "http://www.w3.org/TR/2001/REC-SVG-20010904/DTD/svg10.dtd">
<!-- Generato da Microsoft Visio 11.0, SVG Export, v1.0 jakartaeett_dt_062.svg Pagina 1 -->
<svg xmlns="http://www.w3.org/2000/svg" xmlns:v="http://schemas.microsoft.com/visio/2003/SVGExtensions/" width="5.72866in"
		height="4.96094in" viewBox="0 0 412.464 357.188" xml:space="preserve" color-interpolation-filters="sRGB" class="st6">
	<v:documentProperties v:langID="1040" v:metric="true" v:viewMarkup="false">
		<v:userDefs>
			<v:ud v:nameU="MBSAAvail" v:prompt="" v:val="VT0(2):26"/>
			<v:ud v:nameU="MBSAAddinEnabled" v:prompt="" v:val="VT0(2):26"/>
			<v:ud v:nameU="MBSAAddinOutlineVisible" v:prompt="" v:val="VT0(1):26"/>
		</v:userDefs>
	</v:documentProperties>

	<style type="text/css">
	<![CDATA[
		.st1 {fill:#c8d6e6;stroke:#000000;stroke-linecap:round;stroke-linejoin:round;stroke-width:0.72}
		.st2 {fill:none;stroke:none;stroke-linecap:round;stroke-linejoin:round;stroke-width:0.72}
		.st3 {fill:#000000;font-family:Arial;font-size:0.666664em}
		.st4 {fill:#afc2da;stroke:#000000;stroke-linecap:round;stroke-linejoin:round;stroke-width:0.72}
		.st5 {fill:#f2f2f2;stroke:#000000;stroke-linecap:round;stroke-linejoin:round;stroke-width:0.72}
		.st6 {fill:none;fill-rule:evenodd;font-size:12;overflow:visible;stroke-linecap:square;stroke-miterlimit:3}
	]]>
	</style>

	<g v:mID="0" v:index="1" v:groupContext="foregroundPage">
		<title>Pagina 1</title>
		<v:pageProperties v:drawingScale="0.0393701" v:pageScale="0.0393701" v:drawingUnits="24" v:shadowOffsetX="8.50394"
				v:shadowOffsetY="-8.50394"/>
		<g id="shape5-1" v:mID="5" v:groupContext="shape" transform="translate(0.72,-260.09)">
			<title>Foglio.5</title>
			<rect x="0" y="260.81" width="291.969" height="96.378" class="st1"/>
		</g>
		<g id="shape81-3" v:mID="81" v:groupContext="shape" transform="translate(0.72,-337.141)">
			<title>Foglio.81</title>
			<desc>Duke’s Shipment</desc>
			<v:textBlock v:margins="rect(4,4,4,4)" v:tabSpace="42.5197"/>
			<v:textRect cx="134.646" cy="347.524" width="269.3" height="19.3271"/>
			<rect x="0" y="337.861" width="269.291" height="19.3271" class="st2"/>
			<text x="104.41" y="349.92" class="st3" v:langID="1040"><v:paragraph v:horizAlign="1"/><v:tabList/>Duke’s Shipment</text>		</g>
		<g id="shape2-6" v:mID="2" v:groupContext="shape" transform="translate(363.577,73.0035) rotate(90)">
			<title>Foglio.2</title>
			<rect x="0" y="215.456" width="19.8425" height="141.732" class="st4"/>
		</g>
		<g id="shape3-8" v:mID="3" v:groupContext="shape" transform="translate(6.38929,-264.76)">
			<title>Foglio.3</title>
			<desc>Main Interface (Web Pages)</desc>
			<v:textBlock v:margins="rect(4,4,4,4)" v:tabSpace="42.5197"/>
			<v:textRect cx="55.2756" cy="348.893" width="110.56" height="16.5898"/>
			<rect x="0" y="340.598" width="110.551" height="16.5898" class="st2"/>
			<text x="5.48" y="351.29" class="st3" v:langID="1040"><v:paragraph v:horizAlign="1"/><v:tabList/>Main Interface (Web Pages)</text>		</g>
		<g id="shape6-11" v:mID="6" v:groupContext="shape" transform="translate(153.791,-264.818)">
			<title>Foglio.6</title>
			<rect x="0" y="288.215" width="133.228" height="68.9731" class="st5"/>
		</g>
		<g id="shape7-13" v:mID="7" v:groupContext="shape" transform="translate(154.5,-316.992)">
			<title>Foglio.7</title>
			<desc>EJB container</desc>
			<v:textBlock v:margins="rect(4,4,4,4)" v:tabSpace="42.5197"/>
			<v:textRect cx="50.6693" cy="348.893" width="101.34" height="16.5898"/>
			<rect x="0" y="340.598" width="101.339" height="16.5898" class="st2"/>
			<text x="25.77" y="351.29" class="st3" v:langID="1040"><v:paragraph v:horizAlign="1"/><v:tabList/>EJB container</text>		</g>
		<g id="shape8-16" v:mID="8" v:groupContext="shape" transform="translate(516.648,44.657) rotate(90)">
			<title>Foglio.8</title>
			<rect x="0" y="235.298" width="19.8425" height="121.89" class="st4"/>
		</g>
		<g id="shape9-18" v:mID="9" v:groupContext="shape" transform="translate(159.46,-294.106)">
			<title>Foglio.9</title>
			<desc>ShipmentBean</desc>
			<v:textBlock v:margins="rect(4,4,4,4)" v:tabSpace="42.5197"/>
			<v:textRect cx="34.0157" cy="348.893" width="68.04" height="16.5898"/>
			<rect x="0" y="340.598" width="68.0315" height="16.5898" class="st2"/>
			<text x="7.78" y="351.29" class="st3" v:langID="1040"><v:paragraph v:horizAlign="1"/><v:tabList/>ShipmentBean</text>		</g>
		<g id="shape10-21" v:mID="10" v:groupContext="shape" transform="translate(516.648,68.7515) rotate(90)">
			<title>Foglio.10</title>
			<rect x="0" y="235.298" width="19.8425" height="121.89" class="st4"/>
		</g>
		<g id="shape11-23" v:mID="11" v:groupContext="shape" transform="translate(159.46,-270.011)">
			<title>Foglio.11</title>
			<desc>OrderBrowser</desc>
			<v:textBlock v:margins="rect(4,4,4,4)" v:tabSpace="42.5197"/>
			<v:textRect cx="34.0157" cy="348.893" width="68.04" height="16.5898"/>
			<rect x="0" y="340.598" width="68.0315" height="16.5898" class="st2"/>
			<text x="9.12" y="351.29" class="st3" v:langID="1040"><v:paragraph v:horizAlign="1"/><v:tabList/>OrderBrowser</text>		</g>
		<g id="shape12-26" v:mID="12" v:groupContext="shape" transform="translate(298.358,-260.09)">
			<title>Foglio.12</title>
			<rect x="0" y="260.81" width="113.386" height="96.378" class="st1"/>
		</g>
		<g id="shape13-28" v:mID="13" v:groupContext="shape" transform="translate(298.358,-337.141)">
			<title>Foglio.13</title>
			<desc>Duke’s Payment</desc>
			<v:textBlock v:margins="rect(4,4,4,4)" v:tabSpace="42.5197"/>
			<v:textRect cx="56.6929" cy="347.524" width="113.39" height="19.3271"/>
			<rect x="0" y="337.861" width="113.386" height="19.3271" class="st2"/>
			<text x="27.57" y="349.92" class="st3" v:langID="1040"><v:paragraph v:horizAlign="1"/><v:tabList/>Duke’s Payment</text>		</g>
		<g id="shape16-31" v:mID="16" v:groupContext="shape" transform="translate(304.027,-264.818)">
			<title>Foglio.16</title>
			<rect x="0" y="288.215" width="102.047" height="68.9731" class="st5"/>
		</g>
		<g id="shape17-33" v:mID="17" v:groupContext="shape" transform="translate(304.721,-316.992)">
			<title>Foglio.17</title>
			<desc>Web Services</desc>
			<v:textBlock v:margins="rect(4,4,4,4)" v:tabSpace="42.5197"/>
			<v:textRect cx="44.0426" cy="348.893" width="88.09" height="16.5898"/>
			<rect x="0" y="340.598" width="88.0851" height="16.5898" class="st2"/>
			<text x="19.37" y="351.29" class="st3" v:langID="1040"><v:paragraph v:horizAlign="1"/><v:tabList/>Web Services</text>		</g>
		<g id="shape20-36" v:mID="20" v:groupContext="shape" transform="translate(666.764,68.7515) rotate(90)">
			<title>Foglio.20</title>
			<rect x="0" y="266.359" width="19.8425" height="90.8293" class="st4"/>
		</g>
		<g id="shape21-38" v:mID="21" v:groupContext="shape" transform="translate(309.576,-270.011)">
			<title>Foglio.21</title>
			<desc>PaymentService</desc>
			<v:textBlock v:margins="rect(4,4,4,4)" v:tabSpace="42.5197"/>
			<v:textRect cx="33.292" cy="348.893" width="66.59" height="16.5898"/>
			<rect x="0" y="340.598" width="66.584" height="16.5898" class="st2"/>
			<text x="4.17" y="351.29" class="st3" v:langID="1040"><v:paragraph v:horizAlign="1"/><v:tabList/>PaymentService</text>		</g>
		<g id="shape1-41" v:mID="1" v:groupContext="shape" transform="translate(0.72,-0.72)">
			<title>Foglio.1</title>
			<rect x="0" y="103.487" width="411.024" height="253.701" class="st1"/>
		</g>
		<g id="shape4-43" v:mID="4" v:groupContext="shape" transform="translate(0.72,-235.094)">
			<title>Foglio.4</title>
			<desc>Duke’s Store</desc>
			<v:textBlock v:margins="rect(4,4,4,4)" v:tabSpace="42.5197"/>
			<v:textRect cx="192.756" cy="347.524" width="385.52" height="19.3271"/>
			<rect x="0" y="337.861" width="385.512" height="19.3271" class="st2"/>
			<text x="169.86" y="349.92" class="st3" v:langID="1040"><v:paragraph v:horizAlign="1"/><v:tabList/>Duke’s Store</text>		</g>
		<g id="shape14-46" v:mID="14" v:groupContext="shape" transform="translate(363.577,150.956) rotate(90)">
			<title>Foglio.14</title>
			<rect x="0" y="195.613" width="19.8425" height="161.575" class="st4"/>
		</g>
		<g id="shape15-48" v:mID="15" v:groupContext="shape" transform="translate(6.38929,-186.807)">
			<title>Foglio.15</title>
			<desc>Admin Interface (Web Pages)</desc>
			<v:textBlock v:margins="rect(4,4,4,4)" v:tabSpace="42.5197"/>
			<v:textRect cx="59.5276" cy="348.893" width="119.06" height="16.5898"/>
			<rect x="0" y="340.598" width="119.055" height="16.5898" class="st2"/>
			<text x="7.06" y="351.29" class="st3" v:langID="1040"><v:paragraph v:horizAlign="1"/><v:tabList/>Admin Interface (Web Pages)</text>		</g>
		<g id="shape18-51" v:mID="18" v:groupContext="shape" transform="translate(173.633,-186.389)">
			<title>Foglio.18</title>
			<rect x="0" y="311.834" width="119.055" height="45.3543" class="st5"/>
		</g>
		<g id="shape19-53" v:mID="19" v:groupContext="shape" transform="translate(174.342,-214.945)">
			<title>Foglio.19</title>
			<desc>Web Services / REST</desc>
			<v:textBlock v:margins="rect(4,4,4,4)" v:tabSpace="42.5197"/>
			<v:textRect cx="46.4173" cy="348.893" width="92.84" height="16.5898"/>
			<rect x="0" y="340.598" width="92.8346" height="16.5898" class="st2"/>
			<text x="7.74" y="351.29" class="st3" v:langID="1040"><v:paragraph v:horizAlign="1"/><v:tabList/>Web Services / REST</text>		</g>
		<g id="shape22-56" v:mID="22" v:groupContext="shape" transform="translate(536.491,146.704) rotate(90)">
			<title>Foglio.22</title>
			<rect x="0" y="249.471" width="19.8425" height="107.717" class="st4"/>
		</g>
		<g id="shape23-58" v:mID="23" v:groupContext="shape" transform="translate(179.303,-192.059)">
			<title>Foglio.23</title>
			<desc>OrderBean</desc>
			<v:textBlock v:margins="rect(4,4,4,4)" v:tabSpace="42.5197"/>
			<v:textRect cx="43.937" cy="348.893" width="87.88" height="16.5898"/>
			<rect x="0" y="340.598" width="87.874" height="16.5898" class="st2"/>
			<text x="24.37" y="351.29" class="st3" v:langID="1040"><v:paragraph v:horizAlign="1"/><v:tabList/>OrderBean</text>		</g>
		<g id="shape24-61" v:mID="24" v:groupContext="shape" transform="translate(363.577,125.444) rotate(90)">
			<title>Foglio.24</title>
			<rect x="0" y="195.613" width="19.8425" height="161.575" class="st4"/>
		</g>
		<g id="shape25-63" v:mID="25" v:groupContext="shape" transform="translate(6.38929,-212.319)">
			<title>Foglio.25</title>
			<desc>Main Interface (Web Pages)</desc>
			<v:textBlock v:margins="rect(4,4,4,4)" v:tabSpace="42.5197"/>
			<v:textRect cx="65.1969" cy="348.893" width="130.4" height="16.5898"/>
			<rect x="0" y="340.598" width="130.394" height="16.5898" class="st2"/>
			<text x="15.4" y="351.29" class="st3" v:langID="1040"><v:paragraph v:horizAlign="1"/><v:tabList/>Main Interface (Web Pages)</text>		</g>
		<g id="shape26-66" v:mID="26" v:groupContext="shape" transform="translate(296.94,-186.389)">
			<title>Foglio.26</title>
			<rect x="0" y="311.834" width="109.134" height="45.3543" class="st5"/>
		</g>
		<g id="shape27-68" v:mID="27" v:groupContext="shape" transform="translate(297.649,-214.945)">
			<title>Foglio.27</title>
			<desc>Events</desc>
			<v:textBlock v:margins="rect(4,4,4,4)" v:tabSpace="42.5197"/>
			<v:textRect cx="47.126" cy="348.893" width="94.26" height="16.5898"/>
			<rect x="0" y="340.598" width="94.252" height="16.5898" class="st2"/>
			<text x="34.9" y="351.29" class="st3" v:langID="1040"><v:paragraph v:horizAlign="1"/><v:tabList/>Events</text>		</g>
		<g id="shape28-71" v:mID="28" v:groupContext="shape" transform="translate(659.798,146.704) rotate(90)">
			<title>Foglio.28</title>
			<rect x="0" y="259.393" width="19.8425" height="97.7953" class="st4"/>
		</g>
		<g id="shape29-73" v:mID="29" v:groupContext="shape" transform="translate(302.61,-192.059)">
			<title>Foglio.29</title>
			<desc>OrderEvent</desc>
			<v:textBlock v:margins="rect(4,4,4,4)" v:tabSpace="42.5197"/>
			<v:textRect cx="43.2283" cy="348.893" width="86.46" height="16.5898"/>
			<rect x="0" y="340.598" width="86.4567" height="16.5898" class="st2"/>
			<text x="22.78" y="351.29" class="st3" v:langID="1040"><v:paragraph v:horizAlign="1"/><v:tabList/>OrderEvent</text>		</g>
		<g id="shape30-76" v:mID="30" v:groupContext="shape" transform="translate(6.38929,-82.9247)">
			<title>Foglio.30</title>
			<rect x="0" y="262.227" width="399.685" height="94.9606" class="st5"/>
		</g>
		<g id="shape31-78" v:mID="31" v:groupContext="shape" transform="translate(7.09795,-161.087)">
			<title>Foglio.31</title>
			<desc>EJB Container</desc>
			<v:textBlock v:margins="rect(4,4,4,4)" v:tabSpace="42.5197"/>
			<v:textRect cx="190.984" cy="348.893" width="381.97" height="16.5898"/>
			<rect x="0" y="340.598" width="381.969" height="16.5898" class="st2"/>
			<text x="165.19" y="351.29" class="st3" v:langID="1040"><v:paragraph v:horizAlign="1"/><v:tabList/>EJB Container</text>		</g>
		<g id="shape32-81" v:mID="32" v:groupContext="shape" transform="translate(367.829,200.563) rotate(90)">
			<title>Foglio.32</title>
			<rect x="0" y="256.887" width="19.8425" height="100.301" class="st4"/>
		</g>
		<g id="shape33-83" v:mID="33" v:groupContext="shape" transform="translate(10.6413,-138.409)">
			<title>Foglio.33</title>
			<desc>AdministratorBean</desc>
			<v:textBlock v:margins="rect(4,4,4,4)" v:tabSpace="42.5197"/>
			<v:textRect cx="37.5591" cy="348.893" width="75.12" height="16.5898"/>
			<rect x="0" y="340.598" width="75.1181" height="16.5898" class="st2"/>
			<text x="4.66" y="351.29" class="st3" v:langID="1040"><v:paragraph v:horizAlign="1"/><v:tabList/>AdministratorBean</text>		</g>
		<g id="shape34-86" v:mID="34" v:groupContext="shape" transform="translate(367.829,225.819) rotate(90)">
			<title>Foglio.34</title>
			<rect x="0" y="256.887" width="19.8425" height="100.301" class="st4"/>
		</g>
		<g id="shape35-88" v:mID="35" v:groupContext="shape" transform="translate(10.6413,-113.107)">
			<title>Foglio.35</title>
			<desc>UserBean</desc>
			<v:textBlock v:margins="rect(4,4,4,4)" v:tabSpace="42.5197"/>
			<v:textRect cx="37.5591" cy="348.893" width="75.12" height="16.5898"/>
			<rect x="0" y="340.598" width="75.1181" height="16.5898" class="st2"/>
			<text x="19.77" y="351.29" class="st3" v:langID="1040"><v:paragraph v:horizAlign="1"/><v:tabList/>UserBean</text>		</g>
		<g id="shape36-91" v:mID="36" v:groupContext="shape" transform="translate(471.622,200.563) rotate(90)">
			<title>Foglio.36</title>
			<rect x="0" y="271.06" width="19.8425" height="86.1282" class="st4"/>
		</g>
		<g id="shape37-93" v:mID="37" v:groupContext="shape" transform="translate(114.434,-138.2)">
			<title>Foglio.37</title>
			<desc>CategoryBean</desc>
			<v:textBlock v:margins="rect(4,4,4,4)" v:tabSpace="42.5197"/>
			<v:textRect cx="31.7255" cy="348.893" width="63.46" height="16.5898"/>
			<rect x="0" y="340.598" width="63.451" height="16.5898" class="st2"/>
			<text x="6.15" y="351.29" class="st3" v:langID="1040"><v:paragraph v:horizAlign="1"/><v:tabList/>CategoryBean</text>		</g>
		<g id="shape38-96" v:mID="38" v:groupContext="shape" transform="translate(471.622,225.819) rotate(90)">
			<title>Foglio.38</title>
			<rect x="0" y="271.06" width="19.8425" height="86.1282" class="st4"/>
		</g>
		<g id="shape39-98" v:mID="39" v:groupContext="shape" transform="translate(114.434,-112.944)">
			<title>Foglio.39</title>
			<desc>ProductBean</desc>
			<v:textBlock v:margins="rect(4,4,4,4)" v:tabSpace="42.5197"/>
			<v:textRect cx="30.3082" cy="348.893" width="60.62" height="16.5898"/>
			<rect x="0" y="340.598" width="60.6164" height="16.5898" class="st2"/>
			<text x="7.18" y="351.29" class="st3" v:langID="1040"><v:paragraph v:horizAlign="1"/><v:tabList/>ProductBean</text>		</g>
		<g id="shape44-101" v:mID="44" v:groupContext="shape" transform="translate(652.711,200.563) rotate(90)">
			<title>Foglio.44</title>
			<rect x="0" y="250.038" width="19.8425" height="107.15" class="st4"/>
		</g>
		<g id="shape45-103" v:mID="45" v:groupContext="shape" transform="translate(295.523,-138.2)">
			<title>Foglio.45</title>
			<desc>OrderJMSManager</desc>
			<v:textBlock v:margins="rect(4,4,4,4)" v:tabSpace="42.5197"/>
			<v:textRect cx="41.1024" cy="348.893" width="82.21" height="16.5898"/>
			<rect x="0" y="340.598" width="82.2047" height="16.5898" class="st2"/>
			<text x="7.09" y="351.29" class="st3" v:langID="1040"><v:paragraph v:horizAlign="1"/><v:tabList/>OrderJMSManager</text>		</g>
		<g id="shape46-106" v:mID="46" v:groupContext="shape" transform="translate(652.711,225.819) rotate(90)">
			<title>Foglio.46</title>
			<rect x="0" y="250.038" width="19.8425" height="107.15" class="st4"/>
		</g>
		<g id="shape47-108" v:mID="47" v:groupContext="shape" transform="translate(295.523,-112.944)">
			<title>Foglio.47</title>
			<desc>GroupsBean</desc>
			<v:textBlock v:margins="rect(4,4,4,4)" v:tabSpace="42.5197"/>
			<v:textRect cx="41.1024" cy="348.893" width="82.21" height="16.5898"/>
			<rect x="0" y="340.598" width="82.2047" height="16.5898" class="st2"/>
			<text x="18.64" y="351.29" class="st3" v:langID="1040"><v:paragraph v:horizAlign="1"/><v:tabList/>GroupsBean</text>		</g>
		<g id="shape40-111" v:mID="40" v:groupContext="shape" transform="translate(562.331,200.563) rotate(90)">
			<title>Foglio.40</title>
			<rect x="0" y="271.06" width="19.8425" height="86.1282" class="st4"/>
		</g>
		<g id="shape41-113" v:mID="41" v:groupContext="shape" transform="translate(205.143,-138.409)">
			<title>Foglio.41</title>
			<desc>OrderBean</desc>
			<v:textBlock v:margins="rect(4,4,4,4)" v:tabSpace="42.5197"/>
			<v:textRect cx="33.8515" cy="348.893" width="67.71" height="16.5898"/>
			<rect x="0" y="340.598" width="67.703" height="16.5898" class="st2"/>
			<text x="14.29" y="351.29" class="st3" v:langID="1040"><v:paragraph v:horizAlign="1"/><v:tabList/>OrderBean</text>		</g>
		<g id="shape42-116" v:mID="42" v:groupContext="shape" transform="translate(562.331,225.819) rotate(90)">
			<title>Foglio.42</title>
			<rect x="0" y="271.06" width="19.8425" height="86.1282" class="st4"/>
		</g>
		<g id="shape43-118" v:mID="43" v:groupContext="shape" transform="translate(205.143,-113.107)">
			<title>Foglio.43</title>
			<desc>ShoppingCart</desc>
			<v:textBlock v:margins="rect(4,4,4,4)" v:tabSpace="42.5197"/>
			<v:textRect cx="29.5995" cy="348.893" width="59.2" height="16.5898"/>
			<rect x="0" y="340.598" width="59.199" height="16.5898" class="st2"/>
			<text x="5.14" y="351.29" class="st3" v:langID="1040"><v:paragraph v:horizAlign="1"/><v:tabList/>ShoppingCart</text>		</g>
		<g id="shape48-121" v:mID="48" v:groupContext="shape" transform="translate(414.057,250.169) rotate(90)">
			<title>Foglio.48</title>
			<rect x="0" y="256.887" width="19.8425" height="100.301" class="st4"/>
		</g>
		<g id="shape49-123" v:mID="49" v:groupContext="shape" transform="translate(56.8685,-88.8031)">
			<title>Foglio.49</title>
			<desc>EventDispatchBean</desc>
			<v:textBlock v:margins="rect(4,4,4,4)" v:tabSpace="42.5197"/>
			<v:textRect cx="39.2486" cy="348.893" width="78.5" height="16.5898"/>
			<rect x="0" y="340.598" width="78.4972" height="16.5898" class="st2"/>
			<text x="4.12" y="351.29" class="st3" v:langID="1040"><v:paragraph v:horizAlign="1"/><v:tabList/>EventDispatchBean</text>		</g>
		<g id="shape50-126" v:mID="50" v:groupContext="shape" transform="translate(519.483,250.169) rotate(90)">
			<title>Foglio.50</title>
			<rect x="0" y="256.887" width="19.8425" height="100.301" class="st4"/>
		</g>
		<g id="shape51-128" v:mID="51" v:groupContext="shape" transform="translate(162.295,-88.8031)">
			<title>Foglio.51</title>
			<desc>OrderStatusBean</desc>
			<v:textBlock v:margins="rect(4,4,4,4)" v:tabSpace="42.5197"/>
			<v:textRect cx="37.5591" cy="348.893" width="75.12" height="16.5898"/>
			<rect x="0" y="340.598" width="75.1181" height="16.5898" class="st2"/>
			<text x="6.65" y="351.29" class="st3" v:langID="1040"><v:paragraph v:horizAlign="1"/><v:tabList/>OrderStatusBean</text>		</g>
		<g id="shape52-131" v:mID="52" v:groupContext="shape" transform="translate(624.693,250.169) rotate(90)">
			<title>Foglio.52</title>
			<rect x="0" y="256.887" width="19.8425" height="100.301" class="st4"/>
		</g>
		<g id="shape53-133" v:mID="53" v:groupContext="shape" transform="translate(267.505,-88.8031)">
			<title>Foglio.53</title>
			<desc>OrderDetailBean</desc>
			<v:textBlock v:margins="rect(4,4,4,4)" v:tabSpace="42.5197"/>
			<v:textRect cx="37.5591" cy="348.893" width="75.12" height="16.5898"/>
			<rect x="0" y="340.598" width="75.1181" height="16.5898" class="st2"/>
			<text x="7.77" y="351.29" class="st3" v:langID="1040"><v:paragraph v:horizAlign="1"/><v:tabList/>OrderDetailBean</text>		</g>
		<g id="shape54-136" v:mID="54" v:groupContext="shape" transform="translate(6.38929,-4.97197)">
			<title>Foglio.54</title>
			<rect x="0" y="286.322" width="399.685" height="70.8661" class="st5"/>
		</g>
		<g id="shape55-138" v:mID="55" v:groupContext="shape" transform="translate(7.09795,-59.0393)">
			<title>Foglio.55</title>
			<desc>Entities.jar</desc>
			<v:textBlock v:margins="rect(4,4,4,4)" v:tabSpace="42.5197"/>
			<v:textRect cx="190.984" cy="348.893" width="381.97" height="16.5898"/>
			<rect x="0" y="340.598" width="381.969" height="16.5898" class="st2"/>
			<text x="172.31" y="351.29" class="st3" v:langID="1040"><v:paragraph v:horizAlign="1"/><v:tabList/>Entities.jar</text>		</g>
		<g id="shape60-141" v:mID="60" v:groupContext="shape" transform="translate(449.554,302.61) rotate(90)">
			<title>Foglio.60</title>
			<rect x="0" y="288.676" width="19.8425" height="68.5119" class="st4"/>
		</g>
		<g id="shape61-143" v:mID="61" v:groupContext="shape" transform="translate(92.3656,-36.1531)">
			<title>Foglio.61</title>
			<desc>Customer</desc>
			<v:textBlock v:margins="rect(4,4,4,4)" v:tabSpace="42.5197"/>
			<v:textRect cx="28.3108" cy="348.893" width="56.63" height="16.5898"/>
			<rect x="0" y="340.598" width="56.6215" height="16.5898" class="st2"/>
			<text x="10.97" y="351.29" class="st3" v:langID="1040"><v:paragraph v:horizAlign="1"/><v:tabList/>Customer</text>		</g>
		<g id="shape62-146" v:mID="62" v:groupContext="shape" transform="translate(449.554,327.866) rotate(90)">
			<title>Foglio.62</title>
			<rect x="0" y="288.676" width="19.8425" height="68.5119" class="st4"/>
		</g>
		<g id="shape63-148" v:mID="63" v:groupContext="shape" transform="translate(92.3656,-10.8964)">
			<title>Foglio.63</title>
			<desc>Groups</desc>
			<v:textBlock v:margins="rect(4,4,4,4)" v:tabSpace="42.5197"/>
			<v:textRect cx="27.046" cy="348.893" width="54.1" height="16.5898"/>
			<rect x="0" y="340.598" width="54.092" height="16.5898" class="st2"/>
			<text x="13.93" y="351.29" class="st3" v:langID="1040"><v:paragraph v:horizAlign="1"/><v:tabList/>Groups</text>		</g>
		<g id="shape68-151" v:mID="68" v:groupContext="shape" transform="translate(523.412,302.61) rotate(90)">
			<title>Foglio.68</title>
			<rect x="0" y="288.834" width="19.8425" height="68.3539" class="st4"/>
		</g>
		<g id="shape69-153" v:mID="69" v:groupContext="shape" transform="translate(166.224,-36.3621)">
			<title>Foglio.69</title>
			<desc>Category</desc>
			<v:textBlock v:margins="rect(4,4,4,4)" v:tabSpace="42.5197"/>
			<v:textRect cx="23.3983" cy="348.893" width="46.8" height="16.5898"/>
			<rect x="0" y="340.598" width="46.7965" height="16.5898" class="st2"/>
			<text x="7.17" y="351.29" class="st3" v:langID="1040"><v:paragraph v:horizAlign="1"/><v:tabList/>Category</text>		</g>
		<g id="shape70-156" v:mID="70" v:groupContext="shape" transform="translate(523.412,327.866) rotate(90)">
			<title>Foglio.70</title>
			<rect x="0" y="288.834" width="19.8425" height="68.3539" class="st4"/>
		</g>
		<g id="shape71-158" v:mID="71" v:groupContext="shape" transform="translate(166.224,-11.0594)">
			<title>Foglio.71</title>
			<desc>Product</desc>
			<v:textBlock v:margins="rect(4,4,4,4)" v:tabSpace="42.5197"/>
			<v:textRect cx="26.4136" cy="348.893" width="52.83" height="16.5898"/>
			<rect x="0" y="340.598" width="52.8272" height="16.5898" class="st2"/>
			<text x="12.63" y="351.29" class="st3" v:langID="1040"><v:paragraph v:horizAlign="1"/><v:tabList/>Product</text>		</g>
		<g id="shape56-161" v:mID="56" v:groupContext="shape" transform="translate(367.829,302.865) rotate(90)">
			<title>Foglio.56</title>
			<rect x="0" y="280.33" width="19.8425" height="76.8579" class="st4"/>
		</g>
		<g id="shape57-163" v:mID="57" v:groupContext="shape" transform="translate(10.6413,-35.898)">
			<title>Foglio.57</title>
			<desc>Person</desc>
			<v:textBlock v:margins="rect(4,4,4,4)" v:tabSpace="42.5197"/>
			<v:textRect cx="33.3071" cy="348.893" width="66.62" height="16.5898"/>
			<rect x="0" y="340.598" width="66.6142" height="16.5898" class="st2"/>
			<text x="20.63" y="351.29" class="st3" v:langID="1040"><v:paragraph v:horizAlign="1"/><v:tabList/>Person</text>		</g>
		<g id="shape58-166" v:mID="58" v:groupContext="shape" transform="translate(367.829,328.122) rotate(90)">
			<title>Foglio.58</title>
			<rect x="0" y="280.33" width="19.8425" height="76.8579" class="st4"/>
		</g>
		<g id="shape59-168" v:mID="59" v:groupContext="shape" transform="translate(10.6413,-10.6413)">
			<title>Foglio.59</title>
			<desc>Administrator</desc>
			<v:textBlock v:margins="rect(4,4,4,4)" v:tabSpace="42.5197"/>
			<v:textRect cx="30.4724" cy="348.893" width="60.95" height="16.5898"/>
			<rect x="0" y="340.598" width="60.9449" height="16.5898" class="st2"/>
			<text x="6.91" y="351.29" class="st3" v:langID="1040"><v:paragraph v:horizAlign="1"/><v:tabList/>Administrator</text>		</g>
		<g id="shape64-171" v:mID="64" v:groupContext="shape" transform="translate(596.018,302.737) rotate(90)">
			<title>Foglio.64</title>
			<rect x="0" y="277.818" width="19.8425" height="79.3701" class="st4"/>
		</g>
		<g id="shape65-173" v:mID="65" v:groupContext="shape" transform="translate(238.83,-36.0255)">
			<title>Foglio.65</title>
			<desc>CustomerOrder</desc>
			<v:textBlock v:margins="rect(4,4,4,4)" v:tabSpace="42.5197"/>
			<v:textRect cx="31.6555" cy="348.893" width="63.32" height="16.5898"/>
			<rect x="0" y="340.598" width="63.3111" height="16.5898" class="st2"/>
			<text x="4.09" y="351.29" class="st3" v:langID="1040"><v:paragraph v:horizAlign="1"/><v:tabList/>CustomerOrder</text>		</g>
		<g id="shape66-176" v:mID="66" v:groupContext="shape" transform="translate(596.018,327.994) rotate(90)">
			<title>Foglio.66</title>
			<rect x="0" y="277.818" width="19.8425" height="79.3701" class="st4"/>
		</g>
		<g id="shape67-178" v:mID="67" v:groupContext="shape" transform="translate(238.83,-10.7688)">
			<title>Foglio.67</title>
			<desc>OrderDetail</desc>
			<v:textBlock v:margins="rect(4,4,4,4)" v:tabSpace="42.5197"/>
			<v:textRect cx="27.046" cy="348.893" width="54.1" height="16.5898"/>
			<rect x="0" y="340.598" width="54.092" height="16.5898" class="st2"/>
			<text x="6.59" y="351.29" class="st3" v:langID="1040"><v:paragraph v:horizAlign="1"/><v:tabList/>OrderDetail</text>		</g>
		<g id="shape72-181" v:mID="72" v:groupContext="shape" transform="translate(679.798,302.737) rotate(90)">
			<title>Foglio.72</title>
			<rect x="0" y="277.976" width="19.8425" height="79.2121" class="st4"/>
		</g>
		<g id="shape73-183" v:mID="73" v:groupContext="shape" transform="translate(322.61,-36.2346)">
			<title>Foglio.73</title>
			<desc>OrderDetailPK</desc>
			<v:textBlock v:margins="rect(4,4,4,4)" v:tabSpace="42.5197"/>
			<v:textRect cx="30.8679" cy="348.893" width="61.74" height="16.5898"/>
			<rect x="0" y="340.598" width="61.7358" height="16.5898" class="st2"/>
			<text x="5.08" y="351.29" class="st3" v:langID="1040"><v:paragraph v:horizAlign="1"/><v:tabList/>OrderDetailPK</text>		</g>
		<g id="shape74-186" v:mID="74" v:groupContext="shape" transform="translate(679.798,327.994) rotate(90)">
			<title>Foglio.74</title>
			<rect x="0" y="277.976" width="19.8425" height="79.2121" class="st4"/>
		</g>
		<g id="shape75-188" v:mID="75" v:groupContext="shape" transform="translate(322.61,-10.9318)">
			<title>Foglio.75</title>
			<desc>OrderStatus</desc>
			<v:textBlock v:margins="rect(4,4,4,4)" v:tabSpace="42.5197"/>
			<v:textRect cx="26.4136" cy="348.893" width="52.83" height="16.5898"/>
			<rect x="0" y="340.598" width="52.8272" height="16.5898" class="st2"/>
			<text x="4.85" y="351.29" class="st3" v:langID="1040"><v:paragraph v:horizAlign="1"/><v:tabList/>OrderStatus</text>		</g>
	</g>
</svg>
