<?xml version="1.0" encoding="UTF-8" standalone="no"?>
<!DOCTYPE svg PUBLIC "-//W3C//DTD SVG 1.0//EN" "http://www.w3.org/TR/2001/REC-SVG-20010904/DTD/svg10.dtd">
<!-- Generato da Microsoft Visio 11.0, SVG Export, v1.0 jakartaeett_dt_020.svg Pagina 1 -->
<svg xmlns="http://www.w3.org/2000/svg" xmlns:v="http://schemas.microsoft.com/visio/2003/SVGExtensions/" width="4.86252in"
		height="1.58095in" viewBox="0 0 350.101 113.829" xml:space="preserve" color-interpolation-filters="sRGB" class="st24"
		xmlns:xlink="http://www.w3.org/1999/xlink">
	<v:documentProperties v:langID="1040" v:metric="true" v:viewMarkup="false">
		<v:userDefs>
			<v:ud v:nameU="MBSAAvail" v:prompt="" v:val="VT0(2):26"/>
			<v:ud v:nameU="MBSAAddinEnabled" v:prompt="" v:val="VT0(2):26"/>
			<v:ud v:nameU="MBSAAddinOutlineVisible" v:prompt="" v:val="VT0(1):26"/>
		</v:userDefs>
	</v:documentProperties>

	<style type="text/css">
	<![CDATA[
		.st1 {fill:#c8d6e6;stroke:#000000;stroke-linecap:round;stroke-linejoin:round;stroke-width:0.72}
		.st2 {stroke:#000000;stroke-linecap:round;stroke-linejoin:round;stroke-width:0.72}
		.st3 {fill:#000000;stroke:#000000;stroke-linecap:round;stroke-linejoin:round;stroke-width:0.72}
		.st4 {fill:none;stroke:none;stroke-linecap:round;stroke-linejoin:round;stroke-width:0.72}
		.st5 {fill:#000000;font-family:Arial;font-size:0.666664em}
		.st6 {fill:#dddddd}
		.st7 {fill:url(#grad31-25);stroke:#000000;stroke-linecap:round;stroke-linejoin:round;stroke-width:0.72}
		.st8 {fill:url(#grad30-31);stroke:#000000;stroke-linecap:round;stroke-linejoin:round;stroke-width:0.72}
		.st9 {fill:#0070c0;font-family:Arial;font-size:1.00001em}
		.st10 {fill:url(#grad32-57);stroke:#000000;stroke-linecap:round;stroke-linejoin:round;stroke-width:0.72}
		.st11 {fill:#ffffff;stroke:none;stroke-linecap:round;stroke-linejoin:round;stroke-width:0.24}
		.st12 {fill:#969696;fill-opacity:0.3;stroke:none;stroke-linecap:round;stroke-linejoin:round;stroke-width:0.72}
		.st13 {fill:#808080;fill-opacity:0.5}
		.st14 {fill:url(#grad32-57)}
		.st15 {fill:none;stroke:#000000;stroke-linecap:round;stroke-linejoin:round;stroke-width:1.5}
		.st16 {fill:#000000}
		.st17 {fill:#ffffff;fill-opacity:0.6}
		.st18 {stroke:#000000;stroke-linecap:round;stroke-linejoin:round;stroke-width:0.36}
		.st19 {stroke:#ffffff;stroke-linecap:round;stroke-linejoin:round;stroke-width:0.36}
		.st20 {fill:url(#grad40-104);stroke:#000000;stroke-linecap:round;stroke-linejoin:round;stroke-width:0.12}
		.st21 {fill:url(#grad35-108);stroke:#000000;stroke-linecap:round;stroke-linejoin:round;stroke-width:0.72}
		.st22 {fill:#660033;stroke:#660033;stroke-linecap:round;stroke-linejoin:round;stroke-width:0.72}
		.st23 {stroke:#ffffff;stroke-linecap:round;stroke-linejoin:round;stroke-width:2.16}
		.st24 {fill:none;fill-rule:evenodd;font-size:12;overflow:visible;stroke-linecap:square;stroke-miterlimit:3}
	]]>
	</style>

	<defs id="Patterns_And_Gradients">
		<pattern id="grad31-25" v:fillPattern="31" v:foreground="#ffffff" v:background="#969696" x="0" y="0" width="1" height="1"
				patternContentUnits="objectBoundingBox">
			<path d="M 0 0 L 0 1 L 1 1 z" style="fill:url(#grad28-26)"/>
			<path d="M 0 0 L 1 0 L 1 1 z" style="fill:url(#grad25-27)"/>
		</pattern>
		<linearGradient id="grad28-26" v:fillPattern="31" v:foreground="#ffffff" v:background="#969696" x1="0" y1="0" x2="0" y2="1">
			<stop offset="0" style="stop-color:#ffffff;stop-opacity:1"/>
			<stop offset="1" style="stop-color:#969696;stop-opacity:1"/>
		</linearGradient>
		<linearGradient id="grad25-27" v:fillPattern="31" v:foreground="#ffffff" v:background="#969696" x1="0" y1="0" x2="1" y2="0">
			<stop offset="0" style="stop-color:#ffffff;stop-opacity:1"/>
			<stop offset="1" style="stop-color:#969696;stop-opacity:1"/>
		</linearGradient>
		<linearGradient id="grad30-31" v:fillPattern="30" v:foreground="#ffffff" v:background="#dddddd" x1="0" y1="1" x2="0" y2="0">
			<stop offset="0" style="stop-color:#ffffff;stop-opacity:1"/>
			<stop offset="1" style="stop-color:#dddddd;stop-opacity:1"/>
		</linearGradient>
		<pattern id="grad32-57" v:fillPattern="32" v:foreground="#ffffff" v:background="#c0c0c0" x="0" y="0" width="1" height="1"
				patternContentUnits="objectBoundingBox">
			<path d="M 0 1 L 0 0 L 1 0 z" style="fill:url(#grad27-58)"/>
			<path d="M 0 1 L 1 1 L 1 0 z" style="fill:url(#grad28-59)"/>
		</pattern>
		<linearGradient id="grad27-58" v:fillPattern="32" v:foreground="#ffffff" v:background="#c0c0c0" x1="1" y1="0" x2="0" y2="0">
			<stop offset="0" style="stop-color:#ffffff;stop-opacity:1"/>
			<stop offset="1" style="stop-color:#c0c0c0;stop-opacity:1"/>
		</linearGradient>
		<linearGradient id="grad28-59" v:fillPattern="32" v:foreground="#ffffff" v:background="#c0c0c0" x1="0" y1="0" x2="0" y2="1">
			<stop offset="0" style="stop-color:#ffffff;stop-opacity:1"/>
			<stop offset="1" style="stop-color:#c0c0c0;stop-opacity:1"/>
		</linearGradient>
		<radialGradient id="grad40-104" v:fillPattern="40" v:foreground="#ffffff" v:background="#008000" cx="0.5" cy="0.5" r="0.5">
			<stop offset="0" style="stop-color:#ffffff;stop-opacity:1"/>
			<stop offset="1" style="stop-color:#008000;stop-opacity:1"/>
		</radialGradient>
		<pattern id="grad35-108" v:fillPattern="35" v:foreground="#ffffff" v:background="#c6d1e3" x="0" y="0" width="1" height="1"
				patternContentUnits="objectBoundingBox">
			<path d="M 0.5 0.5 L 0 0 L 0 1 z" style="fill:url(#grad27-109)"/>
			<path d="M 0.5 0.5 L 1 0 L 1 1 z" style="fill:url(#grad25-110)"/>
			<path d="M 0.5 0.5 L 0 0 L 1 0 z" style="fill:url(#grad30-111)"/>
			<path d="M 0.5 0.5 L 0 1 L 1 1 z" style="fill:url(#grad28-112)"/>
		</pattern>
		<linearGradient id="grad27-109" v:fillPattern="35" v:foreground="#ffffff" v:background="#c6d1e3" x1="1" y1="0" x2="0"
				y2="0">
			<stop offset="0" style="stop-color:#ffffff;stop-opacity:1"/>
			<stop offset="1" style="stop-color:#c6d1e3;stop-opacity:1"/>
		</linearGradient>
		<linearGradient id="grad25-110" v:fillPattern="35" v:foreground="#ffffff" v:background="#c6d1e3" x1="0" y1="0" x2="1"
				y2="0">
			<stop offset="0" style="stop-color:#ffffff;stop-opacity:1"/>
			<stop offset="1" style="stop-color:#c6d1e3;stop-opacity:1"/>
		</linearGradient>
		<linearGradient id="grad30-111" v:fillPattern="35" v:foreground="#ffffff" v:background="#c6d1e3" x1="0" y1="1" x2="0"
				y2="0">
			<stop offset="0" style="stop-color:#ffffff;stop-opacity:1"/>
			<stop offset="1" style="stop-color:#c6d1e3;stop-opacity:1"/>
		</linearGradient>
		<linearGradient id="grad28-112" v:fillPattern="35" v:foreground="#ffffff" v:background="#c6d1e3" x1="0" y1="0" x2="0"
				y2="1">
			<stop offset="0" style="stop-color:#ffffff;stop-opacity:1"/>
			<stop offset="1" style="stop-color:#c6d1e3;stop-opacity:1"/>
		</linearGradient>
	</defs>
	<g v:mID="0" v:index="1" v:groupContext="foregroundPage">
		<title>Pagina 1</title>
		<v:pageProperties v:drawingScale="0.0393701" v:pageScale="0.0393701" v:drawingUnits="24" v:shadowOffsetX="8.50394"
				v:shadowOffsetY="-8.50394"/>
		<g id="shape37-1" v:mID="37" v:groupContext="shape" transform="translate(125.444,-19.5654)">
			<title>Foglio.37</title>
			<rect x="0" y="20.2854" width="93.5433" height="93.5433" class="st1"/>
		</g>
		<g id="shape9-3" v:mID="9" v:groupContext="shape" transform="translate(247.334,-67.7543) scale(-1,1)">
			<title>Foglio.9</title>
			<path d="M0 113.83 L28.35 113.83" class="st2"/>
		</g>
		<g id="shape35-6" v:mID="35" v:groupContext="shape" transform="translate(3.55465,-19.5654)">
			<title>Foglio.35</title>
			<rect x="0" y="20.2854" width="93.5433" height="93.5433" class="st1"/>
		</g>
		<g id="shape12-8" v:mID="12" v:groupContext="shape" transform="translate(351.525,48.909) rotate(90) scale(-1,1)">
			<title>Foglio.12</title>
			<path d="M5.67 113.83 L0 113.83 L2.83 104.19 L5.67 113.83 Z" class="st3"/>
		</g>
		<g id="shape15-10" v:mID="15" v:groupContext="shape" transform="translate(0.72,-90.4315)">
			<title>Foglio.15</title>
			<desc>Remote Client</desc>
			<v:textBlock v:margins="rect(4,4,4,4)" v:tabSpace="42.5197"/>
			<v:textRect cx="41.1024" cy="102.49" width="82.21" height="22.6772"/>
			<rect x="0" y="91.1515" width="82.2047" height="22.6772" class="st4"/>
			<text x="15.76" y="104.89" class="st5" v:langID="1040"><v:paragraph v:horizAlign="1"/><v:tabList/>Remote Client</text>		</g>
		<g id="shape10-13" v:mID="10" v:groupContext="shape" transform="translate(125.444,-67.7543) scale(-1,1)">
			<title>Foglio.10</title>
			<path d="M0 113.83 L28.35 113.83" class="st2"/>
		</g>
		<g id="shape11-16" v:mID="11" v:groupContext="shape" transform="translate(229.635,48.909) rotate(90) scale(-1,1)">
			<title>Foglio.11</title>
			<path d="M5.67 113.83 L0 113.83 L2.83 104.19 L5.67 113.83 Z" class="st3"/>
		</g>
		<g id="group3-18" transform="translate(85.7594,-22.4) scale(-1,1)" v:mID="3" v:groupContext="group">
			<v:custProps>
				<v:cp v:nameU="Manufacturer" v:lbl="Manufacturer" v:type="0" v:sortKey="Equipment" v:invis="false" v:ask="false"
						v:langID="1033"/>
				<v:cp v:nameU="ProductNumber" v:lbl="Product Number" v:type="0" v:sortKey="Equipment" v:invis="false" v:ask="false"
						v:langID="1033"/>
				<v:cp v:nameU="PartNumber" v:lbl="Part Number" v:type="0" v:sortKey="Equipment" v:invis="false" v:ask="false"
						v:langID="1033"/>
				<v:cp v:nameU="ProductDescription" v:lbl="Product Description" v:type="0" v:sortKey="Equipment" v:invis="false"
						v:ask="false" v:langID="1033"/>
				<v:cp v:nameU="AssetNumber" v:lbl="Asset Number" v:type="0" v:sortKey="Asset" v:invis="false" v:ask="false"
						v:langID="1033"/>
				<v:cp v:nameU="SerialNumber" v:lbl="Serial Number" v:type="0" v:sortKey="Asset" v:invis="false" v:ask="false"
						v:langID="1033"/>
				<v:cp v:nameU="Location" v:lbl="Location" v:type="0" v:sortKey="Asset" v:invis="false" v:ask="false"
						v:langID="1033"/>
				<v:cp v:nameU="Building" v:lbl="Building" v:type="0" v:sortKey="Asset" v:invis="false" v:ask="false"
						v:langID="1033"/>
				<v:cp v:nameU="Room" v:lbl="Room" v:type="0" v:sortKey="Asset" v:invis="false" v:ask="false" v:langID="1033"/>
				<v:cp v:nameU="Department" v:lbl="Department" v:type="0" v:invis="false" v:ask="false" v:langID="1033"/>
				<v:cp v:nameU="NetworkName" v:lbl="Network Name" v:type="0" v:sortKey="Network" v:invis="false" v:ask="false"
						v:langID="1033" v:val="VT4(HUEY)"/>
				<v:cp v:nameU="IPAddress" v:lbl="IP Address" v:type="0" v:sortKey="Network" v:invis="false" v:ask="false"
						v:langID="1033" v:val="VT4(10.0.0.115)"/>
				<v:cp v:nameU="SubnetMask" v:lbl="Subnet Mask" v:type="0" v:sortKey="Network" v:invis="false" v:ask="false"
						v:langID="1033"/>
				<v:cp v:nameU="AdminInterface" v:lbl="Administrative Interface" v:type="0" v:sortKey="Network" v:invis="false"
						v:ask="false" v:langID="1033"/>
				<v:cp v:nameU="NumberofPorts" v:lbl="Number of Ports" v:type="0" v:sortKey="Network" v:invis="false" v:ask="false"
						v:langID="1033"/>
				<v:cp v:nameU="CommunityString" v:lbl="Community String" v:type="0" v:sortKey="Network" v:invis="false"
						v:ask="false" v:langID="1033"/>
				<v:cp v:nameU="NetworkDescription" v:lbl="Network Description" v:type="0" v:sortKey="Network" v:invis="false"
						v:ask="false" v:langID="1033"/>
				<v:cp v:nameU="CPU" v:lbl="CPU" v:type="0" v:sortKey="Workstation" v:invis="false" v:ask="false" v:langID="1033"/>
				<v:cp v:nameU="Memory" v:lbl="Memory" v:type="0" v:sortKey="Workstation" v:invis="false" v:ask="false"
						v:langID="1033"/>
				<v:cp v:nameU="OperatingSystem" v:lbl="Operating System" v:type="0" v:sortKey="Workstation" v:invis="false"
						v:ask="false" v:langID="1033"/>
				<v:cp v:nameU="BelongsTo" v:lbl="Belongs To" v:type="0" v:invis="true" v:ask="false" v:langID="1033"/>
				<v:cp v:nameU="ShapeClass" v:lbl="ShapeClass" v:type="0" v:invis="true" v:ask="false" v:langID="1033"
						v:val="VT4(Equipment)"/>
				<v:cp v:nameU="ShapeType" v:lbl="ShapeType" v:type="0" v:invis="true" v:ask="false" v:langID="1033"
						v:val="VT4(Computer)"/>
				<v:cp v:nameU="SubShapeType" v:lbl="SubShapeType" v:type="0" v:invis="true" v:ask="false" v:langID="1033"
						v:val="VT4(Desktop)"/>
				<v:cp v:nameU="MACAddress" v:lbl="MAC Address" v:type="0" v:sortKey="Network" v:invis="false" v:ask="false"
						v:langID="1033"/>
				<v:cp v:nameU="HardDriveSize" v:lbl="Hard Drive Capacity" v:type="0" v:sortKey="Workstation" v:invis="false"
						v:ask="false" v:langID="1033"/>
				<v:cp v:nameU="_VisDM_Network_Equipment" v:lbl="Network Equipment" v:langID="1033" v:val="VT4(ISS4)"/>
				<v:cp v:nameU="_VisDM_F2" v:lbl="F2" v:langID="1033" v:val="VT4(203)"/>
				<v:cp v:nameU="_VisDM_F3" v:lbl="F3" v:langID="1033" v:val="VT4(HUEY)"/>
				<v:cp v:nameU="_VisDM_F4" v:lbl="F4" v:langID="1033" v:val="VT4(HUEY)"/>
				<v:cp v:nameU="_VisDM_F5" v:lbl="F5" v:langID="1033" v:val="VT4()"/>
				<v:cp v:nameU="_VisDM_F6" v:lbl="F6" v:langID="1033" v:val="VT4(10.0.0.115)"/>
				<v:cp v:nameU="_VisDM_F7" v:lbl="F7" v:langID="1033" v:val="VT4()"/>
				<v:cp v:nameU="_VisDM_F8" v:lbl="F8" v:langID="1033" v:val="VT4()"/>
				<v:cp v:nameU="_VisDM_F9" v:lbl="F9" v:langID="1033" v:val="VT4()"/>
				<v:cp v:nameU="_VisDM_F10" v:lbl="F10" v:langID="1033" v:val="VT4()"/>
				<v:cp v:nameU="_VisDM_F11" v:lbl="F11" v:langID="1033" v:val="VT4()"/>
				<v:cp v:nameU="_VisDM_F12" v:lbl="F12" v:langID="1033" v:val="VT4()"/>
			</v:custProps>
			<v:userDefs>
				<v:ud v:nameU="HasText" v:val="VT0(0):5"/>
				<v:ud v:nameU="ShapeClass" v:val="VT0(5):26"/>
				<v:ud v:nameU="ShapeType" v:val="VT0(6):26"/>
				<v:ud v:nameU="SubShapeType" v:val="VT0(17):26"/>
				<v:ud v:nameU="SolSH" v:val="VT14({BF0433D9-CD73-4EB5-8390-8653BE590246}):41"/>
				<v:ud v:nameU="visLegendShape" v:val="VT0(2):26"/>
				<v:ud v:nameU="MBSAAddinVersion" v:prompt="" v:val="VT4(1.0)"/>
				<v:ud v:nameU="MBSAAddinConfigured" v:prompt="" v:val="VT0(0):5"/>
				<v:ud v:nameU="MBSAAddinReportOverview" v:prompt="" v:val="VT0(0):26"/>
				<v:ud v:nameU="visDGDefaultPos" v:val="VT6(PNT(3,2)):40"/>
			</v:userDefs>
			<title>PC.118</title>
			<g id="shape4-19" v:mID="4" v:groupContext="shape" transform="translate(26.0196,-0.000565537)">
				<title>Foglio.4</title>
				<path d="M7.35 113.78 A12.0057 12.0057 -180 0 0 15.51 110.2 A3.63488 3.63488 -78.34 0 0 11.88 104.79 L0 113.83 L7.35
							 113.78 Z" class="st6"/>
			</g>
			<g id="shape5-22" v:mID="5" v:groupContext="shape" transform="translate(25.9797,-1.42109E-014)">
				<title>Foglio.5</title>
				<path d="M0 113.83 L0 110.75 L12.11 102.75 L12.11 106.74 L0 113.83 Z" class="st7"/>
			</g>
			<g id="shape6-28" v:mID="6" v:groupContext="shape" transform="translate(3.59712E-014,-3.0742)">
				<title>Foglio.6</title>
				<path d="M0 98.73 L11.67 90.53 L38.09 105.82 L25.98 113.83 L0 98.73 Z" class="st8"/>
			</g>
			<g id="shape7-32" v:mID="7" v:groupContext="shape" transform="translate(44.0333,-12.1089)">
				<title>Foglio.7</title>
				<desc>`</desc>
				<v:textBlock v:margins="rect(0,0,0,0)" v:tabSpace="42.5197"/>
				<v:textRect cx="15.364" cy="103.263" width="30.73" height="21.1313"/>
				<path d="M8.81 113.75 A27.1087 26.9332 -90 0 0 28.62 107.1 A8.90804 8.85039 -90 0 0 24.05 92.7 L0 112.42 L8.81 113.75
							 Z" class="st6"/>
				<text x="-17.36" y="106.86" transform="scale(-1,1)" class="st9" v:langID="1033"><v:paragraph v:horizAlign="1"/><v:tabList/>`</text>			</g>
			<g id="shape8-36" v:mID="8" v:groupContext="shape" transform="translate(18.3839,-24.1698)">
				<title>Foglio.8</title>
				<path d="M25.65 113.83 L49.65 99.88 L23.89 84.81 L0 99 A60.5343 60.9286 -180 0 0 25.65 113.83 Z" class="st8"/>
			</g>
			<g id="shape13-39" v:mID="13" v:groupContext="shape" transform="translate(45.7947,-28.3649)">
				<title>Foglio.13</title>
				<path d="M0 113.83 L0 89.01 L5.04 86.06 L4.84 109.62 L0 113.83 Z" class="st7"/>
			</g>
			<g id="shape14-42" v:mID="14" v:groupContext="shape" transform="translate(50.6383,-35.013)">
				<title>Foglio.14</title>
				<path d="M0.18 95.03 L9.47 91.45 L9.47 106.07 L0 113.83 L0.18 95.03 Z" class="st7"/>
			</g>
			<g id="shape16-45" v:mID="16" v:groupContext="shape" transform="translate(35.667,-53.8141)">
				<title>Foglio.16</title>
				<path d="M15.15 113.83 L15.17 111.51 L0 102.71 L7.71 100.5 L24.44 110.25 L15.15 113.83 Z" class="st8"/>
			</g>
			<g id="shape17-48" v:mID="17" v:groupContext="shape" transform="translate(44.0333,-13.5177)">
				<title>Foglio.17</title>
				<path d="M0 103.18 L24 89.23 L24 99.87 L0 113.83 L0 103.18 Z" class="st7"/>
			</g>
			<g id="shape18-51" v:mID="18" v:groupContext="shape" transform="translate(24.2183,-53.1842)">
				<title>Foglio.18</title>
				<path d="M0 101.42 L6.16 98.98 L11.46 102.09 L26.62 110.89 L21.58 113.83 A60.4166 60.8102 0 0 1 -0 101.42 Z"
						class="st8"/>
			</g>
			<g id="shape19-54" v:mID="19" v:groupContext="shape">
				<title>Foglio.19</title>
				<path d="M0 95.66 L25.98 110.75 L25.98 113.83 L0 98.76 L0 95.66 Z" class="st10"/>
			</g>
			<g id="group20-60" transform="translate(2.82928,-4.65426)" v:mID="20" v:groupContext="group">
				<title>Foglio.20</title>
				<g id="shape21-61" v:mID="21" v:groupContext="shape" transform="translate(-7.99361E-015,-0.453602)">
					<title>Foglio.21</title>
					<path d="M0 99.91 L1.9 101.04 L3.49 100 L1.59 98.86 L0 99.91 Z M2.36 98.32 L4.26 99.45 L5.85 98.41 L3.95 97.27
								 L2.36 98.32 Z M4.72 96.73 L6.62 97.86 L8.21 96.82 L6.3 95.69 L4.72 96.73 Z M7.08 95.14 L8.98 96.28
								 L10.57 95.23 L8.66 94.1 L7.08 95.14 Z M10.61 97.27 L12.52 98.41 L14.11 97.36 L12.2 96.23 L10.61
								 97.27 Z M14.15 99.41 L16.06 100.54 L17.64 99.5 L15.74 98.36 L14.15 99.41 Z M17.69 101.54 L19.59
								 102.67 L21.18 101.63 L19.28 100.49 L17.69 101.54 Z M24.76 105.8 L26.67 106.93 L28.26 105.89 L26.35
								 104.76 L24.76 105.8 Z M28.3 107.93 L30.21 109.07 L31.79 108.02 L29.89 106.89 L28.3 107.93 Z M25.94
								 109.52 L27.85 110.65 L29.44 109.61 L27.53 108.48 L25.94 109.52 Z M22.41 107.39 L24.31 108.52 L25.9
								 107.48 L23.99 106.34 L22.41 107.39 Z M21.23 103.67 L23.13 104.8 L24.72 103.76 L22.81 102.63 L21.23
								 103.67 Z M18.87 105.26 L20.77 106.39 L22.36 105.35 L20.45 104.21 L18.87 105.26 Z M15.33 103.12 L17.23
								 104.26 L18.82 103.22 L16.92 102.08 L15.33 103.12 Z M11.79 100.99 L13.7 102.13 L15.28 101.08 L13.38
								 99.95 L11.79 100.99 Z M8.25 98.86 L10.16 100 L11.75 98.95 L9.84 97.82 L8.25 98.86 Z M5.9 100.45
								 L7.8 101.58 L9.39 100.54 L7.48 99.41 L5.9 100.45 Z M9.43 102.58 L11.34 103.71 L12.93 102.67 L11.02
								 101.54 L9.43 102.58 Z M12.97 104.71 L14.88 105.85 L16.46 104.8 L14.56 103.67 L12.97 104.71 Z M16.51
								 106.84 L18.41 107.98 L20 106.93 L18.1 105.8 L16.51 106.84 Z M20.05 108.98 L21.95 110.11 L23.54 109.07
								 L21.63 107.93 L20.05 108.98 Z M23.58 111.11 L25.49 112.24 L27.08 111.2 L25.17 110.06 L23.58 111.11
								 Z M21.23 112.7 L23.13 113.83 L24.72 112.79 L22.81 111.65 L21.23 112.7 Z M17.69 110.56 L19.59 111.7
								 L21.18 110.65 L19.28 109.52 L17.69 110.56 Z M7.08 104.17 L16.06 109.57 L17.64 108.52 L8.66 103.13
								 L7.08 104.17 Z M3.54 102.04 L5.44 103.17 L7.03 102.13 L5.12 100.99 L3.54 102.04 Z" class="st11"/>
				</g>
				<g id="shape22-63" v:mID="22" v:groupContext="shape" transform="translate(0.000748225,1.42109E-014)">
					<title>Foglio.22</title>
					<path d="M7.08 95.14 L8.98 96.28 L8.98 95.82 L7.08 94.69 L7.08 95.14 Z M10.61 97.27 L12.52 98.41 L12.52 97.95
								 L10.61 96.82 L10.61 97.27 Z M14.15 99.4 L16.06 100.54 L16.06 100.09 L14.15 98.95 L14.15 99.4 Z M17.69
								 101.54 L19.59 102.67 L19.59 102.22 L17.69 101.08 L17.69 101.54 Z M21.23 103.67 L23.13 104.8 L23.13
								 104.35 L21.23 103.21 L21.23 103.67 Z M24.76 105.8 L26.67 106.93 L26.67 106.48 L24.76 105.35 L24.76
								 105.8 Z M8.98 95.82 L8.98 96.27 L10.57 95.23 L10.57 94.78 L8.98 95.82 Z M12.52 97.95 L12.52 98.41
								 L14.1 97.36 L14.1 96.91 L12.52 97.95 Z M16.06 100.08 L16.06 100.54 L17.64 99.5 L17.64 99.04 L16.06
								 100.08 Z M19.59 102.22 L19.59 102.67 L21.18 101.63 L21.18 101.17 L19.59 102.22 Z M23.13 104.35 L23.13
								 104.8 L24.72 103.76 L24.72 103.31 L23.13 104.35 Z M26.67 106.48 L26.67 106.93 L28.26 105.89 L28.26
								 105.44 L26.67 106.48 Z M28.3 107.93 L30.21 109.07 L30.21 108.61 L28.3 107.48 L28.3 107.93 Z M30.21
								 108.61 L30.21 109.07 L31.79 108.02 L31.79 107.57 L30.21 108.61 Z M4.72 96.73 L6.62 97.86 L6.62 97.41
								 L4.72 96.28 L4.72 96.73 Z M8.25 98.86 L10.16 100 L10.16 99.54 L8.25 98.41 L8.25 98.86 Z M11.79 100.99
								 L13.7 102.13 L13.7 101.67 L11.79 100.54 L11.79 100.99 Z M15.33 103.12 L17.23 104.26 L17.23 103.8
								 L15.33 102.67 L15.33 103.12 Z M18.87 105.26 L20.77 106.39 L20.77 105.94 L18.87 104.8 L18.87 105.26
								 Z M22.4 107.39 L24.31 108.52 L24.31 108.07 L22.4 106.93 L22.4 107.39 Z M6.62 97.41 L6.62 97.86 L8.21
								 96.82 L8.21 96.37 L6.62 97.41 Z M10.16 99.54 L10.16 99.99 L11.75 98.95 L11.75 98.5 L10.16 99.54
								 Z M13.7 101.67 L13.7 102.13 L15.28 101.08 L15.28 100.63 L13.7 101.67 Z M17.23 103.8 L17.23 104.26
								 L18.82 103.21 L18.82 102.76 L17.23 103.8 Z M20.77 105.94 L20.77 106.39 L22.36 105.35 L22.36 104.89
								 L20.77 105.94 Z M24.31 108.07 L24.31 108.52 L25.9 107.48 L25.9 107.02 L24.31 108.07 Z M25.94 109.52
								 L27.85 110.65 L27.85 110.2 L25.94 109.07 L25.94 109.52 Z M27.85 110.2 L27.85 110.65 L29.43 109.61
								 L29.43 109.16 L27.85 110.2 Z M2.36 98.32 L4.26 99.45 L4.26 99 L2.36 97.86 L2.36 98.32 Z M5.9 100.45
								 L7.8 101.58 L7.8 101.13 L5.9 100 L5.9 100.45 Z M9.43 102.58 L11.34 103.71 L11.34 103.26 L9.43 102.13
								 L9.43 102.58 Z M12.97 104.71 L14.88 105.85 L14.88 105.39 L12.97 104.26 L12.97 104.71 Z M16.51 106.84
								 L18.41 107.98 L18.41 107.52 L16.51 106.39 L16.51 106.84 Z M20.05 108.98 L21.95 110.11 L21.95 109.66
								 L20.05 108.52 L20.05 108.98 Z M4.26 99 L4.26 99.45 L5.85 98.41 L5.85 97.95 L4.26 99 Z M7.8 101.13
								 L7.8 101.58 L9.39 100.54 L9.39 100.09 L7.8 101.13 Z M11.34 103.26 L11.34 103.71 L12.93 102.67 L12.93
								 102.22 L11.34 103.26 Z M14.88 105.39 L14.88 105.85 L16.46 104.8 L16.46 104.35 L14.88 105.39 Z M18.41
								 107.52 L18.41 107.98 L20 106.93 L20 106.48 L18.41 107.52 Z M21.95 109.66 L21.95 110.11 L23.54 109.07
								 L23.54 108.61 L21.95 109.66 Z M23.58 111.11 L25.49 112.24 L25.49 111.79 L23.58 110.65 L23.58 111.11
								 Z M25.49 111.79 L25.49 112.24 L27.08 111.2 L27.08 110.74 L25.49 111.79 Z M0 99.9 L1.9 101.04 L1.9
								 100.59 L0 99.45 L0 99.9 Z M3.54 102.04 L5.44 103.17 L5.44 102.72 L3.54 101.58 L3.54 102.04 Z M7.08
								 104.17 L16.06 109.57 L16.06 109.11 L7.07 103.71 L7.08 104.17 Z M17.69 110.56 L19.59 111.7 L19.59
								 111.24 L17.69 110.11 L17.69 110.56 Z M1.9 100.58 L1.9 101.04 L3.49 99.99 L3.49 99.54 L1.9 100.58
								 Z M5.44 102.72 L5.44 103.17 L7.03 102.13 L7.03 101.67 L5.44 102.72 Z M16.05 109.11 L16.05 109.57
								 L17.64 108.52 L17.64 108.07 L16.05 109.11 Z M19.59 111.24 L19.59 111.7 L21.18 110.65 L21.18 110.2
								 L19.59 111.24 Z M21.22 112.69 L23.13 113.83 L23.13 113.38 L21.22 112.24 L21.22 112.69 Z M23.13 113.38
								 L23.13 113.83 L24.72 112.79 L24.72 112.33 L23.13 113.38 Z" class="st12"/>
				</g>
			</g>
			<g id="shape23-65" v:mID="23" v:groupContext="shape" transform="translate(62.427,-27.4678)">
				<title>Foglio.23</title>
				<path d="M1.58 107.36 L2.79 106.66 a0.150735 0.150735 0 0 1 0.22647 0.130328 L3.01 112.1 a0.150735 0.150735 0 0 1
							 -0.0750002 0.130328 L1.74 112.93 a0.150735 0.150735 0 0 1 -0.22647 -0.130328 L1.51 107.49 a0.150735
							 0.150735 0 0 1 0.0750002 -0.130328 Z M0.08 108.23 L0.78 107.83 a0.150735 0.150735 0 0 1 0.22647 0.130328
							 L1.01 113.27 a0.150735 0.150735 0 0 1 -0.0750002 0.130328 L0.23 113.81 a0.150735 0.150735 0 0 1 -0.22647
							 -0.130328 L0 108.36 a0.150735 0.150735 0 0 1 0.0750002 -0.130328 Z" class="st13"/>
			</g>
			<g id="shape24-68" v:mID="24" v:groupContext="shape" transform="translate(18.3839,-13.5177)">
				<title>Foglio.24</title>
				<path d="M27.41 98.98 A49.049 49.3685 0 0 1 5.83 86.79 L5.83 61.75 A59.4456 59.8329 -180 0 0 27.41 74.16 L27.41 98.98
							 Z M0 98.98 A59.1969 59.5825 -180 0 0 25.65 113.83 L25.65 103.18 A59.5693 59.9574 0 0 1 0 88.34 L0 98.98
							 Z" class="st14"/>
				<path d="M27.41 98.98 A49.049 49.3685 0 0 1 5.83 86.79 L5.83 61.75 A59.4456 59.8329 -180 0 0 27.41 74.16 L27.41 98.98"
						class="st2"/>
				<path d="M1.87 92.78 A35.2104 34.9825 -90 0 0 7.6 97.43" class="st2"/>
				<path d="M1.87 94.33 A35.2104 34.9825 -90 0 0 7.6 98.98" class="st2"/>
				<path d="M1.87 95.88 A35.2104 34.9825 -90 0 0 7.6 100.53" class="st2"/>
				<path d="M1.87 97.43 A35.2104 34.9825 -90 0 0 7.6 102.08" class="st2"/>
				<path d="M22.57 64.29 L32.69 70.17" class="st2"/>
				<path d="M23.89 63.92 L34.02 69.81" class="st2"/>
				<path d="M25.21 63.55 L35.34 69.44" class="st2"/>
				<path d="M26.53 63.18 L36.66 69.07" class="st2"/>
				<path d="M0 98.98 A59.1969 59.5825 -180 0 0 25.65 113.83 L25.65 103.18 A59.5693 59.9574 0 0 1 0 88.34 L0 98.98"
						class="st2"/>
			</g>
			<g id="shape25-81" v:mID="25" v:groupContext="shape" transform="translate(26.8603,-32.8363)">
				<title>Foglio.25</title>
				<path d="M0 86.61 L0 104.56 A50.7254 50.3971 -90.11 0 0 15.63 113.83" class="st2"/>
			</g>
			<g id="shape26-85" v:mID="26" v:groupContext="shape">
				<title>Foglio.26</title>
				<path d="M44.03 100.31 L68.03 86.35 L68.03 75.71 L60.11 71.06 L60.11 56.43 L43.37 46.68 L35.67 48.9 L30.38 45.8 L24.22
							 48.23 L24.22 71.5 L18.38 74.83 L18.38 85.46 A60.6086 60.2163 -90 0 0 44.03 100.31 Z M0 95.66 L11.67
							 87.46 L38.09 102.75 L38.09 106.74 L25.98 113.83 L0 98.76 L0 95.66 Z" class="st15"/>
			</g>
			<g id="group27-87" transform="translate(31.9242,-17.2849)" v:mID="27" v:groupContext="group">
				<title>Foglio.27</title>
				<g id="shape28-88" v:mID="28" v:groupContext="shape" transform="translate(2.1338,0)">
					<title>Foglio.28</title>
					<path d="M0.73 109.18 L8.21 112.17 a0.873513 0.867859 90 0 1 -0.220167 1.66201 L0.73 110.95 a0.896589 0.902429
								 0 0 1 -1.18794E-014 -1.77281 Z" class="st16"/>
				</g>
				<g id="shape29-91" v:mID="29" v:groupContext="shape" transform="translate(0,-3.10241)">
					<title>Foglio.29</title>
					<path d="M0 107.18 L10.79 111.61 L10.79 113.83 L0 109.62 L0 107.18 Z" class="st17"/>
					<path d="M0 107.18 L10.79 111.61 L10.79 113.83" class="st18"/>
					<path d="" class="st18"/>
					<path d="" class="st18"/>
					<path d="M0 108.07 L10.79 112.5" class="st18"/>
				</g>
				<g id="shape30-97" v:mID="30" v:groupContext="shape" transform="translate(0,-3.10241)">
					<title>Foglio.30</title>
					<path d="M0 107.18 L0 109.62 L10.79 113.83" class="st19"/>
				</g>
			</g>
			<g id="shape31-101" v:mID="31" v:groupContext="shape" transform="translate(-16.7218,-15.242) rotate(-30)">
				<title>Foglio.31</title>
				<ellipse cx="0.738335" cy="112.841" rx="0.738335" ry="0.987648" class="st20"/>
			</g>
			<g id="shape32-105" v:mID="32" v:groupContext="shape" transform="translate(26.8603,-32.8363)">
				<title>Foglio.32</title>
				<path d="M0.66 104.15 L0.66 87.27 L0 86.61 A38.2602 38.0125 -90.48 0 0 15.63 95.92 L15.63 113.83 L15.63 113.03 A48.3316
							 48.0188 91.46 0 1 0.66 104.15 Z" class="st21"/>
			</g>
		</g>
		<g id="shape34-113" v:mID="34" v:groupContext="shape" transform="translate(120.484,-90.4315)">
			<title>Foglio.34</title>
			<desc>Remote Interface</desc>
			<v:textBlock v:margins="rect(4,4,4,4)" v:tabSpace="42.5197"/>
			<v:textRect cx="41.811" cy="102.49" width="83.63" height="22.6772"/>
			<rect x="0" y="91.1515" width="83.622" height="22.6772" class="st4"/>
			<text x="11.13" y="104.89" class="st5" v:langID="1040"><v:paragraph v:horizAlign="1"/><v:tabList/>Remote Interface</text>		</g>
		<g id="shape36-116" v:mID="36" v:groupContext="shape" transform="translate(126.862,-67.7543)">
			<title>Foglio.36</title>
			<desc>deposit()</desc>
			<v:textBlock v:margins="rect(4,4,4,4)" v:tabSpace="42.5197"/>
			<v:textRect cx="41.811" cy="106.614" width="83.63" height="14.4283"/>
			<rect x="0" y="99.4003" width="83.622" height="14.4283" class="st4"/>
			<text x="26.25" y="109.01" class="st5" v:langID="1040"><v:paragraph v:horizAlign="1"/><v:tabList/>deposit()</text>		</g>
		<g id="shape33-119" v:mID="33" v:groupContext="shape" transform="translate(126.862,-56.4157)">
			<title>Foglio.33</title>
			<desc>credit()</desc>
			<v:textBlock v:margins="rect(4,4,4,4)" v:tabSpace="42.5197"/>
			<v:textRect cx="41.811" cy="108.159" width="83.63" height="11.3386"/>
			<rect x="0" y="102.49" width="83.622" height="11.3386" class="st4"/>
			<text x="29.37" y="110.56" class="st5" v:langID="1040"><v:paragraph v:horizAlign="1"/><v:tabList/>credit()</text>		</g>
		<g id="shape38-122" v:mID="38" v:groupContext="shape" transform="translate(248.751,-19.5654)">
			<title>Foglio.38</title>
			<rect x="0" y="20.2854" width="100.63" height="93.5433" class="st1"/>
		</g>
		<g id="shape39-124" v:mID="39" v:groupContext="shape" transform="translate(247.334,-90.4315)">
			<title>Foglio.39</title>
			<desc>BankAccountBean</desc>
			<v:textBlock v:margins="rect(4,4,4,4)" v:tabSpace="42.5197"/>
			<v:textRect cx="39.685" cy="102.49" width="79.38" height="22.6772"/>
			<rect x="0" y="91.1515" width="79.3701" height="22.6772" class="st4"/>
			<text x="6.77" y="104.89" class="st5" v:langID="1040"><v:paragraph v:horizAlign="1"/><v:tabList/>BankAccountBean</text>		</g>
		<g id="shape1-127" v:mID="1" v:groupContext="shape" transform="translate(230.994,-30.3977) rotate(-30)">
			<title>Foglio.1</title>
			<ellipse cx="18.6001" cy="102.314" rx="18.6001" ry="11.5144" class="st22"/>
		</g>
		<g id="shape2-129" v:mID="2" v:groupContext="shape" transform="translate(227.948,-38.1512) rotate(-29.3825)">
			<title>Foglio.2</title>
			<path d="M0 109.66 C1.98 110.97 4.12 112.74 7.25 113.49 C8.3 113.74 9.47 113.88 10.53 113.81 C12.86 113.66 14.7 112.52
						 16.44 111.44 C18.82 109.97 21.02 108.63 24.2 107.99 C26.26 107.58 28.73 107.47 30.75 107.75 C33.36 108.1
						 35.23 109.09 37.13 109.66" class="st23"/>
		</g>
	</g>
</svg>
