<?xml version="1.0" encoding="UTF-8" standalone="no"?>
<!DOCTYPE svg PUBLIC "-//W3C//DTD SVG 1.0//EN" "http://www.w3.org/TR/2001/REC-SVG-20010904/DTD/svg10.dtd">
<!-- Generato da Microsoft Visio 11.0, SVG Export, v1.0 jakartaeett_dt_057.svg Pagina 1 -->
<svg xmlns="http://www.w3.org/2000/svg" xmlns:v="http://schemas.microsoft.com/visio/2003/SVGExtensions/" width="7.02787in"
		height="6.90976in" viewBox="0 0 506.007 497.503" xml:space="preserve" color-interpolation-filters="sRGB" class="st9">
	<v:documentProperties v:langID="1040" v:metric="true" v:viewMarkup="false">
		<v:userDefs>
			<v:ud v:nameU="MBSAAvail" v:prompt="" v:val="VT0(2):26"/>
			<v:ud v:nameU="MBSAAddinEnabled" v:prompt="" v:val="VT0(2):26"/>
			<v:ud v:nameU="MBSAAddinOutlineVisible" v:prompt="" v:val="VT0(1):26"/>
		</v:userDefs>
	</v:documentProperties>

	<style type="text/css">
	<![CDATA[
		.st1 {fill:#ffffff;stroke:none;stroke-linecap:round;stroke-linejoin:round;stroke-width:0.72}
		.st2 {fill:#c8d6e6;stroke:#000000;stroke-linecap:round;stroke-linejoin:round;stroke-width:0.72}
		.st3 {fill:none;stroke:none;stroke-linecap:round;stroke-linejoin:round;stroke-width:0.72}
		.st4 {fill:#000000;font-family:Arial;font-size:0.666664em}
		.st5 {fill:#f2f2f2;stroke:#000000;stroke-linecap:round;stroke-linejoin:round;stroke-width:0.72}
		.st6 {fill:#000000;stroke:#000000;stroke-linecap:round;stroke-linejoin:round;stroke-width:0.72}
		.st7 {stroke:#000000;stroke-linecap:round;stroke-linejoin:round;stroke-width:0.72}
		.st8 {font-size:1em}
		.st9 {fill:none;fill-rule:evenodd;font-size:12;overflow:visible;stroke-linecap:square;stroke-miterlimit:3}
	]]>
	</style>

	<g v:mID="0" v:index="1" v:groupContext="foregroundPage">
		<title>Pagina 1</title>
		<v:pageProperties v:drawingScale="0.0393701" v:pageScale="0.0393701" v:drawingUnits="24" v:shadowOffsetX="8.50394"
				v:shadowOffsetY="-8.50394"/>
		<g id="shape4-1" v:mID="4" v:groupContext="shape" transform="translate(0.72,-0.72)">
			<title>Foglio.4</title>
			<rect x="0" y="1.44" width="504.567" height="496.063" class="st1"/>
		</g>
		<g id="shape5-3" v:mID="5" v:groupContext="shape" transform="translate(9.22394,-196.842)">
			<title>Foglio.5</title>
			<rect x="0" y="420.507" width="473.386" height="76.9961" class="st2"/>
		</g>
		<g id="shape139-5" v:mID="139" v:groupContext="shape" transform="translate(9.22394,-382.476)">
			<title>Foglio.139</title>
			<rect x="0" y="388.865" width="470.551" height="108.638" class="st2"/>
		</g>
		<g id="shape9-7" v:mID="9" v:groupContext="shape" transform="translate(9.22394,-472.334)">
			<title>Foglio.9</title>
			<desc>traffic-war</desc>
			<v:textBlock v:margins="rect(4,4,4,4)" v:tabSpace="42.5197"/>
			<v:textRect cx="211.181" cy="490.062" width="422.37" height="14.8819"/>
			<rect x="0" y="482.621" width="422.362" height="14.8819" class="st3"/>
			<text x="193.62" y="492.46" class="st4" v:langID="1040"><v:paragraph v:horizAlign="1"/><v:tabList/>traffic-war</text>		</g>
		<g id="shape11-10" v:mID="11" v:groupContext="shape" transform="translate(63.0822,-386.232)">
			<title>Foglio.11</title>
			<rect x="0" y="414.802" width="137.48" height="82.7008" class="st5"/>
		</g>
		<g id="shape12-12" v:mID="12" v:groupContext="shape" transform="translate(65.9169,-451.429)">
			<title>Foglio.12</title>
			<desc>traffic.war</desc>
			<v:textBlock v:margins="rect(4,4,4,4)" v:tabSpace="42.5197"/>
			<v:textRect cx="60.9449" cy="488.751" width="121.89" height="17.5039"/>
			<rect x="0" y="479.999" width="121.89" height="17.5039" class="st3"/>
			<text x="43.61" y="491.15" class="st4" v:langID="1040"><v:paragraph v:horizAlign="1"/><v:tabList/>traffic.war</text>		</g>
		<g id="shape132-15" v:mID="132" v:groupContext="shape" transform="translate(14.8932,-202.511)">
			<title>Foglio.132</title>
			<rect x="0" y="443.645" width="134.646" height="53.8583" class="st5"/>
		</g>
		<g id="shape133-17" v:mID="133" v:groupContext="shape" transform="translate(14.8932,-240.779)">
			<title>Foglio.133</title>
			<desc>trafficmdb</desc>
			<v:textBlock v:margins="rect(4,4,4,4)" v:tabSpace="42.5197"/>
			<v:textRect cx="53.4474" cy="490.416" width="106.9" height="14.1732"/>
			<rect x="0" y="483.33" width="106.895" height="14.1732" class="st3"/>
			<text x="35.89" y="492.82" class="st4" v:langID="1040"><v:paragraph v:horizAlign="1"/><v:tabList/>trafficmdb</text>		</g>
		<g id="shape135-20" v:mID="135" v:groupContext="shape" transform="translate(136.783,-389.917) scale(-1,1)">
			<title>Foglio.135</title>
			<path d="M5.67 497.5 L0 497.5 L2.83 487.87 L5.67 497.5 Z" class="st6"/>
		</g>
		<g id="shape136-22" v:mID="136" v:groupContext="shape" transform="translate(-363.555,125.444) rotate(-90)">
			<title>Foglio.136</title>
			<path d="M0 497.5 L25.51 497.5" class="st7"/>
		</g>
		<g id="shape137-25" v:mID="137" v:groupContext="shape" transform="translate(112.689,-308.279)">
			<title>Foglio.137</title>
			<ellipse cx="21.2598" cy="476.243" rx="21.2598" ry="21.2598" class="st5"/>
		</g>
		<g id="shape138-27" v:mID="138" v:groupContext="shape" transform="translate(114.106,-319.618)">
			<title>Foglio.138</title>
			<desc>JMS Topic</desc>
			<v:textBlock v:margins="rect(4,4,4,4)" v:tabSpace="42.5197"/>
			<v:textRect cx="17.0079" cy="486.873" width="34.02" height="21.2598"/>
			<rect x="0" y="476.243" width="34.0157" height="21.2598" class="st3"/>
			<text x="9.01" y="484.47" class="st4" v:langID="1040"><v:paragraph v:horizAlign="1"/><v:tabList/>JMS <v:newlineChar/><tspan
						x="7.23" dy="1.2em" class="st8">Topic</tspan></text>		</g>
		<g id="shape140-31" v:mID="140" v:groupContext="shape" transform="translate(71.5861,-428.751)">
			<title>Foglio.140</title>
			<rect x="0" y="474.826" width="121.89" height="22.6772" class="st2"/>
		</g>
		<g id="shape141-33" v:mID="141" v:groupContext="shape" transform="translate(71.5861,-428.751)">
			<title>Foglio.141</title>
			<desc>TrafficEndpoint.java</desc>
			<v:textBlock v:margins="rect(4,4,4,4)" v:tabSpace="42.5197"/>
			<v:textRect cx="46.7717" cy="486.253" width="93.55" height="22.5"/>
			<rect x="0" y="475.003" width="93.5433" height="22.5" class="st3"/>
			<text x="11.42" y="488.65" class="st4" v:langID="1040"><v:paragraph v:horizAlign="1"/><v:tabList/>TrafficEndpoint.java</text>		</g>
		<g id="shape142-36" v:mID="142" v:groupContext="shape" transform="translate(71.5861,-400.405)">
			<title>Foglio.142</title>
			<rect x="0" y="474.826" width="122.598" height="22.6772" class="st2"/>
		</g>
		<g id="shape143-38" v:mID="143" v:groupContext="shape" transform="translate(80.8533,-400.405)">
			<title>Foglio.143</title>
			<desc>WebMDB.java</desc>
			<v:textBlock v:margins="rect(4,4,4,4)" v:tabSpace="42.5197"/>
			<v:textRect cx="36.4688" cy="486.253" width="72.94" height="22.5"/>
			<rect x="0" y="475.003" width="72.9376" height="22.5" class="st3"/>
			<text x="10.91" y="488.65" class="st4" v:langID="1040"><v:paragraph v:horizAlign="1"/><v:tabList/>WebMDB.java</text>		</g>
		<g id="shape144-41" v:mID="144" v:groupContext="shape" transform="translate(301.192,-386.232)">
			<title>Foglio.144</title>
			<rect x="0" y="415.298" width="172.913" height="82.2047" class="st5"/>
		</g>
		<g id="shape145-43" v:mID="145" v:groupContext="shape" transform="translate(295.523,-452.846)">
			<title>Foglio.145</title>
			<desc>Web Pages</desc>
			<v:textBlock v:margins="rect(4,4,4,4)" v:tabSpace="42.5197"/>
			<v:textRect cx="80.0787" cy="490.416" width="160.16" height="14.1732"/>
			<rect x="0" y="483.33" width="160.157" height="14.1732" class="st3"/>
			<text x="59.4" y="492.82" class="st4" v:langID="1040"><v:paragraph v:horizAlign="1"/><v:tabList/>Web Pages</text>		</g>
		<g id="shape147-46" v:mID="147" v:groupContext="shape" transform="translate(308.279,-428.751)">
			<title>Foglio.147</title>
			<rect x="0" y="474.826" width="160.157" height="22.6772" class="st2"/>
		</g>
		<g id="shape148-48" v:mID="148" v:groupContext="shape" transform="translate(310.332,-428.751)">
			<title>Foglio.148</title>
			<desc>index.xhtml</desc>
			<v:textBlock v:margins="rect(4,4,4,4)" v:tabSpace="42.5197"/>
			<v:textRect cx="65.5875" cy="486.253" width="131.18" height="22.5"/>
			<rect x="0" y="475.003" width="131.175" height="22.5" class="st3"/>
			<text x="45.36" y="488.65" class="st4" v:langID="1040"><v:paragraph v:horizAlign="1"/><v:tabList/>index.xhtml</text>		</g>
		<g id="shape146-51" v:mID="146" v:groupContext="shape" transform="translate(-294.389,55.1452) rotate(-90) scale(-1,1)">
			<title>Foglio.146</title>
			<path d="M5.67 497.5 L0 497.5 L2.83 487.87 L5.67 497.5 Z" class="st6"/>
		</g>
		<g id="shape149-53" v:mID="149" v:groupContext="shape" transform="translate(212.468,555.483) rotate(180)">
			<title>Foglio.149</title>
			<path d="M0 497.5 L17.01 497.5" class="st7"/>
		</g>
		<g id="shape150-56" v:mID="150" v:groupContext="shape" transform="translate(308.279,555.483) rotate(180)">
			<title>Foglio.150</title>
			<path d="M0 497.5 L41.1 497.5" class="st7"/>
		</g>
		<g id="shape151-59" v:mID="151" v:groupContext="shape" transform="translate(210.484,-435.307)">
			<title>Foglio.151</title>
			<desc>Accesses</desc>
			<v:textBlock v:margins="rect(4,4,4,4)" v:tabSpace="42.5197"/>
			<v:textRect cx="22.5496" cy="492.985" width="45.1" height="9.03543"/>
			<rect x="0" y="488.468" width="45.0992" height="9.03543" class="st3"/>
			<text x="5.43" y="495.39" class="st4" v:langID="1040"><v:paragraph v:horizAlign="1"/><v:tabList/>Accesses</text>		</g>
		<g id="shape152-62" v:mID="152" v:groupContext="shape" transform="translate(559.451,60.2476) rotate(90) scale(-1,1)">
			<title>Foglio.152</title>
			<path d="M5.67 497.5 L0 497.5 L2.83 487.87 L5.67 497.5 Z" class="st6"/>
		</g>
		<g id="shape153-64" v:mID="153" v:groupContext="shape" transform="translate(40.405,-440.09)">
			<title>Foglio.153</title>
			<path d="M0 497.5 L29.2 497.5" class="st7"/>
		</g>
		<g id="shape154-67" v:mID="154" v:groupContext="shape" transform="translate(71.5861,583.262) rotate(180)">
			<title>Foglio.154</title>
			<path d="M0 497.5 L31.18 497.5" class="st7"/>
		</g>
		<g id="shape155-70" v:mID="155" v:groupContext="shape" transform="translate(14.8932,-420.248)">
			<title>Foglio.155</title>
			<desc>Invokes</desc>
			<v:textBlock v:margins="rect(4,4,4,4)" v:tabSpace="42.5197"/>
			<v:textRect cx="22.5496" cy="492.985" width="45.1" height="9.03543"/>
			<rect x="0" y="488.468" width="45.0992" height="9.03543" class="st3"/>
			<text x="8.76" y="495.39" class="st4" v:langID="1040"><v:paragraph v:horizAlign="1"/><v:tabList/>Invokes</text>		</g>
		<g id="shape156-73" v:mID="156" v:groupContext="shape" transform="translate(537.908,57.4129) rotate(90)">
			<title>Foglio.156</title>
			<path d="M0 497.5 L9.66 497.5" class="st7"/>
		</g>
		<g id="shape157-76" v:mID="157" v:groupContext="shape" transform="translate(537.908,78.5027) rotate(90)">
			<title>Foglio.157</title>
			<path d="M0 497.5 L7.26 497.5" class="st7"/>
		</g>
		<g id="shape158-79" v:mID="158" v:groupContext="shape" transform="translate(95.5531,-363.023)">
			<title>Foglio.158</title>
			<desc>Sends Updates</desc>
			<v:textBlock v:margins="rect(4,4,4,4)" v:tabSpace="42.5197"/>
			<v:textRect cx="38.3953" cy="492.985" width="76.8" height="9.03543"/>
			<rect x="0" y="488.468" width="76.7906" height="9.03543" class="st3"/>
			<text x="11.04" y="495.39" class="st4" v:langID="1040"><v:paragraph v:horizAlign="1"/><v:tabList/>Sends Updates</text>		</g>
		<g id="shape159-82" v:mID="159" v:groupContext="shape" transform="translate(631.451,137.049) rotate(90)">
			<title>Foglio.159</title>
			<path d="M0 497.5 L9.66 497.5" class="st7"/>
		</g>
		<g id="shape160-85" v:mID="160" v:groupContext="shape" transform="translate(136.528,-297.791) scale(-1,1)">
			<title>Foglio.160</title>
			<path d="M5.67 497.5 L0 497.5 L2.83 487.87 L5.67 497.5 Z" class="st6"/>
		</g>
		<g id="shape161-87" v:mID="161" v:groupContext="shape" transform="translate(-363.81,206.232) rotate(-90)">
			<title>Foglio.161</title>
			<path d="M0 497.5 L14.17 497.5" class="st7"/>
		</g>
		<g id="shape162-90" v:mID="162" v:groupContext="shape" transform="translate(99.805,-279.667)">
			<title>Foglio.162</title>
			<desc>Publishes to</desc>
			<v:textBlock v:margins="rect(4,4,4,4)" v:tabSpace="42.5197"/>
			<v:textRect cx="31.3087" cy="492.985" width="62.62" height="9.03543"/>
			<rect x="0" y="488.468" width="62.6173" height="9.03543" class="st3"/>
			<text x="9.52" y="495.39" class="st4" v:langID="1040"><v:paragraph v:horizAlign="1"/><v:tabList/>Publishes to</text>		</g>
		<g id="shape163-93" v:mID="163" v:groupContext="shape" transform="translate(631.196,218.988) rotate(90)">
			<title>Foglio.163</title>
			<path d="M0 497.5 L41.99 497.5" class="st7"/>
		</g>
		<g id="shape8-96" v:mID="8" v:groupContext="shape" transform="translate(122.61,-206.196) scale(-1,1)">
			<title>Foglio.8</title>
			<path d="M5.67 497.5 L0 497.5 L2.83 487.87 L5.67 497.5 Z" class="st6"/>
		</g>
		<g id="shape10-98" v:mID="10" v:groupContext="shape" transform="translate(-377.728,309.165) rotate(-90)">
			<title>Foglio.10</title>
			<path d="M0 497.5 L25.51 497.5" class="st7"/>
		</g>
		<g id="shape13-101" v:mID="13" v:groupContext="shape" transform="translate(20.5625,-216.685)">
			<title>Foglio.13</title>
			<rect x="0" y="474.826" width="122.598" height="22.6772" class="st2"/>
		</g>
		<g id="shape14-103" v:mID="14" v:groupContext="shape" transform="translate(29.8296,-216.685)">
			<title>Foglio.14</title>
			<desc>TrafficMdb.java</desc>
			<v:textBlock v:margins="rect(4,4,4,4)" v:tabSpace="42.5197"/>
			<v:textRect cx="43.5554" cy="486.253" width="87.12" height="22.5"/>
			<rect x="0" y="475.003" width="87.1108" height="22.5" class="st3"/>
			<text x="16.21" y="488.65" class="st4" v:langID="1040"><v:paragraph v:horizAlign="1"/><v:tabList/>TrafficMdb.java</text>		</g>
		<g id="shape15-106" v:mID="15" v:groupContext="shape" transform="translate(9.22394,-256.37)">
			<title>Foglio.15</title>
			<desc>traffic-ejb</desc>
			<v:textBlock v:margins="rect(4,4,4,4)" v:tabSpace="42.5197"/>
			<v:textRect cx="212.598" cy="488.999" width="425.2" height="17.0079"/>
			<rect x="0" y="480.495" width="425.197" height="17.0079" class="st3"/>
			<text x="196.15" y="491.4" class="st4" v:langID="1040"><v:paragraph v:horizAlign="1"/><v:tabList/>traffic-ejb</text>		</g>
		<g id="shape16-109" v:mID="16" v:groupContext="shape" transform="translate(-343.712,266.946) rotate(-90) scale(-1,1)">
			<title>Foglio.16</title>
			<path d="M5.67 497.5 L0 497.5 L2.83 487.87 L5.67 497.5 Z" class="st6"/>
		</g>
		<g id="shape17-111" v:mID="17" v:groupContext="shape" transform="translate(386.232,767.284) rotate(180)">
			<title>Foglio.17</title>
			<path d="M0 497.5 L243.07 497.5" class="st7"/>
		</g>
		<g id="shape18-114" v:mID="18" v:groupContext="shape" transform="translate(493.948,767.284) rotate(180)">
			<title>Foglio.18</title>
			<path d="M0 497.5 L53.86 497.5" class="st7"/>
		</g>
		<g id="shape19-117" v:mID="19" v:groupContext="shape" transform="translate(383.652,-219.519)">
			<title>Foglio.19</title>
			<desc>Invokes Methods</desc>
			<v:textBlock v:margins="rect(4,4,4,4)" v:tabSpace="42.5197"/>
			<v:textRect cx="22.5496" cy="489.575" width="45.1" height="15.8563"/>
			<rect x="0" y="481.647" width="45.0992" height="15.8563" class="st3"/>
			<text x="8.76" y="487.18" class="st4" v:langID="1040"><v:paragraph v:horizAlign="1"/><v:tabList/>Invokes <tspan
						x="7.21" dy="1.2em" class="st8">Methods</tspan></text>		</g>
		<g id="shape20-121" v:mID="20" v:groupContext="shape" transform="translate(-397.57,326.704) rotate(-90)">
			<title>Foglio.20</title>
			<path d="M0 497.5 L45.89 497.5" class="st7"/>
		</g>
		<g id="shape22-124" v:mID="22" v:groupContext="shape" transform="translate(-417.413,334.574) rotate(-90)">
			<title>Foglio.22</title>
			<path d="M0 497.5 L53.76 497.5" class="st7"/>
		</g>
		<g id="shape1-127" v:mID="1" v:groupContext="shape" transform="translate(9.22394,-26.2318)">
			<title>Foglio.1</title>
			<rect x="0" y="395.456" width="476.22" height="102.047" class="st2"/>
		</g>
		<g id="shape2-129" v:mID="2" v:groupContext="shape" transform="translate(10.6413,-109.5)">
			<title>Foglio.2</title>
			<desc>traffic-rar</desc>
			<v:textBlock v:margins="rect(4,4,4,4)" v:tabSpace="42.5197"/>
			<v:textRect cx="210.472" cy="490.062" width="420.95" height="14.8819"/>
			<rect x="0" y="482.621" width="420.945" height="14.8819" class="st3"/>
			<text x="194.47" y="492.46" class="st4" v:langID="1040"><v:paragraph v:horizAlign="1"/><v:tabList/>traffic-rar</text>		</g>
		<g id="shape3-132" v:mID="3" v:groupContext="shape" transform="translate(15.7436,-31.9011)">
			<title>Foglio.3</title>
			<rect x="0" y="423.306" width="137.48" height="74.1969" class="st5"/>
		</g>
		<g id="shape6-134" v:mID="6" v:groupContext="shape" transform="translate(18.5783,-88.594)">
			<title>Foglio.6</title>
			<desc>traffic.rar.api</desc>
			<v:textBlock v:margins="rect(4,4,4,4)" v:tabSpace="42.5197"/>
			<v:textRect cx="53.8583" cy="488.751" width="107.72" height="17.5039"/>
			<rect x="0" y="479.999" width="107.717" height="17.5039" class="st3"/>
			<text x="31.63" y="491.15" class="st4" v:langID="1040"><v:paragraph v:horizAlign="1"/><v:tabList/>traffic.rar.api</text>		</g>
		<g id="shape7-137" v:mID="7" v:groupContext="shape" transform="translate(77.2554,878.491) scale(1,-1)">
			<title>Foglio.7</title>
			<path d="M5.67 497.5 L0 497.5 L2.83 487.87 L5.67 497.5 Z" class="st6"/>
		</g>
		<g id="shape21-139" v:mID="21" v:groupContext="shape" transform="translate(577.593,362.131) rotate(90)">
			<title>Foglio.21</title>
			<path d="M0 497.5 L28.21 497.5" class="st7"/>
		</g>
		<g id="shape23-142" v:mID="23" v:groupContext="shape" transform="translate(21.6255,-65.9169)">
			<title>Foglio.23</title>
			<rect x="0" y="474.826" width="125.765" height="22.6772" class="st2"/>
		</g>
		<g id="shape24-144" v:mID="24" v:groupContext="shape" transform="translate(21.6255,-65.9169)">
			<title>Foglio.24</title>
			<desc>TrafficCommand.java</desc>
			<v:textBlock v:margins="rect(4,4,4,4)" v:tabSpace="42.5197"/>
			<v:textRect cx="46.7717" cy="486.253" width="93.55" height="22.5"/>
			<rect x="0" y="475.003" width="93.5433" height="22.5" class="st3"/>
			<text x="8.76" y="488.65" class="st4" v:langID="1040"><v:paragraph v:horizAlign="1"/><v:tabList/>TrafficCommand.java</text>		</g>
		<g id="shape25-147" v:mID="25" v:groupContext="shape" transform="translate(21.6255,-37.5704)">
			<title>Foglio.25</title>
			<rect x="0" y="474.826" width="126.496" height="22.6772" class="st2"/>
		</g>
		<g id="shape26-149" v:mID="26" v:groupContext="shape" transform="translate(28.058,-37.5704)">
			<title>Foglio.26</title>
			<desc>TrafficListener.java</desc>
			<v:textBlock v:margins="rect(4,4,4,4)" v:tabSpace="42.5197"/>
			<v:textRect cx="43.1302" cy="486.253" width="86.27" height="22.5"/>
			<rect x="0" y="475.003" width="86.2604" height="22.5" class="st3"/>
			<text x="9.34" y="488.65" class="st4" v:langID="1040"><v:paragraph v:horizAlign="1"/><v:tabList/>TrafficListener.java</text>		</g>
		<g id="shape27-152" v:mID="27" v:groupContext="shape" transform="translate(326.704,-31.9011)">
			<title>Foglio.27</title>
			<rect x="0" y="423.802" width="153.071" height="73.7008" class="st5"/>
		</g>
		<g id="shape28-154" v:mID="28" v:groupContext="shape" transform="translate(325.287,-90.0113)">
			<title>Foglio.28</title>
			<desc>traffic.rar.inbound</desc>
			<v:textBlock v:margins="rect(4,4,4,4)" v:tabSpace="42.5197"/>
			<v:textRect cx="63.7795" cy="490.416" width="127.56" height="14.1732"/>
			<rect x="0" y="483.33" width="127.559" height="14.1732" class="st3"/>
			<text x="32.65" y="492.82" class="st4" v:langID="1040"><v:paragraph v:horizAlign="1"/><v:tabList/>traffic.rar.inbound</text>		</g>
		<g id="shape31-157" v:mID="31" v:groupContext="shape" transform="translate(159.46,-60.2476)">
			<title>Foglio.31</title>
			<rect x="0" y="451.901" width="153.071" height="45.6024" class="st5"/>
		</g>
		<g id="shape32-159" v:mID="32" v:groupContext="shape" transform="translate(166.547,-88.346)">
			<title>Foglio.32</title>
			<desc>traffic.rar</desc>
			<v:textBlock v:margins="rect(4,4,4,4)" v:tabSpace="42.5197"/>
			<v:textRect cx="58.1102" cy="488.751" width="116.23" height="17.5039"/>
			<rect x="0" y="479.999" width="116.22" height="17.5039" class="st3"/>
			<text x="42.33" y="491.15" class="st4" v:langID="1040"><v:paragraph v:horizAlign="1"/><v:tabList/>traffic.rar</text>		</g>
		<g id="shape33-162" v:mID="33" v:groupContext="shape" transform="translate(165.129,-65.6688)">
			<title>Foglio.33</title>
			<rect x="0" y="474.826" width="141.732" height="22.6772" class="st2"/>
		</g>
		<g id="shape34-164" v:mID="34" v:groupContext="shape" transform="translate(164.775,-65.6688)">
			<title>Foglio.34</title>
			<desc>TrafficResourceAdapter.java</desc>
			<v:textBlock v:margins="rect(4,4,4,4)" v:tabSpace="42.5197"/>
			<v:textRect cx="55.4528" cy="486.253" width="110.91" height="22.5"/>
			<rect x="0" y="475.003" width="110.906" height="22.5" class="st3"/>
			<text x="4.76" y="488.65" class="st4" v:langID="1040"><v:paragraph v:horizAlign="1"/><v:tabList/>TrafficResourceAdapter.java</text>		</g>
		<g id="shape29-167" v:mID="29" v:groupContext="shape" transform="translate(332.374,-65.9169)">
			<title>Foglio.29</title>
			<rect x="0" y="474.826" width="141.732" height="22.6772" class="st2"/>
		</g>
		<g id="shape30-169" v:mID="30" v:groupContext="shape" transform="translate(332.374,-65.9169)">
			<title>Foglio.30</title>
			<desc>TrafficActivationSpec.java</desc>
			<v:textBlock v:margins="rect(4,4,4,4)" v:tabSpace="42.5197"/>
			<v:textRect cx="51.9094" cy="486.253" width="103.82" height="22.5"/>
			<rect x="0" y="475.003" width="103.819" height="22.5" class="st3"/>
			<text x="5.89" y="488.65" class="st4" v:langID="1040"><v:paragraph v:horizAlign="1"/><v:tabList/>TrafficActivationSpec.java</text>		</g>
		<g id="shape35-172" v:mID="35" v:groupContext="shape" transform="translate(332.534,-37.5704)">
			<title>Foglio.35</title>
			<rect x="0" y="474.826" width="141.572" height="22.6772" class="st2"/>
		</g>
		<g id="shape36-174" v:mID="36" v:groupContext="shape" transform="translate(327.617,-37.5704)">
			<title>Foglio.36</title>
			<desc>TrafficServiceSubscriber.java</desc>
			<v:textBlock v:margins="rect(4,4,4,4)" v:tabSpace="42.5197"/>
			<v:textRect cx="58.6145" cy="486.253" width="117.23" height="22.5"/>
			<rect x="0" y="475.003" width="117.229" height="22.5" class="st3"/>
			<text x="6.6" y="488.65" class="st4" v:langID="1040"><v:paragraph v:horizAlign="1"/><v:tabList/>TrafficServiceSubscriber.java</text>		</g>
		<g id="shape37-177" v:mID="37" v:groupContext="shape" transform="translate(52.4523,-140.326)">
			<title>Foglio.37</title>
			<desc>Uses and Implements</desc>
			<v:textBlock v:margins="rect(4,4,4,4)" v:tabSpace="42.5197"/>
			<v:textRect cx="27.6378" cy="486.873" width="55.28" height="21.2598"/>
			<rect x="0" y="476.243" width="55.2756" height="21.2598" class="st3"/>
			<text x="10.74" y="484.47" class="st4" v:langID="1040"><v:paragraph v:horizAlign="1"/><v:tabList/>Uses and <tspan
						x="6.96" dy="1.2em" class="st8">Implements</tspan></text>		</g>
		<g id="shape38-181" v:mID="38" v:groupContext="shape" transform="translate(142.452,-140.326)">
			<title>Foglio.38</title>
			<desc>Activates and Configures</desc>
			<v:textBlock v:margins="rect(4,4,4,4)" v:tabSpace="42.5197"/>
			<v:textRect cx="29.7638" cy="486.873" width="59.53" height="21.2598"/>
			<rect x="0" y="476.243" width="59.5276" height="21.2598" class="st3"/>
			<text x="5.75" y="484.47" class="st4" v:langID="1040"><v:paragraph v:horizAlign="1"/><v:tabList/>Activates and <tspan
						x="10.42" dy="1.2em" class="st8">Configures</tspan></text>		</g>
		<g id="shape39-185" v:mID="39" v:groupContext="shape" transform="translate(179.303,824.207) rotate(180)">
			<title>Foglio.39</title>
			<path d="M0 497.5 L79.37 497.5" class="st7"/>
		</g>
		<g id="shape40-188" v:mID="40" v:groupContext="shape" transform="translate(676.806,326.704) rotate(90)">
			<title>Foglio.40</title>
			<path d="M0 497.5 L7.94 497.5" class="st7"/>
		</g>
		<g id="shape41-191" v:mID="41" v:groupContext="shape" transform="translate(176.468,878.916) scale(1,-1)">
			<title>Foglio.41</title>
			<path d="M5.67 497.5 L0 497.5 L2.83 487.87 L5.67 497.5 Z" class="st6"/>
		</g>
		<g id="shape42-193" v:mID="42" v:groupContext="shape" transform="translate(676.806,360.72) rotate(90)">
			<title>Foglio.42</title>
			<path d="M0 497.5 L28.21 497.5" class="st7"/>
		</g>
		<g id="shape43-196" v:mID="43" v:groupContext="shape" transform="translate(316.783,807.199) rotate(180)">
			<title>Foglio.43</title>
			<path d="M0 497.5 L197.01 497.5" class="st7"/>
		</g>
		<g id="shape44-199" v:mID="44" v:groupContext="shape" transform="translate(814.286,309.696) rotate(90)">
			<title>Foglio.44</title>
			<path d="M0 497.5 L25.51 497.5" class="st7"/>
		</g>
		<g id="shape45-202" v:mID="45" v:groupContext="shape" transform="translate(814.286,362.492) rotate(90)">
			<title>Foglio.45</title>
			<path d="M0 497.5 L57.76 497.5" class="st7"/>
		</g>
		<g id="shape46-205" v:mID="46" v:groupContext="shape" transform="translate(287.019,-139.618)">
			<title>Foglio.46</title>
			<desc>Inspects via Reflection</desc>
			<v:textBlock v:margins="rect(4,4,4,4)" v:tabSpace="42.5197"/>
			<v:textRect cx="29.7638" cy="486.873" width="59.53" height="21.2598"/>
			<rect x="0" y="476.243" width="59.5276" height="21.2598" class="st3"/>
			<text x="8.64" y="484.47" class="st4" v:langID="1040"><v:paragraph v:horizAlign="1"/><v:tabList/>Inspects via <tspan
						x="11.98" dy="1.2em" class="st8">Reflection</tspan></text>		</g>
		<g id="shape47-209" v:mID="47" v:groupContext="shape" transform="translate(332.019,917.751) rotate(180)">
			<title>Foglio.47</title>
			<path d="M0 497.5 L15.24 497.5" class="st7"/>
		</g>
		<g id="shape48-212" v:mID="48" v:groupContext="shape" transform="translate(820.239,451.429) rotate(90) scale(-1,1)">
			<title>Foglio.48</title>
			<path d="M5.67 497.5 L0 497.5 L2.83 487.87 L5.67 497.5 Z" class="st6"/>
		</g>
		<g id="shape49-214" v:mID="49" v:groupContext="shape" transform="translate(315.366,-48.909)">
			<title>Foglio.49</title>
			<path d="M0 497.5 L16.72 497.5" class="st7"/>
		</g>
		<g id="shape50-217" v:mID="50" v:groupContext="shape" transform="translate(271.429,-5.1137)">
			<title>Foglio.50</title>
			<desc>EIS sends updates to</desc>
			<v:textBlock v:margins="rect(4,4,4,4)" v:tabSpace="42.5197"/>
			<v:textRect cx="45.3543" cy="491.905" width="90.71" height="11.1969"/>
			<rect x="0" y="486.306" width="90.7087" height="11.1969" class="st3"/>
			<text x="7.33" y="494.3" class="st4" v:langID="1040"><v:paragraph v:horizAlign="1"/><v:tabList/>EIS sends updates to</text>		</g>
		<g id="shape51-220" v:mID="51" v:groupContext="shape" transform="translate(-182.137,482.61) rotate(-90)">
			<title>Foglio.51</title>
			<path d="M0 497.5 L34.02 497.5" class="st7"/>
		</g>
		<g id="shape52-223" v:mID="52" v:groupContext="shape" transform="translate(493.948,946.097) rotate(180)">
			<title>Foglio.52</title>
			<path d="M0 497.5 L19.84 497.5" class="st7"/>
		</g>
		<g id="shape53-226" v:mID="53" v:groupContext="shape" transform="translate(-3.55465,448.594) rotate(-90)">
			<title>Foglio.53</title>
			<path d="M0 497.5 L178.81 497.5" class="st7"/>
		</g>
	</g>
</svg>
