<?xml version="1.0" encoding="UTF-8" standalone="no"?>
<!DOCTYPE svg PUBLIC "-//W3C//DTD SVG 1.0//EN" "http://www.w3.org/TR/2001/REC-SVG-20010904/DTD/svg10.dtd">
<!-- Generato da Microsoft Visio 11.0, SVG Export, v1.0 jakartaeett_dt_010.svg Pagina 1 -->
<svg xmlns="http://www.w3.org/2000/svg" xmlns:v="http://schemas.microsoft.com/visio/2003/SVGExtensions/" width="4.9593in"
		height="2.77591in" viewBox="0 0 357.07 199.865" xml:space="preserve" color-interpolation-filters="sRGB" class="st9">
	<v:documentProperties v:langID="1040" v:metric="true" v:viewMarkup="false">
		<v:userDefs>
			<v:ud v:nameU="MBSAAddinOutlineVisible" v:prompt="" v:val="VT0(1):26"/>
		</v:userDefs>
	</v:documentProperties>

	<style type="text/css">
	<![CDATA[
		.st1 {fill:#ffffff;stroke:none;stroke-linecap:round;stroke-linejoin:round;stroke-width:0.72}
		.st2 {fill:#cadaa9;stroke:#000000;stroke-linecap:round;stroke-linejoin:round;stroke-width:0.72}
		.st3 {stroke:#000000;stroke-linecap:round;stroke-linejoin:round;stroke-width:0.72}
		.st4 {fill:#c8d6e6;stroke:#000000;stroke-linecap:round;stroke-linejoin:round;stroke-width:0.72}
		.st5 {fill:none;stroke:none;stroke-linecap:round;stroke-linejoin:round;stroke-width:0.72}
		.st6 {fill:#000000;font-family:Arial;font-size:0.666664em}
		.st7 {font-size:1em}
		.st8 {fill:#f2f2f2;stroke:#000000;stroke-linecap:round;stroke-linejoin:round;stroke-width:0.72}
		.st9 {fill:none;fill-rule:evenodd;font-size:12;overflow:visible;stroke-linecap:square;stroke-miterlimit:3}
	]]>
	</style>

	<g v:mID="0" v:index="1" v:groupContext="foregroundPage">
		<title>Pagina 1</title>
		<v:pageProperties v:drawingScale="0.0393701" v:pageScale="0.0393701" v:drawingUnits="24" v:shadowOffsetX="8.50394"
				v:shadowOffsetY="-8.50394"/>
		<g id="shape485-1" v:mID="485" v:groupContext="shape" transform="translate(0.72,-0.72)">
			<title>Foglio.485</title>
			<rect x="0" y="1.44" width="355.63" height="198.425" class="st1"/>
		</g>
		<g id="shape229-3" v:mID="229" v:groupContext="shape" transform="translate(13.6743,-109.854)">
			<title>Foglio.229</title>
			<rect x="0" y="172.069" width="60.7465" height="27.7959" class="st2"/>
		</g>
		<g id="shape480-5" v:mID="480" v:groupContext="shape" transform="translate(-14.8932,35.8719) rotate(-90) scale(-1,1)">
			<title>Foglio.480</title>
			<path d="M0 199.87 L13.04 199.87" class="st3"/>
		</g>
		<g id="shape483-8" v:mID="483" v:groupContext="shape" transform="translate(142.452,-163.993)">
			<title>Foglio.483</title>
			<rect x="0" y="180.023" width="85.0394" height="19.8425" class="st4"/>
		</g>
		<g id="shape484-10" v:mID="484" v:groupContext="shape" transform="translate(141.035,-163.993)">
			<title>Foglio.484</title>
			<desc>Assembly Root</desc>
			<v:textBlock v:margins="rect(4,4,4,4)" v:tabSpace="42.5197"/>
			<v:textRect cx="36.1417" cy="189.944" width="72.29" height="19.8425"/>
			<rect x="0" y="180.023" width="72.2835" height="19.8425" class="st5"/>
			<text x="9.24" y="192.34" class="st6" v:langID="1040"><v:paragraph v:horizAlign="1"/><v:tabList/>Assembly Root</text>		</g>
		<g id="shape1-13" v:mID="1" v:groupContext="shape" transform="translate(187.807,-150.956) scale(-1,1)">
			<title>Foglio.1</title>
			<path d="M0 199.87 L145.79 199.87" class="st3"/>
		</g>
		<g id="shape2-16" v:mID="2" v:groupContext="shape" transform="translate(321.035,-150.956) scale(-1,1)">
			<title>Foglio.2</title>
			<path d="M0 199.87 L133.23 199.87" class="st3"/>
		</g>
		<g id="shape3-19" v:mID="3" v:groupContext="shape" transform="translate(-157.844,48.909) rotate(-90) scale(-1,1)">
			<title>Foglio.3</title>
			<path d="M0 199.87 L13.04 199.87" class="st3"/>
		</g>
		<g id="shape4-22" v:mID="4" v:groupContext="shape" transform="translate(13.6743,-118.358)">
			<title>Foglio.4</title>
			<desc>META-INF</desc>
			<v:textBlock v:margins="rect(4,4,4,4)" v:tabSpace="42.5197"/>
			<v:textRect cx="25.5118" cy="189.944" width="51.03" height="19.8425"/>
			<rect x="0" y="180.023" width="51.0236" height="19.8425" class="st5"/>
			<text x="6.63" y="192.34" class="st6" v:langID="1040"><v:paragraph v:horizAlign="1"/><v:tabList/>META-INF</text>		</g>
		<g id="shape6-25" v:mID="6" v:groupContext="shape" transform="translate(-102.569,48.909) rotate(-90) scale(-1,1)">
			<title>Foglio.6</title>
			<path d="M0 199.87 L13.04 199.87" class="st3"/>
		</g>
		<g id="shape8-28" v:mID="8" v:groupContext="shape" transform="translate(78.6728,-109.854)">
			<title>Foglio.8</title>
			<rect x="0" y="172.369" width="45.3543" height="27.4961" class="st4"/>
		</g>
		<g id="shape5-30" v:mID="5" v:groupContext="shape" transform="translate(79.835,-114.106)">
			<title>Foglio.5</title>
			<desc>Web Module</desc>
			<v:textBlock v:margins="rect(4,4,4,4)" v:tabSpace="42.5197"/>
			<v:textRect cx="18.5528" cy="189.944" width="37.11" height="19.8425"/>
			<rect x="0" y="180.023" width="37.1055" height="19.8425" class="st5"/>
			<text x="10.33" y="187.54" class="st6" v:langID="1040"><v:paragraph v:horizAlign="1"/><v:tabList/>Web <tspan x="5.43"
						dy="1.2em" class="st7">Module</tspan></text>		</g>
		<g id="shape7-34" v:mID="7" v:groupContext="shape" transform="translate(-40.405,48.909) rotate(-90) scale(-1,1)">
			<title>Foglio.7</title>
			<path d="M0 199.87 L13.04 199.87" class="st3"/>
		</g>
		<g id="shape9-37" v:mID="9" v:groupContext="shape" transform="translate(128.279,-109.854)">
			<title>Foglio.9</title>
			<rect x="0" y="172.369" width="76.5354" height="27.4961" class="st4"/>
		</g>
		<g id="shape10-39" v:mID="10" v:groupContext="shape" transform="translate(128.86,-114.106)">
			<title>Foglio.10</title>
			<desc>Application Client Module</desc>
			<v:textBlock v:margins="rect(4,4,4,4)" v:tabSpace="42.5197"/>
			<v:textRect cx="29.1827" cy="189.944" width="58.37" height="19.8425"/>
			<rect x="0" y="180.023" width="58.3654" height="19.8425" class="st5"/>
			<text x="9.61" y="187.54" class="st6" v:langID="1040"><v:paragraph v:horizAlign="1"/><v:tabList/>Application <tspan
						x="4.73" dy="1.2em" class="st7">Client Module</tspan></text>		</g>
		<g id="shape11-43" v:mID="11" v:groupContext="shape" transform="translate(209.066,-109.854)">
			<title>Foglio.11</title>
			<rect x="0" y="172.369" width="85.3228" height="27.4961" class="st4"/>
		</g>
		<g id="shape12-45" v:mID="12" v:groupContext="shape" transform="translate(209.648,-114.106)">
			<title>Foglio.12</title>
			<desc>Resource Adapter Module</desc>
			<v:textBlock v:margins="rect(4,4,4,4)" v:tabSpace="42.5197"/>
			<v:textRect cx="33.0165" cy="189.944" width="66.04" height="19.8425"/>
			<rect x="0" y="180.023" width="66.0331" height="19.8425" class="st5"/>
			<text x="15.9" y="187.54" class="st6" v:langID="1040"><v:paragraph v:horizAlign="1"/><v:tabList/>Resource <tspan
						x="4.78" dy="1.2em" class="st7">Adapter Module</tspan></text>		</g>
		<g id="shape13-49" v:mID="13" v:groupContext="shape" transform="translate(41.7997,48.909) rotate(-90) scale(-1,1)">
			<title>Foglio.13</title>
			<path d="M0 199.87 L13.04 199.87" class="st3"/>
		</g>
		<g id="shape14-52" v:mID="14" v:groupContext="shape" transform="translate(121.17,48.909) rotate(-90) scale(-1,1)">
			<title>Foglio.14</title>
			<path d="M0 199.87 L13.04 199.87" class="st3"/>
		</g>
		<g id="shape15-55" v:mID="15" v:groupContext="shape" transform="translate(298.358,-109.854)">
			<title>Foglio.15</title>
			<rect x="0" y="172.369" width="45.3543" height="27.4961" class="st4"/>
		</g>
		<g id="shape16-57" v:mID="16" v:groupContext="shape" transform="translate(299.52,-114.106)">
			<title>Foglio.16</title>
			<desc>EJB Module</desc>
			<v:textBlock v:margins="rect(4,4,4,4)" v:tabSpace="42.5197"/>
			<v:textRect cx="17.1354" cy="189.944" width="34.28" height="19.8425"/>
			<rect x="0" y="180.023" width="34.2709" height="19.8425" class="st5"/>
			<text x="9.8" y="187.54" class="st6" v:langID="1040"><v:paragraph v:horizAlign="1"/><v:tabList/>EJB <tspan x="4.02"
						dy="1.2em" class="st7">Module</tspan></text>		</g>
		<g id="shape17-61" v:mID="17" v:groupContext="shape" transform="translate(28.4831,-49.5004)">
			<title>Foglio.17</title>
			<path d="M30.21 187.11 L22.12 147.59 L0 160.24 L8.12 199.87 L30.21 187.11 Z" class="st8"/>
		</g>
		<g id="shape18-63" v:mID="18" v:groupContext="shape" transform="translate(30.3469,-48.6501)">
			<title>Foglio.18</title>
			<path d="M30.21 187.11 L22.12 147.59 L0 160.24 L8.12 199.87 L30.21 187.11 Z" class="st8"/>
		</g>
		<g id="shape19-65" v:mID="19" v:groupContext="shape" transform="translate(32.0477,-47.8583)">
			<title>Foglio.19</title>
			<path d="M30.21 187.11 L22.12 147.59 L0 160.24 L8.12 199.87 L30.21 187.11 Z" class="st8"/>
		</g>
		<g id="shape20-67" v:mID="20" v:groupContext="shape" transform="translate(34.8823,-47.0665)">
			<title>Foglio.20</title>
			<path d="M7.09 199.87 L0 165.24 L4.77 162.53 L3.74 157.59 L21.09 147.59 L29.18 187.11 L7.09 199.87 Z" class="st8"/>
		</g>
		<g id="shape21-69" v:mID="21" v:groupContext="shape" transform="translate(217.936,198.85) rotate(116.215)">
			<title>Foglio.21</title>
			<path d="M0 199.87 L8.48 199.87" class="st3"/>
		</g>
		<g id="shape22-72" v:mID="22" v:groupContext="shape" transform="translate(-157.844,89.7302) rotate(-90) scale(-1,1)">
			<title>Foglio.22</title>
			<path d="M0 199.87 L13.04 199.87" class="st3"/>
		</g>
		<g id="shape23-75" v:mID="23" v:groupContext="shape" transform="translate(6.58772,-34.4452)">
			<title>Foglio.23</title>
			<desc>application.xml</desc>
			<v:textBlock v:margins="rect(4,4,4,4)" v:tabSpace="42.5197"/>
			<v:textRect cx="33.5622" cy="193.615" width="67.13" height="12.5008"/>
			<rect x="0" y="187.364" width="67.1244" height="12.5008" class="st5"/>
			<text x="7.11" y="196.01" class="st6" v:langID="1040"><v:paragraph v:horizAlign="1"/><v:tabList/>application.xml</text>		</g>
		<g id="shape24-78" v:mID="24" v:groupContext="shape" transform="translate(7.80661,-22.8515)">
			<title>Foglio.24</title>
			<desc>glassfish-application.xml</desc>
			<v:textBlock v:margins="rect(4,4,4,4)" v:tabSpace="42.5197"/>
			<v:textRect cx="48.8976" cy="193.615" width="97.8" height="12.5008"/>
			<rect x="0" y="187.364" width="97.7953" height="12.5008" class="st5"/>
			<text x="5.55" y="196.01" class="st6" v:langID="1040"><v:paragraph v:horizAlign="1"/><v:tabList/>glassfish-application.xml</text>		</g>
		<g id="shape25-81" v:mID="25" v:groupContext="shape" transform="translate(7.42394,-10.8964)">
			<title>Foglio.25</title>
			<desc>(optional)</desc>
			<v:textBlock v:margins="rect(4,4,4,4)" v:tabSpace="42.5197"/>
			<v:textRect cx="22.3512" cy="193.615" width="44.71" height="12.5008"/>
			<rect x="0" y="187.364" width="44.7024" height="12.5008" class="st5"/>
			<text x="5.68" y="196.01" class="st6" v:langID="1040"><v:paragraph v:horizAlign="1"/><v:tabList/>(optional)</text>		</g>
	</g>
</svg>
