<?xml version="1.0" encoding="UTF-8" standalone="no"?>
<!DOCTYPE svg PUBLIC "-//W3C//DTD SVG 1.0//EN" "http://www.w3.org/TR/2001/REC-SVG-20010904/DTD/svg10.dtd">
<!-- Generato da Microsoft Visio 11.0, SVG Export, v1.0 jakartaeett_dt_034.svg Pagina 1 -->
<svg xmlns="http://www.w3.org/2000/svg" xmlns:v="http://schemas.microsoft.com/visio/2003/SVGExtensions/" width="4.66567in"
		height="3.95701in" viewBox="0 0 335.928 284.905" xml:space="preserve" color-interpolation-filters="sRGB" class="st11">
	<v:documentProperties v:langID="1040" v:metric="true" v:viewMarkup="false">
		<v:userDefs>
			<v:ud v:nameU="MBSAAvail" v:prompt="" v:val="VT0(2):26"/>
			<v:ud v:nameU="MBSAAddinEnabled" v:prompt="" v:val="VT0(2):26"/>
			<v:ud v:nameU="MBSAAddinOutlineVisible" v:prompt="" v:val="VT0(1):26"/>
		</v:userDefs>
	</v:documentProperties>

	<style type="text/css">
	<![CDATA[
		.st1 {fill:#ffffff;stroke:none;stroke-linecap:round;stroke-linejoin:round;stroke-width:0.72}
		.st2 {fill:#c8d6e6;stroke:#000000;stroke-linecap:round;stroke-linejoin:round;stroke-width:0.72}
		.st3 {fill:none;stroke:none;stroke-linecap:round;stroke-linejoin:round;stroke-width:0.72}
		.st4 {fill:#000000;font-family:Arial;font-size:0.666664em}
		.st5 {fill:#000000;stroke:#000000;stroke-linecap:round;stroke-linejoin:round;stroke-width:0.72}
		.st6 {stroke:#000000;stroke-linecap:round;stroke-linejoin:round;stroke-width:0.72}
		.st7 {fill:#c8d6e6;stroke:none;stroke-linecap:round;stroke-linejoin:round;stroke-width:0.72}
		.st8 {font-size:1em}
		.st9 {fill:#ffffff;stroke:#000000;stroke-linecap:round;stroke-linejoin:round;stroke-width:0.72}
		.st10 {fill:#000000;font-family:Arial;font-size:0.666664em;font-weight:bold}
		.st11 {fill:none;fill-rule:evenodd;font-size:12;overflow:visible;stroke-linecap:square;stroke-miterlimit:3}
	]]>
	</style>

	<g v:mID="0" v:index="1" v:groupContext="foregroundPage">
		<title>Pagina 1</title>
		<v:pageProperties v:drawingScale="0.0393701" v:pageScale="0.0393701" v:drawingUnits="24" v:shadowOffsetX="8.50394"
				v:shadowOffsetY="-8.50394"/>
		<g id="shape36-1" v:mID="36" v:groupContext="shape" transform="translate(0.72,-0.72)">
			<title>Foglio.36</title>
			<rect x="0" y="1.44" width="334.488" height="283.465" class="st1"/>
		</g>
		<g id="shape9-3" v:mID="9" v:groupContext="shape" transform="translate(3.62924,-162.295)">
			<title>Foglio.9</title>
			<rect x="0" y="262.227" width="46.7717" height="22.6772" class="st2"/>
		</g>
		<g id="shape1-5" v:mID="1" v:groupContext="shape" transform="translate(3.62924,-162.295)">
			<title>Foglio.1</title>
			<desc>Retailer</desc>
			<v:textBlock v:margins="rect(4,4,4,4)" v:tabSpace="42.5197"/>
			<v:textRect cx="18.5528" cy="273.566" width="37.11" height="22.6772"/>
			<rect x="0" y="262.227" width="37.1055" height="22.6772" class="st3"/>
			<text x="4.77" y="275.97" class="st4" v:langID="1040"><v:paragraph v:horizAlign="1"/><v:tabList/>Retailer</text>		</g>
		<g id="shape6-8" v:mID="6" v:groupContext="shape" transform="translate(341.184,54.5783) rotate(90) scale(-1,1)">
			<title>Foglio.6</title>
			<path d="M5.67 284.9 L0 284.9 L2.83 275.27 L5.67 284.9 Z" class="st5"/>
		</g>
		<g id="shape7-10" v:mID="7" v:groupContext="shape" transform="translate(65.9169,-233.161) scale(-1,1)">
			<title>Foglio.7</title>
			<path d="M0 284.9 L39.69 284.9" class="st6"/>
		</g>
		<g id="shape8-13" v:mID="8" v:groupContext="shape" transform="translate(-258.673,51.7436) rotate(-90) scale(-1,1)">
			<title>Foglio.8</title>
			<path d="M0 284.9 L48.19 284.9" class="st6"/>
		</g>
		<g id="shape47-16" v:mID="47" v:groupContext="shape" transform="translate(65.4243,-213.191)">
			<title>Foglio.47</title>
			<path d="M0 278.82 A26.0572 20.7598 0 0 0 36.85 278.82" class="st6"/>
		</g>
		<g id="shape48-19" v:mID="48" v:groupContext="shape" transform="translate(65.4952,-213.318)">
			<title>Foglio.48</title>
			<ellipse cx="18.3543" cy="278.385" rx="18.3543" ry="6.51974" class="st2"/>
		</g>
		<g id="shape49-21" v:mID="49" v:groupContext="shape" transform="translate(65.2826,-218.988)">
			<title>Foglio.49</title>
			<rect x="0" y="256.005" width="36.9921" height="28.8993" class="st7"/>
		</g>
		<g id="shape50-23" v:mID="50" v:groupContext="shape" transform="translate(65.4243,-241.098)">
			<title>Foglio.50</title>
			<ellipse cx="18.4252" cy="277.534" rx="18.4252" ry="7.37019" class="st2"/>
		</g>
		<g id="shape51-25" v:mID="51" v:groupContext="shape" transform="translate(65.4243,-230.9)">
			<title>Foglio.51</title>
			<path d="M0 278.82 A26.0572 20.7598 0 0 0 36.85 278.82" class="st6"/>
		</g>
		<g id="shape52-28" v:mID="52" v:groupContext="shape" transform="translate(387.179,64.7382) rotate(90) scale(-1,1)">
			<title>Foglio.52</title>
			<path d="M0 284.9 L28.3 284.9" class="st6"/>
		</g>
		<g id="shape53-31" v:mID="53" v:groupContext="shape" transform="translate(350.329,64.7382) rotate(90) scale(-1,1)">
			<title>Foglio.53</title>
			<path d="M0 284.9 L28.3 284.9" class="st6"/>
		</g>
		<g id="shape54-34" v:mID="54" v:groupContext="shape" transform="translate(65.4243,-221.703)">
			<title>Foglio.54</title>
			<path d="M0 278.82 A26.0572 20.7598 0 0 0 36.85 278.82" class="st6"/>
		</g>
		<g id="shape55-37" v:mID="55" v:groupContext="shape" transform="translate(387.179,65.9169) rotate(90) scale(-1,1)">
			<title>Foglio.55</title>
			<path d="M0 284.9 L28.3 284.9" class="st6"/>
		</g>
		<g id="shape56-40" v:mID="56" v:groupContext="shape" transform="translate(350.329,65.9169) rotate(90) scale(-1,1)">
			<title>Foglio.56</title>
			<path d="M0 284.9 L28.3 284.9" class="st6"/>
		</g>
		<g id="shape57-43" v:mID="57" v:groupContext="shape" transform="translate(53.7243,-261.507)">
			<title>Foglio.57</title>
			<desc>Vendor OrderQ</desc>
			<v:textBlock v:margins="rect(4,4,4,4)" v:tabSpace="42.5197"/>
			<v:textRect cx="23.5311" cy="275.607" width="47.07" height="18.5953"/>
			<rect x="0" y="266.309" width="47.0622" height="18.5953" class="st3"/>
			<text x="10.63" y="273.21" class="st4" v:langID="1040"><v:paragraph v:horizAlign="1"/><v:tabList/>Vendor<v:newlineChar/><tspan
						x="10.2" dy="1.2em" class="st8">OrderQ</tspan></text>		</g>
		<g id="shape2-47" v:mID="2" v:groupContext="shape" transform="translate(190.149,-213.191)">
			<title>Foglio.2</title>
			<path d="M0 278.82 A26.0572 20.7598 0 0 0 36.85 278.82" class="st6"/>
		</g>
		<g id="shape3-50" v:mID="3" v:groupContext="shape" transform="translate(190.22,-213.318)">
			<title>Foglio.3</title>
			<ellipse cx="18.3543" cy="278.385" rx="18.3543" ry="6.51974" class="st2"/>
		</g>
		<g id="shape4-52" v:mID="4" v:groupContext="shape" transform="translate(190.007,-218.988)">
			<title>Foglio.4</title>
			<rect x="0" y="256.005" width="36.9921" height="28.8993" class="st7"/>
		</g>
		<g id="shape10-54" v:mID="10" v:groupContext="shape" transform="translate(190.149,-241.098)">
			<title>Foglio.10</title>
			<ellipse cx="18.4252" cy="277.534" rx="18.4252" ry="7.37019" class="st2"/>
		</g>
		<g id="shape11-56" v:mID="11" v:groupContext="shape" transform="translate(190.149,-230.9)">
			<title>Foglio.11</title>
			<path d="M0 278.82 A26.0572 20.7598 0 0 0 36.85 278.82" class="st6"/>
		</g>
		<g id="shape12-59" v:mID="12" v:groupContext="shape" transform="translate(511.904,64.7382) rotate(90) scale(-1,1)">
			<title>Foglio.12</title>
			<path d="M0 284.9 L28.3 284.9" class="st6"/>
		</g>
		<g id="shape13-62" v:mID="13" v:groupContext="shape" transform="translate(475.053,64.7382) rotate(90) scale(-1,1)">
			<title>Foglio.13</title>
			<path d="M0 284.9 L28.3 284.9" class="st6"/>
		</g>
		<g id="shape14-65" v:mID="14" v:groupContext="shape" transform="translate(190.149,-221.703)">
			<title>Foglio.14</title>
			<path d="M0 278.82 A26.0572 20.7598 0 0 0 36.85 278.82" class="st6"/>
		</g>
		<g id="shape15-68" v:mID="15" v:groupContext="shape" transform="translate(511.904,65.9169) rotate(90) scale(-1,1)">
			<title>Foglio.15</title>
			<path d="M0 284.9 L28.3 284.9" class="st6"/>
		</g>
		<g id="shape16-71" v:mID="16" v:groupContext="shape" transform="translate(475.053,65.9169) rotate(90) scale(-1,1)">
			<title>Foglio.16</title>
			<path d="M0 284.9 L28.3 284.9" class="st6"/>
		</g>
		<g id="shape17-74" v:mID="17" v:groupContext="shape" transform="translate(175.905,-261.507)">
			<title>Foglio.17</title>
			<desc>Supplier Order Topic</desc>
			<v:textBlock v:margins="rect(4,4,4,4)" v:tabSpace="42.5197"/>
			<v:textRect cx="27.7831" cy="275.607" width="55.57" height="18.5953"/>
			<rect x="0" y="266.309" width="55.5661" height="18.5953" class="st3"/>
			<text x="13.11" y="273.21" class="st4" v:langID="1040"><v:paragraph v:horizAlign="1"/><v:tabList/>Supplier<v:newlineChar/><tspan
						x="6.67" dy="1.2em" class="st8">Order Topic</tspan></text>		</g>
		<g id="shape18-78" v:mID="18" v:groupContext="shape" transform="translate(270.011,-221.822)">
			<title>Foglio.18</title>
			<rect x="0" y="262.227" width="56.6929" height="22.6772" class="st2"/>
		</g>
		<g id="shape19-80" v:mID="19" v:groupContext="shape" transform="translate(270.011,-221.822)">
			<title>Foglio.19</title>
			<desc>Supplier 1</desc>
			<v:textBlock v:margins="rect(4,4,4,4)" v:tabSpace="42.5197"/>
			<v:textRect cx="24.0945" cy="273.566" width="48.19" height="22.6772"/>
			<rect x="0" y="262.227" width="48.189" height="22.6772" class="st3"/>
			<text x="6.08" y="275.97" class="st4" v:langID="1040"><v:paragraph v:horizAlign="1"/><v:tabList/>Supplier 1</text>		</g>
		<g id="shape20-83" v:mID="20" v:groupContext="shape" transform="translate(127.57,-162.295)">
			<title>Foglio.20</title>
			<rect x="0" y="262.227" width="46.7717" height="22.6772" class="st2"/>
		</g>
		<g id="shape21-85" v:mID="21" v:groupContext="shape" transform="translate(127.57,-162.295)">
			<title>Foglio.21</title>
			<desc>Vendor</desc>
			<v:textBlock v:margins="rect(4,4,4,4)" v:tabSpace="42.5197"/>
			<v:textRect cx="18.5528" cy="273.566" width="37.11" height="22.6772"/>
			<rect x="0" y="262.227" width="37.1055" height="22.6772" class="st3"/>
			<text x="5.65" y="275.97" class="st4" v:langID="1040"><v:paragraph v:horizAlign="1"/><v:tabList/>Vendor</text>		</g>
		<g id="shape22-88" v:mID="22" v:groupContext="shape" transform="translate(65.4243,-93.1152)">
			<title>Foglio.22</title>
			<path d="M0 278.82 A26.0572 20.7598 0 0 0 36.85 278.82" class="st6"/>
		</g>
		<g id="shape23-91" v:mID="23" v:groupContext="shape" transform="translate(65.4952,-93.2428)">
			<title>Foglio.23</title>
			<ellipse cx="18.3543" cy="278.385" rx="18.3543" ry="6.51974" class="st2"/>
		</g>
		<g id="shape24-93" v:mID="24" v:groupContext="shape" transform="translate(65.2826,-98.9121)">
			<title>Foglio.24</title>
			<rect x="0" y="256.005" width="36.9921" height="28.8993" class="st7"/>
		</g>
		<g id="shape25-95" v:mID="25" v:groupContext="shape" transform="translate(65.4243,-121.022)">
			<title>Foglio.25</title>
			<ellipse cx="18.4252" cy="277.534" rx="18.4252" ry="7.37019" class="st2"/>
		</g>
		<g id="shape26-97" v:mID="26" v:groupContext="shape" transform="translate(65.4243,-110.824)">
			<title>Foglio.26</title>
			<path d="M0 278.82 A26.0572 20.7598 0 0 0 36.85 278.82" class="st6"/>
		</g>
		<g id="shape27-100" v:mID="27" v:groupContext="shape" transform="translate(387.179,184.814) rotate(90) scale(-1,1)">
			<title>Foglio.27</title>
			<path d="M0 284.9 L28.3 284.9" class="st6"/>
		</g>
		<g id="shape28-103" v:mID="28" v:groupContext="shape" transform="translate(350.329,184.814) rotate(90) scale(-1,1)">
			<title>Foglio.28</title>
			<path d="M0 284.9 L28.3 284.9" class="st6"/>
		</g>
		<g id="shape29-106" v:mID="29" v:groupContext="shape" transform="translate(65.4243,-101.628)">
			<title>Foglio.29</title>
			<path d="M0 278.82 A26.0572 20.7598 0 0 0 36.85 278.82" class="st6"/>
		</g>
		<g id="shape30-109" v:mID="30" v:groupContext="shape" transform="translate(387.179,185.992) rotate(90) scale(-1,1)">
			<title>Foglio.30</title>
			<path d="M0 284.9 L28.3 284.9" class="st6"/>
		</g>
		<g id="shape31-112" v:mID="31" v:groupContext="shape" transform="translate(350.329,185.992) rotate(90) scale(-1,1)">
			<title>Foglio.31</title>
			<path d="M0 284.9 L28.3 284.9" class="st6"/>
		</g>
		<g id="shape32-115" v:mID="32" v:groupContext="shape" transform="translate(54.5783,-69.772)">
			<title>Foglio.32</title>
			<desc>Retailer ConfirmQ</desc>
			<v:textBlock v:margins="rect(4,4,4,4)" v:tabSpace="42.5197"/>
			<v:textRect cx="23.5311" cy="275.607" width="47.07" height="18.5953"/>
			<rect x="0" y="266.309" width="47.0622" height="18.5953" class="st3"/>
			<text x="9.75" y="273.21" class="st4" v:langID="1040"><v:paragraph v:horizAlign="1"/><v:tabList/>Retailer<v:newlineChar/><tspan
						x="6.42" dy="1.2em" class="st8">ConfirmQ</tspan></text>		</g>
		<g id="shape33-119" v:mID="33" v:groupContext="shape" transform="translate(190.149,-93.1152)">
			<title>Foglio.33</title>
			<path d="M0 278.82 A26.0572 20.7598 0 0 0 36.85 278.82" class="st6"/>
		</g>
		<g id="shape34-122" v:mID="34" v:groupContext="shape" transform="translate(190.22,-93.2428)">
			<title>Foglio.34</title>
			<ellipse cx="18.3543" cy="278.385" rx="18.3543" ry="6.51974" class="st2"/>
		</g>
		<g id="shape35-124" v:mID="35" v:groupContext="shape" transform="translate(190.007,-98.9121)">
			<title>Foglio.35</title>
			<rect x="0" y="256.005" width="36.9921" height="28.8993" class="st7"/>
		</g>
		<g id="shape37-126" v:mID="37" v:groupContext="shape" transform="translate(190.149,-121.022)">
			<title>Foglio.37</title>
			<ellipse cx="18.4252" cy="277.534" rx="18.4252" ry="7.37019" class="st2"/>
		</g>
		<g id="shape38-128" v:mID="38" v:groupContext="shape" transform="translate(190.149,-110.824)">
			<title>Foglio.38</title>
			<path d="M0 278.82 A26.0572 20.7598 0 0 0 36.85 278.82" class="st6"/>
		</g>
		<g id="shape39-131" v:mID="39" v:groupContext="shape" transform="translate(511.904,184.814) rotate(90) scale(-1,1)">
			<title>Foglio.39</title>
			<path d="M0 284.9 L28.3 284.9" class="st6"/>
		</g>
		<g id="shape40-134" v:mID="40" v:groupContext="shape" transform="translate(475.053,184.814) rotate(90) scale(-1,1)">
			<title>Foglio.40</title>
			<path d="M0 284.9 L28.3 284.9" class="st6"/>
		</g>
		<g id="shape41-137" v:mID="41" v:groupContext="shape" transform="translate(190.149,-101.628)">
			<title>Foglio.41</title>
			<path d="M0 278.82 A26.0572 20.7598 0 0 0 36.85 278.82" class="st6"/>
		</g>
		<g id="shape42-140" v:mID="42" v:groupContext="shape" transform="translate(511.904,185.992) rotate(90) scale(-1,1)">
			<title>Foglio.42</title>
			<path d="M0 284.9 L28.3 284.9" class="st6"/>
		</g>
		<g id="shape43-143" v:mID="43" v:groupContext="shape" transform="translate(475.053,185.709) rotate(90) scale(-1,1)">
			<title>Foglio.43</title>
			<path d="M0 284.9 L28.02 284.9" class="st6"/>
		</g>
		<g id="shape44-146" v:mID="44" v:groupContext="shape" transform="translate(173.633,-69.772)">
			<title>Foglio.44</title>
			<desc>Vendor ConfirmQ</desc>
			<v:textBlock v:margins="rect(4,4,4,4)" v:tabSpace="42.5197"/>
			<v:textRect cx="27.7831" cy="275.607" width="55.57" height="18.5953"/>
			<rect x="0" y="266.309" width="55.5661" height="18.5953" class="st3"/>
			<text x="14.88" y="273.21" class="st4" v:langID="1040"><v:paragraph v:horizAlign="1"/><v:tabList/>Vendor<v:newlineChar/><tspan
						x="10.67" dy="1.2em" class="st8">ConfirmQ</tspan></text>		</g>
		<g id="shape45-150" v:mID="45" v:groupContext="shape" transform="translate(270.011,-101.747)">
			<title>Foglio.45</title>
			<rect x="0" y="262.227" width="56.6929" height="22.6772" class="st2"/>
		</g>
		<g id="shape46-152" v:mID="46" v:groupContext="shape" transform="translate(270.011,-101.747)">
			<title>Foglio.46</title>
			<desc>Supplier 1</desc>
			<v:textBlock v:margins="rect(4,4,4,4)" v:tabSpace="42.5197"/>
			<v:textRect cx="24.0945" cy="273.566" width="48.19" height="22.6772"/>
			<rect x="0" y="262.227" width="48.189" height="22.6772" class="st3"/>
			<text x="6.08" y="275.97" class="st4" v:langID="1040"><v:paragraph v:horizAlign="1"/><v:tabList/>Supplier 1</text>		</g>
		<g id="shape66-155" v:mID="66" v:groupContext="shape" transform="translate(63.0822,455.703) rotate(180)">
			<title>Foglio.66</title>
			<path d="M0 284.9 L36.85 284.9" class="st6"/>
		</g>
		<g id="shape67-158" v:mID="67" v:groupContext="shape" transform="translate(-258.673,170.799) rotate(-90)">
			<title>Foglio.67</title>
			<path d="M0 284.9 L48.19 284.9" class="st6"/>
		</g>
		<g id="shape68-161" v:mID="68" v:groupContext="shape" transform="translate(57.1181,-110.317)">
			<title>Foglio.68</title>
			<ellipse cx="3.69641" cy="281.116" rx="3.69641" ry="3.78882" class="st5"/>
		</g>
		<g id="shape69-163" v:mID="69" v:groupContext="shape" transform="translate(181.429,-110.563)">
			<title>Foglio.69</title>
			<rect x="0" y="277.818" width="7.08661" height="7.08661" class="st5"/>
		</g>
		<g id="shape73-165" v:mID="73" v:groupContext="shape" transform="translate(33.273,-227.492)">
			<title>Foglio.73</title>
			<ellipse cx="5.69203" cy="279.07" rx="5.69203" ry="5.83433" class="st9"/>
		</g>
		<g id="shape74-167" v:mID="74" v:groupContext="shape" transform="translate(32.2154,-227.822)">
			<title>Foglio.74</title>
			<desc>1</desc>
			<v:textBlock v:margins="rect(4,4,4,4)"/>
			<v:textRect cx="4.49727" cy="280.407" width="9" height="8.99455"/>
			<rect x="0" y="275.91" width="8.99455" height="8.99455" class="st3"/>
			<text x="4" y="282.81" class="st10" v:langID="1040"><v:paragraph v:spBefore="5" v:spAfter="5" v:bulletSize="0.166667"/><v:tabList/>1</text>		</g>
		<g id="shape75-170" v:mID="75" v:groupContext="shape" transform="translate(33.273,-108.271)">
			<title>Foglio.75</title>
			<ellipse cx="5.69203" cy="279.07" rx="5.69203" ry="5.83433" class="st9"/>
		</g>
		<g id="shape76-172" v:mID="76" v:groupContext="shape" transform="translate(31.6176,-108.678)">
			<title>Foglio.76</title>
			<desc>6</desc>
			<v:textBlock v:margins="rect(4,4,4,4)"/>
			<v:textRect cx="4.49727" cy="280.407" width="9" height="8.99455"/>
			<rect x="0" y="275.91" width="8.99455" height="8.99455" class="st3"/>
			<text x="4" y="282.81" class="st10" v:langID="1040"><v:paragraph v:spBefore="5" v:spAfter="5" v:bulletSize="0.166667"/><v:tabList/>6</text>		</g>
		<g id="shape77-175" v:mID="77" v:groupContext="shape" transform="translate(465.908,54.6608) rotate(90) scale(-1,1)">
			<title>Foglio.77</title>
			<path d="M5.67 284.9 L0 284.9 L2.83 275.27 L5.67 284.9 Z" class="st5"/>
		</g>
		<g id="shape78-177" v:mID="78" v:groupContext="shape" transform="translate(190.641,-233.078) scale(-1,1)">
			<title>Foglio.78</title>
			<path d="M0 284.9 L39.69 284.9" class="st6"/>
		</g>
		<g id="shape79-180" v:mID="79" v:groupContext="shape" transform="translate(-133.948,51.8261) rotate(-90) scale(-1,1)">
			<title>Foglio.79</title>
			<path d="M0 284.9 L48.19 284.9" class="st6"/>
		</g>
		<g id="shape80-183" v:mID="80" v:groupContext="shape" transform="translate(187.807,455.786) rotate(180)">
			<title>Foglio.80</title>
			<path d="M0 284.9 L36.85 284.9" class="st6"/>
		</g>
		<g id="shape81-186" v:mID="81" v:groupContext="shape" transform="translate(-133.948,170.881) rotate(-90)">
			<title>Foglio.81</title>
			<path d="M0 284.9 L48.19 284.9" class="st6"/>
		</g>
		<g id="shape83-189" v:mID="83" v:groupContext="shape" transform="translate(156.626,-224.657)">
			<title>Foglio.83</title>
			<ellipse cx="7.93701" cy="276.769" rx="7.93701" ry="8.13543" class="st9"/>
		</g>
		<g id="shape84-191" v:mID="84" v:groupContext="shape" transform="translate(154.956,-228.418)">
			<title>Foglio.84</title>
			<desc>2b</desc>
			<v:textBlock v:margins="rect(4,4,4,4)"/>
			<v:textRect cx="9.05544" cy="280.407" width="18.12" height="8.99455"/>
			<rect x="0" y="275.91" width="18.1109" height="8.99455" class="st3"/>
			<text x="4" y="282.81" class="st10" v:langID="1040"><v:paragraph v:spBefore="5" v:spAfter="5" v:bulletSize="0.166667"/><v:tabList/>2b</text>		</g>
		<g id="shape85-194" v:mID="85" v:groupContext="shape" transform="translate(157.997,-108.189)">
			<title>Foglio.85</title>
			<ellipse cx="5.69203" cy="279.07" rx="5.69203" ry="5.83433" class="st9"/>
		</g>
		<g id="shape86-196" v:mID="86" v:groupContext="shape" transform="translate(156.342,-108.595)">
			<title>Foglio.86</title>
			<desc>4</desc>
			<v:textBlock v:margins="rect(4,4,4,4)"/>
			<v:textRect cx="4.49727" cy="280.407" width="9" height="8.99455"/>
			<rect x="0" y="275.91" width="8.99455" height="8.99455" class="st3"/>
			<text x="4" y="282.81" class="st10" v:langID="1040"><v:paragraph v:spBefore="5" v:spAfter="5" v:bulletSize="0.166667"/><v:tabList/>4</text>		</g>
		<g id="shape87-199" v:mID="87" v:groupContext="shape" transform="translate(-172.5,173.633) rotate(-90)">
			<title>Foglio.87</title>
			<path d="M5.67 284.9 L0 284.9 L2.83 275.27 L5.67 284.9 Z" class="st5"/>
		</g>
		<g id="shape88-201" v:mID="88" v:groupContext="shape" transform="translate(107.019,-233.321)">
			<title>Foglio.88</title>
			<path d="M0 284.9 L35.43 284.9" class="st6"/>
		</g>
		<g id="shape89-204" v:mID="89" v:groupContext="shape" transform="translate(427.357,51.7436) rotate(90)">
			<title>Foglio.89</title>
			<path d="M0 284.9 L48.19 284.9" class="st6"/>
		</g>
		<g id="shape90-207" v:mID="90" v:groupContext="shape" transform="translate(105.602,455.868) scale(1,-1)">
			<title>Foglio.90</title>
			<path d="M0 284.9 L36.85 284.9" class="st6"/>
		</g>
		<g id="shape91-210" v:mID="91" v:groupContext="shape" transform="translate(427.357,170.964) rotate(90) scale(-1,1)">
			<title>Foglio.91</title>
			<path d="M0 284.9 L47.62 284.9" class="st6"/>
		</g>
		<g id="shape92-213" v:mID="92" v:groupContext="shape" transform="translate(136.783,-224.827) scale(-1,1)">
			<title>Foglio.92</title>
			<ellipse cx="7.93701" cy="276.769" rx="7.93701" ry="8.13543" class="st9"/>
		</g>
		<g id="shape93-215" v:mID="93" v:groupContext="shape" transform="translate(137.886,-228.661) scale(-1,1)">
			<title>Foglio.93</title>
			<desc>2a</desc>
			<v:textBlock v:margins="rect(4,4,4,4)"/>
			<v:textRect cx="9.05544" cy="280.407" width="18.12" height="8.99455"/>
			<rect x="0" y="275.91" width="18.1109" height="8.99455" class="st3"/>
			<text x="-14.11" y="282.81" transform="scale(-1,1)" class="st10" v:langID="1040"><v:paragraph v:spBefore="5"
						v:spAfter="5" v:bulletSize="0.166667"/><v:tabList/>2a</text>		</g>
		<g id="shape94-218" v:mID="94" v:groupContext="shape" transform="translate(135.411,-108.106) scale(-1,1)">
			<title>Foglio.94</title>
			<ellipse cx="5.69203" cy="279.07" rx="5.69203" ry="5.83433" class="st9"/>
		</g>
		<g id="shape95-220" v:mID="95" v:groupContext="shape" transform="translate(131.359,-108.513) scale(-1,1)">
			<title>Foglio.95</title>
			<desc>5</desc>
			<v:textBlock v:margins="rect(4,4,4,4)"/>
			<v:textRect cx="4.49727" cy="280.407" width="9" height="8.99455"/>
			<rect x="0" y="275.91" width="8.99455" height="8.99455" class="st3"/>
			<text x="-4.99" y="282.81" transform="scale(-1,1)" class="st10" v:langID="1040"><v:paragraph v:spBefore="5"
						v:spAfter="5" v:bulletSize="0.166667"/><v:tabList/>5</text>		</g>
		<g id="shape96-223" v:mID="96" v:groupContext="shape" transform="translate(103.606,-229.372)">
			<title>Foglio.96</title>
			<ellipse cx="3.69641" cy="281.116" rx="3.69641" ry="3.78882" class="st5"/>
		</g>
		<g id="shape82-225" v:mID="82" v:groupContext="shape" transform="translate(232.033,-232.795)">
			<title>Foglio.82</title>
			<path d="M0 284.9 L37.98 284.9" class="st6"/>
		</g>
		<g id="shape99-228" v:mID="99" v:groupContext="shape" transform="translate(228.336,-228.846)">
			<title>Foglio.99</title>
			<ellipse cx="3.69641" cy="281.116" rx="3.69641" ry="3.78882" class="st5"/>
		</g>
		<g id="shape62-230" v:mID="62" v:groupContext="shape" transform="translate(248.108,-226.925)">
			<title>Foglio.62</title>
			<ellipse cx="5.69203" cy="279.07" rx="5.69203" ry="5.83433" class="st9"/>
		</g>
		<g id="shape63-232" v:mID="63" v:groupContext="shape" transform="translate(247.334,-227.568)">
			<title>Foglio.63</title>
			<desc>3</desc>
			<v:textBlock v:margins="rect(4,4,4,4)"/>
			<v:textRect cx="4.49727" cy="280.407" width="9" height="8.99455"/>
			<rect x="0" y="275.91" width="8.99455" height="8.99455" class="st3"/>
			<text x="4" y="282.81" class="st10" v:langID="1040"><v:paragraph v:spBefore="5" v:spAfter="5" v:bulletSize="0.166667"/><v:tabList/>3</text>		</g>
		<g id="shape97-235" v:mID="97" v:groupContext="shape" transform="translate(492.849,77.0545) rotate(90)">
			<title>Foglio.97</title>
			<path d="M0 284.9 L20.04 284.9" class="st6"/>
		</g>
		<g id="shape98-238" v:mID="98" v:groupContext="shape" transform="translate(204.248,-203.901)">
			<title>Foglio.98</title>
			<ellipse cx="3.69641" cy="281.116" rx="3.69641" ry="3.78882" class="st5"/>
		</g>
		<g id="shape102-240" v:mID="102" v:groupContext="shape" transform="translate(207.944,-187.807)">
			<title>Foglio.102</title>
			<path d="M0 284.9 L88.15 284.9" class="st6"/>
		</g>
		<g id="shape103-243" v:mID="103" v:groupContext="shape" transform="translate(580.995,97.098) rotate(90)">
			<title>Foglio.103</title>
			<path d="M0 284.9 L63.38 284.9" class="st6"/>
		</g>
		<g id="shape100-246" v:mID="100" v:groupContext="shape" transform="translate(248.706,-181.972)">
			<title>Foglio.100</title>
			<ellipse cx="5.69203" cy="279.07" rx="5.69203" ry="5.83433" class="st9"/>
		</g>
		<g id="shape101-248" v:mID="101" v:groupContext="shape" transform="translate(247.932,-182.616)">
			<title>Foglio.101</title>
			<desc>3</desc>
			<v:textBlock v:margins="rect(4,4,4,4)"/>
			<v:textRect cx="4.49727" cy="280.407" width="9" height="8.99455"/>
			<rect x="0" y="275.91" width="8.99455" height="8.99455" class="st3"/>
			<text x="4" y="282.81" class="st10" v:langID="1040"><v:paragraph v:spBefore="5" v:spAfter="5" v:bulletSize="0.166667"/><v:tabList/>3</text>		</g>
		<g id="shape104-251" v:mID="104" v:groupContext="shape" transform="translate(493.407,146.905) rotate(90) scale(-1,1)">
			<title>Foglio.104</title>
			<path d="M0 284.9 L20.04 284.9" class="st6"/>
		</g>
		<g id="shape106-254" v:mID="106" v:groupContext="shape"
				transform="translate(208.464,411.766) rotate(0.00788576) scale(1,-1)">
			<title>Foglio.106</title>
			<path d="M0 284.9 L84.19 284.9" class="st6"/>
		</g>
		<g id="shape107-257" v:mID="107" v:groupContext="shape" transform="translate(587.514,126.874) rotate(90) scale(-1,1)">
			<title>Foglio.107</title>
			<path d="M0 284.9 L63.38 284.9" class="st6"/>
		</g>
		<g id="shape108-260" v:mID="108" v:groupContext="shape" transform="translate(249.537,405.945) scale(1,-1)">
			<title>Foglio.108</title>
			<ellipse cx="5.69203" cy="279.07" rx="5.69203" ry="5.83433" class="st9"/>
		</g>
		<g id="shape109-262" v:mID="109" v:groupContext="shape" transform="translate(257.255,-153.3) scale(-1,1)">
			<title>Foglio.109</title>
			<desc>3</desc>
			<v:textBlock v:margins="rect(4,4,4,4)"/>
			<v:textRect cx="4.49727" cy="280.407" width="9" height="8.99455"/>
			<rect x="0" y="275.91" width="8.99455" height="8.99455" class="st3"/>
			<text x="-4.99" y="282.81" transform="scale(-1,1)" class="st10" v:langID="1040"><v:paragraph v:spBefore="5"
						v:spAfter="5" v:bulletSize="0.166667"/><v:tabList/>3</text>		</g>
		<g id="shape105-265" v:mID="105" v:groupContext="shape" transform="translate(205.665,423.955) scale(1,-1)">
			<title>Foglio.105</title>
			<path d="M5.67 284.9 L0 284.9 L2.83 275.27 L5.67 284.9 Z" class="st5"/>
		</g>
		<g id="shape110-267" v:mID="110" v:groupContext="shape" transform="translate(298.358,-158.03)">
			<title>Foglio.110</title>
			<path d="M0 284.9 L4.25 284.9" class="st6"/>
		</g>
		<g id="shape111-270" v:mID="111" v:groupContext="shape" transform="translate(-47.7751,173.468) rotate(-90)">
			<title>Foglio.111</title>
			<path d="M5.67 284.9 L0 284.9 L2.83 275.27 L5.67 284.9 Z" class="st5"/>
		</g>
		<g id="shape112-272" v:mID="112" v:groupContext="shape" transform="translate(230.326,455.703) scale(1,-1)">
			<title>Foglio.112</title>
			<path d="M0 284.9 L39.69 284.9" class="st6"/>
		</g>
		<g id="shape113-275" v:mID="113" v:groupContext="shape" transform="translate(260.944,-108.271) scale(-1,1)">
			<title>Foglio.113</title>
			<ellipse cx="5.69203" cy="279.07" rx="5.69203" ry="5.83433" class="st9"/>
		</g>
		<g id="shape114-277" v:mID="114" v:groupContext="shape" transform="translate(256.892,-108.678) scale(-1,1)">
			<title>Foglio.114</title>
			<desc>3</desc>
			<v:textBlock v:margins="rect(4,4,4,4)"/>
			<v:textRect cx="4.49727" cy="280.407" width="9" height="8.99455"/>
			<rect x="0" y="275.91" width="8.99455" height="8.99455" class="st3"/>
			<text x="-4.99" y="282.81" transform="scale(-1,1)" class="st10" v:langID="1040"><v:paragraph v:spBefore="5"
						v:spAfter="5" v:bulletSize="0.166667"/><v:tabList/>3</text>		</g>
		<g id="shape5-280" v:mID="5" v:groupContext="shape" transform="translate(322.05,238.192) rotate(90) scale(-1,1)">
			<title>Foglio.5</title>
			<path d="M5.67 284.9 L0 284.9 L2.83 275.27 L5.67 284.9 Z" class="st5"/>
		</g>
		<g id="shape58-282" v:mID="58" v:groupContext="shape" transform="translate(46.783,-49.5468) scale(-1,1)">
			<title>Foglio.58</title>
			<path d="M0 284.9 L39.69 284.9" class="st6"/>
		</g>
		<g id="shape59-285" v:mID="59" v:groupContext="shape" transform="translate(46.5279,-41.6806)">
			<title>Foglio.59</title>
			<desc>Message Send</desc>
			<v:textBlock v:margins="rect(4,4,4,4)" v:tabSpace="42.5197"/>
			<v:textRect cx="31.3087" cy="277.038" width="62.62" height="15.7323"/>
			<rect x="0" y="269.172" width="62.6173" height="15.7323" class="st3"/>
			<text x="4.63" y="279.44" class="st4" v:langID="1040"><v:paragraph v:horizAlign="1"/><v:tabList/>Message Send</text>		</g>
		<g id="shape61-288" v:mID="61" v:groupContext="shape" transform="translate(46.783,-31.9011) scale(-1,1)">
			<title>Foglio.61</title>
			<path d="M0 284.9 L39.69 284.9" class="st6"/>
		</g>
		<g id="shape64-291" v:mID="64" v:groupContext="shape" transform="translate(46.5279,-24.035)">
			<title>Foglio.64</title>
			<desc>Message Receive</desc>
			<v:textBlock v:margins="rect(4,4,4,4)" v:tabSpace="42.5197"/>
			<v:textRect cx="36.2693" cy="277.038" width="72.54" height="15.7323"/>
			<rect x="0" y="269.172" width="72.5386" height="15.7323" class="st3"/>
			<text x="4.48" y="279.44" class="st4" v:langID="1040"><v:paragraph v:horizAlign="1"/><v:tabList/>Message Receive</text>		</g>
		<g id="shape60-294" v:mID="60" v:groupContext="shape" transform="translate(39.3902,-27.7959)">
			<title>Foglio.60</title>
			<ellipse cx="3.69641" cy="281.116" rx="3.69641" ry="3.78882" class="st5"/>
		</g>
		<g id="shape65-296" v:mID="65" v:groupContext="shape" transform="translate(39.6964,-9.15307)">
			<title>Foglio.65</title>
			<rect x="0" y="277.818" width="7.08661" height="7.08661" class="st5"/>
		</g>
		<g id="shape70-298" v:mID="70" v:groupContext="shape" transform="translate(46.0743,557.195) rotate(180)">
			<title>Foglio.70</title>
			<path d="M0 284.9 L36.85 284.9" class="st6"/>
		</g>
		<g id="shape71-301" v:mID="71" v:groupContext="shape" transform="translate(42.531,-4.19244)">
			<title>Foglio.71</title>
			<desc>Message Listen</desc>
			<v:textBlock v:margins="rect(4,4,4,4)" v:tabSpace="42.5197"/>
			<v:textRect cx="36.2693" cy="277.038" width="72.54" height="15.7323"/>
			<rect x="0" y="269.172" width="72.5386" height="15.7323" class="st3"/>
			<text x="8.25" y="279.44" class="st4" v:langID="1040"><v:paragraph v:horizAlign="1"/><v:tabList/>Message Listen</text>		</g>
	</g>
</svg>
