<?xml version="1.0" encoding="UTF-8" standalone="no"?>
<!DOCTYPE svg PUBLIC "-//W3C//DTD SVG 1.0//EN" "http://www.w3.org/TR/2001/REC-SVG-20010904/DTD/svg10.dtd">
<!-- Generato da Microsoft Visio 11.0, SVG Export, v1.0 jakartaeett_dt_035.svg Pagina 1 -->
<svg xmlns="http://www.w3.org/2000/svg" xmlns:v="http://schemas.microsoft.com/visio/2003/SVGExtensions/" width="6.80209in"
		height="2.81528in" viewBox="0 0 489.75 202.7" xml:space="preserve" color-interpolation-filters="sRGB" class="st10">
	<v:documentProperties v:langID="1040" v:metric="true" v:viewMarkup="false">
		<v:userDefs>
			<v:ud v:nameU="MBSAAvail" v:prompt="" v:val="VT0(2):26"/>
			<v:ud v:nameU="MBSAAddinEnabled" v:prompt="" v:val="VT0(2):26"/>
			<v:ud v:nameU="MBSAAddinOutlineVisible" v:prompt="" v:val="VT0(1):26"/>
		</v:userDefs>
	</v:documentProperties>

	<style type="text/css">
	<![CDATA[
		.st1 {fill:#ffffff;stroke:none;stroke-linecap:round;stroke-linejoin:round;stroke-width:0.72}
		.st2 {fill:#c8d6e6;stroke:#000000;stroke-linecap:round;stroke-linejoin:round;stroke-width:0.72}
		.st3 {fill:none;stroke:none;stroke-linecap:round;stroke-linejoin:round;stroke-width:0.72}
		.st4 {fill:#000000;font-family:Arial;font-size:0.666664em}
		.st5 {fill:#f2f2f2;stroke:#000000;stroke-linecap:round;stroke-linejoin:round;stroke-width:0.72}
		.st6 {stroke:#000000;stroke-linecap:round;stroke-linejoin:round;stroke-width:0.72}
		.st7 {fill:#000000;stroke:#000000;stroke-linecap:round;stroke-linejoin:round;stroke-width:0.72}
		.st8 {fill:#660033;stroke:#660033;stroke-linecap:round;stroke-linejoin:round;stroke-width:0.72}
		.st9 {stroke:#ffffff;stroke-linecap:round;stroke-linejoin:round;stroke-width:2.16}
		.st10 {fill:none;fill-rule:evenodd;font-size:12;overflow:visible;stroke-linecap:square;stroke-miterlimit:3}
	]]>
	</style>

	<g v:mID="0" v:index="1" v:groupContext="foregroundPage">
		<title>Pagina 1</title>
		<v:pageProperties v:drawingScale="0.0393701" v:pageScale="0.0393701" v:drawingUnits="24" v:shadowOffsetX="8.50394"
				v:shadowOffsetY="-8.50394"/>
		<g id="shape36-1" v:mID="36" v:groupContext="shape" transform="translate(4.61764,-0.72)">
			<title>Foglio.36</title>
			<rect x="0" y="1.44" width="473.386" height="201.26" class="st1"/>
		</g>
		<g id="shape48-3" v:mID="48" v:groupContext="shape" transform="translate(64.1452,-12.0586)">
			<title>Foglio.48</title>
			<rect x="0" y="18.4479" width="360" height="184.252" class="st2"/>
		</g>
		<g id="shape2-5" v:mID="2" v:groupContext="shape" transform="translate(388.712,-23.3972)">
			<title>Foglio.2</title>
			<desc>Msg</desc>
			<v:textBlock v:margins="rect(4,4,4,4)" v:tabSpace="42.5197"/>
			<v:textRect cx="15.5906" cy="194.196" width="31.19" height="17.0079"/>
			<rect x="0" y="185.692" width="31.1811" height="17.0079" class="st3"/>
			<text x="8.03" y="196.6" class="st4" v:langID="1040"><v:paragraph v:horizAlign="1"/><v:tabList/>Msg</text>		</g>
		<g id="shape20-8" v:mID="20" v:groupContext="shape" transform="translate(368.87,-27.8154)">
			<title>Foglio.20</title>
			<path d="M7.09 202.7 L0 168.07 L4.77 165.37 L3.74 160.42 L21.09 150.43 L29.18 189.94 L7.09 202.7 Z" class="st5"/>
		</g>
		<g id="shape21-10" v:mID="21" v:groupContext="shape" transform="translate(554.467,222.188) rotate(116.215)">
			<title>Foglio.21</title>
			<path d="M0 202.7 L8.48 202.7" class="st6"/>
		</g>
		<g id="shape3-13" v:mID="3" v:groupContext="shape" transform="translate(72.6491,-29.0665)">
			<title>Foglio.3</title>
			<rect x="0" y="58.1329" width="221.102" height="144.567" class="st5"/>
		</g>
		<g id="shape4-15" v:mID="4" v:groupContext="shape" transform="translate(117.649,-158.397)">
			<title>Foglio.4</title>
			<desc>Web Container</desc>
			<v:textBlock v:margins="rect(4,4,4,4)" v:tabSpace="42.5197"/>
			<v:textRect cx="35.4331" cy="195.968" width="70.87" height="13.4646"/>
			<rect x="0" y="189.235" width="70.8661" height="13.4646" class="st3"/>
			<text x="8.75" y="198.37" class="st4" v:langID="1040"><v:paragraph v:horizAlign="1"/><v:tabList/>Web Container</text>		</g>
		<g id="shape38-18" v:mID="38" v:groupContext="shape" transform="translate(158.751,-131.114) scale(-1,1)">
			<title>Foglio.38</title>
			<rect x="0" y="175.771" width="80.4295" height="26.9291" class="st2"/>
		</g>
		<g id="shape39-20" v:mID="39" v:groupContext="shape" transform="translate(157.334,-134.657) scale(-1,1)">
			<title>Foglio.39</title>
			<desc>sender.xhtml</desc>
			<v:textBlock v:margins="rect(4,4,4,4)" v:tabSpace="42.5197"/>
			<v:textRect cx="38.2677" cy="192.779" width="76.54" height="19.8425"/>
			<rect x="0" y="182.857" width="76.5354" height="19.8425" class="st3"/>
			<text x="-72.54" y="195.18" transform="scale(-1,1)" class="st4" v:langID="1040"><v:paragraph/><v:tabList/>sender.xhtml</text>		</g>
		<g id="shape49-23" v:mID="49" v:groupContext="shape" transform="translate(377.184,60.531) rotate(90) scale(-1,1)">
			<title>Foglio.49</title>
			<path d="M5.67 202.7 L0 202.7 L2.83 193.06 L5.67 202.7 Z" class="st7"/>
		</g>
		<g id="shape51-25" v:mID="51" v:groupContext="shape" transform="translate(158.893,-145.003)">
			<title>Foglio.51</title>
			<path d="M0 202.7 L24.09 202.7" class="st6"/>
		</g>
		<g id="shape50-28" v:mID="50" v:groupContext="shape" transform="translate(216.961,-179.303)">
			<title>Foglio.50</title>
			<desc>Java EE Server</desc>
			<v:textBlock v:margins="rect(4,4,4,4)" v:tabSpace="42.5197"/>
			<v:textRect cx="36.978" cy="195.968" width="73.96" height="13.4646"/>
			<rect x="0" y="189.235" width="73.9559" height="13.4646" class="st3"/>
			<text x="9.19" y="198.37" class="st4" v:langID="1040"><v:paragraph v:horizAlign="1"/><v:tabList/>Java EE Server</text>		</g>
		<g id="shape82-31" v:mID="82" v:groupContext="shape" transform="translate(387.295,-163.712)">
			<title>Foglio.82</title>
			<desc>Msg</desc>
			<v:textBlock v:margins="rect(4,4,4,4)" v:tabSpace="42.5197"/>
			<v:textRect cx="15.5906" cy="194.196" width="31.19" height="17.0079"/>
			<rect x="0" y="185.692" width="31.1811" height="17.0079" class="st3"/>
			<text x="8.03" y="196.6" class="st4" v:langID="1040"><v:paragraph v:horizAlign="1"/><v:tabList/>Msg</text>		</g>
		<g id="shape83-34" v:mID="83" v:groupContext="shape" transform="translate(368.87,-124.027)">
			<title>Foglio.83</title>
			<path d="M7.09 202.7 L0 168.07 L4.77 165.37 L3.74 160.42 L21.09 150.43 L29.18 189.94 L7.09 202.7 Z" class="st5"/>
		</g>
		<g id="shape84-36" v:mID="84" v:groupContext="shape" transform="translate(554.467,125.976) rotate(116.215)">
			<title>Foglio.84</title>
			<path d="M0 202.7 L8.48 202.7" class="st6"/>
		</g>
		<g id="shape1-39" v:mID="1" v:groupContext="shape" transform="translate(246.39,140.065) rotate(-90)">
			<title>Foglio.1</title>
			<rect x="0" y="184.275" width="62.8098" height="18.4252" rx="9.2126" ry="9.2126" class="st2"/>
		</g>
		<g id="shape9-41" v:mID="9" v:groupContext="shape" transform="translate(246.39,80.8268) rotate(-90) scale(-1,1)">
			<title>Foglio.9</title>
			<rect x="0" y="184.275" width="15.4282" height="18.4252" rx="7.71411" ry="7.71411" class="st2"/>
		</g>
		<g id="shape10-43" v:mID="10" v:groupContext="shape" transform="translate(246.39,77.2554) rotate(-90) scale(-1,1)">
			<title>Foglio.10</title>
			<rect x="0" y="184.275" width="16.5186" height="18.4252" rx="8.25929" ry="8.25929" class="st2"/>
		</g>
		<g id="shape13-45" v:mID="13" v:groupContext="shape" transform="translate(285.248,-131.114) scale(-1,1)">
			<title>Foglio.13</title>
			<rect x="0" y="175.771" width="100.984" height="26.9291" class="st2"/>
		</g>
		<g id="shape14-47" v:mID="14" v:groupContext="shape" transform="translate(260.799,-135.366) scale(-1,1)">
			<title>Foglio.14</title>
			<desc>SenderBean</desc>
			<v:textBlock v:margins="rect(4,4,4,4)" v:tabSpace="42.5197"/>
			<v:textRect cx="38.2677" cy="192.779" width="76.54" height="19.8425"/>
			<rect x="0" y="182.857" width="76.5354" height="19.8425" class="st3"/>
			<text x="-72.54" y="195.18" transform="scale(-1,1)" class="st4" v:langID="1040"><v:paragraph/><v:tabList/>SenderBean</text>		</g>
		<g id="shape11-50" v:mID="11" v:groupContext="shape" transform="translate(162.236,-104.344) rotate(-30)">
			<title>Foglio.11</title>
			<ellipse cx="12.7542" cy="194.804" rx="12.7542" ry="7.89545" class="st8"/>
		</g>
		<g id="shape12-52" v:mID="12" v:groupContext="shape" transform="translate(161.314,-110.326) rotate(-29.3825)">
			<title>Foglio.12</title>
			<path d="M0 199.84 C1.36 200.74 2.83 201.96 4.97 202.47 C5.69 202.64 6.49 202.74 7.22 202.69 C8.82 202.58 10.08 201.8
						 11.27 201.06 C12.91 200.06 14.42 199.13 16.59 198.7 C18 198.42 19.7 198.34 21.08 198.53 C22.88 198.77 24.16
						 199.45 25.46 199.84" class="st9"/>
		</g>
		<g id="shape15-55" v:mID="15" v:groupContext="shape" transform="translate(158.751,-41.1137) scale(-1,1)">
			<title>Foglio.15</title>
			<rect x="0" y="175.771" width="80.4295" height="26.9291" class="st2"/>
		</g>
		<g id="shape16-57" v:mID="16" v:groupContext="shape" transform="translate(157.334,-44.657) scale(-1,1)">
			<title>Foglio.16</title>
			<desc>receiver.xhtml</desc>
			<v:textBlock v:margins="rect(4,4,4,4)" v:tabSpace="42.5197"/>
			<v:textRect cx="38.2677" cy="192.779" width="76.54" height="19.8425"/>
			<rect x="0" y="182.857" width="76.5354" height="19.8425" class="st3"/>
			<text x="-72.54" y="195.18" transform="scale(-1,1)" class="st4" v:langID="1040"><v:paragraph/><v:tabList/>receiver.xhtml</text>		</g>
		<g id="shape17-60" v:mID="17" v:groupContext="shape" transform="translate(-34.1688,150.531) rotate(-90)">
			<title>Foglio.17</title>
			<path d="M5.67 202.7 L0 202.7 L2.83 193.06 L5.67 202.7 Z" class="st7"/>
		</g>
		<g id="shape18-62" v:mID="18" v:groupContext="shape" transform="translate(184.122,-55.0035) scale(-1,1)">
			<title>Foglio.18</title>
			<path d="M0 202.7 L24.09 202.7" class="st6"/>
		</g>
		<g id="shape19-65" v:mID="19" v:groupContext="shape" transform="translate(285.248,-41.1137) scale(-1,1)">
			<title>Foglio.19</title>
			<rect x="0" y="175.771" width="100.984" height="26.9291" class="st2"/>
		</g>
		<g id="shape22-67" v:mID="22" v:groupContext="shape" transform="translate(260.799,-45.3657) scale(-1,1)">
			<title>Foglio.22</title>
			<desc>ReceiverBean</desc>
			<v:textBlock v:margins="rect(4,4,4,4)" v:tabSpace="42.5197"/>
			<v:textRect cx="38.2677" cy="192.779" width="76.54" height="19.8425"/>
			<rect x="0" y="182.857" width="76.5354" height="19.8425" class="st3"/>
			<text x="-72.54" y="195.18" transform="scale(-1,1)" class="st4" v:langID="1040"><v:paragraph/><v:tabList/>ReceiverBean</text>		</g>
		<g id="shape23-70" v:mID="23" v:groupContext="shape" transform="translate(162.236,-14.3442) rotate(-30)">
			<title>Foglio.23</title>
			<ellipse cx="12.7542" cy="194.804" rx="12.7542" ry="7.89545" class="st8"/>
		</g>
		<g id="shape24-72" v:mID="24" v:groupContext="shape" transform="translate(161.314,-20.3262) rotate(-29.3825)">
			<title>Foglio.24</title>
			<path d="M0 199.84 C1.36 200.74 2.83 201.96 4.97 202.47 C5.69 202.64 6.49 202.74 7.22 202.69 C8.82 202.58 10.08 201.8
						 11.27 201.06 C12.91 200.06 14.42 199.13 16.59 198.7 C18 198.42 19.7 198.34 21.08 198.53 C22.88 198.77 24.16
						 199.45 25.46 199.84" class="st9"/>
		</g>
		<g id="shape5-75" v:mID="5" v:groupContext="shape" transform="translate(305.26,-45.0113)">
			<title>Foglio.5</title>
			<desc>Delivers</desc>
			<v:textBlock v:margins="rect(4,4,4,4)" v:tabSpace="42.5197"/>
			<v:textRect cx="22.8047" cy="195.968" width="45.61" height="13.4646"/>
			<rect x="0" y="189.235" width="45.6094" height="13.4646" class="st3"/>
			<text x="8.36" y="198.37" class="st4" v:langID="1040"><v:paragraph v:horizAlign="1"/><v:tabList/>Delivers</text>		</g>
		<g id="shape6-78" v:mID="6" v:groupContext="shape" transform="translate(92.6107,153.437) rotate(-90)">
			<title>Foglio.6</title>
			<path d="M5.67 202.7 L0 202.7 L2.83 193.06 L5.67 202.7 Z" class="st7"/>
		</g>
		<g id="shape8-80" v:mID="8" v:groupContext="shape" transform="translate(311.185,-52.098) scale(-1,1)">
			<title>Foglio.8</title>
			<path d="M0 202.7 L18.88 202.7" class="st6"/>
		</g>
		<g id="shape7-83" v:mID="7" v:groupContext="shape" transform="translate(369.862,-52.098) scale(-1,1)">
			<title>Foglio.7</title>
			<path d="M0 202.7 L12.33 202.7" class="st6"/>
		</g>
		<g id="shape25-86" v:mID="25" v:groupContext="shape" transform="translate(343.422,-136.074) scale(-1,1)">
			<title>Foglio.25</title>
			<desc>Sends</desc>
			<v:textBlock v:margins="rect(4,4,4,4)" v:tabSpace="42.5197"/>
			<v:textRect cx="18.489" cy="195.968" width="36.98" height="13.4646"/>
			<rect x="0" y="189.235" width="36.978" height="13.4646" class="st3"/>
			<text x="-29.83" y="198.37" transform="scale(-1,1)" class="st4" v:langID="1040"><v:paragraph v:horizAlign="1"/><v:tabList/>Sends</text>		</g>
		<g id="shape26-89" v:mID="26" v:groupContext="shape" transform="translate(563.349,62.3735) rotate(90) scale(-1,1)">
			<title>Foglio.26</title>
			<path d="M5.67 202.7 L0 202.7 L2.83 193.06 L5.67 202.7 Z" class="st7"/>
		</g>
		<g id="shape27-91" v:mID="27" v:groupContext="shape" transform="translate(344.775,-143.161)">
			<title>Foglio.27</title>
			<path d="M0 202.7 L18.88 202.7" class="st6"/>
		</g>
		<g id="shape28-94" v:mID="28" v:groupContext="shape" transform="translate(286.098,-143.161)">
			<title>Foglio.28</title>
			<path d="M0 202.7 L23.53 202.7" class="st6"/>
		</g>
		<g id="shape85-97" v:mID="85" v:groupContext="shape" transform="translate(396.6,-143.87)">
			<title>Foglio.85</title>
			<path d="M0 202.7 L42.29 202.7" class="st6"/>
		</g>
		<g id="shape86-100" v:mID="86" v:groupContext="shape" transform="translate(436.051,269.467) scale(1,-1)">
			<title>Foglio.86</title>
			<path d="M5.67 202.7 L0 202.7 L2.83 193.06 L5.67 202.7 Z" class="st7"/>
		</g>
		<g id="shape87-102" v:mID="87" v:groupContext="shape" transform="translate(641.585,59.1137) rotate(90)">
			<title>Foglio.87</title>
			<path d="M0 202.7 L17.29 202.7" class="st6"/>
		</g>
		<g id="shape88-105" v:mID="88" v:groupContext="shape" transform="translate(643.569,140.468) rotate(90)">
			<title>Foglio.88</title>
			<path d="M0 202.7 L9.35 202.7" class="st6"/>
		</g>
		<g id="shape89-108" v:mID="89" v:groupContext="shape" transform="translate(203.02,146.988) rotate(-90) scale(-1,1)">
			<title>Foglio.89</title>
			<path d="M5.67 202.7 L0 202.7 L2.83 193.06 L5.67 202.7 Z" class="st7"/>
		</g>
		<g id="shape90-110" v:mID="90" v:groupContext="shape" transform="translate(440.586,352.522) rotate(180)">
			<title>Foglio.90</title>
			<path d="M0 202.7 L45.05 202.7" class="st6"/>
		</g>
		<g id="shape91-113" v:mID="91" v:groupContext="shape" transform="translate(443.421,-96.035)">
			<title>Foglio.91</title>
			<desc>Queue</desc>
			<v:textBlock v:margins="rect(4,4,4,4)" v:tabSpace="42.5197"/>
			<v:textRect cx="22.8047" cy="195.968" width="45.61" height="13.4646"/>
			<rect x="0" y="189.235" width="45.6094" height="13.4646" class="st3"/>
			<text x="10.8" y="198.37" class="st4" v:langID="1040"><v:paragraph v:horizAlign="1"/><v:tabList/>Queue</text>		</g>
		<g id="shape92-116" v:mID="92" v:groupContext="shape" transform="translate(18.4365,-68.7515)">
			<title>Foglio.92</title>
			<desc>Browser</desc>
			<v:textBlock v:margins="rect(4,4,4,4)" v:tabSpace="42.5197"/>
			<v:textRect cx="19.8425" cy="195.613" width="39.69" height="14.1732"/>
			<rect x="0" y="188.527" width="39.685" height="14.1732" class="st3"/>
			<text x="5.17" y="198.01" class="st4" v:langID="1040"><v:paragraph v:horizAlign="1"/><v:tabList/>Browser</text>		</g>
		<g id="shape93-119" v:mID="93" v:groupContext="shape" transform="translate(-63.3793,-91.6567) rotate(-18.4349)">
			<title>Foglio.93</title>
			<path d="M0 202.7 L40.34 202.7" class="st6"/>
		</g>
		<g id="shape94-122" v:mID="94" v:groupContext="shape" transform="translate(241.688,87.8854) rotate(90)">
			<title>Foglio.94</title>
			<path d="M0 202.7 L23.39 202.7" class="st6"/>
		</g>
		<g id="shape95-125" v:mID="95" v:groupContext="shape" transform="translate(-63.3793,-89.6158) rotate(-18.4349)">
			<title>Foglio.95</title>
			<path d="M0 202.7 L40.34 202.7" class="st6"/>
		</g>
		<g id="shape96-128" v:mID="96" v:groupContext="shape" transform="translate(-35.4297,-97.5811) rotate(-18.4349)">
			<title>Foglio.96</title>
			<path d="M0 202.7 L4.3 202.7" class="st6"/>
		</g>
		<g id="shape97-131" v:mID="97" v:groupContext="shape" transform="translate(28.6696,-105.262)">
			<title>Foglio.97</title>
			<path d="M4.08 201.34 L0 202.7 L0 199.98" class="st6"/>
		</g>
		<g id="shape98-134" v:mID="98" v:groupContext="shape" transform="translate(235.451,93.3562) rotate(90)">
			<title>Foglio.98</title>
			<path d="M0 202.7 L2.72 202.7" class="st6"/>
		</g>
		<g id="shape99-137" v:mID="99" v:groupContext="shape" transform="translate(-30.299,-99.5087) rotate(-18.4349)">
			<title>Foglio.99</title>
			<path d="M0 202.7 L4.3 202.7" class="st6"/>
		</g>
		<g id="shape100-140" v:mID="100" v:groupContext="shape" transform="translate(33.8003,-107.189)">
			<title>Foglio.100</title>
			<path d="M4.08 201.34 L0 202.7 L0 199.98" class="st6"/>
		</g>
		<g id="shape101-143" v:mID="101" v:groupContext="shape" transform="translate(240.582,91.4287) rotate(90)">
			<title>Foglio.101</title>
			<path d="M0 202.7 L2.72 202.7" class="st6"/>
		</g>
		<g id="shape102-146" v:mID="102" v:groupContext="shape" transform="translate(-46.088,-94.1795) rotate(-18.4349)">
			<title>Foglio.102</title>
			<path d="M0 202.7 L4.3 202.7" class="st6"/>
		</g>
		<g id="shape103-149" v:mID="103" v:groupContext="shape" transform="translate(18.0113,-101.86)">
			<title>Foglio.103</title>
			<path d="M4.08 201.34 L0 202.7 L0 199.98" class="st6"/>
		</g>
		<g id="shape104-152" v:mID="104" v:groupContext="shape" transform="translate(224.793,96.7578) rotate(90)">
			<title>Foglio.104</title>
			<path d="M0 202.7 L2.72 202.7" class="st6"/>
		</g>
		<g id="shape105-155" v:mID="105" v:groupContext="shape" transform="translate(-40.7588,-95.8803) rotate(-18.4349)">
			<title>Foglio.105</title>
			<path d="M0 202.7 L4.3 202.7" class="st6"/>
		</g>
		<g id="shape106-158" v:mID="106" v:groupContext="shape" transform="translate(23.3405,-103.561)">
			<title>Foglio.106</title>
			<path d="M4.08 201.34 L0 202.7 L0 199.98" class="st6"/>
		</g>
		<g id="shape107-161" v:mID="107" v:groupContext="shape" transform="translate(230.122,95.057) rotate(90)">
			<title>Foglio.107</title>
			<path d="M0 202.7 L2.72 202.7" class="st6"/>
		</g>
		<g id="shape108-164" v:mID="108" v:groupContext="shape" transform="translate(-51.1903,-92.5071) rotate(-18.4349)">
			<title>Foglio.108</title>
			<path d="M0 202.7 L4.3 202.7" class="st6"/>
		</g>
		<g id="shape109-167" v:mID="109" v:groupContext="shape" transform="translate(12.909,-100.188)">
			<title>Foglio.109</title>
			<path d="M4.08 201.34 L0 202.7 L0 199.98" class="st6"/>
		</g>
		<g id="shape110-170" v:mID="110" v:groupContext="shape" transform="translate(219.691,98.4302) rotate(90)">
			<title>Foglio.110</title>
			<path d="M0 202.7 L2.72 202.7" class="st6"/>
		</g>
		<g id="shape111-173" v:mID="111" v:groupContext="shape" transform="translate(-61.962,-88.7937) rotate(-18.4349)">
			<title>Foglio.111</title>
			<path d="M0 202.7 L4.3 202.7" class="st6"/>
		</g>
		<g id="shape112-176" v:mID="112" v:groupContext="shape" transform="translate(2.13732,-96.4743)">
			<title>Foglio.112</title>
			<path d="M4.08 201.34 L0 202.7 L0 199.98" class="st6"/>
		</g>
		<g id="shape113-179" v:mID="113" v:groupContext="shape" transform="translate(208.919,102.144) rotate(90)">
			<title>Foglio.113</title>
			<path d="M0 202.7 L2.72 202.7" class="st6"/>
		</g>
		<g id="shape114-182" v:mID="114" v:groupContext="shape" transform="translate(-56.6329,-90.4945) rotate(-18.4349)">
			<title>Foglio.114</title>
			<path d="M0 202.7 L4.3 202.7" class="st6"/>
		</g>
		<g id="shape115-185" v:mID="115" v:groupContext="shape" transform="translate(7.46646,-98.1751)">
			<title>Foglio.115</title>
			<path d="M4.08 201.34 L0 202.7 L0 199.98" class="st6"/>
		</g>
		<g id="shape116-188" v:mID="116" v:groupContext="shape" transform="translate(214.248,100.443) rotate(90)">
			<title>Foglio.116</title>
			<path d="M0 202.7 L2.72 202.7" class="st6"/>
		</g>
		<g id="shape117-191" v:mID="117" v:groupContext="shape" transform="translate(203.42,100.641) rotate(90)">
			<title>Foglio.117</title>
			<path d="M0 202.7 L23.39 202.7" class="st6"/>
		</g>
		<g id="shape118-194" v:mID="118" v:groupContext="shape" transform="translate(-63.3793,-68.2709) rotate(-18.4349)">
			<title>Foglio.118</title>
			<path d="M0 202.7 L40.34 202.7" class="st6"/>
		</g>
		<g id="shape119-197" v:mID="119" v:groupContext="shape" transform="translate(77.6806,349.546) rotate(180)">
			<title>Foglio.119</title>
			<path d="M0 202.7 L63.5 202.7" class="st6"/>
		</g>
		<g id="shape120-200" v:mID="120" v:groupContext="shape" transform="translate(17.0192,-73.2869) scale(-1,1)">
			<title>Foglio.120</title>
			<path d="M5.67 202.7 L0 202.7 L2.83 193.06 L5.67 202.7 Z" class="st7"/>
		</g>
		<g id="shape121-202" v:mID="121" v:groupContext="shape" transform="translate(-188.515,146.521) rotate(-90)">
			<title>Foglio.121</title>
			<path d="M0 202.7 L19.8 202.7" class="st6"/>
		</g>
		<g id="shape122-205" v:mID="122" v:groupContext="shape" transform="translate(-188.515,94.8302) rotate(-90)">
			<title>Foglio.122</title>
			<path d="M0 202.7 L37.42 202.7" class="st6"/>
		</g>
		<g id="shape123-208" v:mID="123" v:groupContext="shape" transform="translate(271.593,60.2476) rotate(90) scale(-1,1)">
			<title>Foglio.123</title>
			<path d="M5.67 202.7 L0 202.7 L2.83 193.06 L5.67 202.7 Z" class="st7"/>
		</g>
		<g id="shape124-210" v:mID="124" v:groupContext="shape" transform="translate(15.2133,-145.287)">
			<title>Foglio.124</title>
			<path d="M0 202.7 L62.75 202.7" class="st6"/>
		</g>
	</g>
</svg>
