<?xml version="1.0" encoding="UTF-8" standalone="no"?>
<!DOCTYPE svg PUBLIC "-//W3C//DTD SVG 1.0//EN" "http://www.w3.org/TR/2001/REC-SVG-20010904/DTD/svg10.dtd">
<!-- Generato da Microsoft Visio 11.0, SVG Export, v1.0 jakartaeett_dt_045.svg Pagina 1 -->
<svg xmlns="http://www.w3.org/2000/svg" xmlns:v="http://schemas.microsoft.com/visio/2003/SVGExtensions/" width="5.33496in"
		height="2.08693in" viewBox="0 0 384.117 150.259" xml:space="preserve" color-interpolation-filters="sRGB" class="st32">
	<v:documentProperties v:langID="1040" v:metric="true" v:viewMarkup="false">
		<v:userDefs>
			<v:ud v:nameU="MBSAAvail" v:prompt="" v:val="VT0(2):26"/>
			<v:ud v:nameU="MBSAAddinEnabled" v:prompt="" v:val="VT0(2):26"/>
			<v:ud v:nameU="MBSAAddinOutlineVisible" v:prompt="" v:val="VT0(1):26"/>
		</v:userDefs>
	</v:documentProperties>

	<style type="text/css">
	<![CDATA[
		.st1 {fill:#ffffff;stroke:none;stroke-linecap:round;stroke-linejoin:round;stroke-width:0.72}
		.st2 {fill:#c8d6e6;stroke:#000000;stroke-linecap:round;stroke-linejoin:round;stroke-width:0.72}
		.st3 {fill:none;stroke:none;stroke-linecap:round;stroke-linejoin:round;stroke-width:0.72}
		.st4 {fill:#000000;font-family:Arial;font-size:0.666664em}
		.st5 {stroke:#000000;stroke-linecap:round;stroke-linejoin:round;stroke-width:0.72}
		.st6 {fill:#cadaa9;stroke:#000000;stroke-linecap:round;stroke-linejoin:round;stroke-width:0.72}
		.st7 {fill:#000000;stroke:#000000;stroke-linecap:round;stroke-linejoin:round;stroke-width:0.72}
		.st8 {fill:#ff00ff;fill-opacity:0;stroke:#000000;stroke-linecap:round;stroke-linejoin:round;stroke-opacity:0;stroke-width:0.72}
		.st9 {fill:url(#grad31-38);stroke:#ffffff;stroke-linecap:round;stroke-linejoin:round;stroke-width:0.72}
		.st10 {fill:url(#grad30-47);stroke:#ffffff;stroke-linecap:round;stroke-linejoin:round;stroke-width:0.72}
		.st11 {fill:url(#grad32-54);stroke:#000000;stroke-linecap:round;stroke-linejoin:round;stroke-width:0.72}
		.st12 {stroke:#ffffff;stroke-linecap:round;stroke-linejoin:round;stroke-width:0.72}
		.st13 {fill:url(#grad35-68);stroke:#000000;stroke-linecap:round;stroke-linejoin:round;stroke-width:0.72}
		.st14 {fill:#ffffff;stroke:none;stroke-linecap:round;stroke-linejoin:round;stroke-width:0.24}
		.st15 {fill:#969696;stroke:none;stroke-linecap:round;stroke-linejoin:round;stroke-width:0.24}
		.st16 {fill:none;stroke:#000000;stroke-linecap:round;stroke-linejoin:round;stroke-width:1.5}
		.st17 {fill:url(#grad30-86)}
		.st18 {stroke:#ffffff;stroke-linecap:round;stroke-linejoin:round;stroke-width:0.36}
		.st19 {fill:url(#grad32-91)}
		.st20 {stroke:#a78450;stroke-linecap:round;stroke-linejoin:round;stroke-width:0.36}
		.st21 {fill:url(#grad31-98);stroke:#ffffff;stroke-linecap:round;stroke-linejoin:round;stroke-width:0.36}
		.st22 {stroke:#000000;stroke-linecap:round;stroke-linejoin:round;stroke-width:1.5}
		.st23 {fill:url(#grad31-107);stroke:#000000;stroke-linecap:round;stroke-linejoin:round;stroke-width:0.36}
		.st24 {stroke:#000000;stroke-linecap:round;stroke-linejoin:round;stroke-width:0.6}
		.st25 {fill:#000000;stroke:#000000;stroke-linecap:round;stroke-linejoin:round;stroke-width:0.36}
		.st26 {fill:url(#grad34-123);stroke:#ffffff;stroke-linecap:round;stroke-linejoin:round;stroke-width:0.12}
		.st27 {fill:url(#grad35-128);stroke:none;stroke-linecap:round;stroke-linejoin:round;stroke-width:0.12}
		.st28 {fill:#000000;stroke:none;stroke-linecap:round;stroke-linejoin:round;stroke-width:0.24}
		.st29 {stroke:#000000;stroke-linecap:round;stroke-linejoin:round;stroke-width:0.36}
		.st30 {fill:#ffffff;stroke:#000000;stroke-linecap:round;stroke-linejoin:round;stroke-width:0.72}
		.st31 {fill:#000000;font-family:Arial;font-size:0.666664em;font-weight:bold}
		.st32 {fill:none;fill-rule:evenodd;font-size:12;overflow:visible;stroke-linecap:square;stroke-miterlimit:3}
	]]>
	</style>

	<defs id="Patterns_And_Gradients">
		<pattern id="grad31-38" v:fillPattern="31" v:foreground="#da9792" v:background="#e4b4af" x="0" y="0" width="1" height="1"
				patternContentUnits="objectBoundingBox">
			<path d="M 0 0 L 0 1 L 1 1 z" style="fill:url(#grad28-39)"/>
			<path d="M 0 0 L 1 0 L 1 1 z" style="fill:url(#grad25-40)"/>
		</pattern>
		<linearGradient id="grad28-39" v:fillPattern="31" v:foreground="#da9792" v:background="#e4b4af" x1="0" y1="0" x2="0" y2="1">
			<stop offset="0" style="stop-color:#da9792;stop-opacity:1"/>
			<stop offset="1" style="stop-color:#e4b4af;stop-opacity:1"/>
		</linearGradient>
		<linearGradient id="grad25-40" v:fillPattern="31" v:foreground="#da9792" v:background="#e4b4af" x1="0" y1="0" x2="1" y2="0">
			<stop offset="0" style="stop-color:#da9792;stop-opacity:1"/>
			<stop offset="1" style="stop-color:#e4b4af;stop-opacity:1"/>
		</linearGradient>
		<linearGradient id="grad30-47" v:fillPattern="30" v:foreground="#da9792" v:background="#e4b4af" x1="0" y1="1" x2="0" y2="0">
			<stop offset="0" style="stop-color:#da9792;stop-opacity:1"/>
			<stop offset="1" style="stop-color:#e4b4af;stop-opacity:1"/>
		</linearGradient>
		<pattern id="grad32-54" v:fillPattern="32" v:foreground="#da9792" v:background="#e4b4af" x="0" y="0" width="1" height="1"
				patternContentUnits="objectBoundingBox">
			<path d="M 0 1 L 0 0 L 1 0 z" style="fill:url(#grad27-55)"/>
			<path d="M 0 1 L 1 1 L 1 0 z" style="fill:url(#grad28-39)"/>
		</pattern>
		<linearGradient id="grad27-55" v:fillPattern="32" v:foreground="#da9792" v:background="#e4b4af" x1="1" y1="0" x2="0" y2="0">
			<stop offset="0" style="stop-color:#da9792;stop-opacity:1"/>
			<stop offset="1" style="stop-color:#e4b4af;stop-opacity:1"/>
		</linearGradient>
		<pattern id="grad35-68" v:fillPattern="35" v:foreground="#ffffff" v:background="#c6d1e3" x="0" y="0" width="1" height="1"
				patternContentUnits="objectBoundingBox">
			<path d="M 0.5 0.5 L 0 0 L 0 1 z" style="fill:url(#grad27-69)"/>
			<path d="M 0.5 0.5 L 1 0 L 1 1 z" style="fill:url(#grad25-70)"/>
			<path d="M 0.5 0.5 L 0 0 L 1 0 z" style="fill:url(#grad30-71)"/>
			<path d="M 0.5 0.5 L 0 1 L 1 1 z" style="fill:url(#grad28-72)"/>
		</pattern>
		<linearGradient id="grad27-69" v:fillPattern="35" v:foreground="#ffffff" v:background="#c6d1e3" x1="1" y1="0" x2="0" y2="0">
			<stop offset="0" style="stop-color:#ffffff;stop-opacity:1"/>
			<stop offset="1" style="stop-color:#c6d1e3;stop-opacity:1"/>
		</linearGradient>
		<linearGradient id="grad25-70" v:fillPattern="35" v:foreground="#ffffff" v:background="#c6d1e3" x1="0" y1="0" x2="1" y2="0">
			<stop offset="0" style="stop-color:#ffffff;stop-opacity:1"/>
			<stop offset="1" style="stop-color:#c6d1e3;stop-opacity:1"/>
		</linearGradient>
		<linearGradient id="grad30-71" v:fillPattern="35" v:foreground="#ffffff" v:background="#c6d1e3" x1="0" y1="1" x2="0" y2="0">
			<stop offset="0" style="stop-color:#ffffff;stop-opacity:1"/>
			<stop offset="1" style="stop-color:#c6d1e3;stop-opacity:1"/>
		</linearGradient>
		<linearGradient id="grad28-72" v:fillPattern="35" v:foreground="#ffffff" v:background="#c6d1e3" x1="0" y1="0" x2="0" y2="1">
			<stop offset="0" style="stop-color:#ffffff;stop-opacity:1"/>
			<stop offset="1" style="stop-color:#c6d1e3;stop-opacity:1"/>
		</linearGradient>
		<linearGradient id="grad30-86" v:fillPattern="30" v:foreground="#ffffff" v:background="#e1d8c1" x1="0" y1="1" x2="0" y2="0">
			<stop offset="0" style="stop-color:#ffffff;stop-opacity:1"/>
			<stop offset="1" style="stop-color:#e1d8c1;stop-opacity:1"/>
		</linearGradient>
		<pattern id="grad32-91" v:fillPattern="32" v:foreground="#ffffff" v:background="#c9ba96" x="0" y="0" width="1" height="1"
				patternContentUnits="objectBoundingBox">
			<path d="M 0 1 L 0 0 L 1 0 z" style="fill:url(#grad27-92)"/>
			<path d="M 0 1 L 1 1 L 1 0 z" style="fill:url(#grad28-93)"/>
		</pattern>
		<linearGradient id="grad27-92" v:fillPattern="32" v:foreground="#ffffff" v:background="#c9ba96" x1="1" y1="0" x2="0" y2="0">
			<stop offset="0" style="stop-color:#ffffff;stop-opacity:1"/>
			<stop offset="1" style="stop-color:#c9ba96;stop-opacity:1"/>
		</linearGradient>
		<linearGradient id="grad28-93" v:fillPattern="32" v:foreground="#ffffff" v:background="#c9ba96" x1="0" y1="0" x2="0" y2="1">
			<stop offset="0" style="stop-color:#ffffff;stop-opacity:1"/>
			<stop offset="1" style="stop-color:#c9ba96;stop-opacity:1"/>
		</linearGradient>
		<pattern id="grad31-98" v:fillPattern="31" v:foreground="#ffffff" v:background="#b6a06d" x="0" y="0" width="1" height="1"
				patternContentUnits="objectBoundingBox">
			<path d="M 0 0 L 0 1 L 1 1 z" style="fill:url(#grad28-99)"/>
			<path d="M 0 0 L 1 0 L 1 1 z" style="fill:url(#grad25-100)"/>
		</pattern>
		<linearGradient id="grad28-99" v:fillPattern="31" v:foreground="#ffffff" v:background="#b6a06d" x1="0" y1="0" x2="0" y2="1">
			<stop offset="0" style="stop-color:#ffffff;stop-opacity:1"/>
			<stop offset="1" style="stop-color:#b6a06d;stop-opacity:1"/>
		</linearGradient>
		<linearGradient id="grad25-100" v:fillPattern="31" v:foreground="#ffffff" v:background="#b6a06d" x1="0" y1="0" x2="1"
				y2="0">
			<stop offset="0" style="stop-color:#ffffff;stop-opacity:1"/>
			<stop offset="1" style="stop-color:#b6a06d;stop-opacity:1"/>
		</linearGradient>
		<pattern id="grad31-107" v:fillPattern="31" v:foreground="#ffffff" v:background="#339966" x="0" y="0" width="1" height="1"
				patternContentUnits="objectBoundingBox">
			<path d="M 0 0 L 0 1 L 1 1 z" style="fill:url(#grad28-108)"/>
			<path d="M 0 0 L 1 0 L 1 1 z" style="fill:url(#grad25-109)"/>
		</pattern>
		<linearGradient id="grad28-108" v:fillPattern="31" v:foreground="#ffffff" v:background="#339966" x1="0" y1="0" x2="0"
				y2="1">
			<stop offset="0" style="stop-color:#ffffff;stop-opacity:1"/>
			<stop offset="1" style="stop-color:#339966;stop-opacity:1"/>
		</linearGradient>
		<linearGradient id="grad25-109" v:fillPattern="31" v:foreground="#ffffff" v:background="#339966" x1="0" y1="0" x2="1"
				y2="0">
			<stop offset="0" style="stop-color:#ffffff;stop-opacity:1"/>
			<stop offset="1" style="stop-color:#339966;stop-opacity:1"/>
		</linearGradient>
		<linearGradient id="grad30-113" v:fillPattern="30" v:foreground="#ffffff" v:background="#e7e4cd" x1="0" y1="1" x2="0"
				y2="0">
			<stop offset="0" style="stop-color:#ffffff;stop-opacity:1"/>
			<stop offset="1" style="stop-color:#e7e4cd;stop-opacity:1"/>
		</linearGradient>
		<pattern id="grad34-123" v:fillPattern="34" v:foreground="#ffffff" v:background="#e7e4cd" x="0" y="0" width="1" height="1"
				patternContentUnits="objectBoundingBox">
			<path d="M 0 0 L 1 0 L 1 1 z" style="fill:url(#grad30-113)"/>
			<path d="M 0 0 L 0 1 L 1 1 z" style="fill:url(#grad27-124)"/>
		</pattern>
		<linearGradient id="grad27-124" v:fillPattern="34" v:foreground="#ffffff" v:background="#e7e4cd" x1="1" y1="0" x2="0"
				y2="0">
			<stop offset="0" style="stop-color:#ffffff;stop-opacity:1"/>
			<stop offset="1" style="stop-color:#e7e4cd;stop-opacity:1"/>
		</linearGradient>
		<pattern id="grad35-128" v:fillPattern="35" v:foreground="#000000" v:foregroundOpacity="0.4" v:background="#e7e4cd"
				v:backgroundOpacity="0.4" x="0" y="0" width="1" height="1" patternContentUnits="objectBoundingBox">
			<path d="M 0.5 0.5 L 0 0 L 0 1 z" style="fill:url(#grad27-129)"/>
			<path d="M 0.5 0.5 L 1 0 L 1 1 z" style="fill:url(#grad25-130)"/>
			<path d="M 0.5 0.5 L 0 0 L 1 0 z" style="fill:url(#grad30-131)"/>
			<path d="M 0.5 0.5 L 0 1 L 1 1 z" style="fill:url(#grad28-132)"/>
		</pattern>
		<linearGradient id="grad27-129" v:fillPattern="35" v:foreground="#000000" v:foregroundOpacity="0.4" v:background="#e7e4cd"
				v:backgroundOpacity="0.4" x1="1" y1="0" x2="0" y2="0">
			<stop offset="0" style="stop-color:#000000;stop-opacity:0.4"/>
			<stop offset="1" style="stop-color:#e7e4cd;stop-opacity:0.4"/>
		</linearGradient>
		<linearGradient id="grad25-130" v:fillPattern="35" v:foreground="#000000" v:foregroundOpacity="0.4" v:background="#e7e4cd"
				v:backgroundOpacity="0.4" x1="0" y1="0" x2="1" y2="0">
			<stop offset="0" style="stop-color:#000000;stop-opacity:0.4"/>
			<stop offset="1" style="stop-color:#e7e4cd;stop-opacity:0.4"/>
		</linearGradient>
		<linearGradient id="grad30-131" v:fillPattern="35" v:foreground="#000000" v:foregroundOpacity="0.4" v:background="#e7e4cd"
				v:backgroundOpacity="0.4" x1="0" y1="1" x2="0" y2="0">
			<stop offset="0" style="stop-color:#000000;stop-opacity:0.4"/>
			<stop offset="1" style="stop-color:#e7e4cd;stop-opacity:0.4"/>
		</linearGradient>
		<linearGradient id="grad28-132" v:fillPattern="35" v:foreground="#000000" v:foregroundOpacity="0.4" v:background="#e7e4cd"
				v:backgroundOpacity="0.4" x1="0" y1="0" x2="0" y2="1">
			<stop offset="0" style="stop-color:#000000;stop-opacity:0.4"/>
			<stop offset="1" style="stop-color:#e7e4cd;stop-opacity:0.4"/>
		</linearGradient>
	</defs>
	<g v:mID="0" v:index="1" v:groupContext="foregroundPage">
		<title>Pagina 1</title>
		<v:pageProperties v:drawingScale="0.0393701" v:pageScale="0.0393701" v:drawingUnits="24" v:shadowOffsetX="8.50394"
				v:shadowOffsetY="-8.50394"/>
		<g id="shape36-1" v:mID="36" v:groupContext="shape" transform="translate(0.72,-0.72)">
			<title>Foglio.36</title>
			<rect x="0" y="1.44" width="382.677" height="148.819" class="st1"/>
		</g>
		<g id="shape48-3" v:mID="48" v:groupContext="shape" transform="translate(6.38929,-7.80661)">
			<title>Foglio.48</title>
			<rect x="0" y="15.6132" width="79.3701" height="134.646" class="st2"/>
		</g>
		<g id="shape24-5" v:mID="24" v:groupContext="shape" transform="translate(9.22394,-115.523)">
			<title>Foglio.24</title>
			<desc>Client</desc>
			<v:textBlock v:margins="rect(4,4,4,4)" v:tabSpace="42.5197"/>
			<v:textRect cx="27.6378" cy="137.503" width="55.28" height="25.5118"/>
			<rect x="0" y="124.747" width="55.2756" height="25.5118" class="st3"/>
			<text x="17.41" y="139.9" class="st4" v:langID="1040"><v:paragraph v:horizAlign="1"/><v:tabList/>Client</text>		</g>
		<g id="shape2-8" v:mID="2" v:groupContext="shape" transform="translate(107.255,-96.8428) scale(-1,1)">
			<title>Foglio.2</title>
			<path d="M0 150.26 L21.5 150.26" class="st5"/>
		</g>
		<g id="shape3-11" v:mID="3" v:groupContext="shape" transform="translate(281.35,-7.80661)">
			<title>Foglio.3</title>
			<rect x="0" y="14.1959" width="96.378" height="136.063" class="st6"/>
		</g>
		<g id="shape4-13" v:mID="4" v:groupContext="shape" transform="translate(284.185,-122.61)">
			<title>Foglio.4</title>
			<desc>Server</desc>
			<v:textBlock v:margins="rect(4,4,4,4)" v:tabSpace="42.5197"/>
			<v:textRect cx="31.1811" cy="139.629" width="62.37" height="21.2598"/>
			<rect x="0" y="128.999" width="62.3622" height="21.2598" class="st3"/>
			<text x="19.4" y="142.03" class="st4" v:langID="1040"><v:paragraph v:horizAlign="1"/><v:tabList/>Server</text>		</g>
		<g id="shape22-16" v:mID="22" v:groupContext="shape" transform="translate(-54.8617,50.5814) rotate(-90) scale(-1,1)">
			<title>Foglio.22</title>
			<path d="M5.67 150.26 L0 150.26 L2.83 140.62 L5.67 150.26 Z" class="st7"/>
		</g>
		<g id="shape23-18" v:mID="23" v:groupContext="shape" transform="translate(281.35,-96.8428) scale(-1,1)">
			<title>Foglio.23</title>
			<path d="M0 150.26 L21.26 150.26" class="st5"/>
		</g>
		<g id="shape51-21" v:mID="51" v:groupContext="shape" transform="translate(102.767,-125.189)">
			<title>Foglio.51</title>
			<desc>Requests protected resource</desc>
			<v:textBlock v:margins="rect(4,4,4,4)" v:tabSpace="42.5197"/>
			<v:textRect cx="57.4016" cy="143.753" width="114.81" height="13.011"/>
			<rect x="0" y="137.248" width="114.803" height="13.011" class="st3"/>
			<text x="6.04" y="146.15" class="st4" v:langID="1040"><v:paragraph v:horizAlign="1"/><v:tabList/>Requests protected resource</text>		</g>
		<g id="shape52-24" v:mID="52" v:groupContext="shape" transform="translate(272.846,-131.695) scale(-1,1)">
			<title>Foglio.52</title>
			<path d="M0 150.26 L19.84 150.26" class="st5"/>
		</g>
		<g id="shape53-27" v:mID="53" v:groupContext="shape" transform="translate(422.538,15.7294) rotate(90)">
			<title>Foglio.53</title>
			<path d="M5.67 150.26 L0 150.26 L2.83 140.62 L5.67 150.26 Z" class="st7"/>
		</g>
		<g id="shape54-29" v:mID="54" v:groupContext="shape" transform="translate(85.7594,-131.695)">
			<title>Foglio.54</title>
			<path d="M0 150.26 L20.55 150.26" class="st5"/>
		</g>
		<g id="group58-32" transform="translate(81.5074,-14.8932) scale(-1,1)" v:mID="58" v:groupContext="group">
			<v:custProps>
				<v:cp v:nameU="ShapeClass" v:lbl="ShapeClass" v:type="0" v:invis="true" v:ask="false" v:langID="1040"
						v:val="VT4(Equipment)"/>
				<v:cp v:nameU="ShapeType" v:lbl="ShapeType" v:type="0" v:invis="true" v:ask="false" v:langID="1040"
						v:val="VT4(Computer)"/>
				<v:cp v:nameU="SubShapeType" v:lbl="SubShapeType" v:type="0" v:invis="true" v:ask="false" v:langID="1040"
						v:val="VT4(Portatile)"/>
				<v:cp v:nameU="Manufacturer" v:lbl="Produttore" v:type="0" v:sortKey="Equipment" v:invis="false" v:ask="false"
						v:langID="1040"/>
				<v:cp v:nameU="ProductNumber" v:lbl="Numero prodotto" v:type="0" v:sortKey="Equipment" v:invis="false"
						v:ask="false" v:langID="1040"/>
				<v:cp v:nameU="PartNumber" v:lbl="Numero parte" v:type="0" v:sortKey="Equipment" v:invis="false" v:ask="false"
						v:langID="1040"/>
				<v:cp v:nameU="ProductDescription" v:lbl="Descrizione prodotto" v:type="0" v:sortKey="Equipment" v:invis="false"
						v:ask="false" v:langID="1040"/>
				<v:cp v:nameU="AssetNumber" v:lbl="Numero inventario" v:type="0" v:sortKey="Asset" v:invis="false" v:ask="false"
						v:langID="1040"/>
				<v:cp v:nameU="SerialNumber" v:lbl="Numero di serie" v:type="0" v:sortKey="Asset" v:invis="false" v:ask="false"
						v:langID="1040"/>
				<v:cp v:nameU="Location" v:lbl="Posizione" v:type="0" v:sortKey="Asset" v:invis="false" v:ask="false"
						v:langID="1040"/>
				<v:cp v:nameU="Building" v:lbl="Edificio" v:type="0" v:sortKey="Asset" v:invis="false" v:ask="false"
						v:langID="1040"/>
				<v:cp v:nameU="Room" v:lbl="Stanza" v:type="0" v:sortKey="Asset" v:invis="false" v:ask="false" v:langID="1040"/>
				<v:cp v:nameU="NetworkName" v:lbl="Nome rete" v:type="0" v:sortKey="Network" v:invis="false" v:ask="false"
						v:langID="1040"/>
				<v:cp v:nameU="IPAddress" v:lbl="Indirizzo IP" v:type="0" v:sortKey="Network" v:invis="false" v:ask="false"
						v:langID="1040"/>
				<v:cp v:nameU="SubnetMask" v:lbl="Subnet mask" v:type="0" v:sortKey="Network" v:invis="false" v:ask="false"
						v:langID="1040"/>
				<v:cp v:nameU="AdminInterface" v:lbl="Interfaccia amministrativa" v:type="0" v:sortKey="Network" v:invis="false"
						v:ask="false" v:langID="1040"/>
				<v:cp v:nameU="NumberofPorts" v:lbl="Numero di porte" v:type="0" v:sortKey="Network" v:invis="false" v:ask="false"
						v:langID="1040"/>
				<v:cp v:nameU="MACAddress" v:lbl="Indirizzo MAC" v:type="0" v:sortKey="Network" v:invis="false" v:ask="false"
						v:langID="1040"/>
				<v:cp v:nameU="CommunityString" v:lbl="Stringa comunità" v:type="0" v:sortKey="Network" v:invis="false"
						v:ask="false" v:langID="1040"/>
				<v:cp v:nameU="NetworkDescription" v:lbl="Descrizione rete" v:type="0" v:sortKey="Network" v:invis="false"
						v:ask="false" v:langID="1040"/>
				<v:cp v:nameU="HardDriveSize" v:lbl="Capacità disco rigido" v:type="0" v:sortKey="Workstation" v:invis="false"
						v:ask="false" v:langID="1040"/>
				<v:cp v:nameU="CPU" v:lbl="CPU" v:type="0" v:sortKey="Workstation" v:invis="false" v:ask="false" v:langID="1040"/>
				<v:cp v:nameU="Memory" v:lbl="Memoria" v:type="0" v:sortKey="Workstation" v:invis="false" v:ask="false"
						v:langID="1040"/>
				<v:cp v:nameU="OperatingSystem" v:lbl="Sistema operativo" v:type="0" v:sortKey="Workstation" v:invis="false"
						v:ask="false" v:langID="1040"/>
			</v:custProps>
			<v:userDefs>
				<v:ud v:nameU="HasText" v:val="VT0(0):5"/>
				<v:ud v:nameU="ShapeClass" v:val="VT0(5):26"/>
				<v:ud v:nameU="ShapeType" v:val="VT0(6):26"/>
				<v:ud v:nameU="SubShapeType" v:val="VT0(37):26"/>
				<v:ud v:nameU="SolSH" v:val="VT14({BF0433D9-CD73-4EB5-8390-8653BE590246}):41"/>
				<v:ud v:nameU="visLegendShape" v:val="VT0(2):26"/>
				<v:ud v:nameU="visVersion" v:prompt="" v:val="VT0(12):26"/>
			</v:userDefs>
			<title>Computer portatile</title>
			<g id="shape59-33" v:mID="59" v:groupContext="shape">
				<title>Foglio.59</title>
				<path d="M70.87 102.78 L59.84 95.23 L34.54 81.83 L31.42 81.83 L31.39 81.94 L22.82 110.86 L0 124.04 L0 129 A85.44
							 84.1403 -90.05 0 0 36.48 150.26 L60.94 136.09 L70.87 102.78 Z" class="st8"/>
			</g>
			<g id="shape60-35" v:mID="60" v:groupContext="shape" transform="translate(36.4751,0)">
				<title>Foglio.60</title>
				<path d="M0.02 144.94 L26.24 129.71 L24.47 136.09 L0 150.26 L0.02 144.94 Z" class="st9"/>
			</g>
			<g id="shape61-41" v:mID="61" v:groupContext="shape" transform="translate(59.1434,-18.4489)">
				<title>Foglio.61</title>
				<path d="M0 150.26 L8.6 121.23 L11.72 121.23 L3.57 148.16 L0 150.26 Z" class="st9"/>
			</g>
			<g id="shape62-44" v:mID="62" v:groupContext="shape" transform="translate(31.3228,-47.4803)">
				<title>Foglio.62</title>
				<path d="M0 129.42 L3.22 129.31 L28.52 142.71 L39.54 150.26 L36.43 150.26 A1571.06 1547.16 87.95 0 1 0 129.42 Z"
						class="st10"/>
			</g>
			<g id="shape63-48" v:mID="63" v:groupContext="shape" transform="translate(0,-5.31496)">
				<title>Foglio.63</title>
				<path d="M0 129.35 L22.82 116.17 L59.14 137.12 L36.5 150.26 A102.944 101.378 89.17 0 1 0 129.35 Z" class="st10"/>
			</g>
			<g id="shape64-51" v:mID="64" v:groupContext="shape" transform="translate(22.8189,-18.4489)">
				<title>Foglio.64</title>
				<path d="M36.32 150.26 A4962.32 4886.83 -91.15 0 0 0 129.31 L8.6 100.27 L44.93 121.23 L36.32 150.26 Z" class="st11"/>
			</g>
			<g id="shape65-56" v:mID="65" v:groupContext="shape">
				<title>Foglio.65</title>
				<path d="M-0 129 A85.44 84.1403 -90.05 0 0 36.48 150.26 L36.5 144.94 A85.6626 84.3595 88.88 0 1 0 124.04 L0 129 Z"
						class="st11"/>
			</g>
			<g id="shape66-59" v:mID="66" v:groupContext="shape" transform="translate(25.5118,-21.437)">
				<title>Foglio.66</title>
				<path d="M7.51 106.68 L0 131.76 L32.17 150.26" class="st12"/>
			</g>
			<g id="shape67-62" v:mID="67" v:groupContext="shape" transform="translate(54.2126,-1.27559) scale(-1,1)">
				<title>Foglio.67</title>
				<path d="M0 138.07 L15.66 147.14 L15.66 150.26" class="st5"/>
			</g>
			<g id="shape68-65" v:mID="68" v:groupContext="shape" transform="translate(26.5039,-21.437)">
				<title>Foglio.68</title>
				<path d="M0 131.48 L7.23 107.1 L6.52 106.68 A1396.8 1375.55 89.01 0 1 38.55 125.17 L31.18 150.26 L31.32 149.55 A1231.81
							 1213.07 88.95 0 1 -0 131.48 Z" class="st13"/>
			</g>
			<g id="group69-73" transform="translate(5.13165,-7.56695)" v:mID="69" v:groupContext="group">
				<title>Foglio.69</title>
				<g id="shape70-74" v:mID="70" v:groupContext="shape" transform="translate(0,-0.708661)">
					<title>Foglio.70</title>
					<path d="M0 131.35 L3.27 133.24 L6.35 131.46 L3.08 129.57 L0 131.35 Z M4.62 128.68 L7.89 130.58 L10.98 128.8
								 L7.7 126.91 L4.62 128.68 Z M9.24 126.02 L12.52 127.91 L15.6 126.13 L12.32 124.24 L9.24 126.02 Z
								 M13.86 123.35 L17.14 125.24 L20.22 123.46 L16.94 121.57 L13.86 123.35 Z M18.77 126.19 L22.05 128.08
								 L25.13 126.3 L21.85 124.41 L18.77 126.19 Z M23.68 129.02 L26.96 130.91 L30.04 129.13 L26.77 127.24
								 L23.68 129.02 Z M28.6 131.86 L31.87 133.75 L34.95 131.97 L31.68 130.08 L28.6 131.86 Z M38.42 137.53
								 L41.7 139.42 L44.78 137.64 L41.5 135.75 L38.42 137.53 Z M43.33 140.37 L46.61 142.26 L49.69 140.48
								 L46.41 138.59 L43.33 140.37 Z M38.71 143.03 L41.99 144.92 L45.07 143.15 L41.79 141.25 L38.71 143.03
								 Z M33.8 140.2 L37.08 142.09 L40.16 140.31 L36.88 138.42 L33.8 140.2 Z M33.51 134.69 L36.78 136.58
								 L39.86 134.81 L36.59 132.92 L33.51 134.69 Z M28.89 137.36 L32.16 139.25 L35.24 137.47 L31.97 135.58
								 L28.89 137.36 Z M23.98 134.53 L27.25 136.42 L30.33 134.64 L27.06 132.75 L23.98 134.53 Z M19.06 131.69
								 L22.34 133.58 L25.42 131.8 L22.14 129.91 L19.06 131.69 Z M14.15 128.85 L17.43 130.74 L20.51 128.97
								 L17.23 127.07 L14.15 128.85 Z M9.53 131.52 L12.81 133.41 L15.89 131.63 L12.61 129.74 L9.53 131.52
								 Z M14.44 134.36 L17.72 136.25 L20.8 134.47 L17.52 132.58 L14.44 134.36 Z M19.36 137.19 L22.63 139.08
								 L25.71 137.31 L22.44 135.41 L19.36 137.19 Z M24.27 140.03 L27.54 141.92 L30.62 140.14 L27.35 138.25
								 L24.27 140.03 Z M29.18 142.86 L32.46 144.76 L35.54 142.98 L32.26 141.09 L29.18 142.86 Z M34.09 145.7
								 L37.37 147.59 L40.45 145.81 L37.17 143.92 L34.09 145.7 Z M29.47 148.37 L32.75 150.26 L35.83 148.48
								 L32.55 146.59 L29.47 148.37 Z M24.56 145.53 L27.84 147.42 L30.92 145.64 L27.64 143.75 L24.56 145.53
								 Z M9.82 137.02 L22.92 144.59 L26 142.81 L12.9 135.25 L9.82 137.02 Z M4.91 134.19 L8.19 136.08 L11.27
								 134.3 L7.99 132.41 L4.91 134.19 Z" class="st14"/>
				</g>
				<g id="shape71-76" v:mID="71" v:groupContext="shape">
					<title>Foglio.71</title>
					<path d="M13.86 123.35 L17.14 125.24 L17.14 124.53 L13.86 122.64 L13.86 123.35 Z M18.77 126.19 L22.05 128.08
								 L22.05 127.37 L18.77 125.48 L18.77 126.19 Z M23.68 129.02 L26.96 130.91 L26.96 130.2 L23.68 128.31
								 L23.68 129.02 Z M28.6 131.86 L31.87 133.75 L31.87 133.04 L28.6 131.15 L28.6 131.86 Z M33.51 134.69
								 L36.78 136.58 L36.78 135.88 L33.51 133.99 L33.51 134.69 Z M38.42 137.53 L41.7 139.42 L41.7 138.71
								 L38.42 136.82 L38.42 137.53 Z M17.14 124.53 L17.14 125.24 L20.22 123.46 L20.22 122.75 L17.14 124.53
								 Z M22.05 127.37 L22.05 128.08 L25.13 126.3 L25.13 125.59 L22.05 127.37 Z M26.96 130.2 L26.96 130.91
								 L30.04 129.13 L30.04 128.43 L26.96 130.2 Z M31.87 133.04 L31.87 133.75 L34.95 131.97 L34.95 131.26
								 L31.87 133.04 Z M36.78 135.88 L36.78 136.58 L39.86 134.81 L39.86 134.1 L36.78 135.88 Z M41.7 138.71
								 L41.7 139.42 L44.78 137.64 L44.78 136.93 L41.7 138.71 Z M43.33 140.37 L46.61 142.26 L46.61 141.55
								 L43.33 139.66 L43.33 140.37 Z M46.61 141.55 L46.61 142.26 L49.69 140.48 L49.69 139.77 L46.61 141.55
								 Z M9.24 126.02 L12.52 127.91 L12.52 127.2 L9.24 125.31 L9.24 126.02 Z M14.15 128.85 L17.43 130.74
								 L17.43 130.04 L14.15 128.14 L14.15 128.85 Z M19.06 131.69 L22.34 133.58 L22.34 132.87 L19.06 130.98
								 L19.06 131.69 Z M23.98 134.53 L27.25 136.42 L27.25 135.71 L23.98 133.82 L23.98 134.53 Z M28.89 137.36
								 L32.16 139.25 L32.16 138.54 L28.89 136.65 L28.89 137.36 Z M33.8 140.2 L37.08 142.09 L37.08 141.38
								 L33.8 139.49 L33.8 140.2 Z M12.52 127.2 L12.52 127.91 L15.6 126.13 L15.6 125.42 L12.52 127.2 Z M17.43
								 130.04 L17.43 130.74 L20.51 128.97 L20.51 128.26 L17.43 130.04 Z M22.34 132.87 L22.34 133.58 L25.42
								 131.8 L25.42 131.09 L22.34 132.87 Z M27.25 135.71 L27.25 136.42 L30.33 134.64 L30.33 133.93 L27.25
								 135.71 Z M32.16 138.54 L32.16 139.25 L35.24 137.47 L35.24 136.76 L32.16 138.54 Z M37.08 141.38 L37.08
								 142.09 L40.16 140.31 L40.16 139.6 L37.08 141.38 Z M38.71 143.03 L41.99 144.92 L41.99 144.22 L38.71
								 142.32 L38.71 143.03 Z M41.99 144.22 L41.99 144.92 L45.07 143.15 L45.07 142.44 L41.99 144.22 Z M4.62
								 128.68 L7.89 130.58 L7.89 129.87 L4.62 127.98 L4.62 128.68 Z M9.53 131.52 L12.81 133.41 L12.81 132.7
								 L9.53 130.81 L9.53 131.52 Z M14.44 134.36 L17.72 136.25 L17.72 135.54 L14.44 133.65 L14.44 134.36
								 Z M19.36 137.19 L22.63 139.08 L22.63 138.37 L19.36 136.48 L19.36 137.19 Z M24.27 140.03 L27.54 141.92
								 L27.54 141.21 L24.27 139.32 L24.27 140.03 Z M29.18 142.86 L32.46 144.76 L32.46 144.05 L29.18 142.16
								 L29.18 142.86 Z M7.89 129.87 L7.89 130.58 L10.98 128.8 L10.98 128.09 L7.89 129.87 Z M12.81 132.7
								 L12.81 133.41 L15.89 131.63 L15.89 130.92 L12.81 132.7 Z M17.72 135.54 L17.72 136.25 L20.8 134.47
								 L20.8 133.76 L17.72 135.54 Z M22.63 138.37 L22.63 139.08 L25.71 137.31 L25.71 136.6 L22.63 138.37
								 Z M27.54 141.21 L27.54 141.92 L30.62 140.14 L30.62 139.43 L27.54 141.21 Z M32.46 144.05 L32.46 144.76
								 L35.54 142.98 L35.54 142.27 L32.46 144.05 Z M34.09 145.7 L37.37 147.59 L37.37 146.88 L34.09 144.99
								 L34.09 145.7 Z M37.37 146.88 L37.37 147.59 L40.45 145.81 L40.45 145.1 L37.37 146.88 Z M0 131.35
								 L3.27 133.24 L3.27 132.53 L0 130.64 L0 131.35 Z M4.91 134.19 L8.19 136.08 L8.19 135.37 L4.91 133.48
								 L4.91 134.19 Z M9.82 137.02 L22.92 144.59 L22.92 143.88 L9.82 136.32 L9.82 137.02 Z M24.56 145.53
								 L27.84 147.42 L27.84 146.71 L24.56 144.82 L24.56 145.53 Z M3.27 132.53 L3.27 133.24 L6.35 131.46
								 L6.35 130.76 L3.27 132.53 Z M8.19 135.37 L8.19 136.08 L11.27 134.3 L11.27 133.59 L8.19 135.37 Z
								 M22.92 143.88 L22.92 144.59 L26 142.81 L26 142.1 L22.92 143.88 Z M27.84 146.71 L27.84 147.42 L30.92
								 145.64 L30.92 144.94 L27.84 146.71 Z M29.47 148.37 L32.75 150.26 L32.75 149.55 L29.47 147.66 L29.47
								 148.37 Z M32.75 149.55 L32.75 150.26 L35.83 148.48 L35.83 147.77 L32.75 149.55 Z" class="st15"/>
				</g>
			</g>
			<g id="shape72-78" v:mID="72" v:groupContext="shape">
				<title>Foglio.72</title>
				<path d="M36.48 150.26 L60.94 136.09 L70.87 102.78 L34.54 81.83 L31.42 81.83 L22.82 110.86 L0 124.04 L0 129 A86.9113
							 85.5892 -90.05 0 0 36.48 150.26 Z" class="st16"/>
			</g>
		</g>
		<g id="group49-80" transform="translate(366.389,-12.7672) scale(-1,1)" v:mID="49" v:groupContext="group">
			<v:custProps>
				<v:cp v:nameU="Manufacturer" v:lbl="Produttore" v:type="0" v:sortKey="Equipment" v:invis="false" v:ask="false"
						v:langID="1040"/>
				<v:cp v:nameU="ProductNumber" v:lbl="Numero prodotto" v:type="0" v:sortKey="Equipment" v:invis="false"
						v:ask="false" v:langID="1040"/>
				<v:cp v:nameU="PartNumber" v:lbl="Numero parte" v:type="0" v:sortKey="Equipment" v:invis="false" v:ask="false"
						v:langID="1040"/>
				<v:cp v:nameU="ProductDescription" v:lbl="Descrizione prodotto" v:type="0" v:sortKey="Equipment" v:invis="false"
						v:ask="false" v:langID="1040"/>
				<v:cp v:nameU="AssetNumber" v:lbl="Numero inventario" v:type="0" v:sortKey="Asset" v:invis="false" v:ask="false"
						v:langID="1040"/>
				<v:cp v:nameU="SerialNumber" v:lbl="Numero di serie" v:type="0" v:sortKey="Asset" v:invis="false" v:ask="false"
						v:langID="1040"/>
				<v:cp v:nameU="Location" v:lbl="Posizione" v:type="0" v:sortKey="Asset" v:invis="false" v:ask="false"
						v:langID="1040"/>
				<v:cp v:nameU="Building" v:lbl="Edificio" v:type="0" v:sortKey="Asset" v:invis="false" v:ask="false"
						v:langID="1040"/>
				<v:cp v:nameU="Room" v:lbl="Stanza" v:type="0" v:sortKey="Asset" v:invis="false" v:ask="false" v:langID="1040"/>
				<v:cp v:nameU="Department" v:lbl="Reparto" v:type="0" v:invis="false" v:ask="false" v:langID="1040"/>
				<v:cp v:nameU="NetworkName" v:lbl="Nome rete" v:type="0" v:sortKey="Network" v:invis="false" v:ask="false"
						v:langID="1040"/>
				<v:cp v:nameU="IPAddress" v:lbl="Indirizzo IP" v:type="0" v:sortKey="Network" v:invis="false" v:ask="false"
						v:langID="1040"/>
				<v:cp v:nameU="SubnetMask" v:lbl="Subnet mask" v:type="0" v:sortKey="Network" v:invis="false" v:ask="false"
						v:langID="1040"/>
				<v:cp v:nameU="AdminInterface" v:lbl="Interfaccia amministrativa" v:type="0" v:sortKey="Network" v:invis="false"
						v:ask="false" v:langID="1040"/>
				<v:cp v:nameU="NumberofPorts" v:lbl="Numero di porte" v:type="0" v:sortKey="Network" v:invis="false" v:ask="false"
						v:langID="1040"/>
				<v:cp v:nameU="CommunityString" v:lbl="Stringa comunità" v:type="0" v:sortKey="Network" v:invis="false"
						v:ask="false" v:langID="1040"/>
				<v:cp v:nameU="NetworkDescription" v:lbl="Descrizione rete" v:type="0" v:sortKey="Network" v:invis="false"
						v:ask="false" v:langID="1040"/>
				<v:cp v:nameU="CPU" v:lbl="CPU" v:type="0" v:sortKey="Workstation" v:invis="false" v:ask="false" v:langID="1040"/>
				<v:cp v:nameU="Memory" v:lbl="Memoria" v:type="0" v:sortKey="Workstation" v:invis="false" v:ask="false"
						v:langID="1040"/>
				<v:cp v:nameU="OperatingSystem" v:lbl="Sistema operativo" v:type="0" v:sortKey="Workstation" v:invis="false"
						v:ask="false" v:langID="1040"/>
				<v:cp v:nameU="BelongsTo" v:lbl="Appartiene a" v:type="0" v:invis="true" v:ask="false" v:langID="1040"/>
				<v:cp v:nameU="ShapeClass" v:lbl="ShapeClass" v:type="0" v:invis="true" v:ask="false" v:langID="1040"
						v:val="VT4(Equipment)"/>
				<v:cp v:nameU="ShapeType" v:lbl="ShapeType" v:type="0" v:invis="true" v:ask="false" v:langID="1040"
						v:val="VT4(Server)"/>
				<v:cp v:nameU="MACAddress" v:lbl="Indirizzo MAC" v:type="0" v:sortKey="Network" v:invis="false" v:ask="false"
						v:langID="1040"/>
				<v:cp v:nameU="HardDriveSize" v:lbl="Capacità disco rigido" v:type="0" v:sortKey="Workstation" v:invis="false"
						v:ask="false" v:langID="1040"/>
			</v:custProps>
			<v:userDefs>
				<v:ud v:nameU="HasText" v:val="VT0(0):5"/>
				<v:ud v:nameU="ShapeClass" v:val="VT0(5):26"/>
				<v:ud v:nameU="ShapeType" v:val="VT0(24):26"/>
				<v:ud v:nameU="SolSH" v:val="VT14({BF0433D9-CD73-4EB5-8390-8653BE590246}):41"/>
				<v:ud v:nameU="visLegendShape" v:val="VT0(2):26"/>
				<v:ud v:nameU="visVersion" v:prompt="" v:val="VT0(12):26"/>
			</v:userDefs>
			<title>Server</title>
			<g id="shape50-81" v:mID="50" v:groupContext="shape">
				<title>Foglio.50</title>
				<path d="M74.49 62.14 L45.84 46.8 L0 71.77 L0.02 135.92 A48.2339 45.044 -180 0 0 28.29 150.26 L74.49 125.28 L74.49
							 62.14 Z M12.72 81.76 A49.7784 46.4864 -180 0 0 28.29 87.29 A49.2224 45.9671 0 0 1 12.72 81.76 Z"
						class="st8"/>
			</g>
			<g id="shape55-83" v:mID="55" v:groupContext="shape" transform="translate(0,-62.969)">
				<title>Foglio.55</title>
				<path d="M28.27 150.26 L74.49 125.11 L45.84 109.77 L0 134.74 A49.7784 46.4864 -180 0 0 28.29 150.26 L28.27 150.26
							 Z" class="st17"/>
				<path d="M28.27 150.26 L74.49 125.11 L45.84 109.77 L0 134.74 A49.7784 46.4864 -180 0 0 28.29 150.26" class="st18"/>
			</g>
			<g id="shape56-88" v:mID="56" v:groupContext="shape" transform="translate(0.0169269,-5.11591E-013)">
				<title>Foglio.56</title>
				<path d="M28.27 87.29 A49.2224 45.9671 0 0 1 0 71.7 L0 135.92 A48.2339 45.044 -180 0 0 28.27 150.26 L28.25 87.29
							 L28.27 87.29 Z" class="st19"/>
				<path d="M28.27 87.29 A49.2224 45.9671 0 0 1 0 71.7 L0 135.92 A48.2339 45.044 -180 0 0 28.27 150.26 L28.25 87.29"
						class="st20"/>
			</g>
			<g id="shape57-95" v:mID="57" v:groupContext="shape" transform="translate(28.2697,-0.0711688)">
				<title>Foglio.57</title>
				<path d="M0 87.36 L0 150.26 L46.22 125.35 L46.22 62.21 L0 87.36 Z" class="st21"/>
			</g>
			<g id="shape73-101" v:mID="73" v:groupContext="shape" transform="translate(0,-0.00228072)">
				<title>Foglio.73</title>
				<path d="M74.49 62.14 L45.84 46.8 L0 71.77 L0.02 135.92 A48.2339 45.044 -180 0 0 28.29 150.26 L74.49 125.28 L74.49
							 62.14" class="st22"/>
			</g>
			<g id="shape74-104" v:mID="74" v:groupContext="shape" transform="translate(-39.4087,-24.1989) rotate(-20)">
				<title>Foglio.74</title>
				<ellipse cx="2.16386" cy="147.312" rx="2.16386" ry="2.94651" class="st23"/>
			</g>
			<g id="shape75-110" v:mID="75" v:groupContext="shape" transform="translate(4.58428,-9.09963)">
				<title>Foglio.75</title>
				<path d="M0 132.78 A55.2179 50.4322 -96.44 0 0 19.1 142.59" class="st24"/>
				<path d="M0 136.61 A55.2179 50.4322 -96.44 0 0 19.1 146.42" class="st24"/>
				<path d="M0 140.45 A55.2179 50.4322 -96.44 0 0 19.1 150.26" class="st24"/>
			</g>
			<g id="group76-117" transform="translate(3.82023,-44.5971)" v:mID="76" v:groupContext="group">
				<title>Foglio.76</title>
				<g id="shape77-118" v:mID="77" v:groupContext="shape" transform="translate(0,-10.3216)">
					<title>Foglio.77</title>
					<path d="M0.68 140.45 A48.1773 44.9911 -180 0 0 19.78 150.26 a0.978934 0.914194 -180 0 0 -3.55271E-015 -1.78379
								 A46.8665 43.767 0 0 1 1.06 138.95 a0.634205 0.592263 -180 0 0 -1.0588 0.503493 A1.38222 1.29081
								 -180 0 0 0.68 140.45 Z" class="st25"/>
				</g>
				<g id="shape78-120" v:mID="78" v:groupContext="shape" transform="translate(6.07479,-12.5701)">
					<title>Foglio.78</title>
					<path d="M5.88 150.19 A7.15851 4.35782 -90.9 0 0 0.15 147.33 A4.70994 2.34822 -180 0 0 5.88 150.19 Z"
							class="st26"/>
				</g>
				<g id="shape79-125" v:mID="79" v:groupContext="shape" transform="translate(0.764046,-0.0891897)">
					<title>Foglio.79</title>
					<path d="M0 135.45 L0 140.45 A51.8241 48.3969 -180 0 0 19.1 150.26 L19.1 145.26 A53.5202 49.9808 0 0 1 0 135.45
								 Z" class="st27"/>
				</g>
				<g id="shape80-133" v:mID="80" v:groupContext="shape" transform="translate(0.764046,-2.85407)">
					<title>Foglio.80</title>
					<path d="M-0 140.45 A46.9067 43.8046 -180 0 0 19.1 150.26 L19.1 149.01 A51.845 48.4163 0 0 1 -0 139.2 L0 140.45
								 Z" class="st28"/>
				</g>
				<g id="shape81-135" v:mID="81" v:groupContext="shape" transform="translate(0.764046,-0.178379)">
					<title>Foglio.81</title>
					<path d="M0 135.45 L0 140.45 A51.8241 48.3969 -180 0 0 19.1 150.26" class="st18"/>
				</g>
				<g id="shape82-138" v:mID="82" v:groupContext="shape" transform="translate(0.764046,8.52651E-014)">
					<title>Foglio.82</title>
					<path d="M19.1 150.26 L19.1 145.26 A53.5202 49.9808 0 0 1 0 135.45" class="st29"/>
				</g>
			</g>
		</g>
		<g id="shape83-142" v:mID="83" v:groupContext="shape" transform="translate(89.6516,-126.026)">
			<title>Foglio.83</title>
			<ellipse cx="5.69203" cy="144.425" rx="5.69203" ry="5.83433" class="st30"/>
		</g>
		<g id="shape84-144" v:mID="84" v:groupContext="shape" transform="translate(88.594,-126.356)">
			<title>Foglio.84</title>
			<desc>1</desc>
			<v:textBlock v:margins="rect(4,4,4,4)"/>
			<v:textRect cx="4.49727" cy="145.762" width="9" height="8.99455"/>
			<rect x="0" y="141.264" width="8.99455" height="8.99455" class="st3"/>
			<text x="4" y="148.16" class="st31" v:langID="1040"><v:paragraph v:spBefore="5" v:spAfter="5" v:bulletSize="0.166667"/><v:tabList/>1</text>		</g>
		<g id="shape85-147" v:mID="85" v:groupContext="shape" transform="translate(265.714,-91.0085)">
			<title>Foglio.85</title>
			<ellipse cx="5.69203" cy="144.425" rx="5.69203" ry="5.83433" class="st30"/>
		</g>
		<g id="shape86-149" v:mID="86" v:groupContext="shape" transform="translate(264.656,-91.3386)">
			<title>Foglio.86</title>
			<desc>2</desc>
			<v:textBlock v:margins="rect(4,4,4,4)"/>
			<v:textRect cx="4.49727" cy="145.762" width="9" height="8.99455"/>
			<rect x="0" y="141.264" width="8.99455" height="8.99455" class="st3"/>
			<text x="4" y="148.16" class="st31" v:langID="1040"><v:paragraph v:spBefore="5" v:spAfter="5" v:bulletSize="0.166667"/><v:tabList/>2</text>		</g>
		<g id="shape1-152" v:mID="1" v:groupContext="shape" transform="translate(104.421,-90.3373)">
			<title>Foglio.1</title>
			<desc>Requests username:password</desc>
			<v:textBlock v:margins="rect(4,4,4,4)" v:tabSpace="42.5197"/>
			<v:textRect cx="62.9528" cy="143.753" width="125.91" height="13.011"/>
			<rect x="0" y="137.248" width="125.906" height="13.011" class="st3"/>
			<text x="8.93" y="146.15" class="st4" v:langID="1040"><v:paragraph v:horizAlign="1"/><v:tabList/>Requests username:password</text>		</g>
		<g id="shape5-155" v:mID="5" v:groupContext="shape" transform="translate(119.775,-19.9814) scale(-1,1)">
			<title>Foglio.5</title>
			<path d="M0 150.26 L34.02 150.26" class="st5"/>
		</g>
		<g id="shape6-158" v:mID="6" v:groupContext="shape" transform="translate(-54.8617,127.443) rotate(-90) scale(-1,1)">
			<title>Foglio.6</title>
			<path d="M5.67 150.26 L0 150.26 L2.83 140.62 L5.67 150.26 Z" class="st7"/>
		</g>
		<g id="shape7-160" v:mID="7" v:groupContext="shape" transform="translate(281.35,-19.9814) scale(-1,1)">
			<title>Foglio.7</title>
			<path d="M0 150.26 L21.26 150.26" class="st5"/>
		</g>
		<g id="shape9-163" v:mID="9" v:groupContext="shape" transform="translate(272.846,-57.994) scale(-1,1)">
			<title>Foglio.9</title>
			<path d="M0 150.26 L25.51 150.26" class="st5"/>
		</g>
		<g id="shape10-166" v:mID="10" v:groupContext="shape" transform="translate(422.538,89.4302) rotate(90)">
			<title>Foglio.10</title>
			<path d="M5.67 150.26 L0 150.26 L2.83 140.62 L5.67 150.26 Z" class="st7"/>
		</g>
		<g id="shape11-168" v:mID="11" v:groupContext="shape" transform="translate(85.7594,-57.994)">
			<title>Foglio.11</title>
			<path d="M0 150.26 L20.55 150.26" class="st5"/>
		</g>
		<g id="shape12-171" v:mID="12" v:groupContext="shape" transform="translate(89.6516,-52.3247)">
			<title>Foglio.12</title>
			<ellipse cx="5.69203" cy="144.425" rx="5.69203" ry="5.83433" class="st30"/>
		</g>
		<g id="shape13-173" v:mID="13" v:groupContext="shape" transform="translate(88.594,-52.6548)">
			<title>Foglio.13</title>
			<desc>3</desc>
			<v:textBlock v:margins="rect(4,4,4,4)"/>
			<v:textRect cx="4.49727" cy="145.762" width="9" height="8.99455"/>
			<rect x="0" y="141.264" width="8.99455" height="8.99455" class="st3"/>
			<text x="4" y="148.16" class="st31" v:langID="1040"><v:paragraph v:spBefore="5" v:spAfter="5" v:bulletSize="0.166667"/><v:tabList/>3</text>		</g>
		<g id="shape14-176" v:mID="14" v:groupContext="shape" transform="translate(265.714,-14.1471)">
			<title>Foglio.14</title>
			<ellipse cx="5.69203" cy="144.425" rx="5.69203" ry="5.83433" class="st30"/>
		</g>
		<g id="shape15-178" v:mID="15" v:groupContext="shape" transform="translate(264.656,-14.4772)">
			<title>Foglio.15</title>
			<desc>4</desc>
			<v:textBlock v:margins="rect(4,4,4,4)"/>
			<v:textRect cx="4.49727" cy="145.762" width="9" height="8.99455"/>
			<rect x="0" y="141.264" width="8.99455" height="8.99455" class="st3"/>
			<text x="4" y="148.16" class="st31" v:langID="1040"><v:paragraph v:spBefore="5" v:spAfter="5" v:bulletSize="0.166667"/><v:tabList/>4</text>		</g>
		<g id="shape16-181" v:mID="16" v:groupContext="shape" transform="translate(112.689,-13.4759)">
			<title>Foglio.16</title>
			<desc>Returns requested resource</desc>
			<v:textBlock v:margins="rect(4,4,4,4)" v:tabSpace="42.5197"/>
			<v:textRect cx="60.2362" cy="143.753" width="120.48" height="13.011"/>
			<rect x="0" y="137.248" width="120.472" height="13.011" class="st3"/>
			<text x="10.65" y="146.15" class="st4" v:langID="1040"><v:paragraph v:horizAlign="1"/><v:tabList/>Returns requested resource</text>		</g>
		<g id="shape17-184" v:mID="17" v:groupContext="shape" transform="translate(107.019,-51.4885)">
			<title>Foglio.17</title>
			<desc>Sends username:password</desc>
			<v:textBlock v:margins="rect(4,4,4,4)" v:tabSpace="42.5197"/>
			<v:textRect cx="53.0315" cy="143.753" width="106.07" height="13.011"/>
			<rect x="0" y="137.248" width="106.063" height="13.011" class="st3"/>
			<text x="4.56" y="146.15" class="st4" v:langID="1040"><v:paragraph v:horizAlign="1"/><v:tabList/>Sends username:password</text>		</g>
	</g>
</svg>
