<?xml version="1.0" encoding="UTF-8" standalone="no"?>
<!DOCTYPE svg PUBLIC "-//W3C//DTD SVG 1.0//EN" "http://www.w3.org/TR/2001/REC-SVG-20010904/DTD/svg10.dtd">
<!-- Generato da Microsoft Visio 11.0, SVG Export, v1.0 jakartaeett_dt_051.svg Pagina 1 -->
<svg xmlns="http://www.w3.org/2000/svg" xmlns:v="http://schemas.microsoft.com/visio/2003/SVGExtensions/" width="4.02262in"
		height="3.24835in" viewBox="0 0 289.629 233.881" xml:space="preserve" color-interpolation-filters="sRGB" class="st37">
	<v:documentProperties v:langID="1040" v:metric="true" v:viewMarkup="false">
		<v:userDefs>
			<v:ud v:nameU="MBSAAvail" v:prompt="" v:val="VT0(2):26"/>
			<v:ud v:nameU="MBSAAddinEnabled" v:prompt="" v:val="VT0(2):26"/>
			<v:ud v:nameU="MBSAAddinOutlineVisible" v:prompt="" v:val="VT0(1):26"/>
		</v:userDefs>
	</v:documentProperties>

	<style type="text/css">
	<![CDATA[
		.st1 {fill:#ffffff;stroke:none;stroke-linecap:round;stroke-linejoin:round;stroke-width:0.72}
		.st2 {fill:#afc2da;stroke:#000000;stroke-linecap:round;stroke-linejoin:round;stroke-width:0.72}
		.st3 {fill:#c8d6e6;stroke:#000000;stroke-linecap:round;stroke-linejoin:round;stroke-width:0.72}
		.st4 {fill:none;stroke:none;stroke-linecap:round;stroke-linejoin:round;stroke-width:0.72}
		.st5 {fill:#000000;font-family:Arial;font-size:0.666664em}
		.st6 {fill:#cadaa9;stroke:#000000;stroke-linecap:round;stroke-linejoin:round;stroke-width:0.72}
		.st7 {fill:#ff00ff;fill-opacity:0;stroke:#000000;stroke-linecap:round;stroke-linejoin:round;stroke-opacity:0;stroke-width:0.72}
		.st8 {fill:url(#grad31-21);stroke:#ffffff;stroke-linecap:round;stroke-linejoin:round;stroke-width:0.72}
		.st9 {fill:url(#grad30-30);stroke:#ffffff;stroke-linecap:round;stroke-linejoin:round;stroke-width:0.72}
		.st10 {fill:url(#grad32-37);stroke:#000000;stroke-linecap:round;stroke-linejoin:round;stroke-width:0.72}
		.st11 {stroke:#ffffff;stroke-linecap:round;stroke-linejoin:round;stroke-width:0.72}
		.st12 {stroke:#000000;stroke-linecap:round;stroke-linejoin:round;stroke-width:0.72}
		.st13 {fill:url(#grad35-51);stroke:#000000;stroke-linecap:round;stroke-linejoin:round;stroke-width:0.72}
		.st14 {fill:#ffffff;stroke:none;stroke-linecap:round;stroke-linejoin:round;stroke-width:0.24}
		.st15 {fill:#969696;stroke:none;stroke-linecap:round;stroke-linejoin:round;stroke-width:0.24}
		.st16 {fill:none;stroke:#000000;stroke-linecap:round;stroke-linejoin:round;stroke-width:1.5}
		.st17 {fill:url(#grad30-69)}
		.st18 {stroke:#ffffff;stroke-linecap:round;stroke-linejoin:round;stroke-width:0.36}
		.st19 {fill:url(#grad32-74)}
		.st20 {stroke:#a78450;stroke-linecap:round;stroke-linejoin:round;stroke-width:0.36}
		.st21 {fill:url(#grad31-81);stroke:#ffffff;stroke-linecap:round;stroke-linejoin:round;stroke-width:0.36}
		.st22 {stroke:#000000;stroke-linecap:round;stroke-linejoin:round;stroke-width:1.5}
		.st23 {fill:url(#grad31-90);stroke:#000000;stroke-linecap:round;stroke-linejoin:round;stroke-width:0.36}
		.st24 {stroke:#000000;stroke-linecap:round;stroke-linejoin:round;stroke-width:0.6}
		.st25 {fill:#000000;stroke:#000000;stroke-linecap:round;stroke-linejoin:round;stroke-width:0.36}
		.st26 {fill:url(#grad34-106);stroke:#ffffff;stroke-linecap:round;stroke-linejoin:round;stroke-width:0.12}
		.st27 {fill:url(#grad35-111);stroke:none;stroke-linecap:round;stroke-linejoin:round;stroke-width:0.12}
		.st28 {fill:#000000;stroke:none;stroke-linecap:round;stroke-linejoin:round;stroke-width:0.24}
		.st29 {stroke:#000000;stroke-linecap:round;stroke-linejoin:round;stroke-width:0.36}
		.st30 {fill:#f2f2f2;stroke:#000000;stroke-linecap:round;stroke-linejoin:round;stroke-width:0.72}
		.st31 {fill:#660033;stroke:#660033;stroke-linecap:round;stroke-linejoin:round;stroke-width:0.72}
		.st32 {stroke:#ffffff;stroke-linecap:round;stroke-linejoin:round;stroke-width:2.16}
		.st33 {fill:#000000;stroke:#000000;stroke-linecap:round;stroke-linejoin:round;stroke-width:0.72}
		.st34 {fill:#000000;font-family:Arial;font-size:0.666664em;font-weight:bold}
		.st35 {fill:#ffffff;stroke:none;stroke-linecap:butt;stroke-width:0.75}
		.st36 {fill:#7395bf;stroke:none;stroke-linecap:butt;stroke-width:0.75}
		.st37 {fill:none;fill-rule:evenodd;font-size:12;overflow:visible;stroke-linecap:square;stroke-miterlimit:3}
	]]>
	</style>

	<defs id="Patterns_And_Gradients">
		<pattern id="grad31-21" v:fillPattern="31" v:foreground="#da9792" v:background="#e4b4af" x="0" y="0" width="1" height="1"
				patternContentUnits="objectBoundingBox">
			<path d="M 0 0 L 0 1 L 1 1 z" style="fill:url(#grad28-22)"/>
			<path d="M 0 0 L 1 0 L 1 1 z" style="fill:url(#grad25-23)"/>
		</pattern>
		<linearGradient id="grad28-22" v:fillPattern="31" v:foreground="#da9792" v:background="#e4b4af" x1="0" y1="0" x2="0" y2="1">
			<stop offset="0" style="stop-color:#da9792;stop-opacity:1"/>
			<stop offset="1" style="stop-color:#e4b4af;stop-opacity:1"/>
		</linearGradient>
		<linearGradient id="grad25-23" v:fillPattern="31" v:foreground="#da9792" v:background="#e4b4af" x1="0" y1="0" x2="1" y2="0">
			<stop offset="0" style="stop-color:#da9792;stop-opacity:1"/>
			<stop offset="1" style="stop-color:#e4b4af;stop-opacity:1"/>
		</linearGradient>
		<linearGradient id="grad30-30" v:fillPattern="30" v:foreground="#da9792" v:background="#e4b4af" x1="0" y1="1" x2="0" y2="0">
			<stop offset="0" style="stop-color:#da9792;stop-opacity:1"/>
			<stop offset="1" style="stop-color:#e4b4af;stop-opacity:1"/>
		</linearGradient>
		<pattern id="grad32-37" v:fillPattern="32" v:foreground="#da9792" v:background="#e4b4af" x="0" y="0" width="1" height="1"
				patternContentUnits="objectBoundingBox">
			<path d="M 0 1 L 0 0 L 1 0 z" style="fill:url(#grad27-38)"/>
			<path d="M 0 1 L 1 1 L 1 0 z" style="fill:url(#grad28-22)"/>
		</pattern>
		<linearGradient id="grad27-38" v:fillPattern="32" v:foreground="#da9792" v:background="#e4b4af" x1="1" y1="0" x2="0" y2="0">
			<stop offset="0" style="stop-color:#da9792;stop-opacity:1"/>
			<stop offset="1" style="stop-color:#e4b4af;stop-opacity:1"/>
		</linearGradient>
		<pattern id="grad35-51" v:fillPattern="35" v:foreground="#ffffff" v:background="#c6d1e3" x="0" y="0" width="1" height="1"
				patternContentUnits="objectBoundingBox">
			<path d="M 0.5 0.5 L 0 0 L 0 1 z" style="fill:url(#grad27-52)"/>
			<path d="M 0.5 0.5 L 1 0 L 1 1 z" style="fill:url(#grad25-53)"/>
			<path d="M 0.5 0.5 L 0 0 L 1 0 z" style="fill:url(#grad30-54)"/>
			<path d="M 0.5 0.5 L 0 1 L 1 1 z" style="fill:url(#grad28-55)"/>
		</pattern>
		<linearGradient id="grad27-52" v:fillPattern="35" v:foreground="#ffffff" v:background="#c6d1e3" x1="1" y1="0" x2="0" y2="0">
			<stop offset="0" style="stop-color:#ffffff;stop-opacity:1"/>
			<stop offset="1" style="stop-color:#c6d1e3;stop-opacity:1"/>
		</linearGradient>
		<linearGradient id="grad25-53" v:fillPattern="35" v:foreground="#ffffff" v:background="#c6d1e3" x1="0" y1="0" x2="1" y2="0">
			<stop offset="0" style="stop-color:#ffffff;stop-opacity:1"/>
			<stop offset="1" style="stop-color:#c6d1e3;stop-opacity:1"/>
		</linearGradient>
		<linearGradient id="grad30-54" v:fillPattern="35" v:foreground="#ffffff" v:background="#c6d1e3" x1="0" y1="1" x2="0" y2="0">
			<stop offset="0" style="stop-color:#ffffff;stop-opacity:1"/>
			<stop offset="1" style="stop-color:#c6d1e3;stop-opacity:1"/>
		</linearGradient>
		<linearGradient id="grad28-55" v:fillPattern="35" v:foreground="#ffffff" v:background="#c6d1e3" x1="0" y1="0" x2="0" y2="1">
			<stop offset="0" style="stop-color:#ffffff;stop-opacity:1"/>
			<stop offset="1" style="stop-color:#c6d1e3;stop-opacity:1"/>
		</linearGradient>
		<linearGradient id="grad30-69" v:fillPattern="30" v:foreground="#ffffff" v:background="#e1d8c1" x1="0" y1="1" x2="0" y2="0">
			<stop offset="0" style="stop-color:#ffffff;stop-opacity:1"/>
			<stop offset="1" style="stop-color:#e1d8c1;stop-opacity:1"/>
		</linearGradient>
		<pattern id="grad32-74" v:fillPattern="32" v:foreground="#ffffff" v:background="#c9ba96" x="0" y="0" width="1" height="1"
				patternContentUnits="objectBoundingBox">
			<path d="M 0 1 L 0 0 L 1 0 z" style="fill:url(#grad27-75)"/>
			<path d="M 0 1 L 1 1 L 1 0 z" style="fill:url(#grad28-76)"/>
		</pattern>
		<linearGradient id="grad27-75" v:fillPattern="32" v:foreground="#ffffff" v:background="#c9ba96" x1="1" y1="0" x2="0" y2="0">
			<stop offset="0" style="stop-color:#ffffff;stop-opacity:1"/>
			<stop offset="1" style="stop-color:#c9ba96;stop-opacity:1"/>
		</linearGradient>
		<linearGradient id="grad28-76" v:fillPattern="32" v:foreground="#ffffff" v:background="#c9ba96" x1="0" y1="0" x2="0" y2="1">
			<stop offset="0" style="stop-color:#ffffff;stop-opacity:1"/>
			<stop offset="1" style="stop-color:#c9ba96;stop-opacity:1"/>
		</linearGradient>
		<pattern id="grad31-81" v:fillPattern="31" v:foreground="#ffffff" v:background="#b6a06d" x="0" y="0" width="1" height="1"
				patternContentUnits="objectBoundingBox">
			<path d="M 0 0 L 0 1 L 1 1 z" style="fill:url(#grad28-82)"/>
			<path d="M 0 0 L 1 0 L 1 1 z" style="fill:url(#grad25-83)"/>
		</pattern>
		<linearGradient id="grad28-82" v:fillPattern="31" v:foreground="#ffffff" v:background="#b6a06d" x1="0" y1="0" x2="0" y2="1">
			<stop offset="0" style="stop-color:#ffffff;stop-opacity:1"/>
			<stop offset="1" style="stop-color:#b6a06d;stop-opacity:1"/>
		</linearGradient>
		<linearGradient id="grad25-83" v:fillPattern="31" v:foreground="#ffffff" v:background="#b6a06d" x1="0" y1="0" x2="1" y2="0">
			<stop offset="0" style="stop-color:#ffffff;stop-opacity:1"/>
			<stop offset="1" style="stop-color:#b6a06d;stop-opacity:1"/>
		</linearGradient>
		<pattern id="grad31-90" v:fillPattern="31" v:foreground="#ffffff" v:background="#339966" x="0" y="0" width="1" height="1"
				patternContentUnits="objectBoundingBox">
			<path d="M 0 0 L 0 1 L 1 1 z" style="fill:url(#grad28-91)"/>
			<path d="M 0 0 L 1 0 L 1 1 z" style="fill:url(#grad25-92)"/>
		</pattern>
		<linearGradient id="grad28-91" v:fillPattern="31" v:foreground="#ffffff" v:background="#339966" x1="0" y1="0" x2="0" y2="1">
			<stop offset="0" style="stop-color:#ffffff;stop-opacity:1"/>
			<stop offset="1" style="stop-color:#339966;stop-opacity:1"/>
		</linearGradient>
		<linearGradient id="grad25-92" v:fillPattern="31" v:foreground="#ffffff" v:background="#339966" x1="0" y1="0" x2="1" y2="0">
			<stop offset="0" style="stop-color:#ffffff;stop-opacity:1"/>
			<stop offset="1" style="stop-color:#339966;stop-opacity:1"/>
		</linearGradient>
		<linearGradient id="grad30-96" v:fillPattern="30" v:foreground="#ffffff" v:background="#e7e4cd" x1="0" y1="1" x2="0" y2="0">
			<stop offset="0" style="stop-color:#ffffff;stop-opacity:1"/>
			<stop offset="1" style="stop-color:#e7e4cd;stop-opacity:1"/>
		</linearGradient>
		<pattern id="grad34-106" v:fillPattern="34" v:foreground="#ffffff" v:background="#e7e4cd" x="0" y="0" width="1" height="1"
				patternContentUnits="objectBoundingBox">
			<path d="M 0 0 L 1 0 L 1 1 z" style="fill:url(#grad30-96)"/>
			<path d="M 0 0 L 0 1 L 1 1 z" style="fill:url(#grad27-107)"/>
		</pattern>
		<linearGradient id="grad27-107" v:fillPattern="34" v:foreground="#ffffff" v:background="#e7e4cd" x1="1" y1="0" x2="0"
				y2="0">
			<stop offset="0" style="stop-color:#ffffff;stop-opacity:1"/>
			<stop offset="1" style="stop-color:#e7e4cd;stop-opacity:1"/>
		</linearGradient>
		<pattern id="grad35-111" v:fillPattern="35" v:foreground="#000000" v:foregroundOpacity="0.4" v:background="#e7e4cd"
				v:backgroundOpacity="0.4" x="0" y="0" width="1" height="1" patternContentUnits="objectBoundingBox">
			<path d="M 0.5 0.5 L 0 0 L 0 1 z" style="fill:url(#grad27-112)"/>
			<path d="M 0.5 0.5 L 1 0 L 1 1 z" style="fill:url(#grad25-113)"/>
			<path d="M 0.5 0.5 L 0 0 L 1 0 z" style="fill:url(#grad30-114)"/>
			<path d="M 0.5 0.5 L 0 1 L 1 1 z" style="fill:url(#grad28-115)"/>
		</pattern>
		<linearGradient id="grad27-112" v:fillPattern="35" v:foreground="#000000" v:foregroundOpacity="0.4" v:background="#e7e4cd"
				v:backgroundOpacity="0.4" x1="1" y1="0" x2="0" y2="0">
			<stop offset="0" style="stop-color:#000000;stop-opacity:0.4"/>
			<stop offset="1" style="stop-color:#e7e4cd;stop-opacity:0.4"/>
		</linearGradient>
		<linearGradient id="grad25-113" v:fillPattern="35" v:foreground="#000000" v:foregroundOpacity="0.4" v:background="#e7e4cd"
				v:backgroundOpacity="0.4" x1="0" y1="0" x2="1" y2="0">
			<stop offset="0" style="stop-color:#000000;stop-opacity:0.4"/>
			<stop offset="1" style="stop-color:#e7e4cd;stop-opacity:0.4"/>
		</linearGradient>
		<linearGradient id="grad30-114" v:fillPattern="35" v:foreground="#000000" v:foregroundOpacity="0.4" v:background="#e7e4cd"
				v:backgroundOpacity="0.4" x1="0" y1="1" x2="0" y2="0">
			<stop offset="0" style="stop-color:#000000;stop-opacity:0.4"/>
			<stop offset="1" style="stop-color:#e7e4cd;stop-opacity:0.4"/>
		</linearGradient>
		<linearGradient id="grad28-115" v:fillPattern="35" v:foreground="#000000" v:foregroundOpacity="0.4" v:background="#e7e4cd"
				v:backgroundOpacity="0.4" x1="0" y1="0" x2="0" y2="1">
			<stop offset="0" style="stop-color:#000000;stop-opacity:0.4"/>
			<stop offset="1" style="stop-color:#e7e4cd;stop-opacity:0.4"/>
		</linearGradient>
	</defs>
	<g v:mID="0" v:index="1" v:groupContext="foregroundPage">
		<title>Pagina 1</title>
		<v:pageProperties v:drawingScale="0.0393701" v:pageScale="0.0393701" v:drawingUnits="24" v:shadowOffsetX="8.50394"
				v:shadowOffsetY="-8.50394"/>
		<v:layer v:name="symbols" v:index="0"/>
		<g id="shape4-1" v:mID="4" v:groupContext="shape" transform="translate(0.72,-0.72)">
			<title>Foglio.4</title>
			<rect x="0" y="1.44" width="288.189" height="232.441" class="st1"/>
		</g>
		<g id="shape52-3" v:mID="52" v:groupContext="shape" transform="translate(6.38929,-6.38929)">
			<title>Foglio.52</title>
			<rect x="0" y="168.684" width="277.795" height="65.1969" class="st2"/>
		</g>
		<g id="shape5-5" v:mID="5" v:groupContext="shape" transform="translate(6.38929,-77.2554)">
			<title>Foglio.5</title>
			<rect x="0" y="85.2097" width="79.3701" height="148.671" class="st3"/>
		</g>
		<g id="shape6-7" v:mID="6" v:groupContext="shape" transform="translate(9.22394,-206.232)">
			<title>Foglio.6</title>
			<desc>Client</desc>
			<v:textBlock v:margins="rect(4,4,4,4)" v:tabSpace="42.5197"/>
			<v:textRect cx="27.6378" cy="225.377" width="55.28" height="17.0079"/>
			<rect x="0" y="216.873" width="55.2756" height="17.0079" class="st4"/>
			<text x="17.41" y="227.78" class="st5" v:langID="1040"><v:paragraph v:horizAlign="1"/><v:tabList/>Client</text>		</g>
		<g id="shape8-10" v:mID="8" v:groupContext="shape" transform="translate(97.098,-77.2554)">
			<title>Foglio.8</title>
			<rect x="0" y="83.6447" width="186.142" height="150.236" class="st6"/>
		</g>
		<g id="shape9-12" v:mID="9" v:groupContext="shape" transform="translate(131.114,-206.232)">
			<title>Foglio.9</title>
			<desc>Jakarta EE Server</desc>
			<v:textBlock v:margins="rect(4,4,4,4)" v:tabSpace="42.5197"/>
			<v:textRect cx="39.685" cy="223.251" width="79.38" height="21.2598"/>
			<rect x="0" y="212.621" width="79.3701" height="21.2598" class="st4"/>
			<text x="7.23" y="225.65" class="st5" v:langID="1040"><v:paragraph v:horizAlign="1"/><v:tabList/>Jakarta EE Server</text>		</g>
		<g id="group16-15" transform="translate(81.5074,-133.948) scale(-1,1)" v:mID="16" v:groupContext="group">
			<v:custProps>
				<v:cp v:nameU="ShapeClass" v:lbl="ShapeClass" v:type="0" v:invis="true" v:ask="false" v:langID="1040"
						v:val="VT4(Equipment)"/>
				<v:cp v:nameU="ShapeType" v:lbl="ShapeType" v:type="0" v:invis="true" v:ask="false" v:langID="1040"
						v:val="VT4(Computer)"/>
				<v:cp v:nameU="SubShapeType" v:lbl="SubShapeType" v:type="0" v:invis="true" v:ask="false" v:langID="1040"
						v:val="VT4(Portatile)"/>
				<v:cp v:nameU="Manufacturer" v:lbl="Produttore" v:type="0" v:sortKey="Equipment" v:invis="false" v:ask="false"
						v:langID="1040"/>
				<v:cp v:nameU="ProductNumber" v:lbl="Numero prodotto" v:type="0" v:sortKey="Equipment" v:invis="false"
						v:ask="false" v:langID="1040"/>
				<v:cp v:nameU="PartNumber" v:lbl="Numero parte" v:type="0" v:sortKey="Equipment" v:invis="false" v:ask="false"
						v:langID="1040"/>
				<v:cp v:nameU="ProductDescription" v:lbl="Descrizione prodotto" v:type="0" v:sortKey="Equipment" v:invis="false"
						v:ask="false" v:langID="1040"/>
				<v:cp v:nameU="AssetNumber" v:lbl="Numero inventario" v:type="0" v:sortKey="Asset" v:invis="false" v:ask="false"
						v:langID="1040"/>
				<v:cp v:nameU="SerialNumber" v:lbl="Numero di serie" v:type="0" v:sortKey="Asset" v:invis="false" v:ask="false"
						v:langID="1040"/>
				<v:cp v:nameU="Location" v:lbl="Posizione" v:type="0" v:sortKey="Asset" v:invis="false" v:ask="false"
						v:langID="1040"/>
				<v:cp v:nameU="Building" v:lbl="Edificio" v:type="0" v:sortKey="Asset" v:invis="false" v:ask="false"
						v:langID="1040"/>
				<v:cp v:nameU="Room" v:lbl="Stanza" v:type="0" v:sortKey="Asset" v:invis="false" v:ask="false" v:langID="1040"/>
				<v:cp v:nameU="NetworkName" v:lbl="Nome rete" v:type="0" v:sortKey="Network" v:invis="false" v:ask="false"
						v:langID="1040"/>
				<v:cp v:nameU="IPAddress" v:lbl="Indirizzo IP" v:type="0" v:sortKey="Network" v:invis="false" v:ask="false"
						v:langID="1040"/>
				<v:cp v:nameU="SubnetMask" v:lbl="Subnet mask" v:type="0" v:sortKey="Network" v:invis="false" v:ask="false"
						v:langID="1040"/>
				<v:cp v:nameU="AdminInterface" v:lbl="Interfaccia amministrativa" v:type="0" v:sortKey="Network" v:invis="false"
						v:ask="false" v:langID="1040"/>
				<v:cp v:nameU="NumberofPorts" v:lbl="Numero di porte" v:type="0" v:sortKey="Network" v:invis="false" v:ask="false"
						v:langID="1040"/>
				<v:cp v:nameU="MACAddress" v:lbl="Indirizzo MAC" v:type="0" v:sortKey="Network" v:invis="false" v:ask="false"
						v:langID="1040"/>
				<v:cp v:nameU="CommunityString" v:lbl="Stringa comunità" v:type="0" v:sortKey="Network" v:invis="false"
						v:ask="false" v:langID="1040"/>
				<v:cp v:nameU="NetworkDescription" v:lbl="Descrizione rete" v:type="0" v:sortKey="Network" v:invis="false"
						v:ask="false" v:langID="1040"/>
				<v:cp v:nameU="HardDriveSize" v:lbl="Capacità disco rigido" v:type="0" v:sortKey="Workstation" v:invis="false"
						v:ask="false" v:langID="1040"/>
				<v:cp v:nameU="CPU" v:lbl="CPU" v:type="0" v:sortKey="Workstation" v:invis="false" v:ask="false" v:langID="1040"/>
				<v:cp v:nameU="Memory" v:lbl="Memoria" v:type="0" v:sortKey="Workstation" v:invis="false" v:ask="false"
						v:langID="1040"/>
				<v:cp v:nameU="OperatingSystem" v:lbl="Sistema operativo" v:type="0" v:sortKey="Workstation" v:invis="false"
						v:ask="false" v:langID="1040"/>
			</v:custProps>
			<v:userDefs>
				<v:ud v:nameU="HasText" v:val="VT0(0):5"/>
				<v:ud v:nameU="ShapeClass" v:val="VT0(5):26"/>
				<v:ud v:nameU="ShapeType" v:val="VT0(6):26"/>
				<v:ud v:nameU="SubShapeType" v:val="VT0(37):26"/>
				<v:ud v:nameU="SolSH" v:val="VT14({BF0433D9-CD73-4EB5-8390-8653BE590246}):41"/>
				<v:ud v:nameU="visLegendShape" v:val="VT0(2):26"/>
				<v:ud v:nameU="visVersion" v:prompt="" v:val="VT0(12):26"/>
			</v:userDefs>
			<title>Computer portatile</title>
			<g id="shape17-16" v:mID="17" v:groupContext="shape">
				<title>Foglio.17</title>
				<path d="M70.87 186.4 L59.84 178.86 L34.54 165.45 L31.42 165.45 L31.39 165.56 L22.82 194.48 L0 207.66 L0 212.62 A85.44
							 84.1403 -90.05 0 0 36.48 233.88 L60.94 219.71 L70.87 186.4 Z" class="st7"/>
			</g>
			<g id="shape18-18" v:mID="18" v:groupContext="shape" transform="translate(36.4751,0)">
				<title>Foglio.18</title>
				<path d="M0.02 228.57 L26.24 213.33 L24.47 219.71 L0 233.88 L0.02 228.57 Z" class="st8"/>
			</g>
			<g id="shape19-24" v:mID="19" v:groupContext="shape" transform="translate(59.1434,-18.4489)">
				<title>Foglio.19</title>
				<path d="M0 233.88 L8.6 204.85 L11.72 204.85 L3.57 231.78 L0 233.88 Z" class="st8"/>
			</g>
			<g id="shape20-27" v:mID="20" v:groupContext="shape" transform="translate(31.3228,-47.4803)">
				<title>Foglio.20</title>
				<path d="M0 213.05 L3.22 212.93 L28.52 226.34 L39.54 233.88 L36.43 233.88 A1571.06 1547.16 87.95 0 1 0 213.05 Z"
						class="st9"/>
			</g>
			<g id="shape21-31" v:mID="21" v:groupContext="shape" transform="translate(0,-5.31496)">
				<title>Foglio.21</title>
				<path d="M0 212.98 L22.82 199.79 L59.14 220.75 L36.5 233.88 A102.944 101.378 89.17 0 1 0 212.98 Z" class="st9"/>
			</g>
			<g id="shape22-34" v:mID="22" v:groupContext="shape" transform="translate(22.8189,-18.4489)">
				<title>Foglio.22</title>
				<path d="M36.32 233.88 A4962.32 4886.83 -91.15 0 0 0 212.93 L8.6 183.9 L44.93 204.85 L36.32 233.88 Z" class="st10"/>
			</g>
			<g id="shape23-39" v:mID="23" v:groupContext="shape">
				<title>Foglio.23</title>
				<path d="M-0 212.62 A85.44 84.1403 -90.05 0 0 36.48 233.88 L36.5 228.57 A85.6626 84.3595 88.88 0 1 0 207.66 L0 212.62
							 Z" class="st10"/>
			</g>
			<g id="shape25-42" v:mID="25" v:groupContext="shape" transform="translate(25.5118,-21.437)">
				<title>Foglio.25</title>
				<path d="M7.51 190.3 L0 215.38 L32.17 233.88" class="st11"/>
			</g>
			<g id="shape26-45" v:mID="26" v:groupContext="shape" transform="translate(54.2126,-1.27559) scale(-1,1)">
				<title>Foglio.26</title>
				<path d="M0 221.69 L15.66 230.76 L15.66 233.88" class="st12"/>
			</g>
			<g id="shape27-48" v:mID="27" v:groupContext="shape" transform="translate(26.5039,-21.437)">
				<title>Foglio.27</title>
				<path d="M0 215.1 L7.23 190.72 L6.52 190.3 A1396.8 1375.55 89.01 0 1 38.55 208.79 L31.18 233.88 L31.32 233.17 A1231.81
							 1213.07 88.95 0 1 -0 215.1 Z" class="st13"/>
			</g>
			<g id="group28-56" transform="translate(5.13165,-7.56695)" v:mID="28" v:groupContext="group">
				<title>Foglio.28</title>
				<g id="shape29-57" v:mID="29" v:groupContext="shape" transform="translate(0,-0.708661)">
					<title>Foglio.29</title>
					<path d="M0 214.97 L3.27 216.87 L6.35 215.09 L3.08 213.2 L0 214.97 Z M4.62 212.31 L7.89 214.2 L10.98 212.42 L7.7
								 210.53 L4.62 212.31 Z M9.24 209.64 L12.52 211.53 L15.6 209.75 L12.32 207.86 L9.24 209.64 Z M13.86
								 206.97 L17.14 208.86 L20.22 207.08 L16.94 205.19 L13.86 206.97 Z M18.77 209.81 L22.05 211.7 L25.13
								 209.92 L21.85 208.03 L18.77 209.81 Z M23.68 212.64 L26.96 214.53 L30.04 212.76 L26.77 210.87 L23.68
								 212.64 Z M28.6 215.48 L31.87 217.37 L34.95 215.59 L31.68 213.7 L28.6 215.48 Z M38.42 221.15 L41.7
								 223.04 L44.78 221.26 L41.5 219.37 L38.42 221.15 Z M43.33 223.99 L46.61 225.88 L49.69 224.1 L46.41
								 222.21 L43.33 223.99 Z M38.71 226.66 L41.99 228.55 L45.07 226.77 L41.79 224.88 L38.71 226.66 Z M33.8
								 223.82 L37.08 225.71 L40.16 223.93 L36.88 222.04 L33.8 223.82 Z M33.51 218.32 L36.78 220.21 L39.86
								 218.43 L36.59 216.54 L33.51 218.32 Z M28.89 220.98 L32.16 222.87 L35.24 221.1 L31.97 219.2 L28.89
								 220.98 Z M23.98 218.15 L27.25 220.04 L30.33 218.26 L27.06 216.37 L23.98 218.15 Z M19.06 215.31 L22.34
								 217.2 L25.42 215.42 L22.14 213.53 L19.06 215.31 Z M14.15 212.48 L17.43 214.37 L20.51 212.59 L17.23
								 210.7 L14.15 212.48 Z M9.53 215.14 L12.81 217.03 L15.89 215.26 L12.61 213.36 L9.53 215.14 Z M14.44
								 217.98 L17.72 219.87 L20.8 218.09 L17.52 216.2 L14.44 217.98 Z M19.36 220.81 L22.63 222.71 L25.71
								 220.93 L22.44 219.04 L19.36 220.81 Z M24.27 223.65 L27.54 225.54 L30.62 223.76 L27.35 221.87 L24.27
								 223.65 Z M29.18 226.49 L32.46 228.38 L35.54 226.6 L32.26 224.71 L29.18 226.49 Z M34.09 229.32 L37.37
								 231.21 L40.45 229.44 L37.17 227.54 L34.09 229.32 Z M29.47 231.99 L32.75 233.88 L35.83 232.1 L32.55
								 230.21 L29.47 231.99 Z M24.56 229.15 L27.84 231.04 L30.92 229.27 L27.64 227.38 L24.56 229.15 Z M9.82
								 220.65 L22.92 228.21 L26 226.43 L12.9 218.87 L9.82 220.65 Z M4.91 217.81 L8.19 219.7 L11.27 217.92
								 L7.99 216.03 L4.91 217.81 Z" class="st14"/>
				</g>
				<g id="shape30-59" v:mID="30" v:groupContext="shape">
					<title>Foglio.30</title>
					<path d="M13.86 206.97 L17.14 208.86 L17.14 208.15 L13.86 206.26 L13.86 206.97 Z M18.77 209.81 L22.05 211.7 L22.05
								 210.99 L18.77 209.1 L18.77 209.81 Z M23.68 212.64 L26.96 214.53 L26.96 213.83 L23.68 211.94 L23.68
								 212.64 Z M28.6 215.48 L31.87 217.37 L31.87 216.66 L28.6 214.77 L28.6 215.48 Z M33.51 218.32 L36.78
								 220.21 L36.78 219.5 L33.51 217.61 L33.51 218.32 Z M38.42 221.15 L41.7 223.04 L41.7 222.33 L38.42
								 220.44 L38.42 221.15 Z M17.14 208.15 L17.14 208.86 L20.22 207.08 L20.22 206.38 L17.14 208.15 Z M22.05
								 210.99 L22.05 211.7 L25.13 209.92 L25.13 209.21 L22.05 210.99 Z M26.96 213.83 L26.96 214.53 L30.04
								 212.76 L30.04 212.05 L26.96 213.83 Z M31.87 216.66 L31.87 217.37 L34.95 215.59 L34.95 214.88 L31.87
								 216.66 Z M36.78 219.5 L36.78 220.21 L39.86 218.43 L39.86 217.72 L36.78 219.5 Z M41.7 222.33 L41.7
								 223.04 L44.78 221.26 L44.78 220.56 L41.7 222.33 Z M43.33 223.99 L46.61 225.88 L46.61 225.17 L43.33
								 223.28 L43.33 223.99 Z M46.61 225.17 L46.61 225.88 L49.69 224.1 L49.69 223.39 L46.61 225.17 Z M9.24
								 209.64 L12.52 211.53 L12.52 210.82 L9.24 208.93 L9.24 209.64 Z M14.15 212.48 L17.43 214.37 L17.43
								 213.66 L14.15 211.77 L14.15 212.48 Z M19.06 215.31 L22.34 217.2 L22.34 216.49 L19.06 214.6 L19.06
								 215.31 Z M23.98 218.15 L27.25 220.04 L27.25 219.33 L23.98 217.44 L23.98 218.15 Z M28.89 220.98 L32.16
								 222.87 L32.16 222.17 L28.89 220.27 L28.89 220.98 Z M33.8 223.82 L37.08 225.71 L37.08 225 L33.8 223.11
								 L33.8 223.82 Z M12.52 210.82 L12.52 211.53 L15.6 209.75 L15.6 209.04 L12.52 210.82 Z M17.43 213.66
								 L17.43 214.37 L20.51 212.59 L20.51 211.88 L17.43 213.66 Z M22.34 216.49 L22.34 217.2 L25.42 215.42
								 L25.42 214.71 L22.34 216.49 Z M27.25 219.33 L27.25 220.04 L30.33 218.26 L30.33 217.55 L27.25 219.33
								 Z M32.16 222.17 L32.16 222.87 L35.24 221.1 L35.24 220.39 L32.16 222.17 Z M37.08 225 L37.08 225.71
								 L40.16 223.93 L40.16 223.22 L37.08 225 Z M38.71 226.66 L41.99 228.55 L41.99 227.84 L38.71 225.95
								 L38.71 226.66 Z M41.99 227.84 L41.99 228.55 L45.07 226.77 L45.07 226.06 L41.99 227.84 Z M4.62 212.31
								 L7.89 214.2 L7.89 213.49 L4.62 211.6 L4.62 212.31 Z M9.53 215.14 L12.81 217.03 L12.81 216.32 L9.53
								 214.43 L9.53 215.14 Z M14.44 217.98 L17.72 219.87 L17.72 219.16 L14.44 217.27 L14.44 217.98 Z M19.36
								 220.81 L22.63 222.71 L22.63 222 L19.36 220.11 L19.36 220.81 Z M24.27 223.65 L27.54 225.54 L27.54
								 224.83 L24.27 222.94 L24.27 223.65 Z M29.18 226.49 L32.46 228.38 L32.46 227.67 L29.18 225.78 L29.18
								 226.49 Z M7.89 213.49 L7.89 214.2 L10.98 212.42 L10.98 211.71 L7.89 213.49 Z M12.81 216.32 L12.81
								 217.03 L15.89 215.26 L15.89 214.55 L12.81 216.32 Z M17.72 219.16 L17.72 219.87 L20.8 218.09 L20.8
								 217.38 L17.72 219.16 Z M22.63 222 L22.63 222.71 L25.71 220.93 L25.71 220.22 L22.63 222 Z M27.54
								 224.83 L27.54 225.54 L30.62 223.76 L30.62 223.05 L27.54 224.83 Z M32.46 227.67 L32.46 228.38 L35.54
								 226.6 L35.54 225.89 L32.46 227.67 Z M34.09 229.32 L37.37 231.21 L37.37 230.5 L34.09 228.61 L34.09
								 229.32 Z M37.37 230.5 L37.37 231.21 L40.45 229.44 L40.45 228.73 L37.37 230.5 Z M0 214.97 L3.27 216.87
								 L3.27 216.16 L0 214.27 L0 214.97 Z M4.91 217.81 L8.19 219.7 L8.19 218.99 L4.91 217.1 L4.91 217.81
								 Z M9.82 220.65 L22.92 228.21 L22.92 227.5 L9.82 219.94 L9.82 220.65 Z M24.56 229.15 L27.84 231.04
								 L27.84 230.34 L24.56 228.45 L24.56 229.15 Z M3.27 216.16 L3.27 216.87 L6.35 215.09 L6.35 214.38
								 L3.27 216.16 Z M8.19 218.99 L8.19 219.7 L11.27 217.92 L11.27 217.21 L8.19 218.99 Z M22.92 227.5
								 L22.92 228.21 L26 226.43 L26 225.72 L22.92 227.5 Z M27.84 230.34 L27.84 231.04 L30.92 229.27 L30.92
								 228.56 L27.84 230.34 Z M29.47 231.99 L32.75 233.88 L32.75 233.17 L29.47 231.28 L29.47 231.99 Z M32.75
								 233.17 L32.75 233.88 L35.83 232.1 L35.83 231.39 L32.75 233.17 Z" class="st15"/>
				</g>
			</g>
			<g id="shape31-61" v:mID="31" v:groupContext="shape">
				<title>Foglio.31</title>
				<path d="M36.48 233.88 L60.94 219.71 L70.87 186.4 L34.54 165.45 L31.42 165.45 L22.82 194.48 L0 207.66 L0 212.62 A86.9113
							 85.5892 -90.05 0 0 36.48 233.88 Z" class="st16"/>
			</g>
		</g>
		<g id="group32-63" transform="translate(223.561,-134.368) scale(-1,1)" v:mID="32" v:groupContext="group">
			<v:custProps>
				<v:cp v:nameU="Manufacturer" v:lbl="Produttore" v:type="0" v:sortKey="Equipment" v:invis="false" v:ask="false"
						v:langID="1040"/>
				<v:cp v:nameU="ProductNumber" v:lbl="Numero prodotto" v:type="0" v:sortKey="Equipment" v:invis="false"
						v:ask="false" v:langID="1040"/>
				<v:cp v:nameU="PartNumber" v:lbl="Numero parte" v:type="0" v:sortKey="Equipment" v:invis="false" v:ask="false"
						v:langID="1040"/>
				<v:cp v:nameU="ProductDescription" v:lbl="Descrizione prodotto" v:type="0" v:sortKey="Equipment" v:invis="false"
						v:ask="false" v:langID="1040"/>
				<v:cp v:nameU="AssetNumber" v:lbl="Numero inventario" v:type="0" v:sortKey="Asset" v:invis="false" v:ask="false"
						v:langID="1040"/>
				<v:cp v:nameU="SerialNumber" v:lbl="Numero di serie" v:type="0" v:sortKey="Asset" v:invis="false" v:ask="false"
						v:langID="1040"/>
				<v:cp v:nameU="Location" v:lbl="Posizione" v:type="0" v:sortKey="Asset" v:invis="false" v:ask="false"
						v:langID="1040"/>
				<v:cp v:nameU="Building" v:lbl="Edificio" v:type="0" v:sortKey="Asset" v:invis="false" v:ask="false"
						v:langID="1040"/>
				<v:cp v:nameU="Room" v:lbl="Stanza" v:type="0" v:sortKey="Asset" v:invis="false" v:ask="false" v:langID="1040"/>
				<v:cp v:nameU="Department" v:lbl="Reparto" v:type="0" v:invis="false" v:ask="false" v:langID="1040"/>
				<v:cp v:nameU="NetworkName" v:lbl="Nome rete" v:type="0" v:sortKey="Network" v:invis="false" v:ask="false"
						v:langID="1040"/>
				<v:cp v:nameU="IPAddress" v:lbl="Indirizzo IP" v:type="0" v:sortKey="Network" v:invis="false" v:ask="false"
						v:langID="1040"/>
				<v:cp v:nameU="SubnetMask" v:lbl="Subnet mask" v:type="0" v:sortKey="Network" v:invis="false" v:ask="false"
						v:langID="1040"/>
				<v:cp v:nameU="AdminInterface" v:lbl="Interfaccia amministrativa" v:type="0" v:sortKey="Network" v:invis="false"
						v:ask="false" v:langID="1040"/>
				<v:cp v:nameU="NumberofPorts" v:lbl="Numero di porte" v:type="0" v:sortKey="Network" v:invis="false" v:ask="false"
						v:langID="1040"/>
				<v:cp v:nameU="CommunityString" v:lbl="Stringa comunità" v:type="0" v:sortKey="Network" v:invis="false"
						v:ask="false" v:langID="1040"/>
				<v:cp v:nameU="NetworkDescription" v:lbl="Descrizione rete" v:type="0" v:sortKey="Network" v:invis="false"
						v:ask="false" v:langID="1040"/>
				<v:cp v:nameU="CPU" v:lbl="CPU" v:type="0" v:sortKey="Workstation" v:invis="false" v:ask="false" v:langID="1040"/>
				<v:cp v:nameU="Memory" v:lbl="Memoria" v:type="0" v:sortKey="Workstation" v:invis="false" v:ask="false"
						v:langID="1040"/>
				<v:cp v:nameU="OperatingSystem" v:lbl="Sistema operativo" v:type="0" v:sortKey="Workstation" v:invis="false"
						v:ask="false" v:langID="1040"/>
				<v:cp v:nameU="BelongsTo" v:lbl="Appartiene a" v:type="0" v:invis="true" v:ask="false" v:langID="1040"/>
				<v:cp v:nameU="ShapeClass" v:lbl="ShapeClass" v:type="0" v:invis="true" v:ask="false" v:langID="1040"
						v:val="VT4(Equipment)"/>
				<v:cp v:nameU="ShapeType" v:lbl="ShapeType" v:type="0" v:invis="true" v:ask="false" v:langID="1040"
						v:val="VT4(Server)"/>
				<v:cp v:nameU="MACAddress" v:lbl="Indirizzo MAC" v:type="0" v:sortKey="Network" v:invis="false" v:ask="false"
						v:langID="1040"/>
				<v:cp v:nameU="HardDriveSize" v:lbl="Capacità disco rigido" v:type="0" v:sortKey="Workstation" v:invis="false"
						v:ask="false" v:langID="1040"/>
			</v:custProps>
			<v:userDefs>
				<v:ud v:nameU="HasText" v:val="VT0(0):5"/>
				<v:ud v:nameU="ShapeClass" v:val="VT0(5):26"/>
				<v:ud v:nameU="ShapeType" v:val="VT0(24):26"/>
				<v:ud v:nameU="SolSH" v:val="VT14({BF0433D9-CD73-4EB5-8390-8653BE590246}):41"/>
				<v:ud v:nameU="visLegendShape" v:val="VT0(2):26"/>
				<v:ud v:nameU="visVersion" v:prompt="" v:val="VT0(12):26"/>
			</v:userDefs>
			<title>Server</title>
			<g id="shape33-64" v:mID="33" v:groupContext="shape">
				<title>Foglio.33</title>
				<path d="M52.76 171.47 L32.47 160.6 L0 178.29 L0.01 223.72 A34.1626 31.9033 -180 0 0 20.04 233.88 L52.76 216.19 L52.76
							 171.47 Z M9.01 185.37 A35.2565 32.9249 -180 0 0 20.04 189.28 A34.8627 32.5571 0 0 1 9.01 185.37 Z"
						class="st7"/>
			</g>
			<g id="shape34-66" v:mID="34" v:groupContext="shape" transform="translate(0,-44.5991)">
				<title>Foglio.34</title>
				<path d="M20.02 233.88 L52.76 216.07 L32.47 205.2 L0 222.89 A35.2565 32.9249 -180 0 0 20.04 233.88 L20.02 233.88 Z"
						class="st17"/>
				<path d="M20.02 233.88 L52.76 216.07 L32.47 205.2 L0 222.89 A35.2565 32.9249 -180 0 0 20.04 233.88" class="st18"/>
			</g>
			<g id="shape35-71" v:mID="35" v:groupContext="shape" transform="translate(0.0119888,-3.41061E-013)">
				<title>Foglio.35</title>
				<path d="M20.02 189.28 A34.8627 32.5571 0 0 1 -0 178.24 L0 223.72 A34.1626 31.9033 -180 0 0 20.02 233.88 L20.01 189.28
							 L20.02 189.28 Z" class="st19"/>
				<path d="M20.02 189.28 A34.8627 32.5571 0 0 1 -0 178.24 L0 223.72 A34.1626 31.9033 -180 0 0 20.02 233.88 L20.01 189.28"
						class="st20"/>
			</g>
			<g id="shape37-78" v:mID="37" v:groupContext="shape" transform="translate(20.0226,-0.0504067)">
				<title>Foglio.37</title>
				<path d="M0 189.33 L0 233.88 L32.74 216.24 L32.74 171.52 L0 189.33 Z" class="st21"/>
			</g>
			<g id="shape38-84" v:mID="38" v:groupContext="shape" transform="translate(0,-0.00161536)">
				<title>Foglio.38</title>
				<path d="M52.76 171.47 L32.47 160.6 L0 178.29 L0.01 223.72 A34.1626 31.9033 -180 0 0 20.04 233.88 L52.76 216.19 L52.76
							 171.47" class="st22"/>
			</g>
			<g id="shape39-87" v:mID="39" v:groupContext="shape" transform="translate(-71.5049,-9.45272) rotate(-20)">
				<title>Foglio.39</title>
				<ellipse cx="1.5326" cy="231.794" rx="1.5326" ry="2.08692" class="st23"/>
			</g>
			<g id="shape40-93" v:mID="40" v:groupContext="shape" transform="translate(3.2469,-6.44499)">
				<title>Foglio.40</title>
				<path d="M0 221.5 A39.1091 35.7196 -96.44 0 0 13.53 228.45" class="st24"/>
				<path d="M0 224.22 A39.1091 35.7196 -96.44 0 0 13.53 231.16" class="st24"/>
				<path d="M0 226.93 A39.1091 35.7196 -96.44 0 0 13.53 233.88" class="st24"/>
			</g>
			<g id="group41-100" transform="translate(2.70575,-31.5868)" v:mID="41" v:groupContext="group">
				<title>Foglio.41</title>
				<g id="shape42-101" v:mID="42" v:groupContext="shape" transform="translate(0,-7.3105)">
					<title>Foglio.42</title>
					<path d="M0.48 226.93 A34.1225 31.8659 -180 0 0 14.01 233.88 a0.693349 0.647496 -180 0 0 -3.55271E-015 -1.26341
								 A33.1941 30.9989 0 0 1 0.75 225.87 a0.449188 0.419482 -180 0 0 -0.749913 0.356609 a0.978986 0.914242
								 -180 0 0 0.479337 0.704653 Z" class="st25"/>
				</g>
				<g id="shape43-103" v:mID="43" v:groupContext="shape" transform="translate(4.30259,-8.90301)">
					<title>Foglio.43</title>
					<path d="M4.16 233.83 A5.07015 3.08651 -90.9 0 0 0.1 231.81 A3.33591 1.66317 -180 0 0 4.16 233.83 Z"
							class="st26"/>
				</g>
				<g id="shape44-108" v:mID="44" v:groupContext="shape" transform="translate(0.541151,-0.0631704)">
					<title>Foglio.44</title>
					<path d="M0 223.39 L0 226.93 A36.7055 34.278 -180 0 0 13.53 233.88 L13.53 230.34 A37.9068 35.3999 0 0 1 -0 223.39
								 Z" class="st27"/>
				</g>
				<g id="shape45-116" v:mID="45" v:groupContext="shape" transform="translate(0.541151,-2.02145)">
					<title>Foglio.45</title>
					<path d="M0 226.93 A33.2226 31.0255 -180 0 0 13.53 233.88 L13.53 233 A36.7202 34.2918 0 0 1 -0 226.05 L0 226.93
								 Z" class="st28"/>
				</g>
				<g id="shape46-118" v:mID="46" v:groupContext="shape" transform="translate(0.541151,-0.126341)">
					<title>Foglio.46</title>
					<path d="M0 223.39 L0 226.93 A36.7055 34.278 -180 0 0 13.53 233.88" class="st18"/>
				</g>
				<g id="shape47-121" v:mID="47" v:groupContext="shape" transform="translate(0.541151,8.52651E-014)">
					<title>Foglio.47</title>
					<path d="M13.53 233.88 L13.53 230.34 A37.9068 35.3999 0 0 1 -0 223.39" class="st29"/>
				</g>
			</g>
		</g>
		<g id="shape48-125" v:mID="48" v:groupContext="shape" transform="translate(109.57,-82.9247)">
			<title>Foglio.48</title>
			<rect x="0" y="190.42" width="70.8661" height="43.4613" class="st30"/>
		</g>
		<g id="shape24-127" v:mID="24" v:groupContext="shape" transform="translate(110.279,-108.855)">
			<title>Foglio.24</title>
			<desc>Bean-A</desc>
			<v:textBlock v:margins="rect(4,4,4,4)" v:tabSpace="42.5197"/>
			<v:textRect cx="27.6378" cy="225.795" width="55.28" height="16.1717"/>
			<rect x="0" y="217.709" width="55.2756" height="16.1717" class="st4"/>
			<text x="14.3" y="228.2" class="st5" v:langID="1040"><v:paragraph v:horizAlign="1"/><v:tabList/>Bean-A</text>		</g>
		<g id="shape2-130" v:mID="2" v:groupContext="shape" transform="translate(24.8261,-52.5491) rotate(-30)">
			<title>Foglio.2</title>
			<ellipse cx="12.7542" cy="225.985" rx="12.7542" ry="7.89545" class="st31"/>
		</g>
		<g id="shape3-132" v:mID="3" v:groupContext="shape" transform="translate(24.196,-58.6976) rotate(-29.3825)">
			<title>Foglio.3</title>
			<path d="M0 231.02 C1.36 231.92 2.83 233.14 4.97 233.65 C5.69 233.82 6.49 233.92 7.22 233.87 C8.82 233.77 10.08 232.98
						 11.27 232.25 C12.91 231.24 14.42 230.31 16.59 229.88 C18 229.6 19.7 229.52 21.08 229.71 C22.88 229.95 24.16
						 230.63 25.46 231.02" class="st32"/>
		</g>
		<g id="shape66-135" v:mID="66" v:groupContext="shape" transform="translate(209.066,-82.9247)">
			<title>Foglio.66</title>
			<rect x="0" y="191.361" width="70.8661" height="42.5197" class="st30"/>
		</g>
		<g id="shape67-137" v:mID="67" v:groupContext="shape" transform="translate(209.775,-107.913)">
			<title>Foglio.67</title>
			<desc>Bean-B</desc>
			<v:textBlock v:margins="rect(4,4,4,4)" v:tabSpace="42.5197"/>
			<v:textRect cx="27.6378" cy="225.795" width="55.28" height="16.1717"/>
			<rect x="0" y="217.709" width="55.2756" height="16.1717" class="st4"/>
			<text x="14.3" y="228.2" class="st5" v:langID="1040"><v:paragraph v:horizAlign="1"/><v:tabList/>Bean-B</text>		</g>
		<g id="shape68-140" v:mID="68" v:groupContext="shape" transform="translate(124.322,-51.6075) rotate(-30)">
			<title>Foglio.68</title>
			<ellipse cx="12.7542" cy="225.985" rx="12.7542" ry="7.89545" class="st31"/>
		</g>
		<g id="shape69-142" v:mID="69" v:groupContext="shape" transform="translate(123.692,-57.756) rotate(-29.3825)">
			<title>Foglio.69</title>
			<path d="M0 231.02 C1.36 231.92 2.83 233.14 4.97 233.65 C5.69 233.82 6.49 233.92 7.22 233.87 C8.82 233.77 10.08 232.98
						 11.27 232.25 C12.91 231.24 14.42 230.31 16.59 229.88 C18 229.6 19.7 229.52 21.08 229.71 C22.88 229.95 24.16
						 230.63 25.46 231.02" class="st32"/>
		</g>
		<g id="shape13-145" v:mID="13" v:groupContext="shape" transform="translate(99.9326,-102.767) scale(-1,1)">
			<title>Foglio.13</title>
			<path d="M0 233.88 L14.17 233.88" class="st12"/>
		</g>
		<g id="shape14-148" v:mID="14" v:groupContext="shape" transform="translate(333.247,128.279) rotate(90)">
			<title>Foglio.14</title>
			<path d="M5.67 233.88 L0 233.88 L2.83 224.24 L5.67 233.88 Z" class="st33"/>
		</g>
		<g id="shape7-150" v:mID="7" v:groupContext="shape" transform="translate(200.279,-102.767) scale(-1,1)">
			<title>Foglio.7</title>
			<path d="M0 233.88 L19.84 233.88" class="st12"/>
		</g>
		<g id="shape10-153" v:mID="10" v:groupContext="shape" transform="translate(433.593,128.279) rotate(90)">
			<title>Foglio.10</title>
			<path d="M5.67 233.88 L0 233.88 L2.83 224.24 L5.67 233.88 Z" class="st33"/>
		</g>
		<g id="shape51-155" v:mID="51" v:groupContext="shape" transform="translate(2.13732,-50.584)">
			<title>Foglio.51</title>
			<desc>Databases</desc>
			<v:textBlock v:margins="rect(4,4,4,4)" v:tabSpace="42.5197"/>
			<v:textRect cx="29.7638" cy="224.217" width="59.53" height="19.3271"/>
			<rect x="0" y="214.554" width="59.5276" height="19.3271" class="st4"/>
			<text x="10.64" y="226.62" class="st5" v:langID="1040"><v:paragraph v:horizAlign="1"/><v:tabList/>Databases</text>		</g>
		<g id="shape53-158" v:mID="53" v:groupContext="shape" transform="translate(104.44,-2.13732)">
			<title>Foglio.53</title>
			<desc>X</desc>
			<v:textBlock v:margins="rect(4,4,4,4)" v:tabSpace="42.5197"/>
			<v:textRect cx="11.9197" cy="224.217" width="23.84" height="19.3271"/>
			<rect x="0" y="214.554" width="23.8394" height="19.3271" class="st4"/>
			<text x="9.25" y="226.62" class="st34" v:langID="1040"><v:paragraph v:horizAlign="1"/><v:tabList/>X</text>		</g>
		<g id="shape60-161" v:mID="60" v:groupContext="shape" transform="translate(162.55,-2.13732)">
			<title>Foglio.60</title>
			<desc>Y</desc>
			<v:textBlock v:margins="rect(4,4,4,4)" v:tabSpace="42.5197"/>
			<v:textRect cx="11.9197" cy="224.217" width="23.84" height="19.3271"/>
			<rect x="0" y="214.554" width="23.8394" height="19.3271" class="st4"/>
			<text x="9.25" y="226.62" class="st34" v:langID="1040"><v:paragraph v:horizAlign="1"/><v:tabList/>Y</text>		</g>
		<g id="shape71-164" v:mID="71" v:groupContext="shape" transform="translate(231.999,-2.65271)">
			<title>Foglio.71</title>
			<desc>Z</desc>
			<v:textBlock v:margins="rect(4,4,4,4)" v:tabSpace="42.5197"/>
			<v:textRect cx="11.9197" cy="224.217" width="23.84" height="19.3271"/>
			<rect x="0" y="214.554" width="23.8394" height="19.3271" class="st4"/>
			<text x="9.48" y="226.62" class="st34" v:langID="1040"><v:paragraph v:horizAlign="1"/><v:tabList/>Z</text>		</g>
		<g id="shape72-167" v:mID="72" v:groupContext="shape" transform="translate(350.821,172.216) rotate(90) scale(-1,1)">
			<title>Foglio.72</title>
			<path d="M0 233.88 L21.4 233.88" class="st12"/>
		</g>
		<g id="shape73-170" v:mID="73" v:groupContext="shape" transform="translate(119.775,401.42) rotate(180)">
			<title>Foglio.73</title>
			<path d="M5.67 233.88 L0 233.88 L2.83 224.24 L5.67 233.88 Z" class="st33"/>
		</g>
		<g id="shape74-172" v:mID="74" v:groupContext="shape" transform="translate(407.607,173.27) rotate(89.7686) scale(-1,1)">
			<title>Foglio.74</title>
			<path d="M0 233.88 L23.4 233.88" class="st12"/>
		</g>
		<g id="shape75-175" v:mID="75" v:groupContext="shape" transform="translate(176.468,401.42) rotate(180)">
			<title>Foglio.75</title>
			<path d="M5.67 233.88 L0 233.88 L2.83 224.24 L5.67 233.88 Z" class="st33"/>
		</g>
		<g id="shape76-177" v:mID="76" v:groupContext="shape" transform="translate(478.38,173.2) rotate(90) scale(-1,1)">
			<title>Foglio.76</title>
			<path d="M0 233.88 L22.81 233.88" class="st12"/>
		</g>
		<g id="shape77-180" v:mID="77" v:groupContext="shape" transform="translate(247.334,401.136) rotate(180)">
			<title>Foglio.77</title>
			<path d="M5.67 233.88 L0 233.88 L2.83 224.24 L5.67 233.88 Z" class="st33"/>
		</g>
		<g id="group11-182" transform="translate(225.98,-20.9656)" v:mID="11" v:groupContext="group" v:layerMember="0">
			<title>Database, mini 3 - blue</title>
			<g id="group12-183" v:mID="12" v:groupContext="group" v:layerMember="0">
				<title>Foglio.12</title>
				<g id="shape15-184" v:mID="15" v:groupContext="shape" v:layerMember="0">
					<title>Foglio.15</title>
					<path d="M37.04 203.4 L37.04 202.51 C37.04 199.26 27.74 197.84 18.52 197.84 C9.29 197.84 0 199.26 0 202.51 L0
								 203.4 L0 227.7 L0 228.63 L0 228.67 C0.63 233.21 11.88 233.88 18.52 233.88 C25.16 233.88 36.41 233.21
								 37.04 228.67 L37.04 228.63 L37.04 227.65 L37.04 203.4 Z" class="st35"/>
				</g>
				<g id="shape36-186" v:mID="36" v:groupContext="shape" v:layerMember="0" transform="translate(2.09657,-1.33497)">
					<title>Foglio.36</title>
					<path d="M16.42 226.32 C9.85 226.32 3.28 225.6 0 224 L0 228.99 L0 229.88 C0.49 233.57 12.3 233.88 16.42 233.88
								 C20.55 233.88 32.29 233.57 32.85 229.88 L32.85 228.99 L32.85 224 C29.56 225.56 22.99 226.32 16.42
								 226.32 Z" class="st36"/>
				</g>
				<g id="shape49-188" v:mID="49" v:groupContext="shape" v:layerMember="0" transform="translate(2.09657,-10.2348)">
					<title>Foglio.49</title>
					<path d="M16.42 226.32 C9.85 226.32 3.28 225.6 0 224 L0 228.99 L0 229.88 C0.49 233.57 12.3 233.88 16.42 233.88
								 C20.55 233.88 32.29 233.57 32.85 229.88 L32.85 228.99 L32.85 224 C29.56 225.56 22.99 226.32 16.42
								 226.32 Z" class="st36"/>
				</g>
				<g id="shape50-190" v:mID="50" v:groupContext="shape" v:layerMember="0" transform="translate(2.09657,-19.1346)">
					<title>Foglio.50</title>
					<path d="M16.42 226.32 C9.85 226.32 3.28 225.6 0 224 L0 228.99 L0 229.88 C0.49 233.57 12.3 233.88 16.42 233.88
								 C20.55 233.88 32.29 233.57 32.85 229.88 L32.85 228.99 L32.85 224 C29.56 225.56 22.99 226.32 16.42
								 226.32 Z" class="st36"/>
				</g>
				<g id="shape54-192" v:mID="54" v:groupContext="shape" v:layerMember="0" transform="translate(2.09657,-28.0344)">
					<title>Foglio.54</title>
					<ellipse cx="16.4231" cy="230.544" rx="16.4231" ry="3.33743" class="st36"/>
				</g>
			</g>
		</g>
		<g id="group55-194" transform="translate(155.208,-19.9513)" v:mID="55" v:groupContext="group" v:layerMember="0">
			<title>Database, mini 3 - blue.55</title>
			<g id="group56-195" v:mID="56" v:groupContext="group" v:layerMember="0">
				<title>Foglio.56</title>
				<g id="shape57-196" v:mID="57" v:groupContext="shape" v:layerMember="0">
					<title>Foglio.57</title>
					<path d="M37.04 203.4 L37.04 202.51 C37.04 199.26 27.74 197.84 18.52 197.84 C9.29 197.84 0 199.26 0 202.51 L0
								 203.4 L0 227.7 L0 228.63 L0 228.67 C0.63 233.21 11.88 233.88 18.52 233.88 C25.16 233.88 36.41 233.21
								 37.04 228.67 L37.04 228.63 L37.04 227.65 L37.04 203.4 Z" class="st35"/>
				</g>
				<g id="shape58-198" v:mID="58" v:groupContext="shape" v:layerMember="0" transform="translate(2.09657,-1.33497)">
					<title>Foglio.58</title>
					<path d="M16.42 226.32 C9.85 226.32 3.28 225.6 0 224 L0 228.99 L0 229.88 C0.49 233.57 12.3 233.88 16.42 233.88
								 C20.55 233.88 32.29 233.57 32.85 229.88 L32.85 228.99 L32.85 224 C29.56 225.56 22.99 226.32 16.42
								 226.32 Z" class="st36"/>
				</g>
				<g id="shape59-200" v:mID="59" v:groupContext="shape" v:layerMember="0" transform="translate(2.09657,-10.2348)">
					<title>Foglio.59</title>
					<path d="M16.42 226.32 C9.85 226.32 3.28 225.6 0 224 L0 228.99 L0 229.88 C0.49 233.57 12.3 233.88 16.42 233.88
								 C20.55 233.88 32.29 233.57 32.85 229.88 L32.85 228.99 L32.85 224 C29.56 225.56 22.99 226.32 16.42
								 226.32 Z" class="st36"/>
				</g>
				<g id="shape61-202" v:mID="61" v:groupContext="shape" v:layerMember="0" transform="translate(2.09657,-19.1346)">
					<title>Foglio.61</title>
					<path d="M16.42 226.32 C9.85 226.32 3.28 225.6 0 224 L0 228.99 L0 229.88 C0.49 233.57 12.3 233.88 16.42 233.88
								 C20.55 233.88 32.29 233.57 32.85 229.88 L32.85 228.99 L32.85 224 C29.56 225.56 22.99 226.32 16.42
								 226.32 Z" class="st36"/>
				</g>
				<g id="shape62-204" v:mID="62" v:groupContext="shape" v:layerMember="0" transform="translate(2.09657,-28.0344)">
					<title>Foglio.62</title>
					<ellipse cx="16.4231" cy="230.544" rx="16.4231" ry="3.33743" class="st36"/>
				</g>
			</g>
		</g>
		<g id="group63-206" transform="translate(98.5153,-19.9513)" v:mID="63" v:groupContext="group" v:layerMember="0">
			<title>Database, mini 3 - blue.63</title>
			<g id="group64-207" v:mID="64" v:groupContext="group" v:layerMember="0">
				<title>Foglio.64</title>
				<g id="shape65-208" v:mID="65" v:groupContext="shape" v:layerMember="0">
					<title>Foglio.65</title>
					<path d="M37.04 203.4 L37.04 202.51 C37.04 199.26 27.74 197.84 18.52 197.84 C9.29 197.84 0 199.26 0 202.51 L0
								 203.4 L0 227.7 L0 228.63 L0 228.67 C0.63 233.21 11.88 233.88 18.52 233.88 C25.16 233.88 36.41 233.21
								 37.04 228.67 L37.04 228.63 L37.04 227.65 L37.04 203.4 Z" class="st35"/>
				</g>
				<g id="shape70-210" v:mID="70" v:groupContext="shape" v:layerMember="0" transform="translate(2.09657,-1.33497)">
					<title>Foglio.70</title>
					<path d="M16.42 226.32 C9.85 226.32 3.28 225.6 0 224 L0 228.99 L0 229.88 C0.49 233.57 12.3 233.88 16.42 233.88
								 C20.55 233.88 32.29 233.57 32.85 229.88 L32.85 228.99 L32.85 224 C29.56 225.56 22.99 226.32 16.42
								 226.32 Z" class="st36"/>
				</g>
				<g id="shape78-212" v:mID="78" v:groupContext="shape" v:layerMember="0" transform="translate(2.09657,-10.2348)">
					<title>Foglio.78</title>
					<path d="M16.42 226.32 C9.85 226.32 3.28 225.6 0 224 L0 228.99 L0 229.88 C0.49 233.57 12.3 233.88 16.42 233.88
								 C20.55 233.88 32.29 233.57 32.85 229.88 L32.85 228.99 L32.85 224 C29.56 225.56 22.99 226.32 16.42
								 226.32 Z" class="st36"/>
				</g>
				<g id="shape79-214" v:mID="79" v:groupContext="shape" v:layerMember="0" transform="translate(2.09657,-19.1346)">
					<title>Foglio.79</title>
					<path d="M16.42 226.32 C9.85 226.32 3.28 225.6 0 224 L0 228.99 L0 229.88 C0.49 233.57 12.3 233.88 16.42 233.88
								 C20.55 233.88 32.29 233.57 32.85 229.88 L32.85 228.99 L32.85 224 C29.56 225.56 22.99 226.32 16.42
								 226.32 Z" class="st36"/>
				</g>
				<g id="shape80-216" v:mID="80" v:groupContext="shape" v:layerMember="0" transform="translate(2.09657,-28.0344)">
					<title>Foglio.80</title>
					<ellipse cx="16.4231" cy="230.544" rx="16.4231" ry="3.33743" class="st36"/>
				</g>
			</g>
		</g>
	</g>
</svg>
