<?xml version="1.0" encoding="UTF-8" standalone="no"?>
<!DOCTYPE svg PUBLIC "-//W3C//DTD SVG 1.0//EN" "http://www.w3.org/TR/2001/REC-SVG-20010904/DTD/svg10.dtd">
<!-- Generato da Microsoft Visio 11.0, SVG Export, v1.0 jakartaeett_dt_029.svg Pagina 1 -->
<svg xmlns="http://www.w3.org/2000/svg" xmlns:v="http://schemas.microsoft.com/visio/2003/SVGExtensions/" width="4.72472in"
		height="2.08693in" viewBox="0 0 340.18 150.259" xml:space="preserve" color-interpolation-filters="sRGB" class="st9"
		xmlns:xlink="http://www.w3.org/1999/xlink">
	<v:documentProperties v:langID="1040" v:metric="true" v:viewMarkup="false">
		<v:userDefs>
			<v:ud v:nameU="MBSAAvail" v:prompt="" v:val="VT0(2):26"/>
			<v:ud v:nameU="MBSAAddinEnabled" v:prompt="" v:val="VT0(2):26"/>
			<v:ud v:nameU="MBSAAddinOutlineVisible" v:prompt="" v:val="VT0(1):26"/>
		</v:userDefs>
	</v:documentProperties>

	<style type="text/css">
	<![CDATA[
		.st1 {stroke:#000000;stroke-linecap:round;stroke-linejoin:round;stroke-width:0.72}
		.st2 {fill:#ffffff;stroke:none;stroke-linecap:round;stroke-linejoin:round;stroke-width:0.72}
		.st3 {fill:#c8d6e6;stroke:#000000;stroke-linecap:round;stroke-linejoin:round;stroke-width:0.72}
		.st4 {fill:none;stroke:none;stroke-linecap:round;stroke-linejoin:round;stroke-width:0.72}
		.st5 {fill:#000000;font-family:Arial;font-size:0.666664em}
		.st6 {fill:#000000;stroke:#000000;stroke-linecap:round;stroke-linejoin:round;stroke-width:0.72}
		.st7 {fill:#f2f2f2;stroke:#000000;stroke-linecap:round;stroke-linejoin:round;stroke-width:0.72}
		.st8 {fill:#c8d6e6;stroke:none;stroke-linecap:round;stroke-linejoin:round;stroke-width:0.72}
		.st9 {fill:none;fill-rule:evenodd;font-size:12;overflow:visible;stroke-linecap:square;stroke-miterlimit:3}
	]]>
	</style>

	<g v:mID="0" v:index="1" v:groupContext="foregroundPage">
		<title>Pagina 1</title>
		<v:pageProperties v:drawingScale="0.0393701" v:pageScale="0.0393701" v:drawingUnits="24" v:shadowOffsetX="8.50394"
				v:shadowOffsetY="-8.50394"/>
		<g id="shape40-1" v:mID="40" v:groupContext="shape" transform="translate(133.948,-5.97817)">
			<title>Foglio.40</title>
			<path d="M0 144.18 A26.0572 20.7598 0 0 0 36.85 144.18" class="st1"/>
		</g>
		<g id="shape36-4" v:mID="36" v:groupContext="shape" transform="translate(0.72,-0.72)">
			<title>Foglio.36</title>
			<rect x="0" y="5.69197" width="338.74" height="144.567" class="st2"/>
		</g>
		<g id="shape43-6" v:mID="43" v:groupContext="shape" transform="translate(134.019,-6.10583)">
			<title>Foglio.43</title>
			<ellipse cx="18.3543" cy="143.739" rx="18.3543" ry="6.51974" class="st3"/>
		</g>
		<g id="shape9-8" v:mID="9" v:groupContext="shape" transform="translate(4.97197,-58.8302)">
			<title>Foglio.9</title>
			<rect x="0" y="127.582" width="46.7717" height="22.6772" class="st3"/>
		</g>
		<g id="shape2-10" v:mID="2" v:groupContext="shape" transform="translate(60.2476,-126.862)">
			<title>Foglio.2</title>
			<desc>Msg</desc>
			<v:textBlock v:margins="rect(4,4,4,4)" v:tabSpace="42.5197"/>
			<v:textRect cx="15.5906" cy="138.92" width="31.19" height="22.6772"/>
			<rect x="0" y="127.582" width="31.1811" height="22.6772" class="st4"/>
			<text x="8.03" y="141.32" class="st5" v:langID="1040"><v:paragraph v:horizAlign="1"/><v:tabList/>Msg</text>		</g>
		<g id="shape15-13" v:mID="15" v:groupContext="shape" transform="translate(218.988,-63.0822)">
			<title>Foglio.15</title>
			<desc>Msg</desc>
			<v:textBlock v:margins="rect(4,4,4,4)" v:tabSpace="42.5197"/>
			<v:textRect cx="15.5906" cy="138.92" width="31.19" height="22.6772"/>
			<rect x="0" y="127.582" width="31.1811" height="22.6772" class="st4"/>
			<text x="8.03" y="141.32" class="st5" v:langID="1040"><v:paragraph v:horizAlign="1"/><v:tabList/>Msg</text>		</g>
		<g id="shape1-16" v:mID="1" v:groupContext="shape" transform="translate(4.97197,-58.8302)">
			<title>Foglio.1</title>
			<desc>Client 1</desc>
			<v:textBlock v:margins="rect(4,4,4,4)" v:tabSpace="42.5197"/>
			<v:textRect cx="18.5528" cy="138.92" width="37.11" height="22.6772"/>
			<rect x="0" y="127.582" width="37.1055" height="22.6772" class="st4"/>
			<text x="4.99" y="141.32" class="st5" v:langID="1040"><v:paragraph v:horizAlign="1"/><v:tabList/>Client 1</text>		</g>
		<g id="shape5-19" v:mID="5" v:groupContext="shape" transform="translate(62.9546,-58.8302)">
			<title>Foglio.5</title>
			<desc>Publishes</desc>
			<v:textBlock v:margins="rect(4,4,4,4)" v:tabSpace="42.5197"/>
			<v:textRect cx="22.8047" cy="138.92" width="45.61" height="22.6772"/>
			<rect x="0" y="127.582" width="45.6094" height="22.6772" class="st4"/>
			<text x="5.46" y="141.32" class="st5" v:langID="1040"><v:paragraph v:horizAlign="1"/><v:tabList/>Publishes</text>		</g>
		<g id="shape6-22" v:mID="6" v:groupContext="shape" transform="translate(274.853,82.9247) rotate(90) scale(-1,1)">
			<title>Foglio.6</title>
			<path d="M5.67 150.26 L0 150.26 L2.83 140.62 L5.67 150.26 Z" class="st6"/>
		</g>
		<g id="shape7-24" v:mID="7" v:groupContext="shape" transform="translate(134.232,-70.1688) scale(-1,1)">
			<title>Foglio.7</title>
			<path d="M0 150.26 L17.57 150.26" class="st1"/>
		</g>
		<g id="shape8-27" v:mID="8" v:groupContext="shape" transform="translate(65.9169,-70.1688) scale(-1,1)">
			<title>Foglio.8</title>
			<path d="M0 150.26 L13.92 150.26" class="st1"/>
		</g>
		<g id="shape11-30" v:mID="11" v:groupContext="shape" transform="translate(31.595,122.61) rotate(-90)">
			<title>Foglio.11</title>
			<path d="M5.67 150.26 L0 150.26 L2.83 140.62 L5.67 150.26 Z" class="st6"/>
		</g>
		<g id="shape12-32" v:mID="12" v:groupContext="shape" transform="translate(172.216,-30.4838)">
			<title>Foglio.12</title>
			<path d="M0 150.26 L23.53 150.26" class="st1"/>
		</g>
		<g id="shape13-35" v:mID="13" v:groupContext="shape" transform="translate(253.57,-30.4838)">
			<title>Foglio.13</title>
			<path d="M0 150.26 L33.76 150.26" class="st1"/>
		</g>
		<g id="shape18-38" v:mID="18" v:groupContext="shape" transform="translate(194.043,-24.8145)">
			<title>Foglio.18</title>
			<desc>Subscribes</desc>
			<v:textBlock v:margins="rect(4,4,4,4)" v:tabSpace="42.5197"/>
			<v:textRect cx="25.5118" cy="145.171" width="51.03" height="10.1764"/>
			<rect x="0" y="140.083" width="51.0236" height="10.1764" class="st4"/>
			<text x="5.72" y="147.57" class="st5" v:langID="1040"><v:paragraph v:horizAlign="1"/><v:tabList/>Subscribes</text>		</g>
		<g id="shape20-41" v:mID="20" v:groupContext="shape" transform="translate(62.2486,-78.6728)">
			<title>Foglio.20</title>
			<path d="M7.09 150.26 L0 115.63 L4.77 112.92 L3.74 107.98 L21.09 97.98 L29.18 137.5 L7.09 150.26 Z" class="st7"/>
		</g>
		<g id="shape21-43" v:mID="21" v:groupContext="shape" transform="translate(200.799,95.7246) rotate(116.215)">
			<title>Foglio.21</title>
			<path d="M0 150.26 L8.48 150.26" class="st1"/>
		</g>
		<g id="shape22-46" v:mID="22" v:groupContext="shape" transform="translate(196.461,-39.7795)">
			<title>Foglio.22</title>
			<path d="M7.09 150.26 L0 115.63 L4.77 112.92 L3.74 107.98 L21.09 97.98 L29.18 137.5 L7.09 150.26 Z" class="st7"/>
		</g>
		<g id="shape23-48" v:mID="23" v:groupContext="shape" transform="translate(335.011,134.618) rotate(116.215)">
			<title>Foglio.23</title>
			<path d="M0 150.26 L8.48 150.26" class="st1"/>
		</g>
		<g id="shape24-51" v:mID="24" v:groupContext="shape" transform="translate(287.586,-12.0586)">
			<title>Foglio.24</title>
			<rect x="0" y="127.582" width="46.7717" height="22.6772" class="st3"/>
		</g>
		<g id="shape4-53" v:mID="4" v:groupContext="shape" transform="translate(287.331,-12.0586)">
			<title>Foglio.4</title>
			<desc>Client 3</desc>
			<v:textBlock v:margins="rect(4,4,4,4)" v:tabSpace="42.5197"/>
			<v:textRect cx="18.5528" cy="138.92" width="37.11" height="22.6772"/>
			<rect x="0" y="127.582" width="37.1055" height="22.6772" class="st4"/>
			<text x="4.99" y="141.32" class="st5" v:langID="1040"><v:paragraph v:horizAlign="1"/><v:tabList/>Client 3</text>		</g>
		<g id="shape47-56" v:mID="47" v:groupContext="shape" transform="translate(31.595,33.5735) rotate(-90)">
			<title>Foglio.47</title>
			<path d="M5.67 150.26 L0 150.26 L2.83 140.62 L5.67 150.26 Z" class="st6"/>
		</g>
		<g id="shape48-58" v:mID="48" v:groupContext="shape" transform="translate(172.216,-119.52)">
			<title>Foglio.48</title>
			<path d="M0 150.26 L23.53 150.26" class="st1"/>
		</g>
		<g id="shape49-61" v:mID="49" v:groupContext="shape" transform="translate(253.57,-119.52)">
			<title>Foglio.49</title>
			<path d="M0 150.26 L33.76 150.26" class="st1"/>
		</g>
		<g id="shape50-64" v:mID="50" v:groupContext="shape" transform="translate(428.774,46.3294) rotate(90) scale(-1,1)">
			<title>Foglio.50</title>
			<path d="M5.67 150.26 L0 150.26 L2.83 140.62 L5.67 150.26 Z" class="st6"/>
		</g>
		<g id="shape51-66" v:mID="51" v:groupContext="shape" transform="translate(172.783,-106.764)">
			<title>Foglio.51</title>
			<path d="M0 150.26 L32.03 150.26" class="st1"/>
		</g>
		<g id="shape52-69" v:mID="52" v:groupContext="shape" transform="translate(251.586,-106.764)">
			<title>Foglio.52</title>
			<path d="M0 150.26 L35.74 150.26" class="st1"/>
		</g>
		<g id="shape53-72" v:mID="53" v:groupContext="shape" transform="translate(194.043,-113.851)">
			<title>Foglio.53</title>
			<desc>Subscribes</desc>
			<v:textBlock v:margins="rect(4,4,4,4)" v:tabSpace="42.5197"/>
			<v:textRect cx="25.5118" cy="145.171" width="51.03" height="10.1764"/>
			<rect x="0" y="140.083" width="51.0236" height="10.1764" class="st4"/>
			<text x="5.72" y="147.57" class="st5" v:langID="1040"><v:paragraph v:horizAlign="1"/><v:tabList/>Subscribes</text>		</g>
		<g id="shape54-75" v:mID="54" v:groupContext="shape" transform="translate(204.814,-101.676)">
			<title>Foglio.54</title>
			<desc>Delivers</desc>
			<v:textBlock v:margins="rect(4,4,4,4)" v:tabSpace="42.5197"/>
			<v:textRect cx="19.1339" cy="145.171" width="38.27" height="10.1764"/>
			<rect x="0" y="140.083" width="38.2677" height="10.1764" class="st4"/>
			<text x="4.69" y="147.57" class="st5" v:langID="1040"><v:paragraph v:horizAlign="1"/><v:tabList/>Delivers</text>		</g>
		<g id="shape55-78" v:mID="55" v:groupContext="shape" transform="translate(133.807,-12.2003)">
			<title>Foglio.55</title>
			<rect x="0" y="39.7077" width="36.9921" height="110.551" class="st8"/>
		</g>
		<g id="shape61-80" v:mID="61" v:groupContext="shape" transform="translate(428.491,135.621) rotate(90) scale(-1,1)">
			<title>Foglio.61</title>
			<path d="M5.67 150.26 L0 150.26 L2.83 140.62 L5.67 150.26 Z" class="st6"/>
		</g>
		<g id="shape62-82" v:mID="62" v:groupContext="shape" transform="translate(172.5,-17.4728)">
			<title>Foglio.62</title>
			<path d="M0 150.26 L32.03 150.26" class="st1"/>
		</g>
		<g id="shape63-85" v:mID="63" v:groupContext="shape" transform="translate(251.303,-17.4728)">
			<title>Foglio.63</title>
			<path d="M0 150.26 L35.74 150.26" class="st1"/>
		</g>
		<g id="shape65-88" v:mID="65" v:groupContext="shape" transform="translate(204.531,-12.3846)">
			<title>Foglio.65</title>
			<desc>Delivers</desc>
			<v:textBlock v:margins="rect(4,4,4,4)" v:tabSpace="42.5197"/>
			<v:textRect cx="19.1339" cy="145.171" width="38.27" height="10.1764"/>
			<rect x="0" y="140.083" width="38.2677" height="10.1764" class="st4"/>
			<text x="4.69" y="147.57" class="st5" v:langID="1040"><v:paragraph v:horizAlign="1"/><v:tabList/>Delivers</text>		</g>
		<g id="shape10-91" v:mID="10" v:groupContext="shape" transform="translate(133.948,-115.962)">
			<title>Foglio.10</title>
			<ellipse cx="18.4252" cy="142.889" rx="18.4252" ry="7.37019" class="st3"/>
		</g>
		<g id="shape14-93" v:mID="14" v:groupContext="shape" transform="translate(133.948,-106.381)">
			<title>Foglio.14</title>
			<path d="M0 144.18 A26.0572 20.7598 0 0 0 36.85 144.18" class="st1"/>
		</g>
		<g id="shape16-96" v:mID="16" v:groupContext="shape" transform="translate(133.948,-97.2603)">
			<title>Foglio.16</title>
			<path d="M0 144.18 A26.0572 20.7598 0 0 0 36.85 144.18" class="st1"/>
		</g>
		<g id="shape17-99" v:mID="17" v:groupContext="shape" transform="translate(133.948,-88.7478)">
			<title>Foglio.17</title>
			<path d="M0 144.18 A26.0572 20.7598 0 0 0 36.85 144.18" class="st1"/>
		</g>
		<g id="shape19-102" v:mID="19" v:groupContext="shape" transform="translate(321.058,55.2281) rotate(90) scale(-1,1)">
			<title>Foglio.19</title>
			<path d="M0 150.26 L28.3 150.26" class="st1"/>
		</g>
		<g id="shape25-105" v:mID="25" v:groupContext="shape" transform="translate(284.207,55.2281) rotate(90) scale(-1,1)">
			<title>Foglio.25</title>
			<path d="M0 150.26 L28.3 150.26" class="st1"/>
		</g>
		<g id="shape27-108" v:mID="27" v:groupContext="shape" transform="translate(133.948,-78.7128)">
			<title>Foglio.27</title>
			<path d="M0 144.18 A26.0572 20.7598 0 0 0 36.85 144.18" class="st1"/>
		</g>
		<g id="shape28-111" v:mID="28" v:groupContext="shape" transform="translate(133.948,-69.5922)">
			<title>Foglio.28</title>
			<path d="M0 144.18 A26.0572 20.7598 0 0 0 36.85 144.18" class="st1"/>
		</g>
		<g id="shape29-114" v:mID="29" v:groupContext="shape" transform="translate(133.948,-61.0796)">
			<title>Foglio.29</title>
			<path d="M0 144.18 A26.0572 20.7598 0 0 0 36.85 144.18" class="st1"/>
		</g>
		<g id="shape30-117" v:mID="30" v:groupContext="shape" transform="translate(321.058,82.8962) rotate(90) scale(-1,1)">
			<title>Foglio.30</title>
			<path d="M0 150.26 L28.3 150.26" class="st1"/>
		</g>
		<g id="shape31-120" v:mID="31" v:groupContext="shape" transform="translate(284.207,82.8962) rotate(90) scale(-1,1)">
			<title>Foglio.31</title>
			<path d="M0 150.26 L28.3 150.26" class="st1"/>
		</g>
		<g id="shape32-123" v:mID="32" v:groupContext="shape" transform="translate(133.948,-51.2795)">
			<title>Foglio.32</title>
			<path d="M0 144.18 A26.0572 20.7598 0 0 0 36.85 144.18" class="st1"/>
		</g>
		<g id="shape33-126" v:mID="33" v:groupContext="shape" transform="translate(133.948,-42.1589)">
			<title>Foglio.33</title>
			<path d="M0 144.18 A26.0572 20.7598 0 0 0 36.85 144.18" class="st1"/>
		</g>
		<g id="shape34-129" v:mID="34" v:groupContext="shape" transform="translate(133.948,-33.6463)">
			<title>Foglio.34</title>
			<path d="M0 144.18 A26.0572 20.7598 0 0 0 36.85 144.18" class="st1"/>
		</g>
		<g id="shape35-132" v:mID="35" v:groupContext="shape" transform="translate(321.058,111.814) rotate(90) scale(-1,1)">
			<title>Foglio.35</title>
			<path d="M0 150.26 L28.3 150.26" class="st1"/>
		</g>
		<g id="shape37-135" v:mID="37" v:groupContext="shape" transform="translate(284.207,111.814) rotate(90) scale(-1,1)">
			<title>Foglio.37</title>
			<path d="M0 150.26 L28.3 150.26" class="st1"/>
		</g>
		<g id="shape38-138" v:mID="38" v:groupContext="shape" transform="translate(133.948,-23.6114)">
			<title>Foglio.38</title>
			<path d="M0 144.18 A26.0572 20.7598 0 0 0 36.85 144.18" class="st1"/>
		</g>
		<g id="shape39-141" v:mID="39" v:groupContext="shape" transform="translate(133.948,-14.4907)">
			<title>Foglio.39</title>
			<path d="M0 144.18 A26.0572 20.7598 0 0 0 36.85 144.18" class="st1"/>
		</g>
		<g id="shape41-144" v:mID="41" v:groupContext="shape" transform="translate(321.058,137.998) rotate(90) scale(-1,1)">
			<title>Foglio.41</title>
			<path d="M0 150.26 L28.3 150.26" class="st1"/>
		</g>
		<g id="shape42-147" v:mID="42" v:groupContext="shape" transform="translate(284.207,137.998) rotate(90) scale(-1,1)">
			<title>Foglio.42</title>
			<path d="M0 150.26 L28.3 150.26" class="st1"/>
		</g>
		<g id="shape26-150" v:mID="26" v:groupContext="shape" transform="translate(135.366,-125.444)">
			<title>Foglio.26</title>
			<desc>Topic</desc>
			<v:textBlock v:margins="rect(4,4,4,4)" v:tabSpace="42.5197"/>
			<v:textRect cx="15.5906" cy="138.92" width="31.19" height="22.6772"/>
			<rect x="0" y="127.582" width="31.1811" height="22.6772" class="st4"/>
			<text x="5.81" y="141.32" class="st5" v:langID="1040"><v:paragraph v:horizAlign="1"/><v:tabList/>Topic</text>		</g>
		<g id="shape44-153" v:mID="44" v:groupContext="shape" transform="translate(288.011,-101.208)">
			<title>Foglio.44</title>
			<rect x="0" y="127.582" width="46.7717" height="22.6772" class="st3"/>
		</g>
		<g id="shape56-155" v:mID="56" v:groupContext="shape" transform="translate(287.331,-101.095)">
			<title>Foglio.56</title>
			<desc>Client 2</desc>
			<v:textBlock v:margins="rect(4,4,4,4)" v:tabSpace="42.5197"/>
			<v:textRect cx="18.5528" cy="138.92" width="37.11" height="22.6772"/>
			<rect x="0" y="127.582" width="37.1055" height="22.6772" class="st4"/>
			<text x="4.99" y="141.32" class="st5" v:langID="1040"><v:paragraph v:horizAlign="1"/><v:tabList/>Client 2</text>		</g>
	</g>
</svg>
