<?xml version="1.0" encoding="UTF-8" standalone="no"?>
<!DOCTYPE svg PUBLIC "-//W3C//DTD SVG 1.0//EN" "http://www.w3.org/TR/2001/REC-SVG-20010904/DTD/svg10.dtd">
<!-- Generato da Microsoft Visio 11.0, SVG Export, v1.0 jakartaeett_dt_066_slctmny.svg Pagina 1 -->
<svg xmlns="http://www.w3.org/2000/svg" xmlns:v="http://schemas.microsoft.com/visio/2003/SVGExtensions/" width="5.37433in"
		height="4.66567in" viewBox="0 0 386.952 335.928" xml:space="preserve" color-interpolation-filters="sRGB" class="st12"
		xmlns:xlink="http://www.w3.org/1999/xlink">
	<v:documentProperties v:langID="1040" v:metric="true" v:viewMarkup="false">
		<v:userDefs>
			<v:ud v:nameU="MBSAAddinOutlineVisible" v:prompt="" v:val="VT0(1):26"/>
		</v:userDefs>
	</v:documentProperties>

	<style type="text/css">
	<![CDATA[
		.st1 {fill:#c8d6e6;stroke:#000000;stroke-linecap:round;stroke-linejoin:round;stroke-width:0.72}
		.st2 {fill:#f2f2f2;stroke:#000000;stroke-linecap:round;stroke-linejoin:round;stroke-width:0.72}
		.st3 {fill:none;stroke:none;stroke-linecap:round;stroke-linejoin:round;stroke-width:0.72}
		.st4 {fill:#000000;font-family:Arial;font-size:0.666664em}
		.st5 {fill:#c8d6e6;stroke:#7395bf;stroke-linecap:round;stroke-linejoin:round;stroke-width:0.72}
		.st6 {stroke:#000000;stroke-linecap:round;stroke-linejoin:round;stroke-width:0.72}
		.st7 {fill:#000000;stroke:#000000;stroke-linecap:round;stroke-linejoin:round;stroke-width:0.72}
		.st8 {fill:#cadaa9;stroke:#000000;stroke-linecap:round;stroke-linejoin:round;stroke-width:0.72}
		.st9 {font-size:1em}
		.st10 {fill:#660033;stroke:#660033;stroke-linecap:round;stroke-linejoin:round;stroke-width:0.72}
		.st11 {stroke:#ffffff;stroke-linecap:round;stroke-linejoin:round;stroke-width:2.16}
		.st12 {fill:none;fill-rule:evenodd;font-size:12;overflow:visible;stroke-linecap:square;stroke-miterlimit:3}
	]]>
	</style>

	<g v:mID="0" v:index="1" v:groupContext="foregroundPage">
		<title>Pagina 1</title>
		<v:pageProperties v:drawingScale="0.0393701" v:pageScale="0.0393701" v:drawingUnits="24" v:shadowOffsetX="8.50394"
				v:shadowOffsetY="-8.50394"/>
		<g id="shape35-1" v:mID="35" v:groupContext="shape" transform="translate(0.72,-173.633)">
			<title>Foglio.35</title>
			<rect x="0" y="174.353" width="385.512" height="161.575" class="st1"/>
		</g>
		<g id="shape1-3" v:mID="1" v:groupContext="shape" transform="translate(7.80661,-179.303)">
			<title>Foglio.1</title>
			<rect x="0" y="194.196" width="372.756" height="141.732" class="st2"/>
		</g>
		<g id="shape8-5" v:mID="8" v:groupContext="shape" transform="translate(0.72,-321.035)">
			<title>Foglio.8</title>
			<desc>Flow A</desc>
			<v:textBlock v:margins="rect(4,4,4,4)" v:tabSpace="42.5197"/>
			<v:textRect cx="19.8425" cy="328.842" width="39.69" height="14.1732"/>
			<rect x="0" y="321.755" width="39.685" height="14.1732" class="st3"/>
			<text x="7.62" y="331.24" class="st4" v:langID="1040"><v:paragraph v:horizAlign="1"/><v:tabList/>Flow A</text>		</g>
		<g id="shape2-8" v:mID="2" v:groupContext="shape" transform="translate(6.38929,-305.444)">
			<title>Foglio.2</title>
			<desc>flow a</desc>
			<v:textBlock v:margins="rect(4,4,4,4)" v:tabSpace="42.5197"/>
			<v:textRect cx="19.8425" cy="328.842" width="39.69" height="14.1732"/>
			<rect x="0" y="321.755" width="39.685" height="14.1732" class="st3"/>
			<text x="9.39" y="331.24" class="st4" v:langID="1040"><v:paragraph v:horizAlign="1"/><v:tabList/>flow a</text>		</g>
		<g id="shape3-11" v:mID="3" v:groupContext="shape" transform="translate(12.0586,-295.523)">
			<title>Foglio.3</title>
			<desc>- param1FromFlowB</desc>
			<v:textBlock v:margins="rect(4,4,4,4)" v:tabSpace="42.5197"/>
			<v:textRect cx="45.3543" cy="328.842" width="90.71" height="14.1732"/>
			<rect x="0" y="321.755" width="90.7087" height="14.1732" class="st3"/>
			<text x="4" y="331.24" class="st4" v:langID="1040"><v:paragraph/><v:tabList/>- param1FromFlowB</text>		</g>
		<g id="shape4-14" v:mID="4" v:groupContext="shape" transform="translate(12.0586,-285.602)">
			<title>Foglio.4</title>
			<desc>- param2FromFlowB</desc>
			<v:textBlock v:margins="rect(4,4,4,4)" v:tabSpace="42.5197"/>
			<v:textRect cx="45.3543" cy="328.842" width="90.71" height="14.1732"/>
			<rect x="0" y="321.755" width="90.7087" height="14.1732" class="st3"/>
			<text x="4" y="331.24" class="st4" v:langID="1040"><v:paragraph/><v:tabList/>- param2FromFlowB</text>		</g>
		<g id="shape5-17" v:mID="5" v:groupContext="shape" transform="translate(3.55465,-243.082)">
			<title>Foglio.5</title>
			<desc>Start</desc>
			<v:textBlock v:margins="rect(4,4,4,4)" v:tabSpace="42.5197"/>
			<v:textRect cx="19.8425" cy="328.842" width="39.69" height="14.1732"/>
			<rect x="0" y="321.755" width="39.685" height="14.1732" class="st3"/>
			<text x="11.4" y="331.24" class="st4" v:langID="1040"><v:paragraph v:horizAlign="1"/><v:tabList/>Start</text>		</g>
		<g id="shape6-20" v:mID="6" v:groupContext="shape" transform="translate(29.0665,-226.202)">
			<title>Foglio.6</title>
			<rect x="0" y="319.175" width="49.6063" height="16.7528" class="st5"/>
		</g>
		<g id="shape7-22" v:mID="7" v:groupContext="shape" transform="translate(29.0665,-226.074)">
			<title>Foglio.7</title>
			<desc>flow-a</desc>
			<v:textBlock v:margins="rect(4,4,4,4)" v:tabSpace="42.5197"/>
			<v:textRect cx="19.8425" cy="327.424" width="39.69" height="17.0079"/>
			<rect x="0" y="318.92" width="39.685" height="17.0079" class="st3"/>
			<text x="9.17" y="329.82" class="st4" v:langID="1040"><v:paragraph v:horizAlign="1"/><v:tabList/>flow-a</text>		</g>
		<g id="shape9-25" v:mID="9" v:groupContext="shape" transform="translate(107.019,-226.202)">
			<title>Foglio.9</title>
			<rect x="0" y="319.175" width="49.6063" height="16.7528" class="st5"/>
		</g>
		<g id="shape10-27" v:mID="10" v:groupContext="shape" transform="translate(107.019,-226.074)">
			<title>Foglio.10</title>
			<desc>next-a1</desc>
			<v:textBlock v:margins="rect(4,4,4,4)" v:tabSpace="42.5197"/>
			<v:textRect cx="19.8425" cy="327.424" width="39.69" height="17.0079"/>
			<rect x="0" y="318.92" width="39.685" height="17.0079" class="st3"/>
			<text x="6.5" y="329.82" class="st4" v:langID="1040"><v:paragraph v:horizAlign="1"/><v:tabList/>next-a1</text>		</g>
		<g id="shape11-30" v:mID="11" v:groupContext="shape" transform="translate(184.972,-226.202)">
			<title>Foglio.11</title>
			<rect x="0" y="319.175" width="49.6063" height="16.7528" class="st5"/>
		</g>
		<g id="shape12-32" v:mID="12" v:groupContext="shape" transform="translate(184.972,-226.074)">
			<title>Foglio.12</title>
			<desc>next-a2</desc>
			<v:textBlock v:margins="rect(4,4,4,4)" v:tabSpace="42.5197"/>
			<v:textRect cx="19.8425" cy="327.424" width="39.69" height="17.0079"/>
			<rect x="0" y="318.92" width="39.685" height="17.0079" class="st3"/>
			<text x="6.5" y="329.82" class="st4" v:langID="1040"><v:paragraph v:horizAlign="1"/><v:tabList/>next-a2</text>		</g>
		<g id="shape36-35" v:mID="36" v:groupContext="shape" transform="translate(114.814,-248.751)">
			<title>Foglio.36</title>
			<rect x="0" y="309.127" width="107.008" height="26.8016" rx="5.66929" ry="5.66929" class="st5"/>
		</g>
		<g id="shape37-37" v:mID="37" v:groupContext="shape" transform="translate(114.814,-248.751)">
			<title>Foglio.37</title>
			<desc>Flow_a_Bean</desc>
			<v:textBlock v:margins="rect(4,4,4,4)" v:tabSpace="42.5197"/>
			<v:textRect cx="30.1181" cy="322.464" width="60.24" height="26.9291"/>
			<rect x="0" y="308.999" width="60.2362" height="26.9291" class="st3"/>
			<text x="5.66" y="324.86" class="st4" v:langID="1040"><v:paragraph v:horizAlign="1"/><v:tabList/>Flow_a_Bean</text>		</g>
		<g id="shape38-40" v:mID="38" v:groupContext="shape" transform="translate(243.082,-237.206) scale(-1,1)">
			<title>Foglio.38</title>
			<path d="M0 335.93 L8.5 335.93" class="st6"/>
		</g>
		<g id="shape39-43" v:mID="39" v:groupContext="shape" transform="translate(586.947,77.2554) rotate(90) scale(-1,1)">
			<title>Foglio.39</title>
			<path d="M5.67 335.93 L0 335.93 L2.83 326.29 L5.67 335.93 Z" class="st7"/>
		</g>
		<g id="shape40-45" v:mID="40" v:groupContext="shape" transform="translate(260.374,-235.429)">
			<title>Foglio.40</title>
			<ellipse cx="26.0787" cy="309.849" rx="26.0787" ry="26.0787" class="st8"/>
		</g>
		<g id="shape41-47" v:mID="41" v:groupContext="shape" transform="translate(261.507,-186.389)">
			<title>Foglio.41</title>
			<path d="M0 304.04 L14.17 293.41 L99.21 293.41 L113.39 304.04 L113.39 325.3 L99.21 335.93 L14.17 335.93 L0 325.3 L0 304.04
						 Z" class="st1"/>
		</g>
		<g id="shape43-49" v:mID="43" v:groupContext="shape" transform="translate(243.082,-231.951) scale(-1,1)">
			<title>Foglio.43</title>
			<path d="M0 335.93 L8.5 335.93" class="st6"/>
		</g>
		<g id="shape42-52" v:mID="42" v:groupContext="shape" transform="translate(-92.846,74.4208) rotate(-90) scale(-1,1)">
			<title>Foglio.42</title>
			<path d="M0 335.93 L24.3 335.93" class="st6"/>
		</g>
		<g id="shape44-55" v:mID="44" v:groupContext="shape" transform="translate(260.211,-261.507) scale(-1,1)">
			<title>Foglio.44</title>
			<path d="M0 335.93 L17.13 335.93" class="st6"/>
		</g>
		<g id="shape45-58" v:mID="45" v:groupContext="shape" transform="translate(-92.846,128.279) rotate(-90)">
			<title>Foglio.45</title>
			<path d="M0 335.93 L24.3 335.93" class="st6"/>
		</g>
		<g id="shape46-61" v:mID="46" v:groupContext="shape" transform="translate(255.838,464.207) rotate(180)">
			<title>Foglio.46</title>
			<path d="M0 335.93 L12.76 335.93" class="st6"/>
		</g>
		<g id="shape47-64" v:mID="47" v:groupContext="shape" transform="translate(587.514,131.114) rotate(90) scale(-1,1)">
			<title>Foglio.47</title>
			<path d="M5.67 335.93 L0 335.93 L2.83 326.29 L5.67 335.93 Z" class="st7"/>
		</g>
		<g id="shape48-66" v:mID="48" v:groupContext="shape" transform="translate(261.507,-211.901)">
			<title>Foglio.48</title>
			<desc>callB</desc>
			<v:textBlock v:margins="rect(4,4,4,4)" v:tabSpace="42.5197"/>
			<v:textRect cx="19.8425" cy="328.842" width="39.69" height="14.1732"/>
			<rect x="0" y="321.755" width="39.685" height="14.1732" class="st3"/>
			<text x="11.17" y="331.24" class="st4" v:langID="1040"><v:paragraph v:horizAlign="1"/><v:tabList/>callB</text>		</g>
		<g id="shape49-69" v:mID="49" v:groupContext="shape" transform="translate(267.177,-201.98)">
			<title>Foglio.49</title>
			<desc>- param1FromFlowA</desc>
			<v:textBlock v:margins="rect(4,4,4,4)" v:tabSpace="42.5197"/>
			<v:textRect cx="45.3543" cy="328.842" width="90.71" height="14.1732"/>
			<rect x="0" y="321.755" width="90.7087" height="14.1732" class="st3"/>
			<text x="4" y="331.24" class="st4" v:langID="1040"><v:paragraph/><v:tabList/>- param1FromFlowA</text>		</g>
		<g id="shape50-72" v:mID="50" v:groupContext="shape" transform="translate(267.177,-192.059)">
			<title>Foglio.50</title>
			<desc>- param2FromFlowA</desc>
			<v:textBlock v:margins="rect(4,4,4,4)" v:tabSpace="42.5197"/>
			<v:textRect cx="45.3543" cy="328.842" width="90.71" height="14.1732"/>
			<rect x="0" y="321.755" width="90.7087" height="14.1732" class="st3"/>
			<text x="4" y="331.24" class="st4" v:langID="1040"><v:paragraph/><v:tabList/>- param2FromFlowA</text>		</g>
		<g id="shape51-75" v:mID="51" v:groupContext="shape" transform="translate(261.507,-252.177)">
			<title>Foglio.51</title>
			<desc>taskFlow Return1</desc>
			<v:textBlock v:margins="rect(4,4,4,4)" v:tabSpace="42.5197"/>
			<v:textRect cx="19.8425" cy="325.594" width="39.69" height="20.6693"/>
			<rect x="0" y="315.259" width="39.685" height="20.6693" class="st3"/>
			<text x="4.06" y="323.19" class="st4" v:langID="1040"><v:paragraph v:horizAlign="1"/><v:tabList/>taskFlow<v:newlineChar/><tspan
						x="5.61" dy="1.2em" class="st9">Return</tspan>1</text>		</g>
		<g id="shape52-79" v:mID="52" v:groupContext="shape" transform="translate(32.1962,-201.633) rotate(-30)">
			<title>Foglio.52</title>
			<ellipse cx="12.7542" cy="328.033" rx="12.7542" ry="7.89545" class="st10"/>
		</g>
		<g id="shape53-81" v:mID="53" v:groupContext="shape" transform="translate(32.5216,-208.327) rotate(-29.3825)">
			<title>Foglio.53</title>
			<path d="M0 333.07 C1.36 333.97 2.83 335.18 4.97 335.7 C5.69 335.87 6.49 335.96 7.22 335.92 C8.82 335.81 10.08 335.03
						 11.27 334.29 C12.91 333.28 14.42 332.36 16.59 331.93 C18 331.65 19.7 331.57 21.08 331.76 C22.88 332 24.16
						 332.68 25.46 333.07" class="st11"/>
		</g>
		<g id="shape54-84" v:mID="54" v:groupContext="shape" transform="translate(511.829,104.185) rotate(90) scale(-1,1)">
			<title>Foglio.54</title>
			<path d="M5.67 335.93 L0 335.93 L2.83 326.29 L5.67 335.93 Z" class="st7"/>
		</g>
		<g id="shape55-86" v:mID="55" v:groupContext="shape" transform="translate(185.093,-234.578) scale(-1,1)">
			<title>Foglio.55</title>
			<path d="M0 335.93 L17.13 335.93" class="st6"/>
		</g>
		<g id="shape56-89" v:mID="56" v:groupContext="shape" transform="translate(-170.232,98.5153) rotate(-90) scale(-1,1)">
			<title>Foglio.56</title>
			<path d="M5.67 335.93 L0 335.93 L2.83 326.29 L5.67 335.93 Z" class="st7"/>
		</g>
		<g id="shape57-91" v:mID="57" v:groupContext="shape" transform="translate(156.059,437.278) scale(1,-1)">
			<title>Foglio.57</title>
			<path d="M0 335.93 L16.44 335.93" class="st6"/>
		</g>
		<g id="shape58-94" v:mID="58" v:groupContext="shape" transform="translate(433.877,104.185) rotate(90) scale(-1,1)">
			<title>Foglio.58</title>
			<path d="M5.67 335.93 L0 335.93 L2.83 326.29 L5.67 335.93 Z" class="st7"/>
		</g>
		<g id="shape59-96" v:mID="59" v:groupContext="shape" transform="translate(107.141,-234.578) scale(-1,1)">
			<title>Foglio.59</title>
			<path d="M0 335.93 L17.13 335.93" class="st6"/>
		</g>
		<g id="shape60-99" v:mID="60" v:groupContext="shape" transform="translate(-248.185,98.5153) rotate(-90) scale(-1,1)">
			<title>Foglio.60</title>
			<path d="M5.67 335.93 L0 335.93 L2.83 326.29 L5.67 335.93 Z" class="st7"/>
		</g>
		<g id="shape61-101" v:mID="61" v:groupContext="shape" transform="translate(78.1058,437.278) scale(1,-1)">
			<title>Foglio.61</title>
			<path d="M0 335.93 L16.44 335.93" class="st6"/>
		</g>
		<g id="shape62-104" v:mID="62" v:groupContext="shape" transform="translate(0.72,-0.72)">
			<title>Foglio.62</title>
			<rect x="0" y="174.353" width="385.512" height="161.575" class="st1"/>
		</g>
		<g id="shape63-106" v:mID="63" v:groupContext="shape" transform="translate(7.80661,-6.38929)">
			<title>Foglio.63</title>
			<rect x="0" y="194.196" width="372.756" height="141.732" class="st2"/>
		</g>
		<g id="shape64-108" v:mID="64" v:groupContext="shape" transform="translate(0.72,-148.122)">
			<title>Foglio.64</title>
			<desc>Flow B</desc>
			<v:textBlock v:margins="rect(4,4,4,4)" v:tabSpace="42.5197"/>
			<v:textRect cx="19.8425" cy="328.842" width="39.69" height="14.1732"/>
			<rect x="0" y="321.755" width="39.685" height="14.1732" class="st3"/>
			<text x="7.62" y="331.24" class="st4" v:langID="1040"><v:paragraph v:horizAlign="1"/><v:tabList/>Flow B</text>		</g>
		<g id="shape65-111" v:mID="65" v:groupContext="shape" transform="translate(6.38929,-132.531)">
			<title>Foglio.65</title>
			<desc>flow b</desc>
			<v:textBlock v:margins="rect(4,4,4,4)" v:tabSpace="42.5197"/>
			<v:textRect cx="19.8425" cy="328.842" width="39.69" height="14.1732"/>
			<rect x="0" y="321.755" width="39.685" height="14.1732" class="st3"/>
			<text x="9.39" y="331.24" class="st4" v:langID="1040"><v:paragraph v:horizAlign="1"/><v:tabList/>flow b</text>		</g>
		<g id="shape66-114" v:mID="66" v:groupContext="shape" transform="translate(12.0586,-122.61)">
			<title>Foglio.66</title>
			<desc>- param1FromFlowA</desc>
			<v:textBlock v:margins="rect(4,4,4,4)" v:tabSpace="42.5197"/>
			<v:textRect cx="45.3543" cy="328.842" width="90.71" height="14.1732"/>
			<rect x="0" y="321.755" width="90.7087" height="14.1732" class="st3"/>
			<text x="4" y="331.24" class="st4" v:langID="1040"><v:paragraph/><v:tabList/>- param1FromFlowA</text>		</g>
		<g id="shape67-117" v:mID="67" v:groupContext="shape" transform="translate(12.0586,-112.689)">
			<title>Foglio.67</title>
			<desc>- param2FromFlowA</desc>
			<v:textBlock v:margins="rect(4,4,4,4)" v:tabSpace="42.5197"/>
			<v:textRect cx="45.3543" cy="328.842" width="90.71" height="14.1732"/>
			<rect x="0" y="321.755" width="90.7087" height="14.1732" class="st3"/>
			<text x="4" y="331.24" class="st4" v:langID="1040"><v:paragraph/><v:tabList/>- param2FromFlowA</text>		</g>
		<g id="shape68-120" v:mID="68" v:groupContext="shape" transform="translate(3.55465,-70.1688)">
			<title>Foglio.68</title>
			<desc>Start</desc>
			<v:textBlock v:margins="rect(4,4,4,4)" v:tabSpace="42.5197"/>
			<v:textRect cx="19.8425" cy="328.842" width="39.69" height="14.1732"/>
			<rect x="0" y="321.755" width="39.685" height="14.1732" class="st3"/>
			<text x="11.4" y="331.24" class="st4" v:langID="1040"><v:paragraph v:horizAlign="1"/><v:tabList/>Start</text>		</g>
		<g id="shape69-123" v:mID="69" v:groupContext="shape" transform="translate(29.0665,-53.2885)">
			<title>Foglio.69</title>
			<rect x="0" y="319.175" width="49.6063" height="16.7528" class="st5"/>
		</g>
		<g id="shape70-125" v:mID="70" v:groupContext="shape" transform="translate(29.0665,-53.1609)">
			<title>Foglio.70</title>
			<desc>flow-b</desc>
			<v:textBlock v:margins="rect(4,4,4,4)" v:tabSpace="42.5197"/>
			<v:textRect cx="19.8425" cy="327.424" width="39.69" height="17.0079"/>
			<rect x="0" y="318.92" width="39.685" height="17.0079" class="st3"/>
			<text x="9.17" y="329.82" class="st4" v:langID="1040"><v:paragraph v:horizAlign="1"/><v:tabList/>flow-b</text>		</g>
		<g id="shape71-128" v:mID="71" v:groupContext="shape" transform="translate(107.019,-53.2885)">
			<title>Foglio.71</title>
			<rect x="0" y="319.175" width="49.6063" height="16.7528" class="st5"/>
		</g>
		<g id="shape72-130" v:mID="72" v:groupContext="shape" transform="translate(107.019,-53.1609)">
			<title>Foglio.72</title>
			<desc>next-b1</desc>
			<v:textBlock v:margins="rect(4,4,4,4)" v:tabSpace="42.5197"/>
			<v:textRect cx="19.8425" cy="327.424" width="39.69" height="17.0079"/>
			<rect x="0" y="318.92" width="39.685" height="17.0079" class="st3"/>
			<text x="6.5" y="329.82" class="st4" v:langID="1040"><v:paragraph v:horizAlign="1"/><v:tabList/>next-b1</text>		</g>
		<g id="shape73-133" v:mID="73" v:groupContext="shape" transform="translate(184.972,-53.2885)">
			<title>Foglio.73</title>
			<rect x="0" y="319.175" width="49.6063" height="16.7528" class="st5"/>
		</g>
		<g id="shape74-135" v:mID="74" v:groupContext="shape" transform="translate(184.972,-53.1609)">
			<title>Foglio.74</title>
			<desc>next-b2</desc>
			<v:textBlock v:margins="rect(4,4,4,4)" v:tabSpace="42.5197"/>
			<v:textRect cx="19.8425" cy="327.424" width="39.69" height="17.0079"/>
			<rect x="0" y="318.92" width="39.685" height="17.0079" class="st3"/>
			<text x="6.5" y="329.82" class="st4" v:langID="1040"><v:paragraph v:horizAlign="1"/><v:tabList/>next-b2</text>		</g>
		<g id="shape77-138" v:mID="77" v:groupContext="shape" transform="translate(243.082,-64.2921) scale(-1,1)">
			<title>Foglio.77</title>
			<path d="M0 335.93 L8.5 335.93" class="st6"/>
		</g>
		<g id="shape78-141" v:mID="78" v:groupContext="shape" transform="translate(586.947,250.169) rotate(90) scale(-1,1)">
			<title>Foglio.78</title>
			<path d="M5.67 335.93 L0 335.93 L2.83 326.29 L5.67 335.93 Z" class="st7"/>
		</g>
		<g id="shape80-143" v:mID="80" v:groupContext="shape" transform="translate(261.507,-13.4759)">
			<title>Foglio.80</title>
			<path d="M0 304.04 L14.17 293.41 L99.21 293.41 L113.39 304.04 L113.39 325.3 L99.21 335.93 L14.17 335.93 L0 325.3 L0 304.04
						 Z" class="st1"/>
		</g>
		<g id="shape81-145" v:mID="81" v:groupContext="shape" transform="translate(243.082,-59.0376) scale(-1,1)">
			<title>Foglio.81</title>
			<path d="M0 335.93 L8.5 335.93" class="st6"/>
		</g>
		<g id="shape82-148" v:mID="82" v:groupContext="shape" transform="translate(-92.846,247.334) rotate(-90) scale(-1,1)">
			<title>Foglio.82</title>
			<path d="M0 335.93 L24.3 335.93" class="st6"/>
		</g>
		<g id="shape83-151" v:mID="83" v:groupContext="shape" transform="translate(260.211,-88.594) scale(-1,1)">
			<title>Foglio.83</title>
			<path d="M0 335.93 L17.13 335.93" class="st6"/>
		</g>
		<g id="shape84-154" v:mID="84" v:groupContext="shape" transform="translate(-92.846,301.192) rotate(-90)">
			<title>Foglio.84</title>
			<path d="M0 335.93 L24.3 335.93" class="st6"/>
		</g>
		<g id="shape85-157" v:mID="85" v:groupContext="shape" transform="translate(255.838,637.121) rotate(180)">
			<title>Foglio.85</title>
			<path d="M0 335.93 L12.76 335.93" class="st6"/>
		</g>
		<g id="shape86-160" v:mID="86" v:groupContext="shape" transform="translate(587.514,304.027) rotate(90) scale(-1,1)">
			<title>Foglio.86</title>
			<path d="M5.67 335.93 L0 335.93 L2.83 326.29 L5.67 335.93 Z" class="st7"/>
		</g>
		<g id="shape87-162" v:mID="87" v:groupContext="shape" transform="translate(261.507,-38.9877)">
			<title>Foglio.87</title>
			<desc>callA</desc>
			<v:textBlock v:margins="rect(4,4,4,4)" v:tabSpace="42.5197"/>
			<v:textRect cx="19.8425" cy="328.842" width="39.69" height="14.1732"/>
			<rect x="0" y="321.755" width="39.685" height="14.1732" class="st3"/>
			<text x="11.17" y="331.24" class="st4" v:langID="1040"><v:paragraph v:horizAlign="1"/><v:tabList/>callA</text>		</g>
		<g id="shape88-165" v:mID="88" v:groupContext="shape" transform="translate(267.177,-29.0665)">
			<title>Foglio.88</title>
			<desc>- param1FromFlowB</desc>
			<v:textBlock v:margins="rect(4,4,4,4)" v:tabSpace="42.5197"/>
			<v:textRect cx="45.3543" cy="328.842" width="90.71" height="14.1732"/>
			<rect x="0" y="321.755" width="90.7087" height="14.1732" class="st3"/>
			<text x="4" y="331.24" class="st4" v:langID="1040"><v:paragraph/><v:tabList/>- param1FromFlowB</text>		</g>
		<g id="shape89-168" v:mID="89" v:groupContext="shape" transform="translate(267.177,-19.1452)">
			<title>Foglio.89</title>
			<desc>- param2FromFlowB</desc>
			<v:textBlock v:margins="rect(4,4,4,4)" v:tabSpace="42.5197"/>
			<v:textRect cx="45.3543" cy="328.842" width="90.71" height="14.1732"/>
			<rect x="0" y="321.755" width="90.7087" height="14.1732" class="st3"/>
			<text x="4" y="331.24" class="st4" v:langID="1040"><v:paragraph/><v:tabList/>- param2FromFlowB</text>		</g>
		<g id="shape93-171" v:mID="93" v:groupContext="shape" transform="translate(511.829,277.098) rotate(90) scale(-1,1)">
			<title>Foglio.93</title>
			<path d="M5.67 335.93 L0 335.93 L2.83 326.29 L5.67 335.93 Z" class="st7"/>
		</g>
		<g id="shape94-173" v:mID="94" v:groupContext="shape" transform="translate(185.093,-61.6649) scale(-1,1)">
			<title>Foglio.94</title>
			<path d="M0 335.93 L17.13 335.93" class="st6"/>
		</g>
		<g id="shape95-176" v:mID="95" v:groupContext="shape" transform="translate(-170.232,271.429) rotate(-90) scale(-1,1)">
			<title>Foglio.95</title>
			<path d="M5.67 335.93 L0 335.93 L2.83 326.29 L5.67 335.93 Z" class="st7"/>
		</g>
		<g id="shape96-178" v:mID="96" v:groupContext="shape" transform="translate(156.059,610.191) scale(1,-1)">
			<title>Foglio.96</title>
			<path d="M0 335.93 L16.44 335.93" class="st6"/>
		</g>
		<g id="shape97-181" v:mID="97" v:groupContext="shape" transform="translate(433.877,277.098) rotate(90) scale(-1,1)">
			<title>Foglio.97</title>
			<path d="M5.67 335.93 L0 335.93 L2.83 326.29 L5.67 335.93 Z" class="st7"/>
		</g>
		<g id="shape98-183" v:mID="98" v:groupContext="shape" transform="translate(107.141,-61.6649) scale(-1,1)">
			<title>Foglio.98</title>
			<path d="M0 335.93 L17.13 335.93" class="st6"/>
		</g>
		<g id="shape99-186" v:mID="99" v:groupContext="shape" transform="translate(-248.185,271.429) rotate(-90) scale(-1,1)">
			<title>Foglio.99</title>
			<path d="M5.67 335.93 L0 335.93 L2.83 326.29 L5.67 335.93 Z" class="st7"/>
		</g>
		<g id="shape100-188" v:mID="100" v:groupContext="shape" transform="translate(78.1058,610.191) scale(1,-1)">
			<title>Foglio.100</title>
			<path d="M0 335.93 L16.44 335.93" class="st6"/>
		</g>
		<g id="shape79-191" v:mID="79" v:groupContext="shape" transform="translate(260.94,-62.5153)">
			<title>Foglio.79</title>
			<ellipse cx="26.0787" cy="309.849" rx="26.0787" ry="26.0787" class="st8"/>
		</g>
		<g id="shape90-193" v:mID="90" v:groupContext="shape" transform="translate(262.074,-79.2633)">
			<title>Foglio.90</title>
			<desc>taskFlow Return1</desc>
			<v:textBlock v:margins="rect(4,4,4,4)" v:tabSpace="42.5197"/>
			<v:textRect cx="19.8425" cy="325.594" width="39.69" height="20.6693"/>
			<rect x="0" y="315.259" width="39.685" height="20.6693" class="st3"/>
			<text x="4.06" y="323.19" class="st4" v:langID="1040"><v:paragraph v:horizAlign="1"/><v:tabList/>taskFlow<v:newlineChar/><tspan
						x="5.61" dy="1.2em" class="st9">Return</tspan>1</text>		</g>
		<g id="shape75-197" v:mID="75" v:groupContext="shape" transform="translate(114.46,-75.8381)">
			<title>Foglio.75</title>
			<rect x="0" y="309.127" width="107.008" height="26.8016" rx="5.66929" ry="5.66929" class="st5"/>
		</g>
		<g id="shape76-199" v:mID="76" v:groupContext="shape" transform="translate(114.46,-75.8381)">
			<title>Foglio.76</title>
			<desc>Flow_a_Bean</desc>
			<v:textBlock v:margins="rect(4,4,4,4)" v:tabSpace="42.5197"/>
			<v:textRect cx="30.1181" cy="322.464" width="60.24" height="26.9291"/>
			<rect x="0" y="308.999" width="60.2362" height="26.9291" class="st3"/>
			<text x="5.66" y="324.86" class="st4" v:langID="1040"><v:paragraph v:horizAlign="1"/><v:tabList/>Flow_a_Bean</text>		</g>
		<g id="shape91-202" v:mID="91" v:groupContext="shape" transform="translate(31.8418,-28.7199) rotate(-30)">
			<title>Foglio.91</title>
			<ellipse cx="12.7542" cy="328.033" rx="12.7542" ry="7.89545" class="st10"/>
		</g>
		<g id="shape92-204" v:mID="92" v:groupContext="shape" transform="translate(32.1672,-35.4132) rotate(-29.3825)">
			<title>Foglio.92</title>
			<path d="M0 333.07 C1.36 333.97 2.83 335.18 4.97 335.7 C5.69 335.87 6.49 335.96 7.22 335.92 C8.82 335.81 10.08 335.03
						 11.27 334.29 C12.91 333.28 14.42 332.36 16.59 331.93 C18 331.65 19.7 331.57 21.08 331.76 C22.88 332 24.16
						 332.68 25.46 333.07" class="st11"/>
		</g>
	</g>
</svg>
