<?xml version="1.0" encoding="UTF-8" standalone="no"?>
<!DOCTYPE svg PUBLIC "-//W3C//DTD SVG 1.0//EN" "http://www.w3.org/TR/2001/REC-SVG-20010904/DTD/svg10.dtd">
<!-- Generato da Microsoft Visio 11.0, SVG Export, v1.0 jakartaeett_dt_037.svg Pagina 1 -->
<svg xmlns="http://www.w3.org/2000/svg" xmlns:v="http://schemas.microsoft.com/visio/2003/SVGExtensions/" width="5.21685in"
		height="3.28772in" viewBox="0 0 375.613 236.716" xml:space="preserve" color-interpolation-filters="sRGB" class="st13">
	<v:documentProperties v:langID="1040" v:metric="true" v:viewMarkup="false">
		<v:userDefs>
			<v:ud v:nameU="MBSAAvail" v:prompt="" v:val="VT0(2):26"/>
			<v:ud v:nameU="MBSAAddinEnabled" v:prompt="" v:val="VT0(2):26"/>
			<v:ud v:nameU="MBSAAddinOutlineVisible" v:prompt="" v:val="VT0(1):26"/>
		</v:userDefs>
	</v:documentProperties>

	<style type="text/css">
	<![CDATA[
		.st1 {fill:#ffffff;stroke:none;stroke-linecap:round;stroke-linejoin:round;stroke-width:0.72}
		.st2 {fill:#c8d6e6;stroke:#000000;stroke-linecap:round;stroke-linejoin:round;stroke-width:0.72}
		.st3 {fill:none;stroke:none;stroke-linecap:round;stroke-linejoin:round;stroke-width:0.72}
		.st4 {fill:#000000;font-family:Arial;font-size:0.666664em}
		.st5 {fill:#f2f2f2;stroke:#000000;stroke-linecap:round;stroke-linejoin:round;stroke-width:0.72}
		.st6 {stroke:#000000;stroke-linecap:round;stroke-linejoin:round;stroke-width:0.72}
		.st7 {fill:#660033;stroke:#660033;stroke-linecap:round;stroke-linejoin:round;stroke-width:0.72}
		.st8 {stroke:#ffffff;stroke-linecap:round;stroke-linejoin:round;stroke-width:2.16}
		.st9 {fill:#000000;stroke:#000000;stroke-linecap:round;stroke-linejoin:round;stroke-width:0.72}
		.st10 {font-size:1em}
		.st11 {fill:#ffffff;stroke:none;stroke-linecap:butt;stroke-width:0.75}
		.st12 {fill:#7395bf;stroke:none;stroke-linecap:butt;stroke-width:0.75}
		.st13 {fill:none;fill-rule:evenodd;font-size:12;overflow:visible;stroke-linecap:square;stroke-miterlimit:3}
	]]>
	</style>

	<g v:mID="0" v:index="1" v:groupContext="foregroundPage">
		<title>Pagina 1</title>
		<v:pageProperties v:drawingScale="0.0393701" v:pageScale="0.0393701" v:drawingUnits="24" v:shadowOffsetX="8.50394"
				v:shadowOffsetY="-8.50394"/>
		<v:layer v:name="symbols" v:index="0"/>
		<g id="shape36-1" v:mID="36" v:groupContext="shape" transform="translate(0.72,-0.72)">
			<title>Foglio.36</title>
			<rect x="0" y="1.44" width="374.173" height="235.276" class="st1"/>
		</g>
		<g id="shape48-3" v:mID="48" v:groupContext="shape" transform="translate(6.38929,-128.279)">
			<title>Foglio.48</title>
			<rect x="0" y="134.668" width="362.835" height="102.047" class="st2"/>
		</g>
		<g id="shape2-5" v:mID="2" v:groupContext="shape" transform="translate(232.233,-72.6491)">
			<title>Foglio.2</title>
			<desc>Msg</desc>
			<v:textBlock v:margins="rect(4,4,4,4)" v:tabSpace="42.5197"/>
			<v:textRect cx="15.5906" cy="228.212" width="31.19" height="17.0079"/>
			<rect x="0" y="219.708" width="31.1811" height="17.0079" class="st3"/>
			<text x="8.03" y="230.61" class="st4" v:langID="1040"><v:paragraph v:horizAlign="1"/><v:tabList/>Msg</text>		</g>
		<g id="shape20-8" v:mID="20" v:groupContext="shape" transform="translate(246.406,-26.0438)">
			<title>Foglio.20</title>
			<path d="M7.09 236.72 L0 202.09 L4.77 199.38 L3.74 194.44 L21.09 184.44 L29.18 223.96 L7.09 236.72 Z" class="st5"/>
		</g>
		<g id="shape21-10" v:mID="21" v:groupContext="shape" transform="translate(462.52,273.001) rotate(116.215)">
			<title>Foglio.21</title>
			<path d="M0 236.72 L8.48 236.72" class="st6"/>
		</g>
		<g id="shape3-13" v:mID="3" v:groupContext="shape" transform="translate(250.169,-133.948)">
			<title>Foglio.3</title>
			<rect x="0" y="163.015" width="113.386" height="73.7008" class="st5"/>
		</g>
		<g id="shape4-15" v:mID="4" v:groupContext="shape" transform="translate(258.673,-191.35)">
			<title>Foglio.4</title>
			<desc>EJB Container</desc>
			<v:textBlock v:margins="rect(4,4,4,4)" v:tabSpace="42.5197"/>
			<v:textRect cx="35.4331" cy="229.983" width="70.87" height="13.4646"/>
			<rect x="0" y="223.251" width="70.8661" height="13.4646" class="st3"/>
			<text x="9.64" y="232.38" class="st4" v:langID="1040"><v:paragraph v:horizAlign="1"/><v:tabList/>EJB Container</text>		</g>
		<g id="shape50-18" v:mID="50" v:groupContext="shape" transform="translate(142.197,-210.484)">
			<title>Foglio.50</title>
			<desc>Jakarta EE Server</desc>
			<v:textBlock v:margins="rect(4,4,4,4)" v:tabSpace="42.5197"/>
			<v:textRect cx="36.978" cy="229.983" width="73.96" height="13.4646"/>
			<rect x="0" y="223.251" width="73.9559" height="13.4646" class="st3"/>
			<text x="4.52" y="232.38" class="st4" v:langID="1040"><v:paragraph v:horizAlign="1"/><v:tabList/>Jakarta EE Server</text>		</g>
		<g id="shape82-21" v:mID="82" v:groupContext="shape" transform="translate(104.185,-72.6491)">
			<title>Foglio.82</title>
			<desc>Msg</desc>
			<v:textBlock v:margins="rect(4,4,4,4)" v:tabSpace="42.5197"/>
			<v:textRect cx="15.5906" cy="228.212" width="31.19" height="17.0079"/>
			<rect x="0" y="219.708" width="31.1811" height="17.0079" class="st3"/>
			<text x="8.03" y="230.61" class="st4" v:langID="1040"><v:paragraph v:horizAlign="1"/><v:tabList/>Msg</text>		</g>
		<g id="shape83-24" v:mID="83" v:groupContext="shape" transform="translate(117.429,-24.4602)">
			<title>Foglio.83</title>
			<path d="M7.09 236.72 L0 202.09 L4.77 199.38 L3.74 194.44 L21.09 184.44 L29.18 223.96 L7.09 236.72 Z" class="st5"/>
		</g>
		<g id="shape84-26" v:mID="84" v:groupContext="shape" transform="translate(333.544,274.585) rotate(116.215)">
			<title>Foglio.84</title>
			<path d="M0 236.72 L8.48 236.72" class="st6"/>
		</g>
		<g id="shape13-29" v:mID="13" v:groupContext="shape" transform="translate(357.885,-139.618) scale(-1,1)">
			<title>Foglio.13</title>
			<rect x="0" y="187.109" width="100.984" height="49.6063" class="st2"/>
		</g>
		<g id="shape14-31" v:mID="14" v:groupContext="shape" transform="translate(342.295,-166.547) scale(-1,1)">
			<title>Foglio.14</title>
			<desc>MDB Instances</desc>
			<v:textBlock v:margins="rect(4,4,4,4)" v:tabSpace="42.5197"/>
			<v:textRect cx="38.2677" cy="226.794" width="76.54" height="19.8425"/>
			<rect x="0" y="216.873" width="76.5354" height="19.8425" class="st3"/>
			<text x="-72.54" y="229.19" transform="scale(-1,1)" class="st4" v:langID="1040"><v:paragraph/><v:tabList/>MDB Instances</text>		</g>
		<g id="shape11-34" v:mID="11" v:groupContext="shape" transform="translate(181.797,-110.851) rotate(-30)">
			<title>Foglio.11</title>
			<ellipse cx="12.7542" cy="228.82" rx="12.7542" ry="7.89545" class="st7"/>
		</g>
		<g id="shape12-36" v:mID="12" v:groupContext="shape" transform="translate(181.194,-117.015) rotate(-29.3825)">
			<title>Foglio.12</title>
			<path d="M0 233.86 C1.36 234.76 2.83 235.97 4.97 236.48 C5.69 236.66 6.49 236.75 7.22 236.7 C8.82 236.6 10.08 235.82
						 11.27 235.08 C12.91 234.07 14.42 233.15 16.59 232.72 C18 232.43 19.7 232.36 21.08 232.55 C22.88 232.79 24.16
						 233.47 25.46 233.86" class="st8"/>
		</g>
		<g id="shape5-39" v:mID="5" v:groupContext="shape" transform="translate(235.868,-9.22394)">
			<title>Foglio.5</title>
			<desc>Delivers</desc>
			<v:textBlock v:margins="rect(4,4,4,4)" v:tabSpace="42.5197"/>
			<v:textRect cx="22.8047" cy="229.983" width="45.61" height="13.4646"/>
			<rect x="0" y="223.251" width="45.6094" height="13.4646" class="st3"/>
			<text x="8.36" y="232.38" class="st4" v:langID="1040"><v:paragraph v:horizAlign="1"/><v:tabList/>Delivers</text>		</g>
		<g id="shape6-42" v:mID="6" v:groupContext="shape" transform="translate(34.7357,-123.602)">
			<title>Foglio.6</title>
			<path d="M5.67 236.72 L0 236.72 L2.83 227.08 L5.67 236.72 Z" class="st9"/>
		</g>
		<g id="shape7-44" v:mID="7" v:groupContext="shape" transform="translate(-199.145,103.051) rotate(-90) scale(-1,1)">
			<title>Foglio.7</title>
			<path d="M0 236.72 L18.99 236.72" class="st6"/>
		</g>
		<g id="shape25-47" v:mID="25" v:groupContext="shape" transform="translate(153.791,-9.22394) scale(-1,1)">
			<title>Foglio.25</title>
			<desc>Publishes</desc>
			<v:textBlock v:margins="rect(4,4,4,4)" v:tabSpace="42.5197"/>
			<v:textRect cx="26.9929" cy="229.983" width="53.99" height="13.4646"/>
			<rect x="0" y="223.251" width="53.9858" height="13.4646" class="st3"/>
			<text x="-44.34" y="232.38" transform="scale(-1,1)" class="st4" v:langID="1040"><v:paragraph v:horizAlign="1"/><v:tabList/>Publishes</text>		</g>
		<g id="shape26-50" v:mID="26" v:groupContext="shape" transform="translate(403.262,184.972) rotate(90) scale(-1,1)">
			<title>Foglio.26</title>
			<path d="M5.67 236.72 L0 236.72 L2.83 227.08 L5.67 236.72 Z" class="st9"/>
		</g>
		<g id="shape27-52" v:mID="27" v:groupContext="shape" transform="translate(143.87,-54.5783)">
			<title>Foglio.27</title>
			<path d="M0 236.72 L32.73 236.72" class="st6"/>
		</g>
		<g id="shape15-55" v:mID="15" v:groupContext="shape" transform="translate(6.67276,-37.5704)">
			<title>Foglio.15</title>
			<desc>Application Client</desc>
			<v:textBlock v:margins="rect(4,4,4,4)" v:tabSpace="42.5197"/>
			<v:textRect cx="26.9291" cy="225.377" width="53.86" height="22.6772"/>
			<rect x="0" y="214.038" width="53.8583" height="22.6772" class="st3"/>
			<text x="7.36" y="222.98" class="st4" v:langID="1040"><v:paragraph v:horizAlign="1"/><v:tabList/>Application <tspan
						x="16.7" dy="1.2em" class="st10">Client</tspan></text>		</g>
		<g id="shape16-59" v:mID="16" v:groupContext="shape" transform="translate(-55.4274,-76.0922) rotate(-18.4349)">
			<title>Foglio.16</title>
			<path d="M0 236.72 L40.34 236.72" class="st6"/>
		</g>
		<g id="shape17-62" v:mID="17" v:groupContext="shape" transform="translate(19.4287,-62.7279)">
			<title>Foglio.17</title>
			<path d="M38.27 223.96 L0 236.72 L0 211.2" class="st6"/>
		</g>
		<g id="shape18-65" v:mID="18" v:groupContext="shape" transform="translate(294.412,135.72) rotate(90)">
			<title>Foglio.18</title>
			<path d="M0 236.72 L25.51 236.72" class="st6"/>
		</g>
		<g id="shape19-68" v:mID="19" v:groupContext="shape" transform="translate(-55.4274,-74.0513) rotate(-18.4349)">
			<title>Foglio.19</title>
			<path d="M0 236.72 L40.34 236.72" class="st6"/>
		</g>
		<g id="shape22-71" v:mID="22" v:groupContext="shape" transform="translate(-54.1518,-73.1887) rotate(-18.4349)">
			<title>Foglio.22</title>
			<path d="M0 236.72 L13.91 236.72" class="st6"/>
		</g>
		<g id="shape23-74" v:mID="23" v:groupContext="shape" transform="translate(20.7043,-76.5407)">
			<title>Foglio.23</title>
			<path d="M13.19 232.32 L0 236.72 L0 227.92" class="st6"/>
		</g>
		<g id="shape24-77" v:mID="24" v:groupContext="shape" transform="translate(270.613,146.982) rotate(90)">
			<title>Foglio.24</title>
			<path d="M0 236.72 L8.8 236.72" class="st6"/>
		</g>
		<g id="shape29-80" v:mID="29" v:groupContext="shape" transform="translate(-31.9565,-62.9962) rotate(-18.4349)">
			<title>Foglio.29</title>
			<path d="M0 236.72 L4.3 236.72" class="st6"/>
		</g>
		<g id="shape30-83" v:mID="30" v:groupContext="shape" transform="translate(42.8995,-72.4224)">
			<title>Foglio.30</title>
			<path d="M4.08 235.35 L0 236.72 L0 233.99" class="st6"/>
		</g>
		<g id="shape31-86" v:mID="31" v:groupContext="shape" transform="translate(283.697,160.211) rotate(90)">
			<title>Foglio.31</title>
			<path d="M0 236.72 L2.72 236.72" class="st6"/>
		</g>
		<g id="shape32-89" v:mID="32" v:groupContext="shape" transform="translate(-26.0888,-65.0371) rotate(-18.4349)">
			<title>Foglio.32</title>
			<path d="M0 236.72 L4.3 236.72" class="st6"/>
		</g>
		<g id="shape33-92" v:mID="33" v:groupContext="shape" transform="translate(48.7672,-74.4633)">
			<title>Foglio.33</title>
			<path d="M4.08 235.35 L0 236.72 L0 233.99" class="st6"/>
		</g>
		<g id="shape34-95" v:mID="34" v:groupContext="shape" transform="translate(289.565,158.17) rotate(90)">
			<title>Foglio.34</title>
			<path d="M0 236.72 L2.72 236.72" class="st6"/>
		</g>
		<g id="shape92-98" v:mID="92" v:groupContext="shape" transform="translate(12.0586,-133.948)">
			<title>Foglio.92</title>
			<rect x="0" y="163.015" width="113.386" height="73.7008" class="st5"/>
		</g>
		<g id="shape93-100" v:mID="93" v:groupContext="shape" transform="translate(20.5625,-191.35)">
			<title>Foglio.93</title>
			<desc>EJB Container</desc>
			<v:textBlock v:margins="rect(4,4,4,4)" v:tabSpace="42.5197"/>
			<v:textRect cx="35.4331" cy="229.983" width="70.87" height="13.4646"/>
			<rect x="0" y="223.251" width="70.8661" height="13.4646" class="st3"/>
			<text x="9.64" y="232.38" class="st4" v:langID="1040"><v:paragraph v:horizAlign="1"/><v:tabList/>EJB Container</text>		</g>
		<g id="shape94-103" v:mID="94" v:groupContext="shape" transform="translate(119.775,-139.618) scale(-1,1)">
			<title>Foglio.94</title>
			<rect x="0" y="187.109" width="100.984" height="49.6063" class="st2"/>
		</g>
		<g id="shape95-105" v:mID="95" v:groupContext="shape" transform="translate(104.185,-166.547) scale(-1,1)">
			<title>Foglio.95</title>
			<desc>Session Bean</desc>
			<v:textBlock v:margins="rect(4,4,4,4)" v:tabSpace="42.5197"/>
			<v:textRect cx="38.2677" cy="226.794" width="76.54" height="19.8425"/>
			<rect x="0" y="216.873" width="76.5354" height="19.8425" class="st3"/>
			<text x="-72.54" y="229.19" transform="scale(-1,1)" class="st4" v:langID="1040"><v:paragraph/><v:tabList/>Session Bean</text>		</g>
		<g id="shape96-108" v:mID="96" v:groupContext="shape" transform="translate(-56.3129,-110.851) rotate(-30)">
			<title>Foglio.96</title>
			<ellipse cx="12.7542" cy="228.82" rx="12.7542" ry="7.89545" class="st7"/>
		</g>
		<g id="shape97-110" v:mID="97" v:groupContext="shape" transform="translate(-56.9164,-117.015) rotate(-29.3825)">
			<title>Foglio.97</title>
			<path d="M0 233.86 C1.36 234.76 2.83 235.97 4.97 236.48 C5.69 236.66 6.49 236.75 7.22 236.7 C8.82 236.6 10.08 235.82
						 11.27 235.08 C12.91 234.07 14.42 233.15 16.59 232.72 C18 232.43 19.7 232.36 21.08 232.55 C22.88 232.79 24.16
						 233.47 25.46 233.86" class="st8"/>
		</g>
		<g id="shape1-113" v:mID="1" v:groupContext="shape" transform="translate(18.5783,-99.9326)">
			<title>Foglio.1</title>
			<desc>Calls</desc>
			<v:textBlock v:margins="rect(4,4,4,4)" v:tabSpace="42.5197"/>
			<v:textRect cx="15.5906" cy="228.212" width="31.19" height="17.0079"/>
			<rect x="0" y="219.708" width="31.1811" height="17.0079" class="st3"/>
			<text x="6.7" y="230.61" class="st4" v:langID="1040"><v:paragraph v:horizAlign="1"/><v:tabList/>Calls</text>		</g>
		<g id="shape9-116" v:mID="9" v:groupContext="shape" transform="translate(-199.712,133.948) rotate(-90) scale(-1,1)">
			<title>Foglio.9</title>
			<path d="M0 236.72 L8.67 236.72" class="st6"/>
		</g>
		<g id="shape39-119" v:mID="39" v:groupContext="shape" transform="translate(167.837,-9.9326)">
			<title>Foglio.39</title>
			<desc>Topic</desc>
			<v:textBlock v:margins="rect(4,4,4,4)" v:tabSpace="42.5197"/>
			<v:textRect cx="22.8047" cy="229.983" width="45.61" height="13.4646"/>
			<rect x="0" y="223.251" width="45.6094" height="13.4646" class="st3"/>
			<text x="13.02" y="232.38" class="st4" v:langID="1040"><v:paragraph v:horizAlign="1"/><v:tabList/>Topic</text>		</g>
		<g id="shape40-122" v:mID="40" v:groupContext="shape" transform="translate(-159.46,97.098) rotate(-90) scale(-1,1)">
			<title>Foglio.40</title>
			<path d="M0 236.72 L85.04 236.72" class="st6"/>
		</g>
		<g id="shape41-125" v:mID="41" v:groupContext="shape" transform="translate(77.2554,-54.5783)">
			<title>Foglio.41</title>
			<path d="M0 236.72 L41.1 236.72" class="st6"/>
		</g>
		<g id="shape42-128" v:mID="42" v:groupContext="shape" transform="translate(213.446,-56.3924)">
			<title>Foglio.42</title>
			<path d="M0 236.72 L32.73 236.72" class="st6"/>
		</g>
		<g id="shape43-131" v:mID="43" v:groupContext="shape" transform="translate(549.953,102.767) rotate(90)">
			<title>Foglio.43</title>
			<path d="M0 236.72 L77.95 236.72" class="st6"/>
		</g>
		<g id="shape44-134" v:mID="44" v:groupContext="shape" transform="translate(313.237,-55.9956) scale(-1,1)">
			<title>Foglio.44</title>
			<path d="M0 236.72 L41.1 236.72" class="st6"/>
		</g>
		<g id="shape45-137" v:mID="45" v:groupContext="shape" transform="translate(315.933,-124.027) scale(-1,1)">
			<title>Foglio.45</title>
			<path d="M5.67 236.72 L0 236.72 L2.83 227.08 L5.67 236.72 Z" class="st9"/>
		</g>
		<g id="group8-139" transform="translate(177.791,-36.9592)" v:mID="8" v:groupContext="group" v:layerMember="0">
			<title>Database, mini 3 - blue</title>
			<g id="group10-140" v:mID="10" v:groupContext="group" v:layerMember="0">
				<title>Foglio.10</title>
				<g id="shape28-141" v:mID="28" v:groupContext="shape" v:layerMember="0">
					<title>Foglio.28</title>
					<path d="M37.04 206.23 L37.04 205.34 C37.04 202.1 27.74 200.67 18.52 200.67 C9.29 200.67 0 202.1 0 205.34 L0
								 206.23 L0 230.53 L0 231.46 L0 231.51 C0.63 236.05 11.88 236.72 18.52 236.72 C25.16 236.72 36.41
								 236.05 37.04 231.51 L37.04 231.46 L37.04 230.49 L37.04 206.23 Z" class="st11"/>
				</g>
				<g id="shape35-143" v:mID="35" v:groupContext="shape" v:layerMember="0" transform="translate(2.09657,-1.33497)">
					<title>Foglio.35</title>
					<path d="M16.42 229.15 C9.85 229.15 3.28 228.44 0 226.84 L0 231.82 L0 232.71 C0.49 236.4 12.3 236.72 16.42 236.72
								 C20.55 236.72 32.29 236.4 32.85 232.71 L32.85 231.82 L32.85 226.84 C29.56 228.39 22.99 229.15 16.42
								 229.15 Z" class="st12"/>
				</g>
				<g id="shape37-145" v:mID="37" v:groupContext="shape" v:layerMember="0" transform="translate(2.09657,-10.2348)">
					<title>Foglio.37</title>
					<path d="M16.42 229.15 C9.85 229.15 3.28 228.44 0 226.84 L0 231.82 L0 232.71 C0.49 236.4 12.3 236.72 16.42 236.72
								 C20.55 236.72 32.29 236.4 32.85 232.71 L32.85 231.82 L32.85 226.84 C29.56 228.39 22.99 229.15 16.42
								 229.15 Z" class="st12"/>
				</g>
				<g id="shape38-147" v:mID="38" v:groupContext="shape" v:layerMember="0" transform="translate(2.09657,-19.1346)">
					<title>Foglio.38</title>
					<path d="M16.42 229.15 C9.85 229.15 3.28 228.44 0 226.84 L0 231.82 L0 232.71 C0.49 236.4 12.3 236.72 16.42 236.72
								 C20.55 236.72 32.29 236.4 32.85 232.71 L32.85 231.82 L32.85 226.84 C29.56 228.39 22.99 229.15 16.42
								 229.15 Z" class="st12"/>
				</g>
				<g id="shape46-149" v:mID="46" v:groupContext="shape" v:layerMember="0" transform="translate(2.09657,-28.0344)">
					<title>Foglio.46</title>
					<ellipse cx="16.4231" cy="233.378" rx="16.4231" ry="3.33743" class="st12"/>
				</g>
			</g>
		</g>
	</g>
</svg>
