<?xml version="1.0" encoding="UTF-8" standalone="no"?>
<!DOCTYPE svg PUBLIC "-//W3C//DTD SVG 1.0//EN" "http://www.w3.org/TR/2001/REC-SVG-20010904/DTD/svg10.dtd">
<!-- Generato da Microsoft Visio 11.0, SVG Export, v1.0 jakartaeett_dt_001.svg Pagina 1 -->
<svg xmlns="http://www.w3.org/2000/svg" xmlns:v="http://schemas.microsoft.com/visio/2003/SVGExtensions/" width="4.74441in"
		height="4.11449in" viewBox="0 0 341.597 296.243" xml:space="preserve" color-interpolation-filters="sRGB" class="st15"
		xmlns:xlink="http://www.w3.org/1999/xlink">
	<v:documentProperties v:langID="1040" v:metric="true" v:viewMarkup="false">
		<v:userDefs>
			<v:ud v:nameU="MBSAAddinOutlineVisible" v:prompt="" v:val="VT0(1):26"/>
		</v:userDefs>
	</v:documentProperties>

	<style type="text/css">
	<![CDATA[
		.st1 {fill:#cadaa9;stroke:#000000;stroke-linecap:round;stroke-linejoin:round;stroke-width:0.72}
		.st2 {fill:#c8d6e6;stroke:#000000;stroke-linecap:round;stroke-linejoin:round;stroke-width:0.72}
		.st3 {fill:#f2f2f2;stroke:#000000;stroke-linecap:round;stroke-linejoin:round;stroke-width:0.72}
		.st4 {fill:none;stroke:none;stroke-linecap:round;stroke-linejoin:round;stroke-width:0.72}
		.st5 {fill:#000000;font-family:Arial;font-size:0.666664em}
		.st6 {font-size:1em}
		.st7 {stroke:#000000;stroke-linecap:round;stroke-linejoin:round;stroke-width:0.72}
		.st8 {fill:#ffffff;stroke:#000000;stroke-linecap:round;stroke-linejoin:round;stroke-width:0.72}
		.st9 {fill:#660033;stroke:#660033;stroke-linecap:round;stroke-linejoin:round;stroke-width:0.72}
		.st10 {stroke:#ffffff;stroke-linecap:round;stroke-linejoin:round;stroke-width:2.16}
		.st11 {marker-end:url(#mrkr13-330);stroke:#000000;stroke-linecap:round;stroke-linejoin:round;stroke-width:0.72}
		.st12 {fill:#000000;fill-opacity:1;stroke:#000000;stroke-opacity:1;stroke-width:0.22222222222222}
		.st13 {fill:#000000;font-family:Arial;font-size:0.666664em;font-weight:bold}
		.st14 {fill:#000000;stroke:#000000;stroke-linecap:round;stroke-linejoin:round;stroke-width:0.72}
		.st15 {fill:none;fill-rule:evenodd;font-size:12;overflow:visible;stroke-linecap:square;stroke-miterlimit:3}
	]]>
	</style>

	<defs id="Markers">
		<g id="lend13">
			<path d="M 3 1 L -0 0 L 3 -1 L 3 1 " style="stroke:none"/>
		</g>
		<marker id="mrkr13-330" class="st12" v:arrowType="13" v:arrowSize="2" v:setback="13.5" refX="-13.5" orient="auto"
				markerUnits="strokeWidth">
			<use xlink:href="#lend13" transform="scale(-4.5,-4.5) "/>
		</marker>
	</defs>
	<g v:mID="0" v:index="1" v:groupContext="foregroundPage">
		<title>Pagina 1</title>
		<v:pageProperties v:drawingScale="0.0393701" v:pageScale="0.0393701" v:drawingUnits="24" v:shadowOffsetX="8.50394"
				v:shadowOffsetY="-8.50394"/>
		<g id="shape1-1" v:mID="1" v:groupContext="shape" transform="translate(0.72,-51.7436)">
			<title>Foglio.1</title>
			<rect x="0" y="143.952" width="267.651" height="152.291" class="st1"/>
		</g>
		<g id="shape2-3" v:mID="2" v:groupContext="shape" transform="translate(0.72,-211.122)">
			<title>Foglio.2</title>
			<rect x="0" y="211.842" width="267.651" height="84.4016" class="st2"/>
		</g>
		<g id="shape3-5" v:mID="3" v:groupContext="shape" transform="translate(5.68063,-216.791)">
			<title>Foglio.3</title>
			<rect x="0" y="223.18" width="108.425" height="73.063" class="st3"/>
		</g>
		<g id="shape4-7" v:mID="4" v:groupContext="shape" transform="translate(122.185,-216.791)">
			<title>Foglio.4</title>
			<rect x="0" y="223.18" width="105.307" height="73.063" class="st3"/>
		</g>
		<g id="shape5-9" v:mID="5" v:groupContext="shape" transform="translate(268.371,-231.744)">
			<title>Foglio.5</title>
			<rect x="0" y="253.723" width="72.5064" height="42.5197" class="st3"/>
		</g>
		<g id="shape6-11" v:mID="6" v:groupContext="shape" transform="translate(225.851,-239.645)">
			<title>Foglio.6</title>
			<desc>Client Tier</desc>
			<v:textBlock v:margins="rect(4,4,4,4)" v:tabSpace="42.5197"/>
			<v:textRect cx="18.4252" cy="287.916" width="36.86" height="16.6535"/>
			<rect x="0" y="279.59" width="36.8504" height="16.6535" class="st4"/>
			<text x="8.2" y="285.52" class="st5" v:langID="1040"><v:paragraph v:horizAlign="1"/><v:tabList/>Client<v:newlineChar/><tspan
						x="11.54" dy="1.2em" class="st6">Tier</tspan></text>		</g>
		<g id="shape7-15" v:mID="7" v:groupContext="shape" transform="translate(269.788,-246.271)">
			<title>Foglio.7</title>
			<desc>Client Machine</desc>
			<v:textBlock v:margins="rect(4,4,4,4)" v:tabSpace="42.5197"/>
			<v:textRect cx="24.2059" cy="287.916" width="48.42" height="16.6535"/>
			<rect x="0" y="279.59" width="48.4119" height="16.6535" class="st4"/>
			<text x="13.98" y="285.52" class="st5" v:langID="1040"><v:paragraph v:horizAlign="1"/><v:tabList/>Client<v:newlineChar/><tspan
						x="9.09" dy="1.2em" class="st6">Machine</tspan></text>		</g>
		<g id="shape8-19" v:mID="8" v:groupContext="shape" transform="translate(0.72,-0.72)">
			<title>Foglio.8</title>
			<rect x="0" y="253.015" width="267.651" height="43.2283" class="st2"/>
		</g>
		<g id="shape9-21" v:mID="9" v:groupContext="shape" transform="translate(268.371,-6.38929)">
			<title>Foglio.9</title>
			<rect x="0" y="263.645" width="72.5064" height="32.5984" class="st3"/>
		</g>
		<g id="shape10-23" v:mID="10" v:groupContext="shape" transform="translate(269.788,-13.8302)">
			<title>Foglio.10</title>
			<desc>Database Server</desc>
			<v:textBlock v:margins="rect(4,4,4,4)" v:tabSpace="42.5197"/>
			<v:textRect cx="31.2925" cy="287.916" width="62.59" height="16.6535"/>
			<rect x="0" y="279.59" width="62.5851" height="16.6535" class="st4"/>
			<text x="14.17" y="285.52" class="st5" v:langID="1040"><v:paragraph v:horizAlign="1"/><v:tabList/>Database<v:newlineChar/><tspan
						x="19.51" dy="1.2em" class="st6">Server</tspan></text>		</g>
		<g id="shape11-27" v:mID="11" v:groupContext="shape" transform="translate(5.68063,-264.342)">
			<title>Foglio.11</title>
			<desc>Jakarta EE Application 1</desc>
			<v:textBlock v:margins="rect(4,4,4,4)" v:tabSpace="42.5197"/>
			<v:textRect cx="28.3465" cy="285.082" width="56.7" height="22.3228"/>
			<rect x="0" y="273.92" width="56.6929" height="22.3228" class="st4"/>
			<text x="8.78" y="282.68" class="st5" v:langID="1040"><v:paragraph v:horizAlign="1"/><v:tabList/>Jakarta EE <v:newlineChar/><tspan
						x="5.44" dy="1.2em" class="st6">Application </tspan>1</text>		</g>
		<g id="shape12-31" v:mID="12" v:groupContext="shape" transform="translate(122.185,-264.696)">
			<title>Foglio.12</title>
			<desc>Jakarta EE Application 2</desc>
			<v:textBlock v:margins="rect(4,4,4,4)" v:tabSpace="42.5197"/>
			<v:textRect cx="28.3465" cy="285.082" width="56.7" height="22.3228"/>
			<rect x="0" y="273.92" width="56.6929" height="22.3228" class="st4"/>
			<text x="8.78" y="282.68" class="st5" v:langID="1040"><v:paragraph v:horizAlign="1"/><v:tabList/>Jakarta EE <v:newlineChar/><tspan
						x="5.44" dy="1.2em" class="st6">Application </tspan>2</text>		</g>
		<g id="shape13-35" v:mID="13" v:groupContext="shape" transform="translate(50.3263,-219.342)">
			<title>Foglio.13</title>
			<desc>Application Client</desc>
			<v:textBlock v:margins="rect(4,4,4,4)" v:tabSpace="42.5197"/>
			<v:textRect cx="24.8031" cy="285.082" width="49.61" height="22.3228"/>
			<rect x="0" y="273.92" width="49.6063" height="22.3228" class="st4"/>
			<text x="5.23" y="282.68" class="st5" v:langID="1040"><v:paragraph v:horizAlign="1"/><v:tabList/>Application<v:newlineChar/><tspan
						x="14.58" dy="1.2em" class="st6">Client</tspan></text>		</g>
		<g id="shape14-39" v:mID="14" v:groupContext="shape" transform="translate(-83.7477,-229.935) rotate(-18.4349)">
			<title>Foglio.14</title>
			<path d="M0 296.24 L40.34 296.24" class="st7"/>
		</g>
		<g id="shape15-42" v:mID="15" v:groupContext="shape" transform="translate(9.9326,-219.626)">
			<title>Foglio.15</title>
			<path d="M38.27 283.49 L0 296.24 L0 270.73" class="st7"/>
		</g>
		<g id="shape16-45" v:mID="16" v:groupContext="shape" transform="translate(344.443,38.3499) rotate(90)">
			<title>Foglio.16</title>
			<path d="M0 296.24 L25.51 296.24" class="st7"/>
		</g>
		<g id="shape17-48" v:mID="17" v:groupContext="shape" transform="translate(-83.7477,-227.894) rotate(-18.4349)">
			<title>Foglio.17</title>
			<path d="M0 296.24 L40.34 296.24" class="st7"/>
		</g>
		<g id="shape18-51" v:mID="18" v:groupContext="shape" transform="translate(-82.4721,-227.032) rotate(-18.4349)">
			<title>Foglio.18</title>
			<path d="M0 296.24 L13.91 296.24" class="st7"/>
		</g>
		<g id="shape19-54" v:mID="19" v:groupContext="shape" transform="translate(11.2082,-233.438)">
			<title>Foglio.19</title>
			<path d="M13.19 291.85 L0 296.24 L0 287.45" class="st7"/>
		</g>
		<g id="shape20-57" v:mID="20" v:groupContext="shape" transform="translate(320.645,49.6116) rotate(90)">
			<title>Foglio.20</title>
			<path d="M0 296.24 L8.8 296.24" class="st7"/>
		</g>
		<g id="shape21-60" v:mID="21" v:groupContext="shape" transform="translate(-60.2768,-216.839) rotate(-18.4349)">
			<title>Foglio.21</title>
			<path d="M0 296.24 L4.3 296.24" class="st7"/>
		</g>
		<g id="shape22-63" v:mID="22" v:groupContext="shape" transform="translate(33.4035,-229.32)">
			<title>Foglio.22</title>
			<path d="M4.08 294.88 L0 296.24 L0 293.52" class="st7"/>
		</g>
		<g id="shape23-66" v:mID="23" v:groupContext="shape" transform="translate(333.729,62.8413) rotate(90)">
			<title>Foglio.23</title>
			<path d="M0 296.24 L2.72 296.24" class="st7"/>
		</g>
		<g id="shape24-69" v:mID="24" v:groupContext="shape" transform="translate(-54.4091,-218.88) rotate(-18.4349)">
			<title>Foglio.24</title>
			<path d="M0 296.24 L4.3 296.24" class="st7"/>
		</g>
		<g id="shape25-72" v:mID="25" v:groupContext="shape" transform="translate(39.2712,-231.361)">
			<title>Foglio.25</title>
			<path d="M4.08 294.88 L0 296.24 L0 293.52" class="st7"/>
		</g>
		<g id="shape26-75" v:mID="26" v:groupContext="shape" transform="translate(339.596,60.8003) rotate(90)">
			<title>Foglio.26</title>
			<path d="M0 296.24 L2.72 296.24" class="st7"/>
		</g>
		<g id="shape27-78" v:mID="27" v:groupContext="shape" transform="translate(34.1735,-230.927) rotate(-18.4349)">
			<title>Foglio.27</title>
			<path d="M0 296.24 L40.34 296.24" class="st7"/>
		</g>
		<g id="shape28-81" v:mID="28" v:groupContext="shape" transform="translate(462.365,37.3578) rotate(90)">
			<title>Foglio.28</title>
			<path d="M0 296.24 L9.45 296.24" class="st7"/>
		</g>
		<g id="shape29-84" v:mID="29" v:groupContext="shape" transform="translate(34.1735,-228.886) rotate(-18.4349)">
			<title>Foglio.29</title>
			<path d="M0 296.24 L40.34 296.24" class="st7"/>
		</g>
		<g id="shape30-87" v:mID="30" v:groupContext="shape" transform="translate(62.1232,-236.852) rotate(-18.4349)">
			<title>Foglio.30</title>
			<path d="M0 296.24 L4.3 296.24" class="st7"/>
		</g>
		<g id="shape31-90" v:mID="31" v:groupContext="shape" transform="translate(155.803,-249.333)">
			<title>Foglio.31</title>
			<path d="M4.08 294.88 L0 296.24 L0 293.52" class="st7"/>
		</g>
		<g id="shape32-93" v:mID="32" v:groupContext="shape" transform="translate(456.129,42.8287) rotate(90)">
			<title>Foglio.32</title>
			<path d="M0 296.24 L2.72 296.24" class="st7"/>
		</g>
		<g id="shape33-96" v:mID="33" v:groupContext="shape" transform="translate(67.2539,-238.779) rotate(-18.4349)">
			<title>Foglio.33</title>
			<path d="M0 296.24 L4.3 296.24" class="st7"/>
		</g>
		<g id="shape34-99" v:mID="34" v:groupContext="shape" transform="translate(160.934,-251.26)">
			<title>Foglio.34</title>
			<path d="M4.08 294.88 L0 296.24 L0 293.52" class="st7"/>
		</g>
		<g id="shape35-102" v:mID="35" v:groupContext="shape" transform="translate(461.259,40.9011) rotate(90)">
			<title>Foglio.35</title>
			<path d="M0 296.24 L2.72 296.24" class="st7"/>
		</g>
		<g id="shape36-105" v:mID="36" v:groupContext="shape" transform="translate(51.4649,-233.45) rotate(-18.4349)">
			<title>Foglio.36</title>
			<path d="M0 296.24 L4.3 296.24" class="st7"/>
		</g>
		<g id="shape37-108" v:mID="37" v:groupContext="shape" transform="translate(145.145,-245.931)">
			<title>Foglio.37</title>
			<path d="M4.08 294.88 L0 296.24 L0 293.52" class="st7"/>
		</g>
		<g id="shape38-111" v:mID="38" v:groupContext="shape" transform="translate(445.47,46.2302) rotate(90)">
			<title>Foglio.38</title>
			<path d="M0 296.24 L2.72 296.24" class="st7"/>
		</g>
		<g id="shape39-114" v:mID="39" v:groupContext="shape" transform="translate(56.794,-235.151) rotate(-18.4349)">
			<title>Foglio.39</title>
			<path d="M0 296.24 L4.3 296.24" class="st7"/>
		</g>
		<g id="shape40-117" v:mID="40" v:groupContext="shape" transform="translate(150.474,-247.632)">
			<title>Foglio.40</title>
			<path d="M4.08 294.88 L0 296.24 L0 293.52" class="st7"/>
		</g>
		<g id="shape41-120" v:mID="41" v:groupContext="shape" transform="translate(450.799,44.5294) rotate(90)">
			<title>Foglio.41</title>
			<path d="M0 296.24 L2.72 296.24" class="st7"/>
		</g>
		<g id="shape42-123" v:mID="42" v:groupContext="shape" transform="translate(46.3625,-231.778) rotate(-18.4349)">
			<title>Foglio.42</title>
			<path d="M0 296.24 L4.3 296.24" class="st7"/>
		</g>
		<g id="shape43-126" v:mID="43" v:groupContext="shape" transform="translate(140.043,-244.259)">
			<title>Foglio.43</title>
			<path d="M4.08 294.88 L0 296.24 L0 293.52" class="st7"/>
		</g>
		<g id="shape44-129" v:mID="44" v:groupContext="shape" transform="translate(440.368,47.9027) rotate(90)">
			<title>Foglio.44</title>
			<path d="M0 296.24 L2.72 296.24" class="st7"/>
		</g>
		<g id="shape45-132" v:mID="45" v:groupContext="shape" transform="translate(35.5909,-228.064) rotate(-18.4349)">
			<title>Foglio.45</title>
			<path d="M0 296.24 L4.3 296.24" class="st7"/>
		</g>
		<g id="shape46-135" v:mID="46" v:groupContext="shape" transform="translate(129.271,-240.545)">
			<title>Foglio.46</title>
			<path d="M4.08 294.88 L0 296.24 L0 293.52" class="st7"/>
		</g>
		<g id="shape47-138" v:mID="47" v:groupContext="shape" transform="translate(429.596,51.6161) rotate(90)">
			<title>Foglio.47</title>
			<path d="M0 296.24 L2.72 296.24" class="st7"/>
		</g>
		<g id="shape48-141" v:mID="48" v:groupContext="shape" transform="translate(40.92,-229.765) rotate(-18.4349)">
			<title>Foglio.48</title>
			<path d="M0 296.24 L4.3 296.24" class="st7"/>
		</g>
		<g id="shape49-144" v:mID="49" v:groupContext="shape" transform="translate(134.6,-242.246)">
			<title>Foglio.49</title>
			<path d="M4.08 294.88 L0 296.24 L0 293.52" class="st7"/>
		</g>
		<g id="shape50-147" v:mID="50" v:groupContext="shape" transform="translate(434.925,49.9153) rotate(90)">
			<title>Foglio.50</title>
			<path d="M0 296.24 L2.72 296.24" class="st7"/>
		</g>
		<g id="shape51-150" v:mID="51" v:groupContext="shape" transform="translate(41.2602,-223.841) rotate(-18.4349)">
			<title>Foglio.51</title>
			<path d="M0 296.24 L40.34 296.24" class="st7"/>
		</g>
		<g id="shape52-153" v:mID="52" v:groupContext="shape" transform="translate(134.94,-217.783)">
			<title>Foglio.52</title>
			<path d="M38.27 285.61 L0 296.24 L0 274.98" class="st7"/>
		</g>
		<g id="shape53-156" v:mID="53" v:groupContext="shape" transform="translate(469.451,44.4444) rotate(90)">
			<title>Foglio.53</title>
			<path d="M0 296.24 L23.39 296.24" class="st7"/>
		</g>
		<g id="shape54-159" v:mID="54" v:groupContext="shape" transform="translate(41.2602,-221.8) rotate(-18.4349)">
			<title>Foglio.54</title>
			<path d="M0 296.24 L40.34 296.24" class="st7"/>
		</g>
		<g id="shape55-162" v:mID="55" v:groupContext="shape" transform="translate(69.2098,-229.765) rotate(-18.4349)">
			<title>Foglio.55</title>
			<path d="M0 296.24 L4.3 296.24" class="st7"/>
		</g>
		<g id="shape56-165" v:mID="56" v:groupContext="shape" transform="translate(162.89,-242.246)">
			<title>Foglio.56</title>
			<path d="M4.08 294.88 L0 296.24 L0 293.52" class="st7"/>
		</g>
		<g id="shape57-168" v:mID="57" v:groupContext="shape" transform="translate(463.215,49.9153) rotate(90)">
			<title>Foglio.57</title>
			<path d="M0 296.24 L2.72 296.24" class="st7"/>
		</g>
		<g id="shape58-171" v:mID="58" v:groupContext="shape" transform="translate(74.3405,-231.693) rotate(-18.4349)">
			<title>Foglio.58</title>
			<path d="M0 296.24 L4.3 296.24" class="st7"/>
		</g>
		<g id="shape59-174" v:mID="59" v:groupContext="shape" transform="translate(168.021,-244.174)">
			<title>Foglio.59</title>
			<path d="M4.08 294.88 L0 296.24 L0 293.52" class="st7"/>
		</g>
		<g id="shape60-177" v:mID="60" v:groupContext="shape" transform="translate(468.346,47.9877) rotate(90)">
			<title>Foglio.60</title>
			<path d="M0 296.24 L2.72 296.24" class="st7"/>
		</g>
		<g id="shape61-180" v:mID="61" v:groupContext="shape" transform="translate(58.5515,-226.363) rotate(-18.4349)">
			<title>Foglio.61</title>
			<path d="M0 296.24 L4.3 296.24" class="st7"/>
		</g>
		<g id="shape62-183" v:mID="62" v:groupContext="shape" transform="translate(152.232,-238.844)">
			<title>Foglio.62</title>
			<path d="M4.08 294.88 L0 296.24 L0 293.52" class="st7"/>
		</g>
		<g id="shape63-186" v:mID="63" v:groupContext="shape" transform="translate(452.557,53.3169) rotate(90)">
			<title>Foglio.63</title>
			<path d="M0 296.24 L2.72 296.24" class="st7"/>
		</g>
		<g id="shape64-189" v:mID="64" v:groupContext="shape" transform="translate(63.8806,-228.064) rotate(-18.4349)">
			<title>Foglio.64</title>
			<path d="M0 296.24 L4.3 296.24" class="st7"/>
		</g>
		<g id="shape65-192" v:mID="65" v:groupContext="shape" transform="translate(157.561,-240.545)">
			<title>Foglio.65</title>
			<path d="M4.08 294.88 L0 296.24 L0 293.52" class="st7"/>
		</g>
		<g id="shape66-195" v:mID="66" v:groupContext="shape" transform="translate(457.886,51.6161) rotate(90)">
			<title>Foglio.66</title>
			<path d="M0 296.24 L2.72 296.24" class="st7"/>
		</g>
		<g id="shape67-198" v:mID="67" v:groupContext="shape" transform="translate(53.4491,-224.691) rotate(-18.4349)">
			<title>Foglio.67</title>
			<path d="M0 296.24 L4.3 296.24" class="st7"/>
		</g>
		<g id="shape68-201" v:mID="68" v:groupContext="shape" transform="translate(147.129,-237.172)">
			<title>Foglio.68</title>
			<path d="M4.08 294.88 L0 296.24 L0 293.52" class="st7"/>
		</g>
		<g id="shape69-204" v:mID="69" v:groupContext="shape" transform="translate(447.454,54.9893) rotate(90)">
			<title>Foglio.69</title>
			<path d="M0 296.24 L2.72 296.24" class="st7"/>
		</g>
		<g id="shape70-207" v:mID="70" v:groupContext="shape" transform="translate(42.6775,-220.978) rotate(-18.4349)">
			<title>Foglio.70</title>
			<path d="M0 296.24 L4.3 296.24" class="st7"/>
		</g>
		<g id="shape71-210" v:mID="71" v:groupContext="shape" transform="translate(136.358,-233.459)">
			<title>Foglio.71</title>
			<path d="M4.08 294.88 L0 296.24 L0 293.52" class="st7"/>
		</g>
		<g id="shape72-213" v:mID="72" v:groupContext="shape" transform="translate(436.683,58.7027) rotate(90)">
			<title>Foglio.72</title>
			<path d="M0 296.24 L2.72 296.24" class="st7"/>
		</g>
		<g id="shape73-216" v:mID="73" v:groupContext="shape" transform="translate(48.0066,-222.678) rotate(-18.4349)">
			<title>Foglio.73</title>
			<path d="M0 296.24 L4.3 296.24" class="st7"/>
		</g>
		<g id="shape74-219" v:mID="74" v:groupContext="shape" transform="translate(141.687,-235.159)">
			<title>Foglio.74</title>
			<path d="M4.08 294.88 L0 296.24 L0 293.52" class="st7"/>
		</g>
		<g id="shape75-222" v:mID="75" v:groupContext="shape" transform="translate(442.012,57.0019) rotate(90)">
			<title>Foglio.75</title>
			<path d="M0 296.24 L2.72 296.24" class="st7"/>
		</g>
		<g id="shape76-225" v:mID="76" v:groupContext="shape" transform="translate(424.097,50.1137) rotate(90)">
			<title>Foglio.76</title>
			<path d="M0 296.24 L22.25 296.24" class="st7"/>
		</g>
		<g id="shape77-228" v:mID="77" v:groupContext="shape" transform="translate(32.4924,-208.109) rotate(-18.778)">
			<title>Foglio.77</title>
			<path d="M0 296.24 L7.49 296.24" class="st7"/>
		</g>
		<g id="shape78-231" v:mID="78" v:groupContext="shape" transform="translate(176.043,-221.61)">
			<title>Foglio.78</title>
			<desc>Web Pages</desc>
			<v:textBlock v:margins="rect(4,4,4,4)" v:tabSpace="42.5197"/>
			<v:textRect cx="15.8031" cy="286.216" width="31.61" height="20.0551"/>
			<rect x="0" y="276.188" width="31.6063" height="20.0551" class="st4"/>
			<text x="7.58" y="283.82" class="st5" v:langID="1040"><v:paragraph v:horizAlign="1"/><v:tabList/>Web<v:newlineChar/><tspan
						x="4.46" dy="1.2em" class="st6">Pages</tspan></text>		</g>
		<g id="shape79-235" v:mID="79" v:groupContext="shape" transform="translate(6.38929,-128.208)">
			<title>Foglio.79</title>
			<rect x="0" y="223.96" width="256.313" height="72.2835" class="st2"/>
		</g>
		<g id="shape80-237" v:mID="80" v:groupContext="shape" transform="translate(6.38929,-57.4129)">
			<title>Foglio.80</title>
			<rect x="0" y="228.991" width="256.313" height="67.252" class="st2"/>
		</g>
		<g id="shape81-239" v:mID="81" v:groupContext="shape" transform="translate(268.371,-76.4759)">
			<title>Foglio.81</title>
			<rect x="0" y="182.857" width="72.5064" height="113.386" class="st3"/>
		</g>
		<g id="shape82-241" v:mID="82" v:groupContext="shape" transform="translate(269.788,-105.885)">
			<title>Foglio.82</title>
			<desc>Jakarta EE Server</desc>
			<v:textBlock v:margins="rect(4,4,4,4)" v:tabSpace="42.5197"/>
			<v:textRect cx="27.0406" cy="271.263" width="54.09" height="49.9606"/>
			<rect x="0" y="246.283" width="54.0812" height="49.9606" class="st4"/>
			<text x="7.48" y="268.86" class="st5" v:langID="1040"><v:paragraph v:horizAlign="1"/><v:tabList/>Jakarta EE<v:newlineChar/><tspan
						x="15.26" dy="1.2em" class="st6">Server</tspan></text>		</g>
		<g id="shape83-245" v:mID="83" v:groupContext="shape" transform="translate(116.94,-133.169)">
			<title>Foglio.83</title>
			<rect x="0" y="233.881" width="90.7087" height="62.3622" class="st3"/>
		</g>
		<g id="shape84-247" v:mID="84" v:groupContext="shape" transform="translate(114.637,-161.515)">
			<title>Foglio.84</title>
			<desc>Jakarta Server Pages Faces</desc>
			<v:textBlock v:margins="rect(4,4,4,4)" v:tabSpace="42.5197"/>
			<v:textRect cx="30.9154" cy="279.412" width="61.84" height="33.6614"/>
			<rect x="0" y="262.582" width="61.8307" height="33.6614" class="st4"/>
			<text x="4.91" y="272.21" class="st5" v:langID="1040"><v:paragraph v:horizAlign="1"/><v:tabList/>Jakarta Server<v:newlineChar/><tspan
						x="19.57" dy="1.2em" class="st6">Pages<v:newlineChar/></tspan><tspan x="20.02" dy="1.2em" class="st6">Faces</tspan></text>		</g>
		<g id="shape85-252" v:mID="85" v:groupContext="shape" transform="translate(223.017,-155.846)">
			<title>Foglio.85</title>
			<desc>Web Tier</desc>
			<v:textBlock v:margins="rect(4,4,4,4)" v:tabSpace="42.5197"/>
			<v:textRect cx="19.8425" cy="287.916" width="39.69" height="16.6535"/>
			<rect x="0" y="279.59" width="39.685" height="16.6535" class="st4"/>
			<text x="11.62" y="285.52" class="st5" v:langID="1040"><v:paragraph v:horizAlign="1"/><v:tabList/>Web<v:newlineChar/><tspan
						x="12.95" dy="1.2em" class="st6">Tier</tspan></text>		</g>
		<g id="shape86-256" v:mID="86" v:groupContext="shape" transform="translate(6.36821,-120.998) rotate(-35.3112)">
			<title>Foglio.86</title>
			<path d="M0 296.24 L27.79 296.24" class="st7"/>
		</g>
		<g id="shape87-259" v:mID="87" v:groupContext="shape" transform="translate(496.522,104.681) rotate(90)">
			<title>Foglio.87</title>
			<path d="M0 296.24 L1.77 296.24" class="st7"/>
		</g>
		<g id="shape88-262" v:mID="88" v:groupContext="shape" transform="translate(8.069,-120.431) rotate(-35.3112)">
			<title>Foglio.88</title>
			<path d="M0 296.24 L27.79 296.24" class="st7"/>
		</g>
		<g id="shape89-265" v:mID="89" v:groupContext="shape" transform="translate(498.223,105.248) rotate(90)">
			<title>Foglio.89</title>
			<path d="M0 296.24 L2.34 296.24" class="st7"/>
		</g>
		<g id="shape90-268" v:mID="90" v:groupContext="shape" transform="translate(9.76979,-119.297) rotate(-35.3112)">
			<title>Foglio.90</title>
			<path d="M0 296.24 L27.79 296.24" class="st7"/>
		</g>
		<g id="shape91-271" v:mID="91" v:groupContext="shape" transform="translate(181.003,-141.673)">
			<title>Foglio.91</title>
			<path d="M22.68 280.18 L0 296.24 L0 264.12" class="st7"/>
		</g>
		<g id="shape92-274" v:mID="92" v:groupContext="shape" transform="translate(499.924,106.381) rotate(90)">
			<title>Foglio.92</title>
			<path d="M0 296.24 L32.13 296.24" class="st7"/>
		</g>
		<g id="shape93-277" v:mID="93" v:groupContext="shape" transform="translate(473.845,121.122) rotate(90)">
			<title>Foglio.93</title>
			<path d="M0 296.24 L32.13 296.24" class="st7"/>
		</g>
		<g id="shape94-280" v:mID="94" v:groupContext="shape" transform="translate(6.36821,-88.4941) rotate(-35.3112)">
			<title>Foglio.94</title>
			<path d="M0 296.24 L2.08 296.24" class="st7"/>
		</g>
		<g id="shape95-283" v:mID="95" v:groupContext="shape" transform="translate(475.546,121.689) rotate(90)">
			<title>Foglio.95</title>
			<path d="M0 296.24 L32.13 296.24" class="st7"/>
		</g>
		<g id="shape96-286" v:mID="96" v:groupContext="shape" transform="translate(8.069,-87.9272) rotate(-35.3112)">
			<title>Foglio.96</title>
			<path d="M0 296.24 L2.08 296.24" class="st7"/>
		</g>
		<g id="shape97-289" v:mID="97" v:groupContext="shape" transform="translate(20.5625,-63.0822)">
			<title>Foglio.97</title>
			<rect x="0" y="240.33" width="85.0394" height="55.9134" class="st8"/>
		</g>
		<g id="shape98-291" v:mID="98" v:groupContext="shape" transform="translate(17.7279,-94.2569)">
			<title>Foglio.98</title>
			<desc>Enterprise Beans</desc>
			<v:textBlock v:margins="rect(4,4,4,4)" v:tabSpace="42.5197"/>
			<v:textRect cx="27.815" cy="284.003" width="55.63" height="24.481"/>
			<rect x="0" y="271.762" width="55.6299" height="24.481" class="st4"/>
			<text x="9.58" y="281.6" class="st5" v:langID="1040"><v:paragraph v:horizAlign="1"/><v:tabList/>Enterprise<v:newlineChar/><tspan
						x="16.47" dy="1.2em" class="st6">Beans</tspan></text>		</g>
		<g id="shape99-295" v:mID="99" v:groupContext="shape" transform="translate(73.0035,-65.6794)">
			<title>Foglio.99</title>
			<ellipse cx="12.7542" cy="288.348" rx="12.7542" ry="7.89545" class="st9"/>
		</g>
		<g id="shape100-297" v:mID="100" v:groupContext="shape" transform="translate(76.2042,-71.3155) rotate(0.617535)">
			<title>Foglio.100</title>
			<path d="M0 293.39 C1.36 294.29 2.83 295.5 4.97 296.01 C5.69 296.19 6.49 296.28 7.22 296.23 C8.82 296.13 10.08 295.34
						 11.27 294.61 C12.91 293.6 14.42 292.68 16.59 292.24 C18 291.96 19.7 291.89 21.08 292.07 C22.88 292.31 24.16
						 292.99 25.46 293.39" class="st10"/>
		</g>
		<g id="shape101-300" v:mID="101" v:groupContext="shape" transform="translate(-90.7198,-26.5778) rotate(-30)">
			<title>Foglio.101</title>
			<ellipse cx="12.7542" cy="288.348" rx="12.7542" ry="7.89545" class="st9"/>
		</g>
		<g id="shape102-302" v:mID="102" v:groupContext="shape" transform="translate(-90.7659,-33.0592) rotate(-29.3825)">
			<title>Foglio.102</title>
			<path d="M0 293.39 C1.36 294.29 2.83 295.5 4.97 296.01 C5.69 296.19 6.49 296.28 7.22 296.23 C8.82 296.13 10.08 295.34
						 11.27 294.61 C12.91 293.6 14.42 292.68 16.59 292.24 C18 291.96 19.7 291.89 21.08 292.07 C22.88 292.31 24.16
						 292.99 25.46 293.39" class="st10"/>
		</g>
		<g id="shape103-305" v:mID="103" v:groupContext="shape" transform="translate(125.444,-63.0822)">
			<title>Foglio.103</title>
			<rect x="0" y="240.33" width="85.0394" height="55.9134" class="st8"/>
		</g>
		<g id="shape104-307" v:mID="104" v:groupContext="shape" transform="translate(122.61,-94.2569)">
			<title>Foglio.104</title>
			<desc>Enterprise Beans</desc>
			<v:textBlock v:margins="rect(4,4,4,4)" v:tabSpace="42.5197"/>
			<v:textRect cx="27.815" cy="284.003" width="55.63" height="24.481"/>
			<rect x="0" y="271.762" width="55.6299" height="24.481" class="st4"/>
			<text x="9.58" y="281.6" class="st5" v:langID="1040"><v:paragraph v:horizAlign="1"/><v:tabList/>Enterprise<v:newlineChar/><tspan
						x="16.47" dy="1.2em" class="st6">Beans</tspan></text>		</g>
		<g id="shape105-311" v:mID="105" v:groupContext="shape" transform="translate(177.885,-65.6794)">
			<title>Foglio.105</title>
			<ellipse cx="12.7542" cy="288.348" rx="12.7542" ry="7.89545" class="st9"/>
		</g>
		<g id="shape106-313" v:mID="106" v:groupContext="shape" transform="translate(181.086,-71.3155) rotate(0.617535)">
			<title>Foglio.106</title>
			<path d="M0 293.39 C1.36 294.29 2.83 295.5 4.97 296.01 C5.69 296.19 6.49 296.28 7.22 296.23 C8.82 296.13 10.08 295.34
						 11.27 294.61 C12.91 293.6 14.42 292.68 16.59 292.24 C18 291.96 19.7 291.89 21.08 292.07 C22.88 292.31 24.16
						 292.99 25.46 293.39" class="st10"/>
		</g>
		<g id="shape107-316" v:mID="107" v:groupContext="shape" transform="translate(14.1621,-26.5778) rotate(-30)">
			<title>Foglio.107</title>
			<ellipse cx="12.7542" cy="288.348" rx="12.7542" ry="7.89545" class="st9"/>
		</g>
		<g id="shape108-318" v:mID="108" v:groupContext="shape" transform="translate(14.116,-33.0592) rotate(-29.3825)">
			<title>Foglio.108</title>
			<path d="M0 293.39 C1.36 294.29 2.83 295.5 4.97 296.01 C5.69 296.19 6.49 296.28 7.22 296.23 C8.82 296.13 10.08 295.34
						 11.27 294.61 C12.91 293.6 14.42 292.68 16.59 292.24 C18 291.96 19.7 291.89 21.08 292.07 C22.88 292.31 24.16
						 292.99 25.46 293.39" class="st10"/>
		</g>
		<g id="shape109-321" v:mID="109" v:groupContext="shape" transform="translate(210.484,-88.1688)">
			<title>Foglio.109</title>
			<desc>Business Tier</desc>
			<v:textBlock v:margins="rect(4,4,4,4)" v:tabSpace="42.5197"/>
			<v:textRect cx="24.0945" cy="287.916" width="48.19" height="16.6535"/>
			<rect x="0" y="279.59" width="48.189" height="16.6535" class="st4"/>
			<text x="7.86" y="285.52" class="st5" v:langID="1040"><v:paragraph v:horizAlign="1"/><v:tabList/>Business<v:newlineChar/><tspan
						x="17.21" dy="1.2em" class="st6">Tier</tspan></text>		</g>
		<g id="shape110-325" v:mID="110" v:groupContext="shape" transform="translate(-53.3838,59.468) rotate(-90) scale(-1,1)">
			<title>Foglio.110</title>
			<path d="M0 296.24 L49.17 296.24" class="st11"/>
		</g>
		<g id="shape111-331" v:mID="111" v:groupContext="shape" transform="translate(-54.8012,145.854) rotate(-90) scale(-1,1)">
			<title>Foglio.111</title>
			<path d="M0 296.24 L30.74 296.24" class="st11"/>
		</g>
		<g id="shape112-336" v:mID="112" v:groupContext="shape" transform="translate(229.476,-10.9956)">
			<title>Foglio.112</title>
			<desc>EIS Tier</desc>
			<v:textBlock v:margins="rect(4,4,4,4)" v:tabSpace="42.5197"/>
			<v:textRect cx="13.3228" cy="287.916" width="26.65" height="16.6535"/>
			<rect x="0" y="279.59" width="26.6457" height="16.6535" class="st4"/>
			<text x="6.88" y="285.52" class="st5" v:langID="1040"><v:paragraph v:horizAlign="1"/><v:tabList/>EIS<v:newlineChar/><tspan
						x="6.43" dy="1.2em" class="st6">Tier</tspan></text>		</g>
		<g id="shape113-340" v:mID="113" v:groupContext="shape" transform="translate(139.395,-26.5754)">
			<title>Foglio.113</title>
			<ellipse cx="18.4252" cy="290.746" rx="18.4252" ry="5.49749" class="st2"/>
		</g>
		<g id="shape114-342" v:mID="114" v:groupContext="shape" transform="translate(139.395,-19.4287)">
			<title>Foglio.114</title>
			<path d="M-0 291.71 A26.0572 15.4849 0 0 0 36.85 291.71" class="st7"/>
		</g>
		<g id="shape115-345" v:mID="115" v:groupContext="shape" transform="translate(139.395,-12.6255)">
			<title>Foglio.115</title>
			<path d="M-0 291.71 A26.0572 15.4849 0 0 0 36.85 291.71" class="st7"/>
		</g>
		<g id="shape116-348" v:mID="116" v:groupContext="shape" transform="translate(139.395,-6.27591)">
			<title>Foglio.116</title>
			<path d="M-0 291.71 A26.0572 15.4849 0 0 0 36.85 291.71" class="st7"/>
		</g>
		<g id="shape117-351" v:mID="117" v:groupContext="shape" transform="translate(472.488,285.281) rotate(90) scale(-1,1)">
			<title>Foglio.117</title>
			<path d="M0 296.24 L21.11 296.24" class="st7"/>
		</g>
		<g id="shape118-354" v:mID="118" v:groupContext="shape" transform="translate(435.638,285.281) rotate(90) scale(-1,1)">
			<title>Foglio.118</title>
			<path d="M0 296.24 L21.11 296.24" class="st7"/>
		</g>
		<g id="shape119-357" v:mID="119" v:groupContext="shape" transform="translate(176.245,-9.73933)">
			<title>Foglio.119</title>
			<desc>Database</desc>
			<v:textBlock v:margins="rect(4,4,4,4)" v:tabSpace="42.5197"/>
			<v:textRect cx="21.9685" cy="286.58" width="43.94" height="19.3271"/>
			<rect x="0" y="276.916" width="43.937" height="19.3271" class="st4"/>
			<text x="4.18" y="288.98" class="st13" v:langID="1040"><v:paragraph v:horizAlign="1"/><v:tabList/>Database</text>		</g>
		<g id="shape120-360" v:mID="120" v:groupContext="shape" transform="translate(14.8932,-26.5754)">
			<title>Foglio.120</title>
			<ellipse cx="17.3622" cy="290.746" rx="17.3622" ry="5.49749" class="st2"/>
		</g>
		<g id="shape121-362" v:mID="121" v:groupContext="shape" transform="translate(14.8932,-19.4287)">
			<title>Foglio.121</title>
			<path d="M-0 291.71 A24.5539 15.4849 0 0 0 34.72 291.71" class="st7"/>
		</g>
		<g id="shape122-365" v:mID="122" v:groupContext="shape" transform="translate(14.8932,-12.6255)">
			<title>Foglio.122</title>
			<path d="M-0 291.71 A24.5539 15.4849 0 0 0 34.72 291.71" class="st7"/>
		</g>
		<g id="shape123-368" v:mID="123" v:groupContext="shape" transform="translate(14.8932,-6.27591)">
			<title>Foglio.123</title>
			<path d="M-0 291.71 A24.5539 15.4849 0 0 0 34.72 291.71" class="st7"/>
		</g>
		<g id="shape124-371" v:mID="124" v:groupContext="shape" transform="translate(345.861,285.281) rotate(90) scale(-1,1)">
			<title>Foglio.124</title>
			<path d="M0 296.24 L21.11 296.24" class="st7"/>
		</g>
		<g id="shape125-374" v:mID="125" v:groupContext="shape" transform="translate(311.136,285.281) rotate(90) scale(-1,1)">
			<title>Foglio.125</title>
			<path d="M0 296.24 L21.11 296.24" class="st7"/>
		</g>
		<g id="shape126-377" v:mID="126" v:groupContext="shape" transform="translate(49.6176,-9.73933)">
			<title>Foglio.126</title>
			<desc>Database</desc>
			<v:textBlock v:margins="rect(4,4,4,4)" v:tabSpace="42.5197"/>
			<v:textRect cx="21.9685" cy="286.58" width="43.94" height="19.3271"/>
			<rect x="0" y="276.916" width="43.937" height="19.3271" class="st4"/>
			<text x="4.18" y="288.98" class="st13" v:langID="1040"><v:paragraph v:horizAlign="1"/><v:tabList/>Database</text>		</g>
		<g id="shape127-380" v:mID="127" v:groupContext="shape" transform="translate(-53.3838,215.799) rotate(-90) scale(-1,1)">
			<title>Foglio.127</title>
			<path d="M0 296.24 L38.82 296.24" class="st11"/>
		</g>
		<g id="shape128-385" v:mID="128" v:groupContext="shape" transform="translate(245.633,404.963) rotate(180)">
			<title>Foglio.128</title>
			<path d="M5.67 296.24 L0 296.24 L2.83 286.61 L5.67 296.24 Z" class="st14"/>
		</g>
		<g id="shape129-387" v:mID="129" v:groupContext="shape" transform="translate(244.216,472.995) rotate(180)">
			<title>Foglio.129</title>
			<path d="M5.67 296.24 L0 296.24 L2.83 286.61 L5.67 296.24 Z" class="st14"/>
		</g>
		<g id="shape130-389" v:mID="130" v:groupContext="shape" transform="translate(245.633,550.877) rotate(180)">
			<title>Foglio.130</title>
			<path d="M5.67 296.24 L0 296.24 L2.83 286.61 L5.67 296.24 Z" class="st14"/>
		</g>
	</g>
</svg>
