<?xml version="1.0" encoding="UTF-8" standalone="no"?>
<!DOCTYPE svg PUBLIC "-//W3C//DTD SVG 1.0//EN" "http://www.w3.org/TR/2001/REC-SVG-20010904/DTD/svg10.dtd">
<!-- Generato da Microsoft Visio 11.0, SVG Export, v1.0 jakartaeett_dt_013.svg Pagina 1 -->
<svg xmlns="http://www.w3.org/2000/svg" xmlns:v="http://schemas.microsoft.com/visio/2003/SVGExtensions/" width="5.96488in"
		height="1.9885in" viewBox="0 0 429.471 143.172" xml:space="preserve" color-interpolation-filters="sRGB" class="st12"
		xmlns:xlink="http://www.w3.org/1999/xlink">
	<v:documentProperties v:langID="1040" v:metric="true" v:viewMarkup="false">
		<v:userDefs>
			<v:ud v:nameU="MBSAAddinOutlineVisible" v:prompt="" v:val="VT0(1):26"/>
		</v:userDefs>
	</v:documentProperties>

	<style type="text/css">
	<![CDATA[
		.st1 {fill:#ffffff;stroke:none;stroke-linecap:round;stroke-linejoin:round;stroke-width:0.72}
		.st2 {fill:#cadaa9;stroke:#000000;stroke-linecap:round;stroke-linejoin:round;stroke-width:0.72}
		.st3 {fill:#f2f2f2;stroke:#000000;stroke-linecap:round;stroke-linejoin:round;stroke-width:0.72}
		.st4 {fill:#c8d6e6;stroke:#000000;stroke-linecap:round;stroke-linejoin:round;stroke-width:0.72}
		.st5 {stroke:#000000;stroke-linecap:round;stroke-linejoin:round;stroke-width:0.72}
		.st6 {fill:none;stroke:none;stroke-linecap:round;stroke-linejoin:round;stroke-width:0.72}
		.st7 {fill:#000000;font-family:Arial;font-size:0.666664em}
		.st8 {font-size:1em}
		.st9 {fill:#000000;font-family:Arial;font-size:0.666664em;font-weight:bold}
		.st10 {fill:#ffffff;stroke:#000000;stroke-linecap:round;stroke-linejoin:round;stroke-width:0.72}
		.st11 {fill:#000000;stroke:#000000;stroke-linecap:round;stroke-linejoin:round;stroke-width:0.72}
		.st12 {fill:none;fill-rule:evenodd;font-size:12;overflow:visible;stroke-linecap:square;stroke-miterlimit:3}
	]]>
	</style>

	<g v:mID="0" v:index="1" v:groupContext="foregroundPage">
		<title>Pagina 1</title>
		<v:pageProperties v:drawingScale="0.0393701" v:pageScale="0.0393701" v:drawingUnits="24" v:shadowOffsetX="8.50394"
				v:shadowOffsetY="-8.50394"/>
		<g id="shape35-1" v:mID="35" v:groupContext="shape" transform="translate(0.72,-0.72)">
			<title>Foglio.35</title>
			<rect x="0" y="1.44" width="423.78" height="141.732" class="st1"/>
		</g>
		<g id="shape28-3" v:mID="28" v:groupContext="shape" transform="translate(167.964,-9.22394)">
			<title>Foglio.28</title>
			<rect x="0" y="18.4479" width="184.252" height="124.724" class="st2"/>
		</g>
		<g id="shape9-5" v:mID="9" v:groupContext="shape" transform="translate(271.429,-97.098)">
			<title>Foglio.9</title>
			<rect x="0" y="114.826" width="64.9134" height="28.3465" class="st3"/>
		</g>
		<g id="shape8-7" v:mID="8" v:groupContext="shape" transform="translate(274.263,-94.2633)">
			<title>Foglio.8</title>
			<rect x="0" y="114.826" width="66.0472" height="28.3465" class="st3"/>
		</g>
		<g id="shape483-9" v:mID="483" v:groupContext="shape" transform="translate(-99.9326,136.783) rotate(-90)">
			<title>Foglio.483</title>
			<rect x="0" y="109.157" width="130.394" height="34.0157" class="st4"/>
		</g>
		<g id="shape2-11" v:mID="2" v:groupContext="shape" transform="translate(63.0822,-111.271) scale(-1,1)">
			<title>Foglio.2</title>
			<path d="M0 143.17 L19.84 143.17" class="st5"/>
		</g>
		<g id="shape1-14" v:mID="1" v:groupContext="shape" transform="translate(6.74362,-6.38929)">
			<title>Foglio.1</title>
			<desc>Web Client</desc>
			<v:textBlock v:margins="rect(4,4,4,4)" v:tabSpace="42.5197"/>
			<v:textRect cx="15.4134" cy="79.3928" width="30.83" height="127.559"/>
			<rect x="0" y="15.6132" width="30.8268" height="127.559" class="st6"/>
			<text x="7.19" y="76.99" class="st7" v:langID="1040"><v:paragraph v:horizAlign="1"/><v:tabList/>Web<v:newlineChar/><tspan
						x="5.19" dy="1.2em" class="st8">Client</tspan></text>		</g>
		<g id="shape3-18" v:mID="3" v:groupContext="shape" transform="translate(176.468,-97.098)">
			<title>Foglio.3</title>
			<rect x="0" y="114.826" width="63.7795" height="28.3465" class="st3"/>
		</g>
		<g id="shape484-20" v:mID="484" v:groupContext="shape" transform="translate(175.051,-97.098)">
			<title>Foglio.484</title>
			<desc>HttpServlet Request</desc>
			<v:textBlock v:margins="rect(4,4,4,4)" v:tabSpace="42.5197"/>
			<v:textRect cx="26.9291" cy="128.999" width="53.86" height="28.3465"/>
			<rect x="0" y="114.826" width="53.8583" height="28.3465" class="st6"/>
			<text x="7.14" y="126.6" class="st7" v:langID="1040"><v:paragraph v:horizAlign="1"/><v:tabList/>HttpServlet<v:newlineChar/><tspan
						x="12.03" dy="1.2em" class="st8">Request</tspan></text>		</g>
		<g id="shape4-24" v:mID="4" v:groupContext="shape" transform="translate(176.468,-17.7279)">
			<title>Foglio.4</title>
			<rect x="0" y="114.826" width="63.7795" height="28.3465" class="st3"/>
		</g>
		<g id="shape5-26" v:mID="5" v:groupContext="shape" transform="translate(175.051,-17.7279)">
			<title>Foglio.5</title>
			<desc>HttpServlet Response</desc>
			<v:textBlock v:margins="rect(4,4,4,4)" v:tabSpace="42.5197"/>
			<v:textRect cx="26.9291" cy="128.999" width="53.86" height="28.3465"/>
			<rect x="0" y="114.826" width="53.8583" height="28.3465" class="st6"/>
			<text x="7.14" y="126.6" class="st7" v:langID="1040"><v:paragraph v:horizAlign="1"/><v:tabList/>HttpServlet<v:newlineChar/><tspan
						x="8.92" dy="1.2em" class="st8">Response</tspan></text>		</g>
		<g id="shape6-30" v:mID="6" v:groupContext="shape" transform="translate(277.098,-91.4287)">
			<title>Foglio.6</title>
			<rect x="0" y="114.826" width="66.6142" height="28.3465" class="st3"/>
		</g>
		<g id="shape7-32" v:mID="7" v:groupContext="shape" transform="translate(277.098,-91.4287)">
			<title>Foglio.7</title>
			<desc>Web Components</desc>
			<v:textBlock v:margins="rect(4,4,4,4)" v:tabSpace="42.5197"/>
			<v:textRect cx="26.9291" cy="128.999" width="53.86" height="28.3465"/>
			<rect x="0" y="114.826" width="53.8583" height="28.3465" class="st6"/>
			<text x="18.7" y="126.6" class="st7" v:langID="1040"><v:paragraph v:horizAlign="1"/><v:tabList/>Web <tspan x="4.25"
						dy="1.2em" class="st8">Components</tspan></text>		</g>
		<g id="shape10-36" v:mID="10" v:groupContext="shape" transform="translate(270.011,-23.3972)">
			<title>Foglio.10</title>
			<rect x="0" y="114.826" width="68.0315" height="28.3465" class="st3"/>
		</g>
		<g id="shape11-38" v:mID="11" v:groupContext="shape" transform="translate(272.846,-20.5625)">
			<title>Foglio.11</title>
			<rect x="0" y="114.826" width="68.0315" height="28.3465" class="st3"/>
		</g>
		<g id="shape12-40" v:mID="12" v:groupContext="shape" transform="translate(275.681,-17.7279)">
			<title>Foglio.12</title>
			<rect x="0" y="114.826" width="68.0315" height="28.3465" class="st3"/>
		</g>
		<g id="shape13-42" v:mID="13" v:groupContext="shape" transform="translate(275.681,-17.7279)">
			<title>Foglio.13</title>
			<desc>JavaBeans Components</desc>
			<v:textBlock v:margins="rect(4,4,4,4)" v:tabSpace="42.5197"/>
			<v:textRect cx="26.9291" cy="128.999" width="53.86" height="28.3465"/>
			<rect x="0" y="114.826" width="53.8583" height="28.3465" class="st6"/>
			<text x="7.14" y="126.6" class="st7" v:langID="1040"><v:paragraph v:horizAlign="1"/><v:tabList/>JavaBeans <tspan
						x="4.25" dy="1.2em" class="st8">Components</tspan></text>		</g>
		<g id="shape14-46" v:mID="14" v:groupContext="shape" transform="translate(389.421,-115.351)">
			<title>Foglio.14</title>
			<ellipse cx="17.3622" cy="137.675" rx="17.3622" ry="5.49749" class="st4"/>
		</g>
		<g id="shape15-48" v:mID="15" v:groupContext="shape" transform="translate(389.421,-108.205)">
			<title>Foglio.15</title>
			<path d="M-0 138.64 A24.5539 15.4849 0 0 0 34.72 138.64" class="st5"/>
		</g>
		<g id="shape16-51" v:mID="16" v:groupContext="shape" transform="translate(389.421,-101.401)">
			<title>Foglio.16</title>
			<path d="M-0 138.64 A24.5539 15.4849 0 0 0 34.72 138.64" class="st5"/>
		</g>
		<g id="shape17-54" v:mID="17" v:groupContext="shape" transform="translate(389.421,-95.0519)">
			<title>Foglio.17</title>
			<path d="M-0 138.64 A24.5539 15.4849 0 0 0 34.72 138.64" class="st5"/>
		</g>
		<g id="shape18-57" v:mID="18" v:groupContext="shape" transform="translate(567.317,43.4338) rotate(90) scale(-1,1)">
			<title>Foglio.18</title>
			<path d="M0 143.17 L21.11 143.17" class="st5"/>
		</g>
		<g id="shape19-60" v:mID="19" v:groupContext="shape" transform="translate(532.593,43.4338) rotate(90) scale(-1,1)">
			<title>Foglio.19</title>
			<path d="M0 143.17 L21.11 143.17" class="st5"/>
		</g>
		<g id="shape20-63" v:mID="20" v:groupContext="shape" transform="translate(383.397,-77.2554)">
			<title>Foglio.20</title>
			<desc>Database</desc>
			<v:textBlock v:margins="rect(4,4,4,4)" v:tabSpace="42.5197"/>
			<v:textRect cx="21.9685" cy="133.509" width="43.94" height="19.3271"/>
			<rect x="0" y="123.845" width="43.937" height="19.3271" class="st6"/>
			<text x="4.18" y="135.91" class="st9" v:langID="1040"><v:paragraph v:horizAlign="1"/><v:tabList/>Database</text>		</g>
		<g id="shape21-66" v:mID="21" v:groupContext="shape" transform="translate(389.066,-40.7486)">
			<title>Foglio.21</title>
			<ellipse cx="17.3622" cy="137.675" rx="17.3622" ry="5.49749" class="st4"/>
		</g>
		<g id="shape22-68" v:mID="22" v:groupContext="shape" transform="translate(389.066,-33.6019)">
			<title>Foglio.22</title>
			<path d="M-0 138.64 A24.5539 15.4849 0 0 0 34.72 138.64" class="st5"/>
		</g>
		<g id="shape23-71" v:mID="23" v:groupContext="shape" transform="translate(389.066,-26.7987)">
			<title>Foglio.23</title>
			<path d="M-0 138.64 A24.5539 15.4849 0 0 0 34.72 138.64" class="st5"/>
		</g>
		<g id="shape24-74" v:mID="24" v:groupContext="shape" transform="translate(389.066,-20.4491)">
			<title>Foglio.24</title>
			<path d="M-0 138.64 A24.5539 15.4849 0 0 0 34.72 138.64" class="st5"/>
		</g>
		<g id="shape25-77" v:mID="25" v:groupContext="shape" transform="translate(566.963,118.037) rotate(90) scale(-1,1)">
			<title>Foglio.25</title>
			<path d="M0 143.17 L21.11 143.17" class="st5"/>
		</g>
		<g id="shape26-80" v:mID="26" v:groupContext="shape" transform="translate(532.239,118.037) rotate(90) scale(-1,1)">
			<title>Foglio.26</title>
			<path d="M0 143.17 L21.11 143.17" class="st5"/>
		</g>
		<g id="shape27-83" v:mID="27" v:groupContext="shape" transform="translate(384.814,-1.23539)">
			<title>Foglio.27</title>
			<desc>Database</desc>
			<v:textBlock v:margins="rect(4,4,4,4)" v:tabSpace="42.5197"/>
			<v:textRect cx="21.9685" cy="133.509" width="43.94" height="19.3271"/>
			<rect x="0" y="123.845" width="43.937" height="19.3271" class="st6"/>
			<text x="4.18" y="135.91" class="st9" v:langID="1040"><v:paragraph v:horizAlign="1"/><v:tabList/>Database</text>		</g>
		<g id="shape30-86" v:mID="30" v:groupContext="shape" transform="translate(48.909,-105.272)">
			<title>Foglio.30</title>
			<ellipse cx="5.69203" cy="137.338" rx="5.69203" ry="5.83433" class="st10"/>
		</g>
		<g id="shape31-88" v:mID="31" v:groupContext="shape" transform="translate(47.8514,-105.602)">
			<title>Foglio.31</title>
			<desc>1</desc>
			<v:textBlock v:margins="rect(4,4,4,4)"/>
			<v:textRect cx="4.49727" cy="138.675" width="9" height="8.99455"/>
			<rect x="0" y="134.178" width="8.99455" height="8.99455" class="st6"/>
			<text x="4" y="141.07" class="st9" v:langID="1040"><v:paragraph v:spBefore="5" v:spAfter="5" v:bulletSize="0.166667"/><v:tabList/>1</text>		</g>
		<g id="shape42-91" v:mID="42" v:groupContext="shape" transform="translate(60.2476,-102.512)">
			<title>Foglio.42</title>
			<desc>HTTP Request</desc>
			<v:textBlock v:margins="rect(4,4,4,4)" v:tabSpace="42.5197"/>
			<v:textRect cx="30.6" cy="134.541" width="61.21" height="17.263"/>
			<rect x="0" y="125.909" width="61.2" height="17.263" class="st6"/>
			<text x="4.15" y="136.94" class="st7" v:langID="1040"><v:paragraph v:horizAlign="1"/><v:tabList/>HTTP Request</text>		</g>
		<g id="shape43-94" v:mID="43" v:groupContext="shape" transform="translate(63.0822,-32.1562) scale(-1,1)">
			<title>Foglio.43</title>
			<path d="M0 143.17 L19.84 143.17" class="st5"/>
		</g>
		<g id="shape44-97" v:mID="44" v:groupContext="shape" transform="translate(60.2476,-23.3972)">
			<title>Foglio.44</title>
			<desc>HTTP Response</desc>
			<v:textBlock v:margins="rect(4,4,4,4)" v:tabSpace="42.5197"/>
			<v:textRect cx="34.0157" cy="134.541" width="68.04" height="17.263"/>
			<rect x="0" y="125.909" width="68.0315" height="17.263" class="st6"/>
			<text x="4.45" y="136.94" class="st7" v:langID="1040"><v:paragraph v:horizAlign="1"/><v:tabList/>HTTP Response</text>		</g>
		<g id="shape45-100" v:mID="45" v:groupContext="shape" transform="translate(176.468,-32.0287) scale(-1,1)">
			<title>Foglio.45</title>
			<path d="M0 143.17 L31.18 143.17" class="st5"/>
		</g>
		<g id="shape46-103" v:mID="46" v:groupContext="shape" transform="translate(176.468,-111.124) scale(-1,1)">
			<title>Foglio.46</title>
			<path d="M0 143.17 L34.02 143.17" class="st5"/>
		</g>
		<g id="shape47-106" v:mID="47" v:groupContext="shape" transform="translate(271.429,-111.271) scale(-1,1)">
			<title>Foglio.47</title>
			<path d="M0 143.17 L31.18 143.17" class="st5"/>
		</g>
		<g id="shape48-109" v:mID="48" v:groupContext="shape" transform="translate(162.272,51.7436) rotate(-90) scale(-1,1)">
			<title>Foglio.48</title>
			<v:textBlock v:margins="rect(4,4,4,4)" v:tabSpace="42.5197"/>
			<path d="M0 143.17 L39.69 143.17" class="st5"/>
		</g>
		<g id="shape49-112" v:mID="49" v:groupContext="shape" transform="translate(380.563,-111.271) scale(-1,1)">
			<title>Foglio.49</title>
			<path d="M0 143.17 L36.67 143.17" class="st5"/>
		</g>
		<g id="shape52-115" v:mID="52" v:groupContext="shape" transform="translate(532.239,117.842) rotate(90) scale(-1,1)">
			<title>Foglio.52</title>
			<path d="M0 143.17 L21.11 143.17" class="st5"/>
		</g>
		<g id="shape56-118" v:mID="56" v:groupContext="shape" transform="translate(271.429,-101.35) scale(-1,1)">
			<title>Foglio.56</title>
			<path d="M0 143.17 L15.59 143.17" class="st5"/>
		</g>
		<g id="shape57-121" v:mID="57" v:groupContext="shape" transform="translate(112.666,41.8224) rotate(-90) scale(-1,1)">
			<title>Foglio.57</title>
			<v:textBlock v:margins="rect(4,4,4,4)" v:tabSpace="42.5197"/>
			<path d="M0 143.17 L69.45 143.17" class="st5"/>
		</g>
		<g id="shape58-124" v:mID="58" v:groupContext="shape" transform="translate(255.838,-31.9011) scale(-1,1)">
			<title>Foglio.58</title>
			<path d="M0 143.17 L15.59 143.17" class="st5"/>
		</g>
		<g id="shape36-127" v:mID="36" v:groupContext="shape" transform="translate(152.09,-26.2318)">
			<title>Foglio.36</title>
			<ellipse cx="5.69203" cy="137.338" rx="5.69203" ry="5.83433" class="st10"/>
		</g>
		<g id="shape39-129" v:mID="39" v:groupContext="shape" transform="translate(151.033,-26.2318)">
			<title>Foglio.39</title>
			<desc>6</desc>
			<v:textBlock v:margins="rect(4,4,4,4)"/>
			<v:textRect cx="4.49727" cy="138.675" width="9" height="8.99455"/>
			<rect x="0" y="134.178" width="8.99455" height="8.99455" class="st6"/>
			<text x="4" y="141.07" class="st9" v:langID="1040"><v:paragraph v:spBefore="5" v:spAfter="5" v:bulletSize="0.166667"/><v:tabList/>6</text>		</g>
		<g id="shape37-132" v:mID="37" v:groupContext="shape" transform="translate(250.169,-63.0822)">
			<title>Foglio.37</title>
			<ellipse cx="5.69203" cy="137.338" rx="5.69203" ry="5.83433" class="st10"/>
		</g>
		<g id="shape41-134" v:mID="41" v:groupContext="shape" transform="translate(249.111,-63.0822)">
			<title>Foglio.41</title>
			<desc>5</desc>
			<v:textBlock v:margins="rect(4,4,4,4)"/>
			<v:textRect cx="4.49727" cy="138.675" width="9" height="8.99455"/>
			<rect x="0" y="134.178" width="8.99455" height="8.99455" class="st6"/>
			<text x="4" y="141.07" class="st9" v:langID="1040"><v:paragraph v:spBefore="5" v:spAfter="5" v:bulletSize="0.166667"/><v:tabList/>5</text>		</g>
		<g id="shape29-137" v:mID="29" v:groupContext="shape" transform="translate(300.059,-65.9169)">
			<title>Foglio.29</title>
			<ellipse cx="5.69203" cy="137.338" rx="5.69203" ry="5.83433" class="st10"/>
		</g>
		<g id="shape32-139" v:mID="32" v:groupContext="shape" transform="translate(299.285,-66.5601)">
			<title>Foglio.32</title>
			<desc>3</desc>
			<v:textBlock v:margins="rect(4,4,4,4)"/>
			<v:textRect cx="4.49727" cy="138.675" width="9" height="8.99455"/>
			<rect x="0" y="134.178" width="8.99455" height="8.99455" class="st6"/>
			<text x="4" y="141.07" class="st9" v:langID="1040"><v:paragraph v:spBefore="5" v:spAfter="5" v:bulletSize="0.166667"/><v:tabList/>3</text>		</g>
		<g id="shape33-142" v:mID="33" v:groupContext="shape" transform="translate(243.588,-105.272)">
			<title>Foglio.33</title>
			<ellipse cx="5.69203" cy="137.338" rx="5.69203" ry="5.83433" class="st10"/>
		</g>
		<g id="shape34-144" v:mID="34" v:groupContext="shape" transform="translate(242.531,-105.602)">
			<title>Foglio.34</title>
			<desc>2</desc>
			<v:textBlock v:margins="rect(4,4,4,4)"/>
			<v:textRect cx="4.49727" cy="138.675" width="9" height="8.99455"/>
			<rect x="0" y="134.178" width="8.99455" height="8.99455" class="st6"/>
			<text x="4" y="141.07" class="st9" v:langID="1040"><v:paragraph v:spBefore="5" v:spAfter="5" v:bulletSize="0.166667"/><v:tabList/>2</text>		</g>
		<g id="shape38-147" v:mID="38" v:groupContext="shape" transform="translate(361.241,-105.272)">
			<title>Foglio.38</title>
			<ellipse cx="5.69203" cy="137.338" rx="5.69203" ry="5.83433" class="st10"/>
		</g>
		<g id="shape51-149" v:mID="51" v:groupContext="shape" transform="translate(359.586,-105.678)">
			<title>Foglio.51</title>
			<desc>4</desc>
			<v:textBlock v:margins="rect(4,4,4,4)"/>
			<v:textRect cx="4.49727" cy="138.675" width="9" height="8.99455"/>
			<rect x="0" y="134.178" width="8.99455" height="8.99455" class="st6"/>
			<text x="4" y="141.07" class="st9" v:langID="1040"><v:paragraph v:spBefore="5" v:spAfter="5" v:bulletSize="0.166667"/><v:tabList/>4</text>		</g>
		<g id="shape50-152" v:mID="50" v:groupContext="shape" transform="translate(106.997,114.106) rotate(-90)">
			<title>Foglio.50</title>
			<path d="M5.67 143.17 L0 143.17 L2.83 133.53 L5.67 143.17 Z" class="st11"/>
		</g>
		<g id="shape54-154" v:mID="54" v:groupContext="shape" transform="translate(-90.2948,114.106) rotate(-90)">
			<title>Foglio.54</title>
			<path d="M5.67 143.17 L0 143.17 L2.83 133.53 L5.67 143.17 Z" class="st11"/>
		</g>
		<g id="shape59-156" v:mID="59" v:groupContext="shape" transform="translate(309.436,34.7357) rotate(90) scale(-1,1)">
			<title>Foglio.59</title>
			<path d="M5.67 143.17 L0 143.17 L2.83 133.53 L5.67 143.17 Z" class="st11"/>
		</g>
		<g id="shape60-158" v:mID="60" v:groupContext="shape" transform="translate(404.68,34.7357) rotate(90) scale(-1,1)">
			<title>Foglio.60</title>
			<path d="M5.67 143.17 L0 143.17 L2.83 133.53 L5.67 143.17 Z" class="st11"/>
		</g>
		<g id="shape61-160" v:mID="61" v:groupContext="shape" transform="translate(302.893,-81.7909)">
			<title>Foglio.61</title>
			<path d="M5.67 143.17 L0 143.17 L2.83 133.53 L5.67 143.17 Z" class="st11"/>
		</g>
		<g id="shape62-162" v:mID="62" v:groupContext="shape" transform="translate(302.893,224.963) scale(1,-1)">
			<title>Foglio.62</title>
			<path d="M5.67 143.17 L0 143.17 L2.83 133.53 L5.67 143.17 Z" class="st11"/>
		</g>
		<g id="shape63-164" v:mID="63" v:groupContext="shape" transform="translate(210.169,34.2359) rotate(-89.8)">
			<title>Foglio.63</title>
			<path d="M5.67 143.17 L0 143.17 L2.83 133.53 L5.67 143.17 Z" class="st11"/>
		</g>
		<g id="shape64-166" v:mID="64" v:groupContext="shape" transform="translate(522.879,35.3067) rotate(-89.8) scale(1,-1)">
			<title>Foglio.64</title>
			<path d="M5.67 143.17 L0 143.17 L2.83 133.53 L5.67 143.17 Z" class="st11"/>
		</g>
		<g id="shape40-168" v:mID="40" v:groupContext="shape" transform="translate(380.418,-36.0346) scale(-1,1)">
			<title>Foglio.40</title>
			<path d="M0 143.17 L36.67 143.17" class="st5"/>
		</g>
		<g id="shape53-171" v:mID="53" v:groupContext="shape" transform="translate(361.097,-30.0353)">
			<title>Foglio.53</title>
			<ellipse cx="5.69203" cy="137.338" rx="5.69203" ry="5.83433" class="st10"/>
		</g>
		<g id="shape55-173" v:mID="55" v:groupContext="shape" transform="translate(359.442,-30.4417)">
			<title>Foglio.55</title>
			<desc>4</desc>
			<v:textBlock v:margins="rect(4,4,4,4)"/>
			<v:textRect cx="4.49727" cy="138.675" width="9" height="8.99455"/>
			<rect x="0" y="134.178" width="8.99455" height="8.99455" class="st6"/>
			<text x="4" y="141.07" class="st9" v:langID="1040"><v:paragraph v:spBefore="5" v:spAfter="5" v:bulletSize="0.166667"/><v:tabList/>4</text>		</g>
		<g id="shape65-176" v:mID="65" v:groupContext="shape" transform="translate(210.024,109.472) rotate(-89.8)">
			<title>Foglio.65</title>
			<path d="M5.67 143.17 L0 143.17 L2.83 133.53 L5.67 143.17 Z" class="st11"/>
		</g>
		<g id="shape66-178" v:mID="66" v:groupContext="shape" transform="translate(522.734,110.543) rotate(-89.8) scale(1,-1)">
			<title>Foglio.66</title>
			<path d="M5.67 143.17 L0 143.17 L2.83 133.53 L5.67 143.17 Z" class="st11"/>
		</g>
	</g>
</svg>
