<?xml version="1.0" encoding="UTF-8" standalone="no"?>
<!DOCTYPE svg PUBLIC "-//W3C//DTD SVG 1.0//EN" "http://www.w3.org/TR/2001/REC-SVG-20010904/DTD/svg10.dtd">
<!-- Generato da Microsoft Visio 11.0, SVG Export, v1.0 jakartaeett_dt_001.svg Pagina 1 -->
<svg xmlns="http://www.w3.org/2000/svg" xmlns:v="http://schemas.microsoft.com/visio/2003/SVGExtensions/" width="5.13811in"
		height="4.54756in" viewBox="0 0 369.944 327.424" xml:space="preserve" color-interpolation-filters="sRGB" class="st18"
		xmlns:xlink="http://www.w3.org/1999/xlink">
	<v:documentProperties v:langID="1040" v:metric="true" v:viewMarkup="false">
		<v:userDefs>
			<v:ud v:nameU="MBSAAddinOutlineVisible" v:prompt="" v:val="VT0(1):26"/>
		</v:userDefs>
	</v:documentProperties>

	<style type="text/css">
	<![CDATA[
		.st1 {fill:#ffffff;stroke:none;stroke-linecap:round;stroke-linejoin:round;stroke-width:0.72}
		.st2 {fill:#cadaa9;stroke:#000000;stroke-linecap:round;stroke-linejoin:round;stroke-width:0.72}
		.st3 {fill:#c8d6e6;stroke:#000000;stroke-linecap:round;stroke-linejoin:round;stroke-width:0.72}
		.st4 {fill:#f2f2f2;stroke:#000000;stroke-linecap:round;stroke-linejoin:round;stroke-width:0.72}
		.st5 {fill:none;stroke:none;stroke-linecap:round;stroke-linejoin:round;stroke-width:0.72}
		.st6 {fill:#000000;font-family:Arial;font-size:0.666664em}
		.st7 {font-size:1em}
		.st8 {stroke:#000000;stroke-linecap:round;stroke-linejoin:round;stroke-width:0.72}
		.st9 {fill:#ffffff;stroke:#000000;stroke-linecap:round;stroke-linejoin:round;stroke-width:0.72}
		.st10 {fill:#660033;stroke:#660033;stroke-linecap:round;stroke-linejoin:round;stroke-width:0.72}
		.st11 {stroke:#ffffff;stroke-linecap:round;stroke-linejoin:round;stroke-width:2.16}
		.st12 {marker-end:url(#mrkr13-332);stroke:#000000;stroke-linecap:round;stroke-linejoin:round;stroke-width:0.72}
		.st13 {fill:#000000;fill-opacity:1;stroke:#000000;stroke-opacity:1;stroke-width:0.22222222222222}
		.st14 {fill:#000000;font-family:Arial;font-size:0.666664em;font-weight:bold}
		.st15 {fill:#000000;stroke:#000000;stroke-linecap:round;stroke-linejoin:round;stroke-width:0.72}
		.st16 {fill:#ffffff;stroke:none;stroke-linecap:butt;stroke-width:0.75}
		.st17 {fill:#7395bf;stroke:none;stroke-linecap:butt;stroke-width:0.75}
		.st18 {fill:none;fill-rule:evenodd;font-size:12;overflow:visible;stroke-linecap:square;stroke-miterlimit:3}
	]]>
	</style>

	<defs id="Markers">
		<g id="lend13">
			<path d="M 3 1 L -0 0 L 3 -1 L 3 1 " style="stroke:none"/>
		</g>
		<marker id="mrkr13-332" class="st13" v:arrowType="13" v:arrowSize="2" v:setback="13.5" refX="-13.5" orient="auto"
				markerUnits="strokeWidth">
			<use xlink:href="#lend13" transform="scale(-4.5,-4.5) "/>
		</marker>
	</defs>
	<g v:mID="0" v:index="1" v:groupContext="foregroundPage">
		<title>Pagina 1</title>
		<v:pageProperties v:drawingScale="0.0393701" v:pageScale="0.0393701" v:drawingUnits="24" v:shadowOffsetX="8.50394"
				v:shadowOffsetY="-8.50394"/>
		<v:layer v:name="symbols" v:index="0"/>
		<g id="shape131-1" v:mID="131" v:groupContext="shape" transform="translate(0.72,-0.72)">
			<title>Foglio.131</title>
			<rect x="0" y="1.44" width="368.504" height="325.984" class="st1"/>
		</g>
		<g id="shape1-3" v:mID="1" v:groupContext="shape" transform="translate(12.0586,-68.7515)">
			<title>Foglio.1</title>
			<rect x="0" y="175.133" width="267.651" height="152.291" class="st2"/>
		</g>
		<g id="shape2-5" v:mID="2" v:groupContext="shape" transform="translate(12.0586,-228.129)">
			<title>Foglio.2</title>
			<rect x="0" y="243.023" width="267.651" height="84.4016" class="st3"/>
		</g>
		<g id="shape3-7" v:mID="3" v:groupContext="shape" transform="translate(17.0192,-233.799)">
			<title>Foglio.3</title>
			<rect x="0" y="254.361" width="108.425" height="73.063" class="st4"/>
		</g>
		<g id="shape4-9" v:mID="4" v:groupContext="shape" transform="translate(133.523,-233.799)">
			<title>Foglio.4</title>
			<rect x="0" y="254.361" width="105.307" height="73.063" class="st4"/>
		</g>
		<g id="shape5-11" v:mID="5" v:groupContext="shape" transform="translate(279.71,-248.751)">
			<title>Foglio.5</title>
			<rect x="0" y="284.905" width="72.5064" height="42.5197" class="st4"/>
		</g>
		<g id="shape6-13" v:mID="6" v:groupContext="shape" transform="translate(237.19,-256.653)">
			<title>Foglio.6</title>
			<desc>Client Tier</desc>
			<v:textBlock v:margins="rect(4,4,4,4)" v:tabSpace="42.5197"/>
			<v:textRect cx="18.4252" cy="319.097" width="36.86" height="16.6535"/>
			<rect x="0" y="310.771" width="36.8504" height="16.6535" class="st5"/>
			<text x="8.2" y="316.7" class="st6" v:langID="1040"><v:paragraph v:horizAlign="1"/><v:tabList/>Client<v:newlineChar/><tspan
						x="11.54" dy="1.2em" class="st7">Tier</tspan></text>		</g>
		<g id="shape7-17" v:mID="7" v:groupContext="shape" transform="translate(281.127,-263.279)">
			<title>Foglio.7</title>
			<desc>Client Machine</desc>
			<v:textBlock v:margins="rect(4,4,4,4)" v:tabSpace="42.5197"/>
			<v:textRect cx="24.2059" cy="319.097" width="48.42" height="16.6535"/>
			<rect x="0" y="310.771" width="48.4119" height="16.6535" class="st5"/>
			<text x="13.98" y="316.7" class="st6" v:langID="1040"><v:paragraph v:horizAlign="1"/><v:tabList/>Client<v:newlineChar/><tspan
						x="9.09" dy="1.2em" class="st7">Machine</tspan></text>		</g>
		<g id="shape8-21" v:mID="8" v:groupContext="shape" transform="translate(12.0586,-17.7279)">
			<title>Foglio.8</title>
			<rect x="0" y="284.196" width="267.651" height="43.2283" class="st3"/>
		</g>
		<g id="shape9-23" v:mID="9" v:groupContext="shape" transform="translate(279.71,-23.3972)">
			<title>Foglio.9</title>
			<rect x="0" y="294.826" width="72.5064" height="32.5984" class="st4"/>
		</g>
		<g id="shape10-25" v:mID="10" v:groupContext="shape" transform="translate(281.127,-30.8381)">
			<title>Foglio.10</title>
			<desc>Database Server</desc>
			<v:textBlock v:margins="rect(4,4,4,4)" v:tabSpace="42.5197"/>
			<v:textRect cx="31.2925" cy="319.097" width="62.59" height="16.6535"/>
			<rect x="0" y="310.771" width="62.5851" height="16.6535" class="st5"/>
			<text x="14.17" y="316.7" class="st6" v:langID="1040"><v:paragraph v:horizAlign="1"/><v:tabList/>Database<v:newlineChar/><tspan
						x="19.51" dy="1.2em" class="st7">Server</tspan></text>		</g>
		<g id="shape11-29" v:mID="11" v:groupContext="shape" transform="translate(17.0192,-281.35)">
			<title>Foglio.11</title>
			<desc>Jakarta EE Application 1</desc>
			<v:textBlock v:margins="rect(4,4,4,4)" v:tabSpace="42.5197"/>
			<v:textRect cx="28.3465" cy="316.263" width="56.7" height="22.3228"/>
			<rect x="0" y="305.101" width="56.6929" height="22.3228" class="st5"/>
			<text x="8.78" y="313.86" class="st6" v:langID="1040"><v:paragraph v:horizAlign="1"/><v:tabList/>Jakarta EE <v:newlineChar/><tspan
						x="5.44" dy="1.2em" class="st7">Application </tspan>1</text>		</g>
		<g id="shape12-33" v:mID="12" v:groupContext="shape" transform="translate(133.523,-281.704)">
			<title>Foglio.12</title>
			<desc>Jakarta EE Application 2</desc>
			<v:textBlock v:margins="rect(4,4,4,4)" v:tabSpace="42.5197"/>
			<v:textRect cx="28.3465" cy="316.263" width="56.7" height="22.3228"/>
			<rect x="0" y="305.101" width="56.6929" height="22.3228" class="st5"/>
			<text x="8.78" y="313.86" class="st6" v:langID="1040"><v:paragraph v:horizAlign="1"/><v:tabList/>Jakarta EE <v:newlineChar/><tspan
						x="5.44" dy="1.2em" class="st7">Application </tspan>2</text>		</g>
		<g id="shape13-37" v:mID="13" v:groupContext="shape" transform="translate(61.6649,-236.35)">
			<title>Foglio.13</title>
			<desc>Application Client</desc>
			<v:textBlock v:margins="rect(4,4,4,4)" v:tabSpace="42.5197"/>
			<v:textRect cx="24.8031" cy="316.263" width="49.61" height="22.3228"/>
			<rect x="0" y="305.101" width="49.6063" height="22.3228" class="st5"/>
			<text x="5.23" y="313.86" class="st6" v:langID="1040"><v:paragraph v:horizAlign="1"/><v:tabList/>Application<v:newlineChar/><tspan
						x="14.58" dy="1.2em" class="st7">Client</tspan></text>		</g>
		<g id="shape14-41" v:mID="14" v:groupContext="shape" transform="translate(-82.2695,-245.343) rotate(-18.4349)">
			<title>Foglio.14</title>
			<path d="M0 327.42 L40.34 327.42" class="st8"/>
		</g>
		<g id="shape15-44" v:mID="15" v:groupContext="shape" transform="translate(21.2712,-236.633)">
			<title>Foglio.15</title>
			<path d="M38.27 314.67 L0 327.42 L0 301.91" class="st8"/>
		</g>
		<g id="shape16-47" v:mID="16" v:groupContext="shape" transform="translate(386.963,52.5231) rotate(90)">
			<title>Foglio.16</title>
			<path d="M0 327.42 L25.51 327.42" class="st8"/>
		</g>
		<g id="shape17-50" v:mID="17" v:groupContext="shape" transform="translate(-82.2695,-243.302) rotate(-18.4349)">
			<title>Foglio.17</title>
			<path d="M0 327.42 L40.34 327.42" class="st8"/>
		</g>
		<g id="shape18-53" v:mID="18" v:groupContext="shape" transform="translate(-80.9939,-242.439) rotate(-18.4349)">
			<title>Foglio.18</title>
			<path d="M0 327.42 L13.91 327.42" class="st8"/>
		</g>
		<g id="shape19-56" v:mID="19" v:groupContext="shape" transform="translate(22.5468,-250.446)">
			<title>Foglio.19</title>
			<path d="M13.19 323.03 L0 327.42 L0 318.63" class="st8"/>
		</g>
		<g id="shape20-59" v:mID="20" v:groupContext="shape" transform="translate(363.164,63.7848) rotate(90)">
			<title>Foglio.20</title>
			<path d="M0 327.42 L8.8 327.42" class="st8"/>
		</g>
		<g id="shape21-62" v:mID="21" v:groupContext="shape" transform="translate(-58.7986,-232.247) rotate(-18.4349)">
			<title>Foglio.21</title>
			<path d="M0 327.42 L4.3 327.42" class="st8"/>
		</g>
		<g id="shape22-65" v:mID="22" v:groupContext="shape" transform="translate(44.742,-246.328)">
			<title>Foglio.22</title>
			<path d="M4.08 326.06 L0 327.42 L0 324.7" class="st8"/>
		</g>
		<g id="shape23-68" v:mID="23" v:groupContext="shape" transform="translate(376.248,77.0145) rotate(90)">
			<title>Foglio.23</title>
			<path d="M0 327.42 L2.72 327.42" class="st8"/>
		</g>
		<g id="shape24-71" v:mID="24" v:groupContext="shape" transform="translate(-52.9309,-234.288) rotate(-18.4349)">
			<title>Foglio.24</title>
			<path d="M0 327.42 L4.3 327.42" class="st8"/>
		</g>
		<g id="shape25-74" v:mID="25" v:groupContext="shape" transform="translate(50.6098,-248.369)">
			<title>Foglio.25</title>
			<path d="M4.08 326.06 L0 327.42 L0 324.7" class="st8"/>
		</g>
		<g id="shape26-77" v:mID="26" v:groupContext="shape" transform="translate(382.116,74.9735) rotate(90)">
			<title>Foglio.26</title>
			<path d="M0 327.42 L2.72 327.42" class="st8"/>
		</g>
		<g id="shape27-80" v:mID="27" v:groupContext="shape" transform="translate(35.6518,-246.335) rotate(-18.4349)">
			<title>Foglio.27</title>
			<path d="M0 327.42 L40.34 327.42" class="st8"/>
		</g>
		<g id="shape28-83" v:mID="28" v:groupContext="shape" transform="translate(504.884,51.531) rotate(90)">
			<title>Foglio.28</title>
			<path d="M0 327.42 L9.45 327.42" class="st8"/>
		</g>
		<g id="shape29-86" v:mID="29" v:groupContext="shape" transform="translate(35.6518,-244.294) rotate(-18.4349)">
			<title>Foglio.29</title>
			<path d="M0 327.42 L40.34 327.42" class="st8"/>
		</g>
		<g id="shape30-89" v:mID="30" v:groupContext="shape" transform="translate(63.6014,-252.259) rotate(-18.4349)">
			<title>Foglio.30</title>
			<path d="M0 327.42 L4.3 327.42" class="st8"/>
		</g>
		<g id="shape31-92" v:mID="31" v:groupContext="shape" transform="translate(167.142,-266.34)">
			<title>Foglio.31</title>
			<path d="M4.08 326.06 L0 327.42 L0 324.7" class="st8"/>
		</g>
		<g id="shape32-95" v:mID="32" v:groupContext="shape" transform="translate(498.648,57.0019) rotate(90)">
			<title>Foglio.32</title>
			<path d="M0 327.42 L2.72 327.42" class="st8"/>
		</g>
		<g id="shape33-98" v:mID="33" v:groupContext="shape" transform="translate(68.7321,-254.187) rotate(-18.4349)">
			<title>Foglio.33</title>
			<path d="M0 327.42 L4.3 327.42" class="st8"/>
		</g>
		<g id="shape34-101" v:mID="34" v:groupContext="shape" transform="translate(172.273,-268.268)">
			<title>Foglio.34</title>
			<path d="M4.08 326.06 L0 327.42 L0 324.7" class="st8"/>
		</g>
		<g id="shape35-104" v:mID="35" v:groupContext="shape" transform="translate(503.779,55.0743) rotate(90)">
			<title>Foglio.35</title>
			<path d="M0 327.42 L2.72 327.42" class="st8"/>
		</g>
		<g id="shape36-107" v:mID="36" v:groupContext="shape" transform="translate(52.9431,-248.858) rotate(-18.4349)">
			<title>Foglio.36</title>
			<path d="M0 327.42 L4.3 327.42" class="st8"/>
		</g>
		<g id="shape37-110" v:mID="37" v:groupContext="shape" transform="translate(156.484,-262.939)">
			<title>Foglio.37</title>
			<path d="M4.08 326.06 L0 327.42 L0 324.7" class="st8"/>
		</g>
		<g id="shape38-113" v:mID="38" v:groupContext="shape" transform="translate(487.99,60.4035) rotate(90)">
			<title>Foglio.38</title>
			<path d="M0 327.42 L2.72 327.42" class="st8"/>
		</g>
		<g id="shape39-116" v:mID="39" v:groupContext="shape" transform="translate(58.2723,-250.559) rotate(-18.4349)">
			<title>Foglio.39</title>
			<path d="M0 327.42 L4.3 327.42" class="st8"/>
		</g>
		<g id="shape40-119" v:mID="40" v:groupContext="shape" transform="translate(161.813,-264.64)">
			<title>Foglio.40</title>
			<path d="M4.08 326.06 L0 327.42 L0 324.7" class="st8"/>
		</g>
		<g id="shape41-122" v:mID="41" v:groupContext="shape" transform="translate(493.319,58.7027) rotate(90)">
			<title>Foglio.41</title>
			<path d="M0 327.42 L2.72 327.42" class="st8"/>
		</g>
		<g id="shape42-125" v:mID="42" v:groupContext="shape" transform="translate(47.8408,-247.185) rotate(-18.4349)">
			<title>Foglio.42</title>
			<path d="M0 327.42 L4.3 327.42" class="st8"/>
		</g>
		<g id="shape43-128" v:mID="43" v:groupContext="shape" transform="translate(151.381,-261.266)">
			<title>Foglio.43</title>
			<path d="M4.08 326.06 L0 327.42 L0 324.7" class="st8"/>
		</g>
		<g id="shape44-131" v:mID="44" v:groupContext="shape" transform="translate(482.888,62.0759) rotate(90)">
			<title>Foglio.44</title>
			<path d="M0 327.42 L2.72 327.42" class="st8"/>
		</g>
		<g id="shape45-134" v:mID="45" v:groupContext="shape" transform="translate(37.0691,-243.472) rotate(-18.4349)">
			<title>Foglio.45</title>
			<path d="M0 327.42 L4.3 327.42" class="st8"/>
		</g>
		<g id="shape46-137" v:mID="46" v:groupContext="shape" transform="translate(140.61,-257.553)">
			<title>Foglio.46</title>
			<path d="M4.08 326.06 L0 327.42 L0 324.7" class="st8"/>
		</g>
		<g id="shape47-140" v:mID="47" v:groupContext="shape" transform="translate(472.116,65.7893) rotate(90)">
			<title>Foglio.47</title>
			<path d="M0 327.42 L2.72 327.42" class="st8"/>
		</g>
		<g id="shape48-143" v:mID="48" v:groupContext="shape" transform="translate(42.3983,-245.173) rotate(-18.4349)">
			<title>Foglio.48</title>
			<path d="M0 327.42 L4.3 327.42" class="st8"/>
		</g>
		<g id="shape49-146" v:mID="49" v:groupContext="shape" transform="translate(145.939,-259.254)">
			<title>Foglio.49</title>
			<path d="M4.08 326.06 L0 327.42 L0 324.7" class="st8"/>
		</g>
		<g id="shape50-149" v:mID="50" v:groupContext="shape" transform="translate(477.445,64.0885) rotate(90)">
			<title>Foglio.50</title>
			<path d="M0 327.42 L2.72 327.42" class="st8"/>
		</g>
		<g id="shape51-152" v:mID="51" v:groupContext="shape" transform="translate(42.7384,-239.248) rotate(-18.4349)">
			<title>Foglio.51</title>
			<path d="M0 327.42 L40.34 327.42" class="st8"/>
		</g>
		<g id="shape52-155" v:mID="52" v:groupContext="shape" transform="translate(146.279,-234.791)">
			<title>Foglio.52</title>
			<path d="M38.27 316.79 L0 327.42 L0 306.16" class="st8"/>
		</g>
		<g id="shape53-158" v:mID="53" v:groupContext="shape" transform="translate(511.971,58.6176) rotate(90)">
			<title>Foglio.53</title>
			<path d="M0 327.42 L23.39 327.42" class="st8"/>
		</g>
		<g id="shape54-161" v:mID="54" v:groupContext="shape" transform="translate(42.7384,-237.207) rotate(-18.4349)">
			<title>Foglio.54</title>
			<path d="M0 327.42 L40.34 327.42" class="st8"/>
		</g>
		<g id="shape55-164" v:mID="55" v:groupContext="shape" transform="translate(70.688,-245.173) rotate(-18.4349)">
			<title>Foglio.55</title>
			<path d="M0 327.42 L4.3 327.42" class="st8"/>
		</g>
		<g id="shape56-167" v:mID="56" v:groupContext="shape" transform="translate(174.229,-259.254)">
			<title>Foglio.56</title>
			<path d="M4.08 326.06 L0 327.42 L0 324.7" class="st8"/>
		</g>
		<g id="shape57-170" v:mID="57" v:groupContext="shape" transform="translate(505.735,64.0885) rotate(90)">
			<title>Foglio.57</title>
			<path d="M0 327.42 L2.72 327.42" class="st8"/>
		</g>
		<g id="shape58-173" v:mID="58" v:groupContext="shape" transform="translate(75.8187,-247.1) rotate(-18.4349)">
			<title>Foglio.58</title>
			<path d="M0 327.42 L4.3 327.42" class="st8"/>
		</g>
		<g id="shape59-176" v:mID="59" v:groupContext="shape" transform="translate(179.359,-261.181)">
			<title>Foglio.59</title>
			<path d="M4.08 326.06 L0 327.42 L0 324.7" class="st8"/>
		</g>
		<g id="shape60-179" v:mID="60" v:groupContext="shape" transform="translate(510.866,62.1609) rotate(90)">
			<title>Foglio.60</title>
			<path d="M0 327.42 L2.72 327.42" class="st8"/>
		</g>
		<g id="shape61-182" v:mID="61" v:groupContext="shape" transform="translate(60.0298,-241.771) rotate(-18.4349)">
			<title>Foglio.61</title>
			<path d="M0 327.42 L4.3 327.42" class="st8"/>
		</g>
		<g id="shape62-185" v:mID="62" v:groupContext="shape" transform="translate(163.57,-255.852)">
			<title>Foglio.62</title>
			<path d="M4.08 326.06 L0 327.42 L0 324.7" class="st8"/>
		</g>
		<g id="shape63-188" v:mID="63" v:groupContext="shape" transform="translate(495.077,67.4901) rotate(90)">
			<title>Foglio.63</title>
			<path d="M0 327.42 L2.72 327.42" class="st8"/>
		</g>
		<g id="shape64-191" v:mID="64" v:groupContext="shape" transform="translate(65.3589,-243.472) rotate(-18.4349)">
			<title>Foglio.64</title>
			<path d="M0 327.42 L4.3 327.42" class="st8"/>
		</g>
		<g id="shape65-194" v:mID="65" v:groupContext="shape" transform="translate(168.9,-257.553)">
			<title>Foglio.65</title>
			<path d="M4.08 326.06 L0 327.42 L0 324.7" class="st8"/>
		</g>
		<g id="shape66-197" v:mID="66" v:groupContext="shape" transform="translate(500.406,65.7893) rotate(90)">
			<title>Foglio.66</title>
			<path d="M0 327.42 L2.72 327.42" class="st8"/>
		</g>
		<g id="shape67-200" v:mID="67" v:groupContext="shape" transform="translate(54.9274,-240.099) rotate(-18.4349)">
			<title>Foglio.67</title>
			<path d="M0 327.42 L4.3 327.42" class="st8"/>
		</g>
		<g id="shape68-203" v:mID="68" v:groupContext="shape" transform="translate(158.468,-254.18)">
			<title>Foglio.68</title>
			<path d="M4.08 326.06 L0 327.42 L0 324.7" class="st8"/>
		</g>
		<g id="shape69-206" v:mID="69" v:groupContext="shape" transform="translate(489.974,69.1625) rotate(90)">
			<title>Foglio.69</title>
			<path d="M0 327.42 L2.72 327.42" class="st8"/>
		</g>
		<g id="shape70-209" v:mID="70" v:groupContext="shape" transform="translate(44.1557,-236.385) rotate(-18.4349)">
			<title>Foglio.70</title>
			<path d="M0 327.42 L4.3 327.42" class="st8"/>
		</g>
		<g id="shape71-212" v:mID="71" v:groupContext="shape" transform="translate(147.696,-250.466)">
			<title>Foglio.71</title>
			<path d="M4.08 326.06 L0 327.42 L0 324.7" class="st8"/>
		</g>
		<g id="shape72-215" v:mID="72" v:groupContext="shape" transform="translate(479.203,72.8759) rotate(90)">
			<title>Foglio.72</title>
			<path d="M0 327.42 L2.72 327.42" class="st8"/>
		</g>
		<g id="shape73-218" v:mID="73" v:groupContext="shape" transform="translate(49.4849,-238.086) rotate(-18.4349)">
			<title>Foglio.73</title>
			<path d="M0 327.42 L4.3 327.42" class="st8"/>
		</g>
		<g id="shape74-221" v:mID="74" v:groupContext="shape" transform="translate(153.026,-252.167)">
			<title>Foglio.74</title>
			<path d="M4.08 326.06 L0 327.42 L0 324.7" class="st8"/>
		</g>
		<g id="shape75-224" v:mID="75" v:groupContext="shape" transform="translate(484.532,71.1751) rotate(90)">
			<title>Foglio.75</title>
			<path d="M0 327.42 L2.72 327.42" class="st8"/>
		</g>
		<g id="shape76-227" v:mID="76" v:groupContext="shape" transform="translate(466.617,64.2869) rotate(90)">
			<title>Foglio.76</title>
			<path d="M0 327.42 L22.25 327.42" class="st8"/>
		</g>
		<g id="shape77-230" v:mID="77" v:groupContext="shape" transform="translate(33.7937,-223.457) rotate(-18.778)">
			<title>Foglio.77</title>
			<path d="M0 327.42 L7.49 327.42" class="st8"/>
		</g>
		<g id="shape78-233" v:mID="78" v:groupContext="shape" transform="translate(187.381,-238.618)">
			<title>Foglio.78</title>
			<desc>Web Pages</desc>
			<v:textBlock v:margins="rect(4,4,4,4)" v:tabSpace="42.5197"/>
			<v:textRect cx="15.8031" cy="317.397" width="31.61" height="20.0551"/>
			<rect x="0" y="307.369" width="31.6063" height="20.0551" class="st5"/>
			<text x="7.58" y="315" class="st6" v:langID="1040"><v:paragraph v:horizAlign="1"/><v:tabList/>Web<v:newlineChar/><tspan
						x="4.46" dy="1.2em" class="st7">Pages</tspan></text>		</g>
		<g id="shape79-237" v:mID="79" v:groupContext="shape" transform="translate(17.7279,-145.216)">
			<title>Foglio.79</title>
			<rect x="0" y="255.141" width="256.313" height="72.2835" class="st3"/>
		</g>
		<g id="shape80-239" v:mID="80" v:groupContext="shape" transform="translate(17.7279,-74.4208)">
			<title>Foglio.80</title>
			<rect x="0" y="260.172" width="256.313" height="67.252" class="st3"/>
		</g>
		<g id="shape81-241" v:mID="81" v:groupContext="shape" transform="translate(279.71,-93.4838)">
			<title>Foglio.81</title>
			<rect x="0" y="214.038" width="72.5064" height="113.386" class="st4"/>
		</g>
		<g id="shape82-243" v:mID="82" v:groupContext="shape" transform="translate(281.127,-122.893)">
			<title>Foglio.82</title>
			<desc>Jakarta EE Server</desc>
			<v:textBlock v:margins="rect(4,4,4,4)" v:tabSpace="42.5197"/>
			<v:textRect cx="27.0406" cy="302.444" width="54.09" height="49.9606"/>
			<rect x="0" y="277.464" width="54.0812" height="49.9606" class="st5"/>
			<text x="7.48" y="300.04" class="st6" v:langID="1040"><v:paragraph v:horizAlign="1"/><v:tabList/>Jakarta EE<v:newlineChar/><tspan
						x="15.26" dy="1.2em" class="st7">Server</tspan></text>		</g>
		<g id="shape83-247" v:mID="83" v:groupContext="shape" transform="translate(128.279,-150.177)">
			<title>Foglio.83</title>
			<rect x="0" y="265.062" width="90.7087" height="62.3622" class="st4"/>
		</g>
		<g id="shape84-249" v:mID="84" v:groupContext="shape" transform="translate(125.976,-178.523)">
			<title>Foglio.84</title>
			<desc>Jakarta Server Pages Faces</desc>
			<v:textBlock v:margins="rect(4,4,4,4)" v:tabSpace="42.5197"/>
			<v:textRect cx="30.9154" cy="310.594" width="61.84" height="33.6614"/>
			<rect x="0" y="293.763" width="61.8307" height="33.6614" class="st5"/>
			<text x="4.91" y="303.39" class="st6" v:langID="1040"><v:paragraph v:horizAlign="1"/><v:tabList/>Jakarta Server<v:newlineChar/><tspan
						x="19.57" dy="1.2em" class="st7">Pages<v:newlineChar/></tspan><tspan x="20.02" dy="1.2em" class="st7">Faces</tspan></text>		</g>
		<g id="shape85-254" v:mID="85" v:groupContext="shape" transform="translate(234.355,-172.854)">
			<title>Foglio.85</title>
			<desc>Web Tier</desc>
			<v:textBlock v:margins="rect(4,4,4,4)" v:tabSpace="42.5197"/>
			<v:textRect cx="19.8425" cy="319.097" width="39.69" height="16.6535"/>
			<rect x="0" y="310.771" width="39.685" height="16.6535" class="st5"/>
			<text x="11.62" y="316.7" class="st6" v:langID="1040"><v:paragraph v:horizAlign="1"/><v:tabList/>Web<v:newlineChar/><tspan
						x="12.95" dy="1.2em" class="st7">Tier</tspan></text>		</g>
		<g id="shape86-258" v:mID="86" v:groupContext="shape" transform="translate(-0.316423,-132.269) rotate(-35.3112)">
			<title>Foglio.86</title>
			<path d="M0 327.42 L27.79 327.42" class="st8"/>
		</g>
		<g id="shape87-261" v:mID="87" v:groupContext="shape" transform="translate(539.042,118.854) rotate(90)">
			<title>Foglio.87</title>
			<path d="M0 327.42 L1.77 327.42" class="st8"/>
		</g>
		<g id="shape88-264" v:mID="88" v:groupContext="shape" transform="translate(1.38436,-131.702) rotate(-35.3112)">
			<title>Foglio.88</title>
			<path d="M0 327.42 L27.79 327.42" class="st8"/>
		</g>
		<g id="shape89-267" v:mID="89" v:groupContext="shape" transform="translate(540.743,119.421) rotate(90)">
			<title>Foglio.89</title>
			<path d="M0 327.42 L2.34 327.42" class="st8"/>
		</g>
		<g id="shape90-270" v:mID="90" v:groupContext="shape" transform="translate(3.08515,-130.569) rotate(-35.3112)">
			<title>Foglio.90</title>
			<path d="M0 327.42 L27.79 327.42" class="st8"/>
		</g>
		<g id="shape91-273" v:mID="91" v:groupContext="shape" transform="translate(192.342,-158.681)">
			<title>Foglio.91</title>
			<path d="M22.68 311.36 L0 327.42 L0 295.3" class="st8"/>
		</g>
		<g id="shape92-276" v:mID="92" v:groupContext="shape" transform="translate(542.443,120.555) rotate(90)">
			<title>Foglio.92</title>
			<path d="M0 327.42 L32.13 327.42" class="st8"/>
		</g>
		<g id="shape93-279" v:mID="93" v:groupContext="shape" transform="translate(516.365,135.295) rotate(90)">
			<title>Foglio.93</title>
			<path d="M0 327.42 L32.13 327.42" class="st8"/>
		</g>
		<g id="shape94-282" v:mID="94" v:groupContext="shape" transform="translate(-0.316423,-99.7654) rotate(-35.3112)">
			<title>Foglio.94</title>
			<path d="M0 327.42 L2.08 327.42" class="st8"/>
		</g>
		<g id="shape95-285" v:mID="95" v:groupContext="shape" transform="translate(518.066,135.862) rotate(90)">
			<title>Foglio.95</title>
			<path d="M0 327.42 L32.13 327.42" class="st8"/>
		</g>
		<g id="shape96-288" v:mID="96" v:groupContext="shape" transform="translate(1.38436,-99.1985) rotate(-35.3112)">
			<title>Foglio.96</title>
			<path d="M0 327.42 L2.08 327.42" class="st8"/>
		</g>
		<g id="shape97-291" v:mID="97" v:groupContext="shape" transform="translate(31.9011,-80.0901)">
			<title>Foglio.97</title>
			<rect x="0" y="271.511" width="85.0394" height="55.9134" class="st9"/>
		</g>
		<g id="shape98-293" v:mID="98" v:groupContext="shape" transform="translate(29.0665,-111.265)">
			<title>Foglio.98</title>
			<desc>Enterprise Beans</desc>
			<v:textBlock v:margins="rect(4,4,4,4)" v:tabSpace="42.5197"/>
			<v:textRect cx="27.815" cy="315.184" width="55.63" height="24.481"/>
			<rect x="0" y="302.943" width="55.6299" height="24.481" class="st5"/>
			<text x="9.58" y="312.78" class="st6" v:langID="1040"><v:paragraph v:horizAlign="1"/><v:tabList/>Enterprise<v:newlineChar/><tspan
						x="16.47" dy="1.2em" class="st7">Beans</tspan></text>		</g>
		<g id="shape99-297" v:mID="99" v:groupContext="shape" transform="translate(84.342,-82.6872)">
			<title>Foglio.99</title>
			<ellipse cx="12.7542" cy="319.529" rx="12.7542" ry="7.89545" class="st10"/>
		</g>
		<g id="shape100-299" v:mID="100" v:groupContext="shape" transform="translate(87.8788,-88.3216) rotate(0.617535)">
			<title>Foglio.100</title>
			<path d="M0 324.57 C1.36 325.47 2.83 326.68 4.97 327.19 C5.69 327.37 6.49 327.46 7.22 327.41 C8.82 327.31 10.08 326.53
						 11.27 325.79 C12.91 324.78 14.42 323.86 16.59 323.42 C18 323.14 19.7 323.07 21.08 323.25 C22.88 323.5 24.16
						 324.17 25.46 324.57" class="st11"/>
		</g>
		<g id="shape101-302" v:mID="101" v:groupContext="shape" transform="translate(-94.9717,-39.4082) rotate(-30)">
			<title>Foglio.101</title>
			<ellipse cx="12.7542" cy="319.529" rx="12.7542" ry="7.89545" class="st10"/>
		</g>
		<g id="shape102-304" v:mID="102" v:groupContext="shape" transform="translate(-94.726,-46.0561) rotate(-29.3825)">
			<title>Foglio.102</title>
			<path d="M0 324.57 C1.36 325.47 2.83 326.68 4.97 327.19 C5.69 327.37 6.49 327.46 7.22 327.41 C8.82 327.31 10.08 326.53
						 11.27 325.79 C12.91 324.78 14.42 323.86 16.59 323.42 C18 323.14 19.7 323.07 21.08 323.25 C22.88 323.5 24.16
						 324.17 25.46 324.57" class="st11"/>
		</g>
		<g id="shape103-307" v:mID="103" v:groupContext="shape" transform="translate(136.783,-80.0901)">
			<title>Foglio.103</title>
			<rect x="0" y="271.511" width="85.0394" height="55.9134" class="st9"/>
		</g>
		<g id="shape104-309" v:mID="104" v:groupContext="shape" transform="translate(133.948,-111.265)">
			<title>Foglio.104</title>
			<desc>Enterprise Beans</desc>
			<v:textBlock v:margins="rect(4,4,4,4)" v:tabSpace="42.5197"/>
			<v:textRect cx="27.815" cy="315.184" width="55.63" height="24.481"/>
			<rect x="0" y="302.943" width="55.6299" height="24.481" class="st5"/>
			<text x="9.58" y="312.78" class="st6" v:langID="1040"><v:paragraph v:horizAlign="1"/><v:tabList/>Enterprise<v:newlineChar/><tspan
						x="16.47" dy="1.2em" class="st7">Beans</tspan></text>		</g>
		<g id="shape105-313" v:mID="105" v:groupContext="shape" transform="translate(189.224,-82.6872)">
			<title>Foglio.105</title>
			<ellipse cx="12.7542" cy="319.529" rx="12.7542" ry="7.89545" class="st10"/>
		</g>
		<g id="shape106-315" v:mID="106" v:groupContext="shape" transform="translate(192.761,-88.3216) rotate(0.617535)">
			<title>Foglio.106</title>
			<path d="M0 324.57 C1.36 325.47 2.83 326.68 4.97 327.19 C5.69 327.37 6.49 327.46 7.22 327.41 C8.82 327.31 10.08 326.53
						 11.27 325.79 C12.91 324.78 14.42 323.86 16.59 323.42 C18 323.14 19.7 323.07 21.08 323.25 C22.88 323.5 24.16
						 324.17 25.46 324.57" class="st11"/>
		</g>
		<g id="shape107-318" v:mID="107" v:groupContext="shape" transform="translate(9.91015,-39.4082) rotate(-30)">
			<title>Foglio.107</title>
			<ellipse cx="12.7542" cy="319.529" rx="12.7542" ry="7.89545" class="st10"/>
		</g>
		<g id="shape108-320" v:mID="108" v:groupContext="shape" transform="translate(10.1559,-46.0561) rotate(-29.3825)">
			<title>Foglio.108</title>
			<path d="M0 324.57 C1.36 325.47 2.83 326.68 4.97 327.19 C5.69 327.37 6.49 327.46 7.22 327.41 C8.82 327.31 10.08 326.53
						 11.27 325.79 C12.91 324.78 14.42 323.86 16.59 323.42 C18 323.14 19.7 323.07 21.08 323.25 C22.88 323.5 24.16
						 324.17 25.46 324.57" class="st11"/>
		</g>
		<g id="shape109-323" v:mID="109" v:groupContext="shape" transform="translate(221.822,-105.177)">
			<title>Foglio.109</title>
			<desc>Business Tier</desc>
			<v:textBlock v:margins="rect(4,4,4,4)" v:tabSpace="42.5197"/>
			<v:textRect cx="24.0945" cy="319.097" width="48.19" height="16.6535"/>
			<rect x="0" y="310.771" width="48.189" height="16.6535" class="st5"/>
			<text x="7.86" y="316.7" class="st6" v:langID="1040"><v:paragraph v:horizAlign="1"/><v:tabList/>Business<v:newlineChar/><tspan
						x="17.21" dy="1.2em" class="st7">Tier</tspan></text>		</g>
		<g id="shape110-327" v:mID="110" v:groupContext="shape" transform="translate(-73.2264,73.6413) rotate(-90) scale(-1,1)">
			<title>Foglio.110</title>
			<path d="M0 327.42 L49.17 327.42" class="st12"/>
		</g>
		<g id="shape111-333" v:mID="111" v:groupContext="shape" transform="translate(-74.6437,160.027) rotate(-90) scale(-1,1)">
			<title>Foglio.111</title>
			<path d="M0 327.42 L30.74 327.42" class="st12"/>
		</g>
		<g id="shape112-338" v:mID="112" v:groupContext="shape" transform="translate(240.814,-28.0035)">
			<title>Foglio.112</title>
			<desc>EIS Tier</desc>
			<v:textBlock v:margins="rect(4,4,4,4)" v:tabSpace="42.5197"/>
			<v:textRect cx="13.3228" cy="319.097" width="26.65" height="16.6535"/>
			<rect x="0" y="310.771" width="26.6457" height="16.6535" class="st5"/>
			<text x="6.88" y="316.7" class="st6" v:langID="1040"><v:paragraph v:horizAlign="1"/><v:tabList/>EIS<v:newlineChar/><tspan
						x="6.43" dy="1.2em" class="st7">Tier</tspan></text>		</g>
		<g id="shape119-342" v:mID="119" v:groupContext="shape" transform="translate(187.584,-26.7472)">
			<title>Foglio.119</title>
			<desc>Database</desc>
			<v:textBlock v:margins="rect(4,4,4,4)" v:tabSpace="42.5197"/>
			<v:textRect cx="21.9685" cy="317.761" width="43.94" height="19.3271"/>
			<rect x="0" y="308.097" width="43.937" height="19.3271" class="st5"/>
			<text x="4.18" y="320.16" class="st14" v:langID="1040"><v:paragraph v:horizAlign="1"/><v:tabList/>Database</text>		</g>
		<g id="shape126-345" v:mID="126" v:groupContext="shape" transform="translate(60.9562,-26.7472)">
			<title>Foglio.126</title>
			<desc>Database</desc>
			<v:textBlock v:margins="rect(4,4,4,4)" v:tabSpace="42.5197"/>
			<v:textRect cx="21.9685" cy="317.761" width="43.94" height="19.3271"/>
			<rect x="0" y="308.097" width="43.937" height="19.3271" class="st5"/>
			<text x="4.18" y="320.16" class="st14" v:langID="1040"><v:paragraph v:horizAlign="1"/><v:tabList/>Database</text>		</g>
		<g id="shape127-348" v:mID="127" v:groupContext="shape" transform="translate(-73.2264,229.972) rotate(-90) scale(-1,1)">
			<title>Foglio.127</title>
			<path d="M0 327.42 L38.82 327.42" class="st12"/>
		</g>
		<g id="shape128-353" v:mID="128" v:groupContext="shape" transform="translate(256.972,450.317) rotate(180)">
			<title>Foglio.128</title>
			<path d="M5.67 327.42 L0 327.42 L2.83 317.79 L5.67 327.42 Z" class="st15"/>
		</g>
		<g id="shape129-355" v:mID="129" v:groupContext="shape" transform="translate(255.555,518.349) rotate(180)">
			<title>Foglio.129</title>
			<path d="M5.67 327.42 L0 327.42 L2.83 317.79 L5.67 327.42 Z" class="st15"/>
		</g>
		<g id="shape130-357" v:mID="130" v:groupContext="shape" transform="translate(256.972,596.231) rotate(180)">
			<title>Foglio.130</title>
			<path d="M5.67 327.42 L0 327.42 L2.83 317.79 L5.67 327.42 Z" class="st15"/>
		</g>
		<g id="group132-359" transform="translate(150.956,-21.5525)" v:mID="132" v:groupContext="group" v:layerMember="0">
			<title>Database, mini 3 - blue.114</title>
			<g id="group133-360" v:mID="133" v:groupContext="group" v:layerMember="0">
				<title>Foglio.133</title>
				<g id="shape134-361" v:mID="134" v:groupContext="shape" v:layerMember="0">
					<title>Foglio.134</title>
					<path d="M36.85 297.1 L36.85 296.21 C36.85 292.98 27.6 291.56 18.43 291.56 C9.25 291.56 -0 292.98 0 296.21 L0
								 297.1 L0 321.27 L0 322.2 L0 322.24 C0.63 326.76 11.82 327.42 18.43 327.42 C25.03 327.42 36.22 326.76
								 36.85 322.24 L36.85 322.2 L36.85 321.23 L36.85 297.1 Z" class="st16"/>
				</g>
				<g id="shape135-363" v:mID="135" v:groupContext="shape" v:layerMember="0" transform="translate(2.08587,-1.32816)">
					<title>Foglio.135</title>
					<path d="M16.34 319.9 C9.8 319.9 3.27 319.19 0 317.6 L0 322.55 L0 323.44 C0.49 327.11 12.24 327.42 16.34 327.42
								 C20.44 327.42 32.12 327.11 32.68 323.44 L32.68 322.55 L32.68 317.6 C29.41 319.15 22.88 319.9 16.34
								 319.9 Z" class="st17"/>
				</g>
				<g id="shape136-365" v:mID="136" v:groupContext="shape" v:layerMember="0" transform="translate(2.08587,-10.1826)">
					<title>Foglio.136</title>
					<path d="M16.34 319.9 C9.8 319.9 3.27 319.19 0 317.6 L0 322.55 L0 323.44 C0.49 327.11 12.24 327.42 16.34 327.42
								 C20.44 327.42 32.12 327.11 32.68 323.44 L32.68 322.55 L32.68 317.6 C29.41 319.15 22.88 319.9 16.34
								 319.9 Z" class="st17"/>
				</g>
				<g id="shape137-367" v:mID="137" v:groupContext="shape" v:layerMember="0" transform="translate(2.08587,-19.037)">
					<title>Foglio.137</title>
					<path d="M16.34 319.9 C9.8 319.9 3.27 319.19 0 317.6 L0 322.55 L0 323.44 C0.49 327.11 12.24 327.42 16.34 327.42
								 C20.44 327.42 32.12 327.11 32.68 323.44 L32.68 322.55 L32.68 317.6 C29.41 319.15 22.88 319.9 16.34
								 319.9 Z" class="st17"/>
				</g>
				<g id="shape138-369" v:mID="138" v:groupContext="shape" v:layerMember="0" transform="translate(2.08587,-27.8914)">
					<title>Foglio.138</title>
					<ellipse cx="16.3393" cy="324.104" rx="16.3393" ry="3.3204" class="st17"/>
				</g>
			</g>
		</g>
		<g id="group113-371" transform="translate(24.8145,-20.5625)" v:mID="113" v:groupContext="group" v:layerMember="0">
			<title>Database, mini 3 - blue.113</title>
			<g id="group114-372" v:mID="114" v:groupContext="group" v:layerMember="0">
				<title>Foglio.114</title>
				<g id="shape115-373" v:mID="115" v:groupContext="shape" v:layerMember="0">
					<title>Foglio.115</title>
					<path d="M36.85 297.1 L36.85 296.21 C36.85 292.98 27.6 291.56 18.43 291.56 C9.25 291.56 -0 292.98 0 296.21 L0
								 297.1 L0 321.27 L0 322.2 L0 322.24 C0.63 326.76 11.82 327.42 18.43 327.42 C25.03 327.42 36.22 326.76
								 36.85 322.24 L36.85 322.2 L36.85 321.23 L36.85 297.1 Z" class="st16"/>
				</g>
				<g id="shape116-375" v:mID="116" v:groupContext="shape" v:layerMember="0" transform="translate(2.08587,-1.32816)">
					<title>Foglio.116</title>
					<path d="M16.34 319.9 C9.8 319.9 3.27 319.19 0 317.6 L0 322.55 L0 323.44 C0.49 327.11 12.24 327.42 16.34 327.42
								 C20.44 327.42 32.12 327.11 32.68 323.44 L32.68 322.55 L32.68 317.6 C29.41 319.15 22.88 319.9 16.34
								 319.9 Z" class="st17"/>
				</g>
				<g id="shape117-377" v:mID="117" v:groupContext="shape" v:layerMember="0" transform="translate(2.08587,-10.1826)">
					<title>Foglio.117</title>
					<path d="M16.34 319.9 C9.8 319.9 3.27 319.19 0 317.6 L0 322.55 L0 323.44 C0.49 327.11 12.24 327.42 16.34 327.42
								 C20.44 327.42 32.12 327.11 32.68 323.44 L32.68 322.55 L32.68 317.6 C29.41 319.15 22.88 319.9 16.34
								 319.9 Z" class="st17"/>
				</g>
				<g id="shape118-379" v:mID="118" v:groupContext="shape" v:layerMember="0" transform="translate(2.08587,-19.037)">
					<title>Foglio.118</title>
					<path d="M16.34 319.9 C9.8 319.9 3.27 319.19 0 317.6 L0 322.55 L0 323.44 C0.49 327.11 12.24 327.42 16.34 327.42
								 C20.44 327.42 32.12 327.11 32.68 323.44 L32.68 322.55 L32.68 317.6 C29.41 319.15 22.88 319.9 16.34
								 319.9 Z" class="st17"/>
				</g>
				<g id="shape120-381" v:mID="120" v:groupContext="shape" v:layerMember="0" transform="translate(2.08587,-27.8914)">
					<title>Foglio.120</title>
					<ellipse cx="16.3393" cy="324.104" rx="16.3393" ry="3.3204" class="st17"/>
				</g>
			</g>
		</g>
	</g>
</svg>
