<?xml version="1.0" encoding="UTF-8" standalone="no"?>
<!DOCTYPE svg PUBLIC "-//W3C//DTD SVG 1.0//EN" "http://www.w3.org/TR/2001/REC-SVG-20010904/DTD/svg10.dtd">
<!-- Generato da Microsoft Visio 11.0, SVG Export, v1.0 jakartaeett_dt_032.svg Pagina 1 -->
<svg xmlns="http://www.w3.org/2000/svg" xmlns:v="http://schemas.microsoft.com/visio/2003/SVGExtensions/" width="5.33496in"
		height="2.3822in" viewBox="0 0 384.117 171.519" xml:space="preserve" color-interpolation-filters="sRGB" class="st6"
		xmlns:xlink="http://www.w3.org/1999/xlink">
	<v:documentProperties v:langID="1040" v:metric="true" v:viewMarkup="false">
		<v:userDefs>
			<v:ud v:nameU="MBSAAvail" v:prompt="" v:val="VT0(2):26"/>
			<v:ud v:nameU="MBSAAddinEnabled" v:prompt="" v:val="VT0(2):26"/>
			<v:ud v:nameU="MBSAAddinOutlineVisible" v:prompt="" v:val="VT0(1):26"/>
		</v:userDefs>
	</v:documentProperties>

	<style type="text/css">
	<![CDATA[
		.st1 {fill:#ffffff;stroke:none;stroke-linecap:round;stroke-linejoin:round;stroke-width:0.72}
		.st2 {fill:none;stroke:none;stroke-linecap:round;stroke-linejoin:round;stroke-width:0.72}
		.st3 {fill:#000000;font-family:Arial;font-size:0.666664em}
		.st4 {fill:#000000;stroke:#000000;stroke-linecap:round;stroke-linejoin:round;stroke-width:0.72}
		.st5 {stroke:#000000;stroke-linecap:round;stroke-linejoin:round;stroke-width:0.72}
		.st6 {fill:none;fill-rule:evenodd;font-size:12;overflow:visible;stroke-linecap:square;stroke-miterlimit:3}
	]]>
	</style>

	<g v:mID="0" v:index="1" v:groupContext="foregroundPage">
		<title>Pagina 1</title>
		<v:pageProperties v:drawingScale="0.0393701" v:pageScale="0.0393701" v:drawingUnits="24" v:shadowOffsetX="8.50394"
				v:shadowOffsetY="-8.50394"/>
		<g id="shape36-1" v:mID="36" v:groupContext="shape" transform="translate(0.72,-0.72)">
			<title>Foglio.36</title>
			<rect x="0" y="1.44" width="382.677" height="170.079" class="st1"/>
		</g>
		<g id="shape2-3" v:mID="2" v:groupContext="shape" transform="translate(37.5704,-145.287)">
			<title>Foglio.2</title>
			<desc>M1</desc>
			<v:textBlock v:margins="rect(4,4,4,4)" v:tabSpace="42.5197"/>
			<v:textRect cx="15.5906" cy="160.18" width="31.19" height="22.6772"/>
			<rect x="0" y="148.842" width="31.1811" height="22.6772" class="st2"/>
			<text x="10.03" y="162.58" class="st3" v:langID="1040"><v:paragraph v:horizAlign="1"/><v:tabList/>M1</text>		</g>
		<g id="shape6-6" v:mID="6" v:groupContext="shape" transform="translate(61.6649,202.853) scale(1,-1)">
			<title>Foglio.6</title>
			<path d="M5.67 171.52 L0 171.52 L2.83 161.88 L5.67 171.52 Z" class="st4"/>
		</g>
		<g id="shape7-8" v:mID="7" v:groupContext="shape" transform="translate(236.018,40.972) rotate(90) scale(-1,1)">
			<title>Foglio.7</title>
			<path d="M0 171.52 L31.75 171.52" class="st5"/>
		</g>
		<g id="shape1-11" v:mID="1" v:groupContext="shape" transform="translate(94.2633,-145.287)">
			<title>Foglio.1</title>
			<desc>M2</desc>
			<v:textBlock v:margins="rect(4,4,4,4)" v:tabSpace="42.5197"/>
			<v:textRect cx="15.5906" cy="160.18" width="31.19" height="22.6772"/>
			<rect x="0" y="148.842" width="31.1811" height="22.6772" class="st2"/>
			<text x="10.03" y="162.58" class="st3" v:langID="1040"><v:paragraph v:horizAlign="1"/><v:tabList/>M2</text>		</g>
		<g id="shape3-14" v:mID="3" v:groupContext="shape" transform="translate(118.358,202.853) scale(1,-1)">
			<title>Foglio.3</title>
			<path d="M5.67 171.52 L0 171.52 L2.83 161.88 L5.67 171.52 Z" class="st4"/>
		</g>
		<g id="shape4-16" v:mID="4" v:groupContext="shape" transform="translate(292.711,40.972) rotate(90) scale(-1,1)">
			<title>Foglio.4</title>
			<path d="M0 171.52 L31.75 171.52" class="st5"/>
		</g>
		<g id="shape5-19" v:mID="5" v:groupContext="shape" transform="translate(21.9798,-43.2397)">
			<title>Foglio.5</title>
			<path d="M0 171.52 L76.54 171.52" class="st5"/>
		</g>
		<g id="shape8-22" v:mID="8" v:groupContext="shape" transform="translate(193.499,151.218) rotate(90) scale(-1,1)">
			<title>Foglio.8</title>
			<path d="M0 171.52 L28.61 171.52" class="st5"/>
		</g>
		<g id="shape9-25" v:mID="9" v:groupContext="shape" transform="translate(270.034,151.218) rotate(90) scale(-1,1)">
			<title>Foglio.9</title>
			<path d="M0 171.52 L28.61 171.52" class="st5"/>
		</g>
		<g id="shape11-28" v:mID="11" v:groupContext="shape" transform="translate(19.1452,-42.2724)">
			<title>Foglio.11</title>
			<desc>Consumer</desc>
			<v:textBlock v:margins="rect(4,4,4,4)" v:tabSpace="42.5197"/>
			<v:textRect cx="34.0157" cy="164.56" width="68.04" height="13.9181"/>
			<rect x="0" y="157.601" width="68.0315" height="13.9181" class="st2"/>
			<text x="15.56" y="166.96" class="st3" v:langID="1040"><v:paragraph v:horizAlign="1"/><v:tabList/>Consumer</text>		</g>
		<g id="shape12-31" v:mID="12" v:groupContext="shape" transform="translate(2.13732,-5.09953)">
			<title>Foglio.12</title>
			<desc>create</desc>
			<v:textBlock v:margins="rect(4,4,4,4)" v:tabSpace="42.5197"/>
			<v:textRect cx="17.1354" cy="164.56" width="34.28" height="13.9181"/>
			<rect x="0" y="157.601" width="34.2709" height="13.9181" class="st2"/>
			<text x="6.02" y="166.96" class="st3" v:langID="1040"><v:paragraph v:horizAlign="1"/><v:tabList/>create</text>		</g>
		<g id="shape14-34" v:mID="14" v:groupContext="shape" transform="translate(81.3798,-5.09953)">
			<title>Foglio.14</title>
			<desc>close</desc>
			<v:textBlock v:margins="rect(4,4,4,4)" v:tabSpace="42.5197"/>
			<v:textRect cx="17.1354" cy="164.56" width="34.28" height="13.9181"/>
			<rect x="0" y="157.601" width="34.2709" height="13.9181" class="st2"/>
			<text x="7.8" y="166.96" class="st3" v:langID="1040"><v:paragraph v:horizAlign="1"/><v:tabList/>close</text>		</g>
		<g id="shape15-37" v:mID="15" v:groupContext="shape" transform="translate(150.956,-145.854)">
			<title>Foglio.15</title>
			<desc>M3</desc>
			<v:textBlock v:margins="rect(4,4,4,4)" v:tabSpace="42.5197"/>
			<v:textRect cx="15.5906" cy="160.18" width="31.19" height="22.6772"/>
			<rect x="0" y="148.842" width="31.1811" height="22.6772" class="st2"/>
			<text x="10.03" y="162.58" class="st3" v:langID="1040"><v:paragraph v:horizAlign="1"/><v:tabList/>M3</text>		</g>
		<g id="shape16-40" v:mID="16" v:groupContext="shape" transform="translate(175.051,202.286) scale(1,-1)">
			<title>Foglio.16</title>
			<path d="M5.67 171.52 L0 171.52 L2.83 161.88 L5.67 171.52 Z" class="st4"/>
		</g>
		<g id="shape17-42" v:mID="17" v:groupContext="shape" transform="translate(349.404,40.405) rotate(90) scale(-1,1)">
			<title>Foglio.17</title>
			<path d="M0 171.52 L31.75 171.52" class="st5"/>
		</g>
		<g id="shape18-45" v:mID="18" v:groupContext="shape" transform="translate(207.649,-145.854)">
			<title>Foglio.18</title>
			<desc>M4</desc>
			<v:textBlock v:margins="rect(4,4,4,4)" v:tabSpace="42.5197"/>
			<v:textRect cx="15.5906" cy="160.18" width="31.19" height="22.6772"/>
			<rect x="0" y="148.842" width="31.1811" height="22.6772" class="st2"/>
			<text x="10.03" y="162.58" class="st3" v:langID="1040"><v:paragraph v:horizAlign="1"/><v:tabList/>M4</text>		</g>
		<g id="shape19-48" v:mID="19" v:groupContext="shape" transform="translate(231.744,202.286) scale(1,-1)">
			<title>Foglio.19</title>
			<path d="M5.67 171.52 L0 171.52 L2.83 161.88 L5.67 171.52 Z" class="st4"/>
		</g>
		<g id="shape20-50" v:mID="20" v:groupContext="shape" transform="translate(406.097,40.405) rotate(90) scale(-1,1)">
			<title>Foglio.20</title>
			<path d="M0 171.52 L31.75 171.52" class="st5"/>
		</g>
		<g id="shape21-53" v:mID="21" v:groupContext="shape" transform="translate(233.161,-146.988)">
			<title>Foglio.21</title>
			<desc>M5</desc>
			<v:textBlock v:margins="rect(4,4,4,4)" v:tabSpace="42.5197"/>
			<v:textRect cx="15.5906" cy="160.18" width="31.19" height="22.6772"/>
			<rect x="0" y="148.842" width="31.1811" height="22.6772" class="st2"/>
			<text x="10.03" y="162.58" class="st3" v:langID="1040"><v:paragraph v:horizAlign="1"/><v:tabList/>M5</text>		</g>
		<g id="shape22-56" v:mID="22" v:groupContext="shape" transform="translate(257.255,201.152) scale(1,-1)">
			<title>Foglio.22</title>
			<path d="M5.67 171.52 L0 171.52 L2.83 161.88 L5.67 171.52 Z" class="st4"/>
		</g>
		<g id="shape23-58" v:mID="23" v:groupContext="shape" transform="translate(431.609,39.2712) rotate(90) scale(-1,1)">
			<title>Foglio.23</title>
			<path d="M0 171.52 L31.75 171.52" class="st5"/>
		</g>
		<g id="shape24-61" v:mID="24" v:groupContext="shape" transform="translate(289.854,-146.988)">
			<title>Foglio.24</title>
			<desc>M6</desc>
			<v:textBlock v:margins="rect(4,4,4,4)" v:tabSpace="42.5197"/>
			<v:textRect cx="15.5906" cy="160.18" width="31.19" height="22.6772"/>
			<rect x="0" y="148.842" width="31.1811" height="22.6772" class="st2"/>
			<text x="10.03" y="162.58" class="st3" v:langID="1040"><v:paragraph v:horizAlign="1"/><v:tabList/>M6</text>		</g>
		<g id="shape25-64" v:mID="25" v:groupContext="shape" transform="translate(313.948,201.152) scale(1,-1)">
			<title>Foglio.25</title>
			<path d="M5.67 171.52 L0 171.52 L2.83 161.88 L5.67 171.52 Z" class="st4"/>
		</g>
		<g id="shape26-66" v:mID="26" v:groupContext="shape" transform="translate(488.302,39.2712) rotate(90) scale(-1,1)">
			<title>Foglio.26</title>
			<path d="M0 171.52 L31.75 171.52" class="st5"/>
		</g>
		<g id="shape28-69" v:mID="28" v:groupContext="shape" transform="translate(271.365,-42.5948)">
			<title>Foglio.28</title>
			<path d="M0 171.52 L76.54 171.52" class="st5"/>
		</g>
		<g id="shape29-72" v:mID="29" v:groupContext="shape" transform="translate(442.884,151.601) rotate(90) scale(-1,1)">
			<title>Foglio.29</title>
			<path d="M0 171.52 L28.61 171.52" class="st5"/>
		</g>
		<g id="shape30-75" v:mID="30" v:groupContext="shape" transform="translate(519.419,151.601) rotate(90) scale(-1,1)">
			<title>Foglio.30</title>
			<path d="M0 171.52 L28.61 171.52" class="st5"/>
		</g>
		<g id="shape32-78" v:mID="32" v:groupContext="shape" transform="translate(268.53,-41.6275)">
			<title>Foglio.32</title>
			<desc>Consumer</desc>
			<v:textBlock v:margins="rect(4,4,4,4)" v:tabSpace="42.5197"/>
			<v:textRect cx="34.0157" cy="164.56" width="68.04" height="13.9181"/>
			<rect x="0" y="157.601" width="68.0315" height="13.9181" class="st2"/>
			<text x="15.56" y="166.96" class="st3" v:langID="1040"><v:paragraph v:horizAlign="1"/><v:tabList/>Consumer</text>		</g>
		<g id="shape33-81" v:mID="33" v:groupContext="shape" transform="translate(251.522,-4.45465)">
			<title>Foglio.33</title>
			<desc>create</desc>
			<v:textBlock v:margins="rect(4,4,4,4)" v:tabSpace="42.5197"/>
			<v:textRect cx="17.1354" cy="164.56" width="34.28" height="13.9181"/>
			<rect x="0" y="157.601" width="34.2709" height="13.9181" class="st2"/>
			<text x="6.02" y="166.96" class="st3" v:langID="1040"><v:paragraph v:horizAlign="1"/><v:tabList/>create</text>		</g>
		<g id="shape34-84" v:mID="34" v:groupContext="shape" transform="translate(330.765,-4.45465)">
			<title>Foglio.34</title>
			<desc>close</desc>
			<v:textBlock v:margins="rect(4,4,4,4)" v:tabSpace="42.5197"/>
			<v:textRect cx="17.1354" cy="164.56" width="34.28" height="13.9181"/>
			<rect x="0" y="157.601" width="34.2709" height="13.9181" class="st2"/>
			<text x="7.8" y="166.96" class="st3" v:langID="1040"><v:paragraph v:horizAlign="1"/><v:tabList/>close</text>		</g>
		<g id="shape37-87" v:mID="37" v:groupContext="shape" transform="translate(193.499,82.9247) rotate(90) scale(-1,1)">
			<title>Foglio.37</title>
			<path d="M0 171.52 L31.18 171.52" class="st5"/>
		</g>
		<g id="shape38-90" v:mID="38" v:groupContext="shape" transform="translate(519.483,82.9247) rotate(90) scale(-1,1)">
			<title>Foglio.38</title>
			<path d="M0 171.52 L31.18 171.52" class="st5"/>
		</g>
		<g id="shape39-93" v:mID="39" v:groupContext="shape" transform="translate(21.9798,-105.602)">
			<title>Foglio.39</title>
			<path d="M0 171.52 L325.98 171.52" class="st5"/>
		</g>
		<g id="shape40-96" v:mID="40" v:groupContext="shape" transform="translate(1.8822,-74.4208)">
			<title>Foglio.40</title>
			<desc>create</desc>
			<v:textBlock v:margins="rect(4,4,4,4)" v:tabSpace="42.5197"/>
			<v:textRect cx="17.1354" cy="164.56" width="34.28" height="13.9181"/>
			<rect x="0" y="157.601" width="34.2709" height="13.9181" class="st2"/>
			<text x="6.02" y="166.96" class="st3" v:langID="1040"><v:paragraph v:horizAlign="1"/><v:tabList/>create</text>		</g>
		<g id="shape41-99" v:mID="41" v:groupContext="shape" transform="translate(311.114,-74.4208)">
			<title>Foglio.41</title>
			<desc>unsubscribe</desc>
			<v:textBlock v:margins="rect(4,4,4,4)" v:tabSpace="42.5197"/>
			<v:textRect cx="34.0157" cy="164.56" width="68.04" height="13.9181"/>
			<rect x="0" y="157.601" width="68.0315" height="13.9181" class="st2"/>
			<text x="12.45" y="166.96" class="st3" v:langID="1040"><v:paragraph v:horizAlign="1"/><v:tabList/>unsubscribe</text>		</g>
		<g id="shape10-102" v:mID="10" v:groupContext="shape" transform="translate(146.577,-44.4621)">
			<title>Foglio.10</title>
			<path d="M0 171.52 L76.54 171.52" class="st5"/>
		</g>
		<g id="shape13-105" v:mID="13" v:groupContext="shape" transform="translate(318.095,149.996) rotate(90) scale(-1,1)">
			<title>Foglio.13</title>
			<path d="M0 171.52 L28.61 171.52" class="st5"/>
		</g>
		<g id="shape27-108" v:mID="27" v:groupContext="shape" transform="translate(394.631,149.996) rotate(90) scale(-1,1)">
			<title>Foglio.27</title>
			<path d="M0 171.52 L28.61 171.52" class="st5"/>
		</g>
		<g id="shape31-111" v:mID="31" v:groupContext="shape" transform="translate(143.742,-43.4948)">
			<title>Foglio.31</title>
			<desc>Consumer</desc>
			<v:textBlock v:margins="rect(4,4,4,4)" v:tabSpace="42.5197"/>
			<v:textRect cx="34.0157" cy="164.56" width="68.04" height="13.9181"/>
			<rect x="0" y="157.601" width="68.0315" height="13.9181" class="st2"/>
			<text x="15.56" y="166.96" class="st3" v:langID="1040"><v:paragraph v:horizAlign="1"/><v:tabList/>Consumer</text>		</g>
		<g id="shape35-114" v:mID="35" v:groupContext="shape" transform="translate(126.734,-6.32197)">
			<title>Foglio.35</title>
			<desc>create</desc>
			<v:textBlock v:margins="rect(4,4,4,4)" v:tabSpace="42.5197"/>
			<v:textRect cx="17.1354" cy="164.56" width="34.28" height="13.9181"/>
			<rect x="0" y="157.601" width="34.2709" height="13.9181" class="st2"/>
			<text x="6.02" y="166.96" class="st3" v:langID="1040"><v:paragraph v:horizAlign="1"/><v:tabList/>create</text>		</g>
		<g id="shape42-117" v:mID="42" v:groupContext="shape" transform="translate(205.977,-6.32197)">
			<title>Foglio.42</title>
			<desc>close</desc>
			<v:textBlock v:margins="rect(4,4,4,4)" v:tabSpace="42.5197"/>
			<v:textRect cx="17.1354" cy="164.56" width="34.28" height="13.9181"/>
			<rect x="0" y="157.601" width="34.2709" height="13.9181" class="st2"/>
			<text x="7.8" y="166.96" class="st3" v:langID="1040"><v:paragraph v:horizAlign="1"/><v:tabList/>close</text>		</g>
	</g>
</svg>
