<?xml version="1.0" encoding="UTF-8" standalone="no"?>
<!DOCTYPE svg PUBLIC "-//W3C//DTD SVG 1.0//EN" "http://www.w3.org/TR/2001/REC-SVG-20010904/DTD/svg10.dtd">
<!-- Generato da Microsoft Visio 11.0, SVG Export, v1.0 jakartaeett_dt_036.svg Pagina 1 -->
<svg xmlns="http://www.w3.org/2000/svg" xmlns:v="http://schemas.microsoft.com/visio/2003/SVGExtensions/" width="5.61055in"
		height="1.85071in" viewBox="0 0 403.96 133.251" xml:space="preserve" color-interpolation-filters="sRGB" class="st11">
	<v:documentProperties v:langID="1040" v:metric="true" v:viewMarkup="false">
		<v:userDefs>
			<v:ud v:nameU="MBSAAvail" v:prompt="" v:val="VT0(2):26"/>
			<v:ud v:nameU="MBSAAddinEnabled" v:prompt="" v:val="VT0(2):26"/>
			<v:ud v:nameU="MBSAAddinOutlineVisible" v:prompt="" v:val="VT0(1):26"/>
		</v:userDefs>
	</v:documentProperties>

	<style type="text/css">
	<![CDATA[
		.st1 {fill:#ffffff;stroke:none;stroke-linecap:round;stroke-linejoin:round;stroke-width:0.72}
		.st2 {fill:#c8d6e6;stroke:#000000;stroke-linecap:round;stroke-linejoin:round;stroke-width:0.72}
		.st3 {fill:none;stroke:none;stroke-linecap:round;stroke-linejoin:round;stroke-width:0.72}
		.st4 {fill:#000000;font-family:Arial;font-size:0.666664em}
		.st5 {fill:#f2f2f2;stroke:#000000;stroke-linecap:round;stroke-linejoin:round;stroke-width:0.72}
		.st6 {stroke:#000000;stroke-linecap:round;stroke-linejoin:round;stroke-width:0.72}
		.st7 {fill:#660033;stroke:#660033;stroke-linecap:round;stroke-linejoin:round;stroke-width:0.72}
		.st8 {stroke:#ffffff;stroke-linecap:round;stroke-linejoin:round;stroke-width:2.16}
		.st9 {fill:#000000;stroke:#000000;stroke-linecap:round;stroke-linejoin:round;stroke-width:0.72}
		.st10 {font-size:1em}
		.st11 {fill:none;fill-rule:evenodd;font-size:12;overflow:visible;stroke-linecap:square;stroke-miterlimit:3}
	]]>
	</style>

	<g v:mID="0" v:index="1" v:groupContext="foregroundPage">
		<title>Pagina 1</title>
		<v:pageProperties v:drawingScale="0.0393701" v:pageScale="0.0393701" v:drawingUnits="24" v:shadowOffsetX="8.50394"
				v:shadowOffsetY="-8.50394"/>
		<g id="shape36-1" v:mID="36" v:groupContext="shape" transform="translate(6.38929,-0.72)">
			<title>Foglio.36</title>
			<rect x="0" y="1.44" width="396.85" height="131.811" class="st1"/>
		</g>
		<g id="shape48-3" v:mID="48" v:groupContext="shape" transform="translate(272.846,-6.38929)">
			<title>Foglio.48</title>
			<rect x="0" y="34.0384" width="124.724" height="99.2126" class="st2"/>
		</g>
		<g id="shape2-5" v:mID="2" v:groupContext="shape" transform="translate(193.476,-114.106)">
			<title>Foglio.2</title>
			<desc>Msg</desc>
			<v:textBlock v:margins="rect(4,4,4,4)" v:tabSpace="42.5197"/>
			<v:textRect cx="15.5906" cy="124.747" width="31.19" height="17.0079"/>
			<rect x="0" y="116.243" width="31.1811" height="17.0079" class="st3"/>
			<text x="8.03" y="127.15" class="st4" v:langID="1040"><v:paragraph v:horizAlign="1"/><v:tabList/>Msg</text>		</g>
		<g id="shape20-8" v:mID="20" v:groupContext="shape" transform="translate(207.649,-67.5004)">
			<title>Foglio.20</title>
			<path d="M7.09 133.25 L0 98.62 L4.77 95.92 L3.74 90.97 L21.09 80.98 L29.18 120.5 L7.09 133.25 Z" class="st5"/>
		</g>
		<g id="shape21-10" v:mID="21" v:groupContext="shape" transform="translate(330.941,82.376) rotate(116.215)">
			<title>Foglio.21</title>
			<path d="M0 133.25 L8.48 133.25" class="st6"/>
		</g>
		<g id="shape3-13" v:mID="3" v:groupContext="shape" transform="translate(278.515,-12.0586)">
			<title>Foglio.3</title>
			<rect x="0" y="59.5502" width="113.386" height="73.7008" class="st5"/>
		</g>
		<g id="shape4-15" v:mID="4" v:groupContext="shape" transform="translate(287.019,-69.4602)">
			<title>Foglio.4</title>
			<desc>EJB Container</desc>
			<v:textBlock v:margins="rect(4,4,4,4)" v:tabSpace="42.5197"/>
			<v:textRect cx="35.4331" cy="126.519" width="70.87" height="13.4646"/>
			<rect x="0" y="119.786" width="70.8661" height="13.4646" class="st3"/>
			<text x="9.64" y="128.92" class="st4" v:langID="1040"><v:paragraph v:horizAlign="1"/><v:tabList/>EJB Container</text>		</g>
		<g id="shape50-18" v:mID="50" v:groupContext="shape" transform="translate(286.764,-88.594)">
			<title>Foglio.50</title>
			<desc>Java EE Server</desc>
			<v:textBlock v:margins="rect(4,4,4,4)" v:tabSpace="42.5197"/>
			<v:textRect cx="36.978" cy="126.519" width="73.96" height="13.4646"/>
			<rect x="0" y="119.786" width="73.9559" height="13.4646" class="st3"/>
			<text x="9.19" y="128.92" class="st4" v:langID="1040"><v:paragraph v:horizAlign="1"/><v:tabList/>Java EE Server</text>		</g>
		<g id="shape82-21" v:mID="82" v:groupContext="shape" transform="translate(60.2476,-114.106)">
			<title>Foglio.82</title>
			<desc>Msg</desc>
			<v:textBlock v:margins="rect(4,4,4,4)" v:tabSpace="42.5197"/>
			<v:textRect cx="15.5906" cy="124.747" width="31.19" height="17.0079"/>
			<rect x="0" y="116.243" width="31.1811" height="17.0079" class="st3"/>
			<text x="8.03" y="127.15" class="st4" v:langID="1040"><v:paragraph v:horizAlign="1"/><v:tabList/>Msg</text>		</g>
		<g id="shape83-24" v:mID="83" v:groupContext="shape" transform="translate(78.6728,-65.9169)">
			<title>Foglio.83</title>
			<path d="M7.09 133.25 L0 98.62 L4.77 95.92 L3.74 90.97 L21.09 80.98 L29.18 120.5 L7.09 133.25 Z" class="st5"/>
		</g>
		<g id="shape84-26" v:mID="84" v:groupContext="shape" transform="translate(201.964,83.9596) rotate(116.215)">
			<title>Foglio.84</title>
			<path d="M0 133.25 L8.48 133.25" class="st6"/>
		</g>
		<g id="shape1-29" v:mID="1" v:groupContext="shape" transform="translate(136.783,-48.2003)">
			<title>Foglio.1</title>
			<rect x="0" y="114.826" width="62.8098" height="18.4252" rx="9.2126" ry="9.2126" class="st2"/>
		</g>
		<g id="shape9-31" v:mID="9" v:groupContext="shape" transform="translate(196.021,-48.2003) scale(-1,1)">
			<title>Foglio.9</title>
			<rect x="0" y="114.826" width="15.4282" height="18.4252" rx="7.71411" ry="7.71411" class="st2"/>
		</g>
		<g id="shape10-33" v:mID="10" v:groupContext="shape" transform="translate(199.593,-48.2003) scale(-1,1)">
			<title>Foglio.10</title>
			<rect x="0" y="114.826" width="16.5186" height="18.4252" rx="8.25929" ry="8.25929" class="st2"/>
		</g>
		<g id="shape13-35" v:mID="13" v:groupContext="shape" transform="translate(386.232,-17.7279) scale(-1,1)">
			<title>Foglio.13</title>
			<rect x="0" y="83.6447" width="100.984" height="49.6063" class="st2"/>
		</g>
		<g id="shape14-37" v:mID="14" v:groupContext="shape" transform="translate(370.641,-44.657) scale(-1,1)">
			<title>Foglio.14</title>
			<desc>MDB Instances</desc>
			<v:textBlock v:margins="rect(4,4,4,4)" v:tabSpace="42.5197"/>
			<v:textRect cx="38.2677" cy="123.33" width="76.54" height="19.8425"/>
			<rect x="0" y="113.409" width="76.5354" height="19.8425" class="st3"/>
			<text x="-72.54" y="125.73" transform="scale(-1,1)" class="st4" v:langID="1040"><v:paragraph/><v:tabList/>MDB Instances</text>		</g>
		<g id="shape11-40" v:mID="11" v:groupContext="shape" transform="translate(261.876,-2.82276) rotate(-30)">
			<title>Foglio.11</title>
			<ellipse cx="12.7542" cy="125.356" rx="12.7542" ry="7.89545" class="st7"/>
		</g>
		<g id="shape12-42" v:mID="12" v:groupContext="shape" transform="translate(260.304,-8.43403) rotate(-29.3825)">
			<title>Foglio.12</title>
			<path d="M0 130.39 C1.36 131.29 2.83 132.51 4.97 133.02 C5.69 133.19 6.49 133.29 7.22 133.24 C8.82 133.14 10.08 132.35
						 11.27 131.62 C12.91 130.61 14.42 129.68 16.59 129.25 C18 128.97 19.7 128.89 21.08 129.08 C22.88 129.32 24.16
						 130 25.46 130.39" class="st8"/>
		</g>
		<g id="shape5-45" v:mID="5" v:groupContext="shape" transform="translate(202.374,-50.6806)">
			<title>Foglio.5</title>
			<desc>Delivers</desc>
			<v:textBlock v:margins="rect(4,4,4,4)" v:tabSpace="42.5197"/>
			<v:textRect cx="22.8047" cy="126.519" width="45.61" height="13.4646"/>
			<rect x="0" y="119.786" width="45.6094" height="13.4646" class="st3"/>
			<text x="8.36" y="128.92" class="st4" v:langID="1040"><v:paragraph v:horizAlign="1"/><v:tabList/>Delivers</text>		</g>
		<g id="shape6-48" v:mID="6" v:groupContext="shape" transform="translate(395.609,72.6491) rotate(90)">
			<title>Foglio.6</title>
			<path d="M5.67 133.25 L0 133.25 L2.83 123.61 L5.67 133.25 Z" class="st9"/>
		</g>
		<g id="shape8-50" v:mID="8" v:groupContext="shape" transform="translate(208.298,-57.7672) scale(-1,1)">
			<title>Foglio.8</title>
			<path d="M0 133.25 L18.88 133.25" class="st6"/>
		</g>
		<g id="shape7-53" v:mID="7" v:groupContext="shape" transform="translate(272.421,-57.7672) scale(-1,1)">
			<title>Foglio.7</title>
			<path d="M0 133.25 L18.99 133.25" class="st6"/>
		</g>
		<g id="shape25-56" v:mID="25" v:groupContext="shape" transform="translate(109.492,-50.6806) scale(-1,1)">
			<title>Foglio.25</title>
			<desc>Sends</desc>
			<v:textBlock v:margins="rect(4,4,4,4)" v:tabSpace="42.5197"/>
			<v:textRect cx="18.489" cy="126.519" width="36.98" height="13.4646"/>
			<rect x="0" y="119.786" width="36.978" height="13.4646" class="st3"/>
			<text x="-29.83" y="128.92" transform="scale(-1,1)" class="st4" v:langID="1040"><v:paragraph v:horizAlign="1"/><v:tabList/>Sends</text>		</g>
		<g id="shape26-59" v:mID="26" v:groupContext="shape" transform="translate(259.971,78.3184) rotate(90) scale(-1,1)">
			<title>Foglio.26</title>
			<path d="M5.67 133.25 L0 133.25 L2.83 123.61 L5.67 133.25 Z" class="st9"/>
		</g>
		<g id="shape27-61" v:mID="27" v:groupContext="shape" transform="translate(110.846,-57.7672)">
			<title>Foglio.27</title>
			<path d="M0 133.25 L18.88 133.25" class="st6"/>
		</g>
		<g id="shape28-64" v:mID="28" v:groupContext="shape" transform="translate(51.7436,-57.7672)">
			<title>Foglio.28</title>
			<path d="M0 133.25 L23.53 133.25" class="st6"/>
		</g>
		<g id="shape91-67" v:mID="91" v:groupContext="shape" transform="translate(145.287,-32.6098)">
			<title>Foglio.91</title>
			<desc>Queue</desc>
			<v:textBlock v:margins="rect(4,4,4,4)" v:tabSpace="42.5197"/>
			<v:textRect cx="22.8047" cy="126.519" width="45.61" height="13.4646"/>
			<rect x="0" y="119.786" width="45.6094" height="13.4646" class="st3"/>
			<text x="10.8" y="128.92" class="st4" v:langID="1040"><v:paragraph v:horizAlign="1"/><v:tabList/>Queue</text>		</g>
		<g id="shape15-70" v:mID="15" v:groupContext="shape" transform="translate(0.72,-80.0901)">
			<title>Foglio.15</title>
			<desc>Application Client</desc>
			<v:textBlock v:margins="rect(4,4,4,4)" v:tabSpace="42.5197"/>
			<v:textRect cx="26.9291" cy="121.912" width="53.86" height="22.6772"/>
			<rect x="0" y="110.574" width="53.8583" height="22.6772" class="st3"/>
			<text x="7.36" y="119.51" class="st4" v:langID="1040"><v:paragraph v:horizAlign="1"/><v:tabList/>Application <tspan
						x="16.7" dy="1.2em" class="st10">Client</tspan></text>		</g>
		<g id="shape16-74" v:mID="16" v:groupContext="shape" transform="translate(-28.6618,-54.8269) rotate(-18.4349)">
			<title>Foglio.16</title>
			<path d="M0 133.25 L40.34 133.25" class="st6"/>
		</g>
		<g id="shape17-77" v:mID="17" v:groupContext="shape" transform="translate(13.4759,-36.1531)">
			<title>Foglio.17</title>
			<path d="M38.27 120.5 L0 133.25 L0 107.74" class="st6"/>
		</g>
		<g id="shape18-80" v:mID="18" v:groupContext="shape" transform="translate(184.995,58.8302) rotate(90)">
			<title>Foglio.18</title>
			<path d="M0 133.25 L25.51 133.25" class="st6"/>
		</g>
		<g id="shape19-83" v:mID="19" v:groupContext="shape" transform="translate(-28.6618,-52.7859) rotate(-18.4349)">
			<title>Foglio.19</title>
			<path d="M0 133.25 L40.34 133.25" class="st6"/>
		</g>
		<g id="shape22-86" v:mID="22" v:groupContext="shape" transform="translate(-27.3862,-51.9234) rotate(-18.4349)">
			<title>Foglio.22</title>
			<path d="M0 133.25 L13.91 133.25" class="st6"/>
		</g>
		<g id="shape23-89" v:mID="23" v:groupContext="shape" transform="translate(14.7515,-49.9659)">
			<title>Foglio.23</title>
			<path d="M13.19 128.85 L0 133.25 L0 124.46" class="st6"/>
		</g>
		<g id="shape24-92" v:mID="24" v:groupContext="shape" transform="translate(161.196,70.0919) rotate(90)">
			<title>Foglio.24</title>
			<path d="M0 133.25 L8.8 133.25" class="st6"/>
		</g>
		<g id="shape29-95" v:mID="29" v:groupContext="shape" transform="translate(-5.1909,-41.7308) rotate(-18.4349)">
			<title>Foglio.29</title>
			<path d="M0 133.25 L4.3 133.25" class="st6"/>
		</g>
		<g id="shape30-98" v:mID="30" v:groupContext="shape" transform="translate(36.9468,-45.8476)">
			<title>Foglio.30</title>
			<path d="M4.08 131.89 L0 133.25 L0 130.53" class="st6"/>
		</g>
		<g id="shape31-101" v:mID="31" v:groupContext="shape" transform="translate(174.28,83.3216) rotate(90)">
			<title>Foglio.31</title>
			<path d="M0 133.25 L2.72 133.25" class="st6"/>
		</g>
		<g id="shape32-104" v:mID="32" v:groupContext="shape" transform="translate(0.676815,-43.7718) rotate(-18.4349)">
			<title>Foglio.32</title>
			<path d="M0 133.25 L4.3 133.25" class="st6"/>
		</g>
		<g id="shape33-107" v:mID="33" v:groupContext="shape" transform="translate(42.8145,-47.8885)">
			<title>Foglio.33</title>
			<path d="M4.08 131.89 L0 133.25 L0 130.53" class="st6"/>
		</g>
		<g id="shape34-110" v:mID="34" v:groupContext="shape" transform="translate(180.147,81.2806) rotate(90)">
			<title>Foglio.34</title>
			<path d="M0 133.25 L2.72 133.25" class="st6"/>
		</g>
	</g>
</svg>
