<?xml version="1.0" encoding="UTF-8" standalone="no"?>
<!DOCTYPE svg PUBLIC "-//W3C//DTD SVG 1.0//EN" "http://www.w3.org/TR/2001/REC-SVG-20010904/DTD/svg10.dtd">
<!-- Generato da Microsoft Visio 11.0, SVG Export, v1.0 jakartaeett_dt_037.svg Pagina 1 -->
<svg xmlns="http://www.w3.org/2000/svg" xmlns:v="http://schemas.microsoft.com/visio/2003/SVGExtensions/" width="5.21685in"
		height="3.16961in" viewBox="0 0 375.613 228.212" xml:space="preserve" color-interpolation-filters="sRGB" class="st11">
	<v:documentProperties v:langID="1040" v:metric="true" v:viewMarkup="false">
		<v:userDefs>
			<v:ud v:nameU="MBSAAvail" v:prompt="" v:val="VT0(2):26"/>
			<v:ud v:nameU="MBSAAddinEnabled" v:prompt="" v:val="VT0(2):26"/>
			<v:ud v:nameU="MBSAAddinOutlineVisible" v:prompt="" v:val="VT0(1):26"/>
		</v:userDefs>
	</v:documentProperties>

	<style type="text/css">
	<![CDATA[
		.st1 {fill:#ffffff;stroke:none;stroke-linecap:round;stroke-linejoin:round;stroke-width:0.72}
		.st2 {fill:#c8d6e6;stroke:#000000;stroke-linecap:round;stroke-linejoin:round;stroke-width:0.72}
		.st3 {fill:none;stroke:none;stroke-linecap:round;stroke-linejoin:round;stroke-width:0.72}
		.st4 {fill:#000000;font-family:Arial;font-size:0.666664em}
		.st5 {fill:#f2f2f2;stroke:#000000;stroke-linecap:round;stroke-linejoin:round;stroke-width:0.72}
		.st6 {stroke:#000000;stroke-linecap:round;stroke-linejoin:round;stroke-width:0.72}
		.st7 {fill:#660033;stroke:#660033;stroke-linecap:round;stroke-linejoin:round;stroke-width:0.72}
		.st8 {stroke:#ffffff;stroke-linecap:round;stroke-linejoin:round;stroke-width:2.16}
		.st9 {fill:#000000;stroke:#000000;stroke-linecap:round;stroke-linejoin:round;stroke-width:0.72}
		.st10 {font-size:1em}
		.st11 {fill:none;fill-rule:evenodd;font-size:12;overflow:visible;stroke-linecap:square;stroke-miterlimit:3}
	]]>
	</style>

	<g v:mID="0" v:index="1" v:groupContext="foregroundPage">
		<title>Pagina 1</title>
		<v:pageProperties v:drawingScale="0.0393701" v:pageScale="0.0393701" v:drawingUnits="24" v:shadowOffsetX="8.50394"
				v:shadowOffsetY="-8.50394"/>
		<g id="shape36-1" v:mID="36" v:groupContext="shape" transform="translate(0.72,-114.106)">
			<title>Foglio.36</title>
			<rect x="0" y="114.826" width="374.173" height="113.386" class="st1"/>
		</g>
		<g id="shape48-3" v:mID="48" v:groupContext="shape" transform="translate(6.38929,-119.775)">
			<title>Foglio.48</title>
			<rect x="0" y="126.164" width="362.835" height="102.047" class="st2"/>
		</g>
		<g id="shape2-5" v:mID="2" v:groupContext="shape" transform="translate(232.233,-64.1452)">
			<title>Foglio.2</title>
			<desc>Msg</desc>
			<v:textBlock v:margins="rect(4,4,4,4)" v:tabSpace="42.5197"/>
			<v:textRect cx="15.5906" cy="219.708" width="31.19" height="17.0079"/>
			<rect x="0" y="211.204" width="31.1811" height="17.0079" class="st3"/>
			<text x="8.03" y="222.11" class="st4" v:langID="1040"><v:paragraph v:horizAlign="1"/><v:tabList/>Msg</text>		</g>
		<g id="shape20-8" v:mID="20" v:groupContext="shape" transform="translate(246.406,-17.5398)">
			<title>Foglio.20</title>
			<path d="M7.09 228.21 L0 193.58 L4.77 190.88 L3.74 185.93 L21.09 175.94 L29.18 215.46 L7.09 228.21 Z" class="st5"/>
		</g>
		<g id="shape21-10" v:mID="21" v:groupContext="shape" transform="translate(454.891,269.245) rotate(116.215)">
			<title>Foglio.21</title>
			<path d="M0 228.21 L8.48 228.21" class="st6"/>
		</g>
		<g id="shape3-13" v:mID="3" v:groupContext="shape" transform="translate(250.169,-125.444)">
			<title>Foglio.3</title>
			<rect x="0" y="154.511" width="113.386" height="73.7008" class="st5"/>
		</g>
		<g id="shape4-15" v:mID="4" v:groupContext="shape" transform="translate(258.673,-182.846)">
			<title>Foglio.4</title>
			<desc>EJB Container</desc>
			<v:textBlock v:margins="rect(4,4,4,4)" v:tabSpace="42.5197"/>
			<v:textRect cx="35.4331" cy="221.479" width="70.87" height="13.4646"/>
			<rect x="0" y="214.747" width="70.8661" height="13.4646" class="st3"/>
			<text x="9.64" y="223.88" class="st4" v:langID="1040"><v:paragraph v:horizAlign="1"/><v:tabList/>EJB Container</text>		</g>
		<g id="shape50-18" v:mID="50" v:groupContext="shape" transform="translate(142.197,-201.98)">
			<title>Foglio.50</title>
			<desc>Java EE Server</desc>
			<v:textBlock v:margins="rect(4,4,4,4)" v:tabSpace="42.5197"/>
			<v:textRect cx="36.978" cy="221.479" width="73.96" height="13.4646"/>
			<rect x="0" y="214.747" width="73.9559" height="13.4646" class="st3"/>
			<text x="9.19" y="223.88" class="st4" v:langID="1040"><v:paragraph v:horizAlign="1"/><v:tabList/>Java EE Server</text>		</g>
		<g id="shape82-21" v:mID="82" v:groupContext="shape" transform="translate(104.185,-64.1452)">
			<title>Foglio.82</title>
			<desc>Msg</desc>
			<v:textBlock v:margins="rect(4,4,4,4)" v:tabSpace="42.5197"/>
			<v:textRect cx="15.5906" cy="219.708" width="31.19" height="17.0079"/>
			<rect x="0" y="211.204" width="31.1811" height="17.0079" class="st3"/>
			<text x="8.03" y="222.11" class="st4" v:langID="1040"><v:paragraph v:horizAlign="1"/><v:tabList/>Msg</text>		</g>
		<g id="shape83-24" v:mID="83" v:groupContext="shape" transform="translate(117.429,-15.9562)">
			<title>Foglio.83</title>
			<path d="M7.09 228.21 L0 193.58 L4.77 190.88 L3.74 185.93 L21.09 175.94 L29.18 215.46 L7.09 228.21 Z" class="st5"/>
		</g>
		<g id="shape84-26" v:mID="84" v:groupContext="shape" transform="translate(325.914,270.828) rotate(116.215)">
			<title>Foglio.84</title>
			<path d="M0 228.21 L8.48 228.21" class="st6"/>
		</g>
		<g id="shape13-29" v:mID="13" v:groupContext="shape" transform="translate(357.885,-131.114) scale(-1,1)">
			<title>Foglio.13</title>
			<rect x="0" y="178.605" width="100.984" height="49.6063" class="st2"/>
		</g>
		<g id="shape14-31" v:mID="14" v:groupContext="shape" transform="translate(342.295,-158.043) scale(-1,1)">
			<title>Foglio.14</title>
			<desc>MDB Instances</desc>
			<v:textBlock v:margins="rect(4,4,4,4)" v:tabSpace="42.5197"/>
			<v:textRect cx="38.2677" cy="218.29" width="76.54" height="19.8425"/>
			<rect x="0" y="208.369" width="76.5354" height="19.8425" class="st3"/>
			<text x="-72.54" y="220.69" transform="scale(-1,1)" class="st4" v:langID="1040"><v:paragraph/><v:tabList/>MDB Instances</text>		</g>
		<g id="shape11-34" v:mID="11" v:groupContext="shape" transform="translate(186.049,-103.486) rotate(-30)">
			<title>Foglio.11</title>
			<ellipse cx="12.7542" cy="220.316" rx="12.7542" ry="7.89545" class="st7"/>
		</g>
		<g id="shape12-36" v:mID="12" v:groupContext="shape" transform="translate(185.366,-109.605) rotate(-29.3825)">
			<title>Foglio.12</title>
			<path d="M0 225.36 C1.36 226.25 2.83 227.47 4.97 227.98 C5.69 228.15 6.49 228.25 7.22 228.2 C8.82 228.1 10.08 227.31
						 11.27 226.58 C12.91 225.57 14.42 224.64 16.59 224.21 C18 223.93 19.7 223.85 21.08 224.04 C22.88 224.28 24.16
						 224.96 25.46 225.36" class="st8"/>
		</g>
		<g id="shape5-39" v:mID="5" v:groupContext="shape" transform="translate(235.868,-0.72)">
			<title>Foglio.5</title>
			<desc>Delivers</desc>
			<v:textBlock v:margins="rect(4,4,4,4)" v:tabSpace="42.5197"/>
			<v:textRect cx="22.8047" cy="221.479" width="45.61" height="13.4646"/>
			<rect x="0" y="214.747" width="45.6094" height="13.4646" class="st3"/>
			<text x="8.36" y="223.88" class="st4" v:langID="1040"><v:paragraph v:horizAlign="1"/><v:tabList/>Delivers</text>		</g>
		<g id="shape6-42" v:mID="6" v:groupContext="shape" transform="translate(34.7357,-115.098)">
			<title>Foglio.6</title>
			<path d="M5.67 228.21 L0 228.21 L2.83 218.57 L5.67 228.21 Z" class="st9"/>
		</g>
		<g id="shape7-44" v:mID="7" v:groupContext="shape" transform="translate(-190.641,103.051) rotate(-90) scale(-1,1)">
			<title>Foglio.7</title>
			<path d="M0 228.21 L18.99 228.21" class="st6"/>
		</g>
		<g id="shape25-47" v:mID="25" v:groupContext="shape" transform="translate(153.791,-0.72) scale(-1,1)">
			<title>Foglio.25</title>
			<desc>Publishes</desc>
			<v:textBlock v:margins="rect(4,4,4,4)" v:tabSpace="42.5197"/>
			<v:textRect cx="26.9929" cy="221.479" width="53.99" height="13.4646"/>
			<rect x="0" y="214.747" width="53.9858" height="13.4646" class="st3"/>
			<text x="-44.34" y="223.88" transform="scale(-1,1)" class="st4" v:langID="1040"><v:paragraph v:horizAlign="1"/><v:tabList/>Publishes</text>		</g>
		<g id="shape26-50" v:mID="26" v:groupContext="shape" transform="translate(394.758,184.972) rotate(90) scale(-1,1)">
			<title>Foglio.26</title>
			<path d="M5.67 228.21 L0 228.21 L2.83 218.57 L5.67 228.21 Z" class="st9"/>
		</g>
		<g id="shape27-52" v:mID="27" v:groupContext="shape" transform="translate(143.87,-46.0743)">
			<title>Foglio.27</title>
			<path d="M0 228.21 L32.73 228.21" class="st6"/>
		</g>
		<g id="shape15-55" v:mID="15" v:groupContext="shape" transform="translate(6.67276,-29.0665)">
			<title>Foglio.15</title>
			<desc>Application Client</desc>
			<v:textBlock v:margins="rect(4,4,4,4)" v:tabSpace="42.5197"/>
			<v:textRect cx="26.9291" cy="216.873" width="53.86" height="22.6772"/>
			<rect x="0" y="205.534" width="53.8583" height="22.6772" class="st3"/>
			<text x="7.36" y="214.47" class="st4" v:langID="1040"><v:paragraph v:horizAlign="1"/><v:tabList/>Application <tspan
						x="16.7" dy="1.2em" class="st10">Client</tspan></text>		</g>
		<g id="shape16-59" v:mID="16" v:groupContext="shape" transform="translate(-52.7382,-68.0247) rotate(-18.4349)">
			<title>Foglio.16</title>
			<path d="M0 228.21 L40.34 228.21" class="st6"/>
		</g>
		<g id="shape17-62" v:mID="17" v:groupContext="shape" transform="translate(19.4287,-54.2239)">
			<title>Foglio.17</title>
			<path d="M38.27 215.46 L0 228.21 L0 202.7" class="st6"/>
		</g>
		<g id="shape18-65" v:mID="18" v:groupContext="shape" transform="translate(285.908,135.72) rotate(90)">
			<title>Foglio.18</title>
			<path d="M0 228.21 L25.51 228.21" class="st6"/>
		</g>
		<g id="shape19-68" v:mID="19" v:groupContext="shape" transform="translate(-52.7382,-65.9837) rotate(-18.4349)">
			<title>Foglio.19</title>
			<path d="M0 228.21 L40.34 228.21" class="st6"/>
		</g>
		<g id="shape22-71" v:mID="22" v:groupContext="shape" transform="translate(-51.4626,-65.1212) rotate(-18.4349)">
			<title>Foglio.22</title>
			<path d="M0 228.21 L13.91 228.21" class="st6"/>
		</g>
		<g id="shape23-74" v:mID="23" v:groupContext="shape" transform="translate(20.7043,-68.0368)">
			<title>Foglio.23</title>
			<path d="M13.19 223.81 L0 228.21 L0 219.42" class="st6"/>
		</g>
		<g id="shape24-77" v:mID="24" v:groupContext="shape" transform="translate(262.109,146.982) rotate(90)">
			<title>Foglio.24</title>
			<path d="M0 228.21 L8.8 228.21" class="st6"/>
		</g>
		<g id="shape29-80" v:mID="29" v:groupContext="shape" transform="translate(-29.2673,-54.9286) rotate(-18.4349)">
			<title>Foglio.29</title>
			<path d="M0 228.21 L4.3 228.21" class="st6"/>
		</g>
		<g id="shape30-83" v:mID="30" v:groupContext="shape" transform="translate(42.8995,-63.9184)">
			<title>Foglio.30</title>
			<path d="M4.08 226.85 L0 228.21 L0 225.49" class="st6"/>
		</g>
		<g id="shape31-86" v:mID="31" v:groupContext="shape" transform="translate(275.193,160.211) rotate(90)">
			<title>Foglio.31</title>
			<path d="M0 228.21 L2.72 228.21" class="st6"/>
		</g>
		<g id="shape32-89" v:mID="32" v:groupContext="shape" transform="translate(-23.3996,-56.9696) rotate(-18.4349)">
			<title>Foglio.32</title>
			<path d="M0 228.21 L4.3 228.21" class="st6"/>
		</g>
		<g id="shape33-92" v:mID="33" v:groupContext="shape" transform="translate(48.7672,-65.9594)">
			<title>Foglio.33</title>
			<path d="M4.08 226.85 L0 228.21 L0 225.49" class="st6"/>
		</g>
		<g id="shape34-95" v:mID="34" v:groupContext="shape" transform="translate(281.061,158.17) rotate(90)">
			<title>Foglio.34</title>
			<path d="M0 228.21 L2.72 228.21" class="st6"/>
		</g>
		<g id="shape92-98" v:mID="92" v:groupContext="shape" transform="translate(12.0586,-125.444)">
			<title>Foglio.92</title>
			<rect x="0" y="154.511" width="113.386" height="73.7008" class="st5"/>
		</g>
		<g id="shape93-100" v:mID="93" v:groupContext="shape" transform="translate(20.5625,-182.846)">
			<title>Foglio.93</title>
			<desc>EJB Container</desc>
			<v:textBlock v:margins="rect(4,4,4,4)" v:tabSpace="42.5197"/>
			<v:textRect cx="35.4331" cy="221.479" width="70.87" height="13.4646"/>
			<rect x="0" y="214.747" width="70.8661" height="13.4646" class="st3"/>
			<text x="9.64" y="223.88" class="st4" v:langID="1040"><v:paragraph v:horizAlign="1"/><v:tabList/>EJB Container</text>		</g>
		<g id="shape94-103" v:mID="94" v:groupContext="shape" transform="translate(119.775,-131.114) scale(-1,1)">
			<title>Foglio.94</title>
			<rect x="0" y="178.605" width="100.984" height="49.6063" class="st2"/>
		</g>
		<g id="shape95-105" v:mID="95" v:groupContext="shape" transform="translate(104.185,-158.043) scale(-1,1)">
			<title>Foglio.95</title>
			<desc>Session Bean</desc>
			<v:textBlock v:margins="rect(4,4,4,4)" v:tabSpace="42.5197"/>
			<v:textRect cx="38.2677" cy="218.29" width="76.54" height="19.8425"/>
			<rect x="0" y="208.369" width="76.5354" height="19.8425" class="st3"/>
			<text x="-72.54" y="220.69" transform="scale(-1,1)" class="st4" v:langID="1040"><v:paragraph/><v:tabList/>Session Bean</text>		</g>
		<g id="shape96-108" v:mID="96" v:groupContext="shape" transform="translate(-52.0609,-103.486) rotate(-30)">
			<title>Foglio.96</title>
			<ellipse cx="12.7542" cy="220.316" rx="12.7542" ry="7.89545" class="st7"/>
		</g>
		<g id="shape97-110" v:mID="97" v:groupContext="shape" transform="translate(-52.744,-109.605) rotate(-29.3825)">
			<title>Foglio.97</title>
			<path d="M0 225.36 C1.36 226.25 2.83 227.47 4.97 227.98 C5.69 228.15 6.49 228.25 7.22 228.2 C8.82 228.1 10.08 227.31
						 11.27 226.58 C12.91 225.57 14.42 224.64 16.59 224.21 C18 223.93 19.7 223.85 21.08 224.04 C22.88 224.28 24.16
						 224.96 25.46 225.36" class="st8"/>
		</g>
		<g id="shape1-113" v:mID="1" v:groupContext="shape" transform="translate(18.5783,-91.4287)">
			<title>Foglio.1</title>
			<desc>Calls</desc>
			<v:textBlock v:margins="rect(4,4,4,4)" v:tabSpace="42.5197"/>
			<v:textRect cx="15.5906" cy="219.708" width="31.19" height="17.0079"/>
			<rect x="0" y="211.204" width="31.1811" height="17.0079" class="st3"/>
			<text x="6.7" y="222.11" class="st4" v:langID="1040"><v:paragraph v:horizAlign="1"/><v:tabList/>Calls</text>		</g>
		<g id="shape9-116" v:mID="9" v:groupContext="shape" transform="translate(-191.208,133.948) rotate(-90) scale(-1,1)">
			<title>Foglio.9</title>
			<path d="M0 228.21 L8.67 228.21" class="st6"/>
		</g>
		<g id="shape8-119" v:mID="8" v:groupContext="shape" transform="translate(176.596,-50.4998)">
			<title>Foglio.8</title>
			<ellipse cx="18.4252" cy="222.714" rx="18.4252" ry="5.49749" class="st2"/>
		</g>
		<g id="shape10-121" v:mID="10" v:groupContext="shape" transform="translate(176.596,-43.3531)">
			<title>Foglio.10</title>
			<path d="M-0 223.68 A26.0572 15.4849 0 0 0 36.85 223.68" class="st6"/>
		</g>
		<g id="shape28-124" v:mID="28" v:groupContext="shape" transform="translate(176.596,-36.5499)">
			<title>Foglio.28</title>
			<path d="M-0 223.68 A26.0572 15.4849 0 0 0 36.85 223.68" class="st6"/>
		</g>
		<g id="shape35-127" v:mID="35" v:groupContext="shape" transform="translate(176.596,-30.2003)">
			<title>Foglio.35</title>
			<path d="M-0 223.68 A26.0572 15.4849 0 0 0 36.85 223.68" class="st6"/>
		</g>
		<g id="shape37-130" v:mID="37" v:groupContext="shape" transform="translate(441.658,193.325) rotate(90) scale(-1,1)">
			<title>Foglio.37</title>
			<path d="M0 228.21 L21.11 228.21" class="st6"/>
		</g>
		<g id="shape38-133" v:mID="38" v:groupContext="shape" transform="translate(404.807,193.325) rotate(90) scale(-1,1)">
			<title>Foglio.38</title>
			<path d="M0 228.21 L21.11 228.21" class="st6"/>
		</g>
		<g id="shape39-136" v:mID="39" v:groupContext="shape" transform="translate(167.837,-1.42866)">
			<title>Foglio.39</title>
			<desc>Topic</desc>
			<v:textBlock v:margins="rect(4,4,4,4)" v:tabSpace="42.5197"/>
			<v:textRect cx="22.8047" cy="221.479" width="45.61" height="13.4646"/>
			<rect x="0" y="214.747" width="45.6094" height="13.4646" class="st3"/>
			<text x="13.02" y="223.88" class="st4" v:langID="1040"><v:paragraph v:horizAlign="1"/><v:tabList/>Topic</text>		</g>
		<g id="shape40-139" v:mID="40" v:groupContext="shape" transform="translate(-150.956,97.098) rotate(-90) scale(-1,1)">
			<title>Foglio.40</title>
			<path d="M0 228.21 L85.04 228.21" class="st6"/>
		</g>
		<g id="shape41-142" v:mID="41" v:groupContext="shape" transform="translate(77.2554,-46.0743)">
			<title>Foglio.41</title>
			<path d="M0 228.21 L41.1 228.21" class="st6"/>
		</g>
		<g id="shape42-145" v:mID="42" v:groupContext="shape" transform="translate(213.446,-47.8885)">
			<title>Foglio.42</title>
			<path d="M0 228.21 L32.73 228.21" class="st6"/>
		</g>
		<g id="shape43-148" v:mID="43" v:groupContext="shape" transform="translate(541.449,102.767) rotate(90)">
			<title>Foglio.43</title>
			<path d="M0 228.21 L77.95 228.21" class="st6"/>
		</g>
		<g id="shape44-151" v:mID="44" v:groupContext="shape" transform="translate(313.237,-47.4917) scale(-1,1)">
			<title>Foglio.44</title>
			<path d="M0 228.21 L41.1 228.21" class="st6"/>
		</g>
		<g id="shape45-154" v:mID="45" v:groupContext="shape" transform="translate(315.933,-115.523) scale(-1,1)">
			<title>Foglio.45</title>
			<path d="M5.67 228.21 L0 228.21 L2.83 218.57 L5.67 228.21 Z" class="st9"/>
		</g>
	</g>
</svg>
