<?xml version="1.0" encoding="UTF-8" standalone="no"?>
<!DOCTYPE svg PUBLIC "-//W3C//DTD SVG 1.0//EN" "http://www.w3.org/TR/2001/REC-SVG-20010904/DTD/svg10.dtd">
<!-- Generato da Microsoft Visio 11.0, SVG Export, v1.0 jakartaeett_dt_059.svg Pagina 1 -->
<svg xmlns="http://www.w3.org/2000/svg" xmlns:v="http://schemas.microsoft.com/visio/2003/SVGExtensions/" width="5.21685in"
		height="6.00425in" viewBox="0 0 375.613 432.306" xml:space="preserve" color-interpolation-filters="sRGB" class="st10">
	<v:documentProperties v:langID="1040" v:metric="true" v:viewMarkup="false">
		<v:userDefs>
			<v:ud v:nameU="MBSAAvail" v:prompt="" v:val="VT0(2):26"/>
			<v:ud v:nameU="MBSAAddinEnabled" v:prompt="" v:val="VT0(2):26"/>
			<v:ud v:nameU="MBSAAddinOutlineVisible" v:prompt="" v:val="VT0(1):26"/>
		</v:userDefs>
	</v:documentProperties>

	<style type="text/css">
	<![CDATA[
		.st1 {fill:#ffffff;stroke:none;stroke-linecap:round;stroke-linejoin:round;stroke-width:0.72}
		.st2 {fill:#c8d6e6;stroke:#000000;stroke-linecap:round;stroke-linejoin:round;stroke-width:0.72}
		.st3 {fill:#f2f2f2;stroke:#000000;stroke-linecap:round;stroke-linejoin:round;stroke-width:0.72}
		.st4 {fill:none;stroke:none;stroke-linecap:round;stroke-linejoin:round;stroke-width:0.72}
		.st5 {fill:#000000;font-family:Arial;font-size:0.666664em}
		.st6 {font-size:1em}
		.st7 {fill:#ebf1de;stroke:#000000;stroke-linecap:round;stroke-linejoin:round;stroke-width:0.72}
		.st8 {fill:#000000;stroke:#000000;stroke-linecap:round;stroke-linejoin:round;stroke-width:0.72}
		.st9 {stroke:#000000;stroke-linecap:round;stroke-linejoin:round;stroke-width:0.72}
		.st10 {fill:none;fill-rule:evenodd;font-size:12;overflow:visible;stroke-linecap:square;stroke-miterlimit:3}
	]]>
	</style>

	<g v:mID="0" v:index="1" v:groupContext="foregroundPage">
		<title>Pagina 1</title>
		<v:pageProperties v:drawingScale="0.0393701" v:pageScale="0.0393701" v:drawingUnits="24" v:shadowOffsetX="8.50394"
				v:shadowOffsetY="-8.50394"/>
		<g id="shape4-1" v:mID="4" v:groupContext="shape" transform="translate(0.72,-0.72)">
			<title>Foglio.4</title>
			<rect x="0" y="1.44" width="374.173" height="430.866" class="st1"/>
		</g>
		<g id="shape5-3" v:mID="5" v:groupContext="shape" transform="translate(7.80661,-9.22394)">
			<title>Foglio.5</title>
			<rect x="0" y="15.6132" width="358.583" height="416.693" class="st2"/>
		</g>
		<g id="shape11-5" v:mID="11" v:groupContext="shape" transform="translate(13.4759,-304.027)">
			<title>Foglio.11</title>
			<rect x="0" y="386.952" width="348.661" height="45.3543" class="st3"/>
		</g>
		<g id="shape12-7" v:mID="12" v:groupContext="shape" transform="translate(16.3106,-329.539)">
			<title>Foglio.12</title>
			<desc>STEP A (chunk)</desc>
			<v:textBlock v:margins="rect(4,4,4,4)" v:tabSpace="42.5197"/>
			<v:textRect cx="152.362" cy="422.385" width="304.73" height="19.8425"/>
			<rect x="0" y="412.464" width="304.724" height="19.8425" class="st4"/>
			<text x="123.69" y="424.78" class="st5" v:langID="1040"><v:paragraph v:horizAlign="1"/><v:tabList/>STEP A<tspan
						class="st6" v:langID="1049"> </tspan>(chunk)</text>		</g>
		<g id="shape1-11" v:mID="1" v:groupContext="shape" transform="translate(18.8901,-309.696)">
			<title>Foglio.1</title>
			<rect x="0" y="409.884" width="100.885" height="22.422" class="st2"/>
		</g>
		<g id="shape2-13" v:mID="2" v:groupContext="shape" transform="translate(21.8523,-312.531)">
			<title>Foglio.2</title>
			<desc>Input Retrieval A</desc>
			<v:textBlock v:margins="rect(4,4,4,4)" v:tabSpace="42.5197"/>
			<v:textRect cx="35.5606" cy="423.094" width="71.13" height="18.4252"/>
			<rect x="0" y="413.881" width="71.1213" height="18.4252" class="st4"/>
			<text x="5.99" y="425.49" class="st5" v:langID="1040"><v:paragraph v:horizAlign="1"/><v:tabList/>Input Retrieval A</text>		</g>
		<g id="shape3-16" v:mID="3" v:groupContext="shape" transform="translate(125.444,-309.696)">
			<title>Foglio.3</title>
			<rect x="0" y="409.884" width="124.724" height="22.422" class="st2"/>
		</g>
		<g id="shape6-18" v:mID="6" v:groupContext="shape" transform="translate(126.862,-312.531)">
			<title>Foglio.6</title>
			<desc>Business Processing A</desc>
			<v:textBlock v:margins="rect(4,4,4,4)" v:tabSpace="42.5197"/>
			<v:textRect cx="46.063" cy="423.094" width="92.13" height="18.4252"/>
			<rect x="0" y="413.881" width="92.126" height="18.4252" class="st4"/>
			<text x="5.15" y="425.49" class="st5" v:langID="1040"><v:paragraph v:horizAlign="1"/><v:tabList/>Business Processing A</text>		</g>
		<g id="shape7-21" v:mID="7" v:groupContext="shape" transform="translate(255.838,-309.696)">
			<title>Foglio.7</title>
			<rect x="0" y="409.884" width="100.885" height="22.422" class="st2"/>
		</g>
		<g id="shape8-23" v:mID="8" v:groupContext="shape" transform="translate(257.255,-312.531)">
			<title>Foglio.8</title>
			<desc>Output Writing A</desc>
			<v:textBlock v:margins="rect(4,4,4,4)" v:tabSpace="42.5197"/>
			<v:textRect cx="35.5606" cy="423.094" width="71.13" height="18.4252"/>
			<rect x="0" y="413.881" width="71.1213" height="18.4252" class="st4"/>
			<text x="6.22" y="425.49" class="st5" v:langID="1040"><v:paragraph v:horizAlign="1"/><v:tabList/>Output Writing A</text>		</g>
		<g id="shape10-26" v:mID="10" v:groupContext="shape" transform="translate(13.4759,-64.4501)">
			<title>Foglio.10</title>
			<rect x="0" y="386.952" width="348.661" height="45.3543" class="st3"/>
		</g>
		<g id="shape13-28" v:mID="13" v:groupContext="shape" transform="translate(16.3106,-89.9619)">
			<title>Foglio.13</title>
			<desc>STEP C (chunk)</desc>
			<v:textBlock v:margins="rect(4,4,4,4)" v:tabSpace="42.5197"/>
			<v:textRect cx="149.528" cy="422.385" width="299.06" height="19.8425"/>
			<rect x="0" y="412.464" width="299.055" height="19.8425" class="st4"/>
			<text x="120.63" y="424.78" class="st5" v:langID="1040"><v:paragraph v:horizAlign="1"/><v:tabList/>STEP C (chunk)</text>		</g>
		<g id="shape14-31" v:mID="14" v:groupContext="shape" transform="translate(18.8901,-70.1194)">
			<title>Foglio.14</title>
			<rect x="0" y="409.884" width="100.885" height="22.422" class="st2"/>
		</g>
		<g id="shape15-33" v:mID="15" v:groupContext="shape" transform="translate(21.8523,-72.954)">
			<title>Foglio.15</title>
			<desc>Input Retrieval C</desc>
			<v:textBlock v:margins="rect(4,4,4,4)" v:tabSpace="42.5197"/>
			<v:textRect cx="35.5606" cy="423.094" width="71.13" height="18.4252"/>
			<rect x="0" y="413.881" width="71.1213" height="18.4252" class="st4"/>
			<text x="5.77" y="425.49" class="st5" v:langID="1040"><v:paragraph v:horizAlign="1"/><v:tabList/>Input Retrieval C</text>		</g>
		<g id="shape16-36" v:mID="16" v:groupContext="shape" transform="translate(125.444,-70.1194)">
			<title>Foglio.16</title>
			<rect x="0" y="409.884" width="124.724" height="22.422" class="st2"/>
		</g>
		<g id="shape17-38" v:mID="17" v:groupContext="shape" transform="translate(126.862,-72.954)">
			<title>Foglio.17</title>
			<desc>Business Processing C</desc>
			<v:textBlock v:margins="rect(4,4,4,4)" v:tabSpace="42.5197"/>
			<v:textRect cx="46.063" cy="423.094" width="92.13" height="18.4252"/>
			<rect x="0" y="413.881" width="92.126" height="18.4252" class="st4"/>
			<text x="4.93" y="425.49" class="st5" v:langID="1040"><v:paragraph v:horizAlign="1"/><v:tabList/>Business Processing C</text>		</g>
		<g id="shape18-41" v:mID="18" v:groupContext="shape" transform="translate(255.838,-70.1194)">
			<title>Foglio.18</title>
			<rect x="0" y="409.884" width="100.885" height="22.422" class="st2"/>
		</g>
		<g id="shape19-43" v:mID="19" v:groupContext="shape" transform="translate(257.255,-72.954)">
			<title>Foglio.19</title>
			<desc>Output Writing C</desc>
			<v:textBlock v:margins="rect(4,4,4,4)" v:tabSpace="42.5197"/>
			<v:textRect cx="35.5606" cy="423.094" width="71.13" height="18.4252"/>
			<rect x="0" y="413.881" width="71.1213" height="18.4252" class="st4"/>
			<text x="6" y="425.49" class="st5" v:langID="1040"><v:paragraph v:horizAlign="1"/><v:tabList/>Output Writing C</text>		</g>
		<g id="shape21-46" v:mID="21" v:groupContext="shape" transform="translate(169.381,-370.769)">
			<title>Foglio.21</title>
			<ellipse cx="19.0701" cy="413.236" rx="19.0701" ry="19.0701" class="st7"/>
		</g>
		<g id="shape22-48" v:mID="22" v:groupContext="shape" transform="translate(169.381,-379.145)">
			<title>Foglio.22</title>
			<desc>Start</desc>
			<v:textBlock v:margins="rect(4,4,4,4)" v:tabSpace="42.5197"/>
			<v:textRect cx="17.0079" cy="421.676" width="34.02" height="21.2598"/>
			<rect x="0" y="411.046" width="34.0157" height="21.2598" class="st4"/>
			<text x="8.56" y="424.08" class="st5" v:langID="1040"><v:paragraph v:horizAlign="1"/><v:tabList/>Start</text>		</g>
		<g id="shape23-51" v:mID="23" v:groupContext="shape" transform="translate(150.956,-412.895)">
			<title>Foglio.23</title>
			<desc>Job</desc>
			<v:textBlock v:margins="rect(4,4,4,4)" v:tabSpace="42.5197"/>
			<v:textRect cx="38.3953" cy="427.788" width="76.8" height="9.03543"/>
			<rect x="0" y="423.271" width="76.7906" height="9.03543" class="st4"/>
			<text x="31.95" y="430.19" class="st5" v:langID="1040"><v:paragraph v:horizAlign="1"/><v:tabList/>Job</text>		</g>
		<g id="shape9-54" v:mID="9" v:groupContext="shape" transform="translate(13.4759,-238.83)">
			<title>Foglio.9</title>
			<rect x="0" y="386.952" width="348.661" height="45.3543" class="st3"/>
		</g>
		<g id="shape20-56" v:mID="20" v:groupContext="shape" transform="translate(16.3106,-264.342)">
			<title>Foglio.20</title>
			<desc>STEP B (task)</desc>
			<v:textBlock v:margins="rect(4,4,4,4)" v:tabSpace="42.5197"/>
			<v:textRect cx="149.528" cy="422.385" width="299.06" height="19.8425"/>
			<rect x="0" y="412.464" width="299.055" height="19.8425" class="st4"/>
			<text x="124.19" y="424.78" class="st5" v:langID="1040"><v:paragraph v:horizAlign="1"/><v:tabList/>STEP B (task)</text>		</g>
		<g id="shape26-59" v:mID="26" v:groupContext="shape" transform="translate(125.444,-244.5)">
			<title>Foglio.26</title>
			<rect x="0" y="409.884" width="124.724" height="22.422" class="st2"/>
		</g>
		<g id="shape27-61" v:mID="27" v:groupContext="shape" transform="translate(126.862,-247.334)">
			<title>Foglio.27</title>
			<desc>Task B</desc>
			<v:textBlock v:margins="rect(4,4,4,4)" v:tabSpace="42.5197"/>
			<v:textRect cx="55.9843" cy="423.094" width="111.97" height="18.4252"/>
			<rect x="0" y="413.881" width="111.969" height="18.4252" class="st4"/>
			<text x="43.54" y="425.49" class="st5" v:langID="1040"><v:paragraph v:horizAlign="1"/><v:tabList/>Task B</text>		</g>
		<g id="shape24-64" v:mID="24" v:groupContext="shape" transform="translate(459.477,-55.4055) rotate(45)">
			<title>Foglio.24</title>
			<rect x="0" y="382.308" width="50.2434" height="49.9984" class="st3"/>
		</g>
		<g id="shape25-66" v:mID="25" v:groupContext="shape" transform="translate(156.547,-172.025)">
			<title>Foglio.25</title>
			<desc>Decision D</desc>
			<v:textBlock v:margins="rect(4,4,4,4)" v:tabSpace="42.5197"/>
			<v:textRect cx="28.3465" cy="422.385" width="56.7" height="19.8425"/>
			<rect x="0" y="412.464" width="56.6929" height="19.8425" class="st4"/>
			<text x="9.01" y="424.78" class="st5" v:langID="1040"><v:paragraph v:horizAlign="1"/><v:tabList/>Decision D</text>		</g>
		<g id="shape28-69" v:mID="28" v:groupContext="shape" transform="translate(763.616,234.769) rotate(90)">
			<title>Foglio.28</title>
			<rect x="0" y="403.068" width="29.3814" height="29.2381" rx="8.50394" ry="8.50394" class="st7"/>
		</g>
		<g id="shape29-71" v:mID="29" v:groupContext="shape" transform="translate(326.704,-172.025)">
			<title>Foglio.29</title>
			<desc>End Job</desc>
			<v:textBlock v:margins="rect(4,4,4,4)" v:tabSpace="42.5197"/>
			<v:textRect cx="17.1749" cy="422.385" width="34.35" height="19.8425"/>
			<rect x="0" y="412.464" width="34.3498" height="19.8425" class="st4"/>
			<text x="10.06" y="419.98" class="st5" v:langID="1040"><v:paragraph v:horizAlign="1"/><v:tabList/>End <tspan x="10.73"
						dy="1.2em" class="st6">Job</tspan></text>		</g>
		<g id="shape30-75" v:mID="30" v:groupContext="shape" transform="translate(605.21,390.675) rotate(90)">
			<title>Foglio.30</title>
			<rect x="0" y="403.068" width="29.3814" height="29.2381" rx="8.50394" ry="8.50394" class="st7"/>
		</g>
		<g id="shape31-77" v:mID="31" v:groupContext="shape" transform="translate(167.964,-16.1194)">
			<title>Foglio.31</title>
			<desc>End Job</desc>
			<v:textBlock v:margins="rect(4,4,4,4)" v:tabSpace="42.5197"/>
			<v:textRect cx="17.1749" cy="422.385" width="34.35" height="19.8425"/>
			<rect x="0" y="412.464" width="34.3498" height="19.8425" class="st4"/>
			<text x="10.06" y="419.98" class="st5" v:langID="1040"><v:paragraph v:horizAlign="1"/><v:tabList/>End <tspan x="10.73"
						dy="1.2em" class="st6">Job</tspan></text>		</g>
		<g id="shape32-81" v:mID="32" v:groupContext="shape" transform="translate(755.042,253.067) rotate(90) scale(-1,1)">
			<title>Foglio.32</title>
			<path d="M5.67 432.31 L0 432.31 L2.83 422.67 L5.67 432.31 Z" class="st8"/>
		</g>
		<g id="shape33-83" v:mID="33" v:groupContext="shape" transform="translate(295.523,-182.074)">
			<title>Foglio.33</title>
			<path d="M0 432.31 L34.87 432.31" class="st9"/>
		</g>
		<g id="shape34-86" v:mID="34" v:groupContext="shape" transform="translate(227.237,-177.556)">
			<title>Foglio.34</title>
			<desc>condition 1</desc>
			<v:textBlock v:margins="rect(4,4,4,4)" v:tabSpace="42.5197"/>
			<v:textRect cx="31.3087" cy="427.788" width="62.62" height="9.03543"/>
			<rect x="0" y="423.271" width="62.6173" height="9.03543" class="st4"/>
			<text x="11.96" y="430.19" class="st5" v:langID="1040"><v:paragraph v:horizAlign="1"/><v:tabList/>condition 1</text>		</g>
		<g id="shape35-89" v:mID="35" v:groupContext="shape" transform="translate(235.21,682.539) rotate(180)">
			<title>Foglio.35</title>
			<path d="M0 432.31 L9.66 432.31" class="st9"/>
		</g>
		<g id="shape36-92" v:mID="36" v:groupContext="shape" transform="translate(186.389,745.312) scale(1,-1)">
			<title>Foglio.36</title>
			<path d="M5.67 432.31 L0 432.31 L2.83 422.67 L5.67 432.31 Z" class="st8"/>
		</g>
		<g id="shape37-94" v:mID="37" v:groupContext="shape" transform="translate(-243.082,294.297) rotate(-90)">
			<title>Foglio.37</title>
			<path d="M0 432.31 L8.5 432.31" class="st9"/>
		</g>
		<g id="shape38-97" v:mID="38" v:groupContext="shape" transform="translate(161.033,-126.596)">
			<title>Foglio.38</title>
			<desc>condition 2</desc>
			<v:textBlock v:margins="rect(4,4,4,4)" v:tabSpace="42.5197"/>
			<v:textRect cx="27.8433" cy="427.788" width="55.69" height="9.03543"/>
			<rect x="0" y="423.271" width="55.6866" height="9.03543" class="st4"/>
			<text x="8.5" y="430.19" class="st5" v:langID="1040"><v:paragraph v:horizAlign="1"/><v:tabList/>condition 2</text>		</g>
		<g id="shape39-100" v:mID="39" v:groupContext="shape" transform="translate(621.53,306.203) rotate(90)">
			<title>Foglio.39</title>
			<path d="M0 432.31 L9.66 432.31" class="st9"/>
		</g>
		<g id="shape40-103" v:mID="40" v:groupContext="shape" transform="translate(185.306,813.06) scale(1,-1)">
			<title>Foglio.40</title>
			<path d="M5.67 432.31 L0 432.31 L2.83 422.67 L5.67 432.31 Z" class="st8"/>
		</g>
		<g id="shape41-105" v:mID="41" v:groupContext="shape" transform="translate(620.447,367.856) rotate(90)">
			<title>Foglio.41</title>
			<path d="M0 432.31 L20.83 432.31" class="st9"/>
		</g>
		<g id="shape42-108" v:mID="42" v:groupContext="shape" transform="translate(186.389,638.871) scale(1,-1)">
			<title>Foglio.42</title>
			<path d="M5.67 432.31 L0 432.31 L2.83 422.67 L5.67 432.31 Z" class="st8"/>
		</g>
		<g id="shape43-110" v:mID="43" v:groupContext="shape" transform="translate(621.53,193.667) rotate(90)">
			<title>Foglio.43</title>
			<path d="M0 432.31 L20.83 432.31" class="st9"/>
		</g>
		<g id="shape44-113" v:mID="44" v:groupContext="shape" transform="translate(186.389,570.79) scale(1,-1)">
			<title>Foglio.44</title>
			<path d="M5.67 432.31 L0 432.31 L2.83 422.67 L5.67 432.31 Z" class="st8"/>
		</g>
		<g id="shape45-115" v:mID="45" v:groupContext="shape" transform="translate(621.53,128.279) rotate(90)">
			<title>Foglio.45</title>
			<path d="M0 432.31 L18.14 432.31" class="st9"/>
		</g>
		<g id="shape46-118" v:mID="46" v:groupContext="shape" transform="translate(186.389,505.593) scale(1,-1)">
			<title>Foglio.46</title>
			<path d="M5.67 432.31 L0 432.31 L2.83 422.67 L5.67 432.31 Z" class="st8"/>
		</g>
		<g id="shape47-120" v:mID="47" v:groupContext="shape" transform="translate(621.53,61.5217) rotate(90)">
			<title>Foglio.47</title>
			<path d="M0 432.31 L19.7 432.31" class="st9"/>
		</g>
	</g>
</svg>
