<?xml version="1.0" encoding="UTF-8" standalone="no"?>
<!DOCTYPE svg PUBLIC "-//W3C//DTD SVG 1.0//EN" "http://www.w3.org/TR/2001/REC-SVG-20010904/DTD/svg10.dtd">
<!-- Generato da Microsoft Visio 11.0, SVG Export, v1.0 jakartaeett_dt_010.svg Pagina 1 -->
<svg xmlns="http://www.w3.org/2000/svg" xmlns:v="http://schemas.microsoft.com/visio/2003/SVGExtensions/" width="4.70228in"
		height="2.42194in" viewBox="0 0 338.564 174.379" xml:space="preserve" color-interpolation-filters="sRGB" class="st8"
		xmlns:xlink="http://www.w3.org/1999/xlink">
	<v:documentProperties v:langID="1040" v:metric="true" v:viewMarkup="false">
		<v:userDefs>
			<v:ud v:nameU="MBSAAddinOutlineVisible" v:prompt="" v:val="VT0(1):26"/>
		</v:userDefs>
	</v:documentProperties>

	<style type="text/css">
	<![CDATA[
		.st1 {fill:#cadaa9;stroke:#000000;stroke-linecap:round;stroke-linejoin:round;stroke-width:0.72}
		.st2 {stroke:#000000;stroke-linecap:round;stroke-linejoin:round;stroke-width:0.72}
		.st3 {fill:#c8d6e6;stroke:#000000;stroke-linecap:round;stroke-linejoin:round;stroke-width:0.72}
		.st4 {fill:none;stroke:none;stroke-linecap:round;stroke-linejoin:round;stroke-width:0.72}
		.st5 {fill:#000000;font-family:Arial;font-size:0.666664em}
		.st6 {font-size:1em}
		.st7 {fill:#f2f2f2;stroke:#000000;stroke-linecap:round;stroke-linejoin:round;stroke-width:0.72}
		.st8 {fill:none;fill-rule:evenodd;font-size:12;overflow:visible;stroke-linecap:square;stroke-miterlimit:3}
	]]>
	</style>

	<g v:mID="0" v:index="1" v:groupContext="foregroundPage">
		<title>Pagina 1</title>
		<v:pageProperties v:drawingScale="0.0393701" v:pageScale="0.0393701" v:drawingUnits="24" v:shadowOffsetX="8.50394"
				v:shadowOffsetY="-8.50394"/>
		<g id="shape229-1" v:mID="229" v:groupContext="shape" transform="translate(7.80661,-99.6775)">
			<title>Foglio.229</title>
			<rect x="0" y="146.583" width="60.7465" height="27.7959" class="st1"/>
		</g>
		<g id="shape480-3" v:mID="480" v:groupContext="shape" transform="translate(4.72486,20.5625) rotate(-90) scale(-1,1)">
			<title>Foglio.480</title>
			<path d="M0 174.38 L13.04 174.38" class="st2"/>
		</g>
		<g id="shape483-6" v:mID="483" v:groupContext="shape" transform="translate(136.585,-153.817)">
			<title>Foglio.483</title>
			<rect x="0" y="154.537" width="85.0394" height="19.8425" class="st3"/>
		</g>
		<g id="shape484-8" v:mID="484" v:groupContext="shape" transform="translate(135.167,-153.817)">
			<title>Foglio.484</title>
			<desc>Assembly Root</desc>
			<v:textBlock v:margins="rect(4,4,4,4)" v:tabSpace="42.5197"/>
			<v:textRect cx="36.1417" cy="164.458" width="72.29" height="19.8425"/>
			<rect x="0" y="154.537" width="72.2835" height="19.8425" class="st4"/>
			<text x="9.24" y="166.86" class="st5" v:langID="1040"><v:paragraph v:horizAlign="1"/><v:tabList/>Assembly Root</text>		</g>
		<g id="shape1-11" v:mID="1" v:groupContext="shape" transform="translate(181.939,-140.78) scale(-1,1)">
			<title>Foglio.1</title>
			<path d="M0 174.38 L145.79 174.38" class="st2"/>
		</g>
		<g id="shape2-14" v:mID="2" v:groupContext="shape" transform="translate(315.167,-140.78) scale(-1,1)">
			<title>Foglio.2</title>
			<path d="M0 174.38 L133.23 174.38" class="st2"/>
		</g>
		<g id="shape3-17" v:mID="3" v:groupContext="shape" transform="translate(-138.226,33.5995) rotate(-90) scale(-1,1)">
			<title>Foglio.3</title>
			<path d="M0 174.38 L13.04 174.38" class="st2"/>
		</g>
		<g id="shape4-20" v:mID="4" v:groupContext="shape" transform="translate(7.80661,-108.181)">
			<title>Foglio.4</title>
			<desc>META-INF</desc>
			<v:textBlock v:margins="rect(4,4,4,4)" v:tabSpace="42.5197"/>
			<v:textRect cx="25.5118" cy="164.458" width="51.03" height="19.8425"/>
			<rect x="0" y="154.537" width="51.0236" height="19.8425" class="st4"/>
			<text x="6.63" y="166.86" class="st5" v:langID="1040"><v:paragraph v:horizAlign="1"/><v:tabList/>META-INF</text>		</g>
		<g id="shape6-23" v:mID="6" v:groupContext="shape" transform="translate(-82.9507,33.5995) rotate(-90) scale(-1,1)">
			<title>Foglio.6</title>
			<path d="M0 174.38 L13.04 174.38" class="st2"/>
		</g>
		<g id="shape8-26" v:mID="8" v:groupContext="shape" transform="translate(72.805,-99.6775)">
			<title>Foglio.8</title>
			<rect x="0" y="146.883" width="45.3543" height="27.4961" class="st3"/>
		</g>
		<g id="shape5-28" v:mID="5" v:groupContext="shape" transform="translate(73.9672,-103.929)">
			<title>Foglio.5</title>
			<desc>Web Module</desc>
			<v:textBlock v:margins="rect(4,4,4,4)" v:tabSpace="42.5197"/>
			<v:textRect cx="18.5528" cy="164.458" width="37.11" height="19.8425"/>
			<rect x="0" y="154.537" width="37.1055" height="19.8425" class="st4"/>
			<text x="10.33" y="162.06" class="st5" v:langID="1040"><v:paragraph v:horizAlign="1"/><v:tabList/>Web <tspan x="5.43"
						dy="1.2em" class="st6">Module</tspan></text>		</g>
		<g id="shape7-32" v:mID="7" v:groupContext="shape" transform="translate(-20.7869,33.5995) rotate(-90) scale(-1,1)">
			<title>Foglio.7</title>
			<path d="M0 174.38 L13.04 174.38" class="st2"/>
		</g>
		<g id="shape9-35" v:mID="9" v:groupContext="shape" transform="translate(122.411,-99.6775)">
			<title>Foglio.9</title>
			<rect x="0" y="146.883" width="76.5354" height="27.4961" class="st3"/>
		</g>
		<g id="shape10-37" v:mID="10" v:groupContext="shape" transform="translate(122.992,-103.929)">
			<title>Foglio.10</title>
			<desc>Application Client Module</desc>
			<v:textBlock v:margins="rect(4,4,4,4)" v:tabSpace="42.5197"/>
			<v:textRect cx="29.1827" cy="164.458" width="58.37" height="19.8425"/>
			<rect x="0" y="154.537" width="58.3654" height="19.8425" class="st4"/>
			<text x="9.61" y="162.06" class="st5" v:langID="1040"><v:paragraph v:horizAlign="1"/><v:tabList/>Application <tspan
						x="4.73" dy="1.2em" class="st6">Client Module</tspan></text>		</g>
		<g id="shape11-41" v:mID="11" v:groupContext="shape" transform="translate(203.199,-99.6775)">
			<title>Foglio.11</title>
			<rect x="0" y="146.883" width="85.3228" height="27.4961" class="st3"/>
		</g>
		<g id="shape12-43" v:mID="12" v:groupContext="shape" transform="translate(203.78,-103.929)">
			<title>Foglio.12</title>
			<desc>Resource Adapter Module</desc>
			<v:textBlock v:margins="rect(4,4,4,4)" v:tabSpace="42.5197"/>
			<v:textRect cx="33.0165" cy="164.458" width="66.04" height="19.8425"/>
			<rect x="0" y="154.537" width="66.0331" height="19.8425" class="st4"/>
			<text x="15.9" y="162.06" class="st5" v:langID="1040"><v:paragraph v:horizAlign="1"/><v:tabList/>Resource <tspan
						x="4.78" dy="1.2em" class="st6">Adapter Module</tspan></text>		</g>
		<g id="shape13-47" v:mID="13" v:groupContext="shape" transform="translate(61.4178,33.5995) rotate(-90) scale(-1,1)">
			<title>Foglio.13</title>
			<path d="M0 174.38 L13.04 174.38" class="st2"/>
		</g>
		<g id="shape14-50" v:mID="14" v:groupContext="shape" transform="translate(140.788,33.5995) rotate(-90) scale(-1,1)">
			<title>Foglio.14</title>
			<path d="M0 174.38 L13.04 174.38" class="st2"/>
		</g>
		<g id="shape15-53" v:mID="15" v:groupContext="shape" transform="translate(292.49,-99.6775)">
			<title>Foglio.15</title>
			<rect x="0" y="146.883" width="45.3543" height="27.4961" class="st3"/>
		</g>
		<g id="shape16-55" v:mID="16" v:groupContext="shape" transform="translate(293.652,-103.929)">
			<title>Foglio.16</title>
			<desc>EJB Module</desc>
			<v:textBlock v:margins="rect(4,4,4,4)" v:tabSpace="42.5197"/>
			<v:textRect cx="17.1354" cy="164.458" width="34.28" height="19.8425"/>
			<rect x="0" y="154.537" width="34.2709" height="19.8425" class="st4"/>
			<text x="9.8" y="162.06" class="st5" v:langID="1040"><v:paragraph v:horizAlign="1"/><v:tabList/>EJB <tspan x="4.02"
						dy="1.2em" class="st6">Module</tspan></text>		</g>
		<g id="shape17-59" v:mID="17" v:groupContext="shape" transform="translate(22.6154,-39.3241)">
			<title>Foglio.17</title>
			<path d="M30.21 161.62 L22.12 122.1 L0 134.75 L8.12 174.38 L30.21 161.62 Z" class="st7"/>
		</g>
		<g id="shape18-61" v:mID="18" v:groupContext="shape" transform="translate(24.4792,-38.4737)">
			<title>Foglio.18</title>
			<path d="M30.21 161.62 L22.12 122.1 L0 134.75 L8.12 174.38 L30.21 161.62 Z" class="st7"/>
		</g>
		<g id="shape19-63" v:mID="19" v:groupContext="shape" transform="translate(26.1799,-37.6819)">
			<title>Foglio.19</title>
			<path d="M30.21 161.62 L22.12 122.1 L0 134.75 L8.12 174.38 L30.21 161.62 Z" class="st7"/>
		</g>
		<g id="shape20-65" v:mID="20" v:groupContext="shape" transform="translate(29.0146,-36.8901)">
			<title>Foglio.20</title>
			<path d="M7.09 174.38 L0 139.75 L4.77 137.05 L3.74 132.1 L21.09 122.1 L29.18 161.62 L7.09 174.38 Z" class="st7"/>
		</g>
		<g id="shape21-67" v:mID="21" v:groupContext="shape" transform="translate(189.204,172.283) rotate(116.215)">
			<title>Foglio.21</title>
			<path d="M0 174.38 L8.48 174.38" class="st2"/>
		</g>
		<g id="shape22-70" v:mID="22" v:groupContext="shape" transform="translate(-138.226,74.4208) rotate(-90) scale(-1,1)">
			<title>Foglio.22</title>
			<path d="M0 174.38 L13.04 174.38" class="st2"/>
		</g>
		<g id="shape23-73" v:mID="23" v:groupContext="shape" transform="translate(0.72,-24.2688)">
			<title>Foglio.23</title>
			<desc>application.xml</desc>
			<v:textBlock v:margins="rect(4,4,4,4)" v:tabSpace="42.5197"/>
			<v:textRect cx="33.5622" cy="168.129" width="67.13" height="12.5008"/>
			<rect x="0" y="161.879" width="67.1244" height="12.5008" class="st4"/>
			<text x="7.11" y="170.53" class="st5" v:langID="1040"><v:paragraph v:horizAlign="1"/><v:tabList/>application.xml</text>		</g>
		<g id="shape24-76" v:mID="24" v:groupContext="shape" transform="translate(1.9389,-12.6751)">
			<title>Foglio.24</title>
			<desc>glassfish-application.xml</desc>
			<v:textBlock v:margins="rect(4,4,4,4)" v:tabSpace="42.5197"/>
			<v:textRect cx="48.8976" cy="168.129" width="97.8" height="12.5008"/>
			<rect x="0" y="161.879" width="97.7953" height="12.5008" class="st4"/>
			<text x="5.55" y="170.53" class="st5" v:langID="1040"><v:paragraph v:horizAlign="1"/><v:tabList/>glassfish-application.xml</text>		</g>
		<g id="shape25-79" v:mID="25" v:groupContext="shape" transform="translate(1.55622,-0.72)">
			<title>Foglio.25</title>
			<desc>(optional)</desc>
			<v:textBlock v:margins="rect(4,4,4,4)" v:tabSpace="42.5197"/>
			<v:textRect cx="22.3512" cy="168.129" width="44.71" height="12.5008"/>
			<rect x="0" y="161.879" width="44.7024" height="12.5008" class="st4"/>
			<text x="5.68" y="170.53" class="st5" v:langID="1040"><v:paragraph v:horizAlign="1"/><v:tabList/>(optional)</text>		</g>
	</g>
</svg>
