<?xml version="1.0" encoding="UTF-8" standalone="no"?>
<!DOCTYPE svg PUBLIC "-//W3C//DTD SVG 1.0//EN" "http://www.w3.org/TR/2001/REC-SVG-20010904/DTD/svg10.dtd">
<!-- Generato da Microsoft Visio 11.0, SVG Export, v1.0 jakartaeett_dt_050.svg Pagina 1 -->
<svg xmlns="http://www.w3.org/2000/svg" xmlns:v="http://schemas.microsoft.com/visio/2003/SVGExtensions/" width="5.75289in"
		height="2.50031in" viewBox="0 0 414.208 180.023" xml:space="preserve" color-interpolation-filters="sRGB" class="st12">
	<v:documentProperties v:langID="1040" v:metric="true" v:viewMarkup="false">
		<v:userDefs>
			<v:ud v:nameU="MBSAAvail" v:prompt="" v:val="VT0(2):26"/>
			<v:ud v:nameU="MBSAAddinEnabled" v:prompt="" v:val="VT0(2):26"/>
			<v:ud v:nameU="MBSAAddinOutlineVisible" v:prompt="" v:val="VT0(1):26"/>
		</v:userDefs>
	</v:documentProperties>

	<style type="text/css">
	<![CDATA[
		.st1 {fill:#ffffff;stroke:none;stroke-linecap:round;stroke-linejoin:round;stroke-width:0.72}
		.st2 {fill:#c8d6e6;stroke:#000000;stroke-linecap:round;stroke-linejoin:round;stroke-width:0.72}
		.st3 {fill:none;stroke:none;stroke-linecap:round;stroke-linejoin:round;stroke-width:0.72}
		.st4 {fill:#000000;font-family:Arial;font-size:0.666664em}
		.st5 {fill:#660033;stroke:#660033;stroke-linecap:round;stroke-linejoin:round;stroke-width:0.72}
		.st6 {stroke:#ffffff;stroke-linecap:round;stroke-linejoin:round;stroke-width:2.16}
		.st7 {fill:#000000;font-family:Arial;font-size:0.666664em;font-weight:bold}
		.st8 {font-size:1em}
		.st9 {stroke:#000000;stroke-linecap:round;stroke-linejoin:round;stroke-width:0.72}
		.st10 {fill:#000000;stroke:#000000;stroke-linecap:round;stroke-linejoin:round;stroke-width:0.72}
		.st11 {stroke:#000000;stroke-linecap:round;stroke-linejoin:round;stroke-width:1.2}
		.st12 {fill:none;fill-rule:evenodd;font-size:12;overflow:visible;stroke-linecap:square;stroke-miterlimit:3}
	]]>
	</style>

	<g v:mID="0" v:index="1" v:groupContext="foregroundPage">
		<title>Pagina 1</title>
		<v:pageProperties v:drawingScale="0.0393701" v:pageScale="0.0393701" v:drawingUnits="24" v:shadowOffsetX="8.50394"
				v:shadowOffsetY="-8.50394"/>
		<g id="shape36-1" v:mID="36" v:groupContext="shape" transform="translate(45.3501,-0.72)">
			<title>Foglio.36</title>
			<rect x="0" y="1.44" width="317.48" height="178.583" class="st1"/>
		</g>
		<g id="shape48-3" v:mID="48" v:groupContext="shape" transform="translate(82.2005,-6.38929)">
			<title>Foglio.48</title>
			<rect x="0" y="11.837" width="110.551" height="168.186" class="st2"/>
		</g>
		<g id="shape24-5" v:mID="24" v:groupContext="shape" transform="translate(100.98,-157.044)">
			<title>Foglio.24</title>
			<desc>Bean-1</desc>
			<v:textBlock v:margins="rect(4,4,4,4)" v:tabSpace="42.5197"/>
			<v:textRect cx="27.6378" cy="171.937" width="55.28" height="16.1717"/>
			<rect x="0" y="163.851" width="55.2756" height="16.1717" class="st3"/>
			<text x="14.74" y="174.34" class="st4" v:langID="1040"><v:paragraph v:horizAlign="1"/><v:tabList/>Bean-1</text>		</g>
		<g id="shape2-8" v:mID="2" v:groupContext="shape" transform="translate(24.3854,-107.954) rotate(-30)">
			<title>Foglio.2</title>
			<ellipse cx="12.7542" cy="172.127" rx="12.7542" ry="7.89545" class="st5"/>
		</g>
		<g id="shape3-10" v:mID="3" v:groupContext="shape" transform="translate(23.251,-113.815) rotate(-29.3825)">
			<title>Foglio.3</title>
			<path d="M0 177.17 C1.36 178.07 2.83 179.28 4.97 179.79 C5.69 179.96 6.49 180.06 7.22 180.01 C8.82 179.91 10.08 179.12
						 11.27 178.39 C12.91 177.38 14.42 176.46 16.59 176.02 C18 175.74 19.7 175.67 21.08 175.85 C22.88 176.09 24.16
						 176.77 25.46 177.17" class="st6"/>
		</g>
		<g id="shape4-13" v:mID="4" v:groupContext="shape" transform="translate(85.3895,-48.909)">
			<title>Foglio.4</title>
			<desc>– – – method-A() { – – – bean-2.method-B()</desc>
			<v:textBlock v:margins="rect(4,4,4,4)" v:tabSpace="42.5197"/>
			<v:textRect cx="50.8465" cy="141.755" width="101.7" height="76.5354"/>
			<rect x="0" y="103.487" width="101.693" height="76.5354" class="st3"/>
			<text x="4" y="110.56" class="st7" v:langID="1040"><v:paragraph/><v:tabList/>–<v:newlineChar/><tspan x="4" dy="1.2em"
						class="st8">–<v:newlineChar/></tspan><tspan x="4" dy="1.2em" class="st8">–<v:newlineChar/></tspan><tspan
						x="4" dy="1.2em" class="st8">method</tspan>-A() {<v:newlineChar/><tspan x="4" dy="1.2em" class="st8">    </tspan>–<v:newlineChar/><tspan
						x="4" dy="1.2em" class="st8">    </tspan>–<v:newlineChar/><tspan x="4" dy="1.2em" class="st8">    </tspan>–<v:newlineChar/><tspan
						x="4" dy="1.2em" class="st8">    </tspan>bean-2.method-B()</text>		</g>
		<g id="shape6-23" v:mID="6" v:groupContext="shape" transform="translate(226.059,-6.38929)">
			<title>Foglio.6</title>
			<rect x="0" y="11.837" width="105.591" height="168.186" class="st2"/>
		</g>
		<g id="shape7-25" v:mID="7" v:groupContext="shape" transform="translate(244.838,-157.044)">
			<title>Foglio.7</title>
			<desc>Bean-1</desc>
			<v:textBlock v:margins="rect(4,4,4,4)" v:tabSpace="42.5197"/>
			<v:textRect cx="27.6378" cy="171.937" width="55.28" height="16.1717"/>
			<rect x="0" y="163.851" width="55.2756" height="16.1717" class="st3"/>
			<text x="14.74" y="174.34" class="st4" v:langID="1040"><v:paragraph v:horizAlign="1"/><v:tabList/>Bean-1</text>		</g>
		<g id="shape9-28" v:mID="9" v:groupContext="shape" transform="translate(168.244,-107.954) rotate(-30)">
			<title>Foglio.9</title>
			<ellipse cx="12.7542" cy="172.127" rx="12.7542" ry="7.89545" class="st5"/>
		</g>
		<g id="shape10-30" v:mID="10" v:groupContext="shape" transform="translate(167.109,-113.815) rotate(-29.3825)">
			<title>Foglio.10</title>
			<path d="M0 177.17 C1.36 178.07 2.83 179.28 4.97 179.79 C5.69 179.96 6.49 180.06 7.22 180.01 C8.82 179.91 10.08 179.12
						 11.27 178.39 C12.91 177.38 14.42 176.46 16.59 176.02 C18 175.74 19.7 175.67 21.08 175.85 C22.88 176.09 24.16
						 176.77 25.46 177.17" class="st6"/>
		</g>
		<g id="shape11-33" v:mID="11" v:groupContext="shape" transform="translate(229.248,-48.909)">
			<title>Foglio.11</title>
			<desc>– – – method-B() { – – – }</desc>
			<v:textBlock v:margins="rect(4,4,4,4)" v:tabSpace="42.5197"/>
			<v:textRect cx="45.1772" cy="141.755" width="90.36" height="76.5354"/>
			<rect x="0" y="103.487" width="90.3543" height="76.5354" class="st3"/>
			<text x="4" y="110.56" class="st7" v:langID="1040"><v:paragraph/><v:tabList/>–<v:newlineChar/><tspan x="4" dy="1.2em"
						class="st8">–<v:newlineChar/></tspan><tspan x="4" dy="1.2em" class="st8">–<v:newlineChar/></tspan><tspan
						x="4" dy="1.2em" class="st8">method</tspan>-B() {<v:newlineChar/><tspan x="4" dy="1.2em" class="st8">    </tspan>–<v:newlineChar/><tspan
						x="4" dy="1.2em" class="st8">    </tspan>–<v:newlineChar/><tspan x="4" dy="1.2em" class="st8">    </tspan>–<v:newlineChar/><tspan
						x="4" dy="1.2em" class="st8">}</tspan></text>		</g>
		<g id="shape1-43" v:mID="1" v:groupContext="shape" transform="translate(201.964,-81.5074)">
			<title>Foglio.1</title>
			<path d="M0 180.02 L24.09 180.02" class="st9"/>
		</g>
		<g id="shape5-46" v:mID="5" v:groupContext="shape" transform="translate(396.444,95.6806) rotate(90)">
			<title>Foglio.5</title>
			<path d="M5.67 180.02 L0 180.02 L2.83 170.38 L5.67 180.02 Z" class="st10"/>
		</g>
		<g id="shape8-48" v:mID="8" v:groupContext="shape" transform="translate(21.9416,159.46) rotate(-90)">
			<title>Foglio.8</title>
			<path d="M0 180.02 L60.94 180.02" class="st9"/>
		</g>
		<g id="shape12-51" v:mID="12" v:groupContext="shape" transform="translate(192.043,-20.5625)">
			<title>Foglio.12</title>
			<path d="M0 180.02 L9.92 180.02" class="st9"/>
		</g>
		<g id="shape13-54" v:mID="13" v:groupContext="shape" transform="translate(-94.3364,166.085) rotate(-90.2288)">
			<title>Parentesi graffa.99</title>
			<v:userDefs>
				<v:ud v:nameU="visVersion" v:val="VT0(11):26"/>
			</v:userDefs>
			<path d="M0 180.02 A8.22204 8.22204 0 0 1 7.26 172.76 L30.36 172.76 A8.22204 8.22204 -180 0 0 37.63 165.5 A8.22204 8.22204
						 -180 0 0 44.89 172.76 L66.67 172.76 A8.22204 8.22204 0 0 1 73.94 180.02" class="st11"/>
		</g>
		<g id="shape14-57" v:mID="14" v:groupContext="shape" transform="translate(43.6777,-42.7594)">
			<title>Foglio.14</title>
			<desc>TX1</desc>
			<v:textBlock v:margins="rect(4,4,4,4)" v:tabSpace="42.5197"/>
			<v:textRect cx="12.1748" cy="171.038" width="24.35" height="17.9685"/>
			<rect x="0" y="162.054" width="24.3496" height="17.9685" class="st3"/>
			<text x="4.84" y="173.44" class="st4" v:langID="1040"><v:paragraph v:horizAlign="1"/><v:tabList/>TX1</text>		</g>
		<g id="shape15-60" v:mID="15" v:groupContext="shape" transform="translate(508.837,165.129) rotate(90) scale(-1,1)">
			<title>Parentesi graffa.15</title>
			<v:userDefs>
				<v:ud v:nameU="visVersion" v:val="VT0(11):26"/>
			</v:userDefs>
			<path d="M0 180.02 A8.22204 8.22204 0 0 1 7.26 172.76 L31.32 172.76 A8.22204 8.22204 -180 0 0 38.59 165.5 A8.22204 8.22204
						 -180 0 0 45.85 172.76 L68.56 172.76 A8.22204 8.22204 0 0 1 75.83 180.02" class="st11"/>
		</g>
		<g id="shape16-63" v:mID="16" v:groupContext="shape" transform="translate(364.503,-43.2397) scale(-1,1)">
			<title>Foglio.16</title>
			<desc>TX?</desc>
			<v:textBlock v:margins="rect(4,4,4,4)" v:tabSpace="42.5197"/>
			<v:textRect cx="12.1748" cy="171.263" width="24.35" height="17.5193"/>
			<rect x="0" y="162.503" width="24.3496" height="17.5193" class="st3"/>
			<text x="-19.51" y="173.66" transform="scale(-1,1)" class="st4" v:langID="1040"><v:paragraph v:horizAlign="1"/><v:tabList/>TX?</text>		</g>
		<g id="shape17-66" v:mID="17" v:groupContext="shape" transform="translate(85.6848,-9.22394)">
			<title>Foglio.17</title>
			<desc>}</desc>
			<v:textBlock v:margins="rect(4,4,4,4)" v:tabSpace="42.5197"/>
			<v:textRect cx="11.0138" cy="171.283" width="22.03" height="17.4803"/>
			<rect x="0" y="162.542" width="22.0276" height="17.4803" class="st3"/>
			<text x="4" y="173.68" class="st7" v:langID="1040"><v:paragraph/><v:tabList/>}</text>		</g>
	</g>
</svg>
