<?xml version="1.0" encoding="UTF-8" standalone="no"?>
<!DOCTYPE svg PUBLIC "-//W3C//DTD SVG 1.0//EN" "http://www.w3.org/TR/2001/REC-SVG-20010904/DTD/svg10.dtd">
<!-- Generato da Microsoft Visio 11.0, SVG Export, v1.0 jakartaeett_dt_031.svg Pagina 1 -->
<svg xmlns="http://www.w3.org/2000/svg" xmlns:v="http://schemas.microsoft.com/visio/2003/SVGExtensions/" width="4.70681in"
		height="1.68142in" viewBox="0 0 338.89 121.062" xml:space="preserve" color-interpolation-filters="sRGB" class="st6"
		xmlns:xlink="http://www.w3.org/1999/xlink">
	<v:documentProperties v:langID="1040" v:metric="true" v:viewMarkup="false">
		<v:userDefs>
			<v:ud v:nameU="MBSAAvail" v:prompt="" v:val="VT0(2):26"/>
			<v:ud v:nameU="MBSAAddinEnabled" v:prompt="" v:val="VT0(2):26"/>
			<v:ud v:nameU="MBSAAddinOutlineVisible" v:prompt="" v:val="VT0(1):26"/>
		</v:userDefs>
	</v:documentProperties>

	<style type="text/css">
	<![CDATA[
		.st1 {fill:#ffffff;stroke:none;stroke-linecap:round;stroke-linejoin:round;stroke-width:0.72}
		.st2 {fill:none;stroke:none;stroke-linecap:round;stroke-linejoin:round;stroke-width:0.72}
		.st3 {fill:#000000;font-family:Arial;font-size:0.666664em}
		.st4 {fill:#000000;stroke:#000000;stroke-linecap:round;stroke-linejoin:round;stroke-width:0.72}
		.st5 {stroke:#000000;stroke-linecap:round;stroke-linejoin:round;stroke-width:0.72}
		.st6 {fill:none;fill-rule:evenodd;font-size:12;overflow:visible;stroke-linecap:square;stroke-miterlimit:3}
	]]>
	</style>

	<g v:mID="0" v:index="1" v:groupContext="foregroundPage">
		<title>Pagina 1</title>
		<v:pageProperties v:drawingScale="0.0393701" v:pageScale="0.0393701" v:drawingUnits="24" v:shadowOffsetX="8.50394"
				v:shadowOffsetY="-8.50394"/>
		<g id="shape36-1" v:mID="36" v:groupContext="shape" transform="translate(3.55465,-0.72)">
			<title>Foglio.36</title>
			<rect x="0" y="4.84157" width="331.654" height="116.22" class="st1"/>
		</g>
		<g id="shape2-3" v:mID="2" v:groupContext="shape" transform="translate(4.97197,-97.098)">
			<title>Foglio.2</title>
			<desc>M1</desc>
			<v:textBlock v:margins="rect(4,4,4,4)" v:tabSpace="42.5197"/>
			<v:textRect cx="15.5906" cy="109.723" width="31.19" height="22.6772"/>
			<rect x="0" y="98.3849" width="31.1811" height="22.6772" class="st2"/>
			<text x="10.03" y="112.12" class="st3" v:langID="1040"><v:paragraph v:horizAlign="1"/><v:tabList/>M1</text>		</g>
		<g id="shape6-6" v:mID="6" v:groupContext="shape" transform="translate(29.0665,150.129) scale(1,-1)">
			<title>Foglio.6</title>
			<path d="M5.67 121.06 L0 121.06 L2.83 111.42 L5.67 121.06 Z" class="st4"/>
		</g>
		<g id="shape7-8" v:mID="7" v:groupContext="shape" transform="translate(152.963,38.7043) rotate(90) scale(-1,1)">
			<title>Foglio.7</title>
			<path d="M0 121.06 L31.75 121.06" class="st5"/>
		</g>
		<g id="shape13-11" v:mID="13" v:groupContext="shape" transform="translate(20.5625,-57.4129)">
			<title>Foglio.13</title>
			<path d="M0 121.06 L76.54 121.06" class="st5"/>
		</g>
		<g id="shape1-14" v:mID="1" v:groupContext="shape" transform="translate(61.6649,-97.098)">
			<title>Foglio.1</title>
			<desc>M2</desc>
			<v:textBlock v:margins="rect(4,4,4,4)" v:tabSpace="42.5197"/>
			<v:textRect cx="15.5906" cy="109.723" width="31.19" height="22.6772"/>
			<rect x="0" y="98.3849" width="31.1811" height="22.6772" class="st2"/>
			<text x="10.03" y="112.12" class="st3" v:langID="1040"><v:paragraph v:horizAlign="1"/><v:tabList/>M2</text>		</g>
		<g id="shape3-17" v:mID="3" v:groupContext="shape" transform="translate(85.7594,150.129) scale(1,-1)">
			<title>Foglio.3</title>
			<path d="M5.67 121.06 L0 121.06 L2.83 111.42 L5.67 121.06 Z" class="st4"/>
		</g>
		<g id="shape4-19" v:mID="4" v:groupContext="shape" transform="translate(209.656,38.7043) rotate(90) scale(-1,1)">
			<title>Foglio.4</title>
			<path d="M0 121.06 L31.75 121.06" class="st5"/>
		</g>
		<g id="shape5-22" v:mID="5" v:groupContext="shape" transform="translate(20.5625,-43.2397)">
			<title>Foglio.5</title>
			<path d="M0 121.06 L76.54 121.06" class="st5"/>
		</g>
		<g id="shape8-25" v:mID="8" v:groupContext="shape" transform="translate(141.625,103.334) rotate(90) scale(-1,1)">
			<title>Foglio.8</title>
			<path d="M0 121.06 L48.19 121.06" class="st5"/>
		</g>
		<g id="shape9-28" v:mID="9" v:groupContext="shape" transform="translate(218.16,103.334) rotate(90) scale(-1,1)">
			<title>Foglio.9</title>
			<path d="M0 121.06 L48.19 121.06" class="st5"/>
		</g>
		<g id="shape10-31" v:mID="10" v:groupContext="shape" transform="translate(17.7279,-58.0578)">
			<title>Foglio.10</title>
			<desc>Subscription</desc>
			<v:textBlock v:margins="rect(4,4,4,4)" v:tabSpace="42.5197"/>
			<v:textRect cx="34.0157" cy="114.103" width="68.04" height="13.9181"/>
			<rect x="0" y="107.144" width="68.0315" height="13.9181" class="st2"/>
			<text x="12" y="116.5" class="st3" v:langID="1040"><v:paragraph v:horizAlign="1"/><v:tabList/>Subscription</text>		</g>
		<g id="shape11-34" v:mID="11" v:groupContext="shape" transform="translate(17.7279,-26.8767)">
			<title>Foglio.11</title>
			<desc>Consumer</desc>
			<v:textBlock v:margins="rect(4,4,4,4)" v:tabSpace="42.5197"/>
			<v:textRect cx="34.0157" cy="114.103" width="68.04" height="13.9181"/>
			<rect x="0" y="107.144" width="68.0315" height="13.9181" class="st2"/>
			<text x="15.56" y="116.5" class="st3" v:langID="1040"><v:paragraph v:horizAlign="1"/><v:tabList/>Consumer</text>		</g>
		<g id="shape12-37" v:mID="12" v:groupContext="shape" transform="translate(0.72,-2.26488)">
			<title>Foglio.12</title>
			<desc>create</desc>
			<v:textBlock v:margins="rect(4,4,4,4)" v:tabSpace="42.5197"/>
			<v:textRect cx="17.1354" cy="114.103" width="34.28" height="13.9181"/>
			<rect x="0" y="107.144" width="34.2709" height="13.9181" class="st2"/>
			<text x="6.02" y="116.5" class="st3" v:langID="1040"><v:paragraph v:horizAlign="1"/><v:tabList/>create</text>		</g>
		<g id="shape14-40" v:mID="14" v:groupContext="shape" transform="translate(79.9625,-2.26488)">
			<title>Foglio.14</title>
			<desc>close</desc>
			<v:textBlock v:margins="rect(4,4,4,4)" v:tabSpace="42.5197"/>
			<v:textRect cx="17.1354" cy="114.103" width="34.28" height="13.9181"/>
			<rect x="0" y="107.144" width="34.2709" height="13.9181" class="st2"/>
			<text x="7.8" y="116.5" class="st3" v:langID="1040"><v:paragraph v:horizAlign="1"/><v:tabList/>close</text>		</g>
		<g id="shape15-43" v:mID="15" v:groupContext="shape" transform="translate(118.358,-97.6649)">
			<title>Foglio.15</title>
			<desc>M3</desc>
			<v:textBlock v:margins="rect(4,4,4,4)" v:tabSpace="42.5197"/>
			<v:textRect cx="15.5906" cy="109.723" width="31.19" height="22.6772"/>
			<rect x="0" y="98.3849" width="31.1811" height="22.6772" class="st2"/>
			<text x="10.03" y="112.12" class="st3" v:langID="1040"><v:paragraph v:horizAlign="1"/><v:tabList/>M3</text>		</g>
		<g id="shape16-46" v:mID="16" v:groupContext="shape" transform="translate(142.452,149.562) scale(1,-1)">
			<title>Foglio.16</title>
			<path d="M5.67 121.06 L0 121.06 L2.83 111.42 L5.67 121.06 Z" class="st4"/>
		</g>
		<g id="shape17-48" v:mID="17" v:groupContext="shape" transform="translate(266.349,38.1373) rotate(90) scale(-1,1)">
			<title>Foglio.17</title>
			<path d="M0 121.06 L31.75 121.06" class="st5"/>
		</g>
		<g id="shape18-51" v:mID="18" v:groupContext="shape" transform="translate(175.051,-97.6649)">
			<title>Foglio.18</title>
			<desc>M4</desc>
			<v:textBlock v:margins="rect(4,4,4,4)" v:tabSpace="42.5197"/>
			<v:textRect cx="15.5906" cy="109.723" width="31.19" height="22.6772"/>
			<rect x="0" y="98.3849" width="31.1811" height="22.6772" class="st2"/>
			<text x="10.03" y="112.12" class="st3" v:langID="1040"><v:paragraph v:horizAlign="1"/><v:tabList/>M4</text>		</g>
		<g id="shape19-54" v:mID="19" v:groupContext="shape" transform="translate(199.145,149.562) scale(1,-1)">
			<title>Foglio.19</title>
			<path d="M5.67 121.06 L0 121.06 L2.83 111.42 L5.67 121.06 Z" class="st4"/>
		</g>
		<g id="shape20-56" v:mID="20" v:groupContext="shape" transform="translate(323.042,38.1373) rotate(90) scale(-1,1)">
			<title>Foglio.20</title>
			<path d="M0 121.06 L31.75 121.06" class="st5"/>
		</g>
		<g id="shape21-59" v:mID="21" v:groupContext="shape" transform="translate(231.744,-97.098)">
			<title>Foglio.21</title>
			<desc>M5</desc>
			<v:textBlock v:margins="rect(4,4,4,4)" v:tabSpace="42.5197"/>
			<v:textRect cx="15.5906" cy="109.723" width="31.19" height="22.6772"/>
			<rect x="0" y="98.3849" width="31.1811" height="22.6772" class="st2"/>
			<text x="10.03" y="112.12" class="st3" v:langID="1040"><v:paragraph v:horizAlign="1"/><v:tabList/>M5</text>		</g>
		<g id="shape22-62" v:mID="22" v:groupContext="shape" transform="translate(255.838,150.129) scale(1,-1)">
			<title>Foglio.22</title>
			<path d="M5.67 121.06 L0 121.06 L2.83 111.42 L5.67 121.06 Z" class="st4"/>
		</g>
		<g id="shape23-64" v:mID="23" v:groupContext="shape" transform="translate(379.735,38.7043) rotate(90) scale(-1,1)">
			<title>Foglio.23</title>
			<path d="M0 121.06 L31.75 121.06" class="st5"/>
		</g>
		<g id="shape24-67" v:mID="24" v:groupContext="shape" transform="translate(288.437,-97.098)">
			<title>Foglio.24</title>
			<desc>M6</desc>
			<v:textBlock v:margins="rect(4,4,4,4)" v:tabSpace="42.5197"/>
			<v:textRect cx="15.5906" cy="109.723" width="31.19" height="22.6772"/>
			<rect x="0" y="98.3849" width="31.1811" height="22.6772" class="st2"/>
			<text x="10.03" y="112.12" class="st3" v:langID="1040"><v:paragraph v:horizAlign="1"/><v:tabList/>M6</text>		</g>
		<g id="shape25-70" v:mID="25" v:groupContext="shape" transform="translate(312.531,150.129) scale(1,-1)">
			<title>Foglio.25</title>
			<path d="M5.67 121.06 L0 121.06 L2.83 111.42 L5.67 121.06 Z" class="st4"/>
		</g>
		<g id="shape26-72" v:mID="26" v:groupContext="shape" transform="translate(436.428,38.7043) rotate(90) scale(-1,1)">
			<title>Foglio.26</title>
			<path d="M0 121.06 L31.75 121.06" class="st5"/>
		</g>
		<g id="shape27-75" v:mID="27" v:groupContext="shape" transform="translate(244.5,-56.768)">
			<title>Foglio.27</title>
			<path d="M0 121.06 L76.54 121.06" class="st5"/>
		</g>
		<g id="shape28-78" v:mID="28" v:groupContext="shape" transform="translate(244.5,-42.5948)">
			<title>Foglio.28</title>
			<path d="M0 121.06 L76.54 121.06" class="st5"/>
		</g>
		<g id="shape29-81" v:mID="29" v:groupContext="shape" transform="translate(365.562,103.979) rotate(90) scale(-1,1)">
			<title>Foglio.29</title>
			<path d="M0 121.06 L48.19 121.06" class="st5"/>
		</g>
		<g id="shape30-84" v:mID="30" v:groupContext="shape" transform="translate(442.097,103.979) rotate(90) scale(-1,1)">
			<title>Foglio.30</title>
			<path d="M0 121.06 L48.19 121.06" class="st5"/>
		</g>
		<g id="shape31-87" v:mID="31" v:groupContext="shape" transform="translate(241.665,-57.4129)">
			<title>Foglio.31</title>
			<desc>Subscription</desc>
			<v:textBlock v:margins="rect(4,4,4,4)" v:tabSpace="42.5197"/>
			<v:textRect cx="34.0157" cy="114.103" width="68.04" height="13.9181"/>
			<rect x="0" y="107.144" width="68.0315" height="13.9181" class="st2"/>
			<text x="12" y="116.5" class="st3" v:langID="1040"><v:paragraph v:horizAlign="1"/><v:tabList/>Subscription</text>		</g>
		<g id="shape32-90" v:mID="32" v:groupContext="shape" transform="translate(241.665,-26.2318)">
			<title>Foglio.32</title>
			<desc>Consumer</desc>
			<v:textBlock v:margins="rect(4,4,4,4)" v:tabSpace="42.5197"/>
			<v:textRect cx="34.0157" cy="114.103" width="68.04" height="13.9181"/>
			<rect x="0" y="107.144" width="68.0315" height="13.9181" class="st2"/>
			<text x="15.56" y="116.5" class="st3" v:langID="1040"><v:paragraph v:horizAlign="1"/><v:tabList/>Consumer</text>		</g>
		<g id="shape33-93" v:mID="33" v:groupContext="shape" transform="translate(224.657,-1.62)">
			<title>Foglio.33</title>
			<desc>create</desc>
			<v:textBlock v:margins="rect(4,4,4,4)" v:tabSpace="42.5197"/>
			<v:textRect cx="17.1354" cy="114.103" width="34.28" height="13.9181"/>
			<rect x="0" y="107.144" width="34.2709" height="13.9181" class="st2"/>
			<text x="6.02" y="116.5" class="st3" v:langID="1040"><v:paragraph v:horizAlign="1"/><v:tabList/>create</text>		</g>
		<g id="shape34-96" v:mID="34" v:groupContext="shape" transform="translate(303.9,-1.62)">
			<title>Foglio.34</title>
			<desc>close</desc>
			<v:textBlock v:margins="rect(4,4,4,4)" v:tabSpace="42.5197"/>
			<v:textRect cx="17.1354" cy="114.103" width="34.28" height="13.9181"/>
			<rect x="0" y="107.144" width="34.2709" height="13.9181" class="st2"/>
			<text x="7.8" y="116.5" class="st3" v:langID="1040"><v:paragraph v:horizAlign="1"/><v:tabList/>close</text>		</g>
	</g>
</svg>
