<?xml version="1.0" encoding="UTF-8" standalone="no"?>
<!DOCTYPE svg PUBLIC "-//W3C//DTD SVG 1.0//EN" "http://www.w3.org/TR/2001/REC-SVG-20010904/DTD/svg10.dtd">
<!-- Generato da Microsoft Visio 11.0, SVG Export, v1.0 jakartaeett_dt_016.svg Pagina 1 -->
<svg xmlns="http://www.w3.org/2000/svg" xmlns:v="http://schemas.microsoft.com/visio/2003/SVGExtensions/" width="5.53181in"
		height="6.90976in" viewBox="0 0 398.29 497.503" xml:space="preserve" color-interpolation-filters="sRGB" class="st9"
		xmlns:xlink="http://www.w3.org/1999/xlink">
	<v:documentProperties v:langID="1040" v:metric="true" v:viewMarkup="false">
		<v:userDefs>
			<v:ud v:nameU="MBSAAddinOutlineVisible" v:prompt="" v:val="VT0(1):26"/>
		</v:userDefs>
	</v:documentProperties>

	<style type="text/css">
	<![CDATA[
		.st1 {fill:#ffffff;stroke:none;stroke-linecap:round;stroke-linejoin:round;stroke-width:0.72}
		.st2 {fill:#c8d6e6;stroke:#000000;stroke-linecap:round;stroke-linejoin:round;stroke-width:0.72}
		.st3 {fill:none;stroke:none;stroke-linecap:round;stroke-linejoin:round;stroke-width:0.72}
		.st4 {fill:#000000;font-family:Arial;font-size:0.666664em}
		.st5 {fill:#f2f2f2;stroke:#000000;stroke-linecap:round;stroke-linejoin:round;stroke-width:0.72}
		.st6 {stroke:#000000;stroke-linecap:round;stroke-linejoin:round;stroke-width:0.72}
		.st7 {fill:#000000;stroke:#000000;stroke-linecap:round;stroke-linejoin:round;stroke-width:0.72}
		.st8 {font-size:1em}
		.st9 {fill:none;fill-rule:evenodd;font-size:12;overflow:visible;stroke-linecap:square;stroke-miterlimit:3}
	]]>
	</style>

	<g v:mID="0" v:index="1" v:groupContext="foregroundPage">
		<title>Pagina 1</title>
		<v:pageProperties v:drawingScale="0.0393701" v:pageScale="0.0393701" v:drawingUnits="24" v:shadowOffsetX="8.50394"
				v:shadowOffsetY="-8.50394"/>
		<g id="shape35-1" v:mID="35" v:groupContext="shape" transform="translate(0.72,-0.72)">
			<title>Foglio.35</title>
			<rect x="0" y="1.44" width="396.85" height="496.063" class="st1"/>
		</g>
		<g id="shape4-3" v:mID="4" v:groupContext="shape" transform="translate(-197.728,63.0822) rotate(-90)">
			<title>Foglio.4</title>
			<rect x="0" y="378.448" width="19.8425" height="119.055" class="st2"/>
		</g>
		<g id="shape5-5" v:mID="5" v:groupContext="shape" transform="translate(184.972,-434.421)">
			<title>Foglio.5</title>
			<desc>Restore view</desc>
			<v:textBlock v:margins="rect(4,4,4,4)" v:tabSpace="42.5197"/>
			<v:textRect cx="43.937" cy="488.29" width="87.88" height="18.4252"/>
			<rect x="0" y="479.078" width="87.874" height="18.4252" class="st3"/>
			<text x="20.82" y="490.69" class="st4" v:langID="1040"><v:paragraph v:horizAlign="1"/><v:tabList/>Restore view</text>		</g>
		<g id="shape1-8" v:mID="1" v:groupContext="shape" transform="translate(-197.728,105.602) rotate(-90)">
			<title>Foglio.1</title>
			<rect x="0" y="378.448" width="19.8425" height="119.055" class="st2"/>
		</g>
		<g id="shape2-10" v:mID="2" v:groupContext="shape" transform="translate(184.972,-391.901)">
			<title>Foglio.2</title>
			<desc>Apply requests</desc>
			<v:textBlock v:margins="rect(4,4,4,4)" v:tabSpace="42.5197"/>
			<v:textRect cx="43.937" cy="488.29" width="87.88" height="18.4252"/>
			<rect x="0" y="479.078" width="87.874" height="18.4252" class="st3"/>
			<text x="17.48" y="490.69" class="st4" v:langID="1040"><v:paragraph v:horizAlign="1"/><v:tabList/>Apply requests</text>		</g>
		<g id="shape3-13" v:mID="3" v:groupContext="shape" transform="translate(-197.728,148.122) rotate(-90)">
			<title>Foglio.3</title>
			<rect x="0" y="378.448" width="19.8425" height="119.055" class="st5"/>
		</g>
		<g id="shape6-15" v:mID="6" v:groupContext="shape" transform="translate(184.972,-349.381)">
			<title>Foglio.6</title>
			<desc>Process events</desc>
			<v:textBlock v:margins="rect(4,4,4,4)" v:tabSpace="42.5197"/>
			<v:textRect cx="43.937" cy="488.29" width="87.88" height="18.4252"/>
			<rect x="0" y="479.078" width="87.874" height="18.4252" class="st3"/>
			<text x="16.59" y="490.69" class="st4" v:langID="1040"><v:paragraph v:horizAlign="1"/><v:tabList/>Process events</text>		</g>
		<g id="shape7-18" v:mID="7" v:groupContext="shape" transform="translate(-197.728,190.641) rotate(-90)">
			<title>Foglio.7</title>
			<rect x="0" y="378.448" width="19.8425" height="119.055" class="st2"/>
		</g>
		<g id="shape8-20" v:mID="8" v:groupContext="shape" transform="translate(182.137,-306.862)">
			<title>Foglio.8</title>
			<desc>Process validations</desc>
			<v:textBlock v:margins="rect(4,4,4,4)" v:tabSpace="42.5197"/>
			<v:textRect cx="43.937" cy="488.29" width="87.88" height="18.4252"/>
			<rect x="0" y="479.078" width="87.874" height="18.4252" class="st3"/>
			<text x="9.48" y="490.69" class="st4" v:langID="1040"><v:paragraph v:horizAlign="1"/><v:tabList/>Process validations</text>		</g>
		<g id="shape9-23" v:mID="9" v:groupContext="shape" transform="translate(-197.728,233.161) rotate(-90)">
			<title>Foglio.9</title>
			<rect x="0" y="378.448" width="19.8425" height="119.055" class="st5"/>
		</g>
		<g id="shape10-25" v:mID="10" v:groupContext="shape" transform="translate(184.972,-264.342)">
			<title>Foglio.10</title>
			<desc>Process events</desc>
			<v:textBlock v:margins="rect(4,4,4,4)" v:tabSpace="42.5197"/>
			<v:textRect cx="43.937" cy="488.29" width="87.88" height="18.4252"/>
			<rect x="0" y="479.078" width="87.874" height="18.4252" class="st3"/>
			<text x="16.59" y="490.69" class="st4" v:langID="1040"><v:paragraph v:horizAlign="1"/><v:tabList/>Process events</text>		</g>
		<g id="shape11-28" v:mID="11" v:groupContext="shape" transform="translate(-197.728,275.681) rotate(-90)">
			<title>Foglio.11</title>
			<rect x="0" y="378.448" width="19.8425" height="119.055" class="st2"/>
		</g>
		<g id="shape12-30" v:mID="12" v:groupContext="shape" transform="translate(182.137,-221.822)">
			<title>Foglio.12</title>
			<desc>Update model values</desc>
			<v:textBlock v:margins="rect(4,4,4,4)" v:tabSpace="42.5197"/>
			<v:textRect cx="43.937" cy="488.29" width="87.88" height="18.4252"/>
			<rect x="0" y="479.078" width="87.874" height="18.4252" class="st3"/>
			<text x="6.36" y="490.69" class="st4" v:langID="1040"><v:paragraph v:horizAlign="1"/><v:tabList/>Update model values</text>		</g>
		<g id="shape13-33" v:mID="13" v:groupContext="shape" transform="translate(-197.728,318.2) rotate(-90)">
			<title>Foglio.13</title>
			<rect x="0" y="378.448" width="19.8425" height="119.055" class="st5"/>
		</g>
		<g id="shape14-35" v:mID="14" v:groupContext="shape" transform="translate(184.972,-179.303)">
			<title>Foglio.14</title>
			<desc>Process events</desc>
			<v:textBlock v:margins="rect(4,4,4,4)" v:tabSpace="42.5197"/>
			<v:textRect cx="43.937" cy="488.29" width="87.88" height="18.4252"/>
			<rect x="0" y="479.078" width="87.874" height="18.4252" class="st3"/>
			<text x="16.59" y="490.69" class="st4" v:langID="1040"><v:paragraph v:horizAlign="1"/><v:tabList/>Process events</text>		</g>
		<g id="shape15-38" v:mID="15" v:groupContext="shape" transform="translate(-197.728,360.72) rotate(-90)">
			<title>Foglio.15</title>
			<rect x="0" y="378.448" width="19.8425" height="119.055" class="st2"/>
		</g>
		<g id="shape16-40" v:mID="16" v:groupContext="shape" transform="translate(184.972,-136.783)">
			<title>Foglio.16</title>
			<desc>Invoke application</desc>
			<v:textBlock v:margins="rect(4,4,4,4)" v:tabSpace="42.5197"/>
			<v:textRect cx="43.937" cy="488.29" width="87.88" height="18.4252"/>
			<rect x="0" y="479.078" width="87.874" height="18.4252" class="st3"/>
			<text x="11.92" y="490.69" class="st4" v:langID="1040"><v:paragraph v:horizAlign="1"/><v:tabList/>Invoke application  </text>		</g>
		<g id="shape17-43" v:mID="17" v:groupContext="shape" transform="translate(-197.728,403.24) rotate(-90)">
			<title>Foglio.17</title>
			<rect x="0" y="378.448" width="19.8425" height="119.055" class="st5"/>
		</g>
		<g id="shape18-45" v:mID="18" v:groupContext="shape" transform="translate(184.972,-94.2633)">
			<title>Foglio.18</title>
			<desc>Process events</desc>
			<v:textBlock v:margins="rect(4,4,4,4)" v:tabSpace="42.5197"/>
			<v:textRect cx="43.937" cy="488.29" width="87.88" height="18.4252"/>
			<rect x="0" y="479.078" width="87.874" height="18.4252" class="st3"/>
			<text x="16.59" y="490.69" class="st4" v:langID="1040"><v:paragraph v:horizAlign="1"/><v:tabList/>Process events</text>		</g>
		<g id="shape19-48" v:mID="19" v:groupContext="shape" transform="translate(-197.728,445.759) rotate(-90)">
			<title>Foglio.19</title>
			<rect x="0" y="378.448" width="19.8425" height="119.055" class="st2"/>
		</g>
		<g id="shape20-50" v:mID="20" v:groupContext="shape" transform="translate(184.972,-51.7436)">
			<title>Foglio.20</title>
			<desc>Render response</desc>
			<v:textBlock v:margins="rect(4,4,4,4)" v:tabSpace="42.5197"/>
			<v:textRect cx="43.937" cy="488.29" width="87.88" height="18.4252"/>
			<rect x="0" y="479.078" width="87.874" height="18.4252" class="st3"/>
			<text x="13.25" y="490.69" class="st4" v:langID="1040"><v:paragraph v:horizAlign="1"/><v:tabList/>Render response</text>		</g>
		<g id="shape21-53" v:mID="21" v:groupContext="shape" transform="translate(194.893,-475.523)">
			<title>Foglio.21</title>
			<desc>Faces Request</desc>
			<v:textBlock v:margins="rect(4,4,4,4)" v:tabSpace="42.5197"/>
			<v:textRect cx="43.937" cy="490.416" width="87.88" height="14.1732"/>
			<rect x="0" y="483.33" width="87.874" height="14.1732" class="st3"/>
			<text x="17.03" y="492.82" class="st4" v:langID="1040"><v:paragraph v:horizAlign="1"/><v:tabList/>Faces Request</text>		</g>
		<g id="shape22-56" v:mID="22" v:groupContext="shape" transform="translate(737.741,82.6903) rotate(89.6465) scale(-1,1)">
			<title>Foglio.22</title>
			<path d="M0 497.5 L22.68 497.5" class="st6"/>
		</g>
		<g id="shape23-59" v:mID="23" v:groupContext="shape" transform="translate(237.413,572.774) scale(1,-1)">
			<title>Foglio.23</title>
			<path d="M5.67 497.5 L0 497.5 L2.83 487.87 L5.67 497.5 Z" class="st7"/>
		</g>
		<g id="shape24-61" v:mID="24" v:groupContext="shape" transform="translate(737.741,125.21) rotate(89.6465) scale(-1,1)">
			<title>Foglio.24</title>
			<path d="M0 497.5 L22.68 497.5" class="st6"/>
		</g>
		<g id="shape25-64" v:mID="25" v:groupContext="shape" transform="translate(237.413,615.294) scale(1,-1)">
			<title>Foglio.25</title>
			<path d="M5.67 497.5 L0 497.5 L2.83 487.87 L5.67 497.5 Z" class="st7"/>
		</g>
		<g id="shape26-66" v:mID="26" v:groupContext="shape" transform="translate(737.741,167.73) rotate(89.6465) scale(-1,1)">
			<title>Foglio.26</title>
			<path d="M0 497.5 L22.68 497.5" class="st6"/>
		</g>
		<g id="shape27-69" v:mID="27" v:groupContext="shape" transform="translate(237.413,657.814) scale(1,-1)">
			<title>Foglio.27</title>
			<path d="M5.67 497.5 L0 497.5 L2.83 487.87 L5.67 497.5 Z" class="st7"/>
		</g>
		<g id="shape28-71" v:mID="28" v:groupContext="shape" transform="translate(737.741,210.249) rotate(89.6465) scale(-1,1)">
			<title>Foglio.28</title>
			<path d="M0 497.5 L22.68 497.5" class="st6"/>
		</g>
		<g id="shape29-74" v:mID="29" v:groupContext="shape" transform="translate(237.413,700.333) scale(1,-1)">
			<title>Foglio.29</title>
			<path d="M5.67 497.5 L0 497.5 L2.83 487.87 L5.67 497.5 Z" class="st7"/>
		</g>
		<g id="shape30-76" v:mID="30" v:groupContext="shape" transform="translate(737.741,252.769) rotate(89.6465) scale(-1,1)">
			<title>Foglio.30</title>
			<path d="M0 497.5 L22.68 497.5" class="st6"/>
		</g>
		<g id="shape31-79" v:mID="31" v:groupContext="shape" transform="translate(237.413,742.853) scale(1,-1)">
			<title>Foglio.31</title>
			<path d="M5.67 497.5 L0 497.5 L2.83 487.87 L5.67 497.5 Z" class="st7"/>
		</g>
		<g id="shape32-81" v:mID="32" v:groupContext="shape" transform="translate(737.741,295.289) rotate(89.6465) scale(-1,1)">
			<title>Foglio.32</title>
			<path d="M0 497.5 L22.68 497.5" class="st6"/>
		</g>
		<g id="shape33-84" v:mID="33" v:groupContext="shape" transform="translate(237.413,785.373) scale(1,-1)">
			<title>Foglio.33</title>
			<path d="M5.67 497.5 L0 497.5 L2.83 487.87 L5.67 497.5 Z" class="st7"/>
		</g>
		<g id="shape34-86" v:mID="34" v:groupContext="shape" transform="translate(737.741,337.808) rotate(89.6465) scale(-1,1)">
			<title>Foglio.34</title>
			<path d="M0 497.5 L22.68 497.5" class="st6"/>
		</g>
		<g id="shape36-89" v:mID="36" v:groupContext="shape" transform="translate(237.413,827.892) scale(1,-1)">
			<title>Foglio.36</title>
			<path d="M5.67 497.5 L0 497.5 L2.83 487.87 L5.67 497.5 Z" class="st7"/>
		</g>
		<g id="shape37-91" v:mID="37" v:groupContext="shape" transform="translate(737.741,380.328) rotate(89.6465) scale(-1,1)">
			<title>Foglio.37</title>
			<path d="M0 497.5 L22.68 497.5" class="st6"/>
		</g>
		<g id="shape38-94" v:mID="38" v:groupContext="shape" transform="translate(237.413,870.412) scale(1,-1)">
			<title>Foglio.38</title>
			<path d="M5.67 497.5 L0 497.5 L2.83 487.87 L5.67 497.5 Z" class="st7"/>
		</g>
		<g id="shape39-96" v:mID="39" v:groupContext="shape" transform="translate(737.741,422.848) rotate(89.6465) scale(-1,1)">
			<title>Foglio.39</title>
			<path d="M0 497.5 L22.68 497.5" class="st6"/>
		</g>
		<g id="shape40-99" v:mID="40" v:groupContext="shape" transform="translate(237.413,912.932) scale(1,-1)">
			<title>Foglio.40</title>
			<path d="M5.67 497.5 L0 497.5 L2.83 487.87 L5.67 497.5 Z" class="st7"/>
		</g>
		<g id="shape41-101" v:mID="41" v:groupContext="shape" transform="translate(737.741,465.367) rotate(89.6465) scale(-1,1)">
			<title>Foglio.41</title>
			<path d="M0 497.5 L22.68 497.5" class="st6"/>
		</g>
		<g id="shape42-104" v:mID="42" v:groupContext="shape" transform="translate(237.413,955.451) scale(1,-1)">
			<title>Foglio.42</title>
			<path d="M5.67 497.5 L0 497.5 L2.83 487.87 L5.67 497.5 Z" class="st7"/>
		</g>
		<g id="shape43-106" v:mID="43" v:groupContext="shape" transform="translate(737.741,40.1706) rotate(89.6465) scale(-1,1)">
			<title>Foglio.43</title>
			<path d="M0 497.5 L22.68 497.5" class="st6"/>
		</g>
		<g id="shape44-109" v:mID="44" v:groupContext="shape" transform="translate(237.413,530.254) scale(1,-1)">
			<title>Foglio.44</title>
			<path d="M5.67 497.5 L0 497.5 L2.83 487.87 L5.67 497.5 Z" class="st7"/>
		</g>
		<g id="shape45-111" v:mID="45" v:groupContext="shape" transform="translate(196.311,-16.3106)">
			<title>Foglio.45</title>
			<desc>Faces Response</desc>
			<v:textBlock v:margins="rect(4,4,4,4)" v:tabSpace="42.5197"/>
			<v:textRect cx="43.937" cy="490.416" width="87.88" height="14.1732"/>
			<rect x="0" y="483.33" width="87.874" height="14.1732" class="st3"/>
			<text x="13.92" y="492.82" class="st4" v:langID="1040"><v:paragraph v:horizAlign="1"/><v:tabList/>Faces Response</text>		</g>
		<g id="shape46-114" v:mID="46" v:groupContext="shape" transform="translate(310.877,-345.129)">
			<title>Foglio.46</title>
			<desc>Response complete</desc>
			<v:textBlock v:margins="rect(4,4,4,4)" v:tabSpace="42.5197"/>
			<v:textRect cx="24.3307" cy="488.29" width="48.67" height="18.4252"/>
			<rect x="0" y="479.078" width="48.6614" height="18.4252" class="st3"/>
			<text x="6.32" y="485.89" class="st4" v:langID="1040"><v:paragraph v:horizAlign="1"/><v:tabList/>Response <tspan
						x="8.1" dy="1.2em" class="st8">complete</tspan></text>		</g>
		<g id="shape47-118" v:mID="47" v:groupContext="shape" transform="translate(389.966,-360.002) rotate(-0.353458) scale(-1,1)">
			<title>Foglio.47</title>
			<path d="M0 497.5 L22.68 497.5" class="st6"/>
		</g>
		<g id="shape48-121" v:mID="48" v:groupContext="shape" transform="translate(880.05,140.326) rotate(90) scale(-1,1)">
			<title>Foglio.48</title>
			<path d="M5.67 497.5 L0 497.5 L2.83 487.87 L5.67 497.5 Z" class="st7"/>
		</g>
		<g id="shape49-123" v:mID="49" v:groupContext="shape" transform="translate(309.462,-360.002) rotate(-0.353458) scale(-1,1)">
			<title>Foglio.49</title>
			<path d="M0 497.5 L12.76 497.5" class="st6"/>
		</g>
		<g id="shape50-126" v:mID="50" v:groupContext="shape" transform="translate(310.877,-260.09)">
			<title>Foglio.50</title>
			<desc>Response complete</desc>
			<v:textBlock v:margins="rect(4,4,4,4)" v:tabSpace="42.5197"/>
			<v:textRect cx="24.3307" cy="488.29" width="48.67" height="18.4252"/>
			<rect x="0" y="479.078" width="48.6614" height="18.4252" class="st3"/>
			<text x="6.32" y="485.89" class="st4" v:langID="1040"><v:paragraph v:horizAlign="1"/><v:tabList/>Response <tspan
						x="8.1" dy="1.2em" class="st8">complete</tspan></text>		</g>
		<g id="shape51-130" v:mID="51" v:groupContext="shape" transform="translate(389.966,-274.963) rotate(-0.353458) scale(-1,1)">
			<title>Foglio.51</title>
			<path d="M0 497.5 L22.68 497.5" class="st6"/>
		</g>
		<g id="shape52-133" v:mID="52" v:groupContext="shape" transform="translate(880.05,225.366) rotate(90) scale(-1,1)">
			<title>Foglio.52</title>
			<path d="M5.67 497.5 L0 497.5 L2.83 487.87 L5.67 497.5 Z" class="st7"/>
		</g>
		<g id="shape53-135" v:mID="53" v:groupContext="shape" transform="translate(309.462,-274.963) rotate(-0.353458) scale(-1,1)">
			<title>Foglio.53</title>
			<path d="M0 497.5 L12.76 497.5" class="st6"/>
		</g>
		<g id="shape54-138" v:mID="54" v:groupContext="shape" transform="translate(310.877,-175.051)">
			<title>Foglio.54</title>
			<desc>Response complete</desc>
			<v:textBlock v:margins="rect(4,4,4,4)" v:tabSpace="42.5197"/>
			<v:textRect cx="24.3307" cy="488.29" width="48.67" height="18.4252"/>
			<rect x="0" y="479.078" width="48.6614" height="18.4252" class="st3"/>
			<text x="6.32" y="485.89" class="st4" v:langID="1040"><v:paragraph v:horizAlign="1"/><v:tabList/>Response <tspan
						x="8.1" dy="1.2em" class="st8">complete</tspan></text>		</g>
		<g id="shape55-142" v:mID="55" v:groupContext="shape" transform="translate(389.966,-189.923) rotate(-0.353458) scale(-1,1)">
			<title>Foglio.55</title>
			<path d="M0 497.5 L22.68 497.5" class="st6"/>
		</g>
		<g id="shape56-145" v:mID="56" v:groupContext="shape" transform="translate(880.05,310.405) rotate(90) scale(-1,1)">
			<title>Foglio.56</title>
			<path d="M5.67 497.5 L0 497.5 L2.83 487.87 L5.67 497.5 Z" class="st7"/>
		</g>
		<g id="shape57-147" v:mID="57" v:groupContext="shape" transform="translate(309.462,-189.923) rotate(-0.353458) scale(-1,1)">
			<title>Foglio.57</title>
			<path d="M0 497.5 L12.76 497.5" class="st6"/>
		</g>
		<g id="shape58-150" v:mID="58" v:groupContext="shape" transform="translate(310.877,-90.0113)">
			<title>Foglio.58</title>
			<desc>Response complete</desc>
			<v:textBlock v:margins="rect(4,4,4,4)" v:tabSpace="42.5197"/>
			<v:textRect cx="24.3307" cy="488.29" width="48.67" height="18.4252"/>
			<rect x="0" y="479.078" width="48.6614" height="18.4252" class="st3"/>
			<text x="6.32" y="485.89" class="st4" v:langID="1040"><v:paragraph v:horizAlign="1"/><v:tabList/>Response <tspan
						x="8.1" dy="1.2em" class="st8">complete</tspan></text>		</g>
		<g id="shape59-154" v:mID="59" v:groupContext="shape" transform="translate(389.966,-104.884) rotate(-0.353458) scale(-1,1)">
			<title>Foglio.59</title>
			<path d="M0 497.5 L22.68 497.5" class="st6"/>
		</g>
		<g id="shape60-157" v:mID="60" v:groupContext="shape" transform="translate(880.05,395.444) rotate(90) scale(-1,1)">
			<title>Foglio.60</title>
			<path d="M5.67 497.5 L0 497.5 L2.83 487.87 L5.67 497.5 Z" class="st7"/>
		</g>
		<g id="shape61-159" v:mID="61" v:groupContext="shape" transform="translate(309.462,-104.884) rotate(-0.353458) scale(-1,1)">
			<title>Foglio.61</title>
			<path d="M0 497.5 L12.76 497.5" class="st6"/>
		</g>
		<g id="shape63-162" v:mID="63" v:groupContext="shape" transform="translate(881.184,438.106) rotate(90) scale(-1,1)">
			<title>Foglio.63</title>
			<path d="M5.67 497.5 L0 497.5 L2.83 487.87 L5.67 497.5 Z" class="st7"/>
		</g>
		<g id="shape64-164" v:mID="64" v:groupContext="shape" transform="translate(177.651,-359.967) rotate(-0.353458) scale(-1,1)">
			<title>Foglio.64</title>
			<path d="M0 497.5 L12.76 497.5" class="st6"/>
		</g>
		<g id="shape65-167" v:mID="65" v:groupContext="shape" transform="translate(177.651,-274.254) rotate(-0.353458) scale(-1,1)">
			<title>Foglio.65</title>
			<path d="M0 497.5 L12.76 497.5" class="st6"/>
		</g>
		<g id="shape66-170" v:mID="66" v:groupContext="shape" transform="translate(177.651,-189.293) rotate(-0.353458) scale(-1,1)">
			<title>Foglio.66</title>
			<path d="M0 497.5 L12.76 497.5" class="st6"/>
		</g>
		<g id="shape67-173" v:mID="67" v:groupContext="shape" transform="translate(67.3342,-352.925)">
			<title>Foglio.67</title>
			<desc>Render Response</desc>
			<v:textBlock v:margins="rect(4,4,4,4)" v:tabSpace="42.5197"/>
			<v:textRect cx="45.5906" cy="491.125" width="91.19" height="12.7559"/>
			<rect x="0" y="484.747" width="91.1811" height="12.7559" class="st3"/>
			<text x="13.35" y="493.53" class="st4" v:langID="1040"><v:paragraph v:horizAlign="1"/><v:tabList/>Render Response</text>		</g>
		<g id="shape68-176" v:mID="68" v:groupContext="shape" transform="translate(64.2633,-256.547)">
			<title>Foglio.68</title>
			<desc>Render Response</desc>
			<v:textBlock v:margins="rect(4,4,4,4)" v:tabSpace="42.5197"/>
			<v:textRect cx="45.5906" cy="491.125" width="91.19" height="12.7559"/>
			<rect x="0" y="484.747" width="91.1811" height="12.7559" class="st3"/>
			<text x="13.35" y="493.53" class="st4" v:langID="1040"><v:paragraph v:horizAlign="1"/><v:tabList/>Render Response</text>		</g>
		<g id="shape69-179" v:mID="69" v:groupContext="shape" transform="translate(65.4444,-267.885)">
			<title>Foglio.69</title>
			<desc>Conversion Errors/</desc>
			<v:textBlock v:margins="rect(4,4,4,4)" v:tabSpace="42.5197"/>
			<v:textRect cx="45.5906" cy="491.125" width="91.19" height="12.7559"/>
			<rect x="0" y="484.747" width="91.1811" height="12.7559" class="st3"/>
			<text x="12.25" y="493.53" class="st4" v:langID="1040"><v:paragraph v:horizAlign="1"/><v:tabList/>Conversion Errors/</text>		</g>
		<g id="shape70-182" v:mID="70" v:groupContext="shape" transform="translate(65.9169,-279.933)">
			<title>Foglio.70</title>
			<desc>Validation/</desc>
			<v:textBlock v:margins="rect(4,4,4,4)" v:tabSpace="42.5197"/>
			<v:textRect cx="45.5906" cy="491.125" width="91.19" height="12.7559"/>
			<rect x="0" y="484.747" width="91.1811" height="12.7559" class="st3"/>
			<text x="26.91" y="493.53" class="st4" v:langID="1040"><v:paragraph v:horizAlign="1"/><v:tabList/>Validation/</text>		</g>
		<g id="shape71-185" v:mID="71" v:groupContext="shape" transform="translate(64.4995,-171.153)">
			<title>Foglio.71</title>
			<desc>Render Response</desc>
			<v:textBlock v:margins="rect(4,4,4,4)" v:tabSpace="42.5197"/>
			<v:textRect cx="45.5906" cy="491.125" width="91.19" height="12.7559"/>
			<rect x="0" y="484.747" width="91.1811" height="12.7559" class="st3"/>
			<text x="13.35" y="493.53" class="st4" v:langID="1040"><v:paragraph v:horizAlign="1"/><v:tabList/>Render Response</text>		</g>
		<g id="shape72-188" v:mID="72" v:groupContext="shape" transform="translate(65.6806,-182.492)">
			<title>Foglio.72</title>
			<desc>Conversion Errors/</desc>
			<v:textBlock v:margins="rect(4,4,4,4)" v:tabSpace="42.5197"/>
			<v:textRect cx="45.5906" cy="491.125" width="91.19" height="12.7559"/>
			<rect x="0" y="484.747" width="91.1811" height="12.7559" class="st3"/>
			<text x="12.25" y="493.53" class="st4" v:langID="1040"><v:paragraph v:horizAlign="1"/><v:tabList/>Conversion Errors/</text>		</g>
		<g id="shape73-191" v:mID="73" v:groupContext="shape" transform="translate(69.9344,-189.293) rotate(-0.353458) scale(-1,1)">
			<title>Foglio.73</title>
			<path d="M0 497.5 L12.76 497.5" class="st6"/>
		</g>
		<g id="shape74-194" v:mID="74" v:groupContext="shape" transform="translate(71.4689,-274.261) rotate(-0.176731) scale(-1,1)">
			<title>Foglio.74</title>
			<path d="M0 497.5 L25.51 497.5" class="st6"/>
		</g>
		<g id="shape76-197" v:mID="76" v:groupContext="shape" transform="translate(73.0035,-359.303) scale(-1,1)">
			<title>Foglio.76</title>
			<path d="M0 497.5 L38.27 497.5" class="st6"/>
		</g>
		<g id="shape79-200" v:mID="79" v:groupContext="shape" transform="translate(-462.767,138.2) rotate(-90) scale(-1,1)">
			<title>Foglio.79</title>
			<path d="M0 497.5 L304.87 497.5" class="st6"/>
		</g>
		<g id="shape77-203" v:mID="77" v:groupContext="shape" transform="translate(-450.011,223.318) rotate(-90) scale(-1,1)">
			<title>Foglio.77</title>
			<path d="M0 497.5 L212.8 497.5" class="st6"/>
		</g>
		<g id="shape75-206" v:mID="75" v:groupContext="shape" transform="translate(-437.255,308.279) rotate(-90) scale(-1,1)">
			<title>Foglio.75</title>
			<path d="M0 497.5 L120.9 497.5" class="st6"/>
		</g>
		<g id="shape62-209" v:mID="62" v:groupContext="shape" transform="translate(387.082,-62.2318) scale(-1,1)">
			<title>Foglio.62</title>
			<path d="M0 497.5 L87.31 497.5" class="st6"/>
		</g>
		<g id="shape78-212" v:mID="78" v:groupContext="shape" transform="translate(668.869,432.011) rotate(90) scale(-1,1)">
			<title>Foglio.78</title>
			<path d="M5.67 497.5 L0 497.5 L2.83 487.87 L5.67 497.5 Z" class="st7"/>
		</g>
		<g id="shape80-214" v:mID="80" v:groupContext="shape" transform="translate(173.616,-68.3263) scale(-1,1)">
			<title>Foglio.80</title>
			<path d="M0 497.5 L110.98 497.5" class="st6"/>
		</g>
		<g id="shape82-217" v:mID="82" v:groupContext="shape" transform="translate(180.437,-61.3814) scale(-1,1)">
			<title>Foglio.82</title>
			<path d="M0 497.5 L131.75 497.5" class="st6"/>
		</g>
		<g id="shape83-220" v:mID="83" v:groupContext="shape" transform="translate(668.869,445.901) rotate(90) scale(-1,1)">
			<title>Foglio.83</title>
			<path d="M5.67 497.5 L0 497.5 L2.83 487.87 L5.67 497.5 Z" class="st7"/>
		</g>
		<g id="shape84-222" v:mID="84" v:groupContext="shape" transform="translate(173.306,-54.4365) scale(-1,1)">
			<title>Foglio.84</title>
			<path d="M0 497.5 L138.57 497.5" class="st6"/>
		</g>
	</g>
</svg>
