<?xml version="1.0" encoding="UTF-8" standalone="no"?>
<!DOCTYPE svg PUBLIC "-//W3C//DTD SVG 1.0//EN" "http://www.w3.org/TR/2001/REC-SVG-20010904/DTD/svg10.dtd">
<!-- Generato da Microsoft Visio 11.0, SVG Export, v1.0 jakartaeett_dt_068_txtcmpnts.svg Pagina 1 -->
<svg xmlns="http://www.w3.org/2000/svg" xmlns:v="http://schemas.microsoft.com/visio/2003/SVGExtensions/" width="5.9452in"
		height="1.9885in" viewBox="0 0 428.054 143.172" xml:space="preserve" color-interpolation-filters="sRGB" class="st13"
		xmlns:xlink="http://www.w3.org/1999/xlink">
	<v:documentProperties v:langID="1040" v:metric="true" v:viewMarkup="false">
		<v:userDefs>
			<v:ud v:nameU="MBSAAddinOutlineVisible" v:prompt="" v:val="VT0(1):26"/>
		</v:userDefs>
	</v:documentProperties>

	<style type="text/css">
	<![CDATA[
		.st1 {fill:#ffffff;stroke:none;stroke-linecap:round;stroke-linejoin:round;stroke-width:0.72}
		.st2 {fill:none;stroke:none;stroke-linecap:round;stroke-linejoin:round;stroke-width:0.72}
		.st3 {fill:#000000;font-family:Arial;font-size:0.666664em}
		.st4 {fill:#f2f2f2;stroke:#000000;stroke-linecap:round;stroke-linejoin:round;stroke-width:0.72}
		.st5 {fill:#00b050;stroke:#00b050;stroke-linecap:round;stroke-linejoin:round;stroke-width:0.72}
		.st6 {stroke:#bfbfbf;stroke-linecap:round;stroke-linejoin:round;stroke-width:0.72}
		.st7 {font-size:1em}
		.st8 {stroke:#00b050;stroke-linecap:round;stroke-linejoin:round;stroke-width:3.12}
		.st9 {fill:#f2f2f2;stroke:#d9d9d9;stroke-linecap:round;stroke-linejoin:round;stroke-width:0.72}
		.st10 {fill:#a6a6a6;stroke:#d9d9d9;stroke-linecap:round;stroke-linejoin:round;stroke-width:0.72}
		.st11 {fill:#d9d9d9;stroke:#a6a6a6;stroke-linecap:butt;stroke-width:0.72}
		.st12 {stroke:#000000;stroke-linecap:butt;stroke-width:1.2}
		.st13 {fill:none;fill-rule:evenodd;font-size:12;overflow:visible;stroke-linecap:square;stroke-miterlimit:3}
	]]>
	</style>

	<g v:mID="0" v:index="1" v:groupContext="foregroundPage">
		<title>Pagina 1</title>
		<v:pageProperties v:drawingScale="0.0393701" v:pageScale="0.0393701" v:drawingUnits="24" v:shadowOffsetX="8.50394"
				v:shadowOffsetY="-8.50394"/>
		<g id="shape35-1" v:mID="35" v:groupContext="shape" transform="translate(3.55465,-0.72)">
			<title>Foglio.35</title>
			<rect x="0" y="1.44" width="423.78" height="141.732" class="st1"/>
		</g>
		<g id="shape21-3" v:mID="21" v:groupContext="shape" transform="translate(91.4287,-116.94)">
			<title>Foglio.21</title>
			<desc>Fiction</desc>
			<v:textBlock v:margins="rect(4,4,4,4)" v:tabSpace="42.5197"/>
			<v:textRect cx="24.0945" cy="136.086" width="48.19" height="14.1732"/>
			<rect x="0" y="128.999" width="48.189" height="14.1732" class="st2"/>
			<text x="4" y="138.49" class="st3" v:langID="1040"><v:paragraph/><v:tabList/>Fiction</text>		</g>
		<g id="shape1-6" v:mID="1" v:groupContext="shape" transform="translate(74.4208,-116.94)">
			<title>Foglio.1</title>
			<ellipse cx="7.08661" cy="136.086" rx="7.08661" ry="7.08661" class="st4"/>
		</g>
		<g id="shape100-8" v:mID="100" v:groupContext="shape" transform="translate(74.4208,-98.5153)">
			<title>Foglio.100</title>
			<ellipse cx="7.08661" cy="136.086" rx="7.08661" ry="7.08661" class="st4"/>
		</g>
		<g id="shape101-10" v:mID="101" v:groupContext="shape" transform="translate(77.0003,-101.095)">
			<title>Foglio.101</title>
			<ellipse cx="4.37953" cy="138.793" rx="4.37953" ry="4.37953" class="st5"/>
		</g>
		<g id="shape99-12" v:mID="99" v:groupContext="shape" transform="translate(91.4287,-98.5153)">
			<title>Foglio.99</title>
			<desc>Non-fiction</desc>
			<v:textBlock v:margins="rect(4,4,4,4)" v:tabSpace="42.5197"/>
			<v:textRect cx="24.0945" cy="136.086" width="48.19" height="14.1732"/>
			<rect x="0" y="128.999" width="48.189" height="14.1732" class="st2"/>
			<text x="4" y="138.49" class="st3" v:langID="1040"><v:paragraph/><v:tabList/>Non-fiction</text>		</g>
		<g id="shape102-15" v:mID="102" v:groupContext="shape" transform="translate(91.4287,-80.0901)">
			<title>Foglio.102</title>
			<desc>Reference</desc>
			<v:textBlock v:margins="rect(4,4,4,4)" v:tabSpace="42.5197"/>
			<v:textRect cx="24.0945" cy="136.086" width="48.19" height="14.1732"/>
			<rect x="0" y="128.999" width="48.189" height="14.1732" class="st2"/>
			<text x="4" y="138.49" class="st3" v:langID="1040"><v:paragraph/><v:tabList/>Reference</text>		</g>
		<g id="shape103-18" v:mID="103" v:groupContext="shape" transform="translate(74.4208,-80.0901)">
			<title>Foglio.103</title>
			<ellipse cx="7.08661" cy="136.086" rx="7.08661" ry="7.08661" class="st4"/>
		</g>
		<g id="shape105-20" v:mID="105" v:groupContext="shape" transform="translate(74.4208,-61.6649)">
			<title>Foglio.105</title>
			<ellipse cx="7.08661" cy="136.086" rx="7.08661" ry="7.08661" class="st4"/>
		</g>
		<g id="shape107-22" v:mID="107" v:groupContext="shape" transform="translate(91.4287,-61.6649)">
			<title>Foglio.107</title>
			<desc>Biography</desc>
			<v:textBlock v:margins="rect(4,4,4,4)" v:tabSpace="42.5197"/>
			<v:textRect cx="24.0945" cy="136.086" width="48.19" height="14.1732"/>
			<rect x="0" y="128.999" width="48.189" height="14.1732" class="st2"/>
			<text x="4" y="138.49" class="st3" v:langID="1040"><v:paragraph/><v:tabList/>Biography</text>		</g>
		<g id="shape2-25" v:mID="2" v:groupContext="shape" transform="translate(65.9169,-136.783)">
			<title>Foglio.2</title>
			<path d="M0 143.17 L22.68 143.17" class="st6"/>
		</g>
		<g id="shape3-28" v:mID="3" v:groupContext="shape" transform="translate(-77.2554,88.594) rotate(-90)">
			<title>Foglio.3</title>
			<path d="M0 143.17 L82.2 143.17" class="st6"/>
		</g>
		<g id="shape6-31" v:mID="6" v:groupContext="shape" transform="translate(65.9169,-54.5783)">
			<title>Foglio.6</title>
			<path d="M0 143.17 L22.68 143.17" class="st6"/>
		</g>
		<g id="shape7-34" v:mID="7" v:groupContext="shape" transform="translate(43.2397,-95.6806)">
			<title>Foglio.7</title>
			<path d="M0 143.17 L22.68 143.17" class="st6"/>
		</g>
		<g id="shape8-37" v:mID="8" v:groupContext="shape" transform="translate(0.72,-85.7594)">
			<title>Foglio.8</title>
			<desc>Radio Buttons</desc>
			<v:textBlock v:margins="rect(4,4,4,4)" v:tabSpace="42.5197"/>
			<v:textRect cx="19.8425" cy="133.251" width="39.69" height="19.8425"/>
			<rect x="0" y="123.33" width="39.685" height="19.8425" class="st2"/>
			<text x="9.39" y="130.85" class="st3" v:langID="1040"><v:paragraph v:horizAlign="1"/><v:tabList/>Radio<v:newlineChar/><tspan
						x="6.28" dy="1.2em" class="st7">Buttons</tspan></text>		</g>
		<g id="shape9-41" v:mID="9" v:groupContext="shape" transform="translate(-54.5783,111.271) rotate(-90)">
			<title>Foglio.9</title>
			<rect x="0" y="128.999" width="14.1732" height="14.1732" class="st4"/>
		</g>
		<g id="shape10-43" v:mID="10" v:groupContext="shape" transform="translate(179.911,4.3638) rotate(45)">
			<title>Foglio.10</title>
			<path d="M0 143.17 L4.01 143.17" class="st8"/>
		</g>
		<g id="shape11-46" v:mID="11" v:groupContext="shape" transform="translate(-46.5498,44.4079) rotate(-63.4349)">
			<title>Foglio.11</title>
			<path d="M0 143.17 L6.34 143.17" class="st8"/>
		</g>
		<g id="shape12-49" v:mID="12" v:groupContext="shape" transform="translate(26.2318,-116.94)">
			<title>Foglio.12</title>
			<desc>Genre:</desc>
			<v:textBlock v:margins="rect(4,4,4,4)" v:tabSpace="42.5197"/>
			<v:textRect cx="16.2992" cy="136.086" width="32.6" height="14.1732"/>
			<rect x="0" y="128.999" width="32.5984" height="14.1732" class="st2"/>
			<text x="4.14" y="138.49" class="st3" v:langID="1040"><v:paragraph v:horizAlign="2"/><v:tabList/>Genre:</text>		</g>
		<g id="shape13-52" v:mID="13" v:groupContext="shape" transform="translate(91.4287,-31.9011)">
			<title>Foglio.13</title>
			<desc>In print</desc>
			<v:textBlock v:margins="rect(4,4,4,4)" v:tabSpace="42.5197"/>
			<v:textRect cx="24.0945" cy="136.086" width="48.19" height="14.1732"/>
			<rect x="0" y="128.999" width="48.189" height="14.1732" class="st2"/>
			<text x="4" y="138.49" class="st3" v:langID="1040"><v:paragraph/><v:tabList/>In print</text>		</g>
		<g id="shape14-55" v:mID="14" v:groupContext="shape" transform="translate(7.80661,-31.9011)">
			<title>Foglio.14</title>
			<desc>Availability:</desc>
			<v:textBlock v:margins="rect(4,4,4,4)" v:tabSpace="42.5197"/>
			<v:textRect cx="25.5118" cy="136.086" width="51.03" height="14.1732"/>
			<rect x="0" y="128.999" width="51.0236" height="14.1732" class="st2"/>
			<text x="7.01" y="138.49" class="st3" v:langID="1040"><v:paragraph v:horizAlign="2"/><v:tabList/>Availability:</text>		</g>
		<g id="shape15-58" v:mID="15" v:groupContext="shape" transform="translate(-61.6649,125.444) rotate(-90)">
			<title>Foglio.15</title>
			<path d="M0 143.17 L9.92 143.17" class="st6"/>
		</g>
		<g id="shape16-61" v:mID="16" v:groupContext="shape" transform="translate(54.5783,-3.55465)">
			<title>Foglio.16</title>
			<desc>Check Box</desc>
			<v:textBlock v:margins="rect(4,4,4,4)" v:tabSpace="42.5197"/>
			<v:textRect cx="24.222" cy="136.086" width="48.45" height="14.1732"/>
			<rect x="0" y="128.999" width="48.4441" height="14.1732" class="st2"/>
			<text x="4" y="138.49" class="st3" v:langID="1040"><v:paragraph/><v:tabList/>Check Box</text>		</g>
		<g id="shape17-64" v:mID="17" v:groupContext="shape" transform="translate(119.044,104.185) rotate(-90)">
			<title>Foglio.17</title>
			<rect x="0" y="86.4794" width="85.0394" height="56.6929" class="st9"/>
		</g>
		<g id="shape18-66" v:mID="18" v:groupContext="shape" transform="translate(119.044,19.1452) rotate(-90)">
			<title>Foglio.18</title>
			<rect x="0" y="86.4794" width="14.1732" height="56.6929" class="st10"/>
		</g>
		<g id="shape19-68" v:mID="19" v:groupContext="shape" transform="translate(205.523,-124.027)">
			<title>Foglio.19</title>
			<desc>Chinese</desc>
			<v:textBlock v:margins="rect(4,4,4,4)" v:tabSpace="42.5197"/>
			<v:textRect cx="21.2598" cy="136.086" width="42.52" height="14.1732"/>
			<rect x="0" y="128.999" width="42.5197" height="14.1732" class="st2"/>
			<text x="4" y="138.49" class="st3" v:langID="1040"><v:paragraph/><v:tabList/>Chinese</text>		</g>
		<g id="shape20-71" v:mID="20" v:groupContext="shape" transform="translate(205.523,-109.854)">
			<title>Foglio.20</title>
			<desc>Dutch</desc>
			<v:textBlock v:margins="rect(4,4,4,4)" v:tabSpace="42.5197"/>
			<v:textRect cx="21.2598" cy="136.086" width="42.52" height="14.1732"/>
			<rect x="0" y="128.999" width="42.5197" height="14.1732" class="st2"/>
			<text x="4" y="138.49" class="st3" v:langID="1040"><v:paragraph/><v:tabList/>Dutch</text>		</g>
		<g id="shape22-74" v:mID="22" v:groupContext="shape" transform="translate(205.523,-95.6806)">
			<title>Foglio.22</title>
			<desc>English</desc>
			<v:textBlock v:margins="rect(4,4,4,4)" v:tabSpace="42.5197"/>
			<v:textRect cx="21.2598" cy="136.086" width="42.52" height="14.1732"/>
			<rect x="0" y="128.999" width="42.5197" height="14.1732" class="st2"/>
			<text x="4" y="138.49" class="st3" v:langID="1040"><v:paragraph/><v:tabList/>English</text>		</g>
		<g id="shape23-77" v:mID="23" v:groupContext="shape" transform="translate(205.523,-67.3342)">
			<title>Foglio.23</title>
			<desc>German</desc>
			<v:textBlock v:margins="rect(4,4,4,4)" v:tabSpace="42.5197"/>
			<v:textRect cx="21.2598" cy="136.086" width="42.52" height="14.1732"/>
			<rect x="0" y="128.999" width="42.5197" height="14.1732" class="st2"/>
			<text x="4" y="138.49" class="st3" v:langID="1040"><v:paragraph/><v:tabList/>German</text>		</g>
		<g id="shape24-80" v:mID="24" v:groupContext="shape" transform="translate(205.523,-53.1609)">
			<title>Foglio.24</title>
			<desc>Spanish</desc>
			<v:textBlock v:margins="rect(4,4,4,4)" v:tabSpace="42.5197"/>
			<v:textRect cx="21.2598" cy="136.086" width="42.52" height="14.1732"/>
			<rect x="0" y="128.999" width="42.5197" height="14.1732" class="st2"/>
			<text x="4" y="138.49" class="st3" v:langID="1040"><v:paragraph/><v:tabList/>Spanish</text>		</g>
		<g id="shape25-83" v:mID="25" v:groupContext="shape" transform="translate(205.523,-38.9877)">
			<title>Foglio.25</title>
			<desc>Swahili</desc>
			<v:textBlock v:margins="rect(4,4,4,4)" v:tabSpace="42.5197"/>
			<v:textRect cx="21.2598" cy="136.086" width="42.52" height="14.1732"/>
			<rect x="0" y="128.999" width="42.5197" height="14.1732" class="st2"/>
			<text x="4" y="138.49" class="st3" v:langID="1040"><v:paragraph/><v:tabList/>Swahili</text>		</g>
		<g id="shape26-86" v:mID="26" v:groupContext="shape" transform="translate(205.523,-81.5074)">
			<title>Foglio.26</title>
			<desc>French</desc>
			<v:textBlock v:margins="rect(4,4,4,4)" v:tabSpace="42.5197"/>
			<v:textRect cx="21.2598" cy="136.086" width="42.52" height="14.1732"/>
			<rect x="0" y="128.999" width="42.5197" height="14.1732" class="st2"/>
			<text x="4" y="138.49" class="st3" v:langID="1040"><v:paragraph/><v:tabList/>French</text>		</g>
		<g id="shape27-89" v:mID="27" v:groupContext="shape" transform="translate(133.217,104.185) rotate(-90)">
			<title>Foglio.27</title>
			<rect x="0" y="128.999" width="99.2126" height="14.1732" class="st9"/>
		</g>
		<g id="shape28-91" v:mID="28" v:groupContext="shape" transform="translate(133.217,22.2633) rotate(-90)">
			<title>Foglio.28</title>
			<rect x="0" y="128.999" width="17.2913" height="14.1732" rx="5.66929" ry="5.66929" class="st11"/>
		</g>
		<g id="shape29-93" v:mID="29" v:groupContext="shape" transform="translate(150.796,-69.8763) rotate(-53.1301)">
			<title>Foglio.29</title>
			<path d="M0 143.17 L7.09 143.17" class="st12"/>
		</g>
		<g id="shape30-96" v:mID="30" v:groupContext="shape" transform="translate(387.809,-69.8763) rotate(53.1301) scale(-1,1)">
			<title>Foglio.30</title>
			<path d="M0 143.17 L7.09 143.17" class="st12"/>
		</g>
		<g id="shape31-99" v:mID="31" v:groupContext="shape" transform="translate(133.217,52.4523) rotate(-90)">
			<title>Foglio.31</title>
			<rect x="0" y="128.999" width="29.622" height="14.1732" rx="5.66929" ry="5.66929" class="st11"/>
		</g>
		<g id="shape32-101" v:mID="32" v:groupContext="shape" transform="translate(266.043,-109.429)">
			<title>Foglio.32</title>
			<path d="M0 143.17 L7.09 143.17" class="st6"/>
		</g>
		<g id="shape33-104" v:mID="33" v:groupContext="shape" transform="translate(266.043,-107.444)">
			<title>Foglio.33</title>
			<path d="M0 143.17 L7.09 143.17" class="st6"/>
		</g>
		<g id="shape34-107" v:mID="34" v:groupContext="shape" transform="translate(266.043,-105.46)">
			<title>Foglio.34</title>
			<path d="M0 143.17 L7.09 143.17" class="st6"/>
		</g>
		<g id="shape36-110" v:mID="36" v:groupContext="shape" transform="translate(266.043,-103.476)">
			<title>Foglio.36</title>
			<path d="M0 143.17 L7.09 143.17" class="st6"/>
		</g>
		<g id="shape37-113" v:mID="37" v:groupContext="shape" transform="translate(405.388,86.6098) rotate(90)">
			<title>Foglio.37</title>
			<rect x="0" y="128.999" width="17.2913" height="14.1732" rx="5.66929" ry="5.66929" class="st11"/>
		</g>
		<g id="shape38-115" v:mID="38" v:groupContext="shape" transform="translate(387.809,178.749) rotate(126.87)">
			<title>Foglio.38</title>
			<path d="M0 143.17 L7.09 143.17" class="st12"/>
		</g>
		<g id="shape39-118" v:mID="39" v:groupContext="shape" transform="translate(150.796,178.749) rotate(53.1301) scale(1,-1)">
			<title>Foglio.39</title>
			<path d="M0 143.17 L7.09 143.17" class="st12"/>
		</g>
		<g id="shape40-121" v:mID="40" v:groupContext="shape" transform="translate(141.035,-124.027)">
			<title>Foglio.40</title>
			<desc>Language:</desc>
			<v:textBlock v:margins="rect(4,4,4,4)" v:tabSpace="42.5197"/>
			<v:textRect cx="25.5118" cy="136.086" width="51.03" height="14.1732"/>
			<rect x="0" y="128.999" width="51.0236" height="14.1732" class="st2"/>
			<text x="9.21" y="138.49" class="st3" v:langID="1040"><v:paragraph v:horizAlign="2"/><v:tabList/>Language:</text>		</g>
		<g id="shape41-124" v:mID="41" v:groupContext="shape" transform="translate(90.5698,125.444) rotate(-90)">
			<title>Foglio.41</title>
			<path d="M0 143.17 L17.01 143.17" class="st6"/>
		</g>
		<g id="shape42-127" v:mID="42" v:groupContext="shape" transform="translate(206.813,-3.55465)">
			<title>Foglio.42</title>
			<desc>Drop-Down Menu</desc>
			<v:textBlock v:margins="rect(4,4,4,4)" v:tabSpace="42.5197"/>
			<v:textRect cx="36.2055" cy="136.086" width="72.42" height="14.1732"/>
			<rect x="0" y="128.999" width="72.411" height="14.1732" class="st2"/>
			<text x="4" y="138.49" class="st3" v:langID="1040"><v:paragraph/><v:tabList/>Drop-Down Menu</text>		</g>
		<g id="shape43-130" v:mID="43" v:groupContext="shape" transform="translate(255.815,88.594) rotate(-90)">
			<title>Foglio.43</title>
			<rect x="0" y="80.8101" width="69.4488" height="62.3622" class="st9"/>
		</g>
		<g id="shape44-132" v:mID="44" v:groupContext="shape" transform="translate(255.815,19.1452) rotate(-90)">
			<title>Foglio.44</title>
			<rect x="0" y="80.8101" width="14.1732" height="62.3622" class="st10"/>
		</g>
		<g id="shape45-134" v:mID="45" v:groupContext="shape" transform="translate(336.626,-124.027)">
			<title>Foglio.45</title>
			<desc>Hardcover</desc>
			<v:textBlock v:margins="rect(4,4,4,4)" v:tabSpace="42.5197"/>
			<v:textRect cx="28.3465" cy="136.086" width="56.7" height="14.1732"/>
			<rect x="0" y="128.999" width="56.6929" height="14.1732" class="st2"/>
			<text x="4" y="138.49" class="st3" v:langID="1040"><v:paragraph/><v:tabList/>Hardcover</text>		</g>
		<g id="shape46-137" v:mID="46" v:groupContext="shape" transform="translate(336.626,-109.854)">
			<title>Foglio.46</title>
			<desc>Paperback</desc>
			<v:textBlock v:margins="rect(4,4,4,4)" v:tabSpace="42.5197"/>
			<v:textRect cx="28.3465" cy="136.086" width="56.7" height="14.1732"/>
			<rect x="0" y="128.999" width="56.6929" height="14.1732" class="st2"/>
			<text x="4" y="138.49" class="st3" v:langID="1040"><v:paragraph/><v:tabList/>Paperback</text>		</g>
		<g id="shape47-140" v:mID="47" v:groupContext="shape" transform="translate(336.626,-95.6806)">
			<title>Foglio.47</title>
			<desc>Large-print</desc>
			<v:textBlock v:margins="rect(4,4,4,4)" v:tabSpace="42.5197"/>
			<v:textRect cx="28.3465" cy="136.086" width="56.7" height="14.1732"/>
			<rect x="0" y="128.999" width="56.6929" height="14.1732" class="st2"/>
			<text x="4" y="138.49" class="st3" v:langID="1040"><v:paragraph/><v:tabList/>Large-print</text>		</g>
		<g id="shape48-143" v:mID="48" v:groupContext="shape" transform="translate(336.626,-67.3342)">
			<title>Foglio.48</title>
			<desc>DVD</desc>
			<v:textBlock v:margins="rect(4,4,4,4)" v:tabSpace="42.5197"/>
			<v:textRect cx="21.2598" cy="136.086" width="42.52" height="14.1732"/>
			<rect x="0" y="128.999" width="42.5197" height="14.1732" class="st2"/>
			<text x="4" y="138.49" class="st3" v:langID="1040"><v:paragraph/><v:tabList/>DVD</text>		</g>
		<g id="shape49-146" v:mID="49" v:groupContext="shape" transform="translate(336.626,-53.1609)">
			<title>Foglio.49</title>
			<desc>Illustrated</desc>
			<v:textBlock v:margins="rect(4,4,4,4)" v:tabSpace="42.5197"/>
			<v:textRect cx="28.3465" cy="136.086" width="56.7" height="14.1732"/>
			<rect x="0" y="128.999" width="56.6929" height="14.1732" class="st2"/>
			<text x="4" y="138.49" class="st3" v:langID="1040"><v:paragraph/><v:tabList/>Illustrated</text>		</g>
		<g id="shape51-149" v:mID="51" v:groupContext="shape" transform="translate(336.626,-81.5074)">
			<title>Foglio.51</title>
			<desc>Cassette</desc>
			<v:textBlock v:margins="rect(4,4,4,4)" v:tabSpace="42.5197"/>
			<v:textRect cx="28.3465" cy="136.086" width="56.7" height="14.1732"/>
			<rect x="0" y="128.999" width="56.6929" height="14.1732" class="st2"/>
			<text x="4" y="138.49" class="st3" v:langID="1040"><v:paragraph/><v:tabList/>Cassette</text>		</g>
		<g id="shape64-152" v:mID="64" v:groupContext="shape" transform="translate(290.563,-124.027)">
			<title>Foglio.64</title>
			<desc>Format:</desc>
			<v:textBlock v:margins="rect(4,4,4,4)" v:tabSpace="42.5197"/>
			<v:textRect cx="18.4252" cy="136.086" width="36.86" height="14.1732"/>
			<rect x="0" y="128.999" width="36.8504" height="14.1732" class="st2"/>
			<text x="5.29" y="138.49" class="st3" v:langID="1040"><v:paragraph v:horizAlign="2"/><v:tabList/>Format:</text>		</g>
		<g id="shape65-155" v:mID="65" v:groupContext="shape" transform="translate(221.672,125.444) rotate(-90)">
			<title>Foglio.65</title>
			<path d="M0 143.17 L32.6 143.17" class="st6"/>
		</g>
		<g id="shape66-158" v:mID="66" v:groupContext="shape" transform="translate(337.915,-3.55465)">
			<title>Foglio.66</title>
			<desc>List Box</desc>
			<v:textBlock v:margins="rect(4,4,4,4)" v:tabSpace="42.5197"/>
			<v:textRect cx="22.0323" cy="136.086" width="44.07" height="14.1732"/>
			<rect x="0" y="128.999" width="44.0646" height="14.1732" class="st2"/>
			<text x="4" y="138.49" class="st3" v:langID="1040"><v:paragraph/><v:tabList/>List Box</text>		</g>
	</g>
</svg>
