<?xml version="1.0" encoding="UTF-8" standalone="no"?>
<!DOCTYPE svg PUBLIC "-//W3C//DTD SVG 1.0//EN" "http://www.w3.org/TR/2001/REC-SVG-20010904/DTD/svg10.dtd">
<!-- Generato da Microsoft Visio 11.0, SVG Export, v1.0 jakartaeett_dt_025.svg Pagina 1 -->
<svg xmlns="http://www.w3.org/2000/svg" xmlns:v="http://schemas.microsoft.com/visio/2003/SVGExtensions/" width="7.31659in"
		height="3.79953in" viewBox="0 0 526.794 273.566" xml:space="preserve" color-interpolation-filters="sRGB" class="st11">
	<v:documentProperties v:langID="1040" v:metric="true" v:viewMarkup="false">
		<v:userDefs>
			<v:ud v:nameU="MBSAAvail" v:prompt="" v:val="VT0(2):26"/>
			<v:ud v:nameU="MBSAAddinEnabled" v:prompt="" v:val="VT0(2):26"/>
			<v:ud v:nameU="MBSAAddinOutlineVisible" v:prompt="" v:val="VT0(1):26"/>
		</v:userDefs>
	</v:documentProperties>

	<style type="text/css">
	<![CDATA[
		.st1 {fill:#ffffff;stroke:none;stroke-linecap:round;stroke-linejoin:round;stroke-width:0.72}
		.st2 {fill:#c8d6e6;stroke:#000000;stroke-linecap:round;stroke-linejoin:round;stroke-width:0.72}
		.st3 {fill:#7395bf;stroke:#000000;stroke-linecap:round;stroke-linejoin:round;stroke-width:0.72}
		.st4 {fill:none;stroke:none;stroke-linecap:round;stroke-linejoin:round;stroke-width:0.72}
		.st5 {fill:#000000;font-family:Arial;font-size:0.666664em}
		.st6 {stroke:#000000;stroke-linecap:round;stroke-linejoin:round;stroke-width:0.72}
		.st7 {fill:#ffffff;stroke:none;stroke-linecap:butt;stroke-width:0.75}
		.st8 {fill:#515150;stroke:none;stroke-linecap:butt;stroke-width:0.75}
		.st9 {fill:#ffffff;stroke:#000000;stroke-linecap:round;stroke-linejoin:round;stroke-width:0.72}
		.st10 {fill:#d2c9de;stroke:#000000;stroke-linecap:round;stroke-linejoin:round;stroke-width:0.72}
		.st11 {fill:none;fill-rule:evenodd;font-size:12;overflow:visible;stroke-linecap:square;stroke-miterlimit:3}
	]]>
	</style>

	<g v:mID="0" v:index="1" v:groupContext="foregroundPage">
		<title>Pagina 1</title>
		<v:pageProperties v:drawingScale="0.0393701" v:pageScale="0.0393701" v:drawingUnits="24" v:shadowOffsetX="8.50394"
				v:shadowOffsetY="-8.50394"/>
		<v:layer v:name="symbols" v:index="0"/>
		<g id="shape1-1" v:mID="1" v:groupContext="shape" transform="translate(0.72,-0.72)">
			<title>Foglio.1</title>
			<rect x="0" y="1.44" width="504.094" height="272.126" class="st1"/>
		</g>
		<g id="shape5-3" v:mID="5" v:groupContext="shape" transform="translate(6.52738,-210.484)">
			<title>Foglio.5</title>
			<rect x="0" y="222.542" width="200.649" height="51.0236" class="st2"/>
		</g>
		<g id="shape2-5" v:mID="2" v:groupContext="shape" transform="translate(6.48378,-244.5)">
			<title>Foglio.2</title>
			<rect x="0" y="256.558" width="200.693" height="17.0079" class="st3"/>
		</g>
		<g id="shape3-7" v:mID="3" v:groupContext="shape" transform="translate(5.91685,-244.5)">
			<title>Foglio.3</title>
			<desc>TEAM_PLAYER</desc>
			<v:textBlock v:margins="rect(4,4,4,4)" v:tabSpace="42.5197"/>
			<v:textRect cx="86.4567" cy="265.062" width="172.92" height="17.0079"/>
			<rect x="0" y="256.558" width="172.913" height="17.0079" class="st4"/>
			<text x="4" y="267.46" class="st5" v:langID="1040"><v:paragraph/><v:tabList/>TEAM_PLAYER</text>		</g>
		<g id="shape4-10" v:mID="4" v:groupContext="shape" transform="translate(17.2554,-227.492)">
			<title>Foglio.4</title>
			<desc>PLAYER_ID VARCHAR(255)</desc>
			<v:textBlock v:margins="rect(4,4,4,4)" v:tabSpace="42.5197"/>
			<v:textRect cx="80.7874" cy="265.062" width="161.58" height="17.0079"/>
			<rect x="0" y="256.558" width="161.575" height="17.0079" class="st4"/>
			<text x="4" y="267.46" class="st5" v:langID="1040"><v:paragraph/><v:tabList/>PLAYER_ID  VARCHAR(255)</text>		</g>
		<g id="shape6-13" v:mID="6" v:groupContext="shape" transform="translate(17.2554,-213.318)">
			<title>Foglio.6</title>
			<desc>TEAM_ID VARCHAR(255)</desc>
			<v:textBlock v:margins="rect(4,4,4,4)" v:tabSpace="42.5197"/>
			<v:textRect cx="80.7874" cy="266.479" width="161.58" height="14.1732"/>
			<rect x="0" y="259.393" width="161.575" height="14.1732" class="st4"/>
			<text x="4" y="268.88" class="st5" v:langID="1040"><v:paragraph/><v:tabList/>TEAM_ID  VARCHAR(255)</text>		</g>
		<g id="shape60-16" v:mID="60" v:groupContext="shape" transform="translate(642.388,-70.9951) rotate(33.6901)">
			<title>Foglio.60</title>
			<path d="M0 273.57 L15.33 273.57" class="st6"/>
		</g>
		<g id="shape61-19" v:mID="61" v:groupContext="shape" transform="translate(642.388,401.254) rotate(-33.6901) scale(1,-1)">
			<title>Foglio.61</title>
			<path d="M0 273.57 L15.33 273.57" class="st6"/>
		</g>
		<g id="shape67-22" v:mID="67" v:groupContext="shape" transform="translate(292.826,-186.389)">
			<title>Foglio.67</title>
			<rect x="0" y="197.031" width="197.815" height="76.5354" class="st2"/>
		</g>
		<g id="shape68-24" v:mID="68" v:groupContext="shape" transform="translate(292.783,-245.917)">
			<title>Foglio.68</title>
			<rect x="0" y="256.558" width="197.858" height="17.0079" class="st3"/>
		</g>
		<g id="shape69-26" v:mID="69" v:groupContext="shape" transform="translate(292.216,-245.917)">
			<title>Foglio.69</title>
			<desc>PLAYER</desc>
			<v:textBlock v:margins="rect(4,4,4,4)" v:tabSpace="42.5197"/>
			<v:textRect cx="32.5984" cy="265.062" width="65.2" height="17.0079"/>
			<rect x="0" y="256.558" width="65.1969" height="17.0079" class="st4"/>
			<text x="4" y="267.46" class="st5" v:langID="1040"><v:paragraph/><v:tabList/>PLAYER</text>		</g>
		<g id="shape70-29" v:mID="70" v:groupContext="shape" transform="translate(303.555,-228.909)">
			<title>Foglio.70</title>
			<desc>ID VARCHAR(255)</desc>
			<v:textBlock v:margins="rect(4,4,4,4)" v:tabSpace="42.5197"/>
			<v:textRect cx="79.3701" cy="265.062" width="158.75" height="17.0079"/>
			<rect x="0" y="256.558" width="158.74" height="17.0079" class="st4"/>
			<text x="4" y="267.46" class="st5" v:langID="1040"><v:paragraph/><v:tabList/>ID  VARCHAR(255)</text>		</g>
		<g id="shape71-32" v:mID="71" v:groupContext="shape" transform="translate(303.555,-217.57)">
			<title>Foglio.71</title>
			<desc>NAME VARCHAR(255)</desc>
			<v:textBlock v:margins="rect(4,4,4,4)" v:tabSpace="42.5197"/>
			<v:textRect cx="73.7008" cy="266.479" width="147.41" height="14.1732"/>
			<rect x="0" y="259.393" width="147.402" height="14.1732" class="st4"/>
			<text x="4" y="268.88" class="st5" v:langID="1040"><v:paragraph/><v:tabList/>NAME  VARCHAR(255)</text>		</g>
		<g id="shape72-35" v:mID="72" v:groupContext="shape" transform="translate(303.555,-203.114)">
			<title>Foglio.72</title>
			<desc>POSITION VARCHAR(255)</desc>
			<v:textBlock v:margins="rect(4,4,4,4)" v:tabSpace="42.5197"/>
			<v:textRect cx="73.7008" cy="266.479" width="147.41" height="14.1732"/>
			<rect x="0" y="259.393" width="147.402" height="14.1732" class="st4"/>
			<text x="4" y="268.88" class="st5" v:langID="1040"><v:paragraph/><v:tabList/>POSITION  VARCHAR(255)</text>		</g>
		<g id="group73-38" transform="translate(71.1764,-99.7276) rotate(-60) scale(-1,1)" v:mID="73" v:groupContext="group"
				v:layerMember="0">
			<title>Key; Permissions.73</title>
			<g id="group74-39" v:mID="74" v:groupContext="group" v:layerMember="0">
				<title>Foglio.74</title>
				<g id="shape75-40" v:mID="75" v:groupContext="shape" v:layerMember="0">
					<title>Foglio.75</title>
					<path d="M1.75 271.77 L1.75 266.64 C0.68 265.99 0 264.84 0 263.6 C0 261.64 1.54 260.05 3.4 260.05 C5.31 260.05
								 6.84 261.66 6.84 263.61 C6.84 265.01 5.94 266.06 5.06 266.62 L5.06 267.75 L4.43 268.43 L5.24 269.29
								 L5.29 269.76 L4.52 270.56 L5.41 271.51 L3.4 273.57 L1.75 271.77 Z" class="st7"/>
				</g>
				<g id="shape76-42" v:mID="76" v:groupContext="shape" v:layerMember="0" transform="translate(0.523747,-0.750703)">
					<title>Foglio.76</title>
					<path d="M5.8 264.37 C5.8 262.69 4.5 261.33 2.9 261.33 C1.29 261.33 0 262.67 0 264.35 C0 265.54 0.75 266.58 1.75
								 267.07 L1.75 272.31 L2.9 273.57 L4.17 272.26 L3.28 271.31 L4.22 270.32 L4.22 270.27 L3.18 269.18
								 L4.02 268.29 L4.02 267.96 L4.02 267.07 C4.98 266.57 5.8 265.55 5.8 264.37 Z M2.88 264.45 C2.37 264.45
								 1.97 264.05 1.97 263.54 C1.97 263.04 2.37 262.64 2.88 262.64 C3.39 262.64 3.79 263.04 3.79 263.54
								 C3.79 264.05 3.39 264.45 2.88 264.45 Z" class="st8"/>
				</g>
			</g>
		</g>
		<g id="shape138-44" v:mID="138" v:groupContext="shape" transform="translate(304.405,-188.657)">
			<title>Foglio.138</title>
			<desc>SALARY DOUBLE(52,0)</desc>
			<v:textBlock v:margins="rect(4,4,4,4)" v:tabSpace="42.5197"/>
			<v:textRect cx="73.7008" cy="266.479" width="147.41" height="14.1732"/>
			<rect x="0" y="259.393" width="147.402" height="14.1732" class="st4"/>
			<text x="4" y="268.88" class="st5" v:langID="1040"><v:paragraph/><v:tabList/>SALARY  DOUBLE(52,0)</text>		</g>
		<g id="shape141-47" v:mID="141" v:groupContext="shape" transform="translate(487.357,-130.682) rotate(45)">
			<title>Foglio.141</title>
			<rect x="0" y="265.491" width="8.07457" height="8.07457" class="st9"/>
		</g>
		<g id="group128-49" transform="translate(-214.171,87.2293) rotate(-60) scale(-1,1)" v:mID="128" v:groupContext="group"
				v:layerMember="0">
			<title>Key; Permissions.128</title>
			<g id="group129-50" v:mID="129" v:groupContext="group" v:layerMember="0">
				<title>Foglio.129</title>
				<g id="shape130-51" v:mID="130" v:groupContext="shape" v:layerMember="0">
					<title>Foglio.130</title>
					<path d="M1.75 271.77 L1.75 266.64 C0.68 265.99 0 264.84 0 263.6 C0 261.64 1.54 260.05 3.4 260.05 C5.31 260.05
								 6.84 261.66 6.84 263.61 C6.84 265.01 5.94 266.06 5.06 266.62 L5.06 267.75 L4.43 268.43 L5.24 269.29
								 L5.29 269.76 L4.52 270.56 L5.41 271.51 L3.4 273.57 L1.75 271.77 Z" class="st7"/>
				</g>
				<g id="shape131-53" v:mID="131" v:groupContext="shape" v:layerMember="0" transform="translate(0.523747,-0.750703)">
					<title>Foglio.131</title>
					<path d="M5.8 264.37 C5.8 262.69 4.5 261.33 2.9 261.33 C1.29 261.33 0 262.67 0 264.35 C0 265.54 0.75 266.58 1.75
								 267.07 L1.75 272.31 L2.9 273.57 L4.17 272.26 L3.28 271.31 L4.22 270.32 L4.22 270.27 L3.18 269.18
								 L4.02 268.29 L4.02 267.96 L4.02 267.07 C4.98 266.57 5.8 265.55 5.8 264.37 Z M2.88 264.45 C2.37 264.45
								 1.97 264.05 1.97 263.54 C1.97 263.04 2.37 262.64 2.88 262.64 C3.39 262.64 3.79 263.04 3.79 263.54
								 C3.79 264.05 3.39 264.45 2.88 264.45 Z" class="st8"/>
				</g>
			</g>
		</g>
		<g id="shape165-55" v:mID="165" v:groupContext="shape" transform="translate(202.01,61.0207) rotate(45)">
			<title>Foglio.165</title>
			<rect x="0" y="265.491" width="8.07457" height="8.07457" class="st9"/>
		</g>
		<g id="shape166-57" v:mID="166" v:groupContext="shape" transform="translate(202.192,45.4302) rotate(45)">
			<title>Foglio.166</title>
			<rect x="0" y="265.491" width="8.07457" height="8.07457" class="st10"/>
		</g>
		<g id="shape167-59" v:mID="167" v:groupContext="shape" transform="translate(22.9247,-44.657)">
			<title>Foglio.167</title>
			<desc>Primary key</desc>
			<v:textBlock v:margins="rect(4,4,4,4)" v:tabSpace="42.5197"/>
			<v:textRect cx="35.4331" cy="267.188" width="70.87" height="12.7559"/>
			<rect x="0" y="260.81" width="70.8661" height="12.7559" class="st4"/>
			<text x="4" y="269.59" class="st5" v:langID="1040"><v:paragraph/><v:tabList/>Primary key</text>		</g>
		<g id="shape169-62" v:mID="169" v:groupContext="shape" transform="translate(22.9247,-28.3578)">
			<title>Foglio.169</title>
			<desc>Foreign key</desc>
			<v:textBlock v:margins="rect(4,4,4,4)" v:tabSpace="42.5197"/>
			<v:textRect cx="35.4331" cy="267.188" width="70.87" height="12.7559"/>
			<rect x="0" y="260.81" width="70.8661" height="12.7559" class="st4"/>
			<text x="4" y="269.59" class="st5" v:langID="1040"><v:paragraph/><v:tabList/>Foreign key</text>		</g>
		<g id="shape170-65" v:mID="170" v:groupContext="shape" transform="translate(22.9247,-12.7672)">
			<title>Foglio.170</title>
			<desc>Field</desc>
			<v:textBlock v:margins="rect(4,4,4,4)" v:tabSpace="42.5197"/>
			<v:textRect cx="35.4331" cy="267.188" width="70.87" height="12.7559"/>
			<rect x="0" y="260.81" width="70.8661" height="12.7559" class="st4"/>
			<text x="4" y="269.59" class="st5" v:langID="1040"><v:paragraph/><v:tabList/>Field</text>		</g>
		<g id="shape35-68" v:mID="35" v:groupContext="shape" transform="translate(240.603,170.515) rotate(-90)">
			<title>Foglio.35</title>
			<ellipse cx="5.38583" cy="268.18" rx="5.38583" ry="5.38583" class="st9"/>
		</g>
		<g id="shape56-70" v:mID="56" v:groupContext="shape" transform="translate(526.074,438.695) rotate(180)">
			<title>Foglio.56</title>
			<path d="M0 273.57 L35.43 273.57" class="st6"/>
		</g>
		<g id="shape7-73" v:mID="7" v:groupContext="shape" transform="translate(201.058,-155.91) rotate(45)">
			<title>Foglio.7</title>
			<rect x="0" y="265.491" width="8.07457" height="8.07457" class="st10"/>
		</g>
		<g id="shape8-75" v:mID="8" v:groupContext="shape" transform="translate(201.018,-140.523) rotate(45)">
			<title>Foglio.8</title>
			<rect x="0" y="265.491" width="8.07457" height="8.07457" class="st10"/>
		</g>
		<g id="shape9-77" v:mID="9" v:groupContext="shape" transform="translate(487.277,-116.225) rotate(45)">
			<title>Foglio.9</title>
			<rect x="0" y="265.491" width="8.07457" height="8.07457" class="st9"/>
		</g>
		<g id="shape10-79" v:mID="10" v:groupContext="shape" transform="translate(487.357,-144.775) rotate(45)">
			<title>Foglio.10</title>
			<rect x="0" y="265.491" width="8.07457" height="8.07457" class="st9"/>
		</g>
		<g id="shape11-81" v:mID="11" v:groupContext="shape" transform="translate(292.826,-98.5153)">
			<title>Foglio.11</title>
			<rect x="0" y="197.031" width="197.815" height="76.5354" class="st2"/>
		</g>
		<g id="shape12-83" v:mID="12" v:groupContext="shape" transform="translate(292.783,-158.043)">
			<title>Foglio.12</title>
			<rect x="0" y="256.558" width="197.858" height="17.0079" class="st3"/>
		</g>
		<g id="shape13-85" v:mID="13" v:groupContext="shape" transform="translate(292.216,-158.043)">
			<title>Foglio.13</title>
			<desc>TEAM</desc>
			<v:textBlock v:margins="rect(4,4,4,4)" v:tabSpace="42.5197"/>
			<v:textRect cx="32.5984" cy="265.062" width="65.2" height="17.0079"/>
			<rect x="0" y="256.558" width="65.1969" height="17.0079" class="st4"/>
			<text x="4" y="267.46" class="st5" v:langID="1040"><v:paragraph/><v:tabList/>TEAM</text>		</g>
		<g id="shape37-88" v:mID="37" v:groupContext="shape" transform="translate(303.555,-141.035)">
			<title>Foglio.37</title>
			<desc>ID VARCHAR(255)</desc>
			<v:textBlock v:margins="rect(4,4,4,4)" v:tabSpace="42.5197"/>
			<v:textRect cx="79.3701" cy="265.062" width="158.75" height="17.0079"/>
			<rect x="0" y="256.558" width="158.74" height="17.0079" class="st4"/>
			<text x="4" y="267.46" class="st5" v:langID="1040"><v:paragraph/><v:tabList/>ID  VARCHAR(255)</text>		</g>
		<g id="shape38-91" v:mID="38" v:groupContext="shape" transform="translate(303.555,-129.696)">
			<title>Foglio.38</title>
			<desc>CITY VARCHAR(255)</desc>
			<v:textBlock v:margins="rect(4,4,4,4)" v:tabSpace="42.5197"/>
			<v:textRect cx="73.7008" cy="266.479" width="147.41" height="14.1732"/>
			<rect x="0" y="259.393" width="147.402" height="14.1732" class="st4"/>
			<text x="4" y="268.88" class="st5" v:langID="1040"><v:paragraph/><v:tabList/>CITY  VARCHAR(255)</text>		</g>
		<g id="shape39-94" v:mID="39" v:groupContext="shape" transform="translate(303.555,-115.24)">
			<title>Foglio.39</title>
			<desc>NAME VARCHAR(255)</desc>
			<v:textBlock v:margins="rect(4,4,4,4)" v:tabSpace="42.5197"/>
			<v:textRect cx="73.7008" cy="266.479" width="147.41" height="14.1732"/>
			<rect x="0" y="259.393" width="147.402" height="14.1732" class="st4"/>
			<text x="4" y="268.88" class="st5" v:langID="1040"><v:paragraph/><v:tabList/>NAME  VARCHAR(255)</text>		</g>
		<g id="group40-97" transform="translate(71.1764,-11.8535) rotate(-60) scale(-1,1)" v:mID="40" v:groupContext="group"
				v:layerMember="0">
			<title>Key; Permissions.40</title>
			<g id="group41-98" v:mID="41" v:groupContext="group" v:layerMember="0">
				<title>Foglio.41</title>
				<g id="shape43-99" v:mID="43" v:groupContext="shape" v:layerMember="0">
					<title>Foglio.43</title>
					<path d="M1.75 271.77 L1.75 266.64 C0.68 265.99 0 264.84 0 263.6 C0 261.64 1.54 260.05 3.4 260.05 C5.31 260.05
								 6.84 261.66 6.84 263.61 C6.84 265.01 5.94 266.06 5.06 266.62 L5.06 267.75 L4.43 268.43 L5.24 269.29
								 L5.29 269.76 L4.52 270.56 L5.41 271.51 L3.4 273.57 L1.75 271.77 Z" class="st7"/>
				</g>
				<g id="shape44-101" v:mID="44" v:groupContext="shape" v:layerMember="0" transform="translate(0.523747,-0.750703)">
					<title>Foglio.44</title>
					<path d="M5.8 264.37 C5.8 262.69 4.5 261.33 2.9 261.33 C1.29 261.33 0 262.67 0 264.35 C0 265.54 0.75 266.58 1.75
								 267.07 L1.75 272.31 L2.9 273.57 L4.17 272.26 L3.28 271.31 L4.22 270.32 L4.22 270.27 L3.18 269.18
								 L4.02 268.29 L4.02 267.96 L4.02 267.07 C4.98 266.57 5.8 265.55 5.8 264.37 Z M2.88 264.45 C2.37 264.45
								 1.97 264.05 1.97 263.54 C1.97 263.04 2.37 262.64 2.88 262.64 C3.39 262.64 3.79 263.04 3.79 263.54
								 C3.79 264.05 3.39 264.45 2.88 264.45 Z" class="st8"/>
				</g>
			</g>
		</g>
		<g id="shape49-103" v:mID="49" v:groupContext="shape" transform="translate(304.405,-100.783)">
			<title>Foglio.49</title>
			<desc>LEAGUE_ID VARCHAR(255)</desc>
			<v:textBlock v:margins="rect(4,4,4,4)" v:tabSpace="42.5197"/>
			<v:textRect cx="73.7008" cy="266.479" width="147.41" height="14.1732"/>
			<rect x="0" y="259.393" width="147.402" height="14.1732" class="st4"/>
			<text x="4" y="268.88" class="st5" v:langID="1040"><v:paragraph/><v:tabList/>LEAGUE_ID  VARCHAR(255)</text>		</g>
		<g id="shape54-106" v:mID="54" v:groupContext="shape" transform="translate(487.357,-42.8079) rotate(45)">
			<title>Foglio.54</title>
			<rect x="0" y="265.491" width="8.07457" height="8.07457" class="st9"/>
		</g>
		<g id="shape58-108" v:mID="58" v:groupContext="shape" transform="translate(487.277,-28.3512) rotate(45)">
			<title>Foglio.58</title>
			<rect x="0" y="265.491" width="8.07457" height="8.07457" class="st10"/>
		</g>
		<g id="shape62-110" v:mID="62" v:groupContext="shape" transform="translate(487.357,-56.9005) rotate(45)">
			<title>Foglio.62</title>
			<rect x="0" y="265.491" width="8.07457" height="8.07457" class="st9"/>
		</g>
		<g id="shape64-112" v:mID="64" v:groupContext="shape" transform="translate(292.826,-12.0586)">
			<title>Foglio.64</title>
			<rect x="0" y="197.031" width="197.815" height="76.5354" class="st2"/>
		</g>
		<g id="shape65-114" v:mID="65" v:groupContext="shape" transform="translate(292.783,-71.5861)">
			<title>Foglio.65</title>
			<rect x="0" y="256.558" width="197.858" height="17.0079" class="st3"/>
		</g>
		<g id="shape66-116" v:mID="66" v:groupContext="shape" transform="translate(292.216,-71.5861)">
			<title>Foglio.66</title>
			<desc>LEAGUE</desc>
			<v:textBlock v:margins="rect(4,4,4,4)" v:tabSpace="42.5197"/>
			<v:textRect cx="32.5984" cy="265.062" width="65.2" height="17.0079"/>
			<rect x="0" y="256.558" width="65.1969" height="17.0079" class="st4"/>
			<text x="4" y="267.46" class="st5" v:langID="1040"><v:paragraph/><v:tabList/>LEAGUE</text>		</g>
		<g id="shape77-119" v:mID="77" v:groupContext="shape" transform="translate(303.555,-54.5783)">
			<title>Foglio.77</title>
			<desc>ID VARCHAR(255)</desc>
			<v:textBlock v:margins="rect(4,4,4,4)" v:tabSpace="42.5197"/>
			<v:textRect cx="79.3701" cy="265.062" width="158.75" height="17.0079"/>
			<rect x="0" y="256.558" width="158.74" height="17.0079" class="st4"/>
			<text x="4" y="267.46" class="st5" v:langID="1040"><v:paragraph/><v:tabList/>ID  VARCHAR(255)</text>		</g>
		<g id="shape78-122" v:mID="78" v:groupContext="shape" transform="translate(303.555,-43.2397)">
			<title>Foglio.78</title>
			<desc>DTYPE VARCHAR(31)</desc>
			<v:textBlock v:margins="rect(4,4,4,4)" v:tabSpace="42.5197"/>
			<v:textRect cx="73.7008" cy="266.479" width="147.41" height="14.1732"/>
			<rect x="0" y="259.393" width="147.402" height="14.1732" class="st4"/>
			<text x="4" y="268.88" class="st5" v:langID="1040"><v:paragraph/><v:tabList/>DTYPE  VARCHAR(31)</text>		</g>
		<g id="shape79-125" v:mID="79" v:groupContext="shape" transform="translate(303.555,-28.783)">
			<title>Foglio.79</title>
			<desc>NAME VARCHAR(255)</desc>
			<v:textBlock v:margins="rect(4,4,4,4)" v:tabSpace="42.5197"/>
			<v:textRect cx="73.7008" cy="266.479" width="147.41" height="14.1732"/>
			<rect x="0" y="259.393" width="147.402" height="14.1732" class="st4"/>
			<text x="4" y="268.88" class="st5" v:langID="1040"><v:paragraph/><v:tabList/>NAME  VARCHAR(255)</text>		</g>
		<g id="group80-128" transform="translate(71.1764,74.6032) rotate(-60) scale(-1,1)" v:mID="80" v:groupContext="group"
				v:layerMember="0">
			<title>Key; Permissions.80</title>
			<g id="group81-129" v:mID="81" v:groupContext="group" v:layerMember="0">
				<title>Foglio.81</title>
				<g id="shape82-130" v:mID="82" v:groupContext="shape" v:layerMember="0">
					<title>Foglio.82</title>
					<path d="M1.75 271.77 L1.75 266.64 C0.68 265.99 0 264.84 0 263.6 C0 261.64 1.54 260.05 3.4 260.05 C5.31 260.05
								 6.84 261.66 6.84 263.61 C6.84 265.01 5.94 266.06 5.06 266.62 L5.06 267.75 L4.43 268.43 L5.24 269.29
								 L5.29 269.76 L4.52 270.56 L5.41 271.51 L3.4 273.57 L1.75 271.77 Z" class="st7"/>
				</g>
				<g id="shape83-132" v:mID="83" v:groupContext="shape" v:layerMember="0" transform="translate(0.523747,-0.750703)">
					<title>Foglio.83</title>
					<path d="M5.8 264.37 C5.8 262.69 4.5 261.33 2.9 261.33 C1.29 261.33 0 262.67 0 264.35 C0 265.54 0.75 266.58 1.75
								 267.07 L1.75 272.31 L2.9 273.57 L4.17 272.26 L3.28 271.31 L4.22 270.32 L4.22 270.27 L3.18 269.18
								 L4.02 268.29 L4.02 267.96 L4.02 267.07 C4.98 266.57 5.8 265.55 5.8 264.37 Z M2.88 264.45 C2.37 264.45
								 1.97 264.05 1.97 263.54 C1.97 263.04 2.37 262.64 2.88 262.64 C3.39 262.64 3.79 263.04 3.79 263.54
								 C3.79 264.05 3.39 264.45 2.88 264.45 Z" class="st8"/>
				</g>
			</g>
		</g>
		<g id="shape84-134" v:mID="84" v:groupContext="shape" transform="translate(304.405,-14.3263)">
			<title>Foglio.84</title>
			<desc>SPORT VARCHAR(255)</desc>
			<v:textBlock v:margins="rect(4,4,4,4)" v:tabSpace="42.5197"/>
			<v:textRect cx="73.7008" cy="266.479" width="147.41" height="14.1732"/>
			<rect x="0" y="259.393" width="147.402" height="14.1732" class="st4"/>
			<text x="4" y="268.88" class="st5" v:langID="1040"><v:paragraph/><v:tabList/>SPORT  VARCHAR(255)</text>		</g>
		<g id="shape85-137" v:mID="85" v:groupContext="shape" transform="translate(487.357,43.6488) rotate(45)">
			<title>Foglio.85</title>
			<rect x="0" y="265.491" width="8.07457" height="8.07457" class="st9"/>
		</g>
		<g id="shape86-139" v:mID="86" v:groupContext="shape" transform="translate(487.277,58.1055) rotate(45)">
			<title>Foglio.86</title>
			<rect x="0" y="265.491" width="8.07457" height="8.07457" class="st9"/>
		</g>
		<g id="shape87-141" v:mID="87" v:groupContext="shape" transform="translate(487.357,29.5561) rotate(45)">
			<title>Foglio.87</title>
			<rect x="0" y="265.491" width="8.07457" height="8.07457" class="st9"/>
		</g>
		<g id="shape88-143" v:mID="88" v:groupContext="shape" transform="translate(-63.5546,43.2397) rotate(-90)">
			<title>Foglio.88</title>
			<path d="M0 273.57 L14.17 273.57" class="st6"/>
		</g>
		<g id="shape89-146" v:mID="89" v:groupContext="shape" transform="translate(484.003,30.7672) rotate(90)">
			<title>Foglio.89</title>
			<ellipse cx="5.38583" cy="268.18" rx="5.38583" ry="5.38583" class="st9"/>
		</g>
		<g id="shape90-148" v:mID="90" v:groupContext="shape" transform="translate(292.826,309.719) rotate(180)">
			<title>Foglio.90</title>
			<path d="M0 273.57 L85.65 273.57" class="st6"/>
		</g>
		<g id="shape14-151" v:mID="14" v:groupContext="shape" transform="translate(-63.5546,61.6649) rotate(-90)">
			<title>Foglio.14</title>
			<path d="M0 273.57 L14.17 273.57" class="st6"/>
		</g>
		<g id="shape15-154" v:mID="15" v:groupContext="shape" transform="translate(484.003,49.1924) rotate(90)">
			<title>Foglio.15</title>
			<ellipse cx="5.38583" cy="268.18" rx="5.38583" ry="5.38583" class="st9"/>
		</g>
		<g id="shape16-156" v:mID="16" v:groupContext="shape" transform="translate(255.366,328.144) rotate(180)">
			<title>Foglio.16</title>
			<path d="M0 273.57 L48.19 273.57" class="st6"/>
		</g>
		<g id="shape17-159" v:mID="17" v:groupContext="shape" transform="translate(292.216,397.593) rotate(180)">
			<title>Foglio.17</title>
			<path d="M0 273.57 L36.85 273.57" class="st6"/>
		</g>
		<g id="shape18-162" v:mID="18" v:groupContext="shape" transform="translate(528.932,54.5783) rotate(90)">
			<title>Foglio.18</title>
			<path d="M0 273.57 L69.45 273.57" class="st6"/>
		</g>
		<g id="shape19-165" v:mID="19" v:groupContext="shape" transform="translate(526.074,481.215) rotate(180)">
			<title>Foglio.19</title>
			<path d="M0 273.57 L35.43 273.57" class="st6"/>
		</g>
		<g id="shape20-168" v:mID="20" v:groupContext="shape" transform="translate(799.64,165.129) rotate(90)">
			<title>Foglio.20</title>
			<path d="M0 273.57 L42.52 273.57" class="st6"/>
		</g>
	</g>
</svg>
