<?xml version="1.0" encoding="UTF-8" standalone="no"?>
<!DOCTYPE svg PUBLIC "-//W3C//DTD SVG 1.0//EN" "http://www.w3.org/TR/2001/REC-SVG-20010904/DTD/svg10.dtd">
<!-- Generato da Microsoft Visio 11.0, SVG Export, v1.0 jakartaeett_dt_034.svg Pagina 1 -->
<svg xmlns="http://www.w3.org/2000/svg" xmlns:v="http://schemas.microsoft.com/visio/2003/SVGExtensions/" width="4.66567in"
		height="3.95701in" viewBox="0 0 335.928 284.905" xml:space="preserve" color-interpolation-filters="sRGB" class="st12">
	<v:documentProperties v:langID="1040" v:metric="true" v:viewMarkup="false">
		<v:userDefs>
			<v:ud v:nameU="MBSAAvail" v:prompt="" v:val="VT0(2):26"/>
			<v:ud v:nameU="MBSAAddinEnabled" v:prompt="" v:val="VT0(2):26"/>
			<v:ud v:nameU="MBSAAddinOutlineVisible" v:prompt="" v:val="VT0(1):26"/>
		</v:userDefs>
	</v:documentProperties>

	<style type="text/css">
	<![CDATA[
		.st1 {fill:#ffffff;stroke:none;stroke-linecap:round;stroke-linejoin:round;stroke-width:0.72}
		.st2 {fill:#c8d6e6;stroke:#000000;stroke-linecap:round;stroke-linejoin:round;stroke-width:0.72}
		.st3 {fill:none;stroke:none;stroke-linecap:round;stroke-linejoin:round;stroke-width:0.72}
		.st4 {fill:#000000;font-family:Arial;font-size:0.666664em}
		.st5 {fill:#000000;stroke:#000000;stroke-linecap:round;stroke-linejoin:round;stroke-width:0.72}
		.st6 {stroke:#000000;stroke-linecap:round;stroke-linejoin:round;stroke-width:0.72}
		.st7 {font-size:1em}
		.st8 {fill:#ffffff;stroke:#000000;stroke-linecap:round;stroke-linejoin:round;stroke-width:0.72}
		.st9 {fill:#000000;font-family:Arial;font-size:0.666664em;font-weight:bold}
		.st10 {fill:#ffffff;stroke:none;stroke-linecap:butt;stroke-width:0.75}
		.st11 {fill:#7395bf;stroke:none;stroke-linecap:butt;stroke-width:0.75}
		.st12 {fill:none;fill-rule:evenodd;font-size:12;overflow:visible;stroke-linecap:square;stroke-miterlimit:3}
	]]>
	</style>

	<g v:mID="0" v:index="1" v:groupContext="foregroundPage">
		<title>Pagina 1</title>
		<v:pageProperties v:drawingScale="0.0393701" v:pageScale="0.0393701" v:drawingUnits="24" v:shadowOffsetX="8.50394"
				v:shadowOffsetY="-8.50394"/>
		<v:layer v:name="symbols" v:index="0"/>
		<g id="shape36-1" v:mID="36" v:groupContext="shape" transform="translate(0.72,-0.72)">
			<title>Foglio.36</title>
			<rect x="0" y="1.44" width="334.488" height="283.465" class="st1"/>
		</g>
		<g id="shape9-3" v:mID="9" v:groupContext="shape" transform="translate(3.62924,-162.295)">
			<title>Foglio.9</title>
			<rect x="0" y="262.227" width="46.7717" height="22.6772" class="st2"/>
		</g>
		<g id="shape1-5" v:mID="1" v:groupContext="shape" transform="translate(3.62924,-162.295)">
			<title>Foglio.1</title>
			<desc>Retailer</desc>
			<v:textBlock v:margins="rect(4,4,4,4)" v:tabSpace="42.5197"/>
			<v:textRect cx="18.5528" cy="273.566" width="37.11" height="22.6772"/>
			<rect x="0" y="262.227" width="37.1055" height="22.6772" class="st3"/>
			<text x="4.77" y="275.97" class="st4" v:langID="1040"><v:paragraph v:horizAlign="1"/><v:tabList/>Retailer</text>		</g>
		<g id="shape6-8" v:mID="6" v:groupContext="shape" transform="translate(341.184,54.5783) rotate(90) scale(-1,1)">
			<title>Foglio.6</title>
			<path d="M5.67 284.9 L0 284.9 L2.83 275.27 L5.67 284.9 Z" class="st5"/>
		</g>
		<g id="shape7-10" v:mID="7" v:groupContext="shape" transform="translate(65.9169,-233.161) scale(-1,1)">
			<title>Foglio.7</title>
			<path d="M0 284.9 L39.69 284.9" class="st6"/>
		</g>
		<g id="shape8-13" v:mID="8" v:groupContext="shape" transform="translate(-258.673,51.7436) rotate(-90) scale(-1,1)">
			<title>Foglio.8</title>
			<path d="M0 284.9 L48.19 284.9" class="st6"/>
		</g>
		<g id="shape57-16" v:mID="57" v:groupContext="shape" transform="translate(53.7243,-261.507)">
			<title>Foglio.57</title>
			<desc>Vendor OrderQ</desc>
			<v:textBlock v:margins="rect(4,4,4,4)" v:tabSpace="42.5197"/>
			<v:textRect cx="23.5311" cy="275.607" width="47.07" height="18.5953"/>
			<rect x="0" y="266.309" width="47.0622" height="18.5953" class="st3"/>
			<text x="10.63" y="273.21" class="st4" v:langID="1040"><v:paragraph v:horizAlign="1"/><v:tabList/>Vendor<v:newlineChar/><tspan
						x="10.2" dy="1.2em" class="st7">OrderQ</tspan></text>		</g>
		<g id="shape17-20" v:mID="17" v:groupContext="shape" transform="translate(175.905,-261.507)">
			<title>Foglio.17</title>
			<desc>Supplier Order Topic</desc>
			<v:textBlock v:margins="rect(4,4,4,4)" v:tabSpace="42.5197"/>
			<v:textRect cx="27.7831" cy="275.607" width="55.57" height="18.5953"/>
			<rect x="0" y="266.309" width="55.5661" height="18.5953" class="st3"/>
			<text x="13.11" y="273.21" class="st4" v:langID="1040"><v:paragraph v:horizAlign="1"/><v:tabList/>Supplier<v:newlineChar/><tspan
						x="6.67" dy="1.2em" class="st7">Order Topic</tspan></text>		</g>
		<g id="shape18-24" v:mID="18" v:groupContext="shape" transform="translate(270.011,-221.822)">
			<title>Foglio.18</title>
			<rect x="0" y="262.227" width="56.6929" height="22.6772" class="st2"/>
		</g>
		<g id="shape19-26" v:mID="19" v:groupContext="shape" transform="translate(270.011,-221.822)">
			<title>Foglio.19</title>
			<desc>Supplier 1</desc>
			<v:textBlock v:margins="rect(4,4,4,4)" v:tabSpace="42.5197"/>
			<v:textRect cx="24.0945" cy="273.566" width="48.19" height="22.6772"/>
			<rect x="0" y="262.227" width="48.189" height="22.6772" class="st3"/>
			<text x="6.08" y="275.97" class="st4" v:langID="1040"><v:paragraph v:horizAlign="1"/><v:tabList/>Supplier 1</text>		</g>
		<g id="shape20-29" v:mID="20" v:groupContext="shape" transform="translate(127.57,-162.295)">
			<title>Foglio.20</title>
			<rect x="0" y="262.227" width="46.7717" height="22.6772" class="st2"/>
		</g>
		<g id="shape21-31" v:mID="21" v:groupContext="shape" transform="translate(127.57,-162.295)">
			<title>Foglio.21</title>
			<desc>Vendor</desc>
			<v:textBlock v:margins="rect(4,4,4,4)" v:tabSpace="42.5197"/>
			<v:textRect cx="18.5528" cy="273.566" width="37.11" height="22.6772"/>
			<rect x="0" y="262.227" width="37.1055" height="22.6772" class="st3"/>
			<text x="5.65" y="275.97" class="st4" v:langID="1040"><v:paragraph v:horizAlign="1"/><v:tabList/>Vendor</text>		</g>
		<g id="shape32-34" v:mID="32" v:groupContext="shape" transform="translate(54.5783,-69.772)">
			<title>Foglio.32</title>
			<desc>Retailer ConfirmQ</desc>
			<v:textBlock v:margins="rect(4,4,4,4)" v:tabSpace="42.5197"/>
			<v:textRect cx="23.5311" cy="275.607" width="47.07" height="18.5953"/>
			<rect x="0" y="266.309" width="47.0622" height="18.5953" class="st3"/>
			<text x="9.75" y="273.21" class="st4" v:langID="1040"><v:paragraph v:horizAlign="1"/><v:tabList/>Retailer<v:newlineChar/><tspan
						x="6.42" dy="1.2em" class="st7">ConfirmQ</tspan></text>		</g>
		<g id="shape44-38" v:mID="44" v:groupContext="shape" transform="translate(173.633,-69.772)">
			<title>Foglio.44</title>
			<desc>Vendor ConfirmQ</desc>
			<v:textBlock v:margins="rect(4,4,4,4)" v:tabSpace="42.5197"/>
			<v:textRect cx="27.7831" cy="275.607" width="55.57" height="18.5953"/>
			<rect x="0" y="266.309" width="55.5661" height="18.5953" class="st3"/>
			<text x="14.88" y="273.21" class="st4" v:langID="1040"><v:paragraph v:horizAlign="1"/><v:tabList/>Vendor<v:newlineChar/><tspan
						x="10.67" dy="1.2em" class="st7">ConfirmQ</tspan></text>		</g>
		<g id="shape45-42" v:mID="45" v:groupContext="shape" transform="translate(270.011,-101.747)">
			<title>Foglio.45</title>
			<rect x="0" y="262.227" width="56.6929" height="22.6772" class="st2"/>
		</g>
		<g id="shape46-44" v:mID="46" v:groupContext="shape" transform="translate(270.011,-101.747)">
			<title>Foglio.46</title>
			<desc>Supplier 1</desc>
			<v:textBlock v:margins="rect(4,4,4,4)" v:tabSpace="42.5197"/>
			<v:textRect cx="24.0945" cy="273.566" width="48.19" height="22.6772"/>
			<rect x="0" y="262.227" width="48.189" height="22.6772" class="st3"/>
			<text x="6.08" y="275.97" class="st4" v:langID="1040"><v:paragraph v:horizAlign="1"/><v:tabList/>Supplier 1</text>		</g>
		<g id="shape66-47" v:mID="66" v:groupContext="shape" transform="translate(64.6169,454.986) rotate(178.843)">
			<title>Foglio.66</title>
			<path d="M0 284.9 L32.64 284.9" class="st6"/>
		</g>
		<g id="shape67-50" v:mID="67" v:groupContext="shape" transform="translate(-258.673,170.799) rotate(-90)">
			<title>Foglio.67</title>
			<path d="M0 284.9 L48.19 284.9" class="st6"/>
		</g>
		<g id="shape68-53" v:mID="68" v:groupContext="shape" transform="translate(57.1181,-110.317)">
			<title>Foglio.68</title>
			<ellipse cx="3.69641" cy="281.116" rx="3.69641" ry="3.78882" class="st5"/>
		</g>
		<g id="shape69-55" v:mID="69" v:groupContext="shape" transform="translate(181.429,-110.563)">
			<title>Foglio.69</title>
			<rect x="0" y="277.818" width="7.08661" height="7.08661" class="st5"/>
		</g>
		<g id="shape73-57" v:mID="73" v:groupContext="shape" transform="translate(33.273,-227.492)">
			<title>Foglio.73</title>
			<ellipse cx="5.69203" cy="279.07" rx="5.69203" ry="5.83433" class="st8"/>
		</g>
		<g id="shape74-59" v:mID="74" v:groupContext="shape" transform="translate(32.2154,-227.822)">
			<title>Foglio.74</title>
			<desc>1</desc>
			<v:textBlock v:margins="rect(4,4,4,4)"/>
			<v:textRect cx="4.49727" cy="280.407" width="9" height="8.99455"/>
			<rect x="0" y="275.91" width="8.99455" height="8.99455" class="st3"/>
			<text x="4" y="282.81" class="st9" v:langID="1040"><v:paragraph v:spBefore="5" v:spAfter="5" v:bulletSize="0.166667"/><v:tabList/>1</text>		</g>
		<g id="shape75-62" v:mID="75" v:groupContext="shape" transform="translate(33.273,-108.271)">
			<title>Foglio.75</title>
			<ellipse cx="5.69203" cy="279.07" rx="5.69203" ry="5.83433" class="st8"/>
		</g>
		<g id="shape76-64" v:mID="76" v:groupContext="shape" transform="translate(31.6176,-108.678)">
			<title>Foglio.76</title>
			<desc>6</desc>
			<v:textBlock v:margins="rect(4,4,4,4)"/>
			<v:textRect cx="4.49727" cy="280.407" width="9" height="8.99455"/>
			<rect x="0" y="275.91" width="8.99455" height="8.99455" class="st3"/>
			<text x="4" y="282.81" class="st9" v:langID="1040"><v:paragraph v:spBefore="5" v:spAfter="5" v:bulletSize="0.166667"/><v:tabList/>6</text>		</g>
		<g id="shape77-67" v:mID="77" v:groupContext="shape" transform="translate(465.908,54.6608) rotate(90) scale(-1,1)">
			<title>Foglio.77</title>
			<path d="M5.67 284.9 L0 284.9 L2.83 275.27 L5.67 284.9 Z" class="st5"/>
		</g>
		<g id="shape78-69" v:mID="78" v:groupContext="shape" transform="translate(190.641,-233.078) scale(-1,1)">
			<title>Foglio.78</title>
			<path d="M0 284.9 L39.69 284.9" class="st6"/>
		</g>
		<g id="shape79-72" v:mID="79" v:groupContext="shape" transform="translate(-133.948,51.8261) rotate(-90) scale(-1,1)">
			<title>Foglio.79</title>
			<path d="M0 284.9 L48.19 284.9" class="st6"/>
		</g>
		<g id="shape80-75" v:mID="80" v:groupContext="shape" transform="translate(187.807,455.786) rotate(180)">
			<title>Foglio.80</title>
			<path d="M0 284.9 L36.85 284.9" class="st6"/>
		</g>
		<g id="shape81-78" v:mID="81" v:groupContext="shape" transform="translate(-133.948,170.881) rotate(-90)">
			<title>Foglio.81</title>
			<path d="M0 284.9 L48.19 284.9" class="st6"/>
		</g>
		<g id="shape83-81" v:mID="83" v:groupContext="shape" transform="translate(156.626,-224.657)">
			<title>Foglio.83</title>
			<ellipse cx="7.93701" cy="276.769" rx="7.93701" ry="8.13543" class="st8"/>
		</g>
		<g id="shape84-83" v:mID="84" v:groupContext="shape" transform="translate(154.956,-228.418)">
			<title>Foglio.84</title>
			<desc>2b</desc>
			<v:textBlock v:margins="rect(4,4,4,4)"/>
			<v:textRect cx="9.05544" cy="280.407" width="18.12" height="8.99455"/>
			<rect x="0" y="275.91" width="18.1109" height="8.99455" class="st3"/>
			<text x="4" y="282.81" class="st9" v:langID="1040"><v:paragraph v:spBefore="5" v:spAfter="5" v:bulletSize="0.166667"/><v:tabList/>2b</text>		</g>
		<g id="shape85-86" v:mID="85" v:groupContext="shape" transform="translate(157.997,-108.189)">
			<title>Foglio.85</title>
			<ellipse cx="5.69203" cy="279.07" rx="5.69203" ry="5.83433" class="st8"/>
		</g>
		<g id="shape86-88" v:mID="86" v:groupContext="shape" transform="translate(156.342,-108.595)">
			<title>Foglio.86</title>
			<desc>4</desc>
			<v:textBlock v:margins="rect(4,4,4,4)"/>
			<v:textRect cx="4.49727" cy="280.407" width="9" height="8.99455"/>
			<rect x="0" y="275.91" width="8.99455" height="8.99455" class="st3"/>
			<text x="4" y="282.81" class="st9" v:langID="1040"><v:paragraph v:spBefore="5" v:spAfter="5" v:bulletSize="0.166667"/><v:tabList/>4</text>		</g>
		<g id="shape87-91" v:mID="87" v:groupContext="shape" transform="translate(-172.5,173.633) rotate(-90)">
			<title>Foglio.87</title>
			<path d="M5.67 284.9 L0 284.9 L2.83 275.27 L5.67 284.9 Z" class="st5"/>
		</g>
		<g id="shape88-93" v:mID="88" v:groupContext="shape" transform="translate(107.019,-233.321)">
			<title>Foglio.88</title>
			<path d="M0 284.9 L35.43 284.9" class="st6"/>
		</g>
		<g id="shape89-96" v:mID="89" v:groupContext="shape" transform="translate(427.357,51.7436) rotate(90)">
			<title>Foglio.89</title>
			<path d="M0 284.9 L48.19 284.9" class="st6"/>
		</g>
		<g id="shape90-99" v:mID="90" v:groupContext="shape" transform="translate(102.332,454.956) rotate(1.42968) scale(1,-1)">
			<title>Foglio.90</title>
			<path d="M0 284.9 L33.02 284.9" class="st6"/>
		</g>
		<g id="shape91-102" v:mID="91" v:groupContext="shape" transform="translate(427.357,170.964) rotate(90) scale(-1,1)">
			<title>Foglio.91</title>
			<path d="M0 284.9 L47.62 284.9" class="st6"/>
		</g>
		<g id="shape92-105" v:mID="92" v:groupContext="shape" transform="translate(136.783,-224.827) scale(-1,1)">
			<title>Foglio.92</title>
			<ellipse cx="7.93701" cy="276.769" rx="7.93701" ry="8.13543" class="st8"/>
		</g>
		<g id="shape93-107" v:mID="93" v:groupContext="shape" transform="translate(137.886,-228.661) scale(-1,1)">
			<title>Foglio.93</title>
			<desc>2a</desc>
			<v:textBlock v:margins="rect(4,4,4,4)"/>
			<v:textRect cx="9.05544" cy="280.407" width="18.12" height="8.99455"/>
			<rect x="0" y="275.91" width="18.1109" height="8.99455" class="st3"/>
			<text x="-14.11" y="282.81" transform="scale(-1,1)" class="st9" v:langID="1040"><v:paragraph v:spBefore="5"
						v:spAfter="5" v:bulletSize="0.166667"/><v:tabList/>2a</text>		</g>
		<g id="shape94-110" v:mID="94" v:groupContext="shape" transform="translate(135.411,-108.106) scale(-1,1)">
			<title>Foglio.94</title>
			<ellipse cx="5.69203" cy="279.07" rx="5.69203" ry="5.83433" class="st8"/>
		</g>
		<g id="shape95-112" v:mID="95" v:groupContext="shape" transform="translate(131.359,-108.513) scale(-1,1)">
			<title>Foglio.95</title>
			<desc>5</desc>
			<v:textBlock v:margins="rect(4,4,4,4)"/>
			<v:textRect cx="4.49727" cy="280.407" width="9" height="8.99455"/>
			<rect x="0" y="275.91" width="8.99455" height="8.99455" class="st3"/>
			<text x="-4.99" y="282.81" transform="scale(-1,1)" class="st9" v:langID="1040"><v:paragraph v:spBefore="5"
						v:spAfter="5" v:bulletSize="0.166667"/><v:tabList/>5</text>		</g>
		<g id="shape96-115" v:mID="96" v:groupContext="shape" transform="translate(103.606,-229.372)">
			<title>Foglio.96</title>
			<ellipse cx="3.69641" cy="281.116" rx="3.69641" ry="3.78882" class="st5"/>
		</g>
		<g id="shape82-117" v:mID="82" v:groupContext="shape" transform="translate(232.033,-232.795)">
			<title>Foglio.82</title>
			<path d="M0 284.9 L37.98 284.9" class="st6"/>
		</g>
		<g id="shape99-120" v:mID="99" v:groupContext="shape" transform="translate(228.336,-228.846)">
			<title>Foglio.99</title>
			<ellipse cx="3.69641" cy="281.116" rx="3.69641" ry="3.78882" class="st5"/>
		</g>
		<g id="shape62-122" v:mID="62" v:groupContext="shape" transform="translate(248.108,-226.925)">
			<title>Foglio.62</title>
			<ellipse cx="5.69203" cy="279.07" rx="5.69203" ry="5.83433" class="st8"/>
		</g>
		<g id="shape63-124" v:mID="63" v:groupContext="shape" transform="translate(247.334,-227.568)">
			<title>Foglio.63</title>
			<desc>3</desc>
			<v:textBlock v:margins="rect(4,4,4,4)"/>
			<v:textRect cx="4.49727" cy="280.407" width="9" height="8.99455"/>
			<rect x="0" y="275.91" width="8.99455" height="8.99455" class="st3"/>
			<text x="4" y="282.81" class="st9" v:langID="1040"><v:paragraph v:spBefore="5" v:spAfter="5" v:bulletSize="0.166667"/><v:tabList/>3</text>		</g>
		<g id="shape97-127" v:mID="97" v:groupContext="shape" transform="translate(492.849,77.0545) rotate(90)">
			<title>Foglio.97</title>
			<path d="M0 284.9 L20.04 284.9" class="st6"/>
		</g>
		<g id="shape98-130" v:mID="98" v:groupContext="shape" transform="translate(204.248,-203.901)">
			<title>Foglio.98</title>
			<ellipse cx="3.69641" cy="281.116" rx="3.69641" ry="3.78882" class="st5"/>
		</g>
		<g id="shape102-132" v:mID="102" v:groupContext="shape" transform="translate(207.944,-187.807)">
			<title>Foglio.102</title>
			<path d="M0 284.9 L88.15 284.9" class="st6"/>
		</g>
		<g id="shape103-135" v:mID="103" v:groupContext="shape" transform="translate(580.995,97.098) rotate(90)">
			<title>Foglio.103</title>
			<path d="M0 284.9 L63.38 284.9" class="st6"/>
		</g>
		<g id="shape100-138" v:mID="100" v:groupContext="shape" transform="translate(248.706,-181.972)">
			<title>Foglio.100</title>
			<ellipse cx="5.69203" cy="279.07" rx="5.69203" ry="5.83433" class="st8"/>
		</g>
		<g id="shape101-140" v:mID="101" v:groupContext="shape" transform="translate(247.932,-182.616)">
			<title>Foglio.101</title>
			<desc>3</desc>
			<v:textBlock v:margins="rect(4,4,4,4)"/>
			<v:textRect cx="4.49727" cy="280.407" width="9" height="8.99455"/>
			<rect x="0" y="275.91" width="8.99455" height="8.99455" class="st3"/>
			<text x="4" y="282.81" class="st9" v:langID="1040"><v:paragraph v:spBefore="5" v:spAfter="5" v:bulletSize="0.166667"/><v:tabList/>3</text>		</g>
		<g id="shape104-143" v:mID="104" v:groupContext="shape" transform="translate(493.407,146.905) rotate(90) scale(-1,1)">
			<title>Foglio.104</title>
			<path d="M0 284.9 L20.04 284.9" class="st6"/>
		</g>
		<g id="shape106-146" v:mID="106" v:groupContext="shape"
				transform="translate(208.464,411.766) rotate(0.00788576) scale(1,-1)">
			<title>Foglio.106</title>
			<path d="M0 284.9 L84.19 284.9" class="st6"/>
		</g>
		<g id="shape107-149" v:mID="107" v:groupContext="shape" transform="translate(587.514,126.874) rotate(90) scale(-1,1)">
			<title>Foglio.107</title>
			<path d="M0 284.9 L63.38 284.9" class="st6"/>
		</g>
		<g id="shape108-152" v:mID="108" v:groupContext="shape" transform="translate(249.537,405.945) scale(1,-1)">
			<title>Foglio.108</title>
			<ellipse cx="5.69203" cy="279.07" rx="5.69203" ry="5.83433" class="st8"/>
		</g>
		<g id="shape109-154" v:mID="109" v:groupContext="shape" transform="translate(257.255,-153.3) scale(-1,1)">
			<title>Foglio.109</title>
			<desc>3</desc>
			<v:textBlock v:margins="rect(4,4,4,4)"/>
			<v:textRect cx="4.49727" cy="280.407" width="9" height="8.99455"/>
			<rect x="0" y="275.91" width="8.99455" height="8.99455" class="st3"/>
			<text x="-4.99" y="282.81" transform="scale(-1,1)" class="st9" v:langID="1040"><v:paragraph v:spBefore="5"
						v:spAfter="5" v:bulletSize="0.166667"/><v:tabList/>3</text>		</g>
		<g id="shape105-157" v:mID="105" v:groupContext="shape" transform="translate(205.665,423.955) scale(1,-1)">
			<title>Foglio.105</title>
			<path d="M5.67 284.9 L0 284.9 L2.83 275.27 L5.67 284.9 Z" class="st5"/>
		</g>
		<g id="shape110-159" v:mID="110" v:groupContext="shape" transform="translate(298.358,-158.03)">
			<title>Foglio.110</title>
			<path d="M0 284.9 L4.25 284.9" class="st6"/>
		</g>
		<g id="shape111-162" v:mID="111" v:groupContext="shape" transform="translate(-47.7751,173.468) rotate(-90)">
			<title>Foglio.111</title>
			<path d="M5.67 284.9 L0 284.9 L2.83 275.27 L5.67 284.9 Z" class="st5"/>
		</g>
		<g id="shape112-164" v:mID="112" v:groupContext="shape" transform="translate(230.326,455.703) scale(1,-1)">
			<title>Foglio.112</title>
			<path d="M0 284.9 L39.69 284.9" class="st6"/>
		</g>
		<g id="shape113-167" v:mID="113" v:groupContext="shape" transform="translate(260.944,-108.271) scale(-1,1)">
			<title>Foglio.113</title>
			<ellipse cx="5.69203" cy="279.07" rx="5.69203" ry="5.83433" class="st8"/>
		</g>
		<g id="shape114-169" v:mID="114" v:groupContext="shape" transform="translate(256.892,-108.678) scale(-1,1)">
			<title>Foglio.114</title>
			<desc>3</desc>
			<v:textBlock v:margins="rect(4,4,4,4)"/>
			<v:textRect cx="4.49727" cy="280.407" width="9" height="8.99455"/>
			<rect x="0" y="275.91" width="8.99455" height="8.99455" class="st3"/>
			<text x="-4.99" y="282.81" transform="scale(-1,1)" class="st9" v:langID="1040"><v:paragraph v:spBefore="5"
						v:spAfter="5" v:bulletSize="0.166667"/><v:tabList/>3</text>		</g>
		<g id="shape5-172" v:mID="5" v:groupContext="shape" transform="translate(322.05,238.192) rotate(90) scale(-1,1)">
			<title>Foglio.5</title>
			<path d="M5.67 284.9 L0 284.9 L2.83 275.27 L5.67 284.9 Z" class="st5"/>
		</g>
		<g id="shape58-174" v:mID="58" v:groupContext="shape" transform="translate(46.783,-49.5468) scale(-1,1)">
			<title>Foglio.58</title>
			<path d="M0 284.9 L39.69 284.9" class="st6"/>
		</g>
		<g id="shape59-177" v:mID="59" v:groupContext="shape" transform="translate(46.5279,-41.6806)">
			<title>Foglio.59</title>
			<desc>Message Send</desc>
			<v:textBlock v:margins="rect(4,4,4,4)" v:tabSpace="42.5197"/>
			<v:textRect cx="31.3087" cy="277.038" width="62.62" height="15.7323"/>
			<rect x="0" y="269.172" width="62.6173" height="15.7323" class="st3"/>
			<text x="4.63" y="279.44" class="st4" v:langID="1040"><v:paragraph v:horizAlign="1"/><v:tabList/>Message Send</text>		</g>
		<g id="shape61-180" v:mID="61" v:groupContext="shape" transform="translate(46.783,-31.9011) scale(-1,1)">
			<title>Foglio.61</title>
			<path d="M0 284.9 L39.69 284.9" class="st6"/>
		</g>
		<g id="shape64-183" v:mID="64" v:groupContext="shape" transform="translate(46.5279,-24.035)">
			<title>Foglio.64</title>
			<desc>Message Receive</desc>
			<v:textBlock v:margins="rect(4,4,4,4)" v:tabSpace="42.5197"/>
			<v:textRect cx="36.2693" cy="277.038" width="72.54" height="15.7323"/>
			<rect x="0" y="269.172" width="72.5386" height="15.7323" class="st3"/>
			<text x="4.48" y="279.44" class="st4" v:langID="1040"><v:paragraph v:horizAlign="1"/><v:tabList/>Message Receive</text>		</g>
		<g id="shape60-186" v:mID="60" v:groupContext="shape" transform="translate(39.3902,-27.7959)">
			<title>Foglio.60</title>
			<ellipse cx="3.69641" cy="281.116" rx="3.69641" ry="3.78882" class="st5"/>
		</g>
		<g id="shape65-188" v:mID="65" v:groupContext="shape" transform="translate(39.6964,-9.15307)">
			<title>Foglio.65</title>
			<rect x="0" y="277.818" width="7.08661" height="7.08661" class="st5"/>
		</g>
		<g id="shape70-190" v:mID="70" v:groupContext="shape" transform="translate(46.0743,557.195) rotate(180)">
			<title>Foglio.70</title>
			<path d="M0 284.9 L36.85 284.9" class="st6"/>
		</g>
		<g id="shape71-193" v:mID="71" v:groupContext="shape" transform="translate(42.531,-4.19244)">
			<title>Foglio.71</title>
			<desc>Message Listen</desc>
			<v:textBlock v:margins="rect(4,4,4,4)" v:tabSpace="42.5197"/>
			<v:textRect cx="36.2693" cy="277.038" width="72.54" height="15.7323"/>
			<rect x="0" y="269.172" width="72.5386" height="15.7323" class="st3"/>
			<text x="8.25" y="279.44" class="st4" v:langID="1040"><v:paragraph v:horizAlign="1"/><v:tabList/>Message Listen</text>		</g>
		<g id="group47-196" transform="translate(72.556,-215.139)" v:mID="47" v:groupContext="group" v:layerMember="0">
			<title>Database, mini 3 - blue</title>
			<g id="group48-197" transform="translate(-6.82813,0)" v:mID="48" v:groupContext="group" v:layerMember="0">
				<title>Foglio.48</title>
				<g id="shape49-198" v:mID="49" v:groupContext="shape" v:layerMember="0">
					<title>Foglio.49</title>
					<path d="M37.04 254.42 L37.04 253.53 C37.04 250.28 27.74 248.86 18.52 248.86 C9.29 248.86 0 250.28 0 253.53 L0
								 254.42 L0 278.72 L0 279.65 L0 279.7 C0.63 284.24 11.88 284.9 18.52 284.9 C25.16 284.9 36.41 284.24
								 37.04 279.7 L37.04 279.65 L37.04 278.67 L37.04 254.42 Z" class="st10"/>
				</g>
				<g id="shape50-200" v:mID="50" v:groupContext="shape" v:layerMember="0" transform="translate(2.09657,-1.33497)">
					<title>Foglio.50</title>
					<path d="M16.42 277.34 C9.85 277.34 3.28 276.63 0 275.03 L0 280.01 L0 280.9 C0.49 284.59 12.3 284.9 16.42 284.9
								 C20.55 284.9 32.29 284.59 32.85 280.9 L32.85 280.01 L32.85 275.03 C29.56 276.58 22.99 277.34 16.42
								 277.34 Z" class="st11"/>
				</g>
				<g id="shape51-202" v:mID="51" v:groupContext="shape" v:layerMember="0" transform="translate(2.09657,-10.2348)">
					<title>Foglio.51</title>
					<path d="M16.42 277.34 C9.85 277.34 3.28 276.63 0 275.03 L0 280.01 L0 280.9 C0.49 284.59 12.3 284.9 16.42 284.9
								 C20.55 284.9 32.29 284.59 32.85 280.9 L32.85 280.01 L32.85 275.03 C29.56 276.58 22.99 277.34 16.42
								 277.34 Z" class="st11"/>
				</g>
				<g id="shape52-204" v:mID="52" v:groupContext="shape" v:layerMember="0" transform="translate(2.09657,-19.1346)">
					<title>Foglio.52</title>
					<path d="M16.42 277.34 C9.85 277.34 3.28 276.63 0 275.03 L0 280.01 L0 280.9 C0.49 284.59 12.3 284.9 16.42 284.9
								 C20.55 284.9 32.29 284.59 32.85 280.9 L32.85 280.01 L32.85 275.03 C29.56 276.58 22.99 277.34 16.42
								 277.34 Z" class="st11"/>
				</g>
				<g id="shape53-206" v:mID="53" v:groupContext="shape" v:layerMember="0" transform="translate(2.09657,-28.0344)">
					<title>Foglio.53</title>
					<ellipse cx="16.4231" cy="281.567" rx="16.4231" ry="3.33743" class="st11"/>
				</g>
			</g>
		</g>
		<g id="group2-208" transform="translate(197.822,-215.706)" v:mID="2" v:groupContext="group" v:layerMember="0">
			<title>Database, mini 3 - blue.2</title>
			<g id="group3-209" transform="translate(-6.82813,0)" v:mID="3" v:groupContext="group" v:layerMember="0">
				<title>Foglio.3</title>
				<g id="shape4-210" v:mID="4" v:groupContext="shape" v:layerMember="0">
					<title>Foglio.4</title>
					<path d="M37.04 254.42 L37.04 253.53 C37.04 250.28 27.74 248.86 18.52 248.86 C9.29 248.86 0 250.28 0 253.53 L0
								 254.42 L0 278.72 L0 279.65 L0 279.7 C0.63 284.24 11.88 284.9 18.52 284.9 C25.16 284.9 36.41 284.24
								 37.04 279.7 L37.04 279.65 L37.04 278.67 L37.04 254.42 Z" class="st10"/>
				</g>
				<g id="shape10-212" v:mID="10" v:groupContext="shape" v:layerMember="0" transform="translate(2.09657,-1.33497)">
					<title>Foglio.10</title>
					<path d="M16.42 277.34 C9.85 277.34 3.28 276.63 0 275.03 L0 280.01 L0 280.9 C0.49 284.59 12.3 284.9 16.42 284.9
								 C20.55 284.9 32.29 284.59 32.85 280.9 L32.85 280.01 L32.85 275.03 C29.56 276.58 22.99 277.34 16.42
								 277.34 Z" class="st11"/>
				</g>
				<g id="shape11-214" v:mID="11" v:groupContext="shape" v:layerMember="0" transform="translate(2.09657,-10.2348)">
					<title>Foglio.11</title>
					<path d="M16.42 277.34 C9.85 277.34 3.28 276.63 0 275.03 L0 280.01 L0 280.9 C0.49 284.59 12.3 284.9 16.42 284.9
								 C20.55 284.9 32.29 284.59 32.85 280.9 L32.85 280.01 L32.85 275.03 C29.56 276.58 22.99 277.34 16.42
								 277.34 Z" class="st11"/>
				</g>
				<g id="shape12-216" v:mID="12" v:groupContext="shape" v:layerMember="0" transform="translate(2.09657,-19.1346)">
					<title>Foglio.12</title>
					<path d="M16.42 277.34 C9.85 277.34 3.28 276.63 0 275.03 L0 280.01 L0 280.9 C0.49 284.59 12.3 284.9 16.42 284.9
								 C20.55 284.9 32.29 284.59 32.85 280.9 L32.85 280.01 L32.85 275.03 C29.56 276.58 22.99 277.34 16.42
								 277.34 Z" class="st11"/>
				</g>
				<g id="shape13-218" v:mID="13" v:groupContext="shape" v:layerMember="0" transform="translate(2.09657,-28.0344)">
					<title>Foglio.13</title>
					<ellipse cx="16.4231" cy="281.567" rx="16.4231" ry="3.33743" class="st11"/>
				</g>
			</g>
		</g>
		<g id="group14-220" transform="translate(65.5389,-96.6506)" v:mID="14" v:groupContext="group" v:layerMember="0">
			<title>Database, mini 3 - blue.14</title>
			<g id="group15-221" v:mID="15" v:groupContext="group" v:layerMember="0">
				<title>Foglio.15</title>
				<g id="shape16-222" v:mID="16" v:groupContext="shape" v:layerMember="0">
					<title>Foglio.16</title>
					<path d="M37.23 254.27 L37.23 253.37 C37.23 250.11 27.89 248.68 18.61 248.68 C9.34 248.68 0 250.11 0 253.37 L0
								 254.27 L0 278.69 L0 279.63 L0 279.67 C0.63 284.23 11.94 284.9 18.61 284.9 C25.29 284.9 36.6 284.23
								 37.23 279.67 L37.23 279.63 L37.23 278.64 L37.23 254.27 Z" class="st10"/>
				</g>
				<g id="shape22-224" v:mID="22" v:groupContext="shape" v:layerMember="0" transform="translate(2.10727,-1.34178)">
					<title>Foglio.22</title>
					<path d="M16.51 277.3 C9.9 277.3 3.3 276.59 0 274.98 L0 279.98 L0 280.88 C0.49 284.59 12.36 284.9 16.51 284.9
								 C20.65 284.9 32.45 284.59 33.01 280.88 L33.01 279.98 L33.01 274.98 C29.71 276.54 23.11 277.3 16.51
								 277.3 Z" class="st11"/>
				</g>
				<g id="shape23-226" v:mID="23" v:groupContext="shape" v:layerMember="0" transform="translate(2.10727,-10.287)">
					<title>Foglio.23</title>
					<path d="M16.51 277.3 C9.9 277.3 3.3 276.59 0 274.98 L0 279.98 L0 280.88 C0.49 284.59 12.36 284.9 16.51 284.9
								 C20.65 284.9 32.45 284.59 33.01 280.88 L33.01 279.98 L33.01 274.98 C29.71 276.54 23.11 277.3 16.51
								 277.3 Z" class="st11"/>
				</g>
				<g id="shape24-228" v:mID="24" v:groupContext="shape" v:layerMember="0" transform="translate(2.10727,-19.2322)">
					<title>Foglio.24</title>
					<path d="M16.51 277.3 C9.9 277.3 3.3 276.59 0 274.98 L0 279.98 L0 280.88 C0.49 284.59 12.36 284.9 16.51 284.9
								 C20.65 284.9 32.45 284.59 33.01 280.88 L33.01 279.98 L33.01 274.98 C29.71 276.54 23.11 277.3 16.51
								 277.3 Z" class="st11"/>
				</g>
				<g id="shape25-230" v:mID="25" v:groupContext="shape" v:layerMember="0" transform="translate(2.10727,-28.1775)">
					<title>Foglio.25</title>
					<ellipse cx="16.5069" cy="281.55" rx="16.5069" ry="3.35446" class="st11"/>
				</g>
			</g>
		</g>
		<g id="group26-232" transform="translate(197.539,-97.9041)" v:mID="26" v:groupContext="group" v:layerMember="0">
			<title>Database, mini 3 - blue.26</title>
			<g id="group27-233" transform="translate(-6.82813,0)" v:mID="27" v:groupContext="group" v:layerMember="0">
				<title>Foglio.27</title>
				<g id="shape28-234" v:mID="28" v:groupContext="shape" v:layerMember="0">
					<title>Foglio.28</title>
					<path d="M37.04 254.42 L37.04 253.53 C37.04 250.28 27.74 248.86 18.52 248.86 C9.29 248.86 0 250.28 0 253.53 L0
								 254.42 L0 278.72 L0 279.65 L0 279.7 C0.63 284.24 11.88 284.9 18.52 284.9 C25.16 284.9 36.41 284.24
								 37.04 279.7 L37.04 279.65 L37.04 278.67 L37.04 254.42 Z" class="st10"/>
				</g>
				<g id="shape29-236" v:mID="29" v:groupContext="shape" v:layerMember="0" transform="translate(2.09657,-1.33497)">
					<title>Foglio.29</title>
					<path d="M16.42 277.34 C9.85 277.34 3.28 276.63 0 275.03 L0 280.01 L0 280.9 C0.49 284.59 12.3 284.9 16.42 284.9
								 C20.55 284.9 32.29 284.59 32.85 280.9 L32.85 280.01 L32.85 275.03 C29.56 276.58 22.99 277.34 16.42
								 277.34 Z" class="st11"/>
				</g>
				<g id="shape30-238" v:mID="30" v:groupContext="shape" v:layerMember="0" transform="translate(2.09657,-10.2348)">
					<title>Foglio.30</title>
					<path d="M16.42 277.34 C9.85 277.34 3.28 276.63 0 275.03 L0 280.01 L0 280.9 C0.49 284.59 12.3 284.9 16.42 284.9
								 C20.55 284.9 32.29 284.59 32.85 280.9 L32.85 280.01 L32.85 275.03 C29.56 276.58 22.99 277.34 16.42
								 277.34 Z" class="st11"/>
				</g>
				<g id="shape31-240" v:mID="31" v:groupContext="shape" v:layerMember="0" transform="translate(2.09657,-19.1346)">
					<title>Foglio.31</title>
					<path d="M16.42 277.34 C9.85 277.34 3.28 276.63 0 275.03 L0 280.01 L0 280.9 C0.49 284.59 12.3 284.9 16.42 284.9
								 C20.55 284.9 32.29 284.59 32.85 280.9 L32.85 280.01 L32.85 275.03 C29.56 276.58 22.99 277.34 16.42
								 277.34 Z" class="st11"/>
				</g>
				<g id="shape54-242" v:mID="54" v:groupContext="shape" v:layerMember="0" transform="translate(2.09657,-28.0344)">
					<title>Foglio.54</title>
					<ellipse cx="16.4231" cy="281.567" rx="16.4231" ry="3.33743" class="st11"/>
				</g>
			</g>
		</g>
	</g>
</svg>
