<?xml version="1.0" encoding="UTF-8" standalone="no"?>
<!DOCTYPE svg PUBLIC "-//W3C//DTD SVG 1.0//EN" "http://www.w3.org/TR/2001/REC-SVG-20010904/DTD/svg10.dtd">
<!-- Generato da Microsoft Visio 11.0, SVG Export, v1.0 jakartaeett_dt_060.svg Pagina 1 -->
<svg xmlns="http://www.w3.org/2000/svg" xmlns:v="http://schemas.microsoft.com/visio/2003/SVGExtensions/" width="5.45307in"
		height="3.66173in" viewBox="0 0 392.621 263.645" xml:space="preserve" color-interpolation-filters="sRGB" class="st9">
	<v:documentProperties v:langID="1040" v:metric="true" v:viewMarkup="false">
		<v:userDefs>
			<v:ud v:nameU="MBSAAvail" v:prompt="" v:val="VT0(2):26"/>
			<v:ud v:nameU="MBSAAddinEnabled" v:prompt="" v:val="VT0(2):26"/>
			<v:ud v:nameU="MBSAAddinOutlineVisible" v:prompt="" v:val="VT0(1):26"/>
		</v:userDefs>
	</v:documentProperties>

	<style type="text/css">
	<![CDATA[
		.st1 {fill:#ffffff;stroke:none;stroke-linecap:round;stroke-linejoin:round;stroke-width:0.72}
		.st2 {fill:#c8d6e6;stroke:#000000;stroke-linecap:round;stroke-linejoin:round;stroke-width:0.72}
		.st3 {fill:none;stroke:none;stroke-linecap:round;stroke-linejoin:round;stroke-width:0.72}
		.st4 {fill:#000000;font-family:Arial;font-size:0.666664em}
		.st5 {fill:#f2f2f2;stroke:#000000;stroke-linecap:round;stroke-linejoin:round;stroke-width:0.72}
		.st6 {stroke:#000000;stroke-linecap:round;stroke-linejoin:round;stroke-width:0.72}
		.st7 {font-size:1em}
		.st8 {fill:#000000;stroke:#000000;stroke-linecap:round;stroke-linejoin:round;stroke-width:0.72}
		.st9 {fill:none;fill-rule:evenodd;font-size:12;overflow:visible;stroke-linecap:square;stroke-miterlimit:3}
	]]>
	</style>

	<g v:mID="0" v:index="1" v:groupContext="foregroundPage">
		<title>Pagina 1</title>
		<v:pageProperties v:drawingScale="0.0393701" v:pageScale="0.0393701" v:drawingUnits="24" v:shadowOffsetX="8.50394"
				v:shadowOffsetY="-8.50394"/>
		<g id="shape4-1" v:mID="4" v:groupContext="shape" transform="translate(0.72,-0.72)">
			<title>Foglio.4</title>
			<rect x="0" y="1.44" width="391.181" height="262.205" class="st1"/>
		</g>
		<g id="shape1-3" v:mID="1" v:groupContext="shape" transform="translate(23.3972,-231.999)">
			<title>Foglio.1</title>
			<rect x="0" y="241.223" width="100.885" height="22.422" class="st2"/>
		</g>
		<g id="shape2-5" v:mID="2" v:groupContext="shape" transform="translate(25.9767,-233.87)">
			<title>Foglio.2</title>
			<desc>TaskCreatorBean</desc>
			<v:textBlock v:margins="rect(4,4,4,4)" v:tabSpace="42.5197"/>
			<v:textRect cx="35.5606" cy="254.432" width="71.13" height="18.4252"/>
			<rect x="0" y="245.22" width="71.1213" height="18.4252" class="st3"/>
			<text x="4.21" y="256.83" class="st4" v:langID="1040"><v:paragraph v:horizAlign="1"/><v:tabList/>TaskCreatorBean</text>		</g>
		<g id="shape21-8" v:mID="21" v:groupContext="shape" transform="translate(23.3972,-137.645)">
			<title>Foglio.21</title>
			<rect x="0" y="241.223" width="100.885" height="22.422" class="st2"/>
		</g>
		<g id="shape22-10" v:mID="22" v:groupContext="shape" transform="translate(29.0665,-139.516)">
			<title>Foglio.22</title>
			<desc>TaskEJB</desc>
			<v:textBlock v:margins="rect(4,4,4,4)" v:tabSpace="42.5197"/>
			<v:textRect cx="35.5606" cy="254.432" width="71.13" height="18.4252"/>
			<rect x="0" y="245.22" width="71.1213" height="18.4252" class="st3"/>
			<text x="19.56" y="256.83" class="st4" v:langID="1040"><v:paragraph v:horizAlign="1"/><v:tabList/>TaskEJB</text>		</g>
		<g id="shape23-13" v:mID="23" v:groupContext="shape" transform="translate(23.9783,-58.2751)">
			<title>Foglio.23</title>
			<rect x="0" y="241.223" width="100.885" height="22.422" class="st2"/>
		</g>
		<g id="shape24-15" v:mID="24" v:groupContext="shape" transform="translate(31.646,-60.146)">
			<title>Foglio.24</title>
			<desc>Task</desc>
			<v:textBlock v:margins="rect(4,4,4,4)" v:tabSpace="42.5197"/>
			<v:textRect cx="35.5606" cy="254.432" width="71.13" height="18.4252"/>
			<rect x="0" y="245.22" width="71.1213" height="18.4252" class="st3"/>
			<text x="26.89" y="256.83" class="st4" v:langID="1040"><v:paragraph v:horizAlign="1"/><v:tabList/>Task</text>		</g>
		<g id="shape25-18" v:mID="25" v:groupContext="shape" transform="translate(258.836,-137.645)">
			<title>Foglio.25</title>
			<rect x="0" y="241.223" width="100.885" height="22.422" class="st2"/>
		</g>
		<g id="shape26-20" v:mID="26" v:groupContext="shape" transform="translate(262.251,-139.516)">
			<title>Foglio.26</title>
			<desc>InfoEndpoint</desc>
			<v:textBlock v:margins="rect(4,4,4,4)" v:tabSpace="42.5197"/>
			<v:textRect cx="35.5606" cy="254.432" width="71.13" height="18.4252"/>
			<rect x="0" y="245.22" width="71.1213" height="18.4252" class="st3"/>
			<text x="13.1" y="256.83" class="st4" v:langID="1040"><v:paragraph v:horizAlign="1"/><v:tabList/>InfoEndpoint</text>		</g>
		<g id="shape27-23" v:mID="27" v:groupContext="shape" transform="translate(258.255,-231.871)">
			<title>Foglio.27</title>
			<rect x="0" y="241.223" width="100.885" height="22.422" class="st5"/>
		</g>
		<g id="shape28-25" v:mID="28" v:groupContext="shape" transform="translate(262.251,-233.742)">
			<title>Foglio.28</title>
			<desc>index.xhtml</desc>
			<v:textBlock v:margins="rect(4,4,4,4)" v:tabSpace="42.5197"/>
			<v:textRect cx="35.5606" cy="254.432" width="71.13" height="18.4252"/>
			<rect x="0" y="245.22" width="71.1213" height="18.4252" class="st3"/>
			<text x="15.33" y="256.83" class="st4" v:langID="1040"><v:paragraph v:horizAlign="1"/><v:tabList/>index.xhtml</text>		</g>
		<g id="shape3-28" v:mID="3" v:groupContext="shape" transform="translate(-190.641,89.1491) rotate(-90) scale(-1,1)">
			<title>Foglio.3</title>
			<path d="M0 263.64 L14.17 263.64" class="st6"/>
		</g>
		<g id="shape5-31" v:mID="5" v:groupContext="shape" transform="translate(-190.641,101.055) rotate(-90)">
			<title>Foglio.5</title>
			<path d="M0 263.64 L14.17 263.64" class="st6"/>
		</g>
		<g id="shape6-34" v:mID="6" v:groupContext="shape" transform="translate(23.3972,-181.877)">
			<title>Foglio.6</title>
			<desc>Request new tasks Get execution log updates</desc>
			<v:textBlock v:margins="rect(4,4,4,4)" v:tabSpace="42.5197"/>
			<v:textRect cx="38.2677" cy="247.346" width="76.54" height="32.5984"/>
			<rect x="0" y="231.046" width="76.5354" height="32.5984" class="st3"/>
			<text x="4.47" y="240.15" class="st4" v:langID="1040"><v:paragraph v:horizAlign="1"/><v:tabList/>Request new tasks <v:newlineChar/><tspan
						x="7.14" dy="1.2em" class="st7">Get execution log <v:newlineChar/></tspan><tspan x="24.03" dy="1.2em"
						class="st7">updates</tspan></text>		</g>
		<g id="shape7-39" v:mID="7" v:groupContext="shape" transform="translate(336.648,48.909) rotate(90) scale(-1,1)">
			<title>Foglio.7</title>
			<path d="M0 263.64 L16.49 263.64" class="st6"/>
		</g>
		<g id="shape8-42" v:mID="8" v:groupContext="shape" transform="translate(70.1688,356.479) scale(1,-1)">
			<title>Foglio.8</title>
			<path d="M5.67 263.64 L0 263.64 L2.83 254.01 L5.67 263.64 Z" class="st8"/>
		</g>
		<g id="shape9-44" v:mID="9" v:groupContext="shape" transform="translate(-190.641,168.519) rotate(-90) scale(-1,1)">
			<title>Foglio.9</title>
			<path d="M0 263.64 L14.17 263.64" class="st6"/>
		</g>
		<g id="shape10-47" v:mID="10" v:groupContext="shape" transform="translate(-190.641,180.425) rotate(-90)">
			<title>Foglio.10</title>
			<path d="M0 263.64 L23.24 263.64" class="st6"/>
		</g>
		<g id="shape11-50" v:mID="11" v:groupContext="shape" transform="translate(23.3972,-109.854)">
			<title>Foglio.11</title>
			<desc>Schedule new tasks</desc>
			<v:textBlock v:margins="rect(4,4,4,4)" v:tabSpace="42.5197"/>
			<v:textRect cx="40.3937" cy="258.554" width="80.79" height="10.1811"/>
			<rect x="0" y="253.464" width="80.7874" height="10.1811" class="st3"/>
			<text x="4.82" y="260.95" class="st4" v:langID="1040"><v:paragraph v:horizAlign="1"/><v:tabList/>Schedule new tasks</text>		</g>
		<g id="shape12-53" v:mID="12" v:groupContext="shape" transform="translate(336.648,142.748) rotate(90) scale(-1,1)">
			<title>Foglio.12</title>
			<path d="M0 263.64 L16.49 263.64" class="st6"/>
		</g>
		<g id="shape13-56" v:mID="13" v:groupContext="shape" transform="translate(70.1688,435.849) scale(1,-1)">
			<title>Foglio.13</title>
			<path d="M5.67 263.64 L0 263.64 L2.83 254.01 L5.67 263.64 Z" class="st8"/>
		</g>
		<g id="shape14-58" v:mID="14" v:groupContext="shape" transform="translate(9.22394,378.306) scale(1,-1)">
			<title>Foglio.14</title>
			<path d="M0 263.64 L14.17 263.64" class="st6"/>
		</g>
		<g id="shape15-61" v:mID="15" v:groupContext="shape" transform="translate(21.1294,378.306) rotate(180)">
			<title>Foglio.15</title>
			<path d="M0 263.64 L14.74 263.64" class="st6"/>
		</g>
		<g id="shape16-64" v:mID="16" v:groupContext="shape" transform="translate(24.8145,-22.842)">
			<title>Foglio.16</title>
			<desc>Send info messages to web service</desc>
			<v:textBlock v:margins="rect(4,4,4,4)" v:tabSpace="42.5197"/>
			<v:textRect cx="40.3937" cy="254.432" width="80.79" height="18.4252"/>
			<rect x="0" y="245.22" width="80.7874" height="18.4252" class="st3"/>
			<text x="4.15" y="252.03" class="st4" v:langID="1040"><v:paragraph v:horizAlign="1"/><v:tabList/>Send info messages<v:newlineChar/><tspan
						x="14.83" dy="1.2em" class="st7">to web service</tspan></text>		</g>
		<g id="shape17-68" v:mID="17" v:groupContext="shape" transform="translate(336.648,222.118) rotate(90) scale(-1,1)">
			<title>Foglio.17</title>
			<path d="M0 263.64 L16.49 263.64" class="st6"/>
		</g>
		<g id="shape18-71" v:mID="18" v:groupContext="shape" transform="translate(276.554,117.496) rotate(90) scale(-1,1)">
			<title>Foglio.18</title>
			<path d="M5.67 263.64 L0 263.64 L2.83 254.01 L5.67 263.64 Z" class="st8"/>
		</g>
		<g id="shape19-73" v:mID="19" v:groupContext="shape" transform="translate(336.648,260.645) rotate(90) scale(-1,1)">
			<title>Foglio.19</title>
			<path d="M0 263.64 L16.49 263.64" class="st6"/>
		</g>
		<g id="shape20-76" v:mID="20" v:groupContext="shape" transform="translate(6.38929,524.29) scale(1,-1)">
			<title>Foglio.20</title>
			<path d="M0 263.64 L66.61 263.64" class="st6"/>
		</g>
		<g id="shape29-79" v:mID="29" v:groupContext="shape" transform="translate(270.034,260.645) rotate(90) scale(-1,1)">
			<title>Foglio.29</title>
			<path d="M0 263.64 L145.98 263.64" class="st6"/>
		</g>
		<g id="shape30-82" v:mID="30" v:groupContext="shape" transform="translate(244.081,284.207) scale(1,-1)">
			<title>Foglio.30</title>
			<path d="M0 263.64 L14.17 263.64" class="st6"/>
		</g>
		<g id="shape31-85" v:mID="31" v:groupContext="shape" transform="translate(243.933,284.207) rotate(180)">
			<title>Foglio.31</title>
			<path d="M0 263.64 L119.65 263.64" class="st6"/>
		</g>
		<g id="shape33-88" v:mID="33" v:groupContext="shape" transform="translate(511.411,23.3972) rotate(90) scale(-1,1)">
			<title>Foglio.33</title>
			<path d="M5.67 263.64 L0 263.64 L2.83 254.01 L5.67 263.64 Z" class="st8"/>
		</g>
		<g id="shape32-90" v:mID="32" v:groupContext="shape" transform="translate(-128.563,17.7279) rotate(-90) scale(-1,1)">
			<title>Foglio.32</title>
			<path d="M5.67 263.64 L0 263.64 L2.83 254.01 L5.67 263.64 Z" class="st8"/>
		</g>
		<g id="shape34-92" v:mID="34" v:groupContext="shape" transform="translate(244.932,378.306) scale(1,-1)">
			<title>Foglio.34</title>
			<path d="M0 263.64 L14.17 263.64" class="st6"/>
		</g>
		<g id="shape35-95" v:mID="35" v:groupContext="shape" transform="translate(256.837,378.306) rotate(180)">
			<title>Foglio.35</title>
			<path d="M0 263.64 L14.17 263.64" class="st6"/>
		</g>
		<g id="shape36-98" v:mID="36" v:groupContext="shape" transform="translate(138.909,-133.748)">
			<title>Foglio.36</title>
			<desc>Request updates for parts of the page</desc>
			<v:textBlock v:margins="rect(4,4,4,4)" v:tabSpace="42.5197"/>
			<v:textRect cx="40.3937" cy="254.078" width="80.79" height="19.1339"/>
			<rect x="0" y="244.511" width="80.7874" height="19.1339" class="st3"/>
			<text x="4.37" y="251.68" class="st4" v:langID="1040"><v:paragraph v:horizAlign="1"/><v:tabList/>Request updates for <tspan
						x="10.37" dy="1.2em" class="st7">parts of the page</tspan></text>		</g>
		<g id="shape37-102" v:mID="37" v:groupContext="shape" transform="translate(141.035,-148.984) scale(-1,1)">
			<title>Foglio.37</title>
			<path d="M0 263.64 L16.49 263.64" class="st6"/>
		</g>
		<g id="shape38-105" v:mID="38" v:groupContext="shape" transform="translate(512.262,117.496) rotate(90) scale(-1,1)">
			<title>Foglio.38</title>
			<path d="M5.67 263.64 L0 263.64 L2.83 254.01 L5.67 263.64 Z" class="st8"/>
		</g>
		<g id="shape39-107" v:mID="39" v:groupContext="shape" transform="translate(47.0509,88.8893) rotate(-90) scale(-1,1)">
			<title>Foglio.39</title>
			<path d="M0 263.64 L14.17 263.64" class="st6"/>
		</g>
		<g id="shape40-110" v:mID="40" v:groupContext="shape" transform="translate(47.0509,100.795) rotate(-90)">
			<title>Foglio.40</title>
			<path d="M0 263.64 L14.17 263.64" class="st6"/>
		</g>
		<g id="shape41-113" v:mID="41" v:groupContext="shape" transform="translate(261.089,-182.137)">
			<title>Foglio.41</title>
			<desc>Request AJAX page updates using a WebSocket message</desc>
			<v:textBlock v:margins="rect(4,4,4,4)" v:tabSpace="42.5197"/>
			<v:textRect cx="42.5197" cy="247.346" width="85.04" height="32.5984"/>
			<rect x="0" y="231.046" width="85.0394" height="32.5984" class="st3"/>
			<text x="6.5" y="240.15" class="st4" v:langID="1040"><v:paragraph v:horizAlign="1"/><v:tabList/>Request AJAX page <tspan
						x="14.28" dy="1.2em" class="st7">updates using a </tspan><tspan x="4.72" dy="1.2em" class="st7">WebSocket message</tspan></text>		</g>
		<g id="shape42-118" v:mID="42" v:groupContext="shape" transform="translate(574.34,48.6491) rotate(90) scale(-1,1)">
			<title>Foglio.42</title>
			<path d="M0 263.64 L16.49 263.64" class="st6"/>
		</g>
		<g id="shape43-121" v:mID="43" v:groupContext="shape" transform="translate(307.861,356.219) scale(1,-1)">
			<title>Foglio.43</title>
			<path d="M5.67 263.64 L0 263.64 L2.83 254.01 L5.67 263.64 Z" class="st8"/>
		</g>
	</g>
</svg>
