<?xml version="1.0" encoding="UTF-8" standalone="no"?>
<!DOCTYPE svg PUBLIC "-//W3C//DTD SVG 1.0//EN" "http://www.w3.org/TR/2001/REC-SVG-20010904/DTD/svg10.dtd">
<!-- Generato da Microsoft Visio 11.0, SVG Export, v1.0 jakartaeett_dt_044.svg Pagina 1 -->
<svg xmlns="http://www.w3.org/2000/svg" xmlns:v="http://schemas.microsoft.com/visio/2003/SVGExtensions/" width="5.64992in"
		height="4.01606in" viewBox="0 0 406.794 289.157" xml:space="preserve" color-interpolation-filters="sRGB" class="st25">
	<v:documentProperties v:langID="1040" v:metric="true" v:viewMarkup="false">
		<v:userDefs>
			<v:ud v:nameU="MBSAAvail" v:prompt="" v:val="VT0(2):26"/>
			<v:ud v:nameU="MBSAAddinEnabled" v:prompt="" v:val="VT0(2):26"/>
			<v:ud v:nameU="MBSAAddinOutlineVisible" v:prompt="" v:val="VT0(1):26"/>
		</v:userDefs>
	</v:documentProperties>

	<style type="text/css">
	<![CDATA[
		.st1 {fill:#ffffff;stroke:none;stroke-linecap:round;stroke-linejoin:round;stroke-width:0.72}
		.st2 {fill:#c8d6e6;stroke:#000000;stroke-linecap:round;stroke-linejoin:round;stroke-width:0.72}
		.st3 {fill:#f2f2f2;stroke:#000000;stroke-linecap:round;stroke-linejoin:round;stroke-width:0.72}
		.st4 {fill:none;stroke:none;stroke-linecap:round;stroke-linejoin:round;stroke-width:0.72}
		.st5 {fill:#000000;font-family:Arial;font-size:0.666664em}
		.st6 {font-size:1em}
		.st7 {fill:#000000;stroke:#000000;stroke-linecap:round;stroke-linejoin:round;stroke-width:0.72}
		.st8 {stroke:#000000;stroke-linecap:round;stroke-linejoin:round;stroke-width:0.72}
		.st9 {fill:#000000;fill-opacity:0;stroke:none;stroke-linecap:butt;stroke-width:0.75}
		.st10 {fill:url(#grad33-29);stroke:none;stroke-linecap:round;stroke-linejoin:round;stroke-width:0.75}
		.st11 {fill:url(#grad25-35);stroke:none;stroke-linecap:round;stroke-linejoin:round;stroke-width:0.75}
		.st12 {fill:url(#grad31-39);stroke:none;stroke-linecap:round;stroke-linejoin:round;stroke-width:0.75}
		.st13 {fill:url(#grad25-45)}
		.st14 {stroke:none;stroke-linecap:round;stroke-linejoin:round;stroke-width:0.75}
		.st15 {fill:url(#grad40-50)}
		.st16 {stroke:#996633;stroke-linecap:butt;stroke-width:0.375}
		.st17 {fill:none}
		.st18 {stroke:#6f8600;stroke-linecap:round;stroke-linejoin:round;stroke-width:0.375}
		.st19 {fill:none;stroke:#000000;stroke-linecap:round;stroke-linejoin:round;stroke-width:0.72}
		.st20 {fill:url(#grad33-213);stroke:none;stroke-linecap:round;stroke-linejoin:round;stroke-width:0.75}
		.st21 {fill:url(#grad25-219);stroke:none;stroke-linecap:round;stroke-linejoin:round;stroke-width:0.75}
		.st22 {fill:url(#grad31-223);stroke:none;stroke-linecap:round;stroke-linejoin:round;stroke-width:0.75}
		.st23 {fill:url(#grad25-229)}
		.st24 {stroke:#3e791e;stroke-linecap:round;stroke-linejoin:round;stroke-width:0.375}
		.st25 {fill:none;fill-rule:evenodd;font-size:12;overflow:visible;stroke-linecap:square;stroke-miterlimit:3}
	]]>
	</style>

	<defs id="Patterns_And_Gradients">
		<pattern id="grad33-29" v:fillPattern="33" v:foreground="#fff7cc" v:background="#ffff00" x="0" y="0" width="1" height="1"
				patternContentUnits="objectBoundingBox">
			<path d="M 0 1 L 0 0 L 1 0 z" style="fill:url(#grad30-30)"/>
			<path d="M 0 1 L 1 1 L 1 0 z" style="fill:url(#grad25-31)"/>
		</pattern>
		<linearGradient id="grad30-30" v:fillPattern="33" v:foreground="#fff7cc" v:background="#ffff00" x1="0" y1="1" x2="0" y2="0">
			<stop offset="0" style="stop-color:#fff7cc;stop-opacity:1"/>
			<stop offset="1" style="stop-color:#ffff00;stop-opacity:1"/>
		</linearGradient>
		<linearGradient id="grad25-31" v:fillPattern="33" v:foreground="#fff7cc" v:background="#ffff00" x1="0" y1="0" x2="1" y2="0">
			<stop offset="0" style="stop-color:#fff7cc;stop-opacity:1"/>
			<stop offset="1" style="stop-color:#ffff00;stop-opacity:1"/>
		</linearGradient>
		<linearGradient id="grad25-35" v:fillPattern="25" v:foreground="#f7f3e8" v:background="#ffe980" x1="0" y1="0" x2="1" y2="0">
			<stop offset="0" style="stop-color:#f7f3e8;stop-opacity:1"/>
			<stop offset="1" style="stop-color:#ffe980;stop-opacity:1"/>
		</linearGradient>
		<pattern id="grad31-39" v:fillPattern="31" v:foreground="#ffe980" v:background="#ffff00" x="0" y="0" width="1" height="1"
				patternContentUnits="objectBoundingBox">
			<path d="M 0 0 L 0 1 L 1 1 z" style="fill:url(#grad28-40)"/>
			<path d="M 0 0 L 1 0 L 1 1 z" style="fill:url(#grad25-41)"/>
		</pattern>
		<linearGradient id="grad28-40" v:fillPattern="31" v:foreground="#ffe980" v:background="#ffff00" x1="0" y1="0" x2="0" y2="1">
			<stop offset="0" style="stop-color:#ffe980;stop-opacity:1"/>
			<stop offset="1" style="stop-color:#ffff00;stop-opacity:1"/>
		</linearGradient>
		<linearGradient id="grad25-41" v:fillPattern="31" v:foreground="#ffe980" v:background="#ffff00" x1="0" y1="0" x2="1" y2="0">
			<stop offset="0" style="stop-color:#ffe980;stop-opacity:1"/>
			<stop offset="1" style="stop-color:#ffff00;stop-opacity:1"/>
		</linearGradient>
		<linearGradient id="grad25-45" v:fillPattern="25" v:foreground="#ffff00" v:background="#a6be1b" x1="0" y1="0" x2="1" y2="0">
			<stop offset="0" style="stop-color:#ffff00;stop-opacity:1"/>
			<stop offset="1" style="stop-color:#a6be1b;stop-opacity:1"/>
		</linearGradient>
		<radialGradient id="grad40-50" v:fillPattern="40" v:foreground="#ffffff" v:background="#da8c36" cx="0.5" cy="0.5" r="0.5">
			<stop offset="0" style="stop-color:#ffffff;stop-opacity:1"/>
			<stop offset="1" style="stop-color:#da8c36;stop-opacity:1"/>
		</radialGradient>
		<pattern id="grad33-213" v:fillPattern="33" v:foreground="#eff9d9" v:background="#94d051" x="0" y="0" width="1" height="1"
				patternContentUnits="objectBoundingBox">
			<path d="M 0 1 L 0 0 L 1 0 z" style="fill:url(#grad30-214)"/>
			<path d="M 0 1 L 1 1 L 1 0 z" style="fill:url(#grad25-215)"/>
		</pattern>
		<linearGradient id="grad30-214" v:fillPattern="33" v:foreground="#eff9d9" v:background="#94d051" x1="0" y1="1" x2="0"
				y2="0">
			<stop offset="0" style="stop-color:#eff9d9;stop-opacity:1"/>
			<stop offset="1" style="stop-color:#94d051;stop-opacity:1"/>
		</linearGradient>
		<linearGradient id="grad25-215" v:fillPattern="33" v:foreground="#eff9d9" v:background="#94d051" x1="0" y1="0" x2="1"
				y2="0">
			<stop offset="0" style="stop-color:#eff9d9;stop-opacity:1"/>
			<stop offset="1" style="stop-color:#94d051;stop-opacity:1"/>
		</linearGradient>
		<linearGradient id="grad25-219" v:fillPattern="25" v:foreground="#f7f3e8" v:background="#d7eea2" x1="0" y1="0" x2="1"
				y2="0">
			<stop offset="0" style="stop-color:#f7f3e8;stop-opacity:1"/>
			<stop offset="1" style="stop-color:#d7eea2;stop-opacity:1"/>
		</linearGradient>
		<pattern id="grad31-223" v:fillPattern="31" v:foreground="#d7eea2" v:background="#94d051" x="0" y="0" width="1" height="1"
				patternContentUnits="objectBoundingBox">
			<path d="M 0 0 L 0 1 L 1 1 z" style="fill:url(#grad28-224)"/>
			<path d="M 0 0 L 1 0 L 1 1 z" style="fill:url(#grad25-225)"/>
		</pattern>
		<linearGradient id="grad28-224" v:fillPattern="31" v:foreground="#d7eea2" v:background="#94d051" x1="0" y1="0" x2="0"
				y2="1">
			<stop offset="0" style="stop-color:#d7eea2;stop-opacity:1"/>
			<stop offset="1" style="stop-color:#94d051;stop-opacity:1"/>
		</linearGradient>
		<linearGradient id="grad25-225" v:fillPattern="31" v:foreground="#d7eea2" v:background="#94d051" x1="0" y1="0" x2="1"
				y2="0">
			<stop offset="0" style="stop-color:#d7eea2;stop-opacity:1"/>
			<stop offset="1" style="stop-color:#94d051;stop-opacity:1"/>
		</linearGradient>
		<linearGradient id="grad25-229" v:fillPattern="25" v:foreground="#94d051" v:background="#6fb046" x1="0" y1="0" x2="1"
				y2="0">
			<stop offset="0" style="stop-color:#94d051;stop-opacity:1"/>
			<stop offset="1" style="stop-color:#6fb046;stop-opacity:1"/>
		</linearGradient>
	</defs>
	<g v:mID="0" v:index="1" v:groupContext="foregroundPage">
		<title>Pagina 1</title>
		<v:pageProperties v:drawingScale="0.0393701" v:pageScale="0.0393701" v:drawingUnits="24" v:shadowOffsetX="8.50394"
				v:shadowOffsetY="-8.50394"/>
		<g id="shape36-1" v:mID="36" v:groupContext="shape" transform="translate(0.72,-0.72)">
			<title>Foglio.36</title>
			<rect x="0" y="1.44" width="405.354" height="287.717" class="st1"/>
		</g>
		<g id="shape179-3" v:mID="179" v:groupContext="shape" transform="translate(118.358,-9.22394)">
			<title>Foglio.179</title>
			<rect x="0" y="17.0306" width="82.2047" height="272.126" class="st2"/>
		</g>
		<g id="shape180-5" v:mID="180" v:groupContext="shape" transform="translate(123.566,-14.8932)">
			<title>Foglio.180</title>
			<rect x="0" y="51.0463" width="72.7441" height="238.11" class="st3"/>
		</g>
		<g id="shape48-7" v:mID="48" v:groupContext="shape" transform="translate(6.38929,-9.22394)">
			<title>Foglio.48</title>
			<rect x="0" y="17.0306" width="90.7087" height="272.126" class="st2"/>
		</g>
		<g id="shape24-9" v:mID="24" v:groupContext="shape" transform="translate(7.80661,-255.838)">
			<title>Foglio.24</title>
			<desc>Create users and/or groups</desc>
			<v:textBlock v:margins="rect(4,4,4,4)" v:tabSpace="42.5197"/>
			<v:textRect cx="31.8898" cy="276.401" width="63.78" height="25.5118"/>
			<rect x="0" y="263.645" width="63.7795" height="25.5118" class="st4"/>
			<text x="8.99" y="274" class="st5" v:langID="1040"><v:paragraph v:horizAlign="1"/><v:tabList/>Create users <tspan
						x="7.21" dy="1.2em" class="st6">and</tspan>/or groups</text>		</g>
		<g id="shape4-13" v:mID="4" v:groupContext="shape" transform="translate(124.091,-231.035)">
			<title>Foglio.4</title>
			<desc>Application</desc>
			<v:textBlock v:margins="rect(4,4,4,4)" v:tabSpace="42.5197"/>
			<v:textRect cx="30.4406" cy="278.527" width="60.89" height="21.2598"/>
			<rect x="0" y="267.897" width="60.8811" height="21.2598" class="st4"/>
			<text x="10.87" y="280.93" class="st5" v:langID="1040"><v:paragraph v:horizAlign="1"/><v:tabList/>Application</text>		</g>
		<g id="shape53-16" v:mID="53" v:groupContext="shape" transform="translate(403.688,19.1452) rotate(90)">
			<title>Foglio.53</title>
			<path d="M5.67 289.16 L0 289.16 L2.83 279.52 L5.67 289.16 Z" class="st7"/>
		</g>
		<g id="shape54-18" v:mID="54" v:groupContext="shape" transform="translate(124.594,-267.177) scale(-1,1)">
			<title>Foglio.54</title>
			<path d="M0 289.16 L36 289.16" class="st8"/>
		</g>
		<g id="shape83-21" v:mID="83" v:groupContext="shape" transform="translate(10.1806,-14.8932)">
			<title>Foglio.83</title>
			<rect x="0" y="51.0463" width="81.248" height="238.11" class="st3"/>
		</g>
		<g id="group74-23" transform="translate(45.3657,-192.059) scale(-1,1)" v:mID="74" v:groupContext="group">
			<v:userDefs>
				<v:ud v:nameU="SkinColor" v:prompt="" v:val="VT5(#da8c36)"/>
				<v:ud v:nameU="visVersion" v:prompt="" v:val="VT0(12):26"/>
			</v:userDefs>
			<title>Persona - Mezzo busto</title>
			<g id="shape75-24" v:mID="75" v:groupContext="shape" transform="translate(2.57965,-6.56639)">
				<title>Foglio.75</title>
				<path d="M1.86 268.57 L1.72 268.64 A3.31251 3.31251 -180 0 0 0.42 271.32 L0.25 274.91 L0.13 277.5 L0 280.38 A2.46936
							 2.46936 -180 0 0 2.51 282.83 A11.4172 11.4172 -180 0 0 7.43 286.44 A91.6857 91.6857 -180 0 0 11.54 287.73
							 A4.70708 4.70708 -180 0 0 15.44 289.12 A6.3115 6.06979 -180 0 0 18.26 288.1 A3.16461 3.04342 -180 0
							 0 20.02 285.76 A163.493 157.231 -180 0 0 19.7 279.55 A326.221 313.727 -180 0 0 19.51 276.96 A14.9802
							 14.4065 -180 0 0 19.05 273.91 A12.1376 11.6728 -180 0 0 12.91 267.24 L12.9 266.19 A6.83961 6.83961 -180
							 0 0 15.3 260.93 A6.15397 6.15397 -180 0 0 9.69 254.51 A6.07588 6.07588 -180 0 0 4.08 260.93 A6.56598
							 6.56598 -180 0 0 6.38 266.14 L1.98 268.5 L1.86 268.57 Z" class="st9"/>
			</g>
			<g id="shape76-26" v:mID="76" v:groupContext="shape" transform="translate(2.80918,-7.29918)">
				<title>Foglio.76</title>
				<path d="M0.25 274.91 L0.42 271.32 A4.26804 4.26804 0 0 1 7.8 269.02 A13.673 13.673 0 0 1 14.87 284.77 L15.44 289.12
							 A4.70708 4.70708 0 0 1 11.54 287.73 A91.6857 91.6857 0 0 1 7.43 286.44 A11.4172 11.4172 0 0 1 2.51 282.83
							 A2.46936 2.46936 0 0 1 0 280.38 L0.13 277.5 L0.25 274.91 Z" class="st10"/>
			</g>
			<g id="shape77-32" v:mID="77" v:groupContext="shape" transform="translate(4.53387,-20.0239)">
				<title>Foglio.77</title>
				<path d="M12.14 289.16 L17.33 286.64 A12.1376 11.6728 -180 0 0 4.67 278.84 L0 281.37 A11.9282 11.4714 0 0 1 12.14
							 289.16 Z" class="st11"/>
			</g>
			<g id="shape78-36" v:mID="78" v:groupContext="shape" transform="translate(16.6776,-7.34555)">
				<title>Foglio.78</title>
				<path d="M0 276.48 A4.22423 4.06245 0 0 1 5.18 273.96 A14.9802 14.4065 0 0 1 5.64 277.01 A326.221 313.727 0 0 1 5.83
							 279.6 A163.493 157.231 0 0 1 6.15 285.81 A3.16461 3.04342 0 0 1 4.4 288.15 A5.77137 5.55034 0 0 1 0.77
							 289.15 L0 276.48 Z" class="st12"/>
			</g>
			<g id="shape79-42" v:mID="79" v:groupContext="shape" transform="translate(9.47259,-27.3794)">
				<title>Foglio.79</title>
				<path d="M0.15 286.36 L0.18 287.69 A2.23581 2.23581 -180 0 0 2.81 288.87 A5.96071 5.96071 -180 0 0 6.26 288.41 L6.23
							 285.89 A5.35584 5.35584 0 0 1 0.25 286.3 L0.15 286.36 Z" class="st13"/>
				<path d="M0.15 286.36 L0.18 287.69 A2.23581 2.23581 -180 0 0 2.81 288.87 A5.96071 5.96071 -180 0 0 6.26 288.41 L6.23
							 285.89 A5.35584 5.35584 0 0 1 0.25 286.3" class="st14"/>
			</g>
			<g id="shape80-47" v:mID="80" v:groupContext="shape" transform="translate(6.89219,-29.1668)">
				<title>Foglio.80</title>
				<path d="M11.22 282.8 A5.93051 5.93051 0 0 1 5.61 289.16 A5.86134 5.86134 0 0 1 0 282.8 A6.07588 6.07588 0 0 1 5.61
							 276.38 A6.15397 6.15397 0 0 1 11.22 282.8 L-2.81 273.18 L11.22 282.8 Z" class="st15"/>
				<path d="M11.22 282.8 A5.93051 5.93051 0 0 1 5.61 289.16 A5.86134 5.86134 0 0 1 0 282.8 A6.07588 6.07588 0 0 1 5.61
							 276.38 A6.15397 6.15397 0 0 1 11.22 282.8" class="st16"/>
			</g>
			<g id="shape81-52" v:mID="81" v:groupContext="shape" transform="translate(5.39904,-8.90112)">
				<title>Foglio.81</title>
				<path d="M0 284.26 L0 276.41 L0 284.26 Z M8.97 289.16 L8.97 281.3 L8.97 289.16 Z" class="st17"/>
				<path d="M0 284.26 L0 276.41M8.97 289.16 L8.97 281.3" class="st18"/>
			</g>
			<g id="shape82-55" v:mID="82" v:groupContext="shape" transform="translate(2.80819,-7.30781)">
				<title>Foglio.82</title>
				<path d="M17.29 288.61 A3.85984 3.85984 -180 0 0 20.02 285.77 A203.885 203.885 -180 0 0 19.43 275.96 A10.7789 10.7789
							 -180 0 0 15.19 268.64 A7.18898 7.18898 -180 0 0 12.94 267.27 L12.9 266.21 A6.86889 6.86889 -180 0 0
							 15.3 260.94 A6.08194 6.08194 -180 0 0 9.69 254.52 A6.08161 6.08161 -180 0 0 4.08 260.94 A6.74363 6.74363
							 -180 0 0 6.4 266.13 L1.73 268.65 A3.32654 3.32654 -180 0 0 0.42 271.33 L0 280.38 A2.10888 2.10888 -180
							 0 0 0.42 281.81 A2.82614 2.82614 -180 0 0 2.51 282.84 A15.1078 15.1078 -180 0 0 11.55 287.74 A4.88337
							 4.88337 -180 0 0 17.29 288.61 Z" class="st19"/>
			</g>
		</g>
		<g id="group84-57" transform="translate(44.8181,-165.129) scale(-1,1)" v:mID="84" v:groupContext="group">
			<v:userDefs>
				<v:ud v:nameU="SkinColor" v:prompt="" v:val="VT5(#da8c36)"/>
				<v:ud v:nameU="visVersion" v:prompt="" v:val="VT0(12):26"/>
			</v:userDefs>
			<title>Persona - Mezzo busto.84</title>
			<g id="shape85-58" v:mID="85" v:groupContext="shape" transform="translate(2.57965,-6.56639)">
				<title>Foglio.85</title>
				<path d="M1.86 268.57 L1.72 268.64 A3.31251 3.31251 -180 0 0 0.42 271.32 L0.25 274.91 L0.13 277.5 L0 280.38 A2.46936
							 2.46936 -180 0 0 2.51 282.83 A11.4172 11.4172 -180 0 0 7.43 286.44 A91.6857 91.6857 -180 0 0 11.54 287.73
							 A4.70708 4.70708 -180 0 0 15.44 289.12 A6.3115 6.06979 -180 0 0 18.26 288.1 A3.16461 3.04342 -180 0
							 0 20.02 285.76 A163.493 157.231 -180 0 0 19.7 279.55 A326.221 313.727 -180 0 0 19.51 276.96 A14.9802
							 14.4065 -180 0 0 19.05 273.91 A12.1376 11.6728 -180 0 0 12.91 267.24 L12.9 266.19 A6.83961 6.83961 -180
							 0 0 15.3 260.93 A6.15397 6.15397 -180 0 0 9.69 254.51 A6.07588 6.07588 -180 0 0 4.08 260.93 A6.56598
							 6.56598 -180 0 0 6.38 266.14 L1.98 268.5 L1.86 268.57 Z" class="st9"/>
			</g>
			<g id="shape86-60" v:mID="86" v:groupContext="shape" transform="translate(2.80918,-7.29918)">
				<title>Foglio.86</title>
				<path d="M0.25 274.91 L0.42 271.32 A4.26804 4.26804 0 0 1 7.8 269.02 A13.673 13.673 0 0 1 14.87 284.77 L15.44 289.12
							 A4.70708 4.70708 0 0 1 11.54 287.73 A91.6857 91.6857 0 0 1 7.43 286.44 A11.4172 11.4172 0 0 1 2.51 282.83
							 A2.46936 2.46936 0 0 1 0 280.38 L0.13 277.5 L0.25 274.91 Z" class="st10"/>
			</g>
			<g id="shape87-63" v:mID="87" v:groupContext="shape" transform="translate(4.53387,-20.0239)">
				<title>Foglio.87</title>
				<path d="M12.14 289.16 L17.33 286.64 A12.1376 11.6728 -180 0 0 4.67 278.84 L0 281.37 A11.9282 11.4714 0 0 1 12.14
							 289.16 Z" class="st11"/>
			</g>
			<g id="shape88-66" v:mID="88" v:groupContext="shape" transform="translate(16.6776,-7.34555)">
				<title>Foglio.88</title>
				<path d="M0 276.48 A4.22423 4.06245 0 0 1 5.18 273.96 A14.9802 14.4065 0 0 1 5.64 277.01 A326.221 313.727 0 0 1 5.83
							 279.6 A163.493 157.231 0 0 1 6.15 285.81 A3.16461 3.04342 0 0 1 4.4 288.15 A5.77137 5.55034 0 0 1 0.77
							 289.15 L0 276.48 Z" class="st12"/>
			</g>
			<g id="shape89-69" v:mID="89" v:groupContext="shape" transform="translate(9.47259,-27.3794)">
				<title>Foglio.89</title>
				<path d="M0.15 286.36 L0.18 287.69 A2.23581 2.23581 -180 0 0 2.81 288.87 A5.96071 5.96071 -180 0 0 6.26 288.41 L6.23
							 285.89 A5.35584 5.35584 0 0 1 0.25 286.3 L0.15 286.36 Z" class="st13"/>
				<path d="M0.15 286.36 L0.18 287.69 A2.23581 2.23581 -180 0 0 2.81 288.87 A5.96071 5.96071 -180 0 0 6.26 288.41 L6.23
							 285.89 A5.35584 5.35584 0 0 1 0.25 286.3" class="st14"/>
			</g>
			<g id="shape90-73" v:mID="90" v:groupContext="shape" transform="translate(6.89219,-29.1668)">
				<title>Foglio.90</title>
				<path d="M11.22 282.8 A5.93051 5.93051 0 0 1 5.61 289.16 A5.86134 5.86134 0 0 1 0 282.8 A6.07588 6.07588 0 0 1 5.61
							 276.38 A6.15397 6.15397 0 0 1 11.22 282.8 L-2.81 273.18 L11.22 282.8 Z" class="st15"/>
				<path d="M11.22 282.8 A5.93051 5.93051 0 0 1 5.61 289.16 A5.86134 5.86134 0 0 1 0 282.8 A6.07588 6.07588 0 0 1 5.61
							 276.38 A6.15397 6.15397 0 0 1 11.22 282.8" class="st16"/>
			</g>
			<g id="shape91-77" v:mID="91" v:groupContext="shape" transform="translate(5.39904,-8.90112)">
				<title>Foglio.91</title>
				<path d="M0 284.26 L0 276.41 L0 284.26 Z M8.97 289.16 L8.97 281.3 L8.97 289.16 Z" class="st17"/>
				<path d="M0 284.26 L0 276.41M8.97 289.16 L8.97 281.3" class="st18"/>
			</g>
			<g id="shape92-80" v:mID="92" v:groupContext="shape" transform="translate(2.80819,-7.30781)">
				<title>Foglio.92</title>
				<path d="M17.29 288.61 A3.85984 3.85984 -180 0 0 20.02 285.77 A203.885 203.885 -180 0 0 19.43 275.96 A10.7789 10.7789
							 -180 0 0 15.19 268.64 A7.18898 7.18898 -180 0 0 12.94 267.27 L12.9 266.21 A6.86889 6.86889 -180 0 0
							 15.3 260.94 A6.08194 6.08194 -180 0 0 9.69 254.52 A6.08161 6.08161 -180 0 0 4.08 260.94 A6.74363 6.74363
							 -180 0 0 6.4 266.13 L1.73 268.65 A3.32654 3.32654 -180 0 0 0.42 271.33 L0 280.38 A2.10888 2.10888 -180
							 0 0 0.42 281.81 A2.82614 2.82614 -180 0 0 2.51 282.84 A15.1078 15.1078 -180 0 0 11.55 287.74 A4.88337
							 4.88337 -180 0 0 17.29 288.61 Z" class="st19"/>
			</g>
		</g>
		<g id="group93-82" transform="translate(46.0743,-138.2) scale(-1,1)" v:mID="93" v:groupContext="group">
			<v:userDefs>
				<v:ud v:nameU="SkinColor" v:prompt="" v:val="VT5(#da8c36)"/>
				<v:ud v:nameU="visVersion" v:prompt="" v:val="VT0(12):26"/>
			</v:userDefs>
			<title>Persona - Mezzo busto.93</title>
			<g id="shape94-83" v:mID="94" v:groupContext="shape" transform="translate(2.57965,-6.56639)">
				<title>Foglio.94</title>
				<path d="M1.86 268.57 L1.72 268.64 A3.31251 3.31251 -180 0 0 0.42 271.32 L0.25 274.91 L0.13 277.5 L0 280.38 A2.46936
							 2.46936 -180 0 0 2.51 282.83 A11.4172 11.4172 -180 0 0 7.43 286.44 A91.6857 91.6857 -180 0 0 11.54 287.73
							 A4.70708 4.70708 -180 0 0 15.44 289.12 A6.3115 6.06979 -180 0 0 18.26 288.1 A3.16461 3.04342 -180 0
							 0 20.02 285.76 A163.493 157.231 -180 0 0 19.7 279.55 A326.221 313.727 -180 0 0 19.51 276.96 A14.9802
							 14.4065 -180 0 0 19.05 273.91 A12.1376 11.6728 -180 0 0 12.91 267.24 L12.9 266.19 A6.83961 6.83961 -180
							 0 0 15.3 260.93 A6.15397 6.15397 -180 0 0 9.69 254.51 A6.07588 6.07588 -180 0 0 4.08 260.93 A6.56598
							 6.56598 -180 0 0 6.38 266.14 L1.98 268.5 L1.86 268.57 Z" class="st9"/>
			</g>
			<g id="shape95-85" v:mID="95" v:groupContext="shape" transform="translate(2.80918,-7.29918)">
				<title>Foglio.95</title>
				<path d="M0.25 274.91 L0.42 271.32 A4.26804 4.26804 0 0 1 7.8 269.02 A13.673 13.673 0 0 1 14.87 284.77 L15.44 289.12
							 A4.70708 4.70708 0 0 1 11.54 287.73 A91.6857 91.6857 0 0 1 7.43 286.44 A11.4172 11.4172 0 0 1 2.51 282.83
							 A2.46936 2.46936 0 0 1 0 280.38 L0.13 277.5 L0.25 274.91 Z" class="st10"/>
			</g>
			<g id="shape96-88" v:mID="96" v:groupContext="shape" transform="translate(4.53387,-20.0239)">
				<title>Foglio.96</title>
				<path d="M12.14 289.16 L17.33 286.64 A12.1376 11.6728 -180 0 0 4.67 278.84 L0 281.37 A11.9282 11.4714 0 0 1 12.14
							 289.16 Z" class="st11"/>
			</g>
			<g id="shape97-91" v:mID="97" v:groupContext="shape" transform="translate(16.6776,-7.34555)">
				<title>Foglio.97</title>
				<path d="M0 276.48 A4.22423 4.06245 0 0 1 5.18 273.96 A14.9802 14.4065 0 0 1 5.64 277.01 A326.221 313.727 0 0 1 5.83
							 279.6 A163.493 157.231 0 0 1 6.15 285.81 A3.16461 3.04342 0 0 1 4.4 288.15 A5.77137 5.55034 0 0 1 0.77
							 289.15 L0 276.48 Z" class="st12"/>
			</g>
			<g id="shape98-94" v:mID="98" v:groupContext="shape" transform="translate(9.47259,-27.3794)">
				<title>Foglio.98</title>
				<path d="M0.15 286.36 L0.18 287.69 A2.23581 2.23581 -180 0 0 2.81 288.87 A5.96071 5.96071 -180 0 0 6.26 288.41 L6.23
							 285.89 A5.35584 5.35584 0 0 1 0.25 286.3 L0.15 286.36 Z" class="st13"/>
				<path d="M0.15 286.36 L0.18 287.69 A2.23581 2.23581 -180 0 0 2.81 288.87 A5.96071 5.96071 -180 0 0 6.26 288.41 L6.23
							 285.89 A5.35584 5.35584 0 0 1 0.25 286.3" class="st14"/>
			</g>
			<g id="shape99-98" v:mID="99" v:groupContext="shape" transform="translate(6.89219,-29.1668)">
				<title>Foglio.99</title>
				<path d="M11.22 282.8 A5.93051 5.93051 0 0 1 5.61 289.16 A5.86134 5.86134 0 0 1 0 282.8 A6.07588 6.07588 0 0 1 5.61
							 276.38 A6.15397 6.15397 0 0 1 11.22 282.8 L-2.81 273.18 L11.22 282.8 Z" class="st15"/>
				<path d="M11.22 282.8 A5.93051 5.93051 0 0 1 5.61 289.16 A5.86134 5.86134 0 0 1 0 282.8 A6.07588 6.07588 0 0 1 5.61
							 276.38 A6.15397 6.15397 0 0 1 11.22 282.8" class="st16"/>
			</g>
			<g id="shape100-102" v:mID="100" v:groupContext="shape" transform="translate(5.39904,-8.90112)">
				<title>Foglio.100</title>
				<path d="M0 284.26 L0 276.41 L0 284.26 Z M8.97 289.16 L8.97 281.3 L8.97 289.16 Z" class="st17"/>
				<path d="M0 284.26 L0 276.41M8.97 289.16 L8.97 281.3" class="st18"/>
			</g>
			<g id="shape101-105" v:mID="101" v:groupContext="shape" transform="translate(2.80819,-7.30781)">
				<title>Foglio.101</title>
				<path d="M17.29 288.61 A3.85984 3.85984 -180 0 0 20.02 285.77 A203.885 203.885 -180 0 0 19.43 275.96 A10.7789 10.7789
							 -180 0 0 15.19 268.64 A7.18898 7.18898 -180 0 0 12.94 267.27 L12.9 266.21 A6.86889 6.86889 -180 0 0
							 15.3 260.94 A6.08194 6.08194 -180 0 0 9.69 254.52 A6.08161 6.08161 -180 0 0 4.08 260.94 A6.74363 6.74363
							 -180 0 0 6.4 266.13 L1.73 268.65 A3.32654 3.32654 -180 0 0 0.42 271.33 L0 280.38 A2.10888 2.10888 -180
							 0 0 0.42 281.81 A2.82614 2.82614 -180 0 0 2.51 282.84 A15.1078 15.1078 -180 0 0 11.55 287.74 A4.88337
							 4.88337 -180 0 0 17.29 288.61 Z" class="st19"/>
			</g>
		</g>
		<g id="shape55-107" v:mID="55" v:groupContext="shape" transform="translate(41.7586,-200.563)">
			<title>Foglio.55</title>
			<desc>User 1</desc>
			<v:textBlock v:margins="rect(4,4,4,4)" v:tabSpace="42.5197"/>
			<v:textRect cx="18.489" cy="278.527" width="36.98" height="21.2598"/>
			<rect x="0" y="267.897" width="36.978" height="21.2598" class="st4"/>
			<text x="6.71" y="280.93" class="st5" v:langID="1040"><v:paragraph v:horizAlign="1"/><v:tabList/>User 1</text>		</g>
		<g id="shape102-110" v:mID="102" v:groupContext="shape" transform="translate(41.7586,-176.468)">
			<title>Foglio.102</title>
			<desc>User 2</desc>
			<v:textBlock v:margins="rect(4,4,4,4)" v:tabSpace="42.5197"/>
			<v:textRect cx="18.489" cy="278.527" width="36.98" height="21.2598"/>
			<rect x="0" y="267.897" width="36.978" height="21.2598" class="st4"/>
			<text x="6.71" y="280.93" class="st5" v:langID="1040"><v:paragraph v:horizAlign="1"/><v:tabList/>User 2</text>		</g>
		<g id="shape103-113" v:mID="103" v:groupContext="shape" transform="translate(41.7586,-151.211)">
			<title>Foglio.103</title>
			<desc>User 3</desc>
			<v:textBlock v:margins="rect(4,4,4,4)" v:tabSpace="42.5197"/>
			<v:textRect cx="18.489" cy="278.527" width="36.98" height="21.2598"/>
			<rect x="0" y="267.897" width="36.978" height="21.2598" class="st4"/>
			<text x="6.71" y="280.93" class="st5" v:langID="1040"><v:paragraph v:horizAlign="1"/><v:tabList/>User 3</text>		</g>
		<g id="shape104-116" v:mID="104" v:groupContext="shape" transform="translate(16.3106,-20.5625)">
			<title>Foglio.104</title>
			<rect x="0" y="175.771" width="68.0315" height="113.386" class="st2"/>
		</g>
		<g id="group105-118" transform="translate(46.783,-73.0035) scale(-1,1)" v:mID="105" v:groupContext="group">
			<v:userDefs>
				<v:ud v:nameU="SkinColor" v:prompt="" v:val="VT5(#da8c36)"/>
				<v:ud v:nameU="visVersion" v:prompt="" v:val="VT0(12):26"/>
			</v:userDefs>
			<title>Persona - Mezzo busto.105</title>
			<g id="shape106-119" v:mID="106" v:groupContext="shape" transform="translate(2.57965,-6.56639)">
				<title>Foglio.106</title>
				<path d="M1.86 268.57 L1.72 268.64 A3.31251 3.31251 -180 0 0 0.42 271.32 L0.25 274.91 L0.13 277.5 L0 280.38 A2.46936
							 2.46936 -180 0 0 2.51 282.83 A11.4172 11.4172 -180 0 0 7.43 286.44 A91.6857 91.6857 -180 0 0 11.54 287.73
							 A4.70708 4.70708 -180 0 0 15.44 289.12 A6.3115 6.06979 -180 0 0 18.26 288.1 A3.16461 3.04342 -180 0
							 0 20.02 285.76 A163.493 157.231 -180 0 0 19.7 279.55 A326.221 313.727 -180 0 0 19.51 276.96 A14.9802
							 14.4065 -180 0 0 19.05 273.91 A12.1376 11.6728 -180 0 0 12.91 267.24 L12.9 266.19 A6.83961 6.83961 -180
							 0 0 15.3 260.93 A6.15397 6.15397 -180 0 0 9.69 254.51 A6.07588 6.07588 -180 0 0 4.08 260.93 A6.56598
							 6.56598 -180 0 0 6.38 266.14 L1.98 268.5 L1.86 268.57 Z" class="st9"/>
			</g>
			<g id="shape107-121" v:mID="107" v:groupContext="shape" transform="translate(2.80918,-7.29918)">
				<title>Foglio.107</title>
				<path d="M0.25 274.91 L0.42 271.32 A4.26804 4.26804 0 0 1 7.8 269.02 A13.673 13.673 0 0 1 14.87 284.77 L15.44 289.12
							 A4.70708 4.70708 0 0 1 11.54 287.73 A91.6857 91.6857 0 0 1 7.43 286.44 A11.4172 11.4172 0 0 1 2.51 282.83
							 A2.46936 2.46936 0 0 1 0 280.38 L0.13 277.5 L0.25 274.91 Z" class="st10"/>
			</g>
			<g id="shape108-124" v:mID="108" v:groupContext="shape" transform="translate(4.53387,-20.0239)">
				<title>Foglio.108</title>
				<path d="M12.14 289.16 L17.33 286.64 A12.1376 11.6728 -180 0 0 4.67 278.84 L0 281.37 A11.9282 11.4714 0 0 1 12.14
							 289.16 Z" class="st11"/>
			</g>
			<g id="shape109-127" v:mID="109" v:groupContext="shape" transform="translate(16.6776,-7.34555)">
				<title>Foglio.109</title>
				<path d="M0 276.48 A4.22423 4.06245 0 0 1 5.18 273.96 A14.9802 14.4065 0 0 1 5.64 277.01 A326.221 313.727 0 0 1 5.83
							 279.6 A163.493 157.231 0 0 1 6.15 285.81 A3.16461 3.04342 0 0 1 4.4 288.15 A5.77137 5.55034 0 0 1 0.77
							 289.15 L0 276.48 Z" class="st12"/>
			</g>
			<g id="shape110-130" v:mID="110" v:groupContext="shape" transform="translate(9.47259,-27.3794)">
				<title>Foglio.110</title>
				<path d="M0.15 286.36 L0.18 287.69 A2.23581 2.23581 -180 0 0 2.81 288.87 A5.96071 5.96071 -180 0 0 6.26 288.41 L6.23
							 285.89 A5.35584 5.35584 0 0 1 0.25 286.3 L0.15 286.36 Z" class="st13"/>
				<path d="M0.15 286.36 L0.18 287.69 A2.23581 2.23581 -180 0 0 2.81 288.87 A5.96071 5.96071 -180 0 0 6.26 288.41 L6.23
							 285.89 A5.35584 5.35584 0 0 1 0.25 286.3" class="st14"/>
			</g>
			<g id="shape111-134" v:mID="111" v:groupContext="shape" transform="translate(6.89219,-29.1668)">
				<title>Foglio.111</title>
				<path d="M11.22 282.8 A5.93051 5.93051 0 0 1 5.61 289.16 A5.86134 5.86134 0 0 1 0 282.8 A6.07588 6.07588 0 0 1 5.61
							 276.38 A6.15397 6.15397 0 0 1 11.22 282.8 L-2.81 273.18 L11.22 282.8 Z" class="st15"/>
				<path d="M11.22 282.8 A5.93051 5.93051 0 0 1 5.61 289.16 A5.86134 5.86134 0 0 1 0 282.8 A6.07588 6.07588 0 0 1 5.61
							 276.38 A6.15397 6.15397 0 0 1 11.22 282.8" class="st16"/>
			</g>
			<g id="shape112-138" v:mID="112" v:groupContext="shape" transform="translate(5.39904,-8.90112)">
				<title>Foglio.112</title>
				<path d="M0 284.26 L0 276.41 L0 284.26 Z M8.97 289.16 L8.97 281.3 L8.97 289.16 Z" class="st17"/>
				<path d="M0 284.26 L0 276.41M8.97 289.16 L8.97 281.3" class="st18"/>
			</g>
			<g id="shape113-141" v:mID="113" v:groupContext="shape" transform="translate(2.80819,-7.30781)">
				<title>Foglio.113</title>
				<path d="M17.29 288.61 A3.85984 3.85984 -180 0 0 20.02 285.77 A203.885 203.885 -180 0 0 19.43 275.96 A10.7789 10.7789
							 -180 0 0 15.19 268.64 A7.18898 7.18898 -180 0 0 12.94 267.27 L12.9 266.21 A6.86889 6.86889 -180 0 0
							 15.3 260.94 A6.08194 6.08194 -180 0 0 9.69 254.52 A6.08161 6.08161 -180 0 0 4.08 260.94 A6.74363 6.74363
							 -180 0 0 6.4 266.13 L1.73 268.65 A3.32654 3.32654 -180 0 0 0.42 271.33 L0 280.38 A2.10888 2.10888 -180
							 0 0 0.42 281.81 A2.82614 2.82614 -180 0 0 2.51 282.84 A15.1078 15.1078 -180 0 0 11.55 287.74 A4.88337
							 4.88337 -180 0 0 17.29 288.61 Z" class="st19"/>
			</g>
		</g>
		<g id="group114-143" transform="translate(46.7025,-46.0743) scale(-1,1)" v:mID="114" v:groupContext="group">
			<v:userDefs>
				<v:ud v:nameU="SkinColor" v:prompt="" v:val="VT5(#da8c36)"/>
				<v:ud v:nameU="visVersion" v:prompt="" v:val="VT0(12):26"/>
			</v:userDefs>
			<title>Persona - Mezzo busto.114</title>
			<g id="shape115-144" v:mID="115" v:groupContext="shape" transform="translate(2.57965,-6.56639)">
				<title>Foglio.115</title>
				<path d="M1.86 268.57 L1.72 268.64 A3.31251 3.31251 -180 0 0 0.42 271.32 L0.25 274.91 L0.13 277.5 L0 280.38 A2.46936
							 2.46936 -180 0 0 2.51 282.83 A11.4172 11.4172 -180 0 0 7.43 286.44 A91.6857 91.6857 -180 0 0 11.54 287.73
							 A4.70708 4.70708 -180 0 0 15.44 289.12 A6.3115 6.06979 -180 0 0 18.26 288.1 A3.16461 3.04342 -180 0
							 0 20.02 285.76 A163.493 157.231 -180 0 0 19.7 279.55 A326.221 313.727 -180 0 0 19.51 276.96 A14.9802
							 14.4065 -180 0 0 19.05 273.91 A12.1376 11.6728 -180 0 0 12.91 267.24 L12.9 266.19 A6.83961 6.83961 -180
							 0 0 15.3 260.93 A6.15397 6.15397 -180 0 0 9.69 254.51 A6.07588 6.07588 -180 0 0 4.08 260.93 A6.56598
							 6.56598 -180 0 0 6.38 266.14 L1.98 268.5 L1.86 268.57 Z" class="st9"/>
			</g>
			<g id="shape116-146" v:mID="116" v:groupContext="shape" transform="translate(2.80918,-7.29918)">
				<title>Foglio.116</title>
				<path d="M0.25 274.91 L0.42 271.32 A4.26804 4.26804 0 0 1 7.8 269.02 A13.673 13.673 0 0 1 14.87 284.77 L15.44 289.12
							 A4.70708 4.70708 0 0 1 11.54 287.73 A91.6857 91.6857 0 0 1 7.43 286.44 A11.4172 11.4172 0 0 1 2.51 282.83
							 A2.46936 2.46936 0 0 1 0 280.38 L0.13 277.5 L0.25 274.91 Z" class="st10"/>
			</g>
			<g id="shape117-149" v:mID="117" v:groupContext="shape" transform="translate(4.53387,-20.0239)">
				<title>Foglio.117</title>
				<path d="M12.14 289.16 L17.33 286.64 A12.1376 11.6728 -180 0 0 4.67 278.84 L0 281.37 A11.9282 11.4714 0 0 1 12.14
							 289.16 Z" class="st11"/>
			</g>
			<g id="shape118-152" v:mID="118" v:groupContext="shape" transform="translate(16.6776,-7.34555)">
				<title>Foglio.118</title>
				<path d="M0 276.48 A4.22423 4.06245 0 0 1 5.18 273.96 A14.9802 14.4065 0 0 1 5.64 277.01 A326.221 313.727 0 0 1 5.83
							 279.6 A163.493 157.231 0 0 1 6.15 285.81 A3.16461 3.04342 0 0 1 4.4 288.15 A5.77137 5.55034 0 0 1 0.77
							 289.15 L0 276.48 Z" class="st12"/>
			</g>
			<g id="shape119-155" v:mID="119" v:groupContext="shape" transform="translate(9.47259,-27.3794)">
				<title>Foglio.119</title>
				<path d="M0.15 286.36 L0.18 287.69 A2.23581 2.23581 -180 0 0 2.81 288.87 A5.96071 5.96071 -180 0 0 6.26 288.41 L6.23
							 285.89 A5.35584 5.35584 0 0 1 0.25 286.3 L0.15 286.36 Z" class="st13"/>
				<path d="M0.15 286.36 L0.18 287.69 A2.23581 2.23581 -180 0 0 2.81 288.87 A5.96071 5.96071 -180 0 0 6.26 288.41 L6.23
							 285.89 A5.35584 5.35584 0 0 1 0.25 286.3" class="st14"/>
			</g>
			<g id="shape120-159" v:mID="120" v:groupContext="shape" transform="translate(6.89219,-29.1668)">
				<title>Foglio.120</title>
				<path d="M11.22 282.8 A5.93051 5.93051 0 0 1 5.61 289.16 A5.86134 5.86134 0 0 1 0 282.8 A6.07588 6.07588 0 0 1 5.61
							 276.38 A6.15397 6.15397 0 0 1 11.22 282.8 L-2.81 273.18 L11.22 282.8 Z" class="st15"/>
				<path d="M11.22 282.8 A5.93051 5.93051 0 0 1 5.61 289.16 A5.86134 5.86134 0 0 1 0 282.8 A6.07588 6.07588 0 0 1 5.61
							 276.38 A6.15397 6.15397 0 0 1 11.22 282.8" class="st16"/>
			</g>
			<g id="shape121-163" v:mID="121" v:groupContext="shape" transform="translate(5.39904,-8.90112)">
				<title>Foglio.121</title>
				<path d="M0 284.26 L0 276.41 L0 284.26 Z M8.97 289.16 L8.97 281.3 L8.97 289.16 Z" class="st17"/>
				<path d="M0 284.26 L0 276.41M8.97 289.16 L8.97 281.3" class="st18"/>
			</g>
			<g id="shape122-166" v:mID="122" v:groupContext="shape" transform="translate(2.80819,-7.30781)">
				<title>Foglio.122</title>
				<path d="M17.29 288.61 A3.85984 3.85984 -180 0 0 20.02 285.77 A203.885 203.885 -180 0 0 19.43 275.96 A10.7789 10.7789
							 -180 0 0 15.19 268.64 A7.18898 7.18898 -180 0 0 12.94 267.27 L12.9 266.21 A6.86889 6.86889 -180 0 0
							 15.3 260.94 A6.08194 6.08194 -180 0 0 9.69 254.52 A6.08161 6.08161 -180 0 0 4.08 260.94 A6.74363 6.74363
							 -180 0 0 6.4 266.13 L1.73 268.65 A3.32654 3.32654 -180 0 0 0.42 271.33 L0 280.38 A2.10888 2.10888 -180
							 0 0 0.42 281.81 A2.82614 2.82614 -180 0 0 2.51 282.84 A15.1078 15.1078 -180 0 0 11.55 287.74 A4.88337
							 4.88337 -180 0 0 17.29 288.61 Z" class="st19"/>
			</g>
		</g>
		<g id="group123-168" transform="translate(47.9587,-19.1452) scale(-1,1)" v:mID="123" v:groupContext="group">
			<v:userDefs>
				<v:ud v:nameU="SkinColor" v:prompt="" v:val="VT5(#da8c36)"/>
				<v:ud v:nameU="visVersion" v:prompt="" v:val="VT0(12):26"/>
			</v:userDefs>
			<title>Persona - Mezzo busto.123</title>
			<g id="shape124-169" v:mID="124" v:groupContext="shape" transform="translate(2.57965,-6.56639)">
				<title>Foglio.124</title>
				<path d="M1.86 268.57 L1.72 268.64 A3.31251 3.31251 -180 0 0 0.42 271.32 L0.25 274.91 L0.13 277.5 L0 280.38 A2.46936
							 2.46936 -180 0 0 2.51 282.83 A11.4172 11.4172 -180 0 0 7.43 286.44 A91.6857 91.6857 -180 0 0 11.54 287.73
							 A4.70708 4.70708 -180 0 0 15.44 289.12 A6.3115 6.06979 -180 0 0 18.26 288.1 A3.16461 3.04342 -180 0
							 0 20.02 285.76 A163.493 157.231 -180 0 0 19.7 279.55 A326.221 313.727 -180 0 0 19.51 276.96 A14.9802
							 14.4065 -180 0 0 19.05 273.91 A12.1376 11.6728 -180 0 0 12.91 267.24 L12.9 266.19 A6.83961 6.83961 -180
							 0 0 15.3 260.93 A6.15397 6.15397 -180 0 0 9.69 254.51 A6.07588 6.07588 -180 0 0 4.08 260.93 A6.56598
							 6.56598 -180 0 0 6.38 266.14 L1.98 268.5 L1.86 268.57 Z" class="st9"/>
			</g>
			<g id="shape125-171" v:mID="125" v:groupContext="shape" transform="translate(2.80918,-7.29918)">
				<title>Foglio.125</title>
				<path d="M0.25 274.91 L0.42 271.32 A4.26804 4.26804 0 0 1 7.8 269.02 A13.673 13.673 0 0 1 14.87 284.77 L15.44 289.12
							 A4.70708 4.70708 0 0 1 11.54 287.73 A91.6857 91.6857 0 0 1 7.43 286.44 A11.4172 11.4172 0 0 1 2.51 282.83
							 A2.46936 2.46936 0 0 1 0 280.38 L0.13 277.5 L0.25 274.91 Z" class="st10"/>
			</g>
			<g id="shape126-174" v:mID="126" v:groupContext="shape" transform="translate(4.53387,-20.0239)">
				<title>Foglio.126</title>
				<path d="M12.14 289.16 L17.33 286.64 A12.1376 11.6728 -180 0 0 4.67 278.84 L0 281.37 A11.9282 11.4714 0 0 1 12.14
							 289.16 Z" class="st11"/>
			</g>
			<g id="shape127-177" v:mID="127" v:groupContext="shape" transform="translate(16.6776,-7.34555)">
				<title>Foglio.127</title>
				<path d="M0 276.48 A4.22423 4.06245 0 0 1 5.18 273.96 A14.9802 14.4065 0 0 1 5.64 277.01 A326.221 313.727 0 0 1 5.83
							 279.6 A163.493 157.231 0 0 1 6.15 285.81 A3.16461 3.04342 0 0 1 4.4 288.15 A5.77137 5.55034 0 0 1 0.77
							 289.15 L0 276.48 Z" class="st12"/>
			</g>
			<g id="shape128-180" v:mID="128" v:groupContext="shape" transform="translate(9.47259,-27.3794)">
				<title>Foglio.128</title>
				<path d="M0.15 286.36 L0.18 287.69 A2.23581 2.23581 -180 0 0 2.81 288.87 A5.96071 5.96071 -180 0 0 6.26 288.41 L6.23
							 285.89 A5.35584 5.35584 0 0 1 0.25 286.3 L0.15 286.36 Z" class="st13"/>
				<path d="M0.15 286.36 L0.18 287.69 A2.23581 2.23581 -180 0 0 2.81 288.87 A5.96071 5.96071 -180 0 0 6.26 288.41 L6.23
							 285.89 A5.35584 5.35584 0 0 1 0.25 286.3" class="st14"/>
			</g>
			<g id="shape129-184" v:mID="129" v:groupContext="shape" transform="translate(6.89219,-29.1668)">
				<title>Foglio.129</title>
				<path d="M11.22 282.8 A5.93051 5.93051 0 0 1 5.61 289.16 A5.86134 5.86134 0 0 1 0 282.8 A6.07588 6.07588 0 0 1 5.61
							 276.38 A6.15397 6.15397 0 0 1 11.22 282.8 L-2.81 273.18 L11.22 282.8 Z" class="st15"/>
				<path d="M11.22 282.8 A5.93051 5.93051 0 0 1 5.61 289.16 A5.86134 5.86134 0 0 1 0 282.8 A6.07588 6.07588 0 0 1 5.61
							 276.38 A6.15397 6.15397 0 0 1 11.22 282.8" class="st16"/>
			</g>
			<g id="shape130-188" v:mID="130" v:groupContext="shape" transform="translate(5.39904,-8.90112)">
				<title>Foglio.130</title>
				<path d="M0 284.26 L0 276.41 L0 284.26 Z M8.97 289.16 L8.97 281.3 L8.97 289.16 Z" class="st17"/>
				<path d="M0 284.26 L0 276.41M8.97 289.16 L8.97 281.3" class="st18"/>
			</g>
			<g id="shape131-191" v:mID="131" v:groupContext="shape" transform="translate(2.80819,-7.30781)">
				<title>Foglio.131</title>
				<path d="M17.29 288.61 A3.85984 3.85984 -180 0 0 20.02 285.77 A203.885 203.885 -180 0 0 19.43 275.96 A10.7789 10.7789
							 -180 0 0 15.19 268.64 A7.18898 7.18898 -180 0 0 12.94 267.27 L12.9 266.21 A6.86889 6.86889 -180 0 0
							 15.3 260.94 A6.08194 6.08194 -180 0 0 9.69 254.52 A6.08161 6.08161 -180 0 0 4.08 260.94 A6.74363 6.74363
							 -180 0 0 6.4 266.13 L1.73 268.65 A3.32654 3.32654 -180 0 0 0.42 271.33 L0 280.38 A2.10888 2.10888 -180
							 0 0 0.42 281.81 A2.82614 2.82614 -180 0 0 2.51 282.84 A15.1078 15.1078 -180 0 0 11.55 287.74 A4.88337
							 4.88337 -180 0 0 17.29 288.61 Z" class="st19"/>
			</g>
		</g>
		<g id="shape132-193" v:mID="132" v:groupContext="shape" transform="translate(43.2397,-81.5074)">
			<title>Foglio.132</title>
			<desc>User 1</desc>
			<v:textBlock v:margins="rect(4,4,4,4)" v:tabSpace="42.5197"/>
			<v:textRect cx="18.489" cy="278.527" width="36.98" height="21.2598"/>
			<rect x="0" y="267.897" width="36.978" height="21.2598" class="st4"/>
			<text x="6.71" y="280.93" class="st5" v:langID="1040"><v:paragraph v:horizAlign="1"/><v:tabList/>User 1</text>		</g>
		<g id="shape133-196" v:mID="133" v:groupContext="shape" transform="translate(43.2397,-57.4129)">
			<title>Foglio.133</title>
			<desc>User 2</desc>
			<v:textBlock v:margins="rect(4,4,4,4)" v:tabSpace="42.5197"/>
			<v:textRect cx="18.489" cy="278.527" width="36.98" height="21.2598"/>
			<rect x="0" y="267.897" width="36.978" height="21.2598" class="st4"/>
			<text x="6.71" y="280.93" class="st5" v:langID="1040"><v:paragraph v:horizAlign="1"/><v:tabList/>User 2</text>		</g>
		<g id="shape134-199" v:mID="134" v:groupContext="shape" transform="translate(43.2397,-32.1562)">
			<title>Foglio.134</title>
			<desc>User 3</desc>
			<v:textBlock v:margins="rect(4,4,4,4)" v:tabSpace="42.5197"/>
			<v:textRect cx="18.489" cy="278.527" width="36.98" height="21.2598"/>
			<rect x="0" y="267.897" width="36.978" height="21.2598" class="st4"/>
			<text x="6.71" y="280.93" class="st5" v:langID="1040"><v:paragraph v:horizAlign="1"/><v:tabList/>User 3</text>		</g>
		<g id="shape135-202" v:mID="135" v:groupContext="shape" transform="translate(26.2318,-112.689)">
			<title>Foglio.135</title>
			<desc>Group 1</desc>
			<v:textBlock v:margins="rect(4,4,4,4)" v:tabSpace="42.5197"/>
			<v:textRect cx="18.489" cy="278.527" width="36.98" height="21.2598"/>
			<rect x="0" y="267.897" width="36.978" height="21.2598" class="st4"/>
			<text x="4.04" y="280.93" class="st5" v:langID="1040"><v:paragraph v:horizAlign="1"/><v:tabList/>Group 1</text>		</g>
		<g id="shape136-205" v:mID="136" v:groupContext="shape" transform="translate(136.783,-136.783)">
			<title>Foglio.136</title>
			<rect x="0" y="229.629" width="45.3543" height="59.5276" class="st2"/>
		</g>
		<g id="group137-207" transform="translate(167.255,-135.366) scale(-1,1)" v:mID="137" v:groupContext="group">
			<v:userDefs>
				<v:ud v:nameU="SkinColor" v:prompt="" v:val="VT5(#da8c36)"/>
				<v:ud v:nameU="visVersion" v:prompt="" v:val="VT0(12):26"/>
			</v:userDefs>
			<title>Persona - Mezzo busto.137</title>
			<g id="shape138-208" v:mID="138" v:groupContext="shape" transform="translate(2.57965,-6.56639)">
				<title>Foglio.138</title>
				<path d="M1.86 268.57 L1.72 268.64 A3.31251 3.31251 -180 0 0 0.42 271.32 L0.25 274.91 L0.13 277.5 L0 280.38 A2.46936
							 2.46936 -180 0 0 2.51 282.83 A11.4172 11.4172 -180 0 0 7.43 286.44 A91.6857 91.6857 -180 0 0 11.54 287.73
							 A4.70708 4.70708 -180 0 0 15.44 289.12 A6.3115 6.06979 -180 0 0 18.26 288.1 A3.16461 3.04342 -180 0
							 0 20.02 285.76 A163.493 157.231 -180 0 0 19.7 279.55 A326.221 313.727 -180 0 0 19.51 276.96 A14.9802
							 14.4065 -180 0 0 19.05 273.91 A12.1376 11.6728 -180 0 0 12.91 267.24 L12.9 266.19 A6.83961 6.83961 -180
							 0 0 15.3 260.93 A6.15397 6.15397 -180 0 0 9.69 254.51 A6.07588 6.07588 -180 0 0 4.08 260.93 A6.56598
							 6.56598 -180 0 0 6.38 266.14 L1.98 268.5 L1.86 268.57 Z" class="st9"/>
			</g>
			<g id="shape139-210" v:mID="139" v:groupContext="shape" transform="translate(2.80918,-7.29918)">
				<title>Foglio.139</title>
				<path d="M0.25 274.91 L0.42 271.32 A4.26804 4.26804 0 0 1 7.8 269.02 A13.673 13.673 0 0 1 14.87 284.77 L15.44 289.12
							 A4.70708 4.70708 0 0 1 11.54 287.73 A91.6857 91.6857 0 0 1 7.43 286.44 A11.4172 11.4172 0 0 1 2.51 282.83
							 A2.46936 2.46936 0 0 1 0 280.38 L0.13 277.5 L0.25 274.91 Z" class="st20"/>
			</g>
			<g id="shape140-216" v:mID="140" v:groupContext="shape" transform="translate(4.53387,-20.0239)">
				<title>Foglio.140</title>
				<path d="M12.14 289.16 L17.33 286.64 A12.1376 11.6728 -180 0 0 4.67 278.84 L0 281.37 A11.9282 11.4714 0 0 1 12.14
							 289.16 Z" class="st21"/>
			</g>
			<g id="shape141-220" v:mID="141" v:groupContext="shape" transform="translate(16.6776,-7.34555)">
				<title>Foglio.141</title>
				<path d="M0 276.48 A4.22423 4.06245 0 0 1 5.18 273.96 A14.9802 14.4065 0 0 1 5.64 277.01 A326.221 313.727 0 0 1 5.83
							 279.6 A163.493 157.231 0 0 1 6.15 285.81 A3.16461 3.04342 0 0 1 4.4 288.15 A5.77137 5.55034 0 0 1 0.77
							 289.15 L0 276.48 Z" class="st22"/>
			</g>
			<g id="shape142-226" v:mID="142" v:groupContext="shape" transform="translate(9.47259,-27.3794)">
				<title>Foglio.142</title>
				<path d="M0.15 286.36 L0.18 287.69 A2.23581 2.23581 -180 0 0 2.81 288.87 A5.96071 5.96071 -180 0 0 6.26 288.41 L6.23
							 285.89 A5.35584 5.35584 0 0 1 0.25 286.3 L0.15 286.36 Z" class="st23"/>
				<path d="M0.15 286.36 L0.18 287.69 A2.23581 2.23581 -180 0 0 2.81 288.87 A5.96071 5.96071 -180 0 0 6.26 288.41 L6.23
							 285.89 A5.35584 5.35584 0 0 1 0.25 286.3" class="st14"/>
			</g>
			<g id="shape143-231" v:mID="143" v:groupContext="shape" transform="translate(6.89219,-29.1668)">
				<title>Foglio.143</title>
				<path d="M11.22 282.8 A5.93051 5.93051 0 0 1 5.61 289.16 A5.86134 5.86134 0 0 1 0 282.8 A6.07588 6.07588 0 0 1 5.61
							 276.38 A6.15397 6.15397 0 0 1 11.22 282.8 L-2.81 273.18 L11.22 282.8 Z" class="st15"/>
				<path d="M11.22 282.8 A5.93051 5.93051 0 0 1 5.61 289.16 A5.86134 5.86134 0 0 1 0 282.8 A6.07588 6.07588 0 0 1 5.61
							 276.38 A6.15397 6.15397 0 0 1 11.22 282.8" class="st16"/>
			</g>
			<g id="shape144-235" v:mID="144" v:groupContext="shape" transform="translate(5.39904,-8.90112)">
				<title>Foglio.144</title>
				<path d="M0 284.26 L0 276.41 L0 284.26 Z M8.97 289.16 L8.97 281.3 L8.97 289.16 Z" class="st17"/>
				<path d="M0 284.26 L0 276.41M8.97 289.16 L8.97 281.3" class="st24"/>
			</g>
			<g id="shape145-238" v:mID="145" v:groupContext="shape" transform="translate(2.80819,-7.30781)">
				<title>Foglio.145</title>
				<path d="M17.29 288.61 A3.85984 3.85984 -180 0 0 20.02 285.77 A203.885 203.885 -180 0 0 19.43 275.96 A10.7789 10.7789
							 -180 0 0 15.19 268.64 A7.18898 7.18898 -180 0 0 12.94 267.27 L12.9 266.21 A6.86889 6.86889 -180 0 0
							 15.3 260.94 A6.08194 6.08194 -180 0 0 9.69 254.52 A6.08161 6.08161 -180 0 0 4.08 260.94 A6.74363 6.74363
							 -180 0 0 6.4 266.13 L1.73 268.65 A3.32654 3.32654 -180 0 0 0.42 271.33 L0 280.38 A2.10888 2.10888 -180
							 0 0 0.42 281.81 A2.82614 2.82614 -180 0 0 2.51 282.84 A15.1078 15.1078 -180 0 0 11.55 287.74 A4.88337
							 4.88337 -180 0 0 17.29 288.61 Z" class="st19"/>
			</g>
		</g>
		<g id="shape167-240" v:mID="167" v:groupContext="shape" transform="translate(138.137,-175.051)">
			<title>Foglio.167</title>
			<desc>Role 1</desc>
			<v:textBlock v:margins="rect(4,4,4,4)" v:tabSpace="42.5197"/>
			<v:textRect cx="18.489" cy="278.527" width="36.98" height="21.2598"/>
			<rect x="0" y="267.897" width="36.978" height="21.2598" class="st4"/>
			<text x="6.93" y="280.93" class="st5" v:langID="1040"><v:paragraph v:horizAlign="1"/><v:tabList/>Role 1</text>		</g>
		<g id="shape168-243" v:mID="168" v:groupContext="shape" transform="translate(136.783,-67.3342)">
			<title>Foglio.168</title>
			<rect x="0" y="229.629" width="45.3543" height="59.5276" class="st2"/>
		</g>
		<g id="group169-245" transform="translate(167.255,-65.9169) scale(-1,1)" v:mID="169" v:groupContext="group">
			<v:userDefs>
				<v:ud v:nameU="SkinColor" v:prompt="" v:val="VT5(#da8c36)"/>
				<v:ud v:nameU="visVersion" v:prompt="" v:val="VT0(12):26"/>
			</v:userDefs>
			<title>Persona - Mezzo busto.169</title>
			<g id="shape170-246" v:mID="170" v:groupContext="shape" transform="translate(2.57965,-6.56639)">
				<title>Foglio.170</title>
				<path d="M1.86 268.57 L1.72 268.64 A3.31251 3.31251 -180 0 0 0.42 271.32 L0.25 274.91 L0.13 277.5 L0 280.38 A2.46936
							 2.46936 -180 0 0 2.51 282.83 A11.4172 11.4172 -180 0 0 7.43 286.44 A91.6857 91.6857 -180 0 0 11.54 287.73
							 A4.70708 4.70708 -180 0 0 15.44 289.12 A6.3115 6.06979 -180 0 0 18.26 288.1 A3.16461 3.04342 -180 0
							 0 20.02 285.76 A163.493 157.231 -180 0 0 19.7 279.55 A326.221 313.727 -180 0 0 19.51 276.96 A14.9802
							 14.4065 -180 0 0 19.05 273.91 A12.1376 11.6728 -180 0 0 12.91 267.24 L12.9 266.19 A6.83961 6.83961 -180
							 0 0 15.3 260.93 A6.15397 6.15397 -180 0 0 9.69 254.51 A6.07588 6.07588 -180 0 0 4.08 260.93 A6.56598
							 6.56598 -180 0 0 6.38 266.14 L1.98 268.5 L1.86 268.57 Z" class="st9"/>
			</g>
			<g id="shape171-248" v:mID="171" v:groupContext="shape" transform="translate(2.80918,-7.29918)">
				<title>Foglio.171</title>
				<path d="M0.25 274.91 L0.42 271.32 A4.26804 4.26804 0 0 1 7.8 269.02 A13.673 13.673 0 0 1 14.87 284.77 L15.44 289.12
							 A4.70708 4.70708 0 0 1 11.54 287.73 A91.6857 91.6857 0 0 1 7.43 286.44 A11.4172 11.4172 0 0 1 2.51 282.83
							 A2.46936 2.46936 0 0 1 0 280.38 L0.13 277.5 L0.25 274.91 Z" class="st20"/>
			</g>
			<g id="shape172-251" v:mID="172" v:groupContext="shape" transform="translate(4.53387,-20.0239)">
				<title>Foglio.172</title>
				<path d="M12.14 289.16 L17.33 286.64 A12.1376 11.6728 -180 0 0 4.67 278.84 L0 281.37 A11.9282 11.4714 0 0 1 12.14
							 289.16 Z" class="st21"/>
			</g>
			<g id="shape173-254" v:mID="173" v:groupContext="shape" transform="translate(16.6776,-7.34555)">
				<title>Foglio.173</title>
				<path d="M0 276.48 A4.22423 4.06245 0 0 1 5.18 273.96 A14.9802 14.4065 0 0 1 5.64 277.01 A326.221 313.727 0 0 1 5.83
							 279.6 A163.493 157.231 0 0 1 6.15 285.81 A3.16461 3.04342 0 0 1 4.4 288.15 A5.77137 5.55034 0 0 1 0.77
							 289.15 L0 276.48 Z" class="st22"/>
			</g>
			<g id="shape174-257" v:mID="174" v:groupContext="shape" transform="translate(9.47259,-27.3794)">
				<title>Foglio.174</title>
				<path d="M0.15 286.36 L0.18 287.69 A2.23581 2.23581 -180 0 0 2.81 288.87 A5.96071 5.96071 -180 0 0 6.26 288.41 L6.23
							 285.89 A5.35584 5.35584 0 0 1 0.25 286.3 L0.15 286.36 Z" class="st23"/>
				<path d="M0.15 286.36 L0.18 287.69 A2.23581 2.23581 -180 0 0 2.81 288.87 A5.96071 5.96071 -180 0 0 6.26 288.41 L6.23
							 285.89 A5.35584 5.35584 0 0 1 0.25 286.3" class="st14"/>
			</g>
			<g id="shape175-261" v:mID="175" v:groupContext="shape" transform="translate(6.89219,-29.1668)">
				<title>Foglio.175</title>
				<path d="M11.22 282.8 A5.93051 5.93051 0 0 1 5.61 289.16 A5.86134 5.86134 0 0 1 0 282.8 A6.07588 6.07588 0 0 1 5.61
							 276.38 A6.15397 6.15397 0 0 1 11.22 282.8 L-2.81 273.18 L11.22 282.8 Z" class="st15"/>
				<path d="M11.22 282.8 A5.93051 5.93051 0 0 1 5.61 289.16 A5.86134 5.86134 0 0 1 0 282.8 A6.07588 6.07588 0 0 1 5.61
							 276.38 A6.15397 6.15397 0 0 1 11.22 282.8" class="st16"/>
			</g>
			<g id="shape176-265" v:mID="176" v:groupContext="shape" transform="translate(5.39904,-8.90112)">
				<title>Foglio.176</title>
				<path d="M0 284.26 L0 276.41 L0 284.26 Z M8.97 289.16 L8.97 281.3 L8.97 289.16 Z" class="st17"/>
				<path d="M0 284.26 L0 276.41M8.97 289.16 L8.97 281.3" class="st24"/>
			</g>
			<g id="shape177-268" v:mID="177" v:groupContext="shape" transform="translate(2.80819,-7.30781)">
				<title>Foglio.177</title>
				<path d="M17.29 288.61 A3.85984 3.85984 -180 0 0 20.02 285.77 A203.885 203.885 -180 0 0 19.43 275.96 A10.7789 10.7789
							 -180 0 0 15.19 268.64 A7.18898 7.18898 -180 0 0 12.94 267.27 L12.9 266.21 A6.86889 6.86889 -180 0 0
							 15.3 260.94 A6.08194 6.08194 -180 0 0 9.69 254.52 A6.08161 6.08161 -180 0 0 4.08 260.94 A6.74363 6.74363
							 -180 0 0 6.4 266.13 L1.73 268.65 A3.32654 3.32654 -180 0 0 0.42 271.33 L0 280.38 A2.10888 2.10888 -180
							 0 0 0.42 281.81 A2.82614 2.82614 -180 0 0 2.51 282.84 A15.1078 15.1078 -180 0 0 11.55 287.74 A4.88337
							 4.88337 -180 0 0 17.29 288.61 Z" class="st19"/>
			</g>
		</g>
		<g id="shape178-270" v:mID="178" v:groupContext="shape" transform="translate(138.137,-105.602)">
			<title>Foglio.178</title>
			<desc>Role 2</desc>
			<v:textBlock v:margins="rect(4,4,4,4)" v:tabSpace="42.5197"/>
			<v:textRect cx="18.489" cy="278.527" width="36.98" height="21.2598"/>
			<rect x="0" y="267.897" width="36.978" height="21.2598" class="st4"/>
			<text x="6.93" y="280.93" class="st5" v:langID="1040"><v:paragraph v:horizAlign="1"/><v:tabList/>Role 2</text>		</g>
		<g id="shape181-273" v:mID="181" v:groupContext="shape" transform="translate(123.836,-257.255)">
			<title>Foglio.181</title>
			<desc>Define roles in application</desc>
			<v:textBlock v:margins="rect(4,4,4,4)" v:tabSpace="42.5197"/>
			<v:textRect cx="27.7335" cy="278.527" width="55.47" height="21.2598"/>
			<rect x="0" y="267.897" width="55.4669" height="21.2598" class="st4"/>
			<text x="6.39" y="276.13" class="st5" v:langID="1040"><v:paragraph v:horizAlign="1"/><v:tabList/>Define roles <tspan
						x="4.38" dy="1.2em" class="st6">in application</tspan></text>		</g>
		<g id="shape1-277" v:mID="1" v:groupContext="shape" transform="translate(221.822,-9.22394)">
			<title>Foglio.1</title>
			<rect x="0" y="17.0306" width="178.583" height="272.126" class="st2"/>
		</g>
		<g id="shape2-279" v:mID="2" v:groupContext="shape" transform="translate(227.031,-14.8932)">
			<title>Foglio.2</title>
			<rect x="0" y="51.0463" width="167.705" height="238.11" class="st3"/>
		</g>
		<g id="shape3-281" v:mID="3" v:groupContext="shape" transform="translate(227.555,-231.035)">
			<title>Foglio.3</title>
			<desc>Application</desc>
			<v:textBlock v:margins="rect(4,4,4,4)" v:tabSpace="42.5197"/>
			<v:textRect cx="56.661" cy="278.527" width="113.33" height="21.2598"/>
			<rect x="0" y="267.897" width="113.322" height="21.2598" class="st4"/>
			<text x="37.09" y="280.93" class="st5" v:langID="1040"><v:paragraph v:horizAlign="1"/><v:tabList/>Application</text>		</g>
		<g id="shape5-284" v:mID="5" v:groupContext="shape" transform="translate(240.248,-136.783)">
			<title>Foglio.5</title>
			<rect x="0" y="229.629" width="45.3543" height="59.5276" class="st2"/>
		</g>
		<g id="group6-286" transform="translate(270.72,-135.366) scale(-1,1)" v:mID="6" v:groupContext="group">
			<v:userDefs>
				<v:ud v:nameU="SkinColor" v:prompt="" v:val="VT5(#da8c36)"/>
				<v:ud v:nameU="visVersion" v:prompt="" v:val="VT0(12):26"/>
			</v:userDefs>
			<title>Persona - Mezzo busto.6</title>
			<g id="shape7-287" v:mID="7" v:groupContext="shape" transform="translate(2.57965,-6.56639)">
				<title>Foglio.7</title>
				<path d="M1.86 268.57 L1.72 268.64 A3.31251 3.31251 -180 0 0 0.42 271.32 L0.25 274.91 L0.13 277.5 L0 280.38 A2.46936
							 2.46936 -180 0 0 2.51 282.83 A11.4172 11.4172 -180 0 0 7.43 286.44 A91.6857 91.6857 -180 0 0 11.54 287.73
							 A4.70708 4.70708 -180 0 0 15.44 289.12 A6.3115 6.06979 -180 0 0 18.26 288.1 A3.16461 3.04342 -180 0
							 0 20.02 285.76 A163.493 157.231 -180 0 0 19.7 279.55 A326.221 313.727 -180 0 0 19.51 276.96 A14.9802
							 14.4065 -180 0 0 19.05 273.91 A12.1376 11.6728 -180 0 0 12.91 267.24 L12.9 266.19 A6.83961 6.83961 -180
							 0 0 15.3 260.93 A6.15397 6.15397 -180 0 0 9.69 254.51 A6.07588 6.07588 -180 0 0 4.08 260.93 A6.56598
							 6.56598 -180 0 0 6.38 266.14 L1.98 268.5 L1.86 268.57 Z" class="st9"/>
			</g>
			<g id="shape8-289" v:mID="8" v:groupContext="shape" transform="translate(2.80918,-7.29918)">
				<title>Foglio.8</title>
				<path d="M0.25 274.91 L0.42 271.32 A4.26804 4.26804 0 0 1 7.8 269.02 A13.673 13.673 0 0 1 14.87 284.77 L15.44 289.12
							 A4.70708 4.70708 0 0 1 11.54 287.73 A91.6857 91.6857 0 0 1 7.43 286.44 A11.4172 11.4172 0 0 1 2.51 282.83
							 A2.46936 2.46936 0 0 1 0 280.38 L0.13 277.5 L0.25 274.91 Z" class="st20"/>
			</g>
			<g id="shape9-292" v:mID="9" v:groupContext="shape" transform="translate(4.53387,-20.0239)">
				<title>Foglio.9</title>
				<path d="M12.14 289.16 L17.33 286.64 A12.1376 11.6728 -180 0 0 4.67 278.84 L0 281.37 A11.9282 11.4714 0 0 1 12.14
							 289.16 Z" class="st21"/>
			</g>
			<g id="shape10-295" v:mID="10" v:groupContext="shape" transform="translate(16.6776,-7.34555)">
				<title>Foglio.10</title>
				<path d="M0 276.48 A4.22423 4.06245 0 0 1 5.18 273.96 A14.9802 14.4065 0 0 1 5.64 277.01 A326.221 313.727 0 0 1 5.83
							 279.6 A163.493 157.231 0 0 1 6.15 285.81 A3.16461 3.04342 0 0 1 4.4 288.15 A5.77137 5.55034 0 0 1 0.77
							 289.15 L0 276.48 Z" class="st22"/>
			</g>
			<g id="shape11-298" v:mID="11" v:groupContext="shape" transform="translate(9.47259,-27.3794)">
				<title>Foglio.11</title>
				<path d="M0.15 286.36 L0.18 287.69 A2.23581 2.23581 -180 0 0 2.81 288.87 A5.96071 5.96071 -180 0 0 6.26 288.41 L6.23
							 285.89 A5.35584 5.35584 0 0 1 0.25 286.3 L0.15 286.36 Z" class="st23"/>
				<path d="M0.15 286.36 L0.18 287.69 A2.23581 2.23581 -180 0 0 2.81 288.87 A5.96071 5.96071 -180 0 0 6.26 288.41 L6.23
							 285.89 A5.35584 5.35584 0 0 1 0.25 286.3" class="st14"/>
			</g>
			<g id="shape12-302" v:mID="12" v:groupContext="shape" transform="translate(6.89219,-29.1668)">
				<title>Foglio.12</title>
				<path d="M11.22 282.8 A5.93051 5.93051 0 0 1 5.61 289.16 A5.86134 5.86134 0 0 1 0 282.8 A6.07588 6.07588 0 0 1 5.61
							 276.38 A6.15397 6.15397 0 0 1 11.22 282.8 L-2.81 273.18 L11.22 282.8 Z" class="st15"/>
				<path d="M11.22 282.8 A5.93051 5.93051 0 0 1 5.61 289.16 A5.86134 5.86134 0 0 1 0 282.8 A6.07588 6.07588 0 0 1 5.61
							 276.38 A6.15397 6.15397 0 0 1 11.22 282.8" class="st16"/>
			</g>
			<g id="shape13-306" v:mID="13" v:groupContext="shape" transform="translate(5.39904,-8.90112)">
				<title>Foglio.13</title>
				<path d="M0 284.26 L0 276.41 L0 284.26 Z M8.97 289.16 L8.97 281.3 L8.97 289.16 Z" class="st17"/>
				<path d="M0 284.26 L0 276.41M8.97 289.16 L8.97 281.3" class="st24"/>
			</g>
			<g id="shape14-309" v:mID="14" v:groupContext="shape" transform="translate(2.80819,-7.30781)">
				<title>Foglio.14</title>
				<path d="M17.29 288.61 A3.85984 3.85984 -180 0 0 20.02 285.77 A203.885 203.885 -180 0 0 19.43 275.96 A10.7789 10.7789
							 -180 0 0 15.19 268.64 A7.18898 7.18898 -180 0 0 12.94 267.27 L12.9 266.21 A6.86889 6.86889 -180 0 0
							 15.3 260.94 A6.08194 6.08194 -180 0 0 9.69 254.52 A6.08161 6.08161 -180 0 0 4.08 260.94 A6.74363 6.74363
							 -180 0 0 6.4 266.13 L1.73 268.65 A3.32654 3.32654 -180 0 0 0.42 271.33 L0 280.38 A2.10888 2.10888 -180
							 0 0 0.42 281.81 A2.82614 2.82614 -180 0 0 2.51 282.84 A15.1078 15.1078 -180 0 0 11.55 287.74 A4.88337
							 4.88337 -180 0 0 17.29 288.61 Z" class="st19"/>
			</g>
		</g>
		<g id="shape15-311" v:mID="15" v:groupContext="shape" transform="translate(241.601,-175.051)">
			<title>Foglio.15</title>
			<desc>Role 1</desc>
			<v:textBlock v:margins="rect(4,4,4,4)" v:tabSpace="42.5197"/>
			<v:textRect cx="18.489" cy="278.527" width="36.98" height="21.2598"/>
			<rect x="0" y="267.897" width="36.978" height="21.2598" class="st4"/>
			<text x="6.93" y="280.93" class="st5" v:langID="1040"><v:paragraph v:horizAlign="1"/><v:tabList/>Role 1</text>		</g>
		<g id="shape16-314" v:mID="16" v:groupContext="shape" transform="translate(240.248,-67.3342)">
			<title>Foglio.16</title>
			<rect x="0" y="229.629" width="45.3543" height="59.5276" class="st2"/>
		</g>
		<g id="group17-316" transform="translate(270.72,-65.9169) scale(-1,1)" v:mID="17" v:groupContext="group">
			<v:userDefs>
				<v:ud v:nameU="SkinColor" v:prompt="" v:val="VT5(#da8c36)"/>
				<v:ud v:nameU="visVersion" v:prompt="" v:val="VT0(12):26"/>
			</v:userDefs>
			<title>Persona - Mezzo busto.17</title>
			<g id="shape18-317" v:mID="18" v:groupContext="shape" transform="translate(2.57965,-6.56639)">
				<title>Foglio.18</title>
				<path d="M1.86 268.57 L1.72 268.64 A3.31251 3.31251 -180 0 0 0.42 271.32 L0.25 274.91 L0.13 277.5 L0 280.38 A2.46936
							 2.46936 -180 0 0 2.51 282.83 A11.4172 11.4172 -180 0 0 7.43 286.44 A91.6857 91.6857 -180 0 0 11.54 287.73
							 A4.70708 4.70708 -180 0 0 15.44 289.12 A6.3115 6.06979 -180 0 0 18.26 288.1 A3.16461 3.04342 -180 0
							 0 20.02 285.76 A163.493 157.231 -180 0 0 19.7 279.55 A326.221 313.727 -180 0 0 19.51 276.96 A14.9802
							 14.4065 -180 0 0 19.05 273.91 A12.1376 11.6728 -180 0 0 12.91 267.24 L12.9 266.19 A6.83961 6.83961 -180
							 0 0 15.3 260.93 A6.15397 6.15397 -180 0 0 9.69 254.51 A6.07588 6.07588 -180 0 0 4.08 260.93 A6.56598
							 6.56598 -180 0 0 6.38 266.14 L1.98 268.5 L1.86 268.57 Z" class="st9"/>
			</g>
			<g id="shape19-319" v:mID="19" v:groupContext="shape" transform="translate(2.80918,-7.29918)">
				<title>Foglio.19</title>
				<path d="M0.25 274.91 L0.42 271.32 A4.26804 4.26804 0 0 1 7.8 269.02 A13.673 13.673 0 0 1 14.87 284.77 L15.44 289.12
							 A4.70708 4.70708 0 0 1 11.54 287.73 A91.6857 91.6857 0 0 1 7.43 286.44 A11.4172 11.4172 0 0 1 2.51 282.83
							 A2.46936 2.46936 0 0 1 0 280.38 L0.13 277.5 L0.25 274.91 Z" class="st20"/>
			</g>
			<g id="shape20-322" v:mID="20" v:groupContext="shape" transform="translate(4.53387,-20.0239)">
				<title>Foglio.20</title>
				<path d="M12.14 289.16 L17.33 286.64 A12.1376 11.6728 -180 0 0 4.67 278.84 L0 281.37 A11.9282 11.4714 0 0 1 12.14
							 289.16 Z" class="st21"/>
			</g>
			<g id="shape21-325" v:mID="21" v:groupContext="shape" transform="translate(16.6776,-7.34555)">
				<title>Foglio.21</title>
				<path d="M0 276.48 A4.22423 4.06245 0 0 1 5.18 273.96 A14.9802 14.4065 0 0 1 5.64 277.01 A326.221 313.727 0 0 1 5.83
							 279.6 A163.493 157.231 0 0 1 6.15 285.81 A3.16461 3.04342 0 0 1 4.4 288.15 A5.77137 5.55034 0 0 1 0.77
							 289.15 L0 276.48 Z" class="st22"/>
			</g>
			<g id="shape22-328" v:mID="22" v:groupContext="shape" transform="translate(9.47259,-27.3794)">
				<title>Foglio.22</title>
				<path d="M0.15 286.36 L0.18 287.69 A2.23581 2.23581 -180 0 0 2.81 288.87 A5.96071 5.96071 -180 0 0 6.26 288.41 L6.23
							 285.89 A5.35584 5.35584 0 0 1 0.25 286.3 L0.15 286.36 Z" class="st23"/>
				<path d="M0.15 286.36 L0.18 287.69 A2.23581 2.23581 -180 0 0 2.81 288.87 A5.96071 5.96071 -180 0 0 6.26 288.41 L6.23
							 285.89 A5.35584 5.35584 0 0 1 0.25 286.3" class="st14"/>
			</g>
			<g id="shape23-332" v:mID="23" v:groupContext="shape" transform="translate(6.89219,-29.1668)">
				<title>Foglio.23</title>
				<path d="M11.22 282.8 A5.93051 5.93051 0 0 1 5.61 289.16 A5.86134 5.86134 0 0 1 0 282.8 A6.07588 6.07588 0 0 1 5.61
							 276.38 A6.15397 6.15397 0 0 1 11.22 282.8 L-2.81 273.18 L11.22 282.8 Z" class="st15"/>
				<path d="M11.22 282.8 A5.93051 5.93051 0 0 1 5.61 289.16 A5.86134 5.86134 0 0 1 0 282.8 A6.07588 6.07588 0 0 1 5.61
							 276.38 A6.15397 6.15397 0 0 1 11.22 282.8" class="st16"/>
			</g>
			<g id="shape25-336" v:mID="25" v:groupContext="shape" transform="translate(5.39904,-8.90112)">
				<title>Foglio.25</title>
				<path d="M0 284.26 L0 276.41 L0 284.26 Z M8.97 289.16 L8.97 281.3 L8.97 289.16 Z" class="st17"/>
				<path d="M0 284.26 L0 276.41M8.97 289.16 L8.97 281.3" class="st24"/>
			</g>
			<g id="shape26-339" v:mID="26" v:groupContext="shape" transform="translate(2.80819,-7.30781)">
				<title>Foglio.26</title>
				<path d="M17.29 288.61 A3.85984 3.85984 -180 0 0 20.02 285.77 A203.885 203.885 -180 0 0 19.43 275.96 A10.7789 10.7789
							 -180 0 0 15.19 268.64 A7.18898 7.18898 -180 0 0 12.94 267.27 L12.9 266.21 A6.86889 6.86889 -180 0 0
							 15.3 260.94 A6.08194 6.08194 -180 0 0 9.69 254.52 A6.08161 6.08161 -180 0 0 4.08 260.94 A6.74363 6.74363
							 -180 0 0 6.4 266.13 L1.73 268.65 A3.32654 3.32654 -180 0 0 0.42 271.33 L0 280.38 A2.10888 2.10888 -180
							 0 0 0.42 281.81 A2.82614 2.82614 -180 0 0 2.51 282.84 A15.1078 15.1078 -180 0 0 11.55 287.74 A4.88337
							 4.88337 -180 0 0 17.29 288.61 Z" class="st19"/>
			</g>
		</g>
		<g id="shape27-341" v:mID="27" v:groupContext="shape" transform="translate(241.601,-105.602)">
			<title>Foglio.27</title>
			<desc>Role 2</desc>
			<v:textBlock v:margins="rect(4,4,4,4)" v:tabSpace="42.5197"/>
			<v:textRect cx="18.489" cy="278.527" width="36.98" height="21.2598"/>
			<rect x="0" y="267.897" width="36.978" height="21.2598" class="st4"/>
			<text x="6.93" y="280.93" class="st5" v:langID="1040"><v:paragraph v:horizAlign="1"/><v:tabList/>Role 2</text>		</g>
		<g id="shape28-344" v:mID="28" v:groupContext="shape" transform="translate(255.838,-257.255)">
			<title>Foglio.28</title>
			<desc>Map roles to users and/or groups</desc>
			<v:textBlock v:margins="rect(4,4,4,4)" v:tabSpace="42.5197"/>
			<v:textRect cx="39.7807" cy="278.527" width="79.57" height="21.2598"/>
			<rect x="0" y="267.897" width="79.5614" height="21.2598" class="st4"/>
			<text x="6.88" y="276.13" class="st5" v:langID="1040"><v:paragraph v:horizAlign="1"/><v:tabList/>Map roles to users <tspan
						x="15.1" dy="1.2em" class="st6">and</tspan>/or groups</text>		</g>
		<g id="group29-348" transform="translate(341.586,-190.641) scale(-1,1)" v:mID="29" v:groupContext="group">
			<v:userDefs>
				<v:ud v:nameU="SkinColor" v:prompt="" v:val="VT5(#da8c36)"/>
				<v:ud v:nameU="visVersion" v:prompt="" v:val="VT0(12):26"/>
			</v:userDefs>
			<title>Persona - Mezzo busto.29</title>
			<g id="shape30-349" v:mID="30" v:groupContext="shape" transform="translate(2.57965,-6.56639)">
				<title>Foglio.30</title>
				<path d="M1.86 268.57 L1.72 268.64 A3.31251 3.31251 -180 0 0 0.42 271.32 L0.25 274.91 L0.13 277.5 L0 280.38 A2.46936
							 2.46936 -180 0 0 2.51 282.83 A11.4172 11.4172 -180 0 0 7.43 286.44 A91.6857 91.6857 -180 0 0 11.54 287.73
							 A4.70708 4.70708 -180 0 0 15.44 289.12 A6.3115 6.06979 -180 0 0 18.26 288.1 A3.16461 3.04342 -180 0
							 0 20.02 285.76 A163.493 157.231 -180 0 0 19.7 279.55 A326.221 313.727 -180 0 0 19.51 276.96 A14.9802
							 14.4065 -180 0 0 19.05 273.91 A12.1376 11.6728 -180 0 0 12.91 267.24 L12.9 266.19 A6.83961 6.83961 -180
							 0 0 15.3 260.93 A6.15397 6.15397 -180 0 0 9.69 254.51 A6.07588 6.07588 -180 0 0 4.08 260.93 A6.56598
							 6.56598 -180 0 0 6.38 266.14 L1.98 268.5 L1.86 268.57 Z" class="st9"/>
			</g>
			<g id="shape31-351" v:mID="31" v:groupContext="shape" transform="translate(2.80918,-7.29918)">
				<title>Foglio.31</title>
				<path d="M0.25 274.91 L0.42 271.32 A4.26804 4.26804 0 0 1 7.8 269.02 A13.673 13.673 0 0 1 14.87 284.77 L15.44 289.12
							 A4.70708 4.70708 0 0 1 11.54 287.73 A91.6857 91.6857 0 0 1 7.43 286.44 A11.4172 11.4172 0 0 1 2.51 282.83
							 A2.46936 2.46936 0 0 1 0 280.38 L0.13 277.5 L0.25 274.91 Z" class="st10"/>
			</g>
			<g id="shape32-354" v:mID="32" v:groupContext="shape" transform="translate(4.53387,-20.0239)">
				<title>Foglio.32</title>
				<path d="M12.14 289.16 L17.33 286.64 A12.1376 11.6728 -180 0 0 4.67 278.84 L0 281.37 A11.9282 11.4714 0 0 1 12.14
							 289.16 Z" class="st11"/>
			</g>
			<g id="shape33-357" v:mID="33" v:groupContext="shape" transform="translate(16.6776,-7.34555)">
				<title>Foglio.33</title>
				<path d="M0 276.48 A4.22423 4.06245 0 0 1 5.18 273.96 A14.9802 14.4065 0 0 1 5.64 277.01 A326.221 313.727 0 0 1 5.83
							 279.6 A163.493 157.231 0 0 1 6.15 285.81 A3.16461 3.04342 0 0 1 4.4 288.15 A5.77137 5.55034 0 0 1 0.77
							 289.15 L0 276.48 Z" class="st12"/>
			</g>
			<g id="shape34-360" v:mID="34" v:groupContext="shape" transform="translate(9.47259,-27.3794)">
				<title>Foglio.34</title>
				<path d="M0.15 286.36 L0.18 287.69 A2.23581 2.23581 -180 0 0 2.81 288.87 A5.96071 5.96071 -180 0 0 6.26 288.41 L6.23
							 285.89 A5.35584 5.35584 0 0 1 0.25 286.3 L0.15 286.36 Z" class="st13"/>
				<path d="M0.15 286.36 L0.18 287.69 A2.23581 2.23581 -180 0 0 2.81 288.87 A5.96071 5.96071 -180 0 0 6.26 288.41 L6.23
							 285.89 A5.35584 5.35584 0 0 1 0.25 286.3" class="st14"/>
			</g>
			<g id="shape35-364" v:mID="35" v:groupContext="shape" transform="translate(6.89219,-29.1668)">
				<title>Foglio.35</title>
				<path d="M11.22 282.8 A5.93051 5.93051 0 0 1 5.61 289.16 A5.86134 5.86134 0 0 1 0 282.8 A6.07588 6.07588 0 0 1 5.61
							 276.38 A6.15397 6.15397 0 0 1 11.22 282.8 L-2.81 273.18 L11.22 282.8 Z" class="st15"/>
				<path d="M11.22 282.8 A5.93051 5.93051 0 0 1 5.61 289.16 A5.86134 5.86134 0 0 1 0 282.8 A6.07588 6.07588 0 0 1 5.61
							 276.38 A6.15397 6.15397 0 0 1 11.22 282.8" class="st16"/>
			</g>
			<g id="shape37-368" v:mID="37" v:groupContext="shape" transform="translate(5.39904,-8.90112)">
				<title>Foglio.37</title>
				<path d="M0 284.26 L0 276.41 L0 284.26 Z M8.97 289.16 L8.97 281.3 L8.97 289.16 Z" class="st17"/>
				<path d="M0 284.26 L0 276.41M8.97 289.16 L8.97 281.3" class="st18"/>
			</g>
			<g id="shape38-371" v:mID="38" v:groupContext="shape" transform="translate(2.80819,-7.30781)">
				<title>Foglio.38</title>
				<path d="M17.29 288.61 A3.85984 3.85984 -180 0 0 20.02 285.77 A203.885 203.885 -180 0 0 19.43 275.96 A10.7789 10.7789
							 -180 0 0 15.19 268.64 A7.18898 7.18898 -180 0 0 12.94 267.27 L12.9 266.21 A6.86889 6.86889 -180 0 0
							 15.3 260.94 A6.08194 6.08194 -180 0 0 9.69 254.52 A6.08161 6.08161 -180 0 0 4.08 260.94 A6.74363 6.74363
							 -180 0 0 6.4 266.13 L1.73 268.65 A3.32654 3.32654 -180 0 0 0.42 271.33 L0 280.38 A2.10888 2.10888 -180
							 0 0 0.42 281.81 A2.82614 2.82614 -180 0 0 2.51 282.84 A15.1078 15.1078 -180 0 0 11.55 287.74 A4.88337
							 4.88337 -180 0 0 17.29 288.61 Z" class="st19"/>
			</g>
		</g>
		<g id="group39-373" transform="translate(341.506,-163.712) scale(-1,1)" v:mID="39" v:groupContext="group">
			<v:userDefs>
				<v:ud v:nameU="SkinColor" v:prompt="" v:val="VT5(#da8c36)"/>
				<v:ud v:nameU="visVersion" v:prompt="" v:val="VT0(12):26"/>
			</v:userDefs>
			<title>Persona - Mezzo busto.39</title>
			<g id="shape40-374" v:mID="40" v:groupContext="shape" transform="translate(2.57965,-6.56639)">
				<title>Foglio.40</title>
				<path d="M1.86 268.57 L1.72 268.64 A3.31251 3.31251 -180 0 0 0.42 271.32 L0.25 274.91 L0.13 277.5 L0 280.38 A2.46936
							 2.46936 -180 0 0 2.51 282.83 A11.4172 11.4172 -180 0 0 7.43 286.44 A91.6857 91.6857 -180 0 0 11.54 287.73
							 A4.70708 4.70708 -180 0 0 15.44 289.12 A6.3115 6.06979 -180 0 0 18.26 288.1 A3.16461 3.04342 -180 0
							 0 20.02 285.76 A163.493 157.231 -180 0 0 19.7 279.55 A326.221 313.727 -180 0 0 19.51 276.96 A14.9802
							 14.4065 -180 0 0 19.05 273.91 A12.1376 11.6728 -180 0 0 12.91 267.24 L12.9 266.19 A6.83961 6.83961 -180
							 0 0 15.3 260.93 A6.15397 6.15397 -180 0 0 9.69 254.51 A6.07588 6.07588 -180 0 0 4.08 260.93 A6.56598
							 6.56598 -180 0 0 6.38 266.14 L1.98 268.5 L1.86 268.57 Z" class="st9"/>
			</g>
			<g id="shape41-376" v:mID="41" v:groupContext="shape" transform="translate(2.80918,-7.29918)">
				<title>Foglio.41</title>
				<path d="M0.25 274.91 L0.42 271.32 A4.26804 4.26804 0 0 1 7.8 269.02 A13.673 13.673 0 0 1 14.87 284.77 L15.44 289.12
							 A4.70708 4.70708 0 0 1 11.54 287.73 A91.6857 91.6857 0 0 1 7.43 286.44 A11.4172 11.4172 0 0 1 2.51 282.83
							 A2.46936 2.46936 0 0 1 0 280.38 L0.13 277.5 L0.25 274.91 Z" class="st10"/>
			</g>
			<g id="shape42-379" v:mID="42" v:groupContext="shape" transform="translate(4.53387,-20.0239)">
				<title>Foglio.42</title>
				<path d="M12.14 289.16 L17.33 286.64 A12.1376 11.6728 -180 0 0 4.67 278.84 L0 281.37 A11.9282 11.4714 0 0 1 12.14
							 289.16 Z" class="st11"/>
			</g>
			<g id="shape43-382" v:mID="43" v:groupContext="shape" transform="translate(16.6776,-7.34555)">
				<title>Foglio.43</title>
				<path d="M0 276.48 A4.22423 4.06245 0 0 1 5.18 273.96 A14.9802 14.4065 0 0 1 5.64 277.01 A326.221 313.727 0 0 1 5.83
							 279.6 A163.493 157.231 0 0 1 6.15 285.81 A3.16461 3.04342 0 0 1 4.4 288.15 A5.77137 5.55034 0 0 1 0.77
							 289.15 L0 276.48 Z" class="st12"/>
			</g>
			<g id="shape44-385" v:mID="44" v:groupContext="shape" transform="translate(9.47259,-27.3794)">
				<title>Foglio.44</title>
				<path d="M0.15 286.36 L0.18 287.69 A2.23581 2.23581 -180 0 0 2.81 288.87 A5.96071 5.96071 -180 0 0 6.26 288.41 L6.23
							 285.89 A5.35584 5.35584 0 0 1 0.25 286.3 L0.15 286.36 Z" class="st13"/>
				<path d="M0.15 286.36 L0.18 287.69 A2.23581 2.23581 -180 0 0 2.81 288.87 A5.96071 5.96071 -180 0 0 6.26 288.41 L6.23
							 285.89 A5.35584 5.35584 0 0 1 0.25 286.3" class="st14"/>
			</g>
			<g id="shape45-389" v:mID="45" v:groupContext="shape" transform="translate(6.89219,-29.1668)">
				<title>Foglio.45</title>
				<path d="M11.22 282.8 A5.93051 5.93051 0 0 1 5.61 289.16 A5.86134 5.86134 0 0 1 0 282.8 A6.07588 6.07588 0 0 1 5.61
							 276.38 A6.15397 6.15397 0 0 1 11.22 282.8 L-2.81 273.18 L11.22 282.8 Z" class="st15"/>
				<path d="M11.22 282.8 A5.93051 5.93051 0 0 1 5.61 289.16 A5.86134 5.86134 0 0 1 0 282.8 A6.07588 6.07588 0 0 1 5.61
							 276.38 A6.15397 6.15397 0 0 1 11.22 282.8" class="st16"/>
			</g>
			<g id="shape46-393" v:mID="46" v:groupContext="shape" transform="translate(5.39904,-8.90112)">
				<title>Foglio.46</title>
				<path d="M0 284.26 L0 276.41 L0 284.26 Z M8.97 289.16 L8.97 281.3 L8.97 289.16 Z" class="st17"/>
				<path d="M0 284.26 L0 276.41M8.97 289.16 L8.97 281.3" class="st18"/>
			</g>
			<g id="shape47-396" v:mID="47" v:groupContext="shape" transform="translate(2.80819,-7.30781)">
				<title>Foglio.47</title>
				<path d="M17.29 288.61 A3.85984 3.85984 -180 0 0 20.02 285.77 A203.885 203.885 -180 0 0 19.43 275.96 A10.7789 10.7789
							 -180 0 0 15.19 268.64 A7.18898 7.18898 -180 0 0 12.94 267.27 L12.9 266.21 A6.86889 6.86889 -180 0 0
							 15.3 260.94 A6.08194 6.08194 -180 0 0 9.69 254.52 A6.08161 6.08161 -180 0 0 4.08 260.94 A6.74363 6.74363
							 -180 0 0 6.4 266.13 L1.73 268.65 A3.32654 3.32654 -180 0 0 0.42 271.33 L0 280.38 A2.10888 2.10888 -180
							 0 0 0.42 281.81 A2.82614 2.82614 -180 0 0 2.51 282.84 A15.1078 15.1078 -180 0 0 11.55 287.74 A4.88337
							 4.88337 -180 0 0 17.29 288.61 Z" class="st19"/>
			</g>
		</g>
		<g id="group49-398" transform="translate(342.762,-136.783) scale(-1,1)" v:mID="49" v:groupContext="group">
			<v:userDefs>
				<v:ud v:nameU="SkinColor" v:prompt="" v:val="VT5(#da8c36)"/>
				<v:ud v:nameU="visVersion" v:prompt="" v:val="VT0(12):26"/>
			</v:userDefs>
			<title>Persona - Mezzo busto.49</title>
			<g id="shape50-399" v:mID="50" v:groupContext="shape" transform="translate(2.57965,-6.56639)">
				<title>Foglio.50</title>
				<path d="M1.86 268.57 L1.72 268.64 A3.31251 3.31251 -180 0 0 0.42 271.32 L0.25 274.91 L0.13 277.5 L0 280.38 A2.46936
							 2.46936 -180 0 0 2.51 282.83 A11.4172 11.4172 -180 0 0 7.43 286.44 A91.6857 91.6857 -180 0 0 11.54 287.73
							 A4.70708 4.70708 -180 0 0 15.44 289.12 A6.3115 6.06979 -180 0 0 18.26 288.1 A3.16461 3.04342 -180 0
							 0 20.02 285.76 A163.493 157.231 -180 0 0 19.7 279.55 A326.221 313.727 -180 0 0 19.51 276.96 A14.9802
							 14.4065 -180 0 0 19.05 273.91 A12.1376 11.6728 -180 0 0 12.91 267.24 L12.9 266.19 A6.83961 6.83961 -180
							 0 0 15.3 260.93 A6.15397 6.15397 -180 0 0 9.69 254.51 A6.07588 6.07588 -180 0 0 4.08 260.93 A6.56598
							 6.56598 -180 0 0 6.38 266.14 L1.98 268.5 L1.86 268.57 Z" class="st9"/>
			</g>
			<g id="shape51-401" v:mID="51" v:groupContext="shape" transform="translate(2.80918,-7.29918)">
				<title>Foglio.51</title>
				<path d="M0.25 274.91 L0.42 271.32 A4.26804 4.26804 0 0 1 7.8 269.02 A13.673 13.673 0 0 1 14.87 284.77 L15.44 289.12
							 A4.70708 4.70708 0 0 1 11.54 287.73 A91.6857 91.6857 0 0 1 7.43 286.44 A11.4172 11.4172 0 0 1 2.51 282.83
							 A2.46936 2.46936 0 0 1 0 280.38 L0.13 277.5 L0.25 274.91 Z" class="st10"/>
			</g>
			<g id="shape52-404" v:mID="52" v:groupContext="shape" transform="translate(4.53387,-20.0239)">
				<title>Foglio.52</title>
				<path d="M12.14 289.16 L17.33 286.64 A12.1376 11.6728 -180 0 0 4.67 278.84 L0 281.37 A11.9282 11.4714 0 0 1 12.14
							 289.16 Z" class="st11"/>
			</g>
			<g id="shape56-407" v:mID="56" v:groupContext="shape" transform="translate(16.6776,-7.34555)">
				<title>Foglio.56</title>
				<path d="M0 276.48 A4.22423 4.06245 0 0 1 5.18 273.96 A14.9802 14.4065 0 0 1 5.64 277.01 A326.221 313.727 0 0 1 5.83
							 279.6 A163.493 157.231 0 0 1 6.15 285.81 A3.16461 3.04342 0 0 1 4.4 288.15 A5.77137 5.55034 0 0 1 0.77
							 289.15 L0 276.48 Z" class="st12"/>
			</g>
			<g id="shape57-410" v:mID="57" v:groupContext="shape" transform="translate(9.47259,-27.3794)">
				<title>Foglio.57</title>
				<path d="M0.15 286.36 L0.18 287.69 A2.23581 2.23581 -180 0 0 2.81 288.87 A5.96071 5.96071 -180 0 0 6.26 288.41 L6.23
							 285.89 A5.35584 5.35584 0 0 1 0.25 286.3 L0.15 286.36 Z" class="st13"/>
				<path d="M0.15 286.36 L0.18 287.69 A2.23581 2.23581 -180 0 0 2.81 288.87 A5.96071 5.96071 -180 0 0 6.26 288.41 L6.23
							 285.89 A5.35584 5.35584 0 0 1 0.25 286.3" class="st14"/>
			</g>
			<g id="shape58-414" v:mID="58" v:groupContext="shape" transform="translate(6.89219,-29.1668)">
				<title>Foglio.58</title>
				<path d="M11.22 282.8 A5.93051 5.93051 0 0 1 5.61 289.16 A5.86134 5.86134 0 0 1 0 282.8 A6.07588 6.07588 0 0 1 5.61
							 276.38 A6.15397 6.15397 0 0 1 11.22 282.8 L-2.81 273.18 L11.22 282.8 Z" class="st15"/>
				<path d="M11.22 282.8 A5.93051 5.93051 0 0 1 5.61 289.16 A5.86134 5.86134 0 0 1 0 282.8 A6.07588 6.07588 0 0 1 5.61
							 276.38 A6.15397 6.15397 0 0 1 11.22 282.8" class="st16"/>
			</g>
			<g id="shape59-418" v:mID="59" v:groupContext="shape" transform="translate(5.39904,-8.90112)">
				<title>Foglio.59</title>
				<path d="M0 284.26 L0 276.41 L0 284.26 Z M8.97 289.16 L8.97 281.3 L8.97 289.16 Z" class="st17"/>
				<path d="M0 284.26 L0 276.41M8.97 289.16 L8.97 281.3" class="st18"/>
			</g>
			<g id="shape60-421" v:mID="60" v:groupContext="shape" transform="translate(2.80819,-7.30781)">
				<title>Foglio.60</title>
				<path d="M17.29 288.61 A3.85984 3.85984 -180 0 0 20.02 285.77 A203.885 203.885 -180 0 0 19.43 275.96 A10.7789 10.7789
							 -180 0 0 15.19 268.64 A7.18898 7.18898 -180 0 0 12.94 267.27 L12.9 266.21 A6.86889 6.86889 -180 0 0
							 15.3 260.94 A6.08194 6.08194 -180 0 0 9.69 254.52 A6.08161 6.08161 -180 0 0 4.08 260.94 A6.74363 6.74363
							 -180 0 0 6.4 266.13 L1.73 268.65 A3.32654 3.32654 -180 0 0 0.42 271.33 L0 280.38 A2.10888 2.10888 -180
							 0 0 0.42 281.81 A2.82614 2.82614 -180 0 0 2.51 282.84 A15.1078 15.1078 -180 0 0 11.55 287.74 A4.88337
							 4.88337 -180 0 0 17.29 288.61 Z" class="st19"/>
			</g>
		</g>
		<g id="shape61-423" v:mID="61" v:groupContext="shape" transform="translate(338.043,-199.145)">
			<title>Foglio.61</title>
			<desc>User 1</desc>
			<v:textBlock v:margins="rect(4,4,4,4)" v:tabSpace="42.5197"/>
			<v:textRect cx="18.489" cy="278.527" width="36.98" height="21.2598"/>
			<rect x="0" y="267.897" width="36.978" height="21.2598" class="st4"/>
			<text x="6.71" y="280.93" class="st5" v:langID="1040"><v:paragraph v:horizAlign="1"/><v:tabList/>User 1</text>		</g>
		<g id="shape62-426" v:mID="62" v:groupContext="shape" transform="translate(338.043,-175.051)">
			<title>Foglio.62</title>
			<desc>User 2</desc>
			<v:textBlock v:margins="rect(4,4,4,4)" v:tabSpace="42.5197"/>
			<v:textRect cx="18.489" cy="278.527" width="36.98" height="21.2598"/>
			<rect x="0" y="267.897" width="36.978" height="21.2598" class="st4"/>
			<text x="6.71" y="280.93" class="st5" v:langID="1040"><v:paragraph v:horizAlign="1"/><v:tabList/>User 2</text>		</g>
		<g id="shape63-429" v:mID="63" v:groupContext="shape" transform="translate(338.043,-149.794)">
			<title>Foglio.63</title>
			<desc>User 3</desc>
			<v:textBlock v:margins="rect(4,4,4,4)" v:tabSpace="42.5197"/>
			<v:textRect cx="18.489" cy="278.527" width="36.98" height="21.2598"/>
			<rect x="0" y="267.897" width="36.978" height="21.2598" class="st4"/>
			<text x="6.71" y="280.93" class="st5" v:langID="1040"><v:paragraph v:horizAlign="1"/><v:tabList/>User 3</text>		</g>
		<g id="shape64-432" v:mID="64" v:groupContext="shape" transform="translate(312.531,-19.1452)">
			<title>Foglio.64</title>
			<rect x="0" y="175.771" width="68.0315" height="113.386" class="st2"/>
		</g>
		<g id="group65-434" transform="translate(343.003,-71.5861) scale(-1,1)" v:mID="65" v:groupContext="group">
			<v:userDefs>
				<v:ud v:nameU="SkinColor" v:prompt="" v:val="VT5(#da8c36)"/>
				<v:ud v:nameU="visVersion" v:prompt="" v:val="VT0(12):26"/>
			</v:userDefs>
			<title>Persona - Mezzo busto.65</title>
			<g id="shape66-435" v:mID="66" v:groupContext="shape" transform="translate(2.57965,-6.56639)">
				<title>Foglio.66</title>
				<path d="M1.86 268.57 L1.72 268.64 A3.31251 3.31251 -180 0 0 0.42 271.32 L0.25 274.91 L0.13 277.5 L0 280.38 A2.46936
							 2.46936 -180 0 0 2.51 282.83 A11.4172 11.4172 -180 0 0 7.43 286.44 A91.6857 91.6857 -180 0 0 11.54 287.73
							 A4.70708 4.70708 -180 0 0 15.44 289.12 A6.3115 6.06979 -180 0 0 18.26 288.1 A3.16461 3.04342 -180 0
							 0 20.02 285.76 A163.493 157.231 -180 0 0 19.7 279.55 A326.221 313.727 -180 0 0 19.51 276.96 A14.9802
							 14.4065 -180 0 0 19.05 273.91 A12.1376 11.6728 -180 0 0 12.91 267.24 L12.9 266.19 A6.83961 6.83961 -180
							 0 0 15.3 260.93 A6.15397 6.15397 -180 0 0 9.69 254.51 A6.07588 6.07588 -180 0 0 4.08 260.93 A6.56598
							 6.56598 -180 0 0 6.38 266.14 L1.98 268.5 L1.86 268.57 Z" class="st9"/>
			</g>
			<g id="shape67-437" v:mID="67" v:groupContext="shape" transform="translate(2.80918,-7.29918)">
				<title>Foglio.67</title>
				<path d="M0.25 274.91 L0.42 271.32 A4.26804 4.26804 0 0 1 7.8 269.02 A13.673 13.673 0 0 1 14.87 284.77 L15.44 289.12
							 A4.70708 4.70708 0 0 1 11.54 287.73 A91.6857 91.6857 0 0 1 7.43 286.44 A11.4172 11.4172 0 0 1 2.51 282.83
							 A2.46936 2.46936 0 0 1 0 280.38 L0.13 277.5 L0.25 274.91 Z" class="st10"/>
			</g>
			<g id="shape68-440" v:mID="68" v:groupContext="shape" transform="translate(4.53387,-20.0239)">
				<title>Foglio.68</title>
				<path d="M12.14 289.16 L17.33 286.64 A12.1376 11.6728 -180 0 0 4.67 278.84 L0 281.37 A11.9282 11.4714 0 0 1 12.14
							 289.16 Z" class="st11"/>
			</g>
			<g id="shape69-443" v:mID="69" v:groupContext="shape" transform="translate(16.6776,-7.34555)">
				<title>Foglio.69</title>
				<path d="M0 276.48 A4.22423 4.06245 0 0 1 5.18 273.96 A14.9802 14.4065 0 0 1 5.64 277.01 A326.221 313.727 0 0 1 5.83
							 279.6 A163.493 157.231 0 0 1 6.15 285.81 A3.16461 3.04342 0 0 1 4.4 288.15 A5.77137 5.55034 0 0 1 0.77
							 289.15 L0 276.48 Z" class="st12"/>
			</g>
			<g id="shape70-446" v:mID="70" v:groupContext="shape" transform="translate(9.47259,-27.3794)">
				<title>Foglio.70</title>
				<path d="M0.15 286.36 L0.18 287.69 A2.23581 2.23581 -180 0 0 2.81 288.87 A5.96071 5.96071 -180 0 0 6.26 288.41 L6.23
							 285.89 A5.35584 5.35584 0 0 1 0.25 286.3 L0.15 286.36 Z" class="st13"/>
				<path d="M0.15 286.36 L0.18 287.69 A2.23581 2.23581 -180 0 0 2.81 288.87 A5.96071 5.96071 -180 0 0 6.26 288.41 L6.23
							 285.89 A5.35584 5.35584 0 0 1 0.25 286.3" class="st14"/>
			</g>
			<g id="shape71-450" v:mID="71" v:groupContext="shape" transform="translate(6.89219,-29.1668)">
				<title>Foglio.71</title>
				<path d="M11.22 282.8 A5.93051 5.93051 0 0 1 5.61 289.16 A5.86134 5.86134 0 0 1 0 282.8 A6.07588 6.07588 0 0 1 5.61
							 276.38 A6.15397 6.15397 0 0 1 11.22 282.8 L-2.81 273.18 L11.22 282.8 Z" class="st15"/>
				<path d="M11.22 282.8 A5.93051 5.93051 0 0 1 5.61 289.16 A5.86134 5.86134 0 0 1 0 282.8 A6.07588 6.07588 0 0 1 5.61
							 276.38 A6.15397 6.15397 0 0 1 11.22 282.8" class="st16"/>
			</g>
			<g id="shape72-454" v:mID="72" v:groupContext="shape" transform="translate(5.39904,-8.90112)">
				<title>Foglio.72</title>
				<path d="M0 284.26 L0 276.41 L0 284.26 Z M8.97 289.16 L8.97 281.3 L8.97 289.16 Z" class="st17"/>
				<path d="M0 284.26 L0 276.41M8.97 289.16 L8.97 281.3" class="st18"/>
			</g>
			<g id="shape73-457" v:mID="73" v:groupContext="shape" transform="translate(2.80819,-7.30781)">
				<title>Foglio.73</title>
				<path d="M17.29 288.61 A3.85984 3.85984 -180 0 0 20.02 285.77 A203.885 203.885 -180 0 0 19.43 275.96 A10.7789 10.7789
							 -180 0 0 15.19 268.64 A7.18898 7.18898 -180 0 0 12.94 267.27 L12.9 266.21 A6.86889 6.86889 -180 0 0
							 15.3 260.94 A6.08194 6.08194 -180 0 0 9.69 254.52 A6.08161 6.08161 -180 0 0 4.08 260.94 A6.74363 6.74363
							 -180 0 0 6.4 266.13 L1.73 268.65 A3.32654 3.32654 -180 0 0 0.42 271.33 L0 280.38 A2.10888 2.10888 -180
							 0 0 0.42 281.81 A2.82614 2.82614 -180 0 0 2.51 282.84 A15.1078 15.1078 -180 0 0 11.55 287.74 A4.88337
							 4.88337 -180 0 0 17.29 288.61 Z" class="st19"/>
			</g>
		</g>
		<g id="group146-459" transform="translate(343.39,-44.657) scale(-1,1)" v:mID="146" v:groupContext="group">
			<v:userDefs>
				<v:ud v:nameU="SkinColor" v:prompt="" v:val="VT5(#da8c36)"/>
				<v:ud v:nameU="visVersion" v:prompt="" v:val="VT0(12):26"/>
			</v:userDefs>
			<title>Persona - Mezzo busto.146</title>
			<g id="shape147-460" v:mID="147" v:groupContext="shape" transform="translate(2.57965,-6.56639)">
				<title>Foglio.147</title>
				<path d="M1.86 268.57 L1.72 268.64 A3.31251 3.31251 -180 0 0 0.42 271.32 L0.25 274.91 L0.13 277.5 L0 280.38 A2.46936
							 2.46936 -180 0 0 2.51 282.83 A11.4172 11.4172 -180 0 0 7.43 286.44 A91.6857 91.6857 -180 0 0 11.54 287.73
							 A4.70708 4.70708 -180 0 0 15.44 289.12 A6.3115 6.06979 -180 0 0 18.26 288.1 A3.16461 3.04342 -180 0
							 0 20.02 285.76 A163.493 157.231 -180 0 0 19.7 279.55 A326.221 313.727 -180 0 0 19.51 276.96 A14.9802
							 14.4065 -180 0 0 19.05 273.91 A12.1376 11.6728 -180 0 0 12.91 267.24 L12.9 266.19 A6.83961 6.83961 -180
							 0 0 15.3 260.93 A6.15397 6.15397 -180 0 0 9.69 254.51 A6.07588 6.07588 -180 0 0 4.08 260.93 A6.56598
							 6.56598 -180 0 0 6.38 266.14 L1.98 268.5 L1.86 268.57 Z" class="st9"/>
			</g>
			<g id="shape148-462" v:mID="148" v:groupContext="shape" transform="translate(2.80918,-7.29918)">
				<title>Foglio.148</title>
				<path d="M0.25 274.91 L0.42 271.32 A4.26804 4.26804 0 0 1 7.8 269.02 A13.673 13.673 0 0 1 14.87 284.77 L15.44 289.12
							 A4.70708 4.70708 0 0 1 11.54 287.73 A91.6857 91.6857 0 0 1 7.43 286.44 A11.4172 11.4172 0 0 1 2.51 282.83
							 A2.46936 2.46936 0 0 1 0 280.38 L0.13 277.5 L0.25 274.91 Z" class="st10"/>
			</g>
			<g id="shape149-465" v:mID="149" v:groupContext="shape" transform="translate(4.53387,-20.0239)">
				<title>Foglio.149</title>
				<path d="M12.14 289.16 L17.33 286.64 A12.1376 11.6728 -180 0 0 4.67 278.84 L0 281.37 A11.9282 11.4714 0 0 1 12.14
							 289.16 Z" class="st11"/>
			</g>
			<g id="shape150-468" v:mID="150" v:groupContext="shape" transform="translate(16.6776,-7.34555)">
				<title>Foglio.150</title>
				<path d="M0 276.48 A4.22423 4.06245 0 0 1 5.18 273.96 A14.9802 14.4065 0 0 1 5.64 277.01 A326.221 313.727 0 0 1 5.83
							 279.6 A163.493 157.231 0 0 1 6.15 285.81 A3.16461 3.04342 0 0 1 4.4 288.15 A5.77137 5.55034 0 0 1 0.77
							 289.15 L0 276.48 Z" class="st12"/>
			</g>
			<g id="shape151-471" v:mID="151" v:groupContext="shape" transform="translate(9.47259,-27.3794)">
				<title>Foglio.151</title>
				<path d="M0.15 286.36 L0.18 287.69 A2.23581 2.23581 -180 0 0 2.81 288.87 A5.96071 5.96071 -180 0 0 6.26 288.41 L6.23
							 285.89 A5.35584 5.35584 0 0 1 0.25 286.3 L0.15 286.36 Z" class="st13"/>
				<path d="M0.15 286.36 L0.18 287.69 A2.23581 2.23581 -180 0 0 2.81 288.87 A5.96071 5.96071 -180 0 0 6.26 288.41 L6.23
							 285.89 A5.35584 5.35584 0 0 1 0.25 286.3" class="st14"/>
			</g>
			<g id="shape152-475" v:mID="152" v:groupContext="shape" transform="translate(6.89219,-29.1668)">
				<title>Foglio.152</title>
				<path d="M11.22 282.8 A5.93051 5.93051 0 0 1 5.61 289.16 A5.86134 5.86134 0 0 1 0 282.8 A6.07588 6.07588 0 0 1 5.61
							 276.38 A6.15397 6.15397 0 0 1 11.22 282.8 L-2.81 273.18 L11.22 282.8 Z" class="st15"/>
				<path d="M11.22 282.8 A5.93051 5.93051 0 0 1 5.61 289.16 A5.86134 5.86134 0 0 1 0 282.8 A6.07588 6.07588 0 0 1 5.61
							 276.38 A6.15397 6.15397 0 0 1 11.22 282.8" class="st16"/>
			</g>
			<g id="shape153-479" v:mID="153" v:groupContext="shape" transform="translate(5.39904,-8.90112)">
				<title>Foglio.153</title>
				<path d="M0 284.26 L0 276.41 L0 284.26 Z M8.97 289.16 L8.97 281.3 L8.97 289.16 Z" class="st17"/>
				<path d="M0 284.26 L0 276.41M8.97 289.16 L8.97 281.3" class="st18"/>
			</g>
			<g id="shape154-482" v:mID="154" v:groupContext="shape" transform="translate(2.80819,-7.30781)">
				<title>Foglio.154</title>
				<path d="M17.29 288.61 A3.85984 3.85984 -180 0 0 20.02 285.77 A203.885 203.885 -180 0 0 19.43 275.96 A10.7789 10.7789
							 -180 0 0 15.19 268.64 A7.18898 7.18898 -180 0 0 12.94 267.27 L12.9 266.21 A6.86889 6.86889 -180 0 0
							 15.3 260.94 A6.08194 6.08194 -180 0 0 9.69 254.52 A6.08161 6.08161 -180 0 0 4.08 260.94 A6.74363 6.74363
							 -180 0 0 6.4 266.13 L1.73 268.65 A3.32654 3.32654 -180 0 0 0.42 271.33 L0 280.38 A2.10888 2.10888 -180
							 0 0 0.42 281.81 A2.82614 2.82614 -180 0 0 2.51 282.84 A15.1078 15.1078 -180 0 0 11.55 287.74 A4.88337
							 4.88337 -180 0 0 17.29 288.61 Z" class="st19"/>
			</g>
		</g>
		<g id="group155-484" transform="translate(344.646,-17.7279) scale(-1,1)" v:mID="155" v:groupContext="group">
			<v:userDefs>
				<v:ud v:nameU="SkinColor" v:prompt="" v:val="VT5(#da8c36)"/>
				<v:ud v:nameU="visVersion" v:prompt="" v:val="VT0(12):26"/>
			</v:userDefs>
			<title>Persona - Mezzo busto.155</title>
			<g id="shape156-485" v:mID="156" v:groupContext="shape" transform="translate(2.57965,-6.56639)">
				<title>Foglio.156</title>
				<path d="M1.86 268.57 L1.72 268.64 A3.31251 3.31251 -180 0 0 0.42 271.32 L0.25 274.91 L0.13 277.5 L0 280.38 A2.46936
							 2.46936 -180 0 0 2.51 282.83 A11.4172 11.4172 -180 0 0 7.43 286.44 A91.6857 91.6857 -180 0 0 11.54 287.73
							 A4.70708 4.70708 -180 0 0 15.44 289.12 A6.3115 6.06979 -180 0 0 18.26 288.1 A3.16461 3.04342 -180 0
							 0 20.02 285.76 A163.493 157.231 -180 0 0 19.7 279.55 A326.221 313.727 -180 0 0 19.51 276.96 A14.9802
							 14.4065 -180 0 0 19.05 273.91 A12.1376 11.6728 -180 0 0 12.91 267.24 L12.9 266.19 A6.83961 6.83961 -180
							 0 0 15.3 260.93 A6.15397 6.15397 -180 0 0 9.69 254.51 A6.07588 6.07588 -180 0 0 4.08 260.93 A6.56598
							 6.56598 -180 0 0 6.38 266.14 L1.98 268.5 L1.86 268.57 Z" class="st9"/>
			</g>
			<g id="shape157-487" v:mID="157" v:groupContext="shape" transform="translate(2.80918,-7.29918)">
				<title>Foglio.157</title>
				<path d="M0.25 274.91 L0.42 271.32 A4.26804 4.26804 0 0 1 7.8 269.02 A13.673 13.673 0 0 1 14.87 284.77 L15.44 289.12
							 A4.70708 4.70708 0 0 1 11.54 287.73 A91.6857 91.6857 0 0 1 7.43 286.44 A11.4172 11.4172 0 0 1 2.51 282.83
							 A2.46936 2.46936 0 0 1 0 280.38 L0.13 277.5 L0.25 274.91 Z" class="st10"/>
			</g>
			<g id="shape158-490" v:mID="158" v:groupContext="shape" transform="translate(4.53387,-20.0239)">
				<title>Foglio.158</title>
				<path d="M12.14 289.16 L17.33 286.64 A12.1376 11.6728 -180 0 0 4.67 278.84 L0 281.37 A11.9282 11.4714 0 0 1 12.14
							 289.16 Z" class="st11"/>
			</g>
			<g id="shape159-493" v:mID="159" v:groupContext="shape" transform="translate(16.6776,-7.34555)">
				<title>Foglio.159</title>
				<path d="M0 276.48 A4.22423 4.06245 0 0 1 5.18 273.96 A14.9802 14.4065 0 0 1 5.64 277.01 A326.221 313.727 0 0 1 5.83
							 279.6 A163.493 157.231 0 0 1 6.15 285.81 A3.16461 3.04342 0 0 1 4.4 288.15 A5.77137 5.55034 0 0 1 0.77
							 289.15 L0 276.48 Z" class="st12"/>
			</g>
			<g id="shape160-496" v:mID="160" v:groupContext="shape" transform="translate(9.47259,-27.3794)">
				<title>Foglio.160</title>
				<path d="M0.15 286.36 L0.18 287.69 A2.23581 2.23581 -180 0 0 2.81 288.87 A5.96071 5.96071 -180 0 0 6.26 288.41 L6.23
							 285.89 A5.35584 5.35584 0 0 1 0.25 286.3 L0.15 286.36 Z" class="st13"/>
				<path d="M0.15 286.36 L0.18 287.69 A2.23581 2.23581 -180 0 0 2.81 288.87 A5.96071 5.96071 -180 0 0 6.26 288.41 L6.23
							 285.89 A5.35584 5.35584 0 0 1 0.25 286.3" class="st14"/>
			</g>
			<g id="shape161-500" v:mID="161" v:groupContext="shape" transform="translate(6.89219,-29.1668)">
				<title>Foglio.161</title>
				<path d="M11.22 282.8 A5.93051 5.93051 0 0 1 5.61 289.16 A5.86134 5.86134 0 0 1 0 282.8 A6.07588 6.07588 0 0 1 5.61
							 276.38 A6.15397 6.15397 0 0 1 11.22 282.8 L-2.81 273.18 L11.22 282.8 Z" class="st15"/>
				<path d="M11.22 282.8 A5.93051 5.93051 0 0 1 5.61 289.16 A5.86134 5.86134 0 0 1 0 282.8 A6.07588 6.07588 0 0 1 5.61
							 276.38 A6.15397 6.15397 0 0 1 11.22 282.8" class="st16"/>
			</g>
			<g id="shape162-504" v:mID="162" v:groupContext="shape" transform="translate(5.39904,-8.90112)">
				<title>Foglio.162</title>
				<path d="M0 284.26 L0 276.41 L0 284.26 Z M8.97 289.16 L8.97 281.3 L8.97 289.16 Z" class="st17"/>
				<path d="M0 284.26 L0 276.41M8.97 289.16 L8.97 281.3" class="st18"/>
			</g>
			<g id="shape163-507" v:mID="163" v:groupContext="shape" transform="translate(2.80819,-7.30781)">
				<title>Foglio.163</title>
				<path d="M17.29 288.61 A3.85984 3.85984 -180 0 0 20.02 285.77 A203.885 203.885 -180 0 0 19.43 275.96 A10.7789 10.7789
							 -180 0 0 15.19 268.64 A7.18898 7.18898 -180 0 0 12.94 267.27 L12.9 266.21 A6.86889 6.86889 -180 0 0
							 15.3 260.94 A6.08194 6.08194 -180 0 0 9.69 254.52 A6.08161 6.08161 -180 0 0 4.08 260.94 A6.74363 6.74363
							 -180 0 0 6.4 266.13 L1.73 268.65 A3.32654 3.32654 -180 0 0 0.42 271.33 L0 280.38 A2.10888 2.10888 -180
							 0 0 0.42 281.81 A2.82614 2.82614 -180 0 0 2.51 282.84 A15.1078 15.1078 -180 0 0 11.55 287.74 A4.88337
							 4.88337 -180 0 0 17.29 288.61 Z" class="st19"/>
			</g>
		</g>
		<g id="shape164-509" v:mID="164" v:groupContext="shape" transform="translate(338.688,-80.0901)">
			<title>Foglio.164</title>
			<desc>User 1</desc>
			<v:textBlock v:margins="rect(4,4,4,4)" v:tabSpace="42.5197"/>
			<v:textRect cx="18.489" cy="278.527" width="36.98" height="21.2598"/>
			<rect x="0" y="267.897" width="36.978" height="21.2598" class="st4"/>
			<text x="6.71" y="280.93" class="st5" v:langID="1040"><v:paragraph v:horizAlign="1"/><v:tabList/>User 1</text>		</g>
		<g id="shape165-512" v:mID="165" v:groupContext="shape" transform="translate(338.688,-55.9956)">
			<title>Foglio.165</title>
			<desc>User 2</desc>
			<v:textBlock v:margins="rect(4,4,4,4)" v:tabSpace="42.5197"/>
			<v:textRect cx="18.489" cy="278.527" width="36.98" height="21.2598"/>
			<rect x="0" y="267.897" width="36.978" height="21.2598" class="st4"/>
			<text x="6.71" y="280.93" class="st5" v:langID="1040"><v:paragraph v:horizAlign="1"/><v:tabList/>User 2</text>		</g>
		<g id="shape166-515" v:mID="166" v:groupContext="shape" transform="translate(338.688,-30.7389)">
			<title>Foglio.166</title>
			<desc>User 3</desc>
			<v:textBlock v:margins="rect(4,4,4,4)" v:tabSpace="42.5197"/>
			<v:textRect cx="18.489" cy="278.527" width="36.98" height="21.2598"/>
			<rect x="0" y="267.897" width="36.978" height="21.2598" class="st4"/>
			<text x="6.71" y="280.93" class="st5" v:langID="1040"><v:paragraph v:horizAlign="1"/><v:tabList/>User 3</text>		</g>
		<g id="shape182-518" v:mID="182" v:groupContext="shape" transform="translate(322.452,-111.271)">
			<title>Foglio.182</title>
			<desc>Group 1</desc>
			<v:textBlock v:margins="rect(4,4,4,4)" v:tabSpace="42.5197"/>
			<v:textRect cx="18.489" cy="278.527" width="36.98" height="21.2598"/>
			<rect x="0" y="267.897" width="36.978" height="21.2598" class="st4"/>
			<text x="4.04" y="280.93" class="st5" v:langID="1040"><v:paragraph v:horizAlign="1"/><v:tabList/>Group 1</text>		</g>
		<g id="shape183-521" v:mID="183" v:groupContext="shape" transform="translate(507.577,19.1452) rotate(90)">
			<title>Foglio.183</title>
			<path d="M5.67 289.16 L0 289.16 L2.83 279.52 L5.67 289.16 Z" class="st7"/>
		</g>
		<g id="shape184-523" v:mID="184" v:groupContext="shape" transform="translate(228.484,-267.177) scale(-1,1)">
			<title>Foglio.184</title>
			<path d="M0 289.16 L36 289.16" class="st8"/>
		</g>
		<g id="shape185-526" v:mID="185" v:groupContext="shape" transform="translate(108.437,-241.92) scale(-1,1)">
			<title>Foglio.185</title>
			<path d="M0 289.16 L17.01 289.16" class="st8"/>
		</g>
		<g id="shape186-529" v:mID="186" v:groupContext="shape" transform="translate(108.437,-31.9011) scale(-1,1)">
			<title>Foglio.186</title>
			<path d="M0 289.16 L17.01 289.16" class="st8"/>
		</g>
		<g id="shape187-532" v:mID="187" v:groupContext="shape" transform="translate(397.593,257.255) rotate(90) scale(-1,1)">
			<title>Foglio.187</title>
			<path d="M0 289.16 L210.02 289.16" class="st8"/>
		</g>
		<g id="shape188-535" v:mID="188" v:groupContext="shape" transform="translate(519.766,154.074) rotate(90)">
			<title>Foglio.188</title>
			<path d="M5.67 289.16 L0 289.16 L2.83 279.52 L5.67 289.16 Z" class="st7"/>
		</g>
		<g id="shape189-537" v:mID="189" v:groupContext="shape" transform="translate(238.83,-132.248) scale(-1,1)">
			<title>Foglio.189</title>
			<path d="M0 289.16 L53.86 289.16" class="st8"/>
		</g>
		<g id="shape190-540" v:mID="190" v:groupContext="shape" transform="translate(422.538,153.791) rotate(90)">
			<title>Foglio.190</title>
			<path d="M5.67 289.16 L0 289.16 L2.83 279.52 L5.67 289.16 Z" class="st7"/>
		</g>
		<g id="shape191-542" v:mID="191" v:groupContext="shape" transform="translate(139.618,-132.531) scale(-1,1)">
			<title>Foglio.191</title>
			<path d="M0 289.16 L31.18 289.16" class="st8"/>
		</g>
		<g id="shape192-545" v:mID="192" v:groupContext="shape" transform="translate(598.428,73.0035) rotate(90)">
			<title>Foglio.192</title>
			<path d="M5.67 289.16 L0 289.16 L2.83 279.52 L5.67 289.16 Z" class="st7"/>
		</g>
		<g id="shape193-547" v:mID="193" v:groupContext="shape" transform="translate(317.492,-213.318) scale(-1,1)">
			<title>Foglio.193</title>
			<path d="M0 289.16 L53.86 289.16" class="st8"/>
		</g>
		<g id="shape194-550" v:mID="194" v:groupContext="shape" transform="translate(-25.5231,75.8381) rotate(-90) scale(-1,1)">
			<title>Foglio.194</title>
			<path d="M0 289.16 L17.01 289.16" class="st8"/>
		</g>
		<g id="shape195-553" v:mID="195" v:groupContext="shape" transform="translate(592.333,261.224) rotate(90) scale(-1,1)">
			<title>Foglio.195</title>
			<path d="M5.67 289.16 L0 289.16 L2.83 279.52 L5.67 289.16 Z" class="st7"/>
		</g>
		<g id="shape196-555" v:mID="196" v:groupContext="shape" transform="translate(312.531,547.829) rotate(180)">
			<title>Foglio.196</title>
			<path d="M0 289.16 L47.48 289.16" class="st8"/>
		</g>
		<g id="shape197-558" v:mID="197" v:groupContext="shape" transform="translate(-24.1058,258.673) rotate(-90)">
			<title>Foglio.197</title>
			<path d="M0 289.16 L36.85 289.16" class="st8"/>
		</g>
	</g>
</svg>
