<?xml version="1.0" encoding="UTF-8" standalone="no"?>
<!DOCTYPE svg PUBLIC "-//W3C//DTD SVG 1.0//EN" "http://www.w3.org/TR/2001/REC-SVG-20010904/DTD/svg10.dtd">
<!-- Generato da Microsoft Visio 11.0, SVG Export, v1.0 jakartaeett_dt_046.svg Pagina 1 -->
<svg xmlns="http://www.w3.org/2000/svg" xmlns:v="http://schemas.microsoft.com/visio/2003/SVGExtensions/" width="5.61055in"
		height="3.85051in" viewBox="0 0 403.96 277.237" xml:space="preserve" color-interpolation-filters="sRGB" class="st34">
	<v:documentProperties v:langID="1040" v:metric="true" v:viewMarkup="false">
		<v:userDefs>
			<v:ud v:nameU="MBSAAvail" v:prompt="" v:val="VT0(2):26"/>
			<v:ud v:nameU="MBSAAddinEnabled" v:prompt="" v:val="VT0(2):26"/>
			<v:ud v:nameU="MBSAAddinOutlineVisible" v:prompt="" v:val="VT0(1):26"/>
		</v:userDefs>
	</v:documentProperties>

	<style type="text/css">
	<![CDATA[
		.st1 {fill:#ffffff;stroke:none;stroke-linecap:round;stroke-linejoin:round;stroke-width:0.72}
		.st2 {fill:#c8d6e6;stroke:#000000;stroke-linecap:round;stroke-linejoin:round;stroke-width:0.72}
		.st3 {fill:none;stroke:none;stroke-linecap:round;stroke-linejoin:round;stroke-width:0.72}
		.st4 {fill:#000000;font-family:Arial;font-size:0.666664em}
		.st5 {stroke:#000000;stroke-linecap:round;stroke-linejoin:round;stroke-width:0.72}
		.st6 {fill:#cadaa9;stroke:#000000;stroke-linecap:round;stroke-linejoin:round;stroke-width:0.72}
		.st7 {fill:#000000;stroke:#000000;stroke-linecap:round;stroke-linejoin:round;stroke-width:0.72}
		.st8 {fill:#ff00ff;fill-opacity:0;stroke:#000000;stroke-linecap:round;stroke-linejoin:round;stroke-opacity:0;stroke-width:0.72}
		.st9 {fill:url(#grad31-38);stroke:#ffffff;stroke-linecap:round;stroke-linejoin:round;stroke-width:0.72}
		.st10 {fill:url(#grad30-47);stroke:#ffffff;stroke-linecap:round;stroke-linejoin:round;stroke-width:0.72}
		.st11 {fill:url(#grad32-54);stroke:#000000;stroke-linecap:round;stroke-linejoin:round;stroke-width:0.72}
		.st12 {stroke:#ffffff;stroke-linecap:round;stroke-linejoin:round;stroke-width:0.72}
		.st13 {fill:url(#grad35-68);stroke:#000000;stroke-linecap:round;stroke-linejoin:round;stroke-width:0.72}
		.st14 {fill:#ffffff;stroke:none;stroke-linecap:round;stroke-linejoin:round;stroke-width:0.24}
		.st15 {fill:#969696;stroke:none;stroke-linecap:round;stroke-linejoin:round;stroke-width:0.24}
		.st16 {fill:none;stroke:#000000;stroke-linecap:round;stroke-linejoin:round;stroke-width:1.5}
		.st17 {fill:url(#grad30-86)}
		.st18 {stroke:#ffffff;stroke-linecap:round;stroke-linejoin:round;stroke-width:0.36}
		.st19 {fill:url(#grad32-91)}
		.st20 {stroke:#a78450;stroke-linecap:round;stroke-linejoin:round;stroke-width:0.36}
		.st21 {fill:url(#grad31-98);stroke:#ffffff;stroke-linecap:round;stroke-linejoin:round;stroke-width:0.36}
		.st22 {stroke:#000000;stroke-linecap:round;stroke-linejoin:round;stroke-width:1.5}
		.st23 {fill:url(#grad31-107);stroke:#000000;stroke-linecap:round;stroke-linejoin:round;stroke-width:0.36}
		.st24 {stroke:#000000;stroke-linecap:round;stroke-linejoin:round;stroke-width:0.6}
		.st25 {fill:#000000;stroke:#000000;stroke-linecap:round;stroke-linejoin:round;stroke-width:0.36}
		.st26 {fill:url(#grad34-123);stroke:#ffffff;stroke-linecap:round;stroke-linejoin:round;stroke-width:0.12}
		.st27 {fill:url(#grad35-128);stroke:none;stroke-linecap:round;stroke-linejoin:round;stroke-width:0.12}
		.st28 {fill:#000000;stroke:none;stroke-linecap:round;stroke-linejoin:round;stroke-width:0.24}
		.st29 {stroke:#000000;stroke-linecap:round;stroke-linejoin:round;stroke-width:0.36}
		.st30 {fill:#ffffff;stroke:#000000;stroke-linecap:round;stroke-linejoin:round;stroke-width:0.72}
		.st31 {fill:#000000;font-family:Arial;font-size:0.666664em;font-weight:bold}
		.st32 {font-size:1em}
		.st33 {fill:#f2f2f2;stroke:#000000;stroke-linecap:round;stroke-linejoin:round;stroke-width:0.72}
		.st34 {fill:none;fill-rule:evenodd;font-size:12;overflow:visible;stroke-linecap:square;stroke-miterlimit:3}
	]]>
	</style>

	<defs id="Patterns_And_Gradients">
		<pattern id="grad31-38" v:fillPattern="31" v:foreground="#da9792" v:background="#e4b4af" x="0" y="0" width="1" height="1"
				patternContentUnits="objectBoundingBox">
			<path d="M 0 0 L 0 1 L 1 1 z" style="fill:url(#grad28-39)"/>
			<path d="M 0 0 L 1 0 L 1 1 z" style="fill:url(#grad25-40)"/>
		</pattern>
		<linearGradient id="grad28-39" v:fillPattern="31" v:foreground="#da9792" v:background="#e4b4af" x1="0" y1="0" x2="0" y2="1">
			<stop offset="0" style="stop-color:#da9792;stop-opacity:1"/>
			<stop offset="1" style="stop-color:#e4b4af;stop-opacity:1"/>
		</linearGradient>
		<linearGradient id="grad25-40" v:fillPattern="31" v:foreground="#da9792" v:background="#e4b4af" x1="0" y1="0" x2="1" y2="0">
			<stop offset="0" style="stop-color:#da9792;stop-opacity:1"/>
			<stop offset="1" style="stop-color:#e4b4af;stop-opacity:1"/>
		</linearGradient>
		<linearGradient id="grad30-47" v:fillPattern="30" v:foreground="#da9792" v:background="#e4b4af" x1="0" y1="1" x2="0" y2="0">
			<stop offset="0" style="stop-color:#da9792;stop-opacity:1"/>
			<stop offset="1" style="stop-color:#e4b4af;stop-opacity:1"/>
		</linearGradient>
		<pattern id="grad32-54" v:fillPattern="32" v:foreground="#da9792" v:background="#e4b4af" x="0" y="0" width="1" height="1"
				patternContentUnits="objectBoundingBox">
			<path d="M 0 1 L 0 0 L 1 0 z" style="fill:url(#grad27-55)"/>
			<path d="M 0 1 L 1 1 L 1 0 z" style="fill:url(#grad28-39)"/>
		</pattern>
		<linearGradient id="grad27-55" v:fillPattern="32" v:foreground="#da9792" v:background="#e4b4af" x1="1" y1="0" x2="0" y2="0">
			<stop offset="0" style="stop-color:#da9792;stop-opacity:1"/>
			<stop offset="1" style="stop-color:#e4b4af;stop-opacity:1"/>
		</linearGradient>
		<pattern id="grad35-68" v:fillPattern="35" v:foreground="#ffffff" v:background="#c6d1e3" x="0" y="0" width="1" height="1"
				patternContentUnits="objectBoundingBox">
			<path d="M 0.5 0.5 L 0 0 L 0 1 z" style="fill:url(#grad27-69)"/>
			<path d="M 0.5 0.5 L 1 0 L 1 1 z" style="fill:url(#grad25-70)"/>
			<path d="M 0.5 0.5 L 0 0 L 1 0 z" style="fill:url(#grad30-71)"/>
			<path d="M 0.5 0.5 L 0 1 L 1 1 z" style="fill:url(#grad28-72)"/>
		</pattern>
		<linearGradient id="grad27-69" v:fillPattern="35" v:foreground="#ffffff" v:background="#c6d1e3" x1="1" y1="0" x2="0" y2="0">
			<stop offset="0" style="stop-color:#ffffff;stop-opacity:1"/>
			<stop offset="1" style="stop-color:#c6d1e3;stop-opacity:1"/>
		</linearGradient>
		<linearGradient id="grad25-70" v:fillPattern="35" v:foreground="#ffffff" v:background="#c6d1e3" x1="0" y1="0" x2="1" y2="0">
			<stop offset="0" style="stop-color:#ffffff;stop-opacity:1"/>
			<stop offset="1" style="stop-color:#c6d1e3;stop-opacity:1"/>
		</linearGradient>
		<linearGradient id="grad30-71" v:fillPattern="35" v:foreground="#ffffff" v:background="#c6d1e3" x1="0" y1="1" x2="0" y2="0">
			<stop offset="0" style="stop-color:#ffffff;stop-opacity:1"/>
			<stop offset="1" style="stop-color:#c6d1e3;stop-opacity:1"/>
		</linearGradient>
		<linearGradient id="grad28-72" v:fillPattern="35" v:foreground="#ffffff" v:background="#c6d1e3" x1="0" y1="0" x2="0" y2="1">
			<stop offset="0" style="stop-color:#ffffff;stop-opacity:1"/>
			<stop offset="1" style="stop-color:#c6d1e3;stop-opacity:1"/>
		</linearGradient>
		<linearGradient id="grad30-86" v:fillPattern="30" v:foreground="#ffffff" v:background="#e1d8c1" x1="0" y1="1" x2="0" y2="0">
			<stop offset="0" style="stop-color:#ffffff;stop-opacity:1"/>
			<stop offset="1" style="stop-color:#e1d8c1;stop-opacity:1"/>
		</linearGradient>
		<pattern id="grad32-91" v:fillPattern="32" v:foreground="#ffffff" v:background="#c9ba96" x="0" y="0" width="1" height="1"
				patternContentUnits="objectBoundingBox">
			<path d="M 0 1 L 0 0 L 1 0 z" style="fill:url(#grad27-92)"/>
			<path d="M 0 1 L 1 1 L 1 0 z" style="fill:url(#grad28-93)"/>
		</pattern>
		<linearGradient id="grad27-92" v:fillPattern="32" v:foreground="#ffffff" v:background="#c9ba96" x1="1" y1="0" x2="0" y2="0">
			<stop offset="0" style="stop-color:#ffffff;stop-opacity:1"/>
			<stop offset="1" style="stop-color:#c9ba96;stop-opacity:1"/>
		</linearGradient>
		<linearGradient id="grad28-93" v:fillPattern="32" v:foreground="#ffffff" v:background="#c9ba96" x1="0" y1="0" x2="0" y2="1">
			<stop offset="0" style="stop-color:#ffffff;stop-opacity:1"/>
			<stop offset="1" style="stop-color:#c9ba96;stop-opacity:1"/>
		</linearGradient>
		<pattern id="grad31-98" v:fillPattern="31" v:foreground="#ffffff" v:background="#b6a06d" x="0" y="0" width="1" height="1"
				patternContentUnits="objectBoundingBox">
			<path d="M 0 0 L 0 1 L 1 1 z" style="fill:url(#grad28-99)"/>
			<path d="M 0 0 L 1 0 L 1 1 z" style="fill:url(#grad25-100)"/>
		</pattern>
		<linearGradient id="grad28-99" v:fillPattern="31" v:foreground="#ffffff" v:background="#b6a06d" x1="0" y1="0" x2="0" y2="1">
			<stop offset="0" style="stop-color:#ffffff;stop-opacity:1"/>
			<stop offset="1" style="stop-color:#b6a06d;stop-opacity:1"/>
		</linearGradient>
		<linearGradient id="grad25-100" v:fillPattern="31" v:foreground="#ffffff" v:background="#b6a06d" x1="0" y1="0" x2="1"
				y2="0">
			<stop offset="0" style="stop-color:#ffffff;stop-opacity:1"/>
			<stop offset="1" style="stop-color:#b6a06d;stop-opacity:1"/>
		</linearGradient>
		<pattern id="grad31-107" v:fillPattern="31" v:foreground="#ffffff" v:background="#339966" x="0" y="0" width="1" height="1"
				patternContentUnits="objectBoundingBox">
			<path d="M 0 0 L 0 1 L 1 1 z" style="fill:url(#grad28-108)"/>
			<path d="M 0 0 L 1 0 L 1 1 z" style="fill:url(#grad25-109)"/>
		</pattern>
		<linearGradient id="grad28-108" v:fillPattern="31" v:foreground="#ffffff" v:background="#339966" x1="0" y1="0" x2="0"
				y2="1">
			<stop offset="0" style="stop-color:#ffffff;stop-opacity:1"/>
			<stop offset="1" style="stop-color:#339966;stop-opacity:1"/>
		</linearGradient>
		<linearGradient id="grad25-109" v:fillPattern="31" v:foreground="#ffffff" v:background="#339966" x1="0" y1="0" x2="1"
				y2="0">
			<stop offset="0" style="stop-color:#ffffff;stop-opacity:1"/>
			<stop offset="1" style="stop-color:#339966;stop-opacity:1"/>
		</linearGradient>
		<linearGradient id="grad30-113" v:fillPattern="30" v:foreground="#ffffff" v:background="#e7e4cd" x1="0" y1="1" x2="0"
				y2="0">
			<stop offset="0" style="stop-color:#ffffff;stop-opacity:1"/>
			<stop offset="1" style="stop-color:#e7e4cd;stop-opacity:1"/>
		</linearGradient>
		<pattern id="grad34-123" v:fillPattern="34" v:foreground="#ffffff" v:background="#e7e4cd" x="0" y="0" width="1" height="1"
				patternContentUnits="objectBoundingBox">
			<path d="M 0 0 L 1 0 L 1 1 z" style="fill:url(#grad30-113)"/>
			<path d="M 0 0 L 0 1 L 1 1 z" style="fill:url(#grad27-124)"/>
		</pattern>
		<linearGradient id="grad27-124" v:fillPattern="34" v:foreground="#ffffff" v:background="#e7e4cd" x1="1" y1="0" x2="0"
				y2="0">
			<stop offset="0" style="stop-color:#ffffff;stop-opacity:1"/>
			<stop offset="1" style="stop-color:#e7e4cd;stop-opacity:1"/>
		</linearGradient>
		<pattern id="grad35-128" v:fillPattern="35" v:foreground="#000000" v:foregroundOpacity="0.4" v:background="#e7e4cd"
				v:backgroundOpacity="0.4" x="0" y="0" width="1" height="1" patternContentUnits="objectBoundingBox">
			<path d="M 0.5 0.5 L 0 0 L 0 1 z" style="fill:url(#grad27-129)"/>
			<path d="M 0.5 0.5 L 1 0 L 1 1 z" style="fill:url(#grad25-130)"/>
			<path d="M 0.5 0.5 L 0 0 L 1 0 z" style="fill:url(#grad30-131)"/>
			<path d="M 0.5 0.5 L 0 1 L 1 1 z" style="fill:url(#grad28-132)"/>
		</pattern>
		<linearGradient id="grad27-129" v:fillPattern="35" v:foreground="#000000" v:foregroundOpacity="0.4" v:background="#e7e4cd"
				v:backgroundOpacity="0.4" x1="1" y1="0" x2="0" y2="0">
			<stop offset="0" style="stop-color:#000000;stop-opacity:0.4"/>
			<stop offset="1" style="stop-color:#e7e4cd;stop-opacity:0.4"/>
		</linearGradient>
		<linearGradient id="grad25-130" v:fillPattern="35" v:foreground="#000000" v:foregroundOpacity="0.4" v:background="#e7e4cd"
				v:backgroundOpacity="0.4" x1="0" y1="0" x2="1" y2="0">
			<stop offset="0" style="stop-color:#000000;stop-opacity:0.4"/>
			<stop offset="1" style="stop-color:#e7e4cd;stop-opacity:0.4"/>
		</linearGradient>
		<linearGradient id="grad30-131" v:fillPattern="35" v:foreground="#000000" v:foregroundOpacity="0.4" v:background="#e7e4cd"
				v:backgroundOpacity="0.4" x1="0" y1="1" x2="0" y2="0">
			<stop offset="0" style="stop-color:#000000;stop-opacity:0.4"/>
			<stop offset="1" style="stop-color:#e7e4cd;stop-opacity:0.4"/>
		</linearGradient>
		<linearGradient id="grad28-132" v:fillPattern="35" v:foreground="#000000" v:foregroundOpacity="0.4" v:background="#e7e4cd"
				v:backgroundOpacity="0.4" x1="0" y1="0" x2="0" y2="1">
			<stop offset="0" style="stop-color:#000000;stop-opacity:0.4"/>
			<stop offset="1" style="stop-color:#e7e4cd;stop-opacity:0.4"/>
		</linearGradient>
	</defs>
	<g v:mID="0" v:index="1" v:groupContext="foregroundPage">
		<title>Pagina 1</title>
		<v:pageProperties v:drawingScale="0.0393701" v:pageScale="0.0393701" v:drawingUnits="24" v:shadowOffsetX="8.50394"
				v:shadowOffsetY="-8.50394"/>
		<g id="shape36-1" v:mID="36" v:groupContext="shape" transform="translate(0.72,-0.72)">
			<title>Foglio.36</title>
			<rect x="0" y="2.27622" width="402.52" height="274.961" class="st1"/>
		</g>
		<g id="shape48-3" v:mID="48" v:groupContext="shape" transform="translate(6.38929,-43.2397)">
			<title>Foglio.48</title>
			<rect x="0" y="71.8293" width="79.3701" height="205.408" class="st2"/>
		</g>
		<g id="shape24-5" v:mID="24" v:groupContext="shape" transform="translate(9.22394,-221.822)">
			<title>Foglio.24</title>
			<desc>Client</desc>
			<v:textBlock v:margins="rect(4,4,4,4)" v:tabSpace="42.5197"/>
			<v:textRect cx="27.6378" cy="264.481" width="55.28" height="25.5118"/>
			<rect x="0" y="251.725" width="55.2756" height="25.5118" class="st3"/>
			<text x="17.41" y="266.88" class="st4" v:langID="1040"><v:paragraph v:horizAlign="1"/><v:tabList/>Client</text>		</g>
		<g id="shape2-8" v:mID="2" v:groupContext="shape" transform="translate(148.122,-229.49) scale(-1,1)">
			<title>Foglio.2</title>
			<path d="M0 277.24 L62.36 277.24" class="st5"/>
		</g>
		<g id="shape3-11" v:mID="3" v:groupContext="shape" transform="translate(298.358,-43.2397)">
			<title>Foglio.3</title>
			<rect x="0" y="70.3077" width="96.378" height="206.929" class="st6"/>
		</g>
		<g id="shape4-13" v:mID="4" v:groupContext="shape" transform="translate(301.192,-228.909)">
			<title>Foglio.4</title>
			<desc>Server</desc>
			<v:textBlock v:margins="rect(4,4,4,4)" v:tabSpace="42.5197"/>
			<v:textRect cx="31.1811" cy="266.607" width="62.37" height="21.2598"/>
			<rect x="0" y="255.977" width="62.3622" height="21.2598" class="st3"/>
			<text x="19.4" y="269.01" class="st4" v:langID="1040"><v:paragraph v:horizAlign="1"/><v:tabList/>Server</text>		</g>
		<g id="shape22-16" v:mID="22" v:groupContext="shape" transform="translate(-181.84,44.9121) rotate(-90) scale(-1,1)">
			<title>Foglio.22</title>
			<path d="M5.67 277.24 L0 277.24 L2.83 267.6 L5.67 277.24 Z" class="st7"/>
		</g>
		<g id="shape23-18" v:mID="23" v:groupContext="shape" transform="translate(298.358,-229.49) scale(-1,1)">
			<title>Foglio.23</title>
			<path d="M0 277.24 L24.38 277.24" class="st5"/>
		</g>
		<g id="shape51-21" v:mID="51" v:groupContext="shape" transform="translate(102.767,-263.506)">
			<title>Foglio.51</title>
			<desc>Requests protected resource</desc>
			<v:textBlock v:margins="rect(4,4,4,4)" v:tabSpace="42.5197"/>
			<v:textRect cx="57.4016" cy="270.731" width="114.81" height="13.011"/>
			<rect x="0" y="264.226" width="114.803" height="13.011" class="st3"/>
			<text x="6.04" y="273.13" class="st4" v:langID="1040"><v:paragraph v:horizAlign="1"/><v:tabList/>Requests protected resource</text>		</g>
		<g id="shape52-24" v:mID="52" v:groupContext="shape" transform="translate(343.712,-270.011) scale(-1,1)">
			<title>Foglio.52</title>
			<path d="M0 277.24 L84.47 277.24" class="st5"/>
		</g>
		<g id="shape53-27" v:mID="53" v:groupContext="shape" transform="translate(346.547,294.667) rotate(180)">
			<title>Foglio.53</title>
			<path d="M5.67 277.24 L0 277.24 L2.83 267.6 L5.67 277.24 Z" class="st7"/>
		</g>
		<g id="shape54-29" v:mID="54" v:groupContext="shape" transform="translate(51.7436,-270.011)">
			<title>Foglio.54</title>
			<path d="M0 277.24 L54.57 277.24" class="st5"/>
		</g>
		<g id="group58-32" transform="translate(81.5074,-153.791) scale(-1,1)" v:mID="58" v:groupContext="group">
			<v:custProps>
				<v:cp v:nameU="ShapeClass" v:lbl="ShapeClass" v:type="0" v:invis="true" v:ask="false" v:langID="1040"
						v:val="VT4(Equipment)"/>
				<v:cp v:nameU="ShapeType" v:lbl="ShapeType" v:type="0" v:invis="true" v:ask="false" v:langID="1040"
						v:val="VT4(Computer)"/>
				<v:cp v:nameU="SubShapeType" v:lbl="SubShapeType" v:type="0" v:invis="true" v:ask="false" v:langID="1040"
						v:val="VT4(Portatile)"/>
				<v:cp v:nameU="Manufacturer" v:lbl="Produttore" v:type="0" v:sortKey="Equipment" v:invis="false" v:ask="false"
						v:langID="1040"/>
				<v:cp v:nameU="ProductNumber" v:lbl="Numero prodotto" v:type="0" v:sortKey="Equipment" v:invis="false"
						v:ask="false" v:langID="1040"/>
				<v:cp v:nameU="PartNumber" v:lbl="Numero parte" v:type="0" v:sortKey="Equipment" v:invis="false" v:ask="false"
						v:langID="1040"/>
				<v:cp v:nameU="ProductDescription" v:lbl="Descrizione prodotto" v:type="0" v:sortKey="Equipment" v:invis="false"
						v:ask="false" v:langID="1040"/>
				<v:cp v:nameU="AssetNumber" v:lbl="Numero inventario" v:type="0" v:sortKey="Asset" v:invis="false" v:ask="false"
						v:langID="1040"/>
				<v:cp v:nameU="SerialNumber" v:lbl="Numero di serie" v:type="0" v:sortKey="Asset" v:invis="false" v:ask="false"
						v:langID="1040"/>
				<v:cp v:nameU="Location" v:lbl="Posizione" v:type="0" v:sortKey="Asset" v:invis="false" v:ask="false"
						v:langID="1040"/>
				<v:cp v:nameU="Building" v:lbl="Edificio" v:type="0" v:sortKey="Asset" v:invis="false" v:ask="false"
						v:langID="1040"/>
				<v:cp v:nameU="Room" v:lbl="Stanza" v:type="0" v:sortKey="Asset" v:invis="false" v:ask="false" v:langID="1040"/>
				<v:cp v:nameU="NetworkName" v:lbl="Nome rete" v:type="0" v:sortKey="Network" v:invis="false" v:ask="false"
						v:langID="1040"/>
				<v:cp v:nameU="IPAddress" v:lbl="Indirizzo IP" v:type="0" v:sortKey="Network" v:invis="false" v:ask="false"
						v:langID="1040"/>
				<v:cp v:nameU="SubnetMask" v:lbl="Subnet mask" v:type="0" v:sortKey="Network" v:invis="false" v:ask="false"
						v:langID="1040"/>
				<v:cp v:nameU="AdminInterface" v:lbl="Interfaccia amministrativa" v:type="0" v:sortKey="Network" v:invis="false"
						v:ask="false" v:langID="1040"/>
				<v:cp v:nameU="NumberofPorts" v:lbl="Numero di porte" v:type="0" v:sortKey="Network" v:invis="false" v:ask="false"
						v:langID="1040"/>
				<v:cp v:nameU="MACAddress" v:lbl="Indirizzo MAC" v:type="0" v:sortKey="Network" v:invis="false" v:ask="false"
						v:langID="1040"/>
				<v:cp v:nameU="CommunityString" v:lbl="Stringa comunità" v:type="0" v:sortKey="Network" v:invis="false"
						v:ask="false" v:langID="1040"/>
				<v:cp v:nameU="NetworkDescription" v:lbl="Descrizione rete" v:type="0" v:sortKey="Network" v:invis="false"
						v:ask="false" v:langID="1040"/>
				<v:cp v:nameU="HardDriveSize" v:lbl="Capacità disco rigido" v:type="0" v:sortKey="Workstation" v:invis="false"
						v:ask="false" v:langID="1040"/>
				<v:cp v:nameU="CPU" v:lbl="CPU" v:type="0" v:sortKey="Workstation" v:invis="false" v:ask="false" v:langID="1040"/>
				<v:cp v:nameU="Memory" v:lbl="Memoria" v:type="0" v:sortKey="Workstation" v:invis="false" v:ask="false"
						v:langID="1040"/>
				<v:cp v:nameU="OperatingSystem" v:lbl="Sistema operativo" v:type="0" v:sortKey="Workstation" v:invis="false"
						v:ask="false" v:langID="1040"/>
			</v:custProps>
			<v:userDefs>
				<v:ud v:nameU="HasText" v:val="VT0(0):5"/>
				<v:ud v:nameU="ShapeClass" v:val="VT0(5):26"/>
				<v:ud v:nameU="ShapeType" v:val="VT0(6):26"/>
				<v:ud v:nameU="SubShapeType" v:val="VT0(37):26"/>
				<v:ud v:nameU="SolSH" v:val="VT14({BF0433D9-CD73-4EB5-8390-8653BE590246}):41"/>
				<v:ud v:nameU="visLegendShape" v:val="VT0(2):26"/>
				<v:ud v:nameU="visVersion" v:prompt="" v:val="VT0(12):26"/>
			</v:userDefs>
			<title>Computer portatile</title>
			<g id="shape59-33" v:mID="59" v:groupContext="shape">
				<title>Foglio.59</title>
				<path d="M70.87 229.76 L59.84 222.21 L34.54 208.8 L31.42 208.8 L31.39 208.92 L22.82 237.84 L0 251.02 L0 255.98 A85.44
							 84.1403 -90.05 0 0 36.48 277.24 L60.94 263.06 L70.87 229.76 Z" class="st8"/>
			</g>
			<g id="shape60-35" v:mID="60" v:groupContext="shape" transform="translate(36.4751,0)">
				<title>Foglio.60</title>
				<path d="M0.02 271.92 L26.24 256.69 L24.47 263.06 L0 277.24 L0.02 271.92 Z" class="st9"/>
			</g>
			<g id="shape61-41" v:mID="61" v:groupContext="shape" transform="translate(59.1434,-18.4489)">
				<title>Foglio.61</title>
				<path d="M0 277.24 L8.6 248.21 L11.72 248.21 L3.57 275.13 L0 277.24 Z" class="st9"/>
			</g>
			<g id="shape62-44" v:mID="62" v:groupContext="shape" transform="translate(31.3228,-47.4803)">
				<title>Foglio.62</title>
				<path d="M0 256.4 L3.22 256.28 L28.52 269.69 L39.54 277.24 L36.43 277.24 A1571.06 1547.16 87.95 0 1 0 256.4 Z"
						class="st10"/>
			</g>
			<g id="shape63-48" v:mID="63" v:groupContext="shape" transform="translate(0,-5.31496)">
				<title>Foglio.63</title>
				<path d="M0 256.33 L22.82 243.15 L59.14 264.1 L36.5 277.24 A102.944 101.378 89.17 0 1 0 256.33 Z" class="st10"/>
			</g>
			<g id="shape64-51" v:mID="64" v:groupContext="shape" transform="translate(22.8189,-18.4489)">
				<title>Foglio.64</title>
				<path d="M36.32 277.24 A4962.32 4886.83 -91.15 0 0 0 256.28 L8.6 227.25 L44.93 248.21 L36.32 277.24 Z" class="st11"/>
			</g>
			<g id="shape65-56" v:mID="65" v:groupContext="shape">
				<title>Foglio.65</title>
				<path d="M-0 255.98 A85.44 84.1403 -90.05 0 0 36.48 277.24 L36.5 271.92 A85.6626 84.3595 88.88 0 1 0 251.02 L0 255.98
							 Z" class="st11"/>
			</g>
			<g id="shape66-59" v:mID="66" v:groupContext="shape" transform="translate(25.5118,-21.437)">
				<title>Foglio.66</title>
				<path d="M7.51 233.65 L0 258.74 L32.17 277.24" class="st12"/>
			</g>
			<g id="shape67-62" v:mID="67" v:groupContext="shape" transform="translate(54.2126,-1.27559) scale(-1,1)">
				<title>Foglio.67</title>
				<path d="M0 265.05 L15.66 274.12 L15.66 277.24" class="st5"/>
			</g>
			<g id="shape68-65" v:mID="68" v:groupContext="shape" transform="translate(26.5039,-21.437)">
				<title>Foglio.68</title>
				<path d="M0 258.46 L7.23 234.08 L6.52 233.65 A1396.8 1375.55 89.01 0 1 38.55 252.15 L31.18 277.24 L31.32 276.53 A1231.81
							 1213.07 88.95 0 1 -0 258.46 Z" class="st13"/>
			</g>
			<g id="group69-73" transform="translate(5.13165,-7.56695)" v:mID="69" v:groupContext="group">
				<title>Foglio.69</title>
				<g id="shape70-74" v:mID="70" v:groupContext="shape" transform="translate(0,-0.708661)">
					<title>Foglio.70</title>
					<path d="M0 258.33 L3.27 260.22 L6.35 258.44 L3.08 256.55 L0 258.33 Z M4.62 255.66 L7.89 257.55 L10.98 255.78
								 L7.7 253.88 L4.62 255.66 Z M9.24 253 L12.52 254.89 L15.6 253.11 L12.32 251.22 L9.24 253 Z M13.86
								 250.33 L17.14 252.22 L20.22 250.44 L16.94 248.55 L13.86 250.33 Z M18.77 253.16 L22.05 255.05 L25.13
								 253.28 L21.85 251.39 L18.77 253.16 Z M23.68 256 L26.96 257.89 L30.04 256.11 L26.77 254.22 L23.68
								 256 Z M28.6 258.84 L31.87 260.73 L34.95 258.95 L31.68 257.06 L28.6 258.84 Z M38.42 264.51 L41.7
								 266.4 L44.78 264.62 L41.5 262.73 L38.42 264.51 Z M43.33 267.34 L46.61 269.23 L49.69 267.46 L46.41
								 265.57 L43.33 267.34 Z M38.71 270.01 L41.99 271.9 L45.07 270.12 L41.79 268.23 L38.71 270.01 Z M33.8
								 267.18 L37.08 269.07 L40.16 267.29 L36.88 265.4 L33.8 267.18 Z M33.51 261.67 L36.78 263.56 L39.86
								 261.78 L36.59 259.89 L33.51 261.67 Z M28.89 264.34 L32.16 266.23 L35.24 264.45 L31.97 262.56 L28.89
								 264.34 Z M23.98 261.5 L27.25 263.39 L30.33 261.62 L27.06 259.72 L23.98 261.5 Z M19.06 258.67 L22.34
								 260.56 L25.42 258.78 L22.14 256.89 L19.06 258.67 Z M14.15 255.83 L17.43 257.72 L20.51 255.94 L17.23
								 254.05 L14.15 255.83 Z M9.53 258.5 L12.81 260.39 L15.89 258.61 L12.61 256.72 L9.53 258.5 Z M14.44
								 261.33 L17.72 263.23 L20.8 261.45 L17.52 259.56 L14.44 261.33 Z M19.36 264.17 L22.63 266.06 L25.71
								 264.28 L22.44 262.39 L19.36 264.17 Z M24.27 267.01 L27.54 268.9 L30.62 267.12 L27.35 265.23 L24.27
								 267.01 Z M29.18 269.84 L32.46 271.73 L35.54 269.96 L32.26 268.06 L29.18 269.84 Z M34.09 272.68 L37.37
								 274.57 L40.45 272.79 L37.17 270.9 L34.09 272.68 Z M29.47 275.35 L32.75 277.24 L35.83 275.46 L32.55
								 273.57 L29.47 275.35 Z M24.56 272.51 L27.84 274.4 L30.92 272.62 L27.64 270.73 L24.56 272.51 Z M9.82
								 264 L22.92 271.56 L26 269.79 L12.9 262.22 L9.82 264 Z M4.91 261.17 L8.19 263.06 L11.27 261.28 L7.99
								 259.39 L4.91 261.17 Z" class="st14"/>
				</g>
				<g id="shape71-76" v:mID="71" v:groupContext="shape">
					<title>Foglio.71</title>
					<path d="M13.86 250.33 L17.14 252.22 L17.14 251.51 L13.86 249.62 L13.86 250.33 Z M18.77 253.16 L22.05 255.05
								 L22.05 254.35 L18.77 252.46 L18.77 253.16 Z M23.68 256 L26.96 257.89 L26.96 257.18 L23.68 255.29
								 L23.68 256 Z M28.6 258.84 L31.87 260.73 L31.87 260.02 L28.6 258.13 L28.6 258.84 Z M33.51 261.67
								 L36.78 263.56 L36.78 262.85 L33.51 260.96 L33.51 261.67 Z M38.42 264.51 L41.7 266.4 L41.7 265.69
								 L38.42 263.8 L38.42 264.51 Z M17.14 251.51 L17.14 252.22 L20.22 250.44 L20.22 249.73 L17.14 251.51
								 Z M22.05 254.35 L22.05 255.05 L25.13 253.28 L25.13 252.57 L22.05 254.35 Z M26.96 257.18 L26.96 257.89
								 L30.04 256.11 L30.04 255.4 L26.96 257.18 Z M31.87 260.02 L31.87 260.73 L34.95 258.95 L34.95 258.24
								 L31.87 260.02 Z M36.78 262.85 L36.78 263.56 L39.86 261.78 L39.86 261.08 L36.78 262.85 Z M41.7 265.69
								 L41.7 266.4 L44.78 264.62 L44.78 263.91 L41.7 265.69 Z M43.33 267.34 L46.61 269.23 L46.61 268.53
								 L43.33 266.63 L43.33 267.34 Z M46.61 268.53 L46.61 269.23 L49.69 267.46 L49.69 266.75 L46.61 268.53
								 Z M9.24 253 L12.52 254.89 L12.52 254.18 L9.24 252.29 L9.24 253 Z M14.15 255.83 L17.43 257.72 L17.43
								 257.01 L14.15 255.12 L14.15 255.83 Z M19.06 258.67 L22.34 260.56 L22.34 259.85 L19.06 257.96 L19.06
								 258.67 Z M23.98 261.5 L27.25 263.39 L27.25 262.69 L23.98 260.79 L23.98 261.5 Z M28.89 264.34 L32.16
								 266.23 L32.16 265.52 L28.89 263.63 L28.89 264.34 Z M33.8 267.18 L37.08 269.07 L37.08 268.36 L33.8
								 266.47 L33.8 267.18 Z M12.52 254.18 L12.52 254.89 L15.6 253.11 L15.6 252.4 L12.52 254.18 Z M17.43
								 257.01 L17.43 257.72 L20.51 255.94 L20.51 255.23 L17.43 257.01 Z M22.34 259.85 L22.34 260.56 L25.42
								 258.78 L25.42 258.07 L22.34 259.85 Z M27.25 262.69 L27.25 263.39 L30.33 261.62 L30.33 260.91 L27.25
								 262.69 Z M32.16 265.52 L32.16 266.23 L35.24 264.45 L35.24 263.74 L32.16 265.52 Z M37.08 268.36 L37.08
								 269.07 L40.16 267.29 L40.16 266.58 L37.08 268.36 Z M38.71 270.01 L41.99 271.9 L41.99 271.19 L38.71
								 269.3 L38.71 270.01 Z M41.99 271.19 L41.99 271.9 L45.07 270.12 L45.07 269.41 L41.99 271.19 Z M4.62
								 255.66 L7.89 257.55 L7.89 256.84 L4.62 254.95 L4.62 255.66 Z M9.53 258.5 L12.81 260.39 L12.81 259.68
								 L9.53 257.79 L9.53 258.5 Z M14.44 261.33 L17.72 263.23 L17.72 262.52 L14.44 260.63 L14.44 261.33
								 Z M19.36 264.17 L22.63 266.06 L22.63 265.35 L19.36 263.46 L19.36 264.17 Z M24.27 267.01 L27.54 268.9
								 L27.54 268.19 L24.27 266.3 L24.27 267.01 Z M29.18 269.84 L32.46 271.73 L32.46 271.02 L29.18 269.13
								 L29.18 269.84 Z M7.89 256.84 L7.89 257.55 L10.98 255.78 L10.98 255.07 L7.89 256.84 Z M12.81 259.68
								 L12.81 260.39 L15.89 258.61 L15.89 257.9 L12.81 259.68 Z M17.72 262.52 L17.72 263.23 L20.8 261.45
								 L20.8 260.74 L17.72 262.52 Z M22.63 265.35 L22.63 266.06 L25.71 264.28 L25.71 263.57 L22.63 265.35
								 Z M27.54 268.19 L27.54 268.9 L30.62 267.12 L30.62 266.41 L27.54 268.19 Z M32.46 271.02 L32.46 271.73
								 L35.54 269.96 L35.54 269.25 L32.46 271.02 Z M34.09 272.68 L37.37 274.57 L37.37 273.86 L34.09 271.97
								 L34.09 272.68 Z M37.37 273.86 L37.37 274.57 L40.45 272.79 L40.45 272.08 L37.37 273.86 Z M0 258.33
								 L3.27 260.22 L3.27 259.51 L0 257.62 L0 258.33 Z M4.91 261.17 L8.19 263.06 L8.19 262.35 L4.91 260.46
								 L4.91 261.17 Z M9.82 264 L22.92 271.56 L22.92 270.86 L9.82 263.29 L9.82 264 Z M24.56 272.51 L27.84
								 274.4 L27.84 273.69 L24.56 271.8 L24.56 272.51 Z M3.27 259.51 L3.27 260.22 L6.35 258.44 L6.35 257.73
								 L3.27 259.51 Z M8.19 262.35 L8.19 263.06 L11.27 261.28 L11.27 260.57 L8.19 262.35 Z M22.92 270.86
								 L22.92 271.56 L26 269.79 L26 269.08 L22.92 270.86 Z M27.84 273.69 L27.84 274.4 L30.92 272.62 L30.92
								 271.91 L27.84 273.69 Z M29.47 275.35 L32.75 277.24 L32.75 276.53 L29.47 274.64 L29.47 275.35 Z M32.75
								 276.53 L32.75 277.24 L35.83 275.46 L35.83 274.75 L32.75 276.53 Z" class="st15"/>
				</g>
			</g>
			<g id="shape72-78" v:mID="72" v:groupContext="shape">
				<title>Foglio.72</title>
				<path d="M36.48 277.24 L60.94 263.06 L70.87 229.76 L34.54 208.8 L31.42 208.8 L22.82 237.84 L0 251.02 L0 255.98 A86.9113
							 85.5892 -90.05 0 0 36.48 277.24 Z" class="st16"/>
			</g>
		</g>
		<g id="group49-80" transform="translate(383.397,-128.279) scale(-1,1)" v:mID="49" v:groupContext="group">
			<v:custProps>
				<v:cp v:nameU="Manufacturer" v:lbl="Produttore" v:type="0" v:sortKey="Equipment" v:invis="false" v:ask="false"
						v:langID="1040"/>
				<v:cp v:nameU="ProductNumber" v:lbl="Numero prodotto" v:type="0" v:sortKey="Equipment" v:invis="false"
						v:ask="false" v:langID="1040"/>
				<v:cp v:nameU="PartNumber" v:lbl="Numero parte" v:type="0" v:sortKey="Equipment" v:invis="false" v:ask="false"
						v:langID="1040"/>
				<v:cp v:nameU="ProductDescription" v:lbl="Descrizione prodotto" v:type="0" v:sortKey="Equipment" v:invis="false"
						v:ask="false" v:langID="1040"/>
				<v:cp v:nameU="AssetNumber" v:lbl="Numero inventario" v:type="0" v:sortKey="Asset" v:invis="false" v:ask="false"
						v:langID="1040"/>
				<v:cp v:nameU="SerialNumber" v:lbl="Numero di serie" v:type="0" v:sortKey="Asset" v:invis="false" v:ask="false"
						v:langID="1040"/>
				<v:cp v:nameU="Location" v:lbl="Posizione" v:type="0" v:sortKey="Asset" v:invis="false" v:ask="false"
						v:langID="1040"/>
				<v:cp v:nameU="Building" v:lbl="Edificio" v:type="0" v:sortKey="Asset" v:invis="false" v:ask="false"
						v:langID="1040"/>
				<v:cp v:nameU="Room" v:lbl="Stanza" v:type="0" v:sortKey="Asset" v:invis="false" v:ask="false" v:langID="1040"/>
				<v:cp v:nameU="Department" v:lbl="Reparto" v:type="0" v:invis="false" v:ask="false" v:langID="1040"/>
				<v:cp v:nameU="NetworkName" v:lbl="Nome rete" v:type="0" v:sortKey="Network" v:invis="false" v:ask="false"
						v:langID="1040"/>
				<v:cp v:nameU="IPAddress" v:lbl="Indirizzo IP" v:type="0" v:sortKey="Network" v:invis="false" v:ask="false"
						v:langID="1040"/>
				<v:cp v:nameU="SubnetMask" v:lbl="Subnet mask" v:type="0" v:sortKey="Network" v:invis="false" v:ask="false"
						v:langID="1040"/>
				<v:cp v:nameU="AdminInterface" v:lbl="Interfaccia amministrativa" v:type="0" v:sortKey="Network" v:invis="false"
						v:ask="false" v:langID="1040"/>
				<v:cp v:nameU="NumberofPorts" v:lbl="Numero di porte" v:type="0" v:sortKey="Network" v:invis="false" v:ask="false"
						v:langID="1040"/>
				<v:cp v:nameU="CommunityString" v:lbl="Stringa comunità" v:type="0" v:sortKey="Network" v:invis="false"
						v:ask="false" v:langID="1040"/>
				<v:cp v:nameU="NetworkDescription" v:lbl="Descrizione rete" v:type="0" v:sortKey="Network" v:invis="false"
						v:ask="false" v:langID="1040"/>
				<v:cp v:nameU="CPU" v:lbl="CPU" v:type="0" v:sortKey="Workstation" v:invis="false" v:ask="false" v:langID="1040"/>
				<v:cp v:nameU="Memory" v:lbl="Memoria" v:type="0" v:sortKey="Workstation" v:invis="false" v:ask="false"
						v:langID="1040"/>
				<v:cp v:nameU="OperatingSystem" v:lbl="Sistema operativo" v:type="0" v:sortKey="Workstation" v:invis="false"
						v:ask="false" v:langID="1040"/>
				<v:cp v:nameU="BelongsTo" v:lbl="Appartiene a" v:type="0" v:invis="true" v:ask="false" v:langID="1040"/>
				<v:cp v:nameU="ShapeClass" v:lbl="ShapeClass" v:type="0" v:invis="true" v:ask="false" v:langID="1040"
						v:val="VT4(Equipment)"/>
				<v:cp v:nameU="ShapeType" v:lbl="ShapeType" v:type="0" v:invis="true" v:ask="false" v:langID="1040"
						v:val="VT4(Server)"/>
				<v:cp v:nameU="MACAddress" v:lbl="Indirizzo MAC" v:type="0" v:sortKey="Network" v:invis="false" v:ask="false"
						v:langID="1040"/>
				<v:cp v:nameU="HardDriveSize" v:lbl="Capacità disco rigido" v:type="0" v:sortKey="Workstation" v:invis="false"
						v:ask="false" v:langID="1040"/>
			</v:custProps>
			<v:userDefs>
				<v:ud v:nameU="HasText" v:val="VT0(0):5"/>
				<v:ud v:nameU="ShapeClass" v:val="VT0(5):26"/>
				<v:ud v:nameU="ShapeType" v:val="VT0(24):26"/>
				<v:ud v:nameU="SolSH" v:val="VT14({BF0433D9-CD73-4EB5-8390-8653BE590246}):41"/>
				<v:ud v:nameU="visLegendShape" v:val="VT0(2):26"/>
				<v:ud v:nameU="visVersion" v:prompt="" v:val="VT0(12):26"/>
			</v:userDefs>
			<title>Server</title>
			<g id="shape50-81" v:mID="50" v:groupContext="shape">
				<title>Foglio.50</title>
				<path d="M74.49 189.12 L45.84 173.77 L0 198.75 L0.02 262.89 A48.2339 45.044 -180 0 0 28.29 277.24 L74.49 252.26 L74.49
							 189.12 Z M12.72 208.74 A49.7784 46.4864 -180 0 0 28.29 214.27 A49.2224 45.9671 0 0 1 12.72 208.74 Z"
						class="st8"/>
			</g>
			<g id="shape55-83" v:mID="55" v:groupContext="shape" transform="translate(0,-62.969)">
				<title>Foglio.55</title>
				<path d="M28.27 277.24 L74.49 252.08 L45.84 236.74 L0 261.72 A49.7784 46.4864 -180 0 0 28.29 277.24 L28.27 277.24
							 Z" class="st17"/>
				<path d="M28.27 277.24 L74.49 252.08 L45.84 236.74 L0 261.72 A49.7784 46.4864 -180 0 0 28.29 277.24" class="st18"/>
			</g>
			<g id="shape56-88" v:mID="56" v:groupContext="shape" transform="translate(0.0169269,-4.54747E-013)">
				<title>Foglio.56</title>
				<path d="M28.27 214.27 A49.2224 45.9671 0 0 1 0 198.68 L0 262.89 A48.2339 45.044 -180 0 0 28.27 277.24 L28.25 214.27
							 L28.27 214.27 Z" class="st19"/>
				<path d="M28.27 214.27 A49.2224 45.9671 0 0 1 0 198.68 L0 262.89 A48.2339 45.044 -180 0 0 28.27 277.24 L28.25 214.27"
						class="st20"/>
			</g>
			<g id="shape57-95" v:mID="57" v:groupContext="shape" transform="translate(28.2697,-0.0711688)">
				<title>Foglio.57</title>
				<path d="M0 214.34 L0 277.24 L46.22 252.33 L46.22 189.19 L0 214.34 Z" class="st21"/>
			</g>
			<g id="shape73-101" v:mID="73" v:groupContext="shape" transform="translate(0,-0.00228072)">
				<title>Foglio.73</title>
				<path d="M74.49 189.12 L45.84 173.77 L0 198.75 L0.02 262.89 A48.2339 45.044 -180 0 0 28.29 277.24 L74.49 252.26 L74.49
							 189.12" class="st22"/>
			</g>
			<g id="shape74-104" v:mID="74" v:groupContext="shape" transform="translate(-82.8377,-16.5411) rotate(-20)">
				<title>Foglio.74</title>
				<ellipse cx="2.16386" cy="274.29" rx="2.16386" ry="2.94651" class="st23"/>
			</g>
			<g id="shape75-110" v:mID="75" v:groupContext="shape" transform="translate(4.58428,-9.09963)">
				<title>Foglio.75</title>
				<path d="M0 259.76 A55.2179 50.4322 -96.44 0 0 19.1 269.57" class="st24"/>
				<path d="M0 263.59 A55.2179 50.4322 -96.44 0 0 19.1 273.4" class="st24"/>
				<path d="M0 267.43 A55.2179 50.4322 -96.44 0 0 19.1 277.24" class="st24"/>
			</g>
			<g id="group76-117" transform="translate(3.82023,-44.5971)" v:mID="76" v:groupContext="group">
				<title>Foglio.76</title>
				<g id="shape77-118" v:mID="77" v:groupContext="shape" transform="translate(0,-10.3216)">
					<title>Foglio.77</title>
					<path d="M0.68 267.43 A48.1773 44.9911 -180 0 0 19.78 277.24 a0.978934 0.914194 -180 0 0 -3.55271E-015 -1.78379
								 A46.8665 43.767 0 0 1 1.06 265.93 a0.634205 0.592263 -180 0 0 -1.0588 0.503493 A1.38222 1.29081
								 -180 0 0 0.68 267.43 Z" class="st25"/>
				</g>
				<g id="shape78-120" v:mID="78" v:groupContext="shape" transform="translate(6.07479,-12.5701)">
					<title>Foglio.78</title>
					<path d="M5.88 277.16 A7.15851 4.35782 -90.9 0 0 0.15 274.31 A4.70994 2.34822 -180 0 0 5.88 277.16 Z"
							class="st26"/>
				</g>
				<g id="shape79-125" v:mID="79" v:groupContext="shape" transform="translate(0.764046,-0.0891897)">
					<title>Foglio.79</title>
					<path d="M0 262.43 L0 267.43 A51.8241 48.3969 -180 0 0 19.1 277.24 L19.1 272.24 A53.5202 49.9808 0 0 1 0 262.43
								 Z" class="st27"/>
				</g>
				<g id="shape80-133" v:mID="80" v:groupContext="shape" transform="translate(0.764046,-2.85407)">
					<title>Foglio.80</title>
					<path d="M-0 267.43 A46.9067 43.8046 -180 0 0 19.1 277.24 L19.1 275.99 A51.845 48.4163 0 0 1 -0 266.18 L0 267.43
								 Z" class="st28"/>
				</g>
				<g id="shape81-135" v:mID="81" v:groupContext="shape" transform="translate(0.764046,-0.178379)">
					<title>Foglio.81</title>
					<path d="M0 262.43 L0 267.43 A51.8241 48.3969 -180 0 0 19.1 277.24" class="st18"/>
				</g>
				<g id="shape82-138" v:mID="82" v:groupContext="shape" transform="translate(0.764046,1.13687E-013)">
					<title>Foglio.82</title>
					<path d="M19.1 277.24 L19.1 272.24 A53.5202 49.9808 0 0 1 0 262.43" class="st29"/>
				</g>
			</g>
		</g>
		<g id="shape83-142" v:mID="83" v:groupContext="shape" transform="translate(89.6516,-264.342)">
			<title>Foglio.83</title>
			<ellipse cx="5.69203" cy="271.403" rx="5.69203" ry="5.83433" class="st30"/>
		</g>
		<g id="shape84-144" v:mID="84" v:groupContext="shape" transform="translate(88.594,-264.672)">
			<title>Foglio.84</title>
			<desc>1</desc>
			<v:textBlock v:margins="rect(4,4,4,4)"/>
			<v:textRect cx="4.49727" cy="272.74" width="9" height="8.99455"/>
			<rect x="0" y="268.242" width="8.99455" height="8.99455" class="st3"/>
			<text x="4" y="275.14" class="st31" v:langID="1040"><v:paragraph v:spBefore="5" v:spAfter="5" v:bulletSize="0.166667"/><v:tabList/>1</text>		</g>
		<g id="shape85-147" v:mID="85" v:groupContext="shape" transform="translate(282.722,-223.656)">
			<title>Foglio.85</title>
			<ellipse cx="5.69203" cy="271.403" rx="5.69203" ry="5.83433" class="st30"/>
		</g>
		<g id="shape86-149" v:mID="86" v:groupContext="shape" transform="translate(281.664,-223.986)">
			<title>Foglio.86</title>
			<desc>2</desc>
			<v:textBlock v:margins="rect(4,4,4,4)"/>
			<v:textRect cx="4.49727" cy="272.74" width="9" height="8.99455"/>
			<rect x="0" y="268.242" width="8.99455" height="8.99455" class="st3"/>
			<text x="4" y="275.14" class="st31" v:langID="1040"><v:paragraph v:spBefore="5" v:spAfter="5" v:bulletSize="0.166667"/><v:tabList/>2</text>		</g>
		<g id="shape1-152" v:mID="1" v:groupContext="shape" transform="translate(145.287,-222.985)">
			<title>Foglio.1</title>
			<desc>Redirected to login page</desc>
			<v:textBlock v:margins="rect(4,4,4,4)" v:tabSpace="42.5197"/>
			<v:textRect cx="48.189" cy="270.731" width="96.38" height="13.011"/>
			<rect x="0" y="264.226" width="96.378" height="13.011" class="st3"/>
			<text x="4.83" y="273.13" class="st4" v:langID="1040"><v:paragraph v:horizAlign="1"/><v:tabList/>Redirected to login page</text>		</g>
		<g id="shape5-155" v:mID="5" v:groupContext="shape" transform="translate(119.775,-70.4523) scale(-1,1)">
			<title>Foglio.5</title>
			<path d="M0 277.24 L34.02 277.24" class="st5"/>
		</g>
		<g id="shape6-158" v:mID="6" v:groupContext="shape" transform="translate(-181.84,203.95) rotate(-90) scale(-1,1)">
			<title>Foglio.6</title>
			<path d="M5.67 277.24 L0 277.24 L2.83 267.6 L5.67 277.24 Z" class="st7"/>
		</g>
		<g id="shape7-160" v:mID="7" v:groupContext="shape" transform="translate(324.437,-70.4766) scale(-1,1)">
			<title>Foglio.7</title>
			<path d="M0 277.24 L30.33 277.24" class="st5"/>
		</g>
		<g id="shape9-163" v:mID="9" v:groupContext="shape" transform="translate(298.358,-112.107) scale(-1,1)">
			<title>Foglio.9</title>
			<path d="M0 277.24 L110.55 277.24" class="st5"/>
		</g>
		<g id="shape10-166" v:mID="10" v:groupContext="shape" transform="translate(571.626,162.295) rotate(90)">
			<title>Foglio.10</title>
			<path d="M5.67 277.24 L0 277.24 L2.83 267.6 L5.67 277.24 Z" class="st7"/>
		</g>
		<g id="shape11-168" v:mID="11" v:groupContext="shape" transform="translate(85.7594,-112.107)">
			<title>Foglio.11</title>
			<path d="M0 277.24 L20.55 277.24" class="st5"/>
		</g>
		<g id="shape12-171" v:mID="12" v:groupContext="shape" transform="translate(89.6516,-106.438)">
			<title>Foglio.12</title>
			<ellipse cx="5.69203" cy="271.403" rx="5.69203" ry="5.83433" class="st30"/>
		</g>
		<g id="shape13-173" v:mID="13" v:groupContext="shape" transform="translate(88.594,-106.768)">
			<title>Foglio.13</title>
			<desc>3</desc>
			<v:textBlock v:margins="rect(4,4,4,4)"/>
			<v:textRect cx="4.49727" cy="272.74" width="9" height="8.99455"/>
			<rect x="0" y="268.242" width="8.99455" height="8.99455" class="st3"/>
			<text x="4" y="275.14" class="st31" v:langID="1040"><v:paragraph v:spBefore="5" v:spAfter="5" v:bulletSize="0.166667"/><v:tabList/>3</text>		</g>
		<g id="shape16-176" v:mID="16" v:groupContext="shape" transform="translate(112.689,-63.9468)">
			<title>Foglio.16</title>
			<desc>Redirected to source</desc>
			<v:textBlock v:margins="rect(4,4,4,4)" v:tabSpace="42.5197"/>
			<v:textRect cx="47.4803" cy="270.731" width="94.97" height="13.011"/>
			<rect x="0" y="264.226" width="94.9606" height="13.011" class="st3"/>
			<text x="10.57" y="273.13" class="st4" v:langID="1040"><v:paragraph v:horizAlign="1"/><v:tabList/>Redirected to source</text>		</g>
		<g id="shape17-179" v:mID="17" v:groupContext="shape" transform="translate(103.618,-105.602)">
			<title>Foglio.17</title>
			<desc>Form submitted</desc>
			<v:textBlock v:margins="rect(4,4,4,4)" v:tabSpace="42.5197"/>
			<v:textRect cx="33.5906" cy="270.731" width="67.19" height="13.011"/>
			<rect x="0" y="264.226" width="67.1811" height="13.011" class="st3"/>
			<text x="5.81" y="273.13" class="st4" v:langID="1040"><v:paragraph v:horizAlign="1"/><v:tabList/>Form submitted</text>		</g>
		<g id="shape87-182" v:mID="87" v:groupContext="shape" transform="translate(-225.493,28.4854) rotate(-90)">
			<title>Foglio.87</title>
			<path d="M0 277.24 L21.26 277.24" class="st5"/>
		</g>
		<g id="shape88-185" v:mID="88" v:groupContext="shape" transform="translate(620.949,27.068) rotate(90) scale(-1,1)">
			<title>Foglio.88</title>
			<path d="M0 277.24 L19.84 277.24" class="st5"/>
		</g>
		<g id="shape89-188" v:mID="89" v:groupContext="shape" transform="translate(102.767,-216.862)">
			<title>Foglio.89</title>
			<rect x="0" y="249.599" width="34.0157" height="27.6378" class="st2"/>
		</g>
		<g id="shape90-190" v:mID="90" v:groupContext="shape" transform="translate(102.767,-219.838)">
			<title>Foglio.90</title>
			<desc>Login Page</desc>
			<v:textBlock v:margins="rect(4,4,4,4)" v:tabSpace="42.5197"/>
			<v:textRect cx="14.1732" cy="264.481" width="28.35" height="25.5118"/>
			<rect x="0" y="251.725" width="28.3465" height="25.5118" class="st3"/>
			<text x="4.39" y="262.08" class="st4" v:langID="1040"><v:paragraph v:horizAlign="1"/><v:tabList/>Login <tspan x="4.83"
						dy="1.2em" class="st32">Page</tspan></text>		</g>
		<g id="shape91-194" v:mID="91" v:groupContext="shape" transform="translate(105.602,-9.4011)">
			<title>Foglio.91</title>
			<rect x="0" y="249.599" width="34.0157" height="27.6378" class="st2"/>
		</g>
		<g id="shape92-196" v:mID="92" v:groupContext="shape" transform="translate(105.602,-11.7751)">
			<title>Foglio.92</title>
			<desc>Error Page</desc>
			<v:textBlock v:margins="rect(4,4,4,4)" v:tabSpace="42.5197"/>
			<v:textRect cx="14.1732" cy="264.481" width="28.35" height="25.5118"/>
			<rect x="0" y="251.725" width="28.3465" height="25.5118" class="st3"/>
			<text x="5.28" y="262.08" class="st4" v:langID="1040"><v:paragraph v:horizAlign="1"/><v:tabList/>Error <tspan x="4.83"
						dy="1.2em" class="st32">Page</tspan></text>		</g>
		<g id="shape93-200" v:mID="93" v:groupContext="shape" transform="translate(51.7436,531.254) scale(1,-1)">
			<title>Foglio.93</title>
			<path d="M0 277.24 L53.86 277.24" class="st5"/>
		</g>
		<g id="shape94-203" v:mID="94" v:groupContext="shape" transform="translate(48.909,-33.4247)">
			<title>Foglio.94</title>
			<path d="M5.67 277.24 L0 277.24 L2.83 267.6 L5.67 277.24 Z" class="st7"/>
		</g>
		<g id="shape95-205" v:mID="95" v:groupContext="shape" transform="translate(-225.493,234.174) rotate(-90) scale(-1,1)">
			<title>Foglio.95</title>
			<path d="M0 277.24 L19.84 277.24" class="st5"/>
		</g>
		<g id="shape96-208" v:mID="96" v:groupContext="shape" transform="translate(173.633,-22.3838) scale(-1,1)">
			<title>Foglio.96</title>
			<path d="M0 277.24 L34.02 277.24" class="st5"/>
		</g>
		<g id="shape97-211" v:mID="97" v:groupContext="shape" transform="translate(-127.981,252.018) rotate(-90) scale(-1,1)">
			<title>Foglio.97</title>
			<path d="M5.67 277.24 L0 277.24 L2.83 267.6 L5.67 277.24 Z" class="st7"/>
		</g>
		<g id="shape98-213" v:mID="98" v:groupContext="shape" transform="translate(170.799,-15.8783)">
			<title>Foglio.98</title>
			<desc>Error page returned</desc>
			<v:textBlock v:margins="rect(4,4,4,4)" v:tabSpace="42.5197"/>
			<v:textRect cx="40.3937" cy="270.731" width="80.79" height="13.011"/>
			<rect x="0" y="264.226" width="80.7874" height="13.011" class="st3"/>
			<text x="5.49" y="273.13" class="st4" v:langID="1040"><v:paragraph v:horizAlign="1"/><v:tabList/>Error page returned</text>		</g>
		<g id="shape99-216" v:mID="99" v:groupContext="shape" transform="translate(344.421,531.254) rotate(180)">
			<title>Foglio.99</title>
			<path d="M0 277.24 L65.91 277.24" class="st5"/>
		</g>
		<g id="shape100-219" v:mID="100" v:groupContext="shape" transform="translate(621.658,227.088) rotate(90)">
			<title>Foglio.100</title>
			<path d="M0 277.24 L26.93 277.24" class="st5"/>
		</g>
		<g id="shape101-222" v:mID="101" v:groupContext="shape" transform="translate(326.704,-27.472)">
			<title>Foglio.101</title>
			<desc>Failure</desc>
			<v:textBlock v:margins="rect(4,4,4,4)" v:tabSpace="42.5197"/>
			<v:textRect cx="18.4252" cy="272.276" width="36.86" height="9.92126"/>
			<rect x="0" y="267.316" width="36.8504" height="9.92126" class="st1"/>
			<text x="6.2" y="274.68" class="st4" v:langID="1040"><v:paragraph v:horizAlign="1"/><v:tabList/>Failure</text>		</g>
		<g id="shape102-225" v:mID="102" v:groupContext="shape" transform="translate(520.473,10.7242) rotate(45)">
			<title>Foglio.102</title>
			<rect x="0" y="249.599" width="28.3465" height="27.6378" class="st2"/>
		</g>
		<g id="shape103-227" v:mID="103" v:groupContext="shape" transform="translate(336.626,-65.9169)">
			<title>Foglio.103</title>
			<desc>?</desc>
			<v:textBlock v:margins="rect(4,4,4,4)" v:tabSpace="42.5197"/>
			<v:textRect cx="6.37795" cy="272.276" width="12.76" height="9.92126"/>
			<rect x="0" y="267.316" width="12.7559" height="9.92126" class="st3"/>
			<text x="4" y="274.68" class="st31" v:langID="1040"><v:paragraph v:horizAlign="1"/><v:tabList/>?</text>		</g>
		<g id="shape104-230" v:mID="104" v:groupContext="shape" transform="translate(303.191,-105.602)">
			<title>Foglio.104</title>
			<rect x="0" y="263.064" width="87.874" height="14.1732" class="st33"/>
		</g>
		<g id="shape105-232" v:mID="105" v:groupContext="shape" transform="translate(302.029,-106.183)">
			<title>Foglio.105</title>
			<desc>j_security_check</desc>
			<v:textBlock v:margins="rect(4,4,4,4)" v:tabSpace="42.5197"/>
			<v:textRect cx="36.0142" cy="270.731" width="72.03" height="13.011"/>
			<rect x="0" y="264.226" width="72.0283" height="13.011" class="st3"/>
			<text x="6.45" y="273.13" class="st4" v:langID="1040"><v:paragraph v:horizAlign="1"/><v:tabList/>j_security_check</text>		</g>
		<g id="shape106-235" v:mID="106" v:groupContext="shape" transform="translate(621.24,187.226) rotate(90) scale(-1,1)">
			<title>Foglio.106</title>
			<path d="M0 277.24 L15.59 277.24" class="st5"/>
		</g>
		<g id="shape107-238" v:mID="107" v:groupContext="shape" transform="translate(346.837,454.825) rotate(180)">
			<title>Foglio.107</title>
			<path d="M5.67 277.24 L0 277.24 L2.83 267.6 L5.67 277.24 Z" class="st7"/>
		</g>
		<g id="shape108-240" v:mID="108" v:groupContext="shape" transform="translate(239.822,-63.6775)">
			<title>Foglio.108</title>
			<desc>Success</desc>
			<v:textBlock v:margins="rect(4,4,4,4)" v:tabSpace="42.5197"/>
			<v:textRect cx="23.9669" cy="270.731" width="47.94" height="13.011"/>
			<rect x="0" y="264.226" width="47.9339" height="13.011" class="st3"/>
			<text x="8.85" y="273.13" class="st4" v:langID="1040"><v:paragraph v:horizAlign="1"/><v:tabList/>Success</text>		</g>
		<g id="shape109-243" v:mID="109" v:groupContext="shape" transform="translate(246.484,-70.4766) scale(-1,1)">
			<title>Foglio.109</title>
			<path d="M0 277.24 L21.26 277.24" class="st5"/>
		</g>
		<g id="shape14-246" v:mID="14" v:groupContext="shape" transform="translate(230.533,-64.618)">
			<title>Foglio.14</title>
			<ellipse cx="5.69203" cy="271.403" rx="5.69203" ry="5.83433" class="st30"/>
		</g>
		<g id="shape15-248" v:mID="15" v:groupContext="shape" transform="translate(229.476,-64.948)">
			<title>Foglio.15</title>
			<desc>4</desc>
			<v:textBlock v:margins="rect(4,4,4,4)"/>
			<v:textRect cx="4.49727" cy="272.74" width="9" height="8.99455"/>
			<rect x="0" y="268.242" width="8.99455" height="8.99455" class="st3"/>
			<text x="4" y="275.14" class="st31" v:langID="1040"><v:paragraph v:spBefore="5" v:spAfter="5" v:bulletSize="0.166667"/><v:tabList/>4</text>		</g>
	</g>
</svg>
