<?xml version="1.0" encoding="UTF-8" standalone="no"?>
<!DOCTYPE svg PUBLIC "-//W3C//DTD SVG 1.0//EN" "http://www.w3.org/TR/2001/REC-SVG-20010904/DTD/svg10.dtd">
<!-- Generato da Microsoft Visio 11.0, SVG Export, v1.0 jakartaeett_dt_028.svg Pagina 1 -->
<svg xmlns="http://www.w3.org/2000/svg" xmlns:v="http://schemas.microsoft.com/visio/2003/SVGExtensions/" width="4.78378in"
		height="1.67354in" viewBox="0 0 344.432 120.495" xml:space="preserve" color-interpolation-filters="sRGB" class="st8"
		xmlns:xlink="http://www.w3.org/1999/xlink">
	<v:documentProperties v:langID="1040" v:metric="true" v:viewMarkup="false">
		<v:userDefs>
			<v:ud v:nameU="MBSAAvail" v:prompt="" v:val="VT0(2):26"/>
			<v:ud v:nameU="MBSAAddinEnabled" v:prompt="" v:val="VT0(2):26"/>
			<v:ud v:nameU="MBSAAddinOutlineVisible" v:prompt="" v:val="VT0(1):26"/>
		</v:userDefs>
	</v:documentProperties>

	<style type="text/css">
	<![CDATA[
		.st1 {fill:#c8d6e6;stroke:#000000;stroke-linecap:round;stroke-linejoin:round;stroke-width:0.72}
		.st2 {fill:#ffffff;stroke:none;stroke-linecap:round;stroke-linejoin:round;stroke-width:0.72}
		.st3 {fill:none;stroke:none;stroke-linecap:round;stroke-linejoin:round;stroke-width:0.72}
		.st4 {fill:#000000;font-family:Arial;font-size:0.666664em}
		.st5 {fill:#000000;stroke:#000000;stroke-linecap:round;stroke-linejoin:round;stroke-width:0.72}
		.st6 {stroke:#000000;stroke-linecap:round;stroke-linejoin:round;stroke-width:0.72}
		.st7 {fill:#f2f2f2;stroke:#000000;stroke-linecap:round;stroke-linejoin:round;stroke-width:0.72}
		.st8 {fill:none;fill-rule:evenodd;font-size:12;overflow:visible;stroke-linecap:square;stroke-miterlimit:3}
	]]>
	</style>

	<g v:mID="0" v:index="1" v:groupContext="foregroundPage">
		<title>Pagina 1</title>
		<v:pageProperties v:drawingScale="0.0393701" v:pageScale="0.0393701" v:drawingUnits="24" v:shadowOffsetX="8.50394"
				v:shadowOffsetY="-8.50394"/>
		<g id="shape46-1" v:mID="46" v:groupContext="shape" transform="translate(132.456,-20.5625) scale(-1,1)">
			<title>Foglio.46</title>
			<rect x="0" y="97.818" width="24.0199" height="22.6772" rx="11.3386" ry="11.3386" class="st1"/>
		</g>
		<g id="shape36-3" v:mID="36" v:groupContext="shape" transform="translate(4.97197,-0.72)">
			<title>Foglio.36</title>
			<rect x="0" y="4.27465" width="331.654" height="116.22" class="st2"/>
		</g>
		<g id="shape35-5" v:mID="35" v:groupContext="shape" transform="translate(111.719,-20.5625)">
			<title>Foglio.35</title>
			<rect x="0" y="97.818" width="71.7613" height="22.6772" rx="11.3386" ry="11.3386" class="st1"/>
		</g>
		<g id="shape9-7" v:mID="9" v:groupContext="shape" transform="translate(0.72,-20.5625)">
			<title>Foglio.9</title>
			<rect x="0" y="97.818" width="46.7717" height="22.6772" class="st1"/>
		</g>
		<g id="shape2-9" v:mID="2" v:groupContext="shape" transform="translate(55.9956,-97.098)">
			<title>Foglio.2</title>
			<desc>Msg</desc>
			<v:textBlock v:margins="rect(4,4,4,4)" v:tabSpace="42.5197"/>
			<v:textRect cx="15.5906" cy="109.157" width="31.19" height="22.6772"/>
			<rect x="0" y="97.818" width="31.1811" height="22.6772" class="st3"/>
			<text x="8.03" y="111.56" class="st4" v:langID="1040"><v:paragraph v:horizAlign="1"/><v:tabList/>Msg</text>		</g>
		<g id="shape45-12" v:mID="45" v:groupContext="shape" transform="translate(181.153,-20.5625) scale(-1,1)">
			<title>Foglio.45</title>
			<rect x="0" y="97.818" width="21.7671" height="22.6772" rx="10.8835" ry="10.8835" class="st1"/>
		</g>
		<g id="shape44-14" v:mID="44" v:groupContext="shape" transform="translate(183.48,-20.5625) scale(-1,1)">
			<title>Foglio.44</title>
			<rect x="0" y="97.818" width="21.2598" height="22.6772" rx="10.6299" ry="10.6299" class="st1"/>
		</g>
		<g id="shape15-16" v:mID="15" v:groupContext="shape" transform="translate(200.563,-97.098)">
			<title>Foglio.15</title>
			<desc>Msg</desc>
			<v:textBlock v:margins="rect(4,4,4,4)" v:tabSpace="42.5197"/>
			<v:textRect cx="15.5906" cy="109.157" width="31.19" height="22.6772"/>
			<rect x="0" y="97.818" width="31.1811" height="22.6772" class="st3"/>
			<text x="8.03" y="111.56" class="st4" v:langID="1040"><v:paragraph v:horizAlign="1"/><v:tabList/>Msg</text>		</g>
		<g id="shape1-19" v:mID="1" v:groupContext="shape" transform="translate(0.72,-20.5625)">
			<title>Foglio.1</title>
			<desc>Client 1</desc>
			<v:textBlock v:margins="rect(4,4,4,4)" v:tabSpace="42.5197"/>
			<v:textRect cx="18.5528" cy="109.157" width="37.11" height="22.6772"/>
			<rect x="0" y="97.818" width="37.1055" height="22.6772" class="st3"/>
			<text x="4.99" y="111.56" class="st4" v:langID="1040"><v:paragraph v:horizAlign="1"/><v:tabList/>Client 1</text>		</g>
		<g id="shape5-22" v:mID="5" v:groupContext="shape" transform="translate(55.7405,-20.5625)">
			<title>Foglio.5</title>
			<desc>Sends</desc>
			<v:textBlock v:margins="rect(4,4,4,4)" v:tabSpace="42.5197"/>
			<v:textRect cx="18.5528" cy="109.157" width="37.11" height="22.6772"/>
			<rect x="0" y="97.818" width="37.1055" height="22.6772" class="st3"/>
			<text x="7.21" y="111.56" class="st4" v:langID="1040"><v:paragraph v:horizAlign="1"/><v:tabList/>Sends</text>		</g>
		<g id="shape6-25" v:mID="6" v:groupContext="shape" transform="translate(222.695,91.4287) rotate(90) scale(-1,1)">
			<title>Foglio.6</title>
			<path d="M5.67 120.5 L0 120.5 L2.83 110.86 L5.67 120.5 Z" class="st5"/>
		</g>
		<g id="shape7-27" v:mID="7" v:groupContext="shape" transform="translate(111.838,-31.9011) scale(-1,1)">
			<title>Foglio.7</title>
			<path d="M0 120.5 L17.57 120.5" class="st6"/>
		</g>
		<g id="shape8-30" v:mID="8" v:groupContext="shape" transform="translate(61.6649,-31.9011) scale(-1,1)">
			<title>Foglio.8</title>
			<path d="M0 120.5 L13.92 120.5" class="st6"/>
		</g>
		<g id="shape10-33" v:mID="10" v:groupContext="shape" transform="translate(125.444,-3.80976)">
			<title>Foglio.10</title>
			<desc>Queue</desc>
			<v:textBlock v:margins="rect(4,4,4,4)" v:tabSpace="42.5197"/>
			<v:textRect cx="18.5528" cy="112.827" width="37.11" height="15.3354"/>
			<rect x="0" y="105.16" width="37.1055" height="15.3354" class="st3"/>
			<text x="6.54" y="115.23" class="st4" v:langID="1040"><v:paragraph v:horizAlign="1"/><v:tabList/>Queue</text>		</g>
		<g id="shape11-36" v:mID="11" v:groupContext="shape" transform="translate(70.7131,84.342) rotate(-90)">
			<title>Foglio.11</title>
			<path d="M5.67 120.5 L0 120.5 L2.83 110.86 L5.67 120.5 Z" class="st5"/>
		</g>
		<g id="shape12-38" v:mID="12" v:groupContext="shape" transform="translate(181.57,-38.9877)">
			<title>Foglio.12</title>
			<path d="M0 120.5 L23.53 120.5" class="st6"/>
		</g>
		<g id="shape13-41" v:mID="13" v:groupContext="shape" transform="translate(262.925,-38.9877)">
			<title>Foglio.13</title>
			<path d="M0 120.5 L33.76 120.5" class="st6"/>
		</g>
		<g id="shape14-44" v:mID="14" v:groupContext="shape" transform="translate(71.28,97.098) rotate(-90)">
			<title>Foglio.14</title>
			<path d="M5.67 120.5 L0 120.5 L2.83 110.86 L5.67 120.5 Z" class="st5"/>
		</g>
		<g id="shape16-46" v:mID="16" v:groupContext="shape" transform="translate(182.137,-26.2318)">
			<title>Foglio.16</title>
			<path d="M0 120.5 L17.57 120.5" class="st6"/>
		</g>
		<g id="shape17-49" v:mID="17" v:groupContext="shape" transform="translate(279.111,-26.2318)">
			<title>Foglio.17</title>
			<path d="M0 120.5 L17.57 120.5" class="st6"/>
		</g>
		<g id="shape18-52" v:mID="18" v:groupContext="shape" transform="translate(203.397,-33.3184)">
			<title>Foglio.18</title>
			<desc>Consumes</desc>
			<v:textBlock v:margins="rect(4,4,4,4)" v:tabSpace="42.5197"/>
			<v:textRect cx="25.5118" cy="115.407" width="51.03" height="10.1764"/>
			<rect x="0" y="110.319" width="51.0236" height="10.1764" class="st3"/>
			<text x="6.39" y="117.81" class="st4" v:langID="1040"><v:paragraph v:horizAlign="1"/><v:tabList/>Consumes</text>		</g>
		<g id="shape19-55" v:mID="19" v:groupContext="shape" transform="translate(194.893,-21.1436)">
			<title>Foglio.19</title>
			<desc>Acknowledges</desc>
			<v:textBlock v:margins="rect(4,4,4,4)" v:tabSpace="42.5197"/>
			<v:textRect cx="33.1795" cy="115.407" width="66.36" height="10.1764"/>
			<rect x="0" y="110.319" width="66.3591" height="10.1764" class="st3"/>
			<text x="7.39" y="117.81" class="st4" v:langID="1040"><v:paragraph v:horizAlign="1"/><v:tabList/>Acknowledges</text>		</g>
		<g id="shape20-58" v:mID="20" v:groupContext="shape" transform="translate(57.9966,-48.909)">
			<title>Foglio.20</title>
			<path d="M7.09 120.5 L0 85.87 L4.77 83.16 L3.74 78.22 L21.09 68.22 L29.18 107.74 L7.09 120.5 Z" class="st7"/>
		</g>
		<g id="shape21-60" v:mID="21" v:groupContext="shape" transform="translate(169.844,82.5768) rotate(116.215)">
			<title>Foglio.21</title>
			<path d="M0 120.5 L8.48 120.5" class="st6"/>
		</g>
		<g id="shape22-63" v:mID="22" v:groupContext="shape" transform="translate(205.815,-48.2835)">
			<title>Foglio.22</title>
			<path d="M7.09 120.5 L0 85.87 L4.77 83.16 L3.74 78.22 L21.09 68.22 L29.18 107.74 L7.09 120.5 Z" class="st7"/>
		</g>
		<g id="shape23-65" v:mID="23" v:groupContext="shape" transform="translate(317.663,83.2024) rotate(116.215)">
			<title>Foglio.23</title>
			<path d="M0 120.5 L8.48 120.5" class="st6"/>
		</g>
		<g id="shape24-68" v:mID="24" v:groupContext="shape" transform="translate(296.94,-20.5625)">
			<title>Foglio.24</title>
			<rect x="0" y="97.818" width="46.7717" height="22.6772" class="st1"/>
		</g>
		<g id="shape4-70" v:mID="4" v:groupContext="shape" transform="translate(296.685,-20.5625)">
			<title>Foglio.4</title>
			<desc>Client 2</desc>
			<v:textBlock v:margins="rect(4,4,4,4)" v:tabSpace="42.5197"/>
			<v:textRect cx="18.5528" cy="109.157" width="37.11" height="22.6772"/>
			<rect x="0" y="97.818" width="37.1055" height="22.6772" class="st3"/>
			<text x="4.99" y="111.56" class="st4" v:langID="1040"><v:paragraph v:horizAlign="1"/><v:tabList/>Client 2</text>		</g>
	</g>
</svg>
