<?xml version="1.0" encoding="UTF-8" standalone="no"?>
<!DOCTYPE svg PUBLIC "-//W3C//DTD SVG 1.0//EN" "http://www.w3.org/TR/2001/REC-SVG-20010904/DTD/svg10.dtd">
<!-- Generato da Microsoft Visio 11.0, SVG Export, v1.0 jakartaeett_dt_026.svg Pagina 1 -->
<svg xmlns="http://www.w3.org/2000/svg" xmlns:v="http://schemas.microsoft.com/visio/2003/SVGExtensions/" width="4.94126in"
		height="1.35858in" viewBox="0 0 355.771 97.818" xml:space="preserve" color-interpolation-filters="sRGB" class="st7"
		xmlns:xlink="http://www.w3.org/1999/xlink">
	<v:documentProperties v:langID="1040" v:metric="true" v:viewMarkup="false">
		<v:userDefs>
			<v:ud v:nameU="MBSAAvail" v:prompt="" v:val="VT0(2):26"/>
			<v:ud v:nameU="MBSAAddinEnabled" v:prompt="" v:val="VT0(2):26"/>
			<v:ud v:nameU="MBSAAddinOutlineVisible" v:prompt="" v:val="VT0(1):26"/>
		</v:userDefs>
	</v:documentProperties>

	<style type="text/css">
	<![CDATA[
		.st1 {fill:#ffffff;stroke:none;stroke-linecap:round;stroke-linejoin:round;stroke-width:0.72}
		.st2 {fill:#c8d6e6;stroke:#000000;stroke-linecap:round;stroke-linejoin:round;stroke-width:0.72}
		.st3 {fill:none;stroke:none;stroke-linecap:round;stroke-linejoin:round;stroke-width:0.72}
		.st4 {fill:#000000;font-family:Arial;font-size:0.666664em}
		.st5 {stroke:#000000;stroke-linecap:round;stroke-linejoin:round;stroke-width:0.72}
		.st6 {fill:#000000;stroke:#000000;stroke-linecap:round;stroke-linejoin:round;stroke-width:0.72}
		.st7 {fill:none;fill-rule:evenodd;font-size:12;overflow:visible;stroke-linecap:square;stroke-miterlimit:3}
	]]>
	</style>

	<g v:mID="0" v:index="1" v:groupContext="foregroundPage">
		<title>Pagina 1</title>
		<v:pageProperties v:drawingScale="0.0393701" v:pageScale="0.0393701" v:drawingUnits="24" v:shadowOffsetX="8.50394"
				v:shadowOffsetY="-8.50394"/>
		<g id="shape36-1" v:mID="36" v:groupContext="shape" transform="translate(0.72,-0.72)">
			<title>Foglio.36</title>
			<rect x="0" y="1.44" width="354.331" height="96.378" class="st1"/>
		</g>
		<g id="shape35-3" v:mID="35" v:groupContext="shape" transform="translate(3.55465,-51.7436)">
			<title>Foglio.35</title>
			<rect x="0" y="75.1408" width="59.5276" height="22.6772" class="st2"/>
		</g>
		<g id="shape15-5" v:mID="15" v:groupContext="shape" transform="translate(0.72,-51.7436)">
			<title>Foglio.15</title>
			<desc>Inventory</desc>
			<v:textBlock v:margins="rect(4,4,4,4)" v:tabSpace="42.5197"/>
			<v:textRect cx="28.3465" cy="86.4794" width="56.7" height="22.6772"/>
			<rect x="0" y="75.1408" width="56.6929" height="22.6772" class="st3"/>
			<text x="11.89" y="88.88" class="st4" v:langID="1040"><v:paragraph v:horizAlign="1"/><v:tabList/>Inventory</text>		</g>
		<g id="shape1-8" v:mID="1" v:groupContext="shape" transform="translate(88.594,-51.7436)">
			<title>Foglio.1</title>
			<rect x="0" y="75.1408" width="59.5276" height="22.6772" class="st2"/>
		</g>
		<g id="shape2-10" v:mID="2" v:groupContext="shape" transform="translate(85.7594,-51.7436)">
			<title>Foglio.2</title>
			<desc>Factory</desc>
			<v:textBlock v:margins="rect(4,4,4,4)" v:tabSpace="42.5197"/>
			<v:textRect cx="28.3465" cy="86.4794" width="56.7" height="22.6772"/>
			<rect x="0" y="75.1408" width="56.6929" height="22.6772" class="st3"/>
			<text x="15.01" y="88.88" class="st4" v:langID="1040"><v:paragraph v:horizAlign="1"/><v:tabList/>Factory</text>		</g>
		<g id="shape3-13" v:mID="3" v:groupContext="shape" transform="translate(173.633,-51.7436)">
			<title>Foglio.3</title>
			<rect x="0" y="75.1408" width="59.5276" height="22.6772" class="st2"/>
		</g>
		<g id="shape4-15" v:mID="4" v:groupContext="shape" transform="translate(170.799,-51.7436)">
			<title>Foglio.4</title>
			<desc>Parts</desc>
			<v:textBlock v:margins="rect(4,4,4,4)" v:tabSpace="42.5197"/>
			<v:textRect cx="28.3465" cy="86.4794" width="56.7" height="22.6772"/>
			<rect x="0" y="75.1408" width="56.6929" height="22.6772" class="st3"/>
			<text x="19.01" y="88.88" class="st4" v:langID="1040"><v:paragraph v:horizAlign="1"/><v:tabList/>Parts</text>		</g>
		<g id="shape5-18" v:mID="5" v:groupContext="shape" transform="translate(3.55465,-3.69638)">
			<title>Foglio.5</title>
			<rect x="0" y="75.1408" width="59.5276" height="22.6772" class="st2"/>
		</g>
		<g id="shape6-20" v:mID="6" v:groupContext="shape" transform="translate(0.72,-3.69638)">
			<title>Foglio.6</title>
			<desc>Sales</desc>
			<v:textBlock v:margins="rect(4,4,4,4)" v:tabSpace="42.5197"/>
			<v:textRect cx="28.3465" cy="86.4794" width="56.7" height="22.6772"/>
			<rect x="0" y="75.1408" width="56.6929" height="22.6772" class="st3"/>
			<text x="18.34" y="88.88" class="st4" v:langID="1040"><v:paragraph v:horizAlign="1"/><v:tabList/>Sales</text>		</g>
		<g id="shape7-23" v:mID="7" v:groupContext="shape" transform="translate(91.4287,-3.69638)">
			<title>Foglio.7</title>
			<rect x="0" y="75.1408" width="144.567" height="22.6772" class="st2"/>
		</g>
		<g id="shape8-25" v:mID="8" v:groupContext="shape" transform="translate(88.594,-3.69638)">
			<title>Foglio.8</title>
			<desc>Accounting</desc>
			<v:textBlock v:margins="rect(4,4,4,4)" v:tabSpace="42.5197"/>
			<v:textRect cx="52.4409" cy="86.4794" width="104.89" height="22.6772"/>
			<rect x="0" y="75.1408" width="104.882" height="22.6772" class="st3"/>
			<text x="32.65" y="88.88" class="st4" v:langID="1040"><v:paragraph v:horizAlign="1"/><v:tabList/>Accounting</text>		</g>
		<g id="shape9-28" v:mID="9" v:groupContext="shape" transform="translate(261.507,-68.7515)">
			<title>Foglio.9</title>
			<rect x="0" y="75.1408" width="87.874" height="22.6772" class="st2"/>
		</g>
		<g id="shape10-30" v:mID="10" v:groupContext="shape" transform="translate(258.673,-68.7515)">
			<title>Foglio.10</title>
			<desc>Parts Inventory</desc>
			<v:textBlock v:margins="rect(4,4,4,4)" v:tabSpace="42.5197"/>
			<v:textRect cx="38.2677" cy="86.4794" width="76.54" height="22.6772"/>
			<rect x="0" y="75.1408" width="76.5354" height="22.6772" class="st3"/>
			<text x="11.37" y="88.88" class="st4" v:langID="1040"><v:paragraph v:horizAlign="1"/><v:tabList/>Parts Inventory</text>		</g>
		<g id="shape11-33" v:mID="11" v:groupContext="shape" transform="translate(261.507,-37.5704)">
			<title>Foglio.11</title>
			<rect x="0" y="75.1408" width="87.874" height="22.6772" class="st2"/>
		</g>
		<g id="shape12-35" v:mID="12" v:groupContext="shape" transform="translate(258.673,-37.5704)">
			<title>Foglio.12</title>
			<desc>Parts Order</desc>
			<v:textBlock v:margins="rect(4,4,4,4)" v:tabSpace="42.5197"/>
			<v:textRect cx="31.1811" cy="86.4794" width="62.37" height="22.6772"/>
			<rect x="0" y="75.1408" width="62.3622" height="22.6772" class="st3"/>
			<text x="10.51" y="88.88" class="st4" v:langID="1040"><v:paragraph v:horizAlign="1"/><v:tabList/>Parts Order</text>		</g>
		<g id="shape13-38" v:mID="13" v:groupContext="shape" transform="translate(88.3106,-63.0822) scale(-1,1)">
			<title>Foglio.13</title>
			<path d="M0 97.82 L25.23 97.82" class="st5"/>
		</g>
		<g id="shape14-41" v:mID="14" v:groupContext="shape" transform="translate(176.491,37.5704) rotate(90) scale(-1,1)">
			<title>Foglio.14</title>
			<path d="M5.67 97.82 L0 97.82 L2.83 88.18 L5.67 97.82 Z" class="st6"/>
		</g>
		<g id="shape16-43" v:mID="16" v:groupContext="shape" transform="translate(173.492,-63.0822) scale(-1,1)">
			<title>Foglio.16</title>
			<path d="M0 97.82 L25.23 97.82" class="st5"/>
		</g>
		<g id="shape17-46" v:mID="17" v:groupContext="shape" transform="translate(261.672,37.5704) rotate(90) scale(-1,1)">
			<title>Foglio.17</title>
			<path d="M5.67 97.82 L0 97.82 L2.83 88.18 L5.67 97.82 Z" class="st6"/>
		</g>
		<g id="shape18-48" v:mID="18" v:groupContext="shape" transform="translate(128.302,71.3027) rotate(90) scale(-1,1)">
			<title>Foglio.18</title>
			<path d="M0 97.82 L25.23 97.82" class="st5"/>
		</g>
		<g id="shape19-51" v:mID="19" v:groupContext="shape" transform="translate(27.6491,159.483) scale(1,-1)">
			<title>Foglio.19</title>
			<path d="M5.67 97.82 L0 97.82 L2.83 88.18 L5.67 97.82 Z" class="st6"/>
		</g>
		<g id="shape20-53" v:mID="20" v:groupContext="shape" transform="translate(217.593,71.5861) rotate(90) scale(-1,1)">
			<title>Foglio.20</title>
			<path d="M0 97.82 L25.23 97.82" class="st5"/>
		</g>
		<g id="shape21-56" v:mID="21" v:groupContext="shape" transform="translate(116.94,159.766) scale(1,-1)">
			<title>Foglio.21</title>
			<path d="M5.67 97.82 L0 97.82 L2.83 88.18 L5.67 97.82 Z" class="st6"/>
		</g>
		<g id="shape22-58" v:mID="22" v:groupContext="shape" transform="translate(302.632,71.5861) rotate(90) scale(-1,1)">
			<title>Foglio.22</title>
			<path d="M0 97.82 L25.23 97.82" class="st5"/>
		</g>
		<g id="shape23-61" v:mID="23" v:groupContext="shape" transform="translate(201.98,159.766) scale(1,-1)">
			<title>Foglio.23</title>
			<path d="M5.67 97.82 L0 97.82 L2.83 88.18 L5.67 97.82 Z" class="st6"/>
		</g>
		<g id="shape24-63" v:mID="24" v:groupContext="shape" transform="translate(261.224,-81.5074) scale(-1,1)">
			<title>Foglio.24</title>
			<path d="M0 97.82 L18.14 97.82" class="st5"/>
		</g>
		<g id="shape25-66" v:mID="25" v:groupContext="shape" transform="translate(349.404,19.1452) rotate(90) scale(-1,1)">
			<title>Foglio.25</title>
			<path d="M5.67 97.82 L0 97.82 L2.83 88.18 L5.67 97.82 Z" class="st6"/>
		</g>
		<g id="shape26-68" v:mID="26" v:groupContext="shape" transform="translate(145.264,16.3106) rotate(-90) scale(-1,1)">
			<title>Foglio.26</title>
			<path d="M0 97.82 L35.43 97.82" class="st5"/>
		</g>
		<g id="shape27-71" v:mID="27" v:groupContext="shape" transform="translate(261.224,-46.0743) scale(-1,1)">
			<title>Foglio.27</title>
			<path d="M0 97.82 L18.14 97.82" class="st5"/>
		</g>
		<g id="shape28-74" v:mID="28" v:groupContext="shape" transform="translate(349.404,54.5783) rotate(90) scale(-1,1)">
			<title>Foglio.28</title>
			<path d="M5.67 97.82 L0 97.82 L2.83 88.18 L5.67 97.82 Z" class="st6"/>
		</g>
		<g id="shape29-76" v:mID="29" v:groupContext="shape" transform="translate(243.082,-63.0822) scale(-1,1)">
			<title>Foglio.29</title>
			<path d="M0 97.82 L9.92 97.82" class="st5"/>
		</g>
	</g>
</svg>
