<?xml version="1.0" encoding="UTF-8" standalone="no"?>
<!DOCTYPE svg PUBLIC "-//W3C//DTD SVG 1.0//EN" "http://www.w3.org/TR/2001/REC-SVG-20010904/DTD/svg10.dtd">
<!-- Generato da Microsoft Visio 11.0, SVG Export, v1.0 jakartaeett_dt_012.svg Pagina 1 -->
<svg xmlns="http://www.w3.org/2000/svg" xmlns:v="http://schemas.microsoft.com/visio/2003/SVGExtensions/" width="5.11213in"
		height="3.36646in" viewBox="0 0 368.073 242.385" xml:space="preserve" color-interpolation-filters="sRGB" class="st10"
		xmlns:xlink="http://www.w3.org/1999/xlink">
	<v:documentProperties v:langID="1040" v:metric="true" v:viewMarkup="false">
		<v:userDefs>
			<v:ud v:nameU="MBSAAddinOutlineVisible" v:prompt="" v:val="VT0(1):26"/>
		</v:userDefs>
	</v:documentProperties>

	<style type="text/css">
	<![CDATA[
		.st1 {fill:#ffffff;stroke:none;stroke-linecap:round;stroke-linejoin:round;stroke-width:0.72}
		.st2 {fill:#cadaa9;stroke:#000000;stroke-linecap:round;stroke-linejoin:round;stroke-width:0.72}
		.st3 {fill:#cadaa9;fill-opacity:0;stroke:none;stroke-linecap:round;stroke-linejoin:round;stroke-width:0.72}
		.st4 {stroke:#000000;stroke-linecap:round;stroke-linejoin:round;stroke-width:0.72}
		.st5 {fill:#c8d6e6;stroke:#000000;stroke-linecap:round;stroke-linejoin:round;stroke-width:0.72}
		.st6 {fill:none;stroke:none;stroke-linecap:round;stroke-linejoin:round;stroke-width:0.72}
		.st7 {fill:#000000;font-family:Arial;font-size:0.666664em}
		.st8 {fill:#f2f2f2;stroke:#000000;stroke-linecap:round;stroke-linejoin:round;stroke-width:0.72}
		.st9 {font-size:1em}
		.st10 {fill:none;fill-rule:evenodd;font-size:12;overflow:visible;stroke-linecap:square;stroke-miterlimit:3}
	]]>
	</style>

	<g v:mID="0" v:index="1" v:groupContext="foregroundPage">
		<title>Pagina 1</title>
		<v:pageProperties v:drawingScale="0.0393701" v:pageScale="0.0393701" v:drawingUnits="24" v:shadowOffsetX="8.50394"
				v:shadowOffsetY="-8.50394"/>
		<g id="shape35-1" v:mID="35" v:groupContext="shape" transform="translate(7.80661,-0.72)">
			<title>Foglio.35</title>
			<rect x="0" y="1.44" width="354.331" height="240.945" class="st1"/>
		</g>
		<g id="shape28-3" v:mID="28" v:groupContext="shape" transform="translate(92.846,-158.326)">
			<title>Foglio.28</title>
			<rect x="0" y="214.589" width="60.7465" height="27.7959" class="st2"/>
		</g>
		<g id="shape229-5" v:mID="229" v:groupContext="shape" transform="translate(290.052,-108.987)">
			<title>Foglio.229</title>
			<rect x="0" y="214.589" width="60.7465" height="27.7959" class="st3"/>
		</g>
		<g id="shape480-7" v:mID="480" v:groupContext="shape" transform="translate(-43.3389,30.2027) rotate(-90) scale(-1,1)">
			<title>Foglio.480</title>
			<path d="M0 242.38 L13.04 242.38" class="st4"/>
		</g>
		<g id="shape483-10" v:mID="483" v:groupContext="shape" transform="translate(156.526,-212.182)">
			<title>Foglio.483</title>
			<rect x="0" y="222.542" width="85.0394" height="19.8425" class="st5"/>
		</g>
		<g id="shape484-12" v:mID="484" v:groupContext="shape" transform="translate(155.109,-212.182)">
			<title>Foglio.484</title>
			<desc>Assembly Root</desc>
			<v:textBlock v:margins="rect(4,4,4,4)" v:tabSpace="42.5197"/>
			<v:textRect cx="36.1417" cy="232.464" width="72.29" height="19.8425"/>
			<rect x="0" y="222.542" width="72.2835" height="19.8425" class="st6"/>
			<text x="9.24" y="234.86" class="st7" v:langID="1040"><v:paragraph v:horizAlign="1"/><v:tabList/>Assembly Root</text>		</g>
		<g id="shape1-15" v:mID="1" v:groupContext="shape" transform="translate(201.881,-199.145) scale(-1,1)">
			<title>Foglio.1</title>
			<path d="M0 242.38 L79.93 242.38" class="st4"/>
		</g>
		<g id="shape2-18" v:mID="2" v:groupContext="shape" transform="translate(335.109,-199.145) scale(-1,1)">
			<title>Foglio.2</title>
			<path d="M0 242.38 L133.23 242.38" class="st4"/>
		</g>
		<g id="shape3-21" v:mID="3" v:groupContext="shape" transform="translate(-120.434,43.2397) rotate(-90) scale(-1,1)">
			<title>Foglio.3</title>
			<path d="M0 242.38 L13.04 242.38" class="st4"/>
		</g>
		<g id="shape4-24" v:mID="4" v:groupContext="shape" transform="translate(92.846,-162.295)">
			<title>Foglio.4</title>
			<desc>WEB-INF</desc>
			<v:textBlock v:margins="rect(4,4,4,4)" v:tabSpace="42.5197"/>
			<v:textRect cx="25.5118" cy="232.464" width="51.03" height="19.8425"/>
			<rect x="0" y="222.542" width="51.0236" height="19.8425" class="st6"/>
			<text x="8.63" y="234.86" class="st7" v:langID="1040"><v:paragraph v:horizAlign="1"/><v:tabList/>WEB-INF</text>		</g>
		<g id="shape14-27" v:mID="14" v:groupContext="shape" transform="translate(92.7241,43.2397) rotate(-90) scale(-1,1)">
			<title>Foglio.14</title>
			<path d="M0 242.38 L13.04 242.38" class="st4"/>
		</g>
		<g id="shape17-30" v:mID="17" v:groupContext="shape" transform="translate(31.8776,-84.6524)">
			<title>Foglio.17</title>
			<path d="M30.21 229.63 L22.12 190.11 L0 202.76 L8.12 242.38 L30.21 229.63 Z" class="st8"/>
		</g>
		<g id="shape18-32" v:mID="18" v:groupContext="shape" transform="translate(33.7414,-83.802)">
			<title>Foglio.18</title>
			<path d="M30.21 229.63 L22.12 190.11 L0 202.76 L8.12 242.38 L30.21 229.63 Z" class="st8"/>
		</g>
		<g id="shape19-34" v:mID="19" v:groupContext="shape" transform="translate(35.4421,-83.0102)">
			<title>Foglio.19</title>
			<path d="M30.21 229.63 L22.12 190.11 L0 202.76 L8.12 242.38 L30.21 229.63 Z" class="st8"/>
		</g>
		<g id="shape20-36" v:mID="20" v:groupContext="shape" transform="translate(38.2768,-82.2184)">
			<title>Foglio.20</title>
			<path d="M7.09 242.38 L0 207.76 L4.77 205.05 L3.74 200.1 L21.09 190.11 L29.18 229.63 L7.09 242.38 Z" class="st8"/>
		</g>
		<g id="shape21-38" v:mID="21" v:groupContext="shape" transform="translate(259.477,225) rotate(116.215)">
			<title>Foglio.21</title>
			<path d="M0 242.38 L8.48 242.38" class="st4"/>
		</g>
		<g id="shape22-41" v:mID="22" v:groupContext="shape" transform="translate(-196.97,97.098) rotate(-90) scale(-1,1)">
			<title>Foglio.22</title>
			<path d="M0 242.38 L13.04 242.38" class="st4"/>
		</g>
		<g id="shape23-44" v:mID="23" v:groupContext="shape" transform="translate(0.769606,-66.7885)">
			<title>Foglio.23</title>
			<desc>web.xml</desc>
			<v:textBlock v:margins="rect(4,4,4,4)" v:tabSpace="42.5197"/>
			<v:textRect cx="33.5622" cy="236.134" width="67.13" height="12.5008"/>
			<rect x="0" y="229.884" width="67.1244" height="12.5008" class="st6"/>
			<text x="18.89" y="238.53" class="st7" v:langID="1040"><v:paragraph v:horizAlign="1"/><v:tabList/>web.xml</text>		</g>
		<g id="shape24-47" v:mID="24" v:groupContext="shape" transform="translate(0.72,-55.1948)">
			<title>Foglio.24</title>
			<desc>glassfish-web.xml</desc>
			<v:textBlock v:margins="rect(4,4,4,4)" v:tabSpace="42.5197"/>
			<v:textRect cx="48.8976" cy="236.134" width="97.8" height="12.5008"/>
			<rect x="0" y="229.884" width="97.7953" height="12.5008" class="st6"/>
			<text x="17.33" y="238.53" class="st7" v:langID="1040"><v:paragraph v:horizAlign="1"/><v:tabList/>glassfish-web.xml</text>		</g>
		<g id="shape25-50" v:mID="25" v:groupContext="shape" transform="translate(10.5846,-43.2397)">
			<title>Foglio.25</title>
			<desc>(optional)</desc>
			<v:textBlock v:margins="rect(4,4,4,4)" v:tabSpace="42.5197"/>
			<v:textRect cx="22.3512" cy="236.134" width="44.71" height="12.5008"/>
			<rect x="0" y="229.884" width="44.7024" height="12.5008" class="st6"/>
			<text x="5.68" y="238.53" class="st7" v:langID="1040"><v:paragraph v:horizAlign="1"/><v:tabList/>(optional)</text>		</g>
		<g id="shape5-53" v:mID="5" v:groupContext="shape" transform="translate(122.418,-145.287) scale(-1,1)">
			<title>Foglio.5</title>
			<path d="M0 242.38 L77 242.38" class="st4"/>
		</g>
		<g id="shape6-56" v:mID="6" v:groupContext="shape" transform="translate(-119.966,84.0609) rotate(-90) scale(-1,1)">
			<title>Foglio.6</title>
			<path d="M0 242.38 L13.04 242.38" class="st4"/>
		</g>
		<g id="shape7-59" v:mID="7" v:groupContext="shape" transform="translate(199.422,-145.287) scale(-1,1)">
			<title>Foglio.7</title>
			<path d="M0 242.38 L77 242.38" class="st4"/>
		</g>
		<g id="shape13-62" v:mID="13" v:groupContext="shape" transform="translate(-42.5806,97.0719) rotate(-90) scale(-1,1)">
			<title>Foglio.13</title>
			<path d="M0 242.38 L16.73 242.38" class="st4"/>
		</g>
		<g id="shape8-65" v:mID="8" v:groupContext="shape" transform="translate(323.187,-141.201)">
			<title>Foglio.8</title>
			<path d="M30.21 229.63 L22.12 190.11 L0 202.76 L8.12 242.38 L30.21 229.63 Z" class="st8"/>
		</g>
		<g id="shape9-67" v:mID="9" v:groupContext="shape" transform="translate(325.051,-140.351)">
			<title>Foglio.9</title>
			<path d="M30.21 229.63 L22.12 190.11 L0 202.76 L8.12 242.38 L30.21 229.63 Z" class="st8"/>
		</g>
		<g id="shape10-69" v:mID="10" v:groupContext="shape" transform="translate(326.752,-139.559)">
			<title>Foglio.10</title>
			<path d="M30.21 229.63 L22.12 190.11 L0 202.76 L8.12 242.38 L30.21 229.63 Z" class="st8"/>
		</g>
		<g id="shape15-71" v:mID="15" v:groupContext="shape" transform="translate(329.586,-138.767)">
			<title>Foglio.15</title>
			<path d="M7.09 242.38 L0 207.76 L4.77 205.05 L3.74 200.1 L21.09 190.11 L29.18 229.63 L7.09 242.38 Z" class="st8"/>
		</g>
		<g id="shape26-73" v:mID="26" v:groupContext="shape" transform="translate(550.787,168.451) rotate(116.215)">
			<title>Foglio.26</title>
			<path d="M0 242.38 L8.48 242.38" class="st4"/>
		</g>
		<g id="shape27-76" v:mID="27" v:groupContext="shape" transform="translate(300.229,-111.271)">
			<title>Foglio.27</title>
			<desc>Web pages</desc>
			<v:textBlock v:margins="rect(4,4,4,4)" v:tabSpace="42.5197"/>
			<v:textRect cx="33.5622" cy="228.697" width="67.13" height="27.3756"/>
			<rect x="0" y="215.009" width="67.1244" height="27.3756" class="st6"/>
			<text x="13.33" y="231.1" class="st7" v:langID="1040"><v:paragraph v:horizAlign="1"/><v:tabList/>Web pages</text>		</g>
		<g id="shape485-79" v:mID="485" v:groupContext="shape" transform="translate(107.019,-111.271)">
			<title>Foglio.485</title>
			<rect x="0" y="221.392" width="28.3465" height="20.9928" class="st2"/>
		</g>
		<g id="shape486-81" v:mID="486" v:groupContext="shape" transform="translate(-119.952,97.098) rotate(-90) scale(-1,1)">
			<title>Foglio.486</title>
			<path d="M0 242.38 L13.04 242.38" class="st4"/>
		</g>
		<g id="shape487-84" v:mID="487" v:groupContext="shape" transform="translate(109.854,-111.271)">
			<title>Foglio.487</title>
			<desc>lib</desc>
			<v:textBlock v:margins="rect(4,4,4,4)" v:tabSpace="42.5197"/>
			<v:textRect cx="9.92126" cy="232.464" width="19.85" height="19.8425"/>
			<rect x="0" y="222.542" width="19.8425" height="19.8425" class="st6"/>
			<text x="5.92" y="234.86" class="st7" v:langID="1040"><v:paragraph v:horizAlign="1"/><v:tabList/>lib</text>		</g>
		<g id="shape488-87" v:mID="488" v:groupContext="shape" transform="translate(-121.192,131.114) rotate(-90) scale(-1,1)">
			<title>Foglio.488</title>
			<path d="M0 242.38 L13.04 242.38" class="st4"/>
		</g>
		<g id="shape489-90" v:mID="489" v:groupContext="shape" transform="translate(106.691,-50.5776)">
			<title>Foglio.489</title>
			<path d="M30.21 229.63 L22.12 190.11 L0 202.76 L8.12 242.38 L30.21 229.63 Z" class="st8"/>
		</g>
		<g id="shape490-92" v:mID="490" v:groupContext="shape" transform="translate(108.555,-49.7272)">
			<title>Foglio.490</title>
			<path d="M30.21 229.63 L22.12 190.11 L0 202.76 L8.12 242.38 L30.21 229.63 Z" class="st8"/>
		</g>
		<g id="shape491-94" v:mID="491" v:groupContext="shape" transform="translate(110.256,-48.9354)">
			<title>Foglio.491</title>
			<path d="M30.21 229.63 L22.12 190.11 L0 202.76 L8.12 242.38 L30.21 229.63 Z" class="st8"/>
		</g>
		<g id="shape492-96" v:mID="492" v:groupContext="shape" transform="translate(113.09,-48.1436)">
			<title>Foglio.492</title>
			<path d="M7.09 242.38 L0 207.76 L4.77 205.05 L3.74 200.1 L21.09 190.11 L29.18 229.63 L7.09 242.38 Z" class="st8"/>
		</g>
		<g id="shape493-98" v:mID="493" v:groupContext="shape" transform="translate(334.291,259.075) rotate(116.215)">
			<title>Foglio.493</title>
			<path d="M0 242.38 L8.48 242.38" class="st4"/>
		</g>
		<g id="shape494-101" v:mID="494" v:groupContext="shape" transform="translate(84.7956,-24.283)">
			<title>Foglio.494</title>
			<desc>Library archive files</desc>
			<v:textBlock v:margins="rect(4,4,4,4)" v:tabSpace="42.5197"/>
			<v:textRect cx="33.5622" cy="231.489" width="67.13" height="21.7913"/>
			<rect x="0" y="220.594" width="67.1244" height="21.7913" class="st6"/>
			<text x="21.34" y="229.09" class="st7" v:langID="1040"><v:paragraph v:horizAlign="1"/><v:tabList/>Library<v:newlineChar/><tspan
						x="12.44" dy="1.2em" class="st9">archive files</tspan></text>		</g>
		<g id="shape11-105" v:mID="11" v:groupContext="shape" transform="translate(175.051,-111.271)">
			<title>Foglio.11</title>
			<rect x="0" y="221.392" width="47.7354" height="20.9928" class="st2"/>
		</g>
		<g id="shape12-107" v:mID="12" v:groupContext="shape" transform="translate(175.051,-111.271)">
			<title>Foglio.12</title>
			<desc>classes</desc>
			<v:textBlock v:margins="rect(4,4,4,4)" v:tabSpace="42.5197"/>
			<v:textRect cx="20.1827" cy="232.464" width="40.37" height="19.8425"/>
			<rect x="0" y="222.542" width="40.3654" height="19.8425" class="st6"/>
			<text x="6.84" y="234.86" class="st7" v:langID="1040"><v:paragraph v:horizAlign="1"/><v:tabList/>classes</text>		</g>
		<g id="shape16-110" v:mID="16" v:groupContext="shape" transform="translate(-42.2759,131.114) rotate(-90) scale(-1,1)">
			<title>Foglio.16</title>
			<path d="M0 242.38 L13.04 242.38" class="st4"/>
		</g>
		<g id="shape29-113" v:mID="29" v:groupContext="shape" transform="translate(185.608,-50.5776)">
			<title>Foglio.29</title>
			<path d="M30.21 229.63 L22.12 190.11 L0 202.76 L8.12 242.38 L30.21 229.63 Z" class="st8"/>
		</g>
		<g id="shape30-115" v:mID="30" v:groupContext="shape" transform="translate(187.471,-49.7272)">
			<title>Foglio.30</title>
			<path d="M30.21 229.63 L22.12 190.11 L0 202.76 L8.12 242.38 L30.21 229.63 Z" class="st8"/>
		</g>
		<g id="shape31-117" v:mID="31" v:groupContext="shape" transform="translate(189.172,-48.9354)">
			<title>Foglio.31</title>
			<path d="M30.21 229.63 L22.12 190.11 L0 202.76 L8.12 242.38 L30.21 229.63 Z" class="st8"/>
		</g>
		<g id="shape32-119" v:mID="32" v:groupContext="shape" transform="translate(192.007,-48.1436)">
			<title>Foglio.32</title>
			<path d="M7.09 242.38 L0 207.76 L4.77 205.05 L3.74 200.1 L21.09 190.11 L29.18 229.63 L7.09 242.38 Z" class="st8"/>
		</g>
		<g id="shape33-121" v:mID="33" v:groupContext="shape" transform="translate(413.207,259.075) rotate(116.215)">
			<title>Foglio.33</title>
			<path d="M0 242.38 L8.48 242.38" class="st4"/>
		</g>
		<g id="shape34-124" v:mID="34" v:groupContext="shape" transform="translate(163.712,-12.5015)">
			<title>Foglio.34</title>
			<desc>All server-side .class files for this web module</desc>
			<v:textBlock v:margins="rect(4,4,4,4)" v:tabSpace="42.5197"/>
			<v:textRect cx="33.5622" cy="225.82" width="67.13" height="33.1299"/>
			<rect x="0" y="209.255" width="67.1244" height="33.1299" class="st6"/>
			<text x="8.22" y="218.62" class="st7" v:langID="1040"><v:paragraph v:horizAlign="1"/><v:tabList/>All server-side<v:newlineChar/><tspan
						x="9.33" dy="1.2em" class="st9">.</tspan>class files for<v:newlineChar/><tspan x="4.66" dy="1.2em"
						class="st9">this web module</tspan></text>		</g>
	</g>
</svg>
